<?xml version="1.0" standalone="no"?>
<!DOCTYPE svg PUBLIC "-//W3C//DTD SVG 1.1//EN" "http://www.w3.org/Graphics/SVG/1.1/DTD/svg11.dtd" >
<svg xmlns="http://www.w3.org/2000/svg">
<metadata>
Created by FontPrep 20130207 at Mon Nov 21 12:25:45 2016
 By Rene Bieder
Copyright (c) 2013 by Rene' Bieder. All rights reserved.
</metadata>
<defs>
<font id="a0f86675ee8ed21ccc61ee9a6f266935" horiz-adv-x='1024' >
  <font-face 
    font-family="Canaro-ThinItalic"
    font-weight="250"
    font-style="italic"
    font-stretch="normal"
    units-per-em="2048"
    panose-1="0 0 3 0 0 0 0 0 0 0"
    ascent="1638"
    descent="-410"
    x-height="922"
    cap-height="1393"
    bbox="-197 -557 2873 1864"
    underline-thickness="102"
    underline-position="-102"
    slope="-10"
    unicode-range="U+0020-FB02"
  />
<missing-glyph horiz-adv-x="1781" 
d="M348 143h977l-977 977v-977zM1434 1249h-985l985 -985v985zM1577 1393v-1393h-1372v1393h1372z" />
    <glyph glyph-name="fi" unicode="fi" horiz-adv-x="1155" 
d="M821 1546q137 0 264 -57l-20 -35q-115 51 -265 51q-305 0 -370 -360l-39 -223h649l-163 -922h-43l155 881h-606l-156 -881h-43l156 881h-260l8 41h260l39 223q72 401 434 401z" />
    <glyph glyph-name="fl" unicode="fl" horiz-adv-x="1185" 
d="M842 1546q129 0 264 -73l33 -5l-258 -1468h-43l252 1432q-120 74 -272 74t-254 -89q-102 -88 -130 -252l-43 -243h404l-7 -41h-403l-156 -881h-43l156 881h-260l6 41h260l43 243q33 185 148 283t303 98z" />
    <glyph glyph-name="f_f" unicode="ff" horiz-adv-x="1384" 
d="M831 1505q-173 0 -271 -87t-130 -273l-39 -223h629l57 325q16 88 60 154q-133 104 -306 104zM1411 1546q70 0 162 -24l-19 -37q-86 20 -151 20q-109 -1 -185 -71t-98 -187l-57 -325h383l-8 -41h-383l-154 -881h-43l154 881h-629l-154 -881h-43l154 881h-260l8 41h260
l39 223q72 401 437 401q180 0 339 -110q98 110 248 110z" />
    <glyph glyph-name="f_f_i" unicode="ffi" horiz-adv-x="1826" 
d="M1020 922l39 223q29 152 92 244q-143 117 -318 117t-273 -88q-98 -87 -130 -273l-39 -223h629zM826 1546q182 0 354 -121q109 121 313 121q137 0 264 -57l-20 -35q-115 51 -265 51q-305 0 -370 -360l-39 -223h649l-164 -922h-43l156 881h-606l-156 -881h-43l156 881h-629
l-156 -881h-43l156 881h-260l8 41h260l39 223q72 401 439 401z" />
    <glyph glyph-name="f_f_l" unicode="ffl" horiz-adv-x="1837" 
d="M1020 922l43 243q27 139 90 224q-145 117 -320 117t-273 -88q-98 -87 -130 -273l-39 -223h629zM1487 1505q-150 0 -251 -88t-130 -252l-43 -243h403l-8 -41h-403l-154 -881h-43l154 881h-629l-154 -881h-43l154 881h-260l8 41h260l39 223q72 401 440 401q183 0 355 -123
q117 123 331 123q125 0 248 -67l31 -2l-260 -1477h-43l254 1442q-106 63 -256 63z" />
    <glyph glyph-name=".notdef" horiz-adv-x="1781" 
d="M348 143h977l-977 977v-977zM1434 1249h-985l985 -985v985zM1577 1393v-1393h-1372v1393h1372z" />
    <glyph glyph-name=".null" horiz-adv-x="0" 
 />
    <glyph glyph-name="nonmarkingreturn" horiz-adv-x="681" 
 />
    <glyph glyph-name="space" unicode=" " horiz-adv-x="512" 
 />
    <glyph glyph-name="exclam" unicode="!" horiz-adv-x="462" 
d="M160 -16q-20 0 -34 13q-13 13 -13 33t13 34q14 14 34 14t34 -13t13 -33q0 -20 -13 -35q-14 -13 -34 -13zM418 1393l-187 -1065h-45l187 1065h45z" />
    <glyph glyph-name="quotedbl" unicode="&#x22;" horiz-adv-x="630" 
d="M659 1552l-100 -450h-37l86 450h51zM414 1552l-101 -450h-37l86 450h52z" />
    <glyph glyph-name="numbersign" unicode="#" horiz-adv-x="1454" 
d="M598 905l-199 -409h521l198 409h-520zM963 496h282l-6 -33h-293l-227 -463h-43l225 463h-518l-227 -463h-43l225 463h-236l7 33h247l199 409h-262l6 33h272l224 457h43l-224 -457h521l223 457h43l-223 -457h258l-6 -33h-269z" />
    <glyph glyph-name="dollar" unicode="$" horiz-adv-x="1402" 
d="M866 1382q-215 0 -348 -103t-133 -273q0 -94 71 -148q70 -54 200 -82q321 -73 401 -121q106 -66 131 -137q16 -45 16 -102q0 -201 -158 -324t-397 -123h-16l-55 -293h-43l55 295q-264 12 -494 115l25 39q264 -115 536 -115q215 0 358 111q142 111 142 283t-187 242
q-77 30 -161 49q-84 20 -88 21t-11 2t-14 3q-198 43 -278 104t-80 170q0 189 142 307t366 121l47 275h43l-47 -275q240 -6 438 -75l-18 -39q-228 73 -443 73z" />
    <glyph glyph-name="percent" unicode="%" horiz-adv-x="2211" 
d="M1565 14q155 0 269 112t114 277q0 123 -74 200t-191 77q-155 0 -269 -112t-114 -279q0 -123 73 -199t192 -76zM1690 723q135 0 218 -86t83 -225q0 -190 -128 -316t-307 -127q-135 0 -218 85t-83 227q0 190 128 316q129 126 307 126zM614 715q154 -1 268 111t113 278
q0 123 -73 200q-74 77 -191 76q-155 0 -269 -112t-114 -279q0 -123 74 -199t192 -75zM575 0h-53l1155 1393h54zM739 1423q133 0 217 -86t84 -225q0 -190 -128 -316t-306 -126q-135 0 -218 85t-83 226q0 190 128 316t306 126z" />
    <glyph glyph-name="ampersand" unicode="&#x26;" horiz-adv-x="1292" 
d="M641 688q-236 0 -375 -100t-139 -271q0 -141 98 -223t289 -82t324 100t161 265l54 311h-412zM508 -29q-209 0 -318 92q-108 92 -108 246t101 258t280 144q-109 29 -166 99t-57 169q0 180 138 297t367 117q137 0 261 -35l-19 -39q-131 33 -248 33q-207 0 -331 -102
t-123 -265q0 -117 95 -187t269 -69h611l-9 -41h-155l-54 -311q-33 -184 -179 -295t-355 -111z" />
    <glyph glyph-name="quotesingle" unicode="'" horiz-adv-x="385" 
d="M414 1552l-101 -450h-37l86 450h52z" />
    <glyph glyph-name="parenleft" unicode="(" horiz-adv-x="610" 
d="M643 1516l33 -25q-392 -409 -488 -951t154 -948l-41 -18q-256 408 -158 971q99 563 500 971z" />
    <glyph glyph-name="parenright" unicode=")" horiz-adv-x="606" 
d="M-4 -430l-33 24q391 410 487 952t-153 947l41 18q256 -409 158 -971t-500 -970z" />
    <glyph glyph-name="asterisk" unicode="*" horiz-adv-x="815" 
d="M764 915l-25 -26l-215 184l-47 -260l-37 6l47 260l-266 -98l-12 33l266 100l-215 184l23 29l215 -184l45 252l37 -6l-45 -254l266 100l12 -35l-266 -98z" />
    <glyph glyph-name="plus" unicode="+" horiz-adv-x="1437" 
d="M772 625l-76 -430h-47l76 430h-430l8 43h430l76 432h47l-76 -432h428l-8 -43h-428z" />
    <glyph glyph-name="comma" unicode="," horiz-adv-x="487" 
d="M158 78q20 0 34 -14t13 -30q0 -18 -1 -23t-4 -13t-5 -16l-9 -24l-12 -32t-15 -44t-19 -56t-26 -69q-15 -42 -32 -85h-37l102 318q-37 6 -36 41q0 19 13 33q14 14 34 14z" />
    <glyph glyph-name="hyphen" unicode="-" horiz-adv-x="1114" 
d="M864 553h-581l8 43h581z" />
    <glyph glyph-name="period" unicode="." horiz-adv-x="503" 
d="M176 -16q-20 0 -34 13q-13 13 -13 33t13 34q14 14 34 14t34 -13t13 -33q0 -20 -13 -35q-14 -13 -34 -13z" />
    <glyph glyph-name="slash" unicode="/" horiz-adv-x="937" 
d="M-74 -557h-45l1106 2130h45z" />
    <glyph glyph-name="zero" unicode="0" horiz-adv-x="1548" 
d="M690 10q303 0 507 236t204 592q0 248 -126 396t-343 148q-303 0 -507 -236t-204 -591q0 -249 126 -397t343 -148zM940 1423q236 1 372 -157t136 -422q0 -377 -219 -626t-547 -249q-236 0 -372 158t-136 422q0 377 219 625t547 249z" />
    <glyph glyph-name="one" unicode="1" horiz-adv-x="804" 
d="M436 0h-43l238 1341l-434 -133l-2 41l467 144h20z" />
    <glyph glyph-name="two" unicode="2" horiz-adv-x="1181" 
d="M731 1382q-225 0 -452 -133l-17 35q233 139 477 139q181 0 287 -93t107 -249q0 -202 -201 -395q-104 -99 -275 -233l-522 -412h852l-8 -41h-938l6 27l580 454q312 251 373 343q87 130 86 260t-96 214t-259 84z" />
    <glyph glyph-name="three" unicode="3" horiz-adv-x="1196" 
d="M606 756q459 0 459 -316q0 -199 -175 -335t-407 -136t-458 117l22 33q233 -109 443 -109t370 123t160 299q0 283 -420 283h-137l4 22l651 615h-801l7 41h872l-6 -33l-641 -604h57z" />
    <glyph glyph-name="four" unicode="4" horiz-adv-x="1384" 
d="M147 332h814l178 997zM1004 332h215l-9 -41h-215l-51 -291h-43l51 291h-880l6 26l1069 1076h43z" />
    <glyph glyph-name="five" unicode="5" horiz-adv-x="1249" 
d="M1100 457q0 -219 -163 -353t-409 -135q-246 0 -473 117l23 33q234 -109 458 -109t371 120t148 321q-1 135 -103 216t-293 89l-421 20l172 617h809l-9 -41h-768l-149 -537l373 -18q210 -11 322 -99t112 -241z" />
    <glyph glyph-name="six" unicode="6" horiz-adv-x="1245" 
d="M541 10q195 0 343 122t182 312q34 192 -70 310t-303 116q-198 0 -343 -118t-178 -310q-34 -192 70 -312t299 -120zM700 911q215 0 333 -130t80 -340t-199 -341q-162 -131 -376 -131t-332 133t-79 344q29 166 147 297l572 650h57l-473 -541q131 59 270 59z" />
    <glyph glyph-name="seven" unicode="7" horiz-adv-x="1107" 
d="M1196 1364l-920 -1364h-55l916 1352h-918l6 41h975z" />
    <glyph glyph-name="eight" unicode="8" horiz-adv-x="1306" 
d="M571 10q217 0 371 102t182 262q28 159 -89 250q-116 91 -335 91q-220 0 -370 -93t-178 -252q-28 -160 88 -260q114 -100 331 -100zM702 756q180 0 306 89q124 89 150 231t-66 226t-272 82q-180 0 -306 -85q-124 -85 -150 -227t66 -229t272 -87zM569 -31q-237 0 -365 114
t-95 296q25 137 140 232q116 95 296 128q-125 35 -185 125q-59 90 -35 232t160 234q137 93 336 93t305 -95q106 -94 80 -236t-115 -231q-90 -89 -231 -124q166 -31 250 -127t59 -235q-33 -182 -197 -294t-403 -112z" />
    <glyph glyph-name="nine" unicode="9" horiz-adv-x="1191" 
d="M607 522q198 0 343 118t178 310q35 193 -69 313q-104 119 -299 119t-343 -122t-181 -312q-33 -192 70 -309t301 -117zM764 1423q215 0 332 -133t80 -344q-29 -158 -150 -297l-571 -649h-58l461 526q-106 -45 -256 -45q-215 0 -333 130t-80 340t199 341t376 131z" />
    <glyph glyph-name="colon" unicode=":" horiz-adv-x="516" 
d="M176 -16q-20 0 -34 13q-13 13 -13 33t13 34q14 14 34 14t34 -13t13 -33q0 -20 -13 -35q-14 -13 -34 -13zM340 848q-20 0 -34 13q-13 13 -13 33t13 34q14 14 34 14t34 -13t13 -33q0 -20 -13 -35q-14 -13 -34 -13z" />
    <glyph glyph-name="semicolon" unicode=";" horiz-adv-x="536" 
d="M158 78q20 0 34 -14t13 -30q0 -18 -1 -23t-4 -13t-5 -16l-9 -24l-12 -32t-15 -44t-19 -56t-26 -69q-15 -42 -32 -85h-37l102 318q-37 6 -36 41q0 19 13 33q14 14 34 14zM360 848q-20 0 -33 13t-13 33t12 34q14 14 34 14t34 -13t14 -33t-14 -34t-34 -14z" />
    <glyph glyph-name="less" unicode="&#x3c;" horiz-adv-x="1148" 
d="M145 590l9 47l940 430l-9 -57l-882 -400l739 -403l-8 -47z" />
    <glyph glyph-name="equal" unicode="=" horiz-adv-x="1519" 
d="M1253 457h-987l6 43h988zM1321 846h-987l8 43h987z" />
    <glyph glyph-name="greater" unicode="&#x3e;" horiz-adv-x="1150" 
d="M1059 637l-8 -47l-940 -430l8 57l882 399l-739 404l8 47z" />
    <glyph glyph-name="question" unicode="?" horiz-adv-x="997" 
d="M301 78q19 0 33 -13t14 -33t-13 -34t-33 -14t-35 13q-13 13 -13 33t13 35q14 13 34 13zM613 1423q177 0 293 -96t116 -262q0 -205 -158 -347t-393 -143h-72l-34 -247h-41l36 293h117q213 0 356 128q142 128 142 312q-1 151 -103 235t-272 84t-317 -41l-7 41
q160 43 337 43z" />
    <glyph glyph-name="at" unicode="@" horiz-adv-x="2068" 
d="M1054 942q-206 0 -350 -141t-145 -350q0 -169 95 -269t268 -100t432 141q-6 72 8 158l92 522q-194 39 -400 39zM1188 1413q354 0 559 -199t205 -515t-102 -483t-279 -167q-176 0 -211 137q-144 -82 -244 -114t-209 -31q-184 0 -290 111q-105 111 -105 294q0 229 161 383
t391 154t439 -51l-98 -551q-25 -143 13 -216t157 -73q158 0 245 155t87 431q0 314 -195 504t-530 190q-266 0 -500 -128t-376 -351t-142 -483q0 -309 201 -512t520 -203q209 0 485 63v-39q-262 -66 -491 -65q-340 0 -551 210t-211 535q0 277 147 511t393 368t531 135z" />
    <glyph glyph-name="A" unicode="A" horiz-adv-x="1517" 
d="M918 1352l-574 -914h821zM317 395l-247 -395h-54l881 1403h51l385 -1403h-49l-106 395h-861z" />
    <glyph glyph-name="B" unicode="B" horiz-adv-x="1363" 
d="M625 27q244 0 391 104t147 295q0 129 -108 200q-109 71 -312 70h-421l-117 -657q311 -12 420 -12zM1202 1108q0 126 -90 192t-247 66t-427 -12l-110 -617h381q231 1 362 99t131 272zM1210 432q0 -209 -162 -328t-430 -118q-59 0 -464 14l245 1393q339 14 493 14t256 -76
t101 -220q0 -145 -87 -245t-257 -143q305 -53 305 -291z" />
    <glyph glyph-name="C" unicode="C" horiz-adv-x="1570" 
d="M231 586q0 -272 157 -424t443 -152q229 0 529 86l4 -37q-297 -90 -541 -90q-305 0 -473 162t-168 455q0 369 251 603t659 234q235 1 450 -75l-18 -37q-217 72 -434 71q-381 0 -620 -224t-239 -572z" />
    <glyph glyph-name="D" unicode="D" horiz-adv-x="1558" 
d="M606 31q354 0 582 219q227 219 227 579q0 252 -153 395q-154 142 -420 142q-145 0 -404 -12l-233 -1315q258 -8 401 -8zM848 1407q286 0 450 -152t164 -419q0 -381 -242 -614q-243 -232 -622 -232q-96 0 -444 10l245 1393q326 14 449 14z" />
    <glyph glyph-name="E" unicode="E" horiz-adv-x="1302" 
d="M326 717h798l-6 -41h-799l-112 -635h880l-8 -41h-925l245 1393h926l-6 -41h-881z" />
    <glyph glyph-name="F" unicode="F" horiz-adv-x="1241" 
d="M319 676h779l-8 -41h-779l-112 -635h-45l245 1393h906l-7 -41h-860z" />
    <glyph glyph-name="G" unicode="G" horiz-adv-x="1677" 
d="M811 -31q-283 0 -456 166t-173 436q0 383 244 617t641 235q258 0 473 -75l-18 -37q-217 72 -461 71q-375 0 -603 -221t-229 -583q0 -256 162 -412q161 -156 443 -156t581 115l98 551h-612l6 41h656l-109 -615q-313 -133 -643 -133z" />
    <glyph glyph-name="H" unicode="H" horiz-adv-x="1533" 
d="M1217 0h-46l121 676h-973l-120 -676h-45l245 1393h45l-118 -676h972l119 676h45z" />
    <glyph glyph-name="I" unicode="I" horiz-adv-x="516" 
d="M444 1393l-245 -1393h-45l245 1393h45z" />
    <glyph glyph-name="J" unicode="J" horiz-adv-x="1185" 
d="M432 -31q-216 0 -428 94l23 39q211 -92 409 -92t326 123q129 123 168 350l160 910h45l-160 -910q-43 -248 -185 -381t-358 -133z" />
    <glyph glyph-name="K" unicode="K" horiz-adv-x="1368" 
d="M311 635l-112 -635h-45l245 1393h45l-125 -717h175l821 717h63l-809 -709l645 -684h-69l-594 635h-240z" />
    <glyph glyph-name="L" unicode="L" horiz-adv-x="1179" 
d="M1018 0h-864l245 1393h45l-237 -1352h819z" />
    <glyph glyph-name="M" unicode="M" horiz-adv-x="1943" 
d="M1757 1309l-839 -1309h-54l-381 1309l-307 -1309h-47l328 1393h51l389 -1340l860 1340h55l-163 -1393h-47z" />
    <glyph glyph-name="N" unicode="N" horiz-adv-x="1597" 
d="M1528 1393l-246 -1393h-51l-799 1335l-235 -1335h-45l245 1393h49l801 -1336l236 1336h45z" />
    <glyph glyph-name="O" unicode="O" horiz-adv-x="1753" 
d="M799 10q348 0 579 228t232 581q0 256 -153 410t-417 153q-366 0 -588 -223t-223 -590q0 -251 157 -405t413 -154zM1049 1423q283 -1 445 -163t163 -435q0 -373 -247 -615t-619 -241q-272 0 -441 165q-168 165 -168 433q0 385 238 621t629 235z" />
    <glyph glyph-name="P" unicode="P" horiz-adv-x="1302" 
d="M696 553q240 0 396 131t155 342q0 164 -108 252q-109 88 -286 88t-417 -12l-141 -801h401zM856 1407q201 0 320 -97t118 -278q0 -232 -170 -376t-434 -144h-401l-90 -512h-45l245 1393q256 14 457 14z" />
    <glyph glyph-name="Q" unicode="Q" horiz-adv-x="1753" 
d="M1610 808q0 267 -153 421t-417 153q-366 0 -588 -223t-223 -590q0 -251 157 -405t413 -154q139 0 258 37l2 2q251 76 401 284t150 475zM1657 814q0 -282 -157 -499t-417 -301l236 -352h-57l-228 338q-115 -31 -243 -31q-272 0 -441 165q-168 165 -168 433q0 385 238 621
t629 235q283 0 445 -163q162 -164 163 -446z" />
    <glyph glyph-name="R" unicode="R" horiz-adv-x="1320" 
d="M664 594q244 0 396 123t152 338q0 151 -110 231t-282 80q-173 0 -384 -12l-133 -760h361zM655 553h-360l-96 -553h-45l245 1393q291 14 408 14q213 0 333 -88q120 -89 120 -269t-117 -309t-320 -172l334 -569h-55l-326 561q-51 -8 -121 -8z" />
    <glyph glyph-name="S" unicode="S" horiz-adv-x="1402" 
d="M385 1006q0 -94 71 -148q70 -54 200 -82q321 -73 401 -121q106 -66 131 -137q16 -45 16 -102q0 -201 -158 -324t-397 -123q-291 0 -553 117l25 39q264 -115 536 -115q215 0 358 111q142 111 142 283t-187 242q-77 30 -161 49q-84 20 -88 21t-11 2t-14 3q-198 43 -278 104
t-80 170q0 195 147 312t386 117t456 -76l-18 -39q-227 73 -443 73t-348 -103q-133 -103 -133 -273z" />
    <glyph glyph-name="T" unicode="T" horiz-adv-x="1355" 
d="M860 1352l-239 -1352h-48l240 1352h-594l6 41h1233l-6 -41h-592z" />
    <glyph glyph-name="U" unicode="U" horiz-adv-x="1568" 
d="M696 -31q-256 0 -386 153t-85 402l154 869h45l-154 -869q-41 -231 78 -372q120 -142 354 -142t406 142t211 372l154 869h45l-154 -869q-45 -250 -228 -402q-184 -152 -440 -153z" />
    <glyph glyph-name="V" unicode="V" horiz-adv-x="1558" 
d="M727 0h-53l-408 1393h51l390 -1338l858 1338h55z" />
    <glyph glyph-name="W" unicode="W" horiz-adv-x="2158" 
d="M1485 0h-45l-205 1327l-680 -1327h-45l-244 1393h49l228 -1323l674 1323h53l205 -1321l696 1321h49z" />
    <glyph glyph-name="X" unicode="X" horiz-adv-x="1355" 
d="M750 692l452 -692h-55l-430 657l-666 -657h-61l698 696l-430 697h57l406 -662l641 662h63z" />
    <glyph glyph-name="Y" unicode="Y" horiz-adv-x="1351" 
d="M666 526l-441 867h54l415 -822l705 822h55l-743 -867l-95 -526h-45z" />
    <glyph glyph-name="Z" unicode="Z" horiz-adv-x="1341" 
d="M1335 1358l-1192 -1317h961l-8 -41h-1024l6 35l1196 1317h-942l6 41h1003z" />
    <glyph glyph-name="bracketleft" unicode="[" horiz-adv-x="638" 
d="M98 -389h269l-9 -41h-311l344 1946h311l-8 -41h-268z" />
    <glyph glyph-name="backslash" unicode="\" horiz-adv-x="937" 
d="M283 1573l475 -2130h-45l-475 2130h45z" />
    <glyph glyph-name="bracketright" unicode="]" horiz-adv-x="636" 
d="M567 1475h-268l8 41h311l-344 -1946h-311l8 41h269z" />
    <glyph glyph-name="asciicircum" unicode="^" horiz-adv-x="796" 
d="M555 1348l-369 -453h-49l406 498h39l229 -498h-49z" />
    <glyph glyph-name="underscore" unicode="_" horiz-adv-x="1368" 
d="M-37 -324h1163l-6 -38h-1163z" />
    <glyph glyph-name="grave" unicode="`" 
d="M834 1188h-46l-149 328h61z" />
    <glyph glyph-name="a" unicode="a" horiz-adv-x="1239" 
d="M668 911q-209 0 -354 -149q-144 -150 -144 -383q0 -168 95 -268q95 -101 266 -101t413 127l129 735q-196 39 -405 39zM123 375q-1 253 161 415t396 162t440 -51l-157 -901h-43l16 94q-230 -125 -416 -125t-292 111q-105 111 -105 295z" />
    <glyph glyph-name="b" unicode="b" horiz-adv-x="1251" 
d="M694 911q-186 0 -379 -57l-141 -805q174 -37 293 -37q276 0 444 146t168 385q0 174 -99 271q-100 97 -286 97zM706 952q202 0 311 -108q110 -108 109 -299q0 -254 -177 -415t-494 -161q-121 0 -330 51l254 1434h43l-98 -559q180 57 382 57z" />
    <glyph glyph-name="c" unicode="c" horiz-adv-x="1095" 
d="M715 911q-231 0 -387 -148t-156 -380q0 -170 100 -271q100 -102 258 -102t375 60l4 -41q-207 -59 -383 -59t-288 110q-113 111 -113 295q0 254 172 416t432 161q160 0 301 -49l-16 -37q-156 45 -299 45z" />
    <glyph glyph-name="d" unicode="d" horiz-adv-x="1247" 
d="M679 911q-218 0 -363 -149q-144 -150 -144 -383q0 -168 94 -268t262 -101q211 0 402 39l141 805q-174 57 -392 57zM520 -31q-184 0 -290 111q-105 111 -105 295q0 252 162 415q162 162 393 162t399 -57l99 559h43l-252 -1434q-173 -40 -265 -45q-92 -6 -184 -6z" />
    <glyph glyph-name="e" unicode="e" horiz-adv-x="1165" 
d="M680 911q-186 0 -325 -116q-138 -117 -177 -310h813q62 426 -311 426zM681 952q206 0 298 -121t59 -346q-2 -23 -8 -41h-860q-28 -202 66 -318t294 -116q123 0 351 53l4 -34q-209 -59 -355 -60q-226 0 -334 135q-108 136 -67 360t193 356t359 132z" />
    <glyph glyph-name="f" unicode="f" horiz-adv-x="733" 
d="M752 1505q-104 0 -184 -70q-79 -71 -99 -188l-57 -325h403l-8 -41h-401l-156 -881h-43l155 881h-282l8 41h281l57 325q23 135 115 217t219 82q70 0 162 -24l-19 -37q-85 20 -151 20z" />
    <glyph glyph-name="g" unicode="g" horiz-adv-x="1230" 
d="M670 911q-209 0 -354 -149q-144 -150 -144 -383q0 -168 94 -268t260 -101q211 0 404 39l145 823q-196 39 -405 39zM125 375q-1 253 161 415t396 162t440 -51l-157 -901q-41 -223 -195 -359q-154 -137 -360 -137t-351 80l21 35q147 -74 337 -74q191 0 329 127t178 338
q-190 -41 -389 -41t-305 111q-105 111 -105 295z" />
    <glyph glyph-name="h" unicode="h" horiz-adv-x="1253" 
d="M791 952q175 0 251 -102t43 -293l-98 -557h-43l98 557q31 170 -36 262q-68 92 -222 92q-246 0 -446 -57l-152 -854h-43l256 1454h43l-98 -559q193 57 447 57z" />
    <glyph glyph-name="i" unicode="i" horiz-adv-x="487" 
d="M348 922l-164 -922h-43l164 922h43zM389 1241q-20 0 -34 13q-13 14 -13 34t13 34t33 13q20 0 34 -13q14 -14 14 -34t-13 -34q-14 -13 -34 -13z" />
    <glyph glyph-name="j" unicode="j" horiz-adv-x="448" 
d="M330 922l-185 -1045q-33 -184 -111 -262t-231 -78l9 41q130 0 196 69t94 230l185 1045h43zM369 1241q-20 0 -34 13q-13 14 -13 34t13 34t33 13q20 0 34 -13q14 -14 14 -34t-14 -34t-33 -13z" />
    <glyph glyph-name="k" unicode="k" horiz-adv-x="1157" 
d="M272 485h181l538 437h60l-529 -433l465 -489h-57l-422 444h-242l-80 -444h-43l258 1454h43z" />
    <glyph glyph-name="l" unicode="l" horiz-adv-x="493" 
d="M444 1454l-258 -1454h-43l258 1454h43z" />
    <glyph glyph-name="m" unicode="m" horiz-adv-x="1828" 
d="M1405 952q326 0 256 -397l-98 -555h-43l98 559q63 352 -215 352q-190 0 -438 -86q31 -84 2 -250l-103 -575h-43l103 580q34 188 -20 260t-220 71q-174 -10 -362 -41l-156 -870h-43l158 901q213 43 405 51q203 0 260 -94q248 94 459 94z" />
    <glyph glyph-name="n" unicode="n" horiz-adv-x="1232" 
d="M768 952q176 0 253 -103t44 -294l-98 -555h-43l98 559q31 170 -36 261t-220 91q-229 0 -444 -39l-156 -872h-43l158 901q225 51 487 51z" />
    <glyph glyph-name="o" unicode="o" horiz-adv-x="1253" 
d="M551 10q219 0 375 152t155 373q0 174 -101 275t-278 101q-218 0 -374 -148t-156 -372q0 -173 102 -277t277 -104zM709 952q193 0 307 -110t112 -301q0 -242 -172 -407t-413 -165q-193 0 -305 113t-113 303q0 243 171 405t413 162z" />
    <glyph glyph-name="p" unicode="p" horiz-adv-x="1251" 
d="M569 10q217 0 364 153q146 153 146 386q0 166 -95 264t-274 98t-391 -39l-145 -823q178 -39 395 -39zM710 952q202 0 310 -108q106 -109 106 -291q0 -252 -162 -418t-392 -166t-404 41l-82 -461h-43l240 1352q225 51 427 51z" />
    <glyph glyph-name="q" unicode="q" horiz-adv-x="1245" 
d="M670 911q-208 0 -354 -149q-144 -150 -144 -383q0 -169 94 -269t282 -100t382 39l145 823q-197 39 -405 39zM125 375q-1 253 161 415t396 162t440 -51l-237 -1352h-43l82 461q-190 -41 -389 -41t-305 111q-105 111 -105 295z" />
    <glyph glyph-name="r" unicode="r" horiz-adv-x="745" 
d="M748 948l-3 -41q-209 0 -421 -26l-156 -881h-43l158 911q229 37 465 37z" />
    <glyph glyph-name="s" unicode="s" horiz-adv-x="1044" 
d="M819 254q0 72 -48 106q-28 20 -52 36t-93 35t-162 43t-160 70t-66 134q0 123 103 199q103 75 276 75t325 -59l-20 -39q-154 57 -310 57t-243 -62q-88 -62 -88 -169q0 -68 53 -106q52 -38 148 -61q249 -60 316 -115q66 -55 64 -134q0 -135 -108 -215q-108 -79 -296 -79
q-187 0 -384 100l22 39q193 -99 362 -99t265 68t96 176z" />
    <glyph glyph-name="t" unicode="t" horiz-adv-x="845" 
d="M483 -31q-151 0 -203 79t-20 263l100 570h-225l8 41h226l75 430h43l-75 -430h356l-8 -41h-357l-100 -574q-29 -161 12 -229t170 -68q68 1 160 21l8 -37q-100 -25 -170 -25z" />
    <glyph glyph-name="u" unicode="u" horiz-adv-x="1232" 
d="M465 -31q-176 -1 -253 103t-44 295l98 555h43l-98 -560q-31 -170 36 -261t220 -91q229 0 444 39l156 873h43l-158 -902q-225 -51 -487 -51z" />
    <glyph glyph-name="v" unicode="v" horiz-adv-x="1200" 
d="M543 0h-49l-310 922h49l291 -875l606 875h50z" />
    <glyph glyph-name="w" unicode="w" horiz-adv-x="1695" 
d="M1118 0h-47l-153 852l-459 -852h-47l-207 922h47l194 -854l459 854h47l154 -854l500 854h47z" />
    <glyph glyph-name="x" unicode="x" horiz-adv-x="1060" 
d="M559 459l328 -459h-58l-303 426l-452 -426h-64l492 459l-316 463h56l293 -430l442 430h63z" />
    <glyph glyph-name="y" unicode="y" horiz-adv-x="1212" 
d="M1204 922l-979 -1373h-51l369 519l-369 854h49l350 -811l580 811h51z" />
    <glyph glyph-name="z" unicode="z" horiz-adv-x="1001" 
d="M954 887l-845 -846h696l-8 -41h-756l6 35l844 846h-666l8 41h728z" />
    <glyph glyph-name="braceleft" unicode="{" horiz-adv-x="733" 
d="M500 1184l-58 -326q-22 -137 -70 -213t-130 -106q135 -53 88 -320l-58 -325q-30 -162 14 -230t177 -67l-10 -41q-152 0 -203 78t-19 264l58 325q29 162 -15 230t-176 67l11 41q129 0 197 70t95 231l58 326q33 184 109 261q77 77 233 77l-8 -41q-129 1 -197 -69t-96 -232z
" />
    <glyph glyph-name="bar" unicode="|" horiz-adv-x="618" 
d="M528 1573l-331 -1880h-45l331 1880h45z" />
    <glyph glyph-name="braceright" unicode="}" horiz-adv-x="733" 
d="M262 -102l57 325q23 137 71 213t130 107q-135 53 -88 319l57 326q29 162 -14 230t-176 67l10 41q152 0 203 -79t18 -263l-57 -326q-29 -162 14 -230t177 -67l-11 -41q-129 0 -197 -70t-96 -231l-57 -325q-33 -184 -109 -262q-77 -77 -233 -76l8 41q129 0 197 69
q67 70 96 232z" />
    <glyph glyph-name="asciitilde" unicode="~" horiz-adv-x="968" 
d="M829 791h41q-14 -84 -71 -127t-117 -41t-102 34l-129 105q-92 57 -175 -4q-45 -35 -57 -96h-41q14 84 74 128t118 38q60 -6 105 -31l129 -105q35 -28 82 -28t89 33t54 94z" />
    <glyph glyph-name="exclamdown" unicode="&#xa1;" horiz-adv-x="524" 
d="M74 -457l186 1065h45l-186 -1065h-45zM332 952q20 0 34 -13t13 -33q0 -20 -13 -34q-14 -14 -34 -14t-34 13q-13 13 -13 33t13 35q14 13 34 13z" />
    <glyph glyph-name="cent" unicode="&#xa2;" horiz-adv-x="1054" 
d="M106 395q0 246 162 407t412 171l45 254h43l-45 -254q154 -4 291 -49l-17 -37q-156 45 -301 45q-231 0 -387 -148t-155 -381q0 -170 101 -271t258 -101t374 59l4 -41q-178 -53 -342 -59l-45 -258h-43l45 258q-184 4 -292 114t-108 291z" />
    <glyph glyph-name="sterling" unicode="&#xa3;" horiz-adv-x="1292" 
d="M930 1382q-182 0 -320 -101q-139 -101 -168 -269l-65 -377h557l-8 -41h-557l-97 -553h858l-8 -41h-1081l8 41h178l97 553h-179l9 41h178l65 377q33 186 187 299t372 112q164 0 310 -43l-19 -39q-135 41 -317 41z" />
    <glyph glyph-name="yen" unicode="&#xa5;" horiz-adv-x="1310" 
d="M1151 555l-6 -43h-457l-45 -248h457l-6 -43h-457l-39 -221h-45l39 221h-457l6 43h457l45 248h-457l7 43h438l-426 838h53l416 -826l706 826h54l-719 -838h436z" />
    <glyph glyph-name="brokenbar" unicode="&#xa6;" horiz-adv-x="618" 
d="M197 -309h-45l147 835h45zM381 735h-45l147 836h45z" />
    <glyph glyph-name="section" unicode="&#xa7;" horiz-adv-x="1058" 
d="M172 659q0 -104 70 -169t206 -142t205 -121q151 74 217 141t66 171t-70 169q-70 64 -206 142t-205 121q-151 -74 -217 -141t-66 -171zM705 1423q172 0 327 -59l-20 -39q-154 57 -312 57t-244 -61t-85 -166q0 -61 54 -107t227 -142t251 -172q78 -74 78 -188t-71 -190
t-222 -153q94 -70 94 -156q0 -123 -103 -198t-275 -75t-328 60l20 39q154 -57 312 -57t244 61t85 166q0 61 -54 107t-227 143q-173 96 -251 171q-78 74 -78 188t71 190t222 153q-94 70 -94 156q0 123 103 198q104 74 276 74z" />
    <glyph glyph-name="dieresis" unicode="&#xa8;" 
d="M989 1335q19 0 33 -13q14 -14 14 -34t-13 -34t-33 -13q-20 0 -35 13q-13 14 -13 34t13 34q14 13 34 13zM567 1335q19 0 33 -13q14 -14 14 -34t-13 -34t-33 -13q-20 0 -34 13q-14 14 -14 34t14 34t33 13z" />
    <glyph glyph-name="copyright" unicode="&#xa9;" horiz-adv-x="1757" 
d="M983 1079q-197 0 -319 -124t-121 -312q0 -299 331 -299q98 0 295 45l7 -37q-166 -49 -326 -49t-257 85t-97 255q0 207 136 342t353 135q132 0 279 -49l-23 -37q-139 45 -258 45zM1614 696q0 290 -203 490q-203 198 -501 198t-500 -198t-203 -490q0 -292 203 -490
q202 -198 500 -198t501 199t203 489zM909 1423q319 0 533 -208t213 -519q0 -311 -213 -519q-212 -208 -532 -208t-533 208t-213 519t213 519t532 208z" />
    <glyph glyph-name="ordfeminine" unicode="&#xaa;" horiz-adv-x="946" 
d="M268 911q0 -141 242 -141q121 0 289 27l55 309l-293 -12q-141 -4 -217 -52t-76 -131zM678 1423q139 0 196 -58t35 -189l-71 -408q-184 -37 -340 -37q-274 0 -275 170q0 105 89 165t255 67l293 12l6 29q20 114 -28 162t-174 48q-127 0 -275 -22l2 39q148 22 287 22z" />
    <glyph glyph-name="guillemotleft" unicode="&#xab;" horiz-adv-x="1040" 
d="M823 147l-32 -28l-312 385l447 385l26 -33l-405 -356zM475 147l-33 -28l-311 385l447 385l26 -33l-405 -356z" />
    <glyph glyph-name="registered" unicode="&#xae;" horiz-adv-x="1769" 
d="M991 1073q-55 0 -211 -8l-73 -418h208q117 -1 204 57t105 160t-44 156q-64 53 -189 53zM997 1108q145 0 217 -62t53 -170q-37 -208 -257 -253l194 -322h-51l-186 313q-41 -4 -60 -4h-207l-55 -309h-41l141 799q189 8 252 8zM929 1384q-298 0 -501 -198t-203 -490
t203 -490t501 -198t501 199q202 199 202 489t-202 490q-203 198 -501 198zM928 1423q319 0 532 -208t213 -519t-213 -519t-532 -208t-533 208q-213 208 -213 519t213 519q214 208 533 208z" />
    <glyph glyph-name="macron" unicode="&#xaf;" 
d="M1042 1366l-6 -35h-540l6 35h540z" />
    <glyph glyph-name="degree" unicode="&#xb0;" horiz-adv-x="1028" 
d="M584 821q128 0 226 92q97 92 97 236q0 106 -65 170q-66 63 -194 63t-224 -93q-98 -93 -98 -236q0 -104 65 -168t193 -64zM674 1423q129 -1 204 -73t74 -193q0 -166 -112 -272t-281 -107q-129 0 -204 73t-74 193q0 166 111 273q112 106 282 106z" />
    <glyph glyph-name="plusminus" unicode="&#xb1;" horiz-adv-x="1437" 
d="M1116 156l-6 -43h-905l6 43h905zM1206 666h-438l-63 -369h-48l64 369h-420l8 43h420l66 370h47l-66 -370h438z" />
    <glyph glyph-name="twosuperior" unicode="&#xb2;" horiz-adv-x="724" 
d="M498 1370q-102 0 -234 -63l-10 32q128 70 246 70t180 -51q62 -52 61 -124q0 -121 -126 -232q-44 -38 -134 -105l-266 -199h455l-6 -36h-525l4 26l318 238q80 57 124 94t80 91q35 54 35 117q0 62 -50 102t-152 40z" />
    <glyph glyph-name="threesuperior" unicode="&#xb3;" horiz-adv-x="724" 
d="M444 1063q258 0 258 -170q0 -104 -97 -176t-233 -72t-255 62l20 32q125 -57 241 -57t200 59t84 146q0 139 -226 139h-86l4 21l344 309h-428l9 37h489l-6 -29l-336 -301h18z" />
    <glyph glyph-name="acute" unicode="&#xb4;" 
d="M932 1516l-264 -328h-45l247 328h62z" />
    <glyph glyph-name="paragraph" unicode="&#xb6;" horiz-adv-x="1466" 
d="M225 879q0 -150 94 -238t275 -88h217l143 811l-217 2q-248 0 -380 -130t-132 -357zM743 1407q420 0 670 -14l-280 -1598h-46l275 1559q-182 8 -363 10l-276 -1569h-45l125 717h-217q-199 0 -303 96t-105 264q0 250 148 392t417 143z" />
    <glyph glyph-name="periodcentered" unicode="&#xb7;" horiz-adv-x="503" 
d="M260 463q-20 0 -34 13q-13 14 -13 34t13 34q14 14 34 13q20 0 34 -13q14 -14 13 -34q0 -20 -13 -34q-14 -13 -34 -13z" />
    <glyph glyph-name="cedilla" unicode="&#xb8;" 
d="M358 -410h-45l170 308h47z" />
    <glyph glyph-name="onesuperior" unicode="&#xb9;" horiz-adv-x="552" 
d="M588 698l-8 -36h-488l8 36h215l115 645l-213 -63l-4 35l250 78h14l-123 -695h234z" />
    <glyph glyph-name="ordmasculine" unicode="&#xba;" horiz-adv-x="909" 
d="M510 772q154 0 262 102t107 259q0 115 -71 183t-190 68q-154 0 -260 -100t-106 -256q0 -116 70 -186t188 -70zM627 1423q133 -1 215 -79t82 -207q0 -174 -123 -290t-297 -116q-133 0 -215 81t-82 212q0 172 123 286t297 113z" />
    <glyph glyph-name="guillemotright" unicode="&#xbb;" horiz-adv-x="1040" 
d="M565 860l33 29l311 -385l-446 -385l-27 33l406 356zM217 860l33 29l311 -385l-446 -385l-27 33l406 356z" />
    <glyph glyph-name="onequarter" unicode="&#xbc;" horiz-adv-x="1703" 
d="M1473 676l-510 -467h426zM1550 209l-6 -37h-121l-30 -172h-41l30 172h-485l6 29l578 530h41l-92 -522h120zM1534 1393l-1155 -1393h-53l1155 1393h53zM211 662l8 36h215l115 645l-213 -63l-4 35l250 78h14l-123 -695h234l-9 -36h-487z" />
    <glyph glyph-name="onehalf" unicode="&#xbd;" horiz-adv-x="1775" 
d="M1583 566q0 62 -50 103q-51 40 -153 40t-233 -64l-10 33q127 70 245 70t180 -52t62 -124t-41 -132t-85 -99q-44 -38 -134 -105l-266 -199h454l-6 -37h-524l4 27l317 237q80 57 124 94q44 38 80 92t36 116zM1458 1393l-1155 -1393h-53l1155 1393h53zM135 662l8 36h215
l115 645l-213 -63l-4 35l250 78h14l-123 -695h234l-8 -36h-488z" />
    <glyph glyph-name="threequarters" unicode="&#xbe;" horiz-adv-x="1892" 
d="M1055 209h426l84 467zM1522 209h120l-6 -37h-120l-31 -172h-41l31 172h-486l6 29l578 530h41zM481 0h-53l1155 1393h53zM559 1063q258 0 258 -170q0 -104 -97 -176t-233 -72t-256 62l21 32q125 -57 241 -57q115 0 199 59t84 146q0 139 -225 139h-86l4 21l344 309h-428
l8 37h490l-6 -29l-336 -301h18z" />
    <glyph glyph-name="questiondown" unicode="&#xbf;" horiz-adv-x="997" 
d="M415 -385q-177 0 -293 96t-116 262q0 205 158 347t393 143h72l35 248h41l-37 -293h-117q-213 0 -355 -128t-143 -313q1 -151 103 -235t272 -84t317 41l7 -41q-160 -43 -337 -43zM727 961q-20 0 -34 13q-13 14 -13 34t13 33t33 13t34 -12q14 -14 14 -34t-13 -34
q-14 -13 -34 -13z" />
    <glyph glyph-name="Agrave" unicode="&#xc0;" horiz-adv-x="1517" 
d="M918 1352l-574 -914h821zM317 395l-247 -395h-54l881 1403h51l385 -1403h-49l-106 395h-861zM965 1516h-45l-150 327h61z" />
    <glyph glyph-name="Aacute" unicode="&#xc1;" horiz-adv-x="1517" 
d="M918 1352l-574 -914h821zM317 395l-247 -395h-54l881 1403h51l385 -1403h-49l-106 395h-861zM1237 1843l-264 -327h-45l248 327h61z" />
    <glyph glyph-name="Acircumflex" unicode="&#xc2;" horiz-adv-x="1517" 
d="M918 1352l-574 -914h821zM317 395l-247 -395h-54l881 1403h51l385 -1403h-49l-106 395h-861zM995 1794l-297 -278h-51l330 327h51l215 -327h-51z" />
    <glyph glyph-name="Atilde" unicode="&#xc3;" horiz-adv-x="1517" 
d="M918 1352l-574 -914h821zM317 395l-247 -395h-54l881 1403h51l385 -1403h-49l-106 395h-861zM1204 1681h45q-12 -69 -61 -107q-86 -66 -187 -5l-108 86q-25 20 -62 21q-37 0 -71 -26t-45 -77h-43q12 71 61 107t99 32t88 -26l108 -87q34 -35 98 -15t78 97z" />
    <glyph glyph-name="Adieresis" unicode="&#xc4;" horiz-adv-x="1517" 
d="M918 1352l-574 -914h821zM317 395l-247 -395h-54l881 1403h51l385 -1403h-49l-106 395h-861zM1176 1632q-20 0 -34 14t-14 33t14 33t34 14t33 -13t13 -33t-12 -34q-14 -14 -34 -14zM754 1632q-20 0 -34 14t-13 33q0 19 13 33q14 14 34 14t33 -13t13 -33t-12 -34
q-14 -14 -34 -14z" />
    <glyph glyph-name="Aring" unicode="&#xc5;" horiz-adv-x="1517" 
d="M918 1352l-574 -914h821zM317 395l-247 -395h-54l881 1403h51l385 -1403h-49l-106 395h-861zM939 1532q54 0 96 40t42 97t-35 91t-89 34t-96 -41t-42 -97t35 -90t89 -34zM957 1831q71 0 115 -43t44 -117t-55 -126t-126 -52t-115 45t-44 119t54 124q55 50 127 50z" />
    <glyph glyph-name="AE" unicode="&#xc6;" horiz-adv-x="2263" 
d="M1352 1343l-860 -905h700zM1286 717h799l-6 -41h-799l-113 -635h881l-8 -41h-926l70 395h-733l-377 -395h-62l1329 1393h945l-7 -41h-880z" />
    <glyph glyph-name="Ccedilla" unicode="&#xc7;" horiz-adv-x="1570" 
d="M635 -410h-45l170 308h47zM231 586q0 -272 157 -424t443 -152q229 0 529 86l4 -37q-297 -90 -541 -90q-305 0 -473 162t-168 455q0 369 251 603t659 234q235 1 450 -75l-18 -37q-217 72 -434 71q-381 0 -620 -224t-239 -572z" />
    <glyph glyph-name="Egrave" unicode="&#xc8;" horiz-adv-x="1302" 
d="M326 717h798l-6 -41h-799l-112 -635h880l-8 -41h-925l245 1393h926l-6 -41h-881zM899 1516h-45l-149 327h61z" />
    <glyph glyph-name="Eacute" unicode="&#xc9;" horiz-adv-x="1302" 
d="M326 717h798l-6 -41h-799l-112 -635h880l-8 -41h-925l245 1393h926l-6 -41h-881zM1171 1843l-264 -327h-45l248 327h61z" />
    <glyph glyph-name="Ecircumflex" unicode="&#xca;" horiz-adv-x="1302" 
d="M326 717h798l-6 -41h-799l-112 -635h880l-8 -41h-925l245 1393h926l-6 -41h-881zM930 1794l-297 -278h-51l329 327h52l215 -327h-52z" />
    <glyph glyph-name="Edieresis" unicode="&#xcb;" horiz-adv-x="1302" 
d="M326 717h798l-6 -41h-799l-112 -635h880l-8 -41h-925l245 1393h926l-6 -41h-881zM1110 1632q-20 0 -34 14t-13 33q0 19 13 33q14 14 34 14t34 -13t13 -33q1 -20 -13 -34t-34 -14zM688 1632q-20 0 -34 14t-13 33q0 19 13 33q14 14 34 14t34 -13t13 -33q1 -20 -13 -34
t-34 -14z" />
    <glyph glyph-name="Igrave" unicode="&#xcc;" horiz-adv-x="516" 
d="M444 1393l-245 -1393h-45l245 1393h45zM463 1516h-45l-150 327h62z" />
    <glyph glyph-name="Iacute" unicode="&#xcd;" horiz-adv-x="516" 
d="M444 1393l-245 -1393h-45l245 1393h45zM735 1843l-264 -327h-45l248 327h61z" />
    <glyph glyph-name="Icircumflex" unicode="&#xce;" horiz-adv-x="516" 
d="M444 1393l-245 -1393h-45l245 1393h45zM494 1794l-297 -278h-52l330 327h51l215 -327h-51z" />
    <glyph glyph-name="Idieresis" unicode="&#xcf;" horiz-adv-x="516" 
d="M444 1393l-245 -1393h-45l245 1393h45zM674 1632q-20 0 -34 14t-13 33q0 19 13 33q14 14 34 14t34 -13t13 -33q1 -20 -13 -34t-34 -14zM252 1632q-20 0 -34 14t-13 33q0 19 13 33q14 14 34 14t34 -13t13 -33q1 -20 -13 -34t-34 -14z" />
    <glyph glyph-name="Eth" unicode="&#xd0;" horiz-adv-x="1558" 
d="M606 31q354 0 582 219q227 219 227 579q0 252 -153 395q-154 142 -420 142q-145 0 -404 -12l-112 -637h428l-9 -41h-428l-112 -637q258 -8 401 -8zM848 1407q286 0 450 -152t164 -419q0 -381 -242 -614q-243 -232 -622 -232q-96 0 -444 10l118 676h-176l8 41h177l118 676
q326 14 449 14z" />
    <glyph glyph-name="Ntilde" unicode="&#xd1;" horiz-adv-x="1597" 
d="M1528 1393l-246 -1393h-51l-799 1335l-235 -1335h-45l245 1393h49l801 -1336l236 1336h45zM1243 1681h45q-12 -69 -61 -107t-99 -33t-88 28l-108 86q-25 20 -62 21q-38 0 -72 -26t-44 -77h-43q12 71 61 107t99 32t87 -26l109 -87q35 -35 99 -15t77 97z" />
    <glyph glyph-name="Ograve" unicode="&#xd2;" horiz-adv-x="1753" 
d="M799 10q348 0 579 228t232 581q0 256 -153 410t-417 153q-366 0 -588 -223t-223 -590q0 -251 157 -405t413 -154zM1049 1423q283 -1 445 -163t163 -435q0 -373 -247 -615t-619 -241q-272 0 -441 165q-168 165 -168 433q0 385 238 621t629 235zM1081 1516h-45l-149 327h61
z" />
    <glyph glyph-name="Oacute" unicode="&#xd3;" horiz-adv-x="1753" 
d="M799 10q348 0 579 228t232 581q0 256 -153 410t-417 153q-366 0 -588 -223t-223 -590q0 -251 157 -405t413 -154zM1049 1423q283 -1 445 -163t163 -435q0 -373 -247 -615t-619 -241q-272 0 -441 165q-168 165 -168 433q0 385 238 621t629 235zM1354 1843l-264 -327h-46
l248 327h62z" />
    <glyph glyph-name="Ocircumflex" unicode="&#xd4;" horiz-adv-x="1753" 
d="M799 10q348 0 579 228t232 581q0 256 -153 410t-417 153q-366 0 -588 -223t-223 -590q0 -251 157 -405t413 -154zM1049 1423q283 -1 445 -163t163 -435q0 -373 -247 -615t-619 -241q-272 0 -441 165q-168 165 -168 433q0 385 238 621t629 235zM1112 1794l-297 -278h-51
l330 327h51l215 -327h-51z" />
    <glyph glyph-name="Otilde" unicode="&#xd5;" horiz-adv-x="1753" 
d="M799 10q348 0 579 228t232 581q0 256 -153 410t-417 153q-366 0 -588 -223t-223 -590q0 -251 157 -405t413 -154zM1049 1423q283 -1 445 -163t163 -435q0 -373 -247 -615t-619 -241q-272 0 -441 165q-168 165 -168 433q0 385 238 621t629 235zM1321 1681h45
q-12 -69 -61 -107t-99 -33t-88 28l-108 86q-25 20 -62 21q-38 0 -72 -26t-45 -77h-43q12 71 62 107t99 32q50 -4 87 -26l109 -87q35 -35 99 -15t77 97z" />
    <glyph glyph-name="Odieresis" unicode="&#xd6;" horiz-adv-x="1753" 
d="M799 10q348 0 579 228t232 581q0 256 -153 410t-417 153q-366 0 -588 -223t-223 -590q0 -251 157 -405t413 -154zM1049 1423q283 -1 445 -163t163 -435q0 -373 -247 -615t-619 -241q-272 0 -441 165q-168 165 -168 433q0 385 238 621t629 235zM1292 1632q-20 0 -34 14
t-13 33q0 19 13 33q14 14 34 14t34 -13t13 -33q1 -20 -13 -34t-34 -14zM870 1632q-20 0 -33 14t-14 33t13 33t34 14t34 -13t14 -33t-14 -34t-34 -14z" />
    <glyph glyph-name="multiply" unicode="&#xd7;" horiz-adv-x="1331" 
d="M1016 297l-37 -31l-287 348l-409 -348l-27 35l410 348l-285 344l35 31l286 -344l408 348l29 -35l-410 -348z" />
    <glyph glyph-name="Oslash" unicode="&#xd8;" horiz-adv-x="1753" 
d="M799 10q348 0 579 228t232 581q0 240 -135 391l-1076 -1058q154 -142 400 -142zM229 569q0 -238 140 -389l1075 1061q-152 141 -404 141q-365 0 -588 -223t-223 -590zM791 -31q-256 0 -426 150l-148 -146l-29 29l148 145q-154 164 -154 420q0 385 238 621t629 235
q268 0 430 -149l143 141l31 -29l-144 -141q147 -164 148 -420q0 -373 -247 -615t-619 -241z" />
    <glyph glyph-name="Ugrave" unicode="&#xd9;" horiz-adv-x="1568" 
d="M696 -31q-256 0 -386 153t-85 402l154 869h45l-154 -869q-41 -231 78 -372q120 -142 354 -142t406 142t211 372l154 869h45l-154 -869q-45 -250 -228 -402q-184 -152 -440 -153zM989 1516h-45l-149 327h61z" />
    <glyph glyph-name="Uacute" unicode="&#xda;" horiz-adv-x="1568" 
d="M696 -31q-256 0 -386 153t-85 402l154 869h45l-154 -869q-41 -231 78 -372q120 -142 354 -142t406 142t211 372l154 869h45l-154 -869q-45 -250 -228 -402q-184 -152 -440 -153zM1262 1843l-265 -327h-45l248 327h62z" />
    <glyph glyph-name="Ucircumflex" unicode="&#xdb;" horiz-adv-x="1568" 
d="M696 -31q-256 0 -386 153t-85 402l154 869h45l-154 -869q-41 -231 78 -372q120 -142 354 -142t406 142t211 372l154 869h45l-154 -869q-45 -250 -228 -402q-184 -152 -440 -153zM1020 1794l-297 -278h-51l329 327h52l215 -327h-51z" />
    <glyph glyph-name="Udieresis" unicode="&#xdc;" horiz-adv-x="1568" 
d="M696 -31q-256 0 -386 153t-85 402l154 869h45l-154 -869q-41 -231 78 -372q120 -142 354 -142t406 142t211 372l154 869h45l-154 -869q-45 -250 -228 -402q-184 -152 -440 -153zM1200 1632q-20 0 -34 14t-13 33q0 19 13 33q14 14 34 14t34 -13t13 -33q1 -20 -13 -34
t-34 -14zM778 1632q-20 0 -34 14t-13 33q0 19 13 33q14 14 34 14t34 -13t13 -33q1 -20 -13 -34t-34 -14z" />
    <glyph glyph-name="Yacute" unicode="&#xdd;" horiz-adv-x="1351" 
d="M666 526l-441 867h54l415 -822l705 822h55l-743 -867l-95 -526h-45zM1153 1843l-264 -327h-45l248 327h61z" />
    <glyph glyph-name="Thorn" unicode="&#xde;" horiz-adv-x="1304" 
d="M655 313q240 0 396 132t155 341q0 164 -108 252q-109 88 -288 88t-415 -12l-141 -801h401zM828 1167q188 0 307 -97t118 -277q0 -231 -171 -375t-433 -146h-401l-49 -272h-45l245 1393h45l-41 -238q237 12 425 12z" />
    <glyph glyph-name="germandbls" unicode="&#xdf;" horiz-adv-x="1306" 
d="M737 346q207 0 316 -102t77 -282t-192 -291q-158 -112 -385 -111q-135 0 -268 41l14 39q133 -39 262 -39q205 0 350 102t173 263t-67 250t-282 89h-180l4 23l619 553h-836l-156 -881h-43l213 1208q34 184 110 261t228 77l-2 -41q-128 1 -196 -69t-97 -232l-49 -282h907
l-6 -33l-610 -543h96z" />
    <glyph glyph-name="agrave" unicode="&#xe0;" horiz-adv-x="1239" 
d="M668 911q-209 0 -354 -149q-144 -150 -144 -383q0 -168 95 -268q95 -101 266 -101t413 127l129 735q-196 39 -405 39zM123 375q-1 253 161 415t396 162t440 -51l-157 -901h-43l16 94q-230 -125 -416 -125t-292 111q-105 111 -105 295zM834 1188h-46l-149 328h61z" />
    <glyph glyph-name="aacute" unicode="&#xe1;" horiz-adv-x="1239" 
d="M668 911q-209 0 -354 -149q-144 -150 -144 -383q0 -168 95 -268q95 -101 266 -101t413 127l129 735q-196 39 -405 39zM123 375q-1 253 161 415t396 162t440 -51l-157 -901h-43l16 94q-230 -125 -416 -125t-292 111q-105 111 -105 295zM1024 1516l-264 -328h-45l248 328
h61z" />
    <glyph glyph-name="acircumflex" unicode="&#xe2;" horiz-adv-x="1239" 
d="M668 911q-209 0 -354 -149q-144 -150 -144 -383q0 -168 95 -268q95 -101 266 -101t413 127l129 735q-196 39 -405 39zM123 375q-1 253 161 415t396 162t440 -51l-157 -901h-43l16 94q-230 -125 -416 -125t-292 111q-105 111 -105 295zM819 1446l-297 -279h-51l330 328h51
l215 -328h-51z" />
    <glyph glyph-name="atilde" unicode="&#xe3;" horiz-adv-x="1239" 
d="M668 911q-209 0 -354 -149q-144 -150 -144 -383q0 -168 95 -268q95 -101 266 -101t413 127l129 735q-196 39 -405 39zM123 375q-1 253 161 415t396 162t440 -51l-157 -901h-43l16 94q-230 -125 -416 -125t-292 111q-105 111 -105 295zM1034 1354h45q-12 -70 -61 -108
q-86 -66 -187 -5l-108 86q-25 19 -61 21t-72 -25q-35 -27 -45 -78h-43q12 70 61 107q49 36 99 32t88 -26l108 -86q34 -34 98 -14t78 96z" />
    <glyph glyph-name="adieresis" unicode="&#xe4;" horiz-adv-x="1239" 
d="M668 911q-209 0 -354 -149q-144 -150 -144 -383q0 -168 95 -268q95 -101 266 -101t413 127l129 735q-196 39 -405 39zM123 375q-1 253 161 415t396 162t440 -51l-157 -901h-43l16 94q-230 -125 -416 -125t-292 111q-105 111 -105 295zM999 1335q19 0 33 -13
q14 -14 14 -34t-12 -34q-14 -14 -34 -13q-20 0 -34 13q-14 14 -14 34t14 34t33 13zM578 1335q20 0 33 -13q13 -14 13 -34t-12 -34q-14 -14 -34 -13q-20 0 -34 13q-14 14 -14 34t14 34t34 13z" />
    <glyph glyph-name="aring" unicode="&#xe5;" horiz-adv-x="1239" 
d="M668 911q-209 0 -354 -149q-144 -150 -144 -383q0 -168 95 -268q95 -101 266 -101t413 127l129 735q-196 39 -405 39zM123 375q-1 253 161 415t396 162t440 -51l-157 -901h-43l16 94q-230 -125 -416 -125t-292 111q-105 111 -105 295zM755 1184q54 0 96 40t42 97t-35 91
t-89 34t-96 -41t-42 -97t35 -90t89 -34zM772 1483q72 0 116 -43t44 -117t-55 -126t-127 -52t-114 44q-44 44 -44 119t54 125t126 50z" />
    <glyph glyph-name="ae" unicode="&#xe6;" horiz-adv-x="1859" 
d="M815 375q0 25 4 69l-311 2q-397 4 -397 -229q0 -207 329 -207q70 0 198 27t253 78q-76 104 -76 260zM870 485h822q34 199 -52 313t-270 114t-320 -112q-136 -110 -176 -292l-2 -16zM1384 952q197 0 293 -125t58 -342q-2 -8 -4 -20t-5 -21h-860q-4 -41 -4 -65
q0 -168 94 -268q94 -101 241 -101t378 53l4 -34q-207 -59 -380 -59t-279 112q-260 -113 -488 -113q-369 0 -369 238q0 147 122 216t331 66l307 -4q4 25 17 70l8 43q27 147 -46 230t-196 83q-182 0 -373 -30l3 39q197 33 374 32q125 0 205 -68t82 -196q73 124 201 194t286 70
z" />
    <glyph glyph-name="ccedilla" unicode="&#xe7;" horiz-adv-x="1095" 
d="M346 -410h-45l170 308h47zM715 911q-231 0 -387 -148t-156 -380q0 -170 100 -271q100 -102 258 -102t375 60l4 -41q-207 -59 -383 -59t-288 110q-113 111 -113 295q0 254 172 416t432 161q160 0 301 -49l-16 -37q-156 45 -299 45z" />
    <glyph glyph-name="egrave" unicode="&#xe8;" horiz-adv-x="1165" 
d="M680 911q-186 0 -325 -116q-138 -117 -177 -310h813q62 426 -311 426zM681 952q206 0 298 -121t59 -346q-2 -23 -8 -41h-860q-28 -202 66 -318t294 -116q123 0 351 53l4 -34q-209 -59 -355 -60q-226 0 -334 135q-108 136 -67 360t193 356t359 132zM786 1188h-45l-149 328
h61z" />
    <glyph glyph-name="eacute" unicode="&#xe9;" horiz-adv-x="1165" 
d="M680 911q-186 0 -325 -116q-138 -117 -177 -310h813q62 426 -311 426zM681 952q206 0 298 -121t59 -346q-2 -23 -8 -41h-860q-28 -202 66 -318t294 -116q123 0 351 53l4 -34q-209 -59 -355 -60q-226 0 -334 135q-108 136 -67 360t193 356t359 132zM977 1516l-264 -328
h-45l247 328h62z" />
    <glyph glyph-name="ecircumflex" unicode="&#xea;" horiz-adv-x="1165" 
d="M680 911q-186 0 -325 -116q-138 -117 -177 -310h813q62 426 -311 426zM681 952q206 0 298 -121t59 -346q-2 -23 -8 -41h-860q-28 -202 66 -318t294 -116q123 0 351 53l4 -34q-209 -59 -355 -60q-226 0 -334 135q-108 136 -67 360t193 356t359 132zM772 1446l-297 -279
h-51l330 328h51l215 -328h-51z" />
    <glyph glyph-name="edieresis" unicode="&#xeb;" horiz-adv-x="1165" 
d="M680 911q-186 0 -325 -116q-138 -117 -177 -310h813q62 426 -311 426zM681 952q206 0 298 -121t59 -346q-2 -23 -8 -41h-860q-28 -202 66 -318t294 -116q123 0 351 53l4 -34q-209 -59 -355 -60q-226 0 -334 135q-108 136 -67 360t193 356t359 132zM952 1335q20 0 34 -13
q14 -14 13 -34q0 -20 -13 -34q-14 -14 -34 -13q-20 0 -33 13q-13 14 -13 34t12 34q14 14 34 13zM530 1335q20 0 34 -13q14 -14 14 -34t-14 -34t-34 -13q-20 0 -33 13q-13 14 -13 34t12 34q14 14 34 13z" />
    <glyph glyph-name="igrave" unicode="&#xec;" horiz-adv-x="489" 
d="M348 922l-164 -922h-43l164 922h43zM352 1188h-45l-149 328h61z" />
    <glyph glyph-name="iacute" unicode="&#xed;" horiz-adv-x="489" 
d="M348 922l-164 -922h-43l164 922h43zM655 1516l-264 -328h-45l248 328h61z" />
    <glyph glyph-name="icircumflex" unicode="&#xee;" horiz-adv-x="489" 
d="M348 922l-164 -922h-43l164 922h43zM420 1446l-297 -279h-51l329 328h52l215 -328h-52z" />
    <glyph glyph-name="idieresis" unicode="&#xef;" horiz-adv-x="489" 
d="M348 922l-164 -922h-43l164 922h43zM600 1335q20 0 34 -13q14 -14 13 -34q0 -20 -13 -34q-14 -14 -34 -13q-20 0 -34 13q-13 14 -13 34t13 34q14 13 34 13zM178 1335q20 0 34 -13q14 -14 13 -34q0 -20 -13 -34q-14 -14 -34 -13q-20 0 -34 13q-13 14 -13 34t13 34
q14 13 34 13z" />
    <glyph glyph-name="eth" unicode="&#xf0;" horiz-adv-x="1247" 
d="M706 911q-198 0 -346 -125q-148 -126 -184 -326t66 -325t308 -125t344 125t176 338t-64 325t-300 113zM550 -31q-226 1 -342 139t-77 357t200 353t376 134q152 0 258 -68t135 -186q2 365 -211 572l-383 -135l-6 39l356 124q-104 93 -256 132l57 18q137 -43 240 -135
l166 59l6 -39l-139 -49q131 -133 183 -339t8 -458q-45 -252 -195 -385t-376 -133z" />
    <glyph glyph-name="ntilde" unicode="&#xf1;" horiz-adv-x="1232" 
d="M768 952q176 0 253 -103t44 -294l-98 -555h-43l98 559q31 170 -36 261t-220 91q-229 0 -444 -39l-156 -872h-43l158 901q225 51 487 51zM1006 1354h45q-11 -70 -61 -108t-100 -33t-87 28l-109 86q-26 19 -62 21t-71 -25t-45 -78h-43q11 70 61 107q50 36 100 32t87 -26
l108 -86q35 -34 99 -14t78 96z" />
    <glyph glyph-name="ograve" unicode="&#xf2;" horiz-adv-x="1253" 
d="M551 10q219 0 375 152t155 373q0 174 -101 275t-278 101q-218 0 -374 -148t-156 -372q0 -173 102 -277t277 -104zM709 952q193 0 307 -110t112 -301q0 -242 -172 -407t-413 -165q-193 0 -305 113t-113 303q0 243 171 405t413 162zM815 1188h-45l-149 328h61z" />
    <glyph glyph-name="oacute" unicode="&#xf3;" horiz-adv-x="1253" 
d="M551 10q219 0 375 152t155 373q0 174 -101 275t-278 101q-218 0 -374 -148t-156 -372q0 -173 102 -277t277 -104zM709 952q193 0 307 -110t112 -301q0 -242 -172 -407t-413 -165q-193 0 -305 113t-113 303q0 243 171 405t413 162zM1006 1516l-265 -328h-45l248 328h62z
" />
    <glyph glyph-name="ocircumflex" unicode="&#xf4;" horiz-adv-x="1253" 
d="M551 10q219 0 375 152t155 373q0 174 -101 275t-278 101q-218 0 -374 -148t-156 -372q0 -173 102 -277t277 -104zM709 952q193 0 307 -110t112 -301q0 -242 -172 -407t-413 -165q-193 0 -305 113t-113 303q0 243 171 405t413 162zM801 1446l-297 -279h-51l329 328h52
l215 -328h-52z" />
    <glyph glyph-name="otilde" unicode="&#xf5;" horiz-adv-x="1253" 
d="M551 10q219 0 375 152t155 373q0 174 -101 275t-278 101q-218 0 -374 -148t-156 -372q0 -173 102 -277t277 -104zM709 952q193 0 307 -110t112 -301q0 -242 -172 -407t-413 -165q-193 0 -305 113t-113 303q0 243 171 405t413 162zM1016 1354h45q-11 -70 -61 -108
t-100 -33t-87 28l-108 86q-25 19 -62 21t-72 -25t-45 -78h-43q11 70 61 107q50 36 100 32t87 -26l109 -86q34 -34 98 -14t78 96z" />
    <glyph glyph-name="odieresis" unicode="&#xf6;" horiz-adv-x="1253" 
d="M551 10q219 0 375 152t155 373q0 174 -101 275t-278 101q-218 0 -374 -148t-156 -372q0 -173 102 -277t277 -104zM709 952q193 0 307 -110t112 -301q0 -242 -172 -407t-413 -165q-193 0 -305 113t-113 303q0 243 171 405t413 162zM981 1335q19 0 33 -13q14 -14 14 -34
t-13 -34t-33 -13q-20 0 -35 13q-13 14 -13 34t13 34q14 13 34 13zM559 1335q19 0 33 -13q14 -14 14 -34t-13 -34t-33 -13q-20 0 -35 13q-13 14 -13 34t13 34q14 13 34 13z" />
    <glyph glyph-name="divide" unicode="&#xf7;" horiz-adv-x="1437" 
d="M616 227q-20 -1 -33 13t-14 34t13 34t34 14t34 -14t14 -34t-14 -34t-34 -13zM303 668h905l-8 -43h-905zM821 969q-20 0 -34 13q-13 14 -13 34t13 34t33 13q20 0 34 -13q14 -14 14 -34t-13 -34q-14 -13 -34 -13z" />
    <glyph glyph-name="oslash" unicode="&#xf8;" horiz-adv-x="1253" 
d="M1081 535q0 170 -94 268l-708 -694q102 -98 272 -99q219 0 375 152q155 152 155 373zM172 391q0 -152 80 -254l704 694q-98 80 -254 80q-218 -1 -374 -149t-156 -371zM543 -31q-186 0 -297 105l-152 -148l-28 29l151 149q-92 109 -92 281q0 242 171 405t413 162
q170 0 280 -88l148 146l30 -29l-147 -145q109 -109 108 -295q0 -242 -172 -407t-413 -165z" />
    <glyph glyph-name="ugrave" unicode="&#xf9;" horiz-adv-x="1232" 
d="M465 -31q-176 -1 -253 103t-44 295l98 555h43l-98 -560q-31 -170 36 -261t220 -91q229 0 444 39l156 873h43l-158 -902q-225 -51 -487 -51zM805 1188h-45l-150 328h62z" />
    <glyph glyph-name="uacute" unicode="&#xfa;" horiz-adv-x="1232" 
d="M465 -31q-176 -1 -253 103t-44 295l98 555h43l-98 -560q-31 -170 36 -261t220 -91q229 0 444 39l156 873h43l-158 -902q-225 -51 -487 -51zM995 1516l-264 -328h-45l248 328h61z" />
    <glyph glyph-name="ucircumflex" unicode="&#xfb;" horiz-adv-x="1232" 
d="M465 -31q-176 -1 -253 103t-44 295l98 555h43l-98 -560q-31 -170 36 -261t220 -91q229 0 444 39l156 873h43l-158 -902q-225 -51 -487 -51zM791 1446l-297 -279h-52l330 328h51l215 -328h-51z" />
    <glyph glyph-name="udieresis" unicode="&#xfc;" horiz-adv-x="1232" 
d="M465 -31q-176 -1 -253 103t-44 295l98 555h43l-98 -560q-31 -170 36 -261t220 -91q229 0 444 39l156 873h43l-158 -902q-225 -51 -487 -51zM971 1335q19 0 33 -13q14 -14 14 -34t-13 -34t-33 -13q-20 0 -35 13q-13 14 -13 34t13 34q14 13 34 13zM549 1335q19 0 33 -13
q14 -14 14 -34t-13 -34t-33 -13q-20 0 -35 13q-13 14 -13 34t13 34q14 13 34 13z" />
    <glyph glyph-name="yacute" unicode="&#xfd;" horiz-adv-x="1212" 
d="M1204 922l-979 -1373h-51l369 519l-369 854h49l350 -811l580 811h51zM700 1188h-45l248 328h62z" />
    <glyph glyph-name="thorn" unicode="&#xfe;" horiz-adv-x="1271" 
d="M586 10q214 0 364 153t150 386q0 166 -95 264t-275 98t-390 -39l-145 -823q177 -39 391 -39zM738 952q196 0 302 -108t107 -291q0 -252 -163 -418q-162 -166 -392 -166t-404 41l-82 -461h-43l336 1905h43l-96 -543q196 41 392 41z" />
    <glyph glyph-name="ydieresis" unicode="&#xff;" horiz-adv-x="1212" 
d="M1204 922l-979 -1373h-51l369 519l-369 854h49l350 -811l580 811h51zM940 1241q-20 0 -34 13q-13 14 -13 34t13 34q14 14 34 13q20 0 34 -13q14 -14 13 -34q0 -20 -13 -34q-14 -13 -34 -13zM518 1241q-20 0 -34 13q-13 14 -13 34t13 34q14 14 34 13q20 0 34 -13
q14 -14 13 -34q0 -20 -13 -34q-14 -13 -34 -13z" />
    <glyph glyph-name="Amacron" unicode="&#x100;" horiz-adv-x="1517" 
d="M918 1352l-574 -914h821zM317 395l-247 -395h-54l881 1403h51l385 -1403h-49l-106 395h-861zM1241 1655l-6 -37h-541l6 37h541z" />
    <glyph glyph-name="amacron" unicode="&#x101;" horiz-adv-x="1239" 
d="M668 911q-209 0 -354 -149q-144 -150 -144 -383q0 -168 95 -268q95 -101 266 -101t413 127l129 735q-196 39 -405 39zM123 375q-1 253 161 415t396 162t440 -51l-157 -901h-43l16 94q-230 -125 -416 -125t-292 111q-105 111 -105 295zM1073 1366l-6 -35h-541l6 35h541z
" />
    <glyph glyph-name="Abreve" unicode="&#x102;" horiz-adv-x="1517" 
d="M918 1352l-574 -914h821zM317 395l-247 -395h-54l881 1403h51l385 -1403h-49l-106 395h-861zM948 1538q-125 0 -187 76t-40 198h41q-18 -106 35 -171t159 -65t184 65q77 65 95 171h39q-23 -122 -112 -198t-214 -76z" />
    <glyph glyph-name="abreve" unicode="&#x103;" horiz-adv-x="1239" 
d="M668 911q-209 0 -354 -149q-144 -150 -144 -383q0 -168 95 -268q95 -101 266 -101t413 127l129 735q-196 39 -405 39zM123 375q-1 253 161 415t396 162t440 -51l-157 -901h-43l16 94q-230 -125 -416 -125t-292 111q-105 111 -105 295zM770 1169q-125 0 -187 76t-40 199
h41q-18 -106 34 -171t160 -65q106 0 184 65q77 65 95 171h39q-23 -123 -112 -199t-214 -76z" />
    <glyph glyph-name="Aogonek" unicode="&#x104;" horiz-adv-x="1517" 
d="M1165 438l-247 914l-574 -914h821zM1253 -375q25 0 58 4v-43q-27 -6 -68 -6q-104 0 -160 55q-55 55 -41 141t78 140q64 53 160 98l-102 381h-861l-247 -395h-54l881 1403h51l385 -1403q-104 -47 -168 -96t-77 -123t32 -115t133 -41z" />
    <glyph glyph-name="aogonek" unicode="&#x105;" horiz-adv-x="1239" 
d="M170 379q0 -169 95 -269t266 -100t413 127l129 735q-197 39 -405 39t-354 -149q-144 -150 -144 -383zM883 -375q25 0 57 4v-43q-27 -6 -68 -6q-104 0 -159 55t-43 129t58 125t88 77t108 57l12 71q-230 -125 -416 -125t-292 111q-105 111 -105 295q0 252 162 415
q162 162 395 162t440 -51l-157 -901q-103 -47 -167 -96t-78 -123t32 -115q45 -41 133 -41z" />
    <glyph glyph-name="Cacute" unicode="&#x106;" horiz-adv-x="1570" 
d="M231 586q0 -272 157 -424t443 -152q229 0 529 86l4 -37q-297 -90 -541 -90q-305 0 -473 162t-168 455q0 369 251 603t659 234q235 1 450 -75l-18 -37q-217 72 -434 71q-381 0 -620 -224t-239 -572zM1389 1843l-265 -327h-45l248 327h62z" />
    <glyph glyph-name="cacute" unicode="&#x107;" horiz-adv-x="1095" 
d="M715 911q-231 0 -387 -148t-156 -380q0 -170 100 -271q100 -102 258 -102t375 60l4 -41q-207 -59 -383 -59t-288 110q-113 111 -113 295q0 254 172 416t432 161q160 0 301 -49l-16 -37q-156 45 -299 45zM989 1516l-264 -328h-45l248 328h61z" />
    <glyph glyph-name="Cdotaccent" unicode="&#x10a;" horiz-adv-x="1570" 
d="M231 586q0 -272 157 -424t443 -152q229 0 529 86l4 -37q-297 -90 -541 -90q-305 0 -473 162t-168 455q0 369 251 603t659 234q235 1 450 -75l-18 -37q-217 72 -434 71q-381 0 -620 -224t-239 -572zM1126 1632q-20 0 -33 14t-14 33t13 33t34 14t34 -13t14 -33t-14 -34
t-34 -14z" />
    <glyph glyph-name="cdotaccent" unicode="&#x10b;" horiz-adv-x="1095" 
d="M715 911q-231 0 -387 -148t-156 -380q0 -170 100 -271q100 -102 258 -102t375 60l4 -41q-207 -59 -383 -59t-288 110q-113 111 -113 295q0 254 172 416t432 161q160 0 301 -49l-16 -37q-156 45 -299 45zM754 1241q-20 0 -34 13q-13 14 -13 34t13 34q14 14 34 13
q20 0 33 -13q13 -14 13 -34t-12 -34q-14 -14 -34 -13z" />
    <glyph glyph-name="Ccaron" unicode="&#x10c;" horiz-adv-x="1570" 
d="M231 586q0 -272 157 -424t443 -152q229 0 529 86l4 -37q-297 -90 -541 -90q-305 0 -473 162t-168 455q0 369 251 603t659 234q235 1 450 -75l-18 -37q-217 72 -434 71q-381 0 -620 -224t-239 -572zM1122 1516h-51l-215 327h55l191 -289l295 289h55z" />
    <glyph glyph-name="ccaron" unicode="&#x10d;" horiz-adv-x="1095" 
d="M715 911q-231 0 -387 -148t-156 -380q0 -170 100 -271q100 -102 258 -102t375 60l4 -41q-207 -59 -383 -59t-288 110q-113 111 -113 295q0 254 172 416t432 161q160 0 301 -49l-16 -37q-156 45 -299 45zM760 1167h-51l-215 328h55l190 -289l295 289h56z" />
    <glyph glyph-name="Dcaron" unicode="&#x10e;" horiz-adv-x="1558" 
d="M606 31q354 0 582 219q227 219 227 579q0 252 -153 395q-154 142 -420 142q-145 0 -404 -12l-233 -1315q258 -8 401 -8zM848 1407q286 0 450 -152t164 -419q0 -381 -242 -614q-243 -232 -622 -232q-96 0 -444 10l245 1393q326 14 449 14zM930 1516h-51l-215 327h55
l190 -289l295 289h56z" />
    <glyph glyph-name="dcaron" unicode="&#x10f;" horiz-adv-x="1247" 
d="M679 911q-218 0 -363 -149q-144 -150 -144 -383q0 -168 94 -268t262 -101q211 0 402 39l141 805q-174 57 -392 57zM1446 1454l-109 -389h-37l95 389h51zM520 -31q-184 0 -290 111q-105 111 -105 295q0 252 162 415q162 162 393 162t399 -57l99 559h43l-252 -1434
q-173 -40 -265 -45q-92 -6 -184 -6z" />
    <glyph glyph-name="Dcroat" unicode="&#x110;" horiz-adv-x="1558" 
d="M606 31q354 0 582 219q227 219 227 579q0 252 -153 395q-154 142 -420 142q-145 0 -404 -12l-112 -637h428l-9 -41h-428l-112 -637q258 -8 401 -8zM848 1407q286 0 450 -152t164 -419q0 -381 -242 -614q-243 -232 -622 -232q-96 0 -444 10l118 676h-176l8 41h177l118 676
q326 14 449 14z" />
    <glyph glyph-name="dcroat" unicode="&#x111;" horiz-adv-x="1247" 
d="M679 911q-218 0 -363 -149q-144 -150 -144 -383q0 -168 94 -268t262 -101q212 0 402 39l141 805q-174 57 -392 57zM520 -31q-184 0 -290 111q-105 111 -105 295q0 252 162 415q162 162 393 162t399 -57l58 328h-428l6 39h428l35 192h43l-35 -192h117l-7 -39h-116
l-211 -1203q-173 -40 -265 -45q-92 -6 -184 -6z" />
    <glyph glyph-name="Emacron" unicode="&#x112;" horiz-adv-x="1302" 
d="M326 717h798l-6 -41h-799l-112 -635h880l-8 -41h-925l245 1393h926l-6 -41h-881zM1176 1655l-7 -37h-540l6 37h541z" />
    <glyph glyph-name="emacron" unicode="&#x113;" horiz-adv-x="1165" 
d="M680 911q-186 0 -325 -116q-138 -117 -177 -310h813q62 426 -311 426zM681 952q206 0 298 -121t59 -346q-2 -23 -8 -41h-860q-28 -202 66 -318t294 -116q123 0 351 53l4 -34q-209 -59 -355 -60q-226 0 -334 135q-108 136 -67 360t193 356t359 132zM1026 1366l-6 -35h-541
l6 35h541z" />
    <glyph glyph-name="Edotaccent" unicode="&#x116;" horiz-adv-x="1302" 
d="M326 717h798l-6 -41h-799l-112 -635h880l-8 -41h-925l245 1393h926l-6 -41h-881zM909 1632q-20 0 -33 14t-14 33q0 19 14 33t33 14t33 -13t14 -33t-14 -34t-33 -14z" />
    <glyph glyph-name="edotaccent" unicode="&#x117;" horiz-adv-x="1165" 
d="M680 911q-186 0 -325 -116q-138 -117 -177 -310h813q62 426 -311 426zM681 952q206 0 298 -121t59 -346q-2 -23 -8 -41h-860q-28 -202 66 -318t294 -116q123 0 351 53l4 -34q-209 -59 -355 -60q-226 0 -334 135q-108 136 -67 360t193 356t359 132zM741 1241q-20 0 -33 13
q-14 14 -14 34t14 34t33 13q19 0 33 -13q14 -14 14 -34t-13 -34q-14 -13 -34 -13z" />
    <glyph glyph-name="Eogonek" unicode="&#x118;" horiz-adv-x="1302" 
d="M918 -375q25 0 57 4v-43q-29 -6 -68 -6q-104 0 -159 55t-41 144q20 129 206 221h-759l245 1393h926l-6 -41h-881l-112 -635h798l-6 -41h-799l-112 -635h880l-8 -41h-82q-103 -47 -167 -96t-77 -123t31 -115t134 -41z" />
    <glyph glyph-name="eogonek" unicode="&#x119;" horiz-adv-x="1165" 
d="M680 911q-186 0 -325 -116q-138 -117 -177 -310h813q61 426 -311 426zM530 -31q-226 0 -334 135q-108 136 -67 360t193 356t359 132q206 0 298 -121t59 -346q-2 -23 -8 -41h-860q-28 -202 66 -318t294 -116q123 0 351 53l4 -34q-43 -14 -111 -29q-66 -30 -108 -54
t-80 -68q-39 -44 -50 -106q-10 -62 34 -102q44 -41 132 -41q25 0 58 4v-43q-27 -6 -68 -6q-104 0 -160 56t-40 143q20 115 157 194q-78 -8 -119 -8z" />
    <glyph glyph-name="Ecaron" unicode="&#x11a;" horiz-adv-x="1302" 
d="M326 717h798l-6 -41h-799l-112 -635h880l-8 -41h-925l245 1393h926l-6 -41h-881zM905 1516h-51l-215 327h55l191 -289l295 289h55z" />
    <glyph glyph-name="ecaron" unicode="&#x11b;" horiz-adv-x="1165" 
d="M680 911q-186 0 -325 -116q-138 -117 -177 -310h813q62 426 -311 426zM681 952q206 0 298 -121t59 -346q-2 -23 -8 -41h-860q-28 -202 66 -318t294 -116q123 0 351 53l4 -34q-209 -59 -355 -60q-226 0 -334 135q-108 136 -67 360t193 356t359 132zM748 1167h-52l-215 328
h56l190 -289l295 289h55z" />
    <glyph glyph-name="Gbreve" unicode="&#x11e;" horiz-adv-x="1677" 
d="M811 -31q-283 0 -456 166t-173 436q0 383 244 617t641 235q258 0 473 -75l-18 -37q-217 72 -461 71q-375 0 -603 -221t-229 -583q0 -256 162 -412q161 -156 443 -156t581 115l98 551h-612l6 41h656l-109 -615q-313 -133 -643 -133zM1079 1538q-125 0 -187 76t-40 198h41
q-18 -106 35 -171t159 -65t184 65q77 65 95 171h39q-23 -122 -112 -198t-214 -76z" />
    <glyph glyph-name="gbreve" unicode="&#x11f;" horiz-adv-x="1230" 
d="M670 911q-209 0 -354 -149q-144 -150 -144 -383q0 -168 94 -268t260 -101q211 0 404 39l145 823q-196 39 -405 39zM125 375q-1 253 161 415t396 162t440 -51l-157 -901q-41 -223 -195 -359q-154 -137 -360 -137t-351 80l21 35q147 -74 337 -74q191 0 329 127t178 338
q-190 -41 -389 -41t-305 111q-105 111 -105 295zM760 1169q-125 0 -188 76q-62 76 -40 199h41q-18 -106 35 -171q54 -65 160 -65t184 65t95 171h38q-23 -123 -111 -199t-214 -76z" />
    <glyph glyph-name="Gdotaccent" unicode="&#x120;" horiz-adv-x="1677" 
d="M811 -31q-283 0 -456 166t-173 436q0 383 244 617t641 235q258 0 473 -75l-18 -37q-217 72 -461 71q-375 0 -603 -221t-229 -583q0 -256 162 -412q161 -156 443 -156t581 115l98 551h-612l6 41h656l-109 -615q-313 -133 -643 -133zM1106 1632q-20 0 -34 14t-13 33
q0 19 13 33q14 14 34 14t34 -13t13 -33q1 -20 -13 -34t-34 -14z" />
    <glyph glyph-name="gdotaccent" unicode="&#x121;" horiz-adv-x="1230" 
d="M670 911q-209 0 -354 -149q-144 -150 -144 -383q0 -168 94 -268t260 -101q211 0 404 39l145 823q-196 39 -405 39zM125 375q-1 253 161 415t396 162t440 -51l-157 -901q-41 -223 -195 -359q-154 -137 -360 -137t-351 80l21 35q147 -74 337 -74q191 0 329 127t178 338
q-190 -41 -389 -41t-305 111q-105 111 -105 295zM778 1241q-20 0 -34 13q-13 14 -13 34t13 34q14 14 34 13q20 0 34 -13q14 -14 13 -34q0 -20 -13 -34q-14 -13 -34 -13z" />
    <glyph glyph-name="Gcommaaccent" unicode="&#x122;" horiz-adv-x="1677" 
d="M719 -233q0 20 13 33q14 14 34 14t34 -14t13 -26q0 -14 -1 -20q-6 -36 -21 -70q-15 -35 -33 -83t-31 -80h-39l68 203q-37 6 -37 43zM811 -31q-283 0 -456 166t-173 436q0 383 244 617t641 235q258 0 473 -75l-18 -37q-217 72 -461 71q-375 0 -603 -221t-229 -583
q0 -256 162 -412q161 -156 443 -156t581 115l98 551h-612l6 41h656l-109 -615q-313 -133 -643 -133z" />
    <glyph glyph-name="gcommaaccent" unicode="&#x123;" horiz-adv-x="1230" 
d="M670 911q-209 0 -354 -149q-144 -150 -144 -383q0 -168 94 -268t260 -101q211 0 404 39l145 823q-196 39 -405 39zM125 375q-1 253 161 415t396 162t440 -51l-157 -901q-41 -223 -195 -359q-154 -137 -360 -137t-351 80l21 35q147 -74 337 -74q191 0 329 127t178 338
q-190 -41 -389 -41t-305 111q-105 111 -105 295zM740 1229q-20 0 -34 13q-28 28 -2 90q6 14 13 32q8 20 15 38t21 53q13 34 25 67h39l-67 -203q37 -6 36 -43q0 -20 -13 -34t-33 -13z" />
    <glyph glyph-name="Hbar" unicode="&#x126;" horiz-adv-x="1533" 
d="M1360 1065h-973l-61 -348h972zM1516 1065h-111l-188 -1065h-46l121 676h-973l-120 -676h-45l188 1065h-111l9 41h108l51 287h45l-51 -287h973l51 287h45l-51 -287h113z" />
    <glyph glyph-name="hbar" unicode="&#x127;" horiz-adv-x="1253" 
d="M791 952q175 0 251 -102t43 -293l-98 -557h-43l98 557q31 170 -36 262q-68 92 -222 92q-246 0 -446 -57l-152 -854h-43l213 1204h-166l9 41h163l37 209h43l-36 -209h403l-8 -41h-402l-55 -309q193 57 447 57z" />
    <glyph glyph-name="Imacron" unicode="&#x12a;" horiz-adv-x="516" 
d="M444 1393l-245 -1393h-45l245 1393h45zM739 1655l-6 -37h-540l6 37h540z" />
    <glyph glyph-name="imacron" unicode="&#x12b;" horiz-adv-x="489" 
d="M348 922l-164 -922h-43l164 922h43zM674 1366l-6 -35h-541l6 35h541z" />
    <glyph glyph-name="Iogonek" unicode="&#x12e;" horiz-adv-x="516" 
d="M119 -375q25 0 57 4v-43q-27 -6 -67 -6q-104 0 -160 55q-55 55 -41 143t82 142q68 55 168 100l241 1373h45l-245 -1393q-103 -47 -167 -96t-78 -123t32 -115q45 -41 133 -41z" />
    <glyph glyph-name="iogonek" unicode="&#x12f;" horiz-adv-x="489" 
d="M104 -375q25 0 58 4v-43q-29 -6 -68 -6q-104 0 -160 55q-54 55 -42 130t58 126t89 77t106 55l160 899h43l-164 -922q-104 -47 -168 -96t-76 -123t32 -115t132 -41zM389 1335q19 0 33 -13q14 -14 14 -34t-13 -34t-33 -13q-20 0 -35 13q-13 14 -13 34t13 34q14 13 34 13z
" />
    <glyph glyph-name="Idotaccent" unicode="&#x130;" horiz-adv-x="516" 
d="M444 1393l-245 -1393h-45l245 1393h45zM478 1657q-22 0 -37 14t-15 37t15 37t37 14t36 -15q16 -16 16 -36t-15 -36q-15 -15 -37 -15z" />
    <glyph glyph-name="dotlessi" unicode="&#x131;" horiz-adv-x="489" 
d="M348 922l-164 -922h-43l164 922h43z" />
    <glyph glyph-name="IJ" unicode="&#x132;" horiz-adv-x="1701" 
d="M948 -31q-216 0 -428 94l23 39q211 -92 409 -92t326 123q129 123 168 350l160 910h45l-160 -910q-43 -248 -185 -381t-358 -133zM444 1393l-245 -1393h-45l245 1393h45z" />
    <glyph glyph-name="ij" unicode="&#x133;" horiz-adv-x="935" 
d="M817 922l-184 -1045q-33 -184 -112 -262t-230 -78l8 41q129 0 196 69t95 230l184 1045h43zM348 922l-164 -922h-43l164 922h43zM856 1241q-20 0 -34 13q-13 14 -13 34t13 34q14 14 34 13q20 0 34 -13q14 -14 13 -34q0 -20 -13 -34q-14 -13 -34 -13zM389 1241
q-20 0 -34 13q-13 14 -13 34t13 34t33 13q20 0 34 -13q14 -14 14 -34t-13 -34q-14 -13 -34 -13z" />
    <glyph glyph-name="Kcommaaccent" unicode="&#x136;" horiz-adv-x="1368" 
d="M540 -166q20 0 34 -13t14 -27t-1 -19q-1 -6 -3 -17t-7 -26q-6 -14 -14 -34t-15 -38q-6 -18 -20 -52t-26 -67h-39l67 203q-37 6 -36 43q0 19 13 33t33 14zM311 635l-112 -635h-45l245 1393h45l-125 -717h175l821 717h63l-809 -709l645 -684h-69l-594 635h-240z" />
    <glyph glyph-name="kcommaaccent" unicode="&#x137;" horiz-adv-x="1157" 
d="M412 -213q0 19 13 33t33 14t34 -13t14 -27t-1 -19q-1 -7 -2 -13t-6 -23t-15 -38q-9 -23 -16 -41q-6 -18 -20 -52t-26 -67h-39l68 203q-37 6 -37 43zM272 485h181l538 437h60l-529 -433l465 -489h-57l-422 444h-242l-80 -444h-43l258 1454h43z" />
    <glyph glyph-name="Lacute" unicode="&#x139;" horiz-adv-x="1179" 
d="M1018 0h-864l245 1393h45l-237 -1352h819zM741 1843l-264 -327h-45l248 327h61z" />
    <glyph glyph-name="lacute" unicode="&#x13a;" horiz-adv-x="493" 
d="M444 1454l-258 -1454h-43l258 1454h43zM729 1864l-264 -328h-45l248 328h61z" />
    <glyph glyph-name="Lcommaaccent" unicode="&#x13b;" horiz-adv-x="1179" 
d="M540 -166q20 0 34 -13t14 -27t-1 -19q-1 -6 -3 -17t-7 -26q-6 -14 -14 -34t-15 -38q-6 -18 -20 -52t-26 -67h-39l67 203q-37 6 -36 43q0 19 13 33t33 14zM1018 0h-864l245 1393h45l-237 -1352h819z" />
    <glyph glyph-name="lcommaaccent" unicode="&#x13c;" horiz-adv-x="493" 
d="M74 -213q0 19 13 33t33 14t34 -13t14 -27t-1 -19q-1 -7 -2 -13t-6 -23t-15 -38q-9 -22 -26 -66t-36 -94h-39l68 203q-37 6 -37 43zM444 1454l-258 -1454h-43l258 1454h43z" />
    <glyph glyph-name="Lcaron" unicode="&#x13d;" horiz-adv-x="1179" 
d="M791 1393l-109 -389h-37l94 389h52zM1018 0h-864l245 1393h45l-237 -1352h819z" />
    <glyph glyph-name="lcaron" unicode="&#x13e;" horiz-adv-x="493" 
d="M668 1454l-109 -389h-37l94 389h52zM444 1454l-258 -1454h-43l258 1454h43z" />
    <glyph glyph-name="Ldot" unicode="&#x13f;" horiz-adv-x="1140" 
d="M727 535q-20 0 -34 13q-13 14 -13 34t13 33t33 13t34 -12q14 -14 14 -34t-13 -34q-14 -13 -34 -13zM1018 0h-864l245 1393h45l-237 -1352h819z" />
    <glyph glyph-name="ldot" unicode="&#x140;" horiz-adv-x="493" 
d="M481 616q-19 0 -33 14t-14 34t13 33t33 13t34 -12q14 -14 14 -34t-14 -34t-33 -14zM444 1454l-258 -1454h-43l258 1454h43z" />
    <glyph glyph-name="Lslash" unicode="&#x141;" horiz-adv-x="1179" 
d="M1026 41l-8 -41h-864l92 528l-191 -104l8 51l193 105l143 813h45l-137 -787l361 197l-9 -51l-362 -197l-90 -514h819z" />
    <glyph glyph-name="lslash" unicode="&#x142;" horiz-adv-x="493" 
d="M487 766l-182 -100l-119 -666h-43l113 639l-186 -102l8 47l186 102l137 768h43l-131 -741l183 100z" />
    <glyph glyph-name="Nacute" unicode="&#x143;" horiz-adv-x="1597" 
d="M1528 1393l-246 -1393h-51l-799 1335l-235 -1335h-45l245 1393h49l801 -1336l236 1336h45zM1276 1843l-264 -327h-45l247 327h62z" />
    <glyph glyph-name="nacute" unicode="&#x144;" horiz-adv-x="1232" 
d="M768 952q176 0 253 -103t44 -294l-98 -555h-43l98 559q31 170 -36 261t-220 91q-229 0 -444 -39l-156 -872h-43l158 901q225 51 487 51zM995 1516l-264 -328h-45l248 328h61z" />
    <glyph glyph-name="Ncommaaccent" unicode="&#x145;" horiz-adv-x="1597" 
d="M637 -213q0 19 13 33q14 14 34 14t34 -13t13 -27q0 -14 -1 -19q-1 -7 -2 -13t-6 -24t-22 -57q-16 -39 -29 -73t-26 -67h-39l68 203q-37 6 -37 43zM1528 1393l-246 -1393h-51l-799 1335l-235 -1335h-45l245 1393h49l801 -1336l236 1336h45z" />
    <glyph glyph-name="ncommaaccent" unicode="&#x146;" horiz-adv-x="1232" 
d="M500 -166q20 0 34 -13t13 -27q0 -14 -1 -19q-1 -7 -2 -13t-6 -23t-15 -39q-9 -22 -16 -40t-21 -52t-25 -67h-39l67 203q-37 6 -36 43q0 19 13 33q14 14 34 14zM768 952q176 0 253 -103t44 -294l-98 -555h-43l98 559q31 170 -36 261t-220 91q-229 0 -444 -39l-156 -872
h-43l158 901q225 51 487 51z" />
    <glyph glyph-name="Ncaron" unicode="&#x147;" horiz-adv-x="1597" 
d="M1528 1393l-246 -1393h-51l-799 1335l-235 -1335h-45l245 1393h49l801 -1336l236 1336h45zM1010 1516h-52l-215 327h56l190 -289l295 289h55z" />
    <glyph glyph-name="ncaron" unicode="&#x148;" horiz-adv-x="1232" 
d="M768 952q176 0 253 -103t44 -294l-98 -555h-43l98 559q31 170 -36 261t-220 91q-229 0 -444 -39l-156 -872h-43l158 901q225 51 487 51zM766 1167h-51l-215 328h55l190 -289l295 289h56z" />
    <glyph glyph-name="Omacron" unicode="&#x14c;" horiz-adv-x="1753" 
d="M799 10q348 0 579 228t232 581q0 256 -153 410t-417 153q-366 0 -588 -223t-223 -590q0 -251 157 -405t413 -154zM1049 1423q283 -1 445 -163t163 -435q0 -373 -247 -615t-619 -241q-272 0 -441 165q-168 165 -168 433q0 385 238 621t629 235zM1358 1655l-6 -37h-541
l6 37h541z" />
    <glyph glyph-name="omacron" unicode="&#x14d;" horiz-adv-x="1253" 
d="M551 10q219 0 375 152t155 373q0 174 -101 275t-278 101q-218 0 -374 -148t-156 -372q0 -173 102 -277t277 -104zM709 952q193 0 307 -110t112 -301q0 -242 -172 -407t-413 -165q-193 0 -305 113t-113 303q0 243 171 405t413 162zM1055 1366l-6 -35h-541l6 35h541z" />
    <glyph glyph-name="Ohungarumlaut" unicode="&#x150;" horiz-adv-x="1753" 
d="M799 10q348 0 579 228t232 581q0 256 -153 410t-417 153q-366 0 -588 -223t-223 -590q0 -251 157 -405t413 -154zM1049 1423q283 -1 445 -163t163 -435q0 -373 -247 -615t-619 -241q-272 0 -441 165q-168 165 -168 433q0 385 238 621t629 235zM1497 1843l-264 -327h-45
l248 327h61zM1251 1843l-264 -327h-45l248 327h61z" />
    <glyph glyph-name="ohungarumlaut" unicode="&#x151;" horiz-adv-x="1253" 
d="M551 10q219 0 375 152t155 373q0 174 -101 275t-278 101q-218 0 -374 -148t-156 -372q0 -173 102 -277t277 -104zM709 952q193 0 307 -110t112 -301q0 -242 -172 -407t-413 -165q-193 0 -305 113t-113 303q0 243 171 405t413 162zM881 1167h-45l247 328h62zM635 1167h-45
l248 328h61z" />
    <glyph glyph-name="OE" unicode="&#x152;" horiz-adv-x="2041" 
d="M231 580q0 -256 171 -396t499 -143l232 1311q-428 -2 -665 -210t-237 -562zM1065 717h799l-6 -41h-799l-113 -635h881l-8 -41h-926q-346 2 -527 153t-182 420q0 377 251 597t704 223h925l-6 -41h-880z" />
    <glyph glyph-name="oe" unicode="&#x153;" horiz-adv-x="2105" 
d="M1620 911q-176 0 -309 -104t-183 -281l-2 -41h805q61 426 -311 426zM172 391q0 -173 102 -277t278 -104q177 0 317 104t190 269q6 72 22 135v17q0 174 -101 275t-278 101q-218 0 -374 -148t-156 -372zM1642 952q184 0 277 -121q92 -121 59 -346q-2 -23 -8 -41h-850
q-8 -45 -16 -67q-4 -175 90 -271t276 -96q123 0 351 53l4 -34q-446 -127 -635 22q-104 82 -127 225q-74 -141 -214 -224q-139 -83 -319 -83t-292 113t-113 303q0 242 171 405t413 162q171 0 279 -85t132 -236q70 153 204 237t318 84z" />
    <glyph glyph-name="Racute" unicode="&#x154;" horiz-adv-x="1320" 
d="M664 594q244 0 396 123t152 338q0 151 -110 231t-282 80q-173 0 -384 -12l-133 -760h361zM655 553h-360l-96 -553h-45l245 1393q291 14 408 14q213 0 333 -88q120 -89 120 -269t-117 -309t-320 -172l334 -569h-55l-326 561q-51 -8 -121 -8zM1077 1843l-264 -327h-45
l248 327h61z" />
    <glyph glyph-name="racute" unicode="&#x155;" horiz-adv-x="745" 
d="M748 948l-3 -41q-209 0 -421 -26l-156 -881h-43l158 911q229 37 465 37zM815 1516l-264 -328h-45l248 328h61z" />
    <glyph glyph-name="Rcommaaccent" unicode="&#x156;" horiz-adv-x="1320" 
d="M540 -166q20 0 34 -13t14 -27t-1 -19q-1 -6 -3 -17t-7 -26q-6 -14 -14 -34t-15 -38q-6 -18 -20 -52t-26 -67h-39l67 203q-37 6 -36 43q0 19 13 33t33 14zM664 594q244 0 396 123t152 338q0 151 -110 231t-282 80q-173 0 -384 -12l-133 -760h361zM655 553h-360l-96 -553
h-45l245 1393q291 14 408 14q213 0 333 -88q120 -89 120 -269t-117 -309t-320 -172l334 -569h-55l-326 561q-51 -8 -121 -8z" />
    <glyph glyph-name="rcommaaccent" unicode="&#x157;" horiz-adv-x="745" 
d="M57 -213q-1 19 13 33t34 14t34 -13t14 -36q1 -23 -16 -64q-17 -43 -24 -61q-6 -18 -20 -52t-26 -67h-39l67 203q-37 6 -37 43zM748 948l-3 -41q-209 0 -421 -26l-156 -881h-43l158 911q229 37 465 37z" />
    <glyph glyph-name="Rcaron" unicode="&#x158;" horiz-adv-x="1320" 
d="M664 594q244 0 396 123t152 338q0 151 -110 231t-282 80q-173 0 -384 -12l-133 -760h361zM655 553h-360l-96 -553h-45l245 1393q291 14 408 14q213 0 333 -88q120 -89 120 -269t-117 -309t-320 -172l334 -569h-55l-326 561q-51 -8 -121 -8zM811 1516h-51l-215 327h55
l191 -289l294 289h56z" />
    <glyph glyph-name="rcaron" unicode="&#x159;" horiz-adv-x="745" 
d="M748 948l-3 -41q-209 0 -421 -26l-156 -881h-43l158 911q229 37 465 37zM586 1167h-51l-216 328h56l190 -289l295 289h55z" />
    <glyph glyph-name="Sacute" unicode="&#x15a;" horiz-adv-x="1402" 
d="M385 1006q0 -94 71 -148q70 -54 200 -82q321 -73 401 -121q106 -66 131 -137q16 -45 16 -102q0 -201 -158 -324t-397 -123q-291 0 -553 117l25 39q264 -115 536 -115q215 0 358 111q142 111 142 283t-187 242q-77 30 -161 49q-84 20 -88 21t-11 2t-14 3q-198 43 -278 104
t-80 170q0 195 147 312t386 117t456 -76l-18 -39q-227 73 -443 73t-348 -103q-133 -103 -133 -273zM1204 1843l-264 -327h-45l248 327h61z" />
    <glyph glyph-name="sacute" unicode="&#x15b;" horiz-adv-x="1044" 
d="M819 254q0 72 -48 106q-28 20 -52 36t-93 35t-162 43t-160 70t-66 134q0 123 103 199q103 75 276 75t325 -59l-20 -39q-154 57 -310 57t-243 -62q-88 -62 -88 -169q0 -68 53 -106q52 -38 148 -61q249 -60 316 -115q66 -55 64 -134q0 -135 -108 -215q-108 -79 -296 -79
q-187 0 -384 100l22 39q193 -99 362 -99t265 68t96 176zM901 1516l-264 -328h-45l248 328h61z" />
    <glyph glyph-name="Scedilla" unicode="&#x15e;" horiz-adv-x="1402" 
d="M471 -410h-45l170 308h47zM385 1006q0 -94 71 -148q70 -54 200 -82q321 -73 401 -121q106 -66 131 -137q16 -45 16 -102q0 -201 -158 -324t-397 -123q-291 0 -553 117l25 39q264 -115 536 -115q215 0 358 111q142 111 142 283t-187 242q-77 30 -161 49q-84 20 -88 21
t-11 2t-14 3q-198 43 -278 104t-80 170q0 195 147 312t386 117t456 -76l-18 -39q-227 73 -443 73t-348 -103q-133 -103 -133 -273z" />
    <glyph glyph-name="scedilla" unicode="&#x15f;" horiz-adv-x="1044" 
d="M266 -410h-45l170 308h47zM819 254q0 72 -48 106q-28 20 -52 36t-93 35t-162 43t-160 70t-66 134q0 123 103 199q103 75 276 75t325 -59l-20 -39q-154 57 -310 57t-243 -62q-88 -62 -88 -169q0 -68 53 -106q52 -38 148 -61q249 -60 316 -115q66 -55 64 -134
q0 -135 -108 -215q-108 -79 -296 -79q-187 0 -384 100l22 39q193 -99 362 -99t265 68t96 176z" />
    <glyph glyph-name="Scaron" unicode="&#x160;" horiz-adv-x="1402" 
d="M385 1006q0 -94 71 -148q70 -54 200 -82q321 -73 401 -121q106 -66 131 -137q16 -45 16 -102q0 -201 -158 -324t-397 -123q-291 0 -553 117l25 39q264 -115 536 -115q215 0 358 111q142 111 142 283t-187 242q-77 30 -161 49q-84 20 -88 21t-11 2t-14 3q-198 43 -278 104
t-80 170q0 195 147 312t386 117t456 -76l-18 -39q-227 73 -443 73t-348 -103q-133 -103 -133 -273zM938 1516h-51l-215 327h55l191 -289l294 289h56z" />
    <glyph glyph-name="scaron" unicode="&#x161;" horiz-adv-x="1044" 
d="M819 254q0 72 -48 106q-28 20 -52 36t-93 35t-162 43t-160 70t-66 134q0 123 103 199q103 75 276 75t325 -59l-20 -39q-154 57 -310 57t-243 -62q-88 -62 -88 -169q0 -68 53 -106q52 -38 148 -61q249 -60 316 -115q66 -55 64 -134q0 -135 -108 -215q-108 -79 -296 -79
q-187 0 -384 100l22 39q193 -99 362 -99t265 68t96 176zM672 1167h-51l-215 328h55l190 -289l295 289h55z" />
    <glyph glyph-name="Tcaron" unicode="&#x164;" horiz-adv-x="1355" 
d="M860 1352l-239 -1352h-48l240 1352h-594l6 41h1233l-6 -41h-592zM889 1516h-51l-215 327h55l190 -289l295 289h56z" />
    <glyph glyph-name="tcaron" unicode="&#x165;" horiz-adv-x="845" 
d="M483 -31q-151 0 -203 79t-20 263l100 570h-225l8 41h226l75 430h43l-75 -430h356l-8 -41h-357l-100 -574q-29 -161 12 -229t170 -68q68 1 160 21l8 -37q-100 -25 -170 -25zM729 1516l-108 -390h-37l94 390h51z" />
    <glyph glyph-name="Umacron" unicode="&#x16a;" horiz-adv-x="1568" 
d="M696 -31q-256 0 -386 153t-85 402l154 869h45l-154 -869q-41 -231 78 -372q120 -142 354 -142t406 142t211 372l154 869h45l-154 -869q-45 -250 -228 -402q-184 -152 -440 -153zM1266 1655l-6 -37h-541l6 37h541z" />
    <glyph glyph-name="umacron" unicode="&#x16b;" horiz-adv-x="1232" 
d="M465 -31q-176 -1 -253 103t-44 295l98 555h43l-98 -560q-31 -170 36 -261t220 -91q229 0 444 39l156 873h43l-158 -902q-225 -51 -487 -51zM1044 1366l-6 -35h-540l6 35h540z" />
    <glyph glyph-name="Uring" unicode="&#x16e;" horiz-adv-x="1568" 
d="M696 -31q-256 0 -386 153t-85 402l154 869h45l-154 -869q-41 -231 78 -372q120 -142 354 -142t406 142t211 372l154 869h45l-154 -869q-45 -250 -228 -402q-184 -152 -440 -153zM840 1656q0 -56 35 -90t89 -34t96 40t42 97t-35 91t-89 34t-96 -41t-42 -97zM981 1831
q72 0 116 -43t44 -117q1 -74 -55 -126t-127 -52t-115 45t-43 119q0 74 54 124t126 50z" />
    <glyph glyph-name="uring" unicode="&#x16f;" horiz-adv-x="1232" 
d="M465 -31q-176 -1 -253 103t-44 295l98 555h43l-98 -560q-31 -170 36 -261t220 -91q229 0 444 39l156 873h43l-158 -902q-225 -51 -487 -51zM726 1184q54 0 96 40t42 97t-35 91t-89 34t-96 -41t-42 -97t35 -90t89 -34zM744 1483q72 0 116 -43t43 -117q0 -74 -55 -126
t-126 -52t-115 44t-44 119t54 125q55 50 127 50z" />
    <glyph glyph-name="Uhungarumlaut" unicode="&#x170;" horiz-adv-x="1568" 
d="M696 -31q-256 0 -386 153t-85 402l154 869h45l-154 -869q-41 -231 78 -372q120 -142 354 -142t406 142t211 372l154 869h45l-154 -869q-45 -250 -228 -402q-184 -152 -440 -153zM1405 1843l-264 -327h-45l247 327h62zM1159 1843l-264 -327h-45l248 327h61z" />
    <glyph glyph-name="uhungarumlaut" unicode="&#x171;" horiz-adv-x="1232" 
d="M465 -31q-176 -1 -253 103t-44 295l98 555h43l-98 -560q-31 -170 36 -261t220 -91q229 0 444 39l156 873h43l-158 -902q-225 -51 -487 -51zM870 1167h-45l248 328h62zM625 1167h-45l247 328h62z" />
    <glyph glyph-name="Uogonek" unicode="&#x172;" horiz-adv-x="1568" 
d="M752 -389q25 0 57 4v-43q-27 -6 -68 -6q-104 0 -159 55t-41 143q20 121 176 205h-21q-256 0 -386 153t-85 402l154 869h45l-154 -869q-41 -231 78 -372q120 -142 354 -142t406 142t211 372l154 869h45l-154 -869q-39 -219 -186 -364t-363 -180q-99 -44 -157 -94t-71 -122
t31 -112t134 -41z" />
    <glyph glyph-name="uogonek" unicode="&#x173;" horiz-adv-x="1232" 
d="M872 -354q25 0 58 4v-43q-27 -6 -68 -6q-104 0 -160 55q-56 54 -38 154t157 186q-166 -27 -349 -27q-183 -1 -260 103t-44 295l98 555h43l-98 -560q-31 -170 36 -261t220 -91q229 0 444 39l156 873h43l-158 -902q-104 -47 -168 -96t-76 -123q-12 -75 32 -115t132 -40z
" />
    <glyph glyph-name="Wcircumflex" unicode="&#x174;" horiz-adv-x="2158" 
d="M1485 0h-45l-205 1327l-680 -1327h-45l-244 1393h49l228 -1323l674 1323h53l205 -1321l696 1321h49zM1315 1794l-297 -278h-51l329 327h52l215 -327h-52z" />
    <glyph glyph-name="wcircumflex" unicode="&#x175;" horiz-adv-x="1695" 
d="M1118 0h-47l-153 852l-459 -852h-47l-207 922h47l194 -854l459 854h47l154 -854l500 854h47zM1022 1446l-297 -279h-51l330 328h51l215 -328h-51z" />
    <glyph glyph-name="Ycircumflex" unicode="&#x176;" horiz-adv-x="1351" 
d="M666 526l-441 867h54l415 -822l705 822h55l-743 -867l-95 -526h-45zM911 1794l-297 -278h-51l330 327h51l215 -327h-51z" />
    <glyph glyph-name="ycircumflex" unicode="&#x177;" horiz-adv-x="1212" 
d="M1204 922l-979 -1373h-51l369 519l-369 854h49l350 -811l580 811h51zM463 1167h-51l329 328h52l215 -328h-52l-196 279z" />
    <glyph glyph-name="Ydieresis" unicode="&#x178;" horiz-adv-x="1351" 
d="M666 526l-441 867h54l415 -822l705 822h55l-743 -867l-95 -526h-45zM1092 1632q-20 0 -34 14t-14 33t14 33t34 14t33 -13t13 -33t-12 -34q-14 -14 -34 -14zM670 1632q-20 0 -34 14t-13 33q0 19 13 33q14 14 34 14t33 -13t13 -33t-12 -34q-14 -14 -34 -14z" />
    <glyph glyph-name="Zacute" unicode="&#x179;" horiz-adv-x="1341" 
d="M1335 1358l-1192 -1317h961l-8 -41h-1024l6 35l1196 1317h-942l6 41h1003zM1149 1843l-264 -327h-45l247 327h62z" />
    <glyph glyph-name="zacute" unicode="&#x17a;" horiz-adv-x="1001" 
d="M954 887l-845 -846h696l-8 -41h-756l6 35l844 846h-666l8 41h728zM881 1516l-265 -328h-45l248 328h62z" />
    <glyph glyph-name="Zdotaccent" unicode="&#x17b;" horiz-adv-x="1341" 
d="M1335 1358l-1192 -1317h961l-8 -41h-1024l6 35l1196 1317h-942l6 41h1003zM887 1632q-19 0 -33 14t-14 33t13 33t33 14t34 -13t14 -33t-14 -34t-33 -14z" />
    <glyph glyph-name="zdotaccent" unicode="&#x17c;" horiz-adv-x="1001" 
d="M954 887l-845 -846h696l-8 -41h-756l6 35l844 846h-666l8 41h728zM645 1241q-20 0 -34 13q-13 14 -13 34t13 34t33 13q20 0 34 -13q14 -14 14 -34t-13 -34q-14 -13 -34 -13z" />
    <glyph glyph-name="Zcaron" unicode="&#x17d;" horiz-adv-x="1341" 
d="M1335 1358l-1192 -1317h961l-8 -41h-1024l6 35l1196 1317h-942l6 41h1003zM883 1516h-52l-215 327h56l190 -289l295 289h55z" />
    <glyph glyph-name="zcaron" unicode="&#x17e;" horiz-adv-x="1001" 
d="M954 887l-845 -846h696l-8 -41h-756l6 35l844 846h-666l8 41h728zM651 1167h-51l-215 328h55l191 -289l295 289h55z" />
    <glyph glyph-name="florin" unicode="&#x192;" horiz-adv-x="1091" 
d="M1024 1423q70 0 160 -24l-17 -37q-86 20 -151 20q-123 0 -180 -63t-111 -236l-88 -284h422l-8 -41h-426l-138 -449q-61 -197 -129 -269t-213 -71q-72 0 -159 25l16 37q86 -20 152 -21q123 0 180 64t110 235l138 449h-279l8 41h283l88 284q59 195 128 267t214 73z" />
    <glyph glyph-name="Acaron" unicode="&#x1cd;" horiz-adv-x="1517" 
d="M918 1352l-574 -914h821zM317 395l-247 -395h-54l881 1403h51l385 -1403h-49l-106 395h-861zM971 1516h-51l-215 327h55l190 -289l295 289h55z" />
    <glyph glyph-name="acaron" unicode="&#x1ce;" horiz-adv-x="1239" 
d="M668 911q-209 0 -354 -149q-144 -150 -144 -383q0 -168 95 -268q95 -101 266 -101t413 127l129 735q-196 39 -405 39zM123 375q-1 253 161 415t396 162t440 -51l-157 -901h-43l16 94q-230 -125 -416 -125t-292 111q-105 111 -105 295zM795 1167h-52l-215 328h56l190 -289
l295 289h55z" />
    <glyph glyph-name="Scommaaccent" unicode="&#x218;" horiz-adv-x="1402" 
d="M582 -166q20 0 33 -13t13 -27v-19q-1 -6 -3 -17t-7 -26q-6 -14 -14 -34t-15 -38t-21 -52t-25 -67h-39l67 203q-37 6 -36 43q0 19 13 33q14 14 34 14zM385 1006q0 -94 71 -148q70 -54 200 -82q321 -73 401 -121q106 -66 131 -137q16 -45 16 -102q0 -201 -158 -324
t-397 -123q-291 0 -553 117l25 39q264 -115 536 -115q215 0 358 111q142 111 142 283t-187 242q-77 30 -161 49q-84 20 -88 21t-11 2t-14 3q-198 43 -278 104t-80 170q0 195 147 312t386 117t456 -76l-18 -39q-227 73 -443 73t-348 -103q-133 -103 -133 -273z" />
    <glyph glyph-name="scommaaccent" unicode="&#x219;" horiz-adv-x="1044" 
d="M330 -213q0 19 13 33t33 14t34 -13t14 -27t-1 -19q-1 -7 -2 -13t-6 -23t-15 -39q-9 -21 -26 -65t-36 -94h-39l68 203q-37 6 -37 43zM819 254q0 72 -48 106q-28 20 -52 36t-93 35t-162 43t-160 70t-66 134q0 123 103 199q103 75 276 75t325 -59l-20 -39q-154 57 -310 57
t-243 -62q-88 -62 -88 -169q0 -68 53 -106q52 -38 148 -61q249 -60 316 -115q66 -55 64 -134q0 -135 -108 -215q-108 -79 -296 -79q-187 0 -384 100l22 39q193 -99 362 -99t265 68t96 176z" />
    <glyph glyph-name="uni021A" unicode="&#x21a;" horiz-adv-x="1355" 
d="M506 -213q0 19 13 33t33 14t34 -13t14 -27t-1 -19q-1 -7 -2 -13t-6 -23t-15 -39q-9 -21 -26 -65t-36 -94h-39l68 203q-37 6 -37 43zM860 1352l-239 -1352h-48l240 1352h-594l6 41h1233l-6 -41h-592z" />
    <glyph glyph-name="uni021B" unicode="&#x21b;" horiz-adv-x="845" 
d="M285 -213q0 19 13 33q14 14 34 14t34 -13t13 -27q0 -14 -1 -19q-1 -7 -2 -13t-6 -23t-15 -39q-9 -22 -16 -40t-21 -52t-25 -67h-39l68 203q-37 6 -37 43zM483 -31q-151 0 -203 79t-20 263l100 570h-225l8 41h226l75 430h43l-75 -430h356l-8 -41h-357l-100 -574
q-29 -161 12 -229t170 -68q68 1 160 21l8 -37q-100 -25 -170 -25z" />
    <glyph glyph-name="circumflex" unicode="&#x2c6;" 
d="M788 1446l-296 -279h-52l330 328h51l215 -328h-51z" />
    <glyph glyph-name="caron" unicode="&#x2c7;" 
d="M723 1167h-51l-215 328h55l190 -289l295 289h56z" />
    <glyph glyph-name="breve" unicode="&#x2d8;" 
d="M723 1169q-125 0 -187 76t-40 199h41q-17 -106 35 -171t158 -65t184 65t96 171h39q-23 -123 -112 -199t-214 -76z" />
    <glyph glyph-name="dotaccent" unicode="&#x2d9;" 
d="M737 1241q-20 0 -34 13q-13 14 -13 34t13 34t33 13q20 0 34 -13q14 -14 14 -34t-13 -34q-14 -13 -34 -13z" />
    <glyph glyph-name="ring" unicode="&#x2da;" 
d="M751 1184q54 0 96 40t42 97t-35 91t-89 34t-96 -41t-42 -97t35 -90t89 -34zM768 1483q72 0 116 -43t44 -117t-56 -126t-126 -52t-114 44t-44 119t54 125t126 50z" />
    <glyph glyph-name="ogonek" unicode="&#x2db;" 
d="M575 -389q25 0 58 4v-43q-29 -6 -68 -6q-104 0 -159 55t-40 150t111 158q56 38 164 89l14 -32q-103 -46 -167 -96t-77 -124t31 -114t133 -41z" />
    <glyph glyph-name="tilde" unicode="&#x2dc;" 
d="M977 1354h45q-12 -70 -61 -108t-99 -33t-88 28l-108 86q-25 19 -62 21t-72 -25t-45 -78h-43q12 70 62 107q50 36 99 32q50 -4 87 -26l109 -86q35 -34 99 -14t77 96z" />
    <glyph glyph-name="hungarumlaut" unicode="&#x2dd;" 
d="M889 1167h-45l248 328h61zM643 1167h-45l248 328h61z" />
    <glyph glyph-name="commaaccentcomb" unicode="&#x326;" horiz-adv-x="0" 
d="M432 -274q0 20 13 33t33 13t34 -12q14 -14 14 -27t-1 -19q-6 -40 -26 -87t-33 -81t-26 -66h-39l68 203q-37 6 -37 43z" />
    <glyph glyph-name="Wgrave" unicode="&#x1e80;" horiz-adv-x="2158" 
d="M1485 0h-45l-205 1327l-680 -1327h-45l-244 1393h49l228 -1323l674 1323h53l205 -1321l696 1321h49zM1284 1516h-45l-149 327h61z" />
    <glyph glyph-name="wgrave" unicode="&#x1e81;" horiz-adv-x="1695" 
d="M1118 0h-47l-153 852l-459 -852h-47l-207 922h47l194 -854l459 854h47l154 -854l500 854h47zM934 1188h-45l-150 328h62z" />
    <glyph glyph-name="Wacute" unicode="&#x1e82;" horiz-adv-x="2158" 
d="M1485 0h-45l-205 1327l-680 -1327h-45l-244 1393h49l228 -1323l674 1323h53l205 -1321l696 1321h49zM1556 1843l-264 -327h-45l248 327h61z" />
    <glyph glyph-name="wacute" unicode="&#x1e83;" horiz-adv-x="1695" 
d="M1118 0h-47l-153 852l-459 -852h-47l-207 922h47l194 -854l459 854h47l154 -854l500 854h47zM1247 1516l-264 -328h-45l248 328h61z" />
    <glyph glyph-name="Wdieresis" unicode="&#x1e84;" horiz-adv-x="2158" 
d="M1485 0h-45l-205 1327l-680 -1327h-45l-244 1393h49l228 -1323l674 1323h53l205 -1321l696 1321h49zM1495 1632q-19 0 -33 14t-14 33t13 33t33 14t34 -13t14 -33t-14 -34t-33 -14zM1073 1632q-19 0 -33 14t-14 33t13 33t33 14t34 -13t14 -33t-14 -34t-33 -14z" />
    <glyph glyph-name="wdieresis" unicode="&#x1e85;" horiz-adv-x="1695" 
d="M1118 0h-47l-153 852l-459 -852h-47l-207 922h47l194 -854l459 854h47l154 -854l500 854h47zM1202 1335q20 0 34 -13q14 -14 13 -34q0 -20 -13 -34q-14 -14 -34 -13q-20 0 -34 13q-13 14 -13 34t13 34q14 13 34 13zM780 1335q20 0 34 -13q14 -14 13 -34q0 -20 -13 -34
q-14 -14 -34 -13q-20 0 -34 13q-13 14 -13 34t13 34q14 13 34 13z" />
    <glyph glyph-name="Ygrave" unicode="&#x1ef2;" horiz-adv-x="1351" 
d="M666 526l-441 867h54l415 -822l705 822h55l-743 -867l-95 -526h-45zM881 1516h-45l-150 327h62z" />
    <glyph glyph-name="ygrave" unicode="&#x1ef3;" horiz-adv-x="1212" 
d="M1204 922l-979 -1373h-51l369 519l-369 854h49l350 -811l580 811h51zM729 1188l-149 328h61l133 -328h-45z" />
    <glyph glyph-name="uni2009" unicode="&#x2009;" horiz-adv-x="368" 
 />
    <glyph glyph-name="endash" unicode="&#x2013;" horiz-adv-x="1345" 
d="M1198 553h-1018l8 43h1018z" />
    <glyph glyph-name="emdash" unicode="&#x2014;" horiz-adv-x="1781" 
d="M1634 553h-1454l8 43h1454z" />
    <glyph glyph-name="quoteleft" unicode="&#x2018;" horiz-adv-x="487" 
d="M315 1215q0 11 123 341h37l-102 -317q37 -6 37 -41q0 -20 -14 -34t-34 -13q-20 0 -33 13q-13 12 -13 26t-1 25z" />
    <glyph glyph-name="quoteright" unicode="&#x2019;" horiz-adv-x="487" 
d="M369 1499q0 19 13 33q14 14 34 14t34 -13t13 -27v-17q0 -7 -4 -19t-6 -20l-9 -24t-12 -31q-6 -16 -15 -44t-19 -56q-10 -27 -26 -69q-15 -42 -32 -85h-37l103 317q-37 6 -37 41z" />
    <glyph glyph-name="quotesinglbase" unicode="&#x201a;" horiz-adv-x="487" 
d="M158 78q20 0 34 -14t13 -30q0 -18 -1 -23t-4 -13t-5 -16l-9 -24l-12 -32t-15 -44t-19 -56t-26 -69q-15 -42 -32 -85h-37l102 318q-37 6 -36 41q0 19 13 33q14 14 34 14z" />
    <glyph glyph-name="quotedblleft" unicode="&#x201c;" horiz-adv-x="763" 
d="M686 1196q0 -20 -13 -34t-33 -13q-20 0 -35 13q-13 12 -13 26v18q0 8 4 20t7 23q3 12 15 40q11 27 23 65q20 63 74 200h37l-103 -317q37 -6 37 -41zM315 1213q0 11 123 341h37l-102 -317q37 -6 37 -41q0 -20 -14 -34t-34 -13q-20 0 -33 13q-13 12 -13 26t-1 25z" />
    <glyph glyph-name="quotedblright" unicode="&#x201d;" horiz-adv-x="763" 
d="M696 1567q20 1 34 -13t13 -27v-26q0 -13 -122 -340h-37l102 318q-37 6 -37 41q-1 20 13 34t34 13zM420 1567q20 1 34 -13t13 -27v-18q0 -9 -4 -19q-4 -11 -6 -20t-15 -40q-12 -31 -21 -59q-9 -27 -19 -55t-26 -70q-15 -42 -32 -85h-37l103 318q-37 6 -37 41q-1 20 13 34
t34 13z" />
    <glyph glyph-name="quotedblbase" unicode="&#x201e;" horiz-adv-x="774" 
d="M444 78q48 0 48 -64q0 -11 -123 -342h-37l102 318q-37 6 -37 41q-1 19 13 33t34 14zM158 78q20 0 34 -14t13 -30q0 -18 -1 -23t-4 -13t-5 -16l-9 -24l-12 -32t-15 -44t-19 -56t-26 -69q-15 -42 -32 -85h-37l102 318q-37 6 -36 41q0 19 13 33q14 14 34 14z" />
    <glyph glyph-name="dagger" unicode="&#x2020;" horiz-adv-x="827" 
d="M561 1180l-80 -455h-43l80 455h-268l8 43h268l47 268h43l-47 -268h271l-9 -43h-270z" />
    <glyph glyph-name="daggerdbl" unicode="&#x2021;" horiz-adv-x="827" 
d="M532 1018h271l-8 -43h-271l-43 -250h-43l43 250h-268l8 43h268l35 203h-268l8 43h268l41 227h43l-41 -227h271l-8 -43h-271z" />
    <glyph glyph-name="bullet" unicode="&#x2022;" horiz-adv-x="614" 
d="M333 412q-83 0 -140 56t-58 140t57 140t141 57q83 0 140 -56q57 -57 57 -141t-57 -140t-140 -56z" />
    <glyph glyph-name="ellipsis" unicode="&#x2026;" horiz-adv-x="1337" 
d="M1010 -16q-20 0 -34 13q-13 13 -13 33t13 34q14 14 34 14t33 -13t13 -33t-12 -34q-14 -14 -34 -14zM588 -16q-20 0 -34 13q-13 13 -13 33t13 34q14 14 34 14t34 -13t13 -33q0 -20 -13 -35q-14 -13 -34 -13zM176 -16q-20 0 -34 13q-13 13 -13 33t13 34q14 14 34 14t34 -13
t13 -33q0 -20 -13 -35q-14 -13 -34 -13z" />
    <glyph glyph-name="perthousand" unicode="&#x2030;" horiz-adv-x="3094" 
d="M2566 680q-158 0 -270 -112t-113 -279q0 -123 73 -199t191 -76q154 0 269 112t114 277q0 123 -73 200q-74 77 -191 77zM1686 680q-156 0 -270 -112t-113 -279q1 -123 73 -199t191 -76q155 0 269 112t114 277q0 123 -74 200t-190 77zM2572 723q135 0 218 -86t83 -225
q0 -190 -128 -316t-306 -127q-137 0 -220 85t-83 227q0 190 129 316t307 126zM1692 723q135 0 218 -86t83 -225q0 -190 -128 -316t-306 -127q-135 0 -219 85q-83 85 -83 227q0 190 128 316q129 126 307 126zM729 1380q-155 0 -269 -112t-114 -279q0 -123 74 -199t192 -75
q156 1 269 111t112 278q0 125 -72 201q-73 75 -192 75zM588 0h-53l1155 1393h53zM737 1423q137 0 220 -86t83 -225q0 -190 -129 -316t-307 -126q-135 0 -218 85t-83 226q0 190 128 316t306 126z" />
    <glyph glyph-name="guilsinglleft" unicode="&#x2039;" horiz-adv-x="694" 
d="M475 147l-33 -28l-311 385l447 385l26 -33l-405 -356z" />
    <glyph glyph-name="guilsinglright" unicode="&#x203a;" horiz-adv-x="692" 
d="M217 860l33 29l311 -385l-446 -385l-27 33l406 356z" />
    <glyph glyph-name="fraction" unicode="&#x2044;" horiz-adv-x="835" 
d="M-133 0h-53l1155 1393h53z" />
    <glyph glyph-name="zerosuperior" unicode="&#x2070;" horiz-adv-x="933" 
d="M508 682q162 0 272 117t111 293q0 128 -71 204t-189 76q-162 0 -272 -117t-109 -292q0 -127 68 -204t190 -77zM637 1409q137 0 216 -85t79 -224q0 -197 -123 -326t-307 -129q-137 0 -216 85t-79 226q0 197 123 325t307 128z" />
    <glyph glyph-name="foursuperior" unicode="&#x2074;" horiz-adv-x="811" 
d="M219 870h426l84 467zM686 870h121l-6 -36h-121l-31 -172h-41l31 172h-485l6 28l577 531h41z" />
    <glyph glyph-name="fivesuperior" unicode="&#x2075;" horiz-adv-x="778" 
d="M735 903q0 -117 -91 -187t-229 -71q-138 0 -265 62l20 32q131 -57 251 -57q119 0 197 59t78 156q0 136 -211 150l-235 12l94 334h453l-9 -37h-415l-74 -260l193 -11q119 -6 181 -53t62 -129z" />
    <glyph glyph-name="sixsuperior" unicode="&#x2076;" horiz-adv-x="794" 
d="M503 1153q-112 0 -187 -61q-75 -60 -94 -168t37 -174q57 -66 161 -66t186 68t101 172q18 104 -37 166t-167 63zM512 1196q122 0 190 -78t46 -200t-114 -196q-93 -75 -216 -75t-191 77q-67 76 -49 184t88 188l264 297h52l-191 -219q55 22 121 22z" />
    <glyph glyph-name="sevensuperior" unicode="&#x2077;" horiz-adv-x="638" 
d="M754 1366l-494 -704h-49l485 692h-491l6 39h547z" />
    <glyph glyph-name="eightsuperior" unicode="&#x2078;" horiz-adv-x="765" 
d="M688 872q0 156 -221 156q-107 0 -185 -52t-77 -130q-1 -78 57 -121t164 -43t184 57t78 133zM313 1206q0 -142 178 -143q88 0 152 50q63 49 63 119t-44 106q-45 36 -134 36t-152 -49t-63 -119zM729 887q0 -104 -91 -173t-217 -69t-193 51q-66 51 -66 133q0 83 57 139
t156 81q-105 37 -105 139t77 162t183 59q106 0 164 -44t58 -116q0 -71 -45 -123t-123 -77q70 -15 108 -59t37 -103z" />
    <glyph glyph-name="ninesuperior" unicode="&#x2079;" horiz-adv-x="794" 
d="M669 982q79 67 96 169t-39 168q-56 65 -160 65t-186 -68q-81 -68 -99 -171q-18 -104 36 -167q55 -62 164 -62t188 66zM568 1421q124 -1 192 -77t50 -182t-89 -189l-246 -297h-51l180 221q-68 -25 -131 -25q-123 0 -189 78t-46 199t113 197t217 75z" />
    <glyph glyph-name="zeroinferior" unicode="&#x2080;" horiz-adv-x="933" 
d="M324 -348q162 0 272 117t111 292q0 127 -71 204t-190 77q-162 0 -272 -117t-108 -293q0 -128 68 -204t190 -76zM453 379q137 0 216 -85t79 -224q0 -197 -123 -326t-308 -129q-137 0 -216 85t-78 226q0 197 122 325q124 128 308 128z" />
    <glyph glyph-name="oneinferior" unicode="&#x2081;" horiz-adv-x="552" 
d="M403 -332l-8 -37h-487l8 37h215l115 645l-213 -63l-4 35l250 77h14l-123 -694h233z" />
    <glyph glyph-name="twoinferior" unicode="&#x2082;" horiz-adv-x="724" 
d="M516 198q0 62 -50 102t-152 40t-234 -64l-10 33q128 70 246 70t180 -51q62 -52 61 -124q0 -121 -126 -232q-44 -38 -134 -105l-266 -199h454l-6 -37h-524l4 27l317 238q80 57 124 94t80 91q36 55 36 117z" />
    <glyph glyph-name="threeinferior" unicode="&#x2083;" horiz-adv-x="724" 
d="M260 33q258 0 258 -170q0 -104 -97 -176t-233 -72t-256 61l21 33q125 -57 241 -57t200 59t83 146q0 139 -225 139h-86l4 20l344 310h-428l8 36h490l-6 -28l-336 -301h18z" />
    <glyph glyph-name="fourinferior" unicode="&#x2084;" horiz-adv-x="811" 
d="M35 -160h426l84 467zM502 -160h121l-7 -37h-120l-31 -172h-41l31 172h-486l6 29l578 530h41z" />
    <glyph glyph-name="fiveinferior" unicode="&#x2085;" horiz-adv-x="778" 
d="M565 -127q0 -117 -91 -187t-229 -71q-138 0 -265 61l20 33q131 -57 251 -57t198 59t77 156q0 67 -54 105t-157 44l-235 13l94 333h453l-9 -36h-415l-74 -260l193 -11q119 -6 181 -53t62 -129z" />
    <glyph glyph-name="sixinferior" unicode="&#x2086;" horiz-adv-x="794" 
d="M543 -106q18 104 -37 166t-167 62q-113 0 -187 -60q-74 -62 -94 -170t37 -173t161 -65t186 68t101 172zM348 166q123 0 191 -78t46 -200t-115 -196t-216 -75q-123 0 -191 77q-67 76 -49 184t88 188l265 296h51l-191 -219q55 23 121 23z" />
    <glyph glyph-name="seveninferior" unicode="&#x2087;" horiz-adv-x="638" 
d="M569 336l-493 -705h-49l485 693h-492l7 38h546z" />
    <glyph glyph-name="eightinferior" unicode="&#x2088;" horiz-adv-x="765" 
d="M514 -158q0 156 -221 156q-107 0 -185 -52t-77 -130q-1 -78 57 -121t164 -43t184 57t78 133zM532 202q0 142 -179 142q-89 0 -151 -49t-63 -119q0 -142 178 -143q88 0 152 50q63 49 63 119zM555 -143q0 -104 -91 -173q-92 -69 -218 -69t-192 51t-66 133q0 83 57 139
t156 80q-105 38 -105 140t77 161t183 59t164 -43q58 -44 58 -116t-45 -124t-123 -77q70 -16 108 -59t37 -102z" />
    <glyph glyph-name="nineinferior" unicode="&#x2089;" horiz-adv-x="794" 
d="M382 340q-104 0 -186 -68t-100 -172t37 -166t164 -63q109 1 188 67t96 168t-39 168t-160 66zM384 377q124 0 192 -77q68 -76 49 -182q-18 -106 -88 -190l-246 -297h-51l180 222q-68 -25 -131 -25q-123 0 -190 78t-47 198t114 197q94 76 218 76z" />
    <glyph glyph-name="Euro" unicode="&#x20ac;" horiz-adv-x="1652" 
d="M1219 1423q227 0 432 -75l-17 -37q-209 72 -422 71q-274 0 -474 -142t-287 -388h763l-16 -41h-762q-39 -142 -41 -266h688l-18 -41h-670q13 -230 159 -362t388 -132t524 86l4 -37q-284 -90 -542 -90q-258 -1 -414 143t-166 392h-194l8 41h184q7 142 43 266h-180l6 41h186
q91 264 307 418t511 153z" />
    <glyph glyph-name="uni2116" unicode="&#x2116;" horiz-adv-x="2824" 
d="M1581 45h930l-8 -45h-930zM2111 297q219 0 375 152t156 372q0 173 -101 275t-278 102q-219 0 -375 -148t-155 -372q0 -174 101 -278t277 -103zM2269 1239q193 0 307 -111t113 -301q0 -243 -172 -407t-414 -164q-193 0 -305 113t-112 303q0 242 170 404t413 163z
M1528 1393l-246 -1393h-51l-799 1335l-235 -1335h-45l245 1393h49l801 -1336l236 1336h45z" />
    <glyph glyph-name="uni2117" unicode="&#x2117;" horiz-adv-x="1808" 
d="M1030 1073q-55 0 -211 -8l-74 -418h209q125 -1 208 57q84 58 102 160t-45 156q-64 53 -189 53zM1036 1108q143 0 216 -64t55 -168q-19 -104 -81 -164t-131 -80t-149 -22h-207l-55 -309h-41l141 799q189 8 252 8zM1651 696q0 290 -203 490q-203 198 -501 198t-501 -198
q-202 -198 -202 -490t202 -490t501 -198q298 0 501 199t203 489zM946 1423q318 0 532 -208t214 -519t-213 -519t-533 -208t-532 208q-213 208 -213 519t213 519t532 208z" />
    <glyph glyph-name="trademark" unicode="&#x2122;" horiz-adv-x="1449" 
d="M1419 1298l-342 -532h-43l-155 532l-125 -532h-45l147 627h45l164 -574l367 574h43l-74 -627h-43zM737 1352h-258l-104 -586h-45l104 586h-256l6 41h559z" />
    <glyph glyph-name="oneeighth" unicode="&#x215b;" horiz-adv-x="1748" 
d="M1266 20q106 0 184 58t78 133q0 76 -58 116t-164 40q-106 -1 -184 -53t-78 -130t58 -121t164 -43zM1546 572q0 142 -179 141q-89 0 -151 -49q-62 -50 -63 -120q0 -144 178 -143q87 1 151 51t64 120zM1569 225q0 -104 -91 -173q-92 -68 -218 -68t-192 51t-67 133t57 138
t156 81q-104 37 -104 139t77 162t183 60t164 -44t57 -116q0 -72 -45 -124t-123 -77q70 -16 108 -59t38 -103zM1499 1393l-1155 -1393h-53l1155 1393h53zM197 662l8 36h215l115 645l-213 -63l-5 35l250 78h15l-123 -695h233l-8 -36h-487z" />
    <glyph glyph-name="threeeighths" unicode="&#x215c;" horiz-adv-x="1890" 
d="M1407 367q-107 -1 -185 -53t-77 -130q-1 -78 57 -121t164 -43t184 58t78 133q0 76 -57 116t-164 40zM1253 544q0 -144 178 -143q87 1 151 51t64 120t-44 105q-45 36 -134 36t-152 -49q-63 -50 -63 -120zM1669 225q0 -104 -91 -173q-91 -68 -217 -68t-193 51
q-66 51 -66 133t57 138t156 81q-105 37 -105 139t77 162t183 60t164 -44t58 -116t-45 -124t-123 -77q70 -16 108 -59t37 -103zM451 0h-54l1155 1393h54zM569 1063q258 0 258 -170q0 -104 -97 -176t-233 -72t-255 62l20 32q125 -57 241 -57q115 0 199 59t84 146
q0 139 -225 139h-86l4 21l344 309h-428l8 37h490l-6 -29l-336 -301h18z" />
    <glyph glyph-name="fiveeighths" unicode="&#x215d;" horiz-adv-x="1923" 
d="M1420 367q-106 -1 -185 -53q-78 -52 -78 -130q-1 -78 57 -121t164 -43t185 58q77 58 77 133q0 76 -57 116t-163 40zM1266 544q0 -144 178 -143q88 1 151 51t63 120t-44 105q-45 36 -134 36q-90 0 -152 -49q-62 -50 -62 -120zM1114 168q0 82 57 138t156 81
q-104 37 -104 139t76 162q77 60 183 60t164 -44t58 -116t-45 -124t-123 -77q70 -16 108 -59t37 -103q0 -104 -91 -173q-91 -68 -217 -68q-127 0 -193 51t-66 133zM440 0h-53l1155 1393h53zM476 645q-138 0 -265 62l20 32q131 -57 251 -57t198 59t78 156q0 67 -54 105
t-157 45l-236 12l95 334h452l-8 -37h-416l-74 -260l193 -11q119 -6 181 -53t63 -129q0 -117 -91 -187q-92 -70 -230 -71z" />
    <glyph glyph-name="seveneighths" unicode="&#x215e;" horiz-adv-x="1849" 
d="M1346 20q106 0 184 58t78 133q0 76 -58 116t-164 40q-106 -1 -184 -53t-78 -130t58 -121t164 -43zM1626 572q0 142 -179 141q-89 0 -151 -49q-62 -50 -63 -120q0 -144 178 -143q87 1 151 51t64 120zM1649 225q0 -104 -91 -173q-92 -68 -218 -68t-192 51t-67 133t57 138
t156 81q-104 37 -104 139t77 162t183 60t164 -44t57 -116q0 -72 -45 -124t-123 -77q70 -16 108 -59t38 -103zM918 1366l-494 -704h-49l485 692h-491l6 39h547zM322 0h-54l1155 1393h54z" />
    <glyph glyph-name="arrowleft" unicode="&#x2190;" horiz-adv-x="1568" 
d="M1507 721v-41h-1317l664 -664l-31 -28l-712 712l712 713l31 -29l-664 -663h1317z" />
    <glyph glyph-name="arrowup" unicode="&#x2191;" horiz-adv-x="1630" 
d="M795 -4v1317l-664 -664l-29 31l713 713l713 -713l-29 -31l-663 664v-1317h-41z" />
    <glyph glyph-name="arrowright" unicode="&#x2192;" horiz-adv-x="1568" 
d="M102 721h1317l-663 663l30 29l713 -713l-713 -712l-30 28l663 664h-1317v41z" />
    <glyph glyph-name="arrowdown" unicode="&#x2193;" horiz-adv-x="1630" 
d="M795 1393h41v-1317l663 663l29 -30l-713 -713l-713 713l29 30l664 -663v1317z" />
    <glyph glyph-name="arrowupleft" unicode="&#x2196;" horiz-adv-x="1671" 
d="M172 1393h1008l2 -41h-938l1325 -1327l-29 -29l-1327 1325v-938l-41 2v1008z" />
    <glyph glyph-name="arrowupright" unicode="&#x2197;" horiz-adv-x="1671" 
d="M1499 1393v-1008l-41 -2v938l-1327 -1325l-29 29l1325 1327h-938l3 41h1007z" />
    <glyph glyph-name="arrowdownright" unicode="&#x2198;" horiz-adv-x="1671" 
d="M1499 0h-1007l-3 41h938l-1325 1327l29 29l1327 -1325v938l41 -2v-1008z" />
    <glyph glyph-name="arrowdownleft" unicode="&#x2199;" horiz-adv-x="1671" 
d="M172 0v1008l41 2v-938l1327 1325l29 -29l-1325 -1327h938l-2 -41h-1008z" />
    <glyph glyph-name="minus" unicode="&#x2212;" horiz-adv-x="1437" 
d="M303 668h905l-8 -43h-905z" />
    <glyph glyph-name="triagup" unicode="&#x25b2;" horiz-adv-x="2154" 
d="M1034 1415l856 -1415h-1706z" />
    <glyph glyph-name="blackuppointingsmalltriangle" unicode="&#x25b4;" horiz-adv-x="983" 
d="M469 956l297 -481h-588z" />
    <glyph glyph-name="uni25B8" unicode="&#x25b8;" horiz-adv-x="968" 
d="M799 717l-482 -297v588z" />
    <glyph glyph-name="triagdn" unicode="&#x25bc;" horiz-adv-x="2152" 
d="M2052 1393l-856 -1416l-850 1416h1706z" />
    <glyph glyph-name="uni25BE" unicode="&#x25be;" horiz-adv-x="983" 
d="M868 879l-297 -482l-290 482h587z" />
    <glyph glyph-name="uni25C2" unicode="&#x25c2;" horiz-adv-x="970" 
d="M737 420l-481 297l481 291v-588z" />
    <glyph glyph-name="R.ss02" horiz-adv-x="1280" 
d="M820 1366q-174 0 -384 -12l-133 -760h361q244 0 396 123t152 338q0 151 -109 231t-283 80zM807 1407q213 0 333 -88t120 -256q0 -238 -167 -374t-438 -136h-223l684 -553h-78l-682 553h-61l-96 -553h-45l245 1393q291 14 408 14z" />
    <glyph glyph-name="Racute.ss02" horiz-adv-x="1280" 
d="M820 1366q-174 0 -384 -12l-133 -760h361q244 0 396 123t152 338q0 151 -109 231t-283 80zM807 1407q213 0 333 -88t120 -256q0 -238 -167 -374t-438 -136h-223l684 -553h-78l-682 553h-61l-96 -553h-45l245 1393q291 14 408 14zM1077 1843l-264 -327h-45l248 327h61z
" />
    <glyph glyph-name="Rcaron.ss02" horiz-adv-x="1280" 
d="M820 1366q-174 0 -384 -12l-133 -760h361q244 0 396 123t152 338q0 151 -109 231t-283 80zM807 1407q213 0 333 -88t120 -256q0 -238 -167 -374t-438 -136h-223l684 -553h-78l-682 553h-61l-96 -553h-45l245 1393q291 14 408 14zM811 1516h-51l-215 327h55l191 -289
l294 289h56z" />
    <glyph glyph-name="Rcommaaccent.ss02" horiz-adv-x="1280" 
d="M473 -213q0 19 13 33q14 14 34 14t34 -13t13 -27q0 -14 -1 -19q-1 -7 -2 -13t-6 -24t-22 -57q-16 -39 -29 -73t-26 -67h-39l68 203q-37 6 -37 43zM820 1366q-174 0 -384 -12l-133 -760h361q244 0 396 123t152 338q0 151 -109 231t-283 80zM807 1407q213 0 333 -88
t120 -256q0 -238 -167 -374t-438 -136h-223l684 -553h-78l-682 553h-61l-96 -553h-45l245 1393q291 14 408 14z" />
    <glyph glyph-name="Q.ss04" horiz-adv-x="1753" 
d="M1323 -305l-6 -49q-268 14 -676 55l4 35zM799 10q348 0 579 228t232 581q0 256 -153 410t-417 153q-366 0 -588 -223t-223 -590q0 -251 157 -405t413 -154zM1049 1423q283 -1 445 -163t163 -435q0 -373 -247 -615t-619 -241q-272 0 -441 165q-168 165 -168 433
q0 385 238 621t629 235z" />
    <glyph glyph-name="i.loclTRK" horiz-adv-x="489" 
d="M348 922l-164 -922h-43l164 922h43zM389 1241q-20 0 -34 13q-13 14 -13 34t13 34t33 13q20 0 34 -13q14 -14 14 -34t-13 -34q-14 -13 -34 -13z" />
    <glyph glyph-name="germandbls.case" horiz-adv-x="2744" 
d="M1991 -31q-291 0 -553 117l24 39q264 -115 537 -115q215 0 357 111t142 283t-187 242q-142 55 -260 72q-7 1 -13 3q-197 43 -278 104t-81 170q-1 195 147 312t387 117t456 -76l-19 -39q-227 73 -442 73t-348 -103t-134 -273q0 -94 71 -148t201 -82q130 -30 232 -56
t154 -57q51 -31 90 -65q70 -62 72 -182q0 -201 -158 -324t-397 -123zM385 1006q0 -94 71 -148q70 -54 200 -82q321 -73 401 -121q106 -66 131 -137q16 -45 16 -102q0 -201 -158 -324t-397 -123q-291 0 -553 117l25 39q264 -115 536 -115q215 0 358 111q142 111 142 283
t-187 242q-77 30 -161 49q-84 20 -88 21t-11 2t-14 3q-198 43 -278 104t-80 170q0 195 147 312t386 117t456 -76l-18 -39q-227 73 -443 73t-348 -103q-133 -103 -133 -273z" />
    <glyph glyph-name="y.ss01" horiz-adv-x="1212" 
d="M398 -455q190 0 330 128t179 339q-203 -43 -442 -43q-176 -1 -253 103t-44 295l98 555h43l-98 -560q-31 -170 36 -261t220 -91q229 0 444 39l156 873h43l-164 -924q-38 -223 -190 -358q-152 -136 -361 -136t-352 80l18 35q147 -74 337 -74z" />
    <glyph glyph-name="yacute.ss01" horiz-adv-x="1212" 
d="M398 -455q190 0 330 128t179 339q-203 -43 -442 -43q-176 -1 -253 103t-44 295l98 555h43l-98 -560q-31 -170 36 -261t220 -91q229 0 444 39l156 873h43l-164 -924q-38 -223 -190 -358q-152 -136 -361 -136t-352 80l18 35q147 -74 337 -74zM1004 1516l-265 -328h-45
l248 328h62z" />
    <glyph glyph-name="ycircumflex.ss01" horiz-adv-x="1212" 
d="M398 -455q190 0 330 128t179 339q-203 -43 -442 -43q-176 -1 -253 103t-44 295l98 555h43l-98 -560q-31 -170 36 -261t220 -91q229 0 444 39l156 873h43l-164 -924q-38 -223 -190 -358q-152 -136 -361 -136t-352 80l18 35q147 -74 337 -74zM799 1446l-297 -279h-51
l329 328h51l216 -328h-52z" />
    <glyph glyph-name="ydieresis.ss01" horiz-adv-x="1212" 
d="M398 -455q190 0 330 128t179 339q-203 -43 -442 -43q-176 -1 -253 103t-44 295l98 555h43l-98 -560q-31 -170 36 -261t220 -91q229 0 444 39l156 873h43l-164 -924q-38 -223 -190 -358q-152 -136 -361 -136t-352 80l18 35q147 -74 337 -74zM979 1335q19 0 33 -13
q14 -14 14 -34t-13 -34t-33 -13q-20 0 -35 13q-13 14 -13 34t13 34q14 13 34 13zM557 1335q19 0 33 -13q14 -14 14 -34t-13 -34t-33 -13q-20 0 -35 13q-13 14 -13 34t13 34q14 13 34 13z" />
    <glyph glyph-name="ygrave.ss01" horiz-adv-x="1212" 
d="M398 -455q190 0 330 128t179 339q-203 -43 -442 -43q-176 -1 -253 103t-44 295l98 555h43l-98 -560q-31 -170 36 -261t220 -91q229 0 444 39l156 873h43l-164 -924q-38 -223 -190 -358q-152 -136 -361 -136t-352 80l18 35q147 -74 337 -74zM813 1188h-45l-150 328h62z
" />
    <glyph glyph-name="a.ss03" horiz-adv-x="1132" 
d="M427 10q181 0 402 39l82 461l-395 -16q-363 -17 -405 -247q-21 -117 57 -177t259 -60zM672 952q182 0 257 -84t42 -272l-101 -576q-231 -51 -440 -51t-299 72t-65 208q50 270 452 286l402 16l8 49q32 168 -32 240t-238 72t-365 -31l-2 39q199 32 381 32z" />
    <glyph glyph-name="aacute.ss03" horiz-adv-x="1132" 
d="M427 10q181 0 402 39l82 461l-395 -16q-363 -17 -405 -247q-21 -117 57 -177t259 -60zM672 952q182 0 257 -84t42 -272l-101 -576q-231 -51 -440 -51t-299 72t-65 208q50 270 452 286l402 16l8 49q32 168 -32 240t-238 72t-365 -31l-2 39q199 32 381 32zM950 1516
l-264 -328h-45l248 328h61z" />
    <glyph glyph-name="abreve.ss03" horiz-adv-x="1132" 
d="M427 10q181 0 402 39l82 461l-395 -16q-363 -17 -405 -247q-21 -117 57 -177t259 -60zM672 952q182 0 257 -84t42 -272l-101 -576q-231 -51 -440 -51t-299 72t-65 208q50 270 452 286l402 16l8 49q32 168 -32 240t-238 72t-365 -31l-2 39q199 32 381 32zM696 1169
q-125 0 -187 76t-40 199h41q-18 -106 35 -171t159 -65t184 65q77 65 95 171h39q-23 -123 -112 -199t-214 -76z" />
    <glyph glyph-name="acaron.ss03" horiz-adv-x="1132" 
d="M427 10q181 0 402 39l82 461l-395 -16q-363 -17 -405 -247q-21 -117 57 -177t259 -60zM672 952q182 0 257 -84t42 -272l-101 -576q-231 -51 -440 -51t-299 72t-65 208q50 270 452 286l402 16l8 49q32 168 -32 240t-238 72t-365 -31l-2 39q199 32 381 32zM721 1167h-51
l-215 328h55l190 -289l295 289h56z" />
    <glyph glyph-name="acircumflex.ss03" horiz-adv-x="1132" 
d="M427 10q181 0 402 39l82 461l-395 -16q-363 -17 -405 -247q-21 -117 57 -177t259 -60zM672 952q182 0 257 -84t42 -272l-101 -576q-231 -51 -440 -51t-299 72t-65 208q50 270 452 286l402 16l8 49q32 168 -32 240t-238 72t-365 -31l-2 39q199 32 381 32zM745 1446
l-296 -279h-52l330 328h51l215 -328h-51z" />
    <glyph glyph-name="adieresis.ss03" horiz-adv-x="1132" 
d="M427 10q181 0 402 39l82 461l-395 -16q-363 -17 -405 -247q-21 -117 57 -177t259 -60zM672 952q182 0 257 -84t42 -272l-101 -576q-231 -51 -440 -51t-299 72t-65 208q50 270 452 286l402 16l8 49q32 168 -32 240t-238 72t-365 -31l-2 39q199 32 381 32zM926 1335
q20 0 33 -13q13 -14 13 -34t-12 -34q-14 -14 -34 -13q-20 0 -34 13q-13 14 -13 34t13 34q14 13 34 13zM504 1335q20 0 34 -13q14 -14 13 -34q0 -20 -13 -34q-14 -14 -34 -13q-20 0 -34 13q-13 14 -13 34t13 34q14 13 34 13z" />
    <glyph glyph-name="agrave.ss03" horiz-adv-x="1132" 
d="M427 10q181 0 402 39l82 461l-395 -16q-363 -17 -405 -247q-21 -117 57 -177t259 -60zM672 952q182 0 257 -84t42 -272l-101 -576q-231 -51 -440 -51t-299 72t-65 208q50 270 452 286l402 16l8 49q32 168 -32 240t-238 72t-365 -31l-2 39q199 32 381 32zM760 1188h-45
l-150 328h62z" />
    <glyph glyph-name="amacron.ss03" horiz-adv-x="1132" 
d="M427 10q181 0 402 39l82 461l-395 -16q-363 -17 -405 -247q-21 -117 57 -177t259 -60zM672 952q182 0 257 -84t42 -272l-101 -576q-231 -51 -440 -51t-299 72t-65 208q50 270 452 286l402 16l8 49q32 168 -32 240t-238 72t-365 -31l-2 39q199 32 381 32zM999 1366l-6 -35
h-540l6 35h540z" />
    <glyph glyph-name="aogonek.ss03" horiz-adv-x="1132" 
d="M911 510l-395 -16q-363 -17 -405 -247q-21 -116 57 -176q78 -61 259 -61t402 39zM672 952q182 0 257 -84t42 -272l-101 -576q-104 -47 -168 -96t-76 -123q-12 -75 32 -115t133 -40q25 0 57 4v-43q-29 -6 -68 -6q-104 0 -159 55q-55 54 -38 154t156 186q-152 -27 -335 -27
t-273 72t-65 208q50 270 452 286l402 16l8 49q32 168 -32 240t-238 72t-365 -31l-2 39q199 32 381 32z" />
    <glyph glyph-name="aring.ss03" horiz-adv-x="1132" 
d="M427 10q181 0 402 39l82 461l-395 -16q-363 -17 -405 -247q-21 -117 57 -177t259 -60zM672 952q182 0 257 -84t42 -272l-101 -576q-231 -51 -440 -51t-299 72t-65 208q50 270 452 286l402 16l8 49q32 168 -32 240t-238 72t-365 -31l-2 39q199 32 381 32zM681 1184
q54 0 96 40t42 97t-35 91t-89 34t-96 -41t-42 -97t35 -90t89 -34zM699 1483q71 0 115 -43t44 -117t-55 -126t-126 -52t-115 44t-44 119t54 125q55 50 127 50z" />
    <glyph glyph-name="atilde.ss03" horiz-adv-x="1132" 
d="M427 10q181 0 402 39l82 461l-395 -16q-363 -17 -405 -247q-21 -117 57 -177t259 -60zM672 952q182 0 257 -84t42 -272l-101 -576q-231 -51 -440 -51t-299 72t-65 208q50 270 452 286l402 16l8 49q32 168 -32 240t-238 72t-365 -31l-2 39q199 32 381 32zM961 1354h45
q-12 -70 -62 -108t-99 -33q-50 5 -87 28l-109 86q-25 19 -61 21t-72 -25q-35 -27 -45 -78h-43q12 70 61 107q49 36 99 32t88 -26l108 -86q35 -34 99 -14t78 96z" />
    <glyph glyph-name="f_b" horiz-adv-x="1945" 
d="M1262 10q218 0 364 153q145 153 146 386q0 166 -96 264t-261 98q-209 0 -405 -57l-142 -805q176 -39 394 -39zM1406 952q202 0 308 -108q106 -109 107 -291q0 -252 -163 -418t-409 -166q-155 -1 -243 13t-187 38l252 1422q-105 63 -255 63t-252 -88t-130 -252l-43 -243
h404l-9 -41h-403l-154 -881h-43l154 881h-260l8 41h260l43 243q33 185 148 283t303 98q125 0 248 -67l30 -2l-102 -582q186 57 388 57z" />
    <glyph glyph-name="f_f_b" horiz-adv-x="2619" 
d="M2066 911q-188 0 -387 -57l-141 -805q176 -39 394 -39t366 153q147 153 147 380q0 168 -96 268q-95 100 -283 100zM835 1505q-175 0 -273 -87t-130 -273l-41 -223h629l43 243q25 133 90 224q-143 116 -318 116zM1513 1546q127 0 250 -67l27 -2l-102 -582q186 57 388 57
t310 -112q109 -112 108 -293q0 -246 -166 -412t-409 -166q-155 -1 -243 13t-187 38l252 1424q-106 61 -254 61t-250 -88t-131 -252l-43 -243h403l-6 -41h-403l-156 -881h-43l156 881h-629l-156 -881h-43l156 881h-260l6 41h260l41 223q68 401 438 401q183 0 357 -123
q112 123 329 123z" />
    <glyph glyph-name="f_f_f" horiz-adv-x="2056" 
d="M1502 1505q-173 0 -270 -87t-130 -273l-39 -223h629l57 325q16 88 59 154q-133 104 -306 104zM833 1505q-175 0 -273 -87t-130 -273l-39 -223h629l39 223q29 152 92 244q-143 116 -318 116zM826 1546q182 0 354 -121q109 121 333 121q162 0 322 -110q98 111 248 110
q70 0 162 -24l-19 -37q-86 20 -151 20q-109 -1 -186 -71t-97 -187l-57 -325h383l-9 -41h-383l-153 -881h-43l153 881h-628l-154 -881h-43l154 881h-629l-154 -881h-43l154 881h-260l8 41h260l39 223q73 401 439 401z" />
    <glyph glyph-name="f_f_h" horiz-adv-x="2596" 
d="M1020 922l43 243q20 131 88 224q-143 117 -318 117t-273 -88q-98 -87 -130 -273l-39 -223h629zM2134 952q176 0 252 -102t43 -293l-98 -557h-43l98 557q31 170 -36 262t-220 92q-248 0 -449 -57l-151 -854h-43l254 1442q-106 63 -255 63t-250 -88t-130 -252l-43 -243h403
l-8 -41h-403l-156 -881h-43l156 881h-629l-156 -881h-43l156 881h-260l8 41h260l39 223q35 205 144 303t293 98t358 -123q117 123 329 123q127 0 250 -67l29 -2l-102 -582q194 57 446 57z" />
    <glyph glyph-name="f_f_j" horiz-adv-x="1810" 
d="M1020 922l39 223q29 152 92 244q-143 117 -317 117t-272 -88q-98 -87 -130 -273l-41 -223h629zM1493 1546q137 0 264 -57l-20 -35q-113 51 -263 51q-305 0 -370 -360l-41 -223h651l-184 -1045q-33 -184 -111 -262t-229 -78l8 41q129 0 196 69t95 230l176 1004h-608
l-156 -881h-43l156 881h-629l-156 -881h-43l156 881h-260l6 41h260l41 223q68 401 438 401q183 0 353 -121q109 121 313 121z" />
    <glyph glyph-name="f_f_k" horiz-adv-x="2502" 
d="M1020 922l43 243q25 133 90 224q-143 117 -318 117t-273 -88q-98 -87 -132 -273l-39 -223h629zM1488 1505q-149 0 -251 -88t-131 -252l-43 -243h403l-6 -41h-403l-156 -881h-43l156 881h-629l-156 -881h-43l156 881h-260l6 41h260l39 223q72 401 440 401q183 0 355 -123
q117 123 331 123q127 0 250 -67l29 -2l-174 -992h182l533 437h61l-526 -433l465 -489h-68l-422 444h-233l-78 -444h-43l254 1442q-106 63 -255 63z" />
    <glyph glyph-name="f_f_t" horiz-adv-x="2166" 
d="M832 1505q-174 0 -272 -87t-130 -273l-39 -223h629l57 325q14 86 60 152q-131 106 -305 106zM1411 1546q72 0 160 -24l-17 -37q-86 20 -151 20q-109 -1 -185 -71t-98 -187l-57 -325h629l75 430h43l-75 -430h358l-8 -41h-356l-101 -572q-29 -163 13 -231t171 -68
q68 0 160 21l2 -37q-102 -25 -170 -25q-152 0 -202 78t-19 262l103 572h-631l-156 -881h-43l156 881h-629l-156 -881h-43l156 881h-260l8 41h260l39 223q67 401 437 401q182 0 339 -110q98 110 248 110z" />
    <glyph glyph-name="f_h" horiz-adv-x="1945" 
d="M1483 952q176 0 252 -102t43 -293l-99 -557h-43l99 557q31 170 -37 262t-221 92q-246 0 -447 -57l-151 -854h-43l251 1432q-117 74 -269 74t-254 -89q-102 -88 -130 -252l-43 -243h404l-9 -41h-403l-156 -881h-43l156 881h-260l8 41h260l43 243q31 185 146 283t303 98
q125 0 247 -67l52 -2l-103 -582q193 57 447 57z" />
    <glyph glyph-name="f_j" horiz-adv-x="1118" 
d="M821 1546q137 0 264 -57l-20 -35q-113 51 -263 51q-305 0 -370 -360l-41 -223h631l-184 -1045q-33 -184 -111 -262t-229 -78l8 41q128 0 194 69t95 230l178 1004h-588l-156 -881h-43l156 881h-260l6 41h260l41 223q35 205 141 303t291 98z" />
    <glyph glyph-name="f_k" horiz-adv-x="1830" 
d="M816 1505q-148 0 -250 -88t-132 -252l-43 -243h404l-7 -41h-403l-156 -881h-43l156 881h-260l6 41h260l43 243q33 185 148 283t303 98q125 0 248 -67l30 -2l-174 -992h182l533 437h61l-526 -433l465 -489h-64l-421 444h-238l-78 -444h-43l254 1442q-107 63 -255 63z" />
    <glyph glyph-name="f_t" horiz-adv-x="1495" 
d="M1133 -31q-152 0 -202 78t-18 262l101 572h-629l-156 -881h-43l156 881h-260l6 41h260l51 284q33 184 111 262t229 78q70 0 162 -24l-16 -37q-86 20 -152 20q-129 -1 -197 -69t-94 -230l-51 -284h629l76 430h43l-76 -430h356l-6 -41h-356l-101 -572q-28 -163 14 -231
t171 -68q67 1 159 21l3 -37q-98 -25 -170 -25z" />
    <glyph glyph-name="r_f" horiz-adv-x="1394" 
d="M1442 1546q70 0 162 -24l-19 -37q-86 20 -151 20q-109 -1 -186 -71t-97 -187l-57 -325h383l-9 -41h-383l-155 -881h-43l155 881q-537 0 -747 -27l-152 -854h-43l158 885q150 23 289 29t504 8l57 325q23 135 115 217t219 82z" />
    <glyph glyph-name="r_t" horiz-adv-x="1505" 
d="M1169 10q68 0 160 21l4 -37q-100 -25 -170 -25q-153 0 -203 78t-18 262l102 584q-410 0 -749 -33l-152 -860h-43l160 897q248 25 371 31t422 6l73 418h43l-73 -418h356l-8 -41h-357l-102 -584q-29 -163 13 -231t171 -68z" />
    <glyph glyph-name="zero.osf" horiz-adv-x="1363" 
d="M602 16q252 0 427 172t175 433q0 186 -117 301t-305 114q-252 0 -427 -172t-175 -432q0 -186 117 -301t305 -115zM788 1077q207 0 335 -124t128 -326q0 -281 -190 -466t-465 -186q-207 0 -335 124t-128 327q1 281 191 466t464 185z" />
    <glyph glyph-name="one.osf" horiz-adv-x="856" 
d="M762 41l-8 -41h-719l8 41h338l172 977l-428 -125l-6 37l467 143h20l-180 -1032h336z" />
    <glyph glyph-name="two.osf" horiz-adv-x="1099" 
d="M628 1085q204 0 299 -78q95 -79 95 -202q0 -90 -45 -170q-76 -136 -383 -326q-117 -72 -330 -190l-139 -78h799l-6 -41h-898l5 27l211 120q451 257 567 355q174 147 174 297q0 109 -84 177t-244 68q-217 0 -452 -98l-9 37q236 102 440 102z" />
    <glyph glyph-name="three.osf" horiz-adv-x="1155" 
d="M528 436q459 0 459 -321q0 -199 -175 -332q-174 -133 -406 -133t-459 117l20 32q498 -228 814 15q161 123 161 299q0 283 -414 282h-143l4 23l649 594h-802l6 41h872l-4 -33l-639 -584h57z" />
    <glyph glyph-name="four.osf" horiz-adv-x="1343" 
d="M82 41h807l164 936zM932 41h215l-8 -41h-215l-60 -340h-43l60 340h-881l6 29l1059 1024h45z" />
    <glyph glyph-name="five.osf" horiz-adv-x="1208" 
d="M215 496l373 -19q238 -13 350 -117t78 -294q-33 -190 -188 -304q-155 -113 -361 -112q-258 0 -487 117l20 32q233 -109 445 -109t355 104q142 102 172 274t-70 265t-316 103l-428 21l172 616h813l-8 -41h-770z" />
    <glyph glyph-name="six.osf" horiz-adv-x="1212" 
d="M524 10q196 0 344 122t182 312q34 192 -70 310t-303 116q-198 0 -343 -118t-178 -310t70 -312t298 -120zM684 911q215 0 333 -130t80 -340t-199 -341t-376 -131t-333 133t-78 344q29 166 147 297l571 650h58l-473 -541q131 59 270 59z" />
    <glyph glyph-name="seven.osf" horiz-adv-x="1067" 
d="M1118 1044l-917 -1363h-60l914 1351h-914l9 41h974z" />
    <glyph glyph-name="eight.osf" horiz-adv-x="1306" 
d="M571 10q217 0 371 102t182 262q28 159 -89 250q-116 91 -335 91q-220 0 -370 -93t-178 -252q-28 -160 88 -260q114 -100 331 -100zM702 756q180 0 306 89q124 89 150 231t-66 226t-272 82q-180 0 -306 -85q-124 -85 -150 -227t66 -229t272 -87zM569 -31q-237 0 -365 114
t-95 296q25 137 140 232q116 95 296 128q-125 35 -185 125q-59 90 -35 232t160 234q137 93 336 93t305 -95q106 -94 80 -236t-115 -231q-90 -89 -231 -124q166 -31 250 -127t59 -235q-33 -182 -197 -294t-403 -112z" />
    <glyph glyph-name="nine.osf" horiz-adv-x="1191" 
d="M698 1063q-195 0 -343 -122t-181 -313q-34 -190 70 -308t302 -118t343 118t178 311q35 193 -69 313t-300 119zM702 1104q215 0 332 -133t80 -344q-29 -158 -149 -297l-572 -649h-57l461 526q-106 -45 -256 -45q-215 0 -333 130t-80 340t198 341t376 131z" />
    <glyph glyph-name="zero.osf.zero" horiz-adv-x="1363" 
d="M609 16q245 0 420 172t175 433q0 137 -65 237l-891 -668q116 -174 361 -174zM764 1036q-234 0 -409 -172t-175 -432q0 -117 47 -205l889 664q-118 145 -352 145zM788 1077q207 0 335 -124t128 -326q0 -281 -190 -466t-465 -186q-207 0 -335 124t-128 327q1 281 191 466
t464 185z" />
    <glyph glyph-name="three.ss05" horiz-adv-x="1175" 
d="M464 -31q-232 0 -460 117l21 33q233 -109 444 -109t352 98t172 268q31 169 -74 246t-341 76h-140l8 41h136q227 0 344 72q118 73 144 231t-68 249t-296 91q-200 0 -475 -108l-14 33q269 117 491 117t330 -105q108 -104 76 -283q-49 -264 -330 -319q147 -23 213 -111
t39 -233q-32 -186 -186 -295t-386 -109z" />
    <glyph glyph-name="zero.tf" horiz-adv-x="1187" 
d="M506 10q266 0 449 243t184 605q-1 240 -105 382t-286 142q-266 0 -450 -242q-183 -243 -183 -605q1 -241 105 -383t286 -142zM756 1423q202 -1 316 -153t114 -406q0 -385 -199 -640t-489 -255q-201 0 -316 153t-114 406q0 385 198 640q199 255 490 255z" />
    <glyph glyph-name="one.tf" horiz-adv-x="1187" 
d="M983 0h-903l8 41h451l229 1302l-432 -133l-4 39l467 144h20l-237 -1352h409z" />
    <glyph glyph-name="two.tf" horiz-adv-x="1187" 
d="M731 1382q-225 0 -452 -133l-17 35q233 139 477 139q181 0 287 -93t107 -249q0 -202 -201 -395q-104 -99 -275 -233l-522 -412h893l-8 -41h-979l6 27l580 454q312 251 373 343q87 130 86 260t-96 214t-259 84z" />
    <glyph glyph-name="three.tf" horiz-adv-x="1187" 
d="M647 756q459 0 459 -316q0 -199 -175 -335t-407 -136t-458 117l22 33q232 -109 442 -109t370 123t161 299q0 283 -420 283h-137l4 22l651 615h-801l7 41h872l-6 -33l-641 -604h57z" />
    <glyph glyph-name="four.tf" horiz-adv-x="1187" 
d="M100 332h813l179 997zM956 332h215l-8 -41h-215l-51 -291h-43l51 291h-880l6 26l1069 1076h43z" />
    <glyph glyph-name="five.tf" horiz-adv-x="1187" 
d="M1110 457q0 -219 -163 -353t-409 -135q-246 0 -472 117l22 33q234 -109 458 -109t372 120q147 120 147 321q0 135 -102 216t-293 89l-422 20l172 617h809l-8 -41h-768l-150 -537l373 -18q210 -11 322 -99t112 -241z" />
    <glyph glyph-name="six.tf" horiz-adv-x="1187" 
d="M526 10q196 0 344 122t182 312q34 192 -70 310t-303 116q-198 0 -343 -118t-178 -310t70 -312t298 -120zM686 911q215 0 333 -130t80 -340t-199 -341t-376 -131t-333 133t-78 344q29 166 147 297l571 650h58l-473 -541q131 59 270 59z" />
    <glyph glyph-name="seven.tf" horiz-adv-x="1187" 
d="M1237 1364l-920 -1364h-55l916 1352h-918l6 41h975z" />
    <glyph glyph-name="eight.tf" horiz-adv-x="1187" 
d="M532 10q217 0 371 102q153 102 181 262q28 159 -88 250t-334 91t-370 -93q-150 -93 -178 -252q-28 -160 86 -260t332 -100zM664 756q180 0 305 89t151 231t-67 226t-273 82q-180 0 -304 -85t-151 -227q-26 -142 66 -229q93 -87 273 -87zM530 -31q-238 0 -366 114t-94 296
q25 137 140 232q116 95 296 128q-125 35 -184 125q-60 90 -36 232t160 234q137 93 336 93t305 -95q107 -94 81 -236t-116 -231t-231 -124q166 -31 250 -127t59 -235q-34 -182 -198 -294t-402 -112z" />
    <glyph glyph-name="nine.tf" horiz-adv-x="1187" 
d="M628 522q198 0 343 118t178 310q35 193 -69 313q-104 119 -300 119q-195 0 -343 -122t-181 -312q-34 -192 70 -309t302 -117zM784 1423q215 0 332 -133t80 -344q-29 -158 -149 -297l-3 -2l-569 -647h-57l461 526q-106 -45 -256 -45q-215 0 -333 130t-80 340t198 341
t376 131z" />
    <glyph glyph-name="zero.zero" horiz-adv-x="1507" 
d="M672 10q258 0 450 190t246 498q66 352 -104 545l-920 -1110q123 -123 328 -123zM918 1382q-258 0 -450 -189t-247 -499q-59 -346 94 -534l922 1108q-120 114 -319 114zM923 1423q281 -1 415 -201t77 -528t-261 -526t-484 -199q-280 0 -416 201q-137 200 -79 528t263 526
t485 199z" />
    <glyph glyph-name="zero.dnom" horiz-adv-x="933" 
d="M385 20q163 0 273 117t110 293q0 127 -71 204t-189 77q-162 0 -272 -117t-109 -293q1 -127 69 -204t189 -77zM514 748q137 0 216 -85t79 -225q0 -198 -123 -326t-307 -128q-137 0 -216 85t-79 226q0 197 123 325t307 128z" />
    <glyph glyph-name="one.dnom" horiz-adv-x="552" 
d="M465 37l-8 -37h-488l8 37h216l114 645l-213 -64l-4 35l250 78h14l-123 -694h234z" />
    <glyph glyph-name="two.dnom" horiz-adv-x="724" 
d="M578 566q0 62 -50 103q-50 40 -154 40q-102 0 -233 -64l-10 33q127 70 245 70t180 -52t62 -124t-40 -132t-85 -99q-44 -38 -135 -105l-266 -199h455l-6 -37h-525l4 27l318 237q80 57 124 94q44 38 80 92t36 116z" />
    <glyph glyph-name="three.dnom" horiz-adv-x="724" 
d="M322 401q258 0 258 -170q0 -104 -98 -176q-98 -71 -233 -71q-136 0 -255 61l20 33q125 -58 241 -58t200 60t84 145q0 139 -226 140h-86l4 20l344 309h-428l9 37h489l-6 -29l-336 -301h19z" />
    <glyph glyph-name="four.dnom" horiz-adv-x="811" 
d="M55 209h426l84 467zM522 209h121l-6 -37h-121l-31 -172h-41l31 172h-485l6 29l577 530h41z" />
    <glyph glyph-name="five.dnom" horiz-adv-x="778" 
d="M612 242q0 -117 -91 -188q-91 -70 -229 -70t-265 61l20 33q131 -58 251 -58t198 60t77 156q0 66 -54 104t-157 45l-235 12l94 334h453l-8 -37h-416l-74 -260l193 -10q119 -6 181 -53t62 -129z" />
    <glyph glyph-name="six.dnom" horiz-adv-x="794" 
d="M604 262q18 104 -37 166t-167 64q-112 0 -186 -62q-75 -62 -94 -168q-19 -108 37 -174t160 -66t187 68q82 68 100 172zM410 535q122 0 190 -78t46 -200t-115 -197q-93 -74 -216 -74t-191 76t-48 184q18 108 88 188l264 297h51l-190 -219q55 23 121 23z" />
    <glyph glyph-name="seven.dnom" horiz-adv-x="638" 
d="M631 705l-494 -705h-49l485 692h-491l6 39h547z" />
    <glyph glyph-name="eight.dnom" horiz-adv-x="765" 
d="M354 367q-106 -1 -184 -53t-78 -130t58 -121t164 -43t184 58t78 133q0 76 -58 116t-164 40zM201 544q0 -144 178 -143q88 1 151 51q64 50 64 120t-45 105q-45 36 -134 36t-151 -49q-62 -50 -63 -120zM49 168q0 82 57 138t156 81q-104 37 -104 139t76 162q78 60 184 60
t164 -44t57 -116q0 -72 -45 -124t-123 -77q70 -16 108 -59t37 -103q0 -104 -91 -173q-91 -68 -217 -68t-192 51t-67 133z" />
    <glyph glyph-name="nine.dnom" horiz-adv-x="794" 
d="M442 709q-104 0 -185 -68t-99 -172q-18 -105 37 -167t163 -62t188 66q79 66 96 169q17 102 -39 168q-57 66 -161 66zM445 745q124 -1 192 -77q67 -76 49 -182t-88 -189l-246 -297h-51l180 221q-68 -25 -131 -24q-124 -1 -190 77t-45 199q20 121 113 197t217 75z" />
    <glyph glyph-name="zero.numr" horiz-adv-x="933" 
d="M508 682q162 0 272 117t111 293q0 128 -71 204t-189 76q-162 0 -272 -117t-109 -292q0 -127 68 -204t190 -77zM637 1409q137 0 216 -85t79 -224q0 -197 -123 -326t-307 -129q-137 0 -216 85t-79 226q0 197 123 325t307 128z" />
    <glyph glyph-name="one.numr" horiz-adv-x="552" 
d="M588 698l-8 -36h-488l8 36h215l115 645l-213 -63l-4 35l250 78h14l-123 -695h234z" />
    <glyph glyph-name="two.numr" horiz-adv-x="724" 
d="M498 1370q-102 0 -234 -63l-10 32q128 70 246 70t180 -51q62 -52 61 -124q0 -121 -126 -232q-44 -38 -134 -105l-266 -199h455l-6 -36h-525l4 26l318 238q80 57 124 94t80 91q35 54 35 117q0 62 -50 102t-152 40z" />
    <glyph glyph-name="three.numr" horiz-adv-x="724" 
d="M444 1063q258 0 258 -170q0 -104 -97 -176t-233 -72t-255 62l20 32q125 -57 241 -57t200 59t84 146q0 139 -226 139h-86l4 21l344 309h-428l9 37h489l-6 -29l-336 -301h18z" />
    <glyph glyph-name="four.numr" horiz-adv-x="811" 
d="M178 870h426l84 467zM645 870h121l-6 -36h-121l-31 -172h-41l31 172h-485l6 28l577 531h41z" />
    <glyph glyph-name="five.numr" horiz-adv-x="778" 
d="M735 903q0 -117 -91 -187t-229 -71q-138 0 -265 62l20 32q131 -57 251 -57q119 0 197 59t78 156q0 136 -211 150l-235 12l94 334h453l-9 -37h-415l-74 -260l193 -11q119 -6 181 -53t62 -129z" />
    <glyph glyph-name="six.numr" horiz-adv-x="794" 
d="M523 1153q-113 0 -187 -61q-74 -60 -93 -168t37 -174t160 -66t187 68q82 68 100 172t-37 166t-167 63zM532 1196q123 0 191 -78t46 -200t-115 -196q-93 -75 -216 -75q-122 0 -190 77q-68 76 -50 184t89 188l264 297h51l-190 -219q54 22 120 22z" />
    <glyph glyph-name="seven.numr" horiz-adv-x="638" 
d="M754 1366l-494 -704h-49l485 692h-491l6 39h547z" />
    <glyph glyph-name="eight.numr" horiz-adv-x="765" 
d="M477 1028q-107 0 -185 -52t-77 -130q-1 -78 57 -121t164 -43t185 57q77 57 77 133t-57 116t-164 40zM324 1206q0 -142 178 -143q88 0 151 50q63 49 63 119t-44 106q-45 36 -134 36q-90 0 -152 -49t-62 -119zM739 887q0 -104 -91 -173t-217 -69q-127 0 -193 51t-66 133
q0 83 57 139t156 81q-104 37 -104 139t76 162q77 59 183 59t164 -44t58 -116q0 -71 -45 -123t-123 -77q70 -15 108 -59t37 -103z" />
    <glyph glyph-name="nine.numr" horiz-adv-x="794" 
d="M297 964q55 -62 164 -62t187 66q78 67 96 169q17 102 -38 168q-56 65 -160 65t-187 -67q-81 -69 -99 -173t37 -166zM548 1407q124 0 192 -77q68 -76 48 -182q-18 -106 -88 -190l-245 -296h-52l181 221q-68 -25 -131 -25q-123 0 -190 78t-46 199q19 121 113 197t218 75z
" />
    <glyph glyph-name="braceleft.case" horiz-adv-x="733" 
d="M500 1184l-31 -183q-25 -139 -72 -214t-131 -105q135 -53 90 -320l-32 -182q-29 -162 12 -230t170 -67l-2 -41q-152 0 -204 79t-19 263l32 183q29 161 -14 229t-176 68l10 41q129 -1 197 69t96 232l33 182q33 184 109 261q77 77 229 77l-4 -41q-129 1 -197 -69t-96 -232z
" />
    <glyph glyph-name="braceright.case" horiz-adv-x="731" 
d="M311 184l31 183q25 139 72 214t131 105q-135 53 -90 320l32 182q29 162 -12 230t-170 67l2 41q152 0 204 -79t19 -263l-32 -183q-29 -161 14 -229t176 -67l-10 -41q-129 0 -197 -70t-96 -232l-33 -182q-34 -184 -110 -261t-228 -77l4 41q128 -1 196 69t97 232z" />
    <glyph glyph-name="bracketleft.case" horiz-adv-x="636" 
d="M147 -102h269l-6 -41h-312l291 1659h311l-6 -41h-268z" />
    <glyph glyph-name="bracketright.case" horiz-adv-x="636" 
d="M569 1475h-268l6 41h311l-290 -1659h-312l7 41h268z" />
    <glyph glyph-name="parenleft.case" horiz-adv-x="589" 
d="M621 1516l34 -25q-191 -199 -297 -390t-145 -419t-1 -416q38 -190 159 -387l-41 -18q-125 197 -164 393t2 432q41 235 150 434q110 199 303 396z" />
    <glyph glyph-name="parenright.case" horiz-adv-x="587" 
d="M47 -139l-35 24q190 199 297 390q105 191 145 419t2 416q-38 190 -159 387l41 19q125 -197 164 -394t-2 -432q-40 -236 -150 -434t-303 -395z" />
    <glyph glyph-name="emdash.case" horiz-adv-x="1781" 
d="M1634 696h-1454l8 43h1454z" />
    <glyph glyph-name="endash.case" horiz-adv-x="1345" 
d="M1198 696h-1018l8 43h1018z" />
    <glyph glyph-name="hyphen.case" horiz-adv-x="909" 
d="M760 696h-582l8 43h582z" />
    <glyph glyph-name="guillemotleft.case" horiz-adv-x="1040" 
d="M823 332l-32 -29l-312 385l447 385l26 -33l-405 -356zM475 332l-33 -29l-311 385l447 385l26 -33l-405 -356z" />
    <glyph glyph-name="guillemotright.case" horiz-adv-x="1040" 
d="M565 1044l33 29l311 -385l-446 -385l-27 33l406 356zM217 1044l33 29l311 -385l-446 -385l-27 33l406 356z" />
    <glyph glyph-name="guilsinglleft.case" horiz-adv-x="692" 
d="M475 332l-33 -29l-311 385l447 385l26 -33l-405 -356z" />
    <glyph glyph-name="guilsinglright.case" horiz-adv-x="692" 
d="M217 1044l33 29l311 -385l-446 -385l-27 33l406 356z" />
    <glyph glyph-name="backslash.case" horiz-adv-x="845" 
d="M283 1573l411 -1745h-45l-411 1745h45z" />
    <glyph glyph-name="bullet.case" horiz-adv-x="614" 
d="M349 512q-83 0 -140 57t-57 139t57 140q57 57 140 57t140 -56t57 -140q0 -85 -56 -141q-58 -56 -141 -56z" />
    <glyph glyph-name="exclamdown.case" horiz-adv-x="524" 
d="M141 0l187 1065h45l-187 -1065h-45zM399 1409q19 0 33 -13q14 -14 14 -34t-13 -34t-33 -13q-20 0 -34 13q-14 14 -14 34t14 34t33 13z" />
    <glyph glyph-name="periodcentered.case" horiz-adv-x="503" 
d="M293 647q-20 0 -34 13q-13 14 -13 34t13 34t33 13q20 0 34 -13q14 -14 14 -34t-13 -34q-14 -13 -34 -13z" />
    <glyph glyph-name="questiondown.case" horiz-adv-x="997" 
d="M499 -31q-177 1 -293 97t-116 262q0 205 158 347t393 142h72l35 248h40l-36 -293h-117q-213 0 -355 -128t-143 -312q1 -150 103 -235t272 -85t317 41l7 -41q-160 -43 -337 -43zM811 1315q-20 0 -34 13q-13 14 -13 34t13 34t33 13q20 0 34 -13q14 -14 14 -34t-13 -34
q-14 -13 -34 -13z" />
    <glyph glyph-name="slash.case" horiz-adv-x="860" 
d="M31 -205h-45l923 1778h45z" />
    <glyph glyph-name="florin.tf" horiz-adv-x="1187" 
d="M1057 1382q-123 0 -180 -63t-111 -236l-88 -284h422l-8 -41h-426l-138 -449q-61 -197 -129 -269t-213 -71q-72 0 -159 25l16 37q86 -20 152 -21q123 0 180 64t110 235l138 449h-279l8 41h283l88 284q59 195 128 268t214 72q70 0 160 -24l-17 -37q-85 20 -151 20z" />
    <glyph glyph-name="cent.tf" horiz-adv-x="1187" 
d="M147 395q0 246 162 407t412 171l45 254h43l-45 -254q154 -4 291 -49l-17 -37q-156 45 -301 45q-231 0 -387 -148t-155 -381q0 -170 101 -271t258 -101t374 59l4 -41q-178 -53 -342 -59l-45 -258h-43l45 258q-184 4 -292 114t-108 291z" />
    <glyph glyph-name="dollar.tf" horiz-adv-x="1187" 
d="M760 1382q-215 0 -348 -103t-133 -273q0 -94 70 -148q71 -52 201 -82t232 -56t154 -57q51 -31 90 -65q70 -62 72 -182q0 -201 -158 -324t-397 -123h-17l-55 -293h-43l55 295q-264 12 -493 115l24 39q264 -115 537 -115q215 0 357 111t142 283t-187 242q-142 55 -260 72
q-7 1 -13 3q-197 43 -278 104t-81 170q1 189 143 307t365 121l47 275h43l-47 -275q240 -6 439 -75l-19 -39q-227 73 -442 73z" />
    <glyph glyph-name="Euro.tf" horiz-adv-x="1187" 
d="M887 1321q-227 0 -397 -138t-238 -368h727l-14 -39h-723q-31 -117 -31 -254h653l-18 -41h-633q10 -215 121 -341t302 -126t421 82l6 -39q-229 -86 -436 -86q-207 1 -330 139t-133 371h-115l8 41h107q0 133 31 254h-93l7 39h96q74 250 256 398t434 149q186 0 348 -72
l-16 -37q-176 68 -340 68z" />
    <glyph glyph-name="sterling.tf" horiz-adv-x="1187" 
d="M870 1382q-182 0 -321 -101t-168 -269l-66 -377h557l-8 -41h-557l-96 -553h858l-8 -41h-1081l8 41h178l96 553h-178l8 41h178l66 377q33 186 186 299q154 113 373 112q164 0 309 -43l-18 -39q-134 41 -316 41z" />
    <glyph glyph-name="yen.tf" horiz-adv-x="1187" 
d="M1100 541l-8 -43h-467l-41 -234h467l-9 -43h-467l-38 -221h-45l38 221h-446l8 43h447l41 234h-447l8 43h437l-371 852h51l356 -824l648 824h51l-672 -852h459z" />
    <glyph glyph-name="arrowdown.ss06" horiz-adv-x="1431" 
d="M698 934h37v-416l187 187l26 -27l-231 -232l-232 232l27 27l186 -187v416zM717 219q195 0 332 138t137 333t-138 332t-332 137t-332 -137t-138 -332t138 -333t333 -138zM1227 690q1 -212 -149 -362t-362 -150t-362 151t-150 361t151 361q151 149 362 149t361 -150
t149 -360z" />
    <glyph glyph-name="arrowdownleft.ss06" horiz-adv-x="1433" 
d="M547 518v326h37v-262l293 292l26 -24l-293 -295h262v-37h-325zM1188 690q0 195 -137 332t-333 137t-334 -137t-138 -332t138 -333t334 -137t333 138t137 332zM718 1200q212 0 362 -150t149 -360q0 -210 -150 -360q-149 -150 -361 -151t-363 150t-151 361t152 360
q150 150 362 150z" />
    <glyph glyph-name="arrowdownright.ss06" horiz-adv-x="1431" 
d="M561 555h262l-293 295l27 24l293 -292v262h37v-326h-326v37zM1188 690q0 195 -138 332t-334 137t-333 -137t-137 -332t137 -332t333 -138t334 137t138 333zM1229 690q0 -210 -151 -361q-150 -151 -362 -150t-362 151t-150 360t150 361q150 149 362 149t362 -150t151 -360
z" />
    <glyph glyph-name="arrowleft.ss06" horiz-adv-x="1431" 
d="M961 707v-37h-416l186 -187l-26 -26l-232 231l232 232l26 -27l-186 -186h416zM246 688q0 -195 138 -332t332 -137t332 138t138 332t-137 332t-332 138t-333 -138t-138 -333zM1227 688q0 -210 -150 -360q-151 -150 -361 -150t-360 150t-151 361q0 212 149 362
q150 149 362 149t362 -150t149 -362z" />
    <glyph glyph-name="arrowright.ss06" horiz-adv-x="1431" 
d="M471 670v37h416l-187 186l27 27l231 -232l-231 -231l-27 26l187 187h-416zM1186 688q0 195 -138 333t-333 138t-332 -138t-137 -332t137 -332t332 -138t333 137t138 332zM1227 689q0 -211 -151 -361q-152 -150 -362 -150t-360 150t-150 360t150 362q150 150 361 150
t361 -150t151 -361z" />
    <glyph glyph-name="arrowup.ss06" horiz-adv-x="1431" 
d="M735 444h-37v416l-186 -186l-27 26l232 232l231 -232l-26 -26l-187 186v-416zM717 1159q-195 0 -333 -138t-138 -333t138 -332t332 -137t332 138t138 332t-137 332t-332 138zM716 1200q212 0 362 -150t149 -362q0 -210 -150 -360q-151 -150 -361 -150t-361 150t-151 362
t150 361t362 149z" />
    <glyph glyph-name="arrowupleft.ss06" horiz-adv-x="1433" 
d="M872 825h-262l293 -295l-26 -24l-293 293v-262h-37v325h325v-37zM246 690q0 -195 138 -332t334 -137t333 137t137 332t-137 332t-333 138t-334 -137t-138 -333zM1229 690q0 -210 -150 -360q-149 -150 -361 -150t-363 150t-151 360t151 362t363 150t362 -152t149 -360z
" />
    <glyph glyph-name="arrowupright.ss06" horiz-adv-x="1431" 
d="M887 862v-325h-37v262l-293 -293l-27 24l293 295h-262v37h326zM246 690q0 -195 137 -332t333 -137t334 137t138 332t-138 333t-334 137t-333 -138t-137 -332zM1229 690q0 -211 -151 -360q-150 -150 -362 -150t-362 150t-150 360t150 361q150 150 362 151t362 -150
q151 -151 151 -362z" />
    <glyph glyph-name="arrowdown.ss08" horiz-adv-x="1431" 
d="M735 934h-37v-416l-186 187l-27 -27l232 -232l231 232l-26 27l-187 -187v416zM1227 690q1 -212 -149 -362t-362 -150t-362 151t-150 361t151 361q151 149 362 149t361 -150t149 -360z" />
    <glyph glyph-name="arrowdownleft.ss08" horiz-adv-x="1433" 
d="M872 555h-262l293 295l-26 24l-293 -292v262h-37v-326h325v37zM718 1200q212 0 362 -150t149 -360q0 -210 -150 -360q-149 -150 -361 -151t-363 150t-151 361t152 360q150 150 362 150z" />
    <glyph glyph-name="arrowdownright.ss08" horiz-adv-x="1431" 
d="M887 518v326h-37v-262l-293 292l-27 -24l293 -295h-262v-37h326zM1229 690q0 -210 -151 -361q-150 -151 -362 -150t-362 151t-150 360t150 361q150 149 362 149t362 -150t151 -360z" />
    <glyph glyph-name="arrowleft.ss08" horiz-adv-x="1431" 
d="M961 670v37h-416l186 186l-26 27l-232 -232l232 -231l26 26l-186 187h416zM1227 688q0 -210 -150 -360q-151 -150 -361 -150t-360 150t-151 361q0 212 149 362q150 149 362 149t362 -150t149 -362z" />
    <glyph glyph-name="arrowright.ss08" horiz-adv-x="1431" 
d="M471 707v-37h416l-187 -187l27 -26l231 231l-231 232l-27 -27l187 -186h-416zM1227 689q0 -211 -151 -361q-152 -150 -362 -150t-360 150t-150 360t150 362q150 150 361 150t361 -150t151 -361z" />
    <glyph glyph-name="arrowup.ss08" horiz-adv-x="1431" 
d="M698 444h37v416l187 -186l26 26l-231 232l-232 -232l27 -26l186 186v-416zM716 1200q212 0 362 -150t149 -362q0 -210 -150 -360q-151 -150 -361 -150t-361 150t-151 362t150 361t362 149z" />
    <glyph glyph-name="arrowupleft.ss08" horiz-adv-x="1433" 
d="M547 862v-325h37v262l293 -293l26 24l-293 295h262v37h-325zM1229 690q0 -210 -150 -360q-149 -150 -361 -150t-363 150t-151 360t151 362t363 150t362 -152t149 -360z" />
    <glyph glyph-name="arrowupright.ss08" horiz-adv-x="1431" 
d="M561 825h262l-293 -295l27 -24l293 293v-262h37v325h-326v-37zM1229 690q0 -211 -151 -360q-150 -150 -362 -150t-362 150t-150 360t150 361q150 150 362 151t362 -150q151 -151 151 -362z" />
    <glyph glyph-name="arrowdown.ss09" horiz-adv-x="1253" 
d="M1178 844l-484 -484l-483 484l29 30l454 -454l455 454z" />
    <glyph glyph-name="arrowup.ss09" horiz-adv-x="1253" 
d="M1081 426l-454 455l-455 -455l-29 31l484 483l483 -483z" />
    <glyph glyph-name="arrowleft.ss09" 
d="M371 713l454 -455l-30 -29l-484 484l484 483l30 -29z" />
    <glyph glyph-name="arrowright.ss09" 
d="M905 713l-483 -484l-31 29l455 455l-455 454l31 29z" />
    <glyph glyph-name="registered.ss07" horiz-adv-x="1200" 
d="M705 983q59 0 99 33t40 77q0 43 -33 67t-86 24l-96 -2l-35 -199h111zM732 1225q62 0 108 -33q47 -33 47 -88t-37 -97t-96 -55l90 -174h-47l-86 166h-123l-29 -166h-39l76 441q74 6 136 6zM694 1384q-174 0 -290 -116t-116 -286q0 -171 116 -286q116 -114 290 -114
t289 116t115 286q0 172 -115 286t-289 114zM692 1423q193 0 320 -124q127 -125 127 -315t-127 -316t-320 -125q-194 0 -320 125q-126 126 -126 316t126 314t320 125z" />
    <glyph glyph-name="at.case" horiz-adv-x="2068" 
d="M1074 1085q-206 0 -350 -141t-144 -350q0 -168 95 -268t268 -100t431 141q-6 72 8 157l93 523q-195 38 -401 38zM1208 1556q354 0 559 -198t205 -516q0 -316 -102 -483t-278 -167t-212 138q-143 -82 -243 -114t-209 -32q-184 0 -290 111q-105 111 -106 295q0 229 161 383
q161 153 391 153t440 -51l-99 -551q-25 -143 13 -216t157 -72q158 0 245 154t87 431q0 315 -194 505q-195 189 -531 190q-266 0 -500 -128t-376 -352q-141 -224 -142 -483q0 -309 201 -512t520 -203q209 0 486 64v-39q-262 -66 -492 -66q-340 0 -551 210t-211 536
q-1 277 147 511t394 368t530 134z" />
    <glyph glyph-name="bar.case" horiz-adv-x="618" 
d="M539 1634l-332 -1880h-45l332 1880h45z" />
    <glyph glyph-name="brokenbar.case" horiz-adv-x="618" 
d="M207 -248h-45l147 836h45zM391 797h-45l148 835h45z" />
    <glyph glyph-name="caron.alt" 
d="M791 1393l-109 -389h-37l94 389h52z" />
    <glyph glyph-name="acute.case" 
d="M1092 1843l-265 -327h-45l248 327h62z" />
    <glyph glyph-name="breve.case" 
d="M743 1538q-125 0 -187 76t-40 198h41q-18 -106 35 -171q54 -65 160 -65t183 66q77 64 95 170h39q-23 -122 -112 -198t-214 -76z" />
    <glyph glyph-name="caron.case" 
d="M825 1516h-51l-215 327h55l191 -289l295 289h55z" />
    <glyph glyph-name="circumflex.case" 
d="M850 1794l-297 -278h-51l329 327h52l215 -327h-51z" />
    <glyph glyph-name="dieresis.case" 
d="M1030 1632q-20 0 -34 14t-13 33q0 19 13 33q14 14 34 14t34 -13t13 -33q1 -20 -13 -34t-34 -14zM608 1632q-20 0 -34 14t-13 33q0 19 13 33q14 14 34 14t34 -13t13 -33q1 -20 -13 -34t-34 -14z" />
    <glyph glyph-name="dotaccent.case" 
d="M788 1632q-20 0 -33 14t-14 33t13 33t34 14t34 -13t14 -33t-14 -34t-34 -14z" />
    <glyph glyph-name="grave.case" 
d="M850 1516h-45l-150 327h62z" />
    <glyph glyph-name="hungarumlaut.case" 
d="M1255 1843l-264 -327h-45l248 327h61zM1010 1843l-265 -327h-45l248 327h62z" />
    <glyph glyph-name="macron.case" 
d="M1094 1655l-7 -37h-540l6 37h541z" />
    <glyph glyph-name="ring.case" 
d="M771 1532q54 0 96 40t42 97t-35 91t-89 34t-96 -41t-42 -97t35 -90t89 -34zM608 1657q0 74 54 124t127 50q71 0 115 -43t44 -117t-55 -126t-126 -52t-115 45t-44 119z" />
    <glyph glyph-name="tilde.case" 
d="M1018 1681h45q-11 -69 -61 -107t-100 -33t-87 28l-108 86q-25 20 -62 21q-37 0 -72 -26t-45 -77h-43q11 71 61 107t100 32t87 -26l109 -87q34 -35 98 -15t78 97z" />
    </font>
</defs>
</svg>
