<?xml version="1.0" standalone="no"?>
<!DOCTYPE svg PUBLIC "-//W3C//DTD SVG 1.1//EN" "http://www.w3.org/Graphics/SVG/1.1/DTD/svg11.dtd" >
<svg xmlns="http://www.w3.org/2000/svg">
<metadata>
Created by FontPrep 20130207 at Mon Nov 21 12:25:33 2016
 By Rene Bieder
Copyright (c) 2013 by Rene' Bieder. All rights reserved.
</metadata>
<defs>
<font id="9e72f6f5c8504de6ba00ef6f4f089f83" horiz-adv-x='1024' >
  <font-face 
    font-family="Canaro-Medium"
    font-weight="500"
    font-stretch="normal"
    units-per-em="2048"
    panose-1="0 0 6 0 0 0 0 0 0 0"
    ascent="1638"
    descent="-410"
    x-height="969"
    cap-height="1393"
    bbox="-100 -557 2931 1925"
    underline-thickness="102"
    underline-position="-102"
    unicode-range="U+0020-FB02"
  />
<missing-glyph horiz-adv-x="1781" 
d="M348 143h977l-977 977v-977zM1434 1249h-985l985 -985v985zM1577 1393v-1393h-1372v1393h1372z" />
    <glyph glyph-name="fi" unicode="fi" horiz-adv-x="1318" 
d="M1208 969v-969h-235v758h-490v-758h-235v758h-230v211h230v108q0 217 135 339t354 122q119 0 207 -34t205 -111l-115 -168q-143 100 -278 100q-135 1 -204 -65t-69 -191v-100h725z" />
    <glyph glyph-name="fl" unicode="fl" horiz-adv-x="1384" 
d="M1221 0h-236v1270q-129 55 -250 55q-252 0 -252 -252v-104h351v-211h-351v-758h-235v758h-230v211h230v110q0 221 121 340t356 119q123 0 272 -61l224 -15v-1462z" />
    <glyph glyph-name="f_f" unicode="ff" horiz-adv-x="1630" 
d="M1036 969v157q0 53 8 93q-145 106 -278 106t-208 -68t-75 -188v-100h553zM1618 758h-346v-758h-236v758h-553v-758h-235v758h-230v211h230v108q0 215 140 338t353 123q113 0 198 -32t187 -99q106 131 308 131q80 0 157 -22l-35 -199q-74 8 -114 8q-78 0 -124 -52
t-46 -155v-149h346v-211z" />
    <glyph glyph-name="f_f_i" unicode="ffi" horiz-adv-x="2086" 
d="M1016 969v108q0 82 18 146q-139 102 -276 102q-137 1 -206 -65t-69 -191v-100h533zM1976 969v-969h-235v758h-490v-758h-235v758h-533v-758h-235v758h-230v211h230v108q0 217 135 339t354 122q117 0 204 -33t194 -104q133 137 372 137q119 0 207 -34t203 -111l-115 -168
q-143 100 -278 100q-135 1 -204 -65t-69 -191v-100h725z" />
    <glyph glyph-name="f_f_l" unicode="ffl" horiz-adv-x="2129" 
d="M1016 969v110q0 76 16 148q-137 98 -274 98q-137 1 -206 -65t-69 -191v-100h533zM1966 0h-237v1280q-111 45 -226 45q-252 0 -252 -252v-104h351v-211h-351v-758h-235v758h-533v-758h-235v758h-230v211h230v108q0 217 135 339t354 122q115 0 201 -32t186 -99
q121 131 371 131q117 0 272 -63l199 -11v-1464z" />
    <glyph glyph-name=".notdef" horiz-adv-x="1781" 
d="M348 143h977l-977 977v-977zM1434 1249h-985l985 -985v985zM1577 1393v-1393h-1372v1393h1372z" />
    <glyph glyph-name=".null" horiz-adv-x="0" 
 />
    <glyph glyph-name="nonmarkingreturn" horiz-adv-x="681" 
 />
    <glyph glyph-name="space" unicode=" " horiz-adv-x="485" 
 />
    <glyph glyph-name="exclam" unicode="!" horiz-adv-x="512" 
d="M259 -35q-67 0 -113 44q-46 45 -46 109t46 108t112 44t113 -44t47 -108t-46 -109q-46 -44 -113 -44zM385 1393l-14 -998h-234l-14 998h262z" />
    <glyph glyph-name="quotedbl" unicode="&#x22;" horiz-adv-x="817" 
d="M727 1571l-47 -512h-215l2 512h260zM131 1059v512h260l-45 -512h-215z" />
    <glyph glyph-name="numbersign" unicode="#" horiz-adv-x="1558" 
d="M653 795l-71 -230h317l72 230h-318zM1380 565v-213h-303l-110 -352h-244l111 352h-320l-111 -352h-243l110 352h-202v213h268l72 230h-228v213h295l121 387h244l-121 -387h319l121 387h244l-121 -387h211v-213h-276l-72 -230h235z" />
    <glyph glyph-name="dollar" unicode="$" horiz-adv-x="1390" 
d="M1260 400q0 -185 -120 -294t-327 -131v-221h-213v219q-252 18 -479 113l59 229q285 -115 535 -114q297 0 297 178q0 75 -55 115q-32 24 -52 36t-112 35t-127 29q-285 47 -394 141q-110 94 -110 263t119 279t319 132v236h213v-238q233 -20 408 -88l-64 -217
q-279 88 -475 88q-123 0 -192 -46q-68 -46 -68 -133t79 -125t301 -83t340 -131t118 -272z" />
    <glyph glyph-name="percent" unicode="%" horiz-adv-x="2222" 
d="M1653 139q94 -1 157 63q64 64 64 166t-64 164q-64 64 -157 64q-95 0 -157 -64t-62 -164q0 -101 62 -165t157 -64zM1653 766q171 0 285 -111t114 -287t-113 -288q-113 -111 -285 -111t-286 111q-113 111 -113 288q0 178 113 288t285 110zM568 797q93 0 157 64
q63 65 63 166t-63 163t-157 63q-94 0 -156 -62q-64 -61 -64 -163t64 -166t156 -65zM690 0h-131l946 1393h131zM569 1423q172 1 285 -109t113 -287t-113 -289t-285 -112q-171 0 -285 112t-114 289t114 287t285 109z" />
    <glyph glyph-name="ampersand" unicode="&#x26;" horiz-adv-x="1323" 
d="M899 618h-301q-147 0 -223 -56t-76 -156t82 -164t218 -64t218 67t82 175v198zM1128 618v-198q0 -203 -145 -327t-385 -124t-384 119t-144 313q0 233 237 322q-164 83 -164 277q-1 194 137 307t363 112q147 0 285 -41l-45 -202q-308 78 -439 -19q-72 -53 -72 -145t50 -142
q49 -50 176 -49h678v-203h-148z" />
    <glyph glyph-name="quotesingle" unicode="'" horiz-adv-x="483" 
d="M393 1571l-47 -512h-215l2 512h260z" />
    <glyph glyph-name="parenleft" unicode="(" horiz-adv-x="718" 
d="M319 536q0 -282 84 -489t246 -446l-172 -111q-383 467 -383 1047q0 287 100 555q99 268 283 489l172 -108q-164 -242 -247 -449q-83 -206 -83 -488z" />
    <glyph glyph-name="parenright" unicode=")" horiz-adv-x="712" 
d="M618 537q0 -580 -382 -1047l-173 111q162 241 246 447t84 488t-83 488t-247 449l173 108q184 -221 283 -489t99 -555z" />
    <glyph glyph-name="asterisk" unicode="*" horiz-adv-x="802" 
d="M469 752h-135v206l-195 -118l-67 116l200 121l-200 121l67 119l195 -119v205h135v-205l197 119l65 -119l-201 -121l201 -121l-65 -116l-197 118v-206z" />
    <glyph glyph-name="plus" unicode="+" horiz-adv-x="1402" 
d="M815 567v-379h-225v379h-377v217h377v381h225v-381h375v-217h-375z" />
    <glyph glyph-name="comma" unicode="," horiz-adv-x="620" 
d="M310 301q73 0 124 -48q51 -49 51 -105t-18 -99t-82 -159t-88 -162h-172l117 264q-104 41 -105 143q0 70 50 118t123 48z" />
    <glyph glyph-name="hyphen" unicode="-" horiz-adv-x="1071" 
d="M856 420h-643v235h643v-235z" />
    <glyph glyph-name="period" unicode="." horiz-adv-x="618" 
d="M308 -35q-73 0 -123 48t-50 119t50 120t123 49t124 -49t51 -120t-51 -119t-124 -48z" />
    <glyph glyph-name="slash" unicode="/" horiz-adv-x="1038" 
d="M219 -557h-211l789 2130h209z" />
    <glyph glyph-name="zero" unicode="0" horiz-adv-x="1536" 
d="M768 201q180 0 290 136t109 359q0 223 -109 360q-110 136 -290 136t-290 -136t-110 -360t110 -359q110 -136 290 -136zM115 696q0 328 180 528t474 199q294 1 473 -199t179 -528t-179 -528t-473 -199q-294 0 -474 200q-180 199 -180 527z" />
    <glyph glyph-name="one" unicode="1" horiz-adv-x="872" 
d="M674 0h-244v1118l-350 -92l-55 197l579 170h70v-1393z" />
    <glyph glyph-name="two" unicode="2" horiz-adv-x="1196" 
d="M1098 0h-975v162l487 473q76 71 109 105t69 96t35 122q0 118 -78 178t-219 60t-354 -82l-55 211q225 98 464 98t367 -125t129 -307q0 -141 -88 -266t-262 -287l-254 -217h625v-221z" />
    <glyph glyph-name="three" unicode="3" horiz-adv-x="1218" 
d="M570 -31q-270 0 -484 115l86 192q209 -98 412 -98q127 0 209 65q81 65 81 160t-77 145q-78 50 -211 50h-248v115l395 458h-594v222h928v-150l-387 -444h16q197 -13 312 -117t114 -264q0 -207 -141 -328t-411 -121z" />
    <glyph glyph-name="four" unicode="4" horiz-adv-x="1366" 
d="M889 451v622l-492 -622h492zM1130 451h166v-209h-166v-242h-241v242h-805v168l805 983h241v-942z" />
    <glyph glyph-name="five" unicode="5" horiz-adv-x="1257" 
d="M1145 426q-1 -196 -145 -327q-144 -130 -377 -130q-291 0 -517 117l80 211q229 -104 426 -104q125 -1 204 65t79 162t-80 154t-213 65l-399 18l61 736h830v-230h-619l-26 -295l188 -10q233 -12 371 -124t137 -308z" />
    <glyph glyph-name="six" unicode="6" horiz-adv-x="1292" 
d="M646 176q142 0 232 86q89 86 89 223t-90 221q-89 84 -233 85q-144 0 -232 -84q-88 -83 -88 -221t90 -224t232 -86zM645 983q248 0 403 -134q154 -133 154 -363t-156 -373t-401 -143q-247 0 -401 142q-154 144 -154 375q0 150 129 332l414 574h291l-297 -410h18z" />
    <glyph glyph-name="seven" unicode="7" horiz-adv-x="1148" 
d="M80 1163v230h1007v-148l-550 -1245h-267l531 1163h-721z" />
    <glyph glyph-name="eight" unicode="8" horiz-adv-x="1288" 
d="M645 176q131 0 214 65t83 157t-82 154t-215 62t-216 -61t-83 -155t84 -158t215 -64zM399 1021q0 -91 68 -149q67 -58 177 -57q110 0 178 57q68 56 69 148q0 92 -69 148q-68 56 -178 56t-178 -56t-67 -147zM1202 383q0 -182 -154 -298t-403 -116q-247 0 -401 116t-154 298
q0 240 260 340q-203 90 -203 313q1 174 139 280t359 107q221 0 359 -106t137 -281q0 -225 -201 -313q262 -100 262 -340z" />
    <glyph glyph-name="nine" unicode="9" horiz-adv-x="1300" 
d="M322 907q0 -137 89 -221t232 -84t231 84t88 221t-88 223q-90 86 -232 86t-231 -86t-89 -223zM641 410q-249 0 -403 135t-154 363t156 372t402 143q248 0 402 -143t154 -375q0 -152 -106 -303l-420 -602h-281l287 410h-37z" />
    <glyph glyph-name="colon" unicode=":" horiz-adv-x="618" 
d="M309 -35q-74 0 -124 48t-50 119t51 120t123 49t123 -49t51 -120t-50 -119t-124 -48zM483 832q0 -72 -51 -120t-124 -48t-123 49t-50 119t50 119q50 48 123 48t124 -48t51 -119z" />
    <glyph glyph-name="semicolon" unicode=";" horiz-adv-x="634" 
d="M309 301q72 0 124 -48q52 -49 52 -105t-18 -99t-82 -159t-88 -162h-172l117 264q-106 43 -107 143q0 70 51 118t123 48zM326 664q-72 0 -123 49t-51 119t51 119q51 48 124 48t124 -48t51 -119q0 -72 -52 -120t-124 -48z" />
    <glyph glyph-name="less" unicode="&#x3c;" horiz-adv-x="1116" 
d="M969 1137v-236l-602 -276l602 -277v-237l-865 395v235z" />
    <glyph glyph-name="equal" unicode="=" horiz-adv-x="1415" 
d="M1200 350h-987v217h987v-217zM1200 756h-987v219h987v-219z" />
    <glyph glyph-name="greater" unicode="&#x3e;" horiz-adv-x="1116" 
d="M1010 506l-865 -395v237l603 277l-603 276v236l865 -396v-235z" />
    <glyph glyph-name="question" unicode="?" horiz-adv-x="1026" 
d="M401 270q66 0 113 -44t47 -108t-46 -109q-46 -44 -113 -44q-66 0 -112 44q-46 45 -46 109t46 108t111 44zM502 1423q200 0 336 -118q135 -119 135 -311t-125 -316q-125 -123 -320 -123h-26l6 -160h-219l-37 357h227q119 0 192 68t73 172q0 103 -70 163q-70 59 -198 59
t-343 -34l-35 196q204 47 404 47z" />
    <glyph glyph-name="at" unicode="@" horiz-adv-x="2097" 
d="M1004 793q-146 0 -214 -82t-69 -217q0 -134 72 -220q73 -86 201 -86t261 103q-4 49 -4 76v409q-101 17 -247 17zM1060 1413q412 0 668 -250t257 -659q0 -250 -122 -377t-318 -127t-257 127q-160 -129 -350 -129t-314 138t-122 360t124 355q122 132 347 132
q225 -1 362 -23t142 -22v-612q1 -92 23 -130t83 -38q279 0 279 351t-224 568t-580 217q-354 0 -588 -226t-234 -564q0 -224 96 -404t273 -284t397 -106t548 75l23 -111q-326 -84 -565 -84q-397 0 -647 259q-249 259 -249 651t268 653q268 260 680 260z" />
    <glyph glyph-name="A" unicode="A" horiz-adv-x="1597" 
d="M799 1081l-252 -575h504zM451 285l-123 -285h-279l635 1401h229l633 -1401h-274l-127 285h-694z" />
    <glyph glyph-name="B" unicode="B" horiz-adv-x="1392" 
d="M737 199q315 0 316 204q0 87 -74 137t-199 50h-360v-383q225 -8 317 -8zM420 799h317q119 0 189 54t70 149t-70 141q-70 45 -215 45l-291 -4v-385zM1294 383q0 -193 -140 -297t-404 -104t-576 18v1393q334 10 568 10t359 -95q126 -95 126 -272q-1 -120 -69 -206
t-189 -119q153 -29 239 -117t86 -211z" />
    <glyph glyph-name="C" unicode="C" horiz-adv-x="1492" 
d="M375 696q0 -222 142 -358q142 -137 378 -137q172 0 436 61l45 -215q-264 -78 -493 -78q-346 0 -557 201q-211 202 -211 528t212 526t560 199q245 0 483 -63l-45 -232q-254 57 -405 58q-260 0 -402 -134t-143 -356z" />
    <glyph glyph-name="D" unicode="D" horiz-adv-x="1517" 
d="M700 209q188 0 317 137q128 137 128 355q0 219 -134 351t-347 132q-135 0 -244 -8v-959q184 -8 280 -8zM664 1411q328 -1 534 -195t205 -515q0 -321 -200 -519q-201 -198 -513 -198t-516 16v1393q308 18 490 18z" />
    <glyph glyph-name="E" unicode="E" horiz-adv-x="1298" 
d="M420 809h678v-225h-678v-357h764v-227h-1010v1393h1010v-228h-764v-356z" />
    <glyph glyph-name="F" unicode="F" horiz-adv-x="1224" 
d="M420 754h649v-228h-649v-526h-246v1393h983v-228h-737v-411z" />
    <glyph glyph-name="G" unicode="G" horiz-adv-x="1638" 
d="M1501 801v-680q-352 -152 -643 -152q-336 0 -540 202q-204 203 -204 529t215 525q214 199 564 198q236 0 479 -61l-49 -229q-291 53 -412 53q-242 0 -390 -133t-148 -353t133 -356q133 -135 340 -135t422 61v303h-502v228h735z" />
    <glyph glyph-name="H" unicode="H" horiz-adv-x="1554" 
d="M1380 0h-243v569h-717v-569h-246v1393h246v-596h717v596h243v-1393z" />
    <glyph glyph-name="I" unicode="I" horiz-adv-x="593" 
d="M420 1393v-1393h-246v1393h246z" />
    <glyph glyph-name="J" unicode="J" horiz-adv-x="1155" 
d="M1001 1393v-856q0 -264 -135 -416t-352 -152t-483 82l45 219q254 -63 428 -63q110 0 180 87t70 241v858h247z" />
    <glyph glyph-name="K" unicode="K" horiz-adv-x="1439" 
d="M420 518v-518h-246v1393h246v-635h110l533 635h305l-553 -658l580 -735h-303l-422 518h-250z" />
    <glyph glyph-name="L" unicode="L" horiz-adv-x="1220" 
d="M1153 0h-979v1393h246v-1172h733v-221z" />
    <glyph glyph-name="M" unicode="M" horiz-adv-x="1912" 
d="M1464 844l-399 -844h-217l-399 844l-56 -844h-239l79 1393h232l491 -1098l490 1098h233l80 -1393h-239z" />
    <glyph glyph-name="N" unicode="N" horiz-adv-x="1595" 
d="M1421 1393v-1393h-233l-768 975v-975h-246v1393h227l777 -985v985h243z" />
    <glyph glyph-name="O" unicode="O" horiz-adv-x="1714" 
d="M858 201q213 0 348 137t135 358q0 220 -135 358t-348 138t-349 -137t-136 -359t136 -358q136 -137 349 -137zM858 1423q328 -1 535 -201t207 -526t-208 -526q-206 -200 -534 -201q-328 0 -536 201q-208 200 -207 526q-1 326 207 526t536 201z" />
    <glyph glyph-name="P" unicode="P" horiz-adv-x="1318" 
d="M420 657h278q135 0 222 73q86 73 86 195q0 123 -85 191t-232 68t-269 -8v-519zM672 1411q256 0 414 -131t159 -352q0 -222 -160 -358t-413 -136h-252v-434h-246v1393q299 18 498 18z" />
    <glyph glyph-name="Q" unicode="Q" horiz-adv-x="1714" 
d="M373 696q0 -221 136 -358t349 -137t348 137t135 358q0 220 -135 358t-348 138t-349 -138t-136 -358zM1599 696q1 -229 -107 -401t-294 -256l328 -377h-309l-275 311q-57 -4 -86 -4q-328 0 -534 201q-206 200 -207 526q0 326 207 527q206 201 534 201t536 -201
q207 -201 207 -527z" />
    <glyph glyph-name="R" unicode="R" horiz-adv-x="1374" 
d="M420 670h291q127 0 210 74t83 194q0 121 -83 183t-227 63q-86 0 -274 -4v-510zM616 451h-196v-451h-246v1393q326 12 510 12q256 0 408 -123t151 -348q0 -143 -75 -253t-207 -169l370 -512h-299l-315 453q-33 -2 -101 -2z" />
    <glyph glyph-name="S" unicode="S" horiz-adv-x="1390" 
d="M680 1190q-121 0 -191 -46q-69 -46 -69 -133t79 -125t302 -83t341 -131t118 -284t-152 -308t-428 -111q-276 0 -559 117l57 229q285 -115 537 -114q297 0 297 178q0 70 -60 116t-116 61q-56 14 -138 30t-98 20q-236 49 -337 136t-101 266t143 292t405 113t509 -94
l-64 -217q-279 88 -475 88z" />
    <glyph glyph-name="T" unicode="T" horiz-adv-x="1384" 
d="M815 1165v-1165h-246v1165h-508v228h1262v-228h-508z" />
    <glyph glyph-name="U" unicode="U" horiz-adv-x="1556" 
d="M1403 1393v-799q0 -287 -171 -456t-454 -169q-284 0 -454 169t-170 456v799h245v-799q1 -184 103 -290t275 -105q173 0 277 105q103 105 103 290v799h246z" />
    <glyph glyph-name="V" unicode="V" horiz-adv-x="1558" 
d="M897 0h-233l-605 1393h283l436 -1061l443 1061h278z" />
    <glyph glyph-name="W" unicode="W" horiz-adv-x="2170" 
d="M1659 0h-234l-340 975l-340 -975h-233l-463 1393h260l326 -1014l346 1014h209l346 -1014l326 1014h260z" />
    <glyph glyph-name="X" unicode="X" horiz-adv-x="1513" 
d="M926 688l538 -688h-290l-416 502l-416 -502h-293l537 688l-523 705h304l391 -504l387 504h305z" />
    <glyph glyph-name="Y" unicode="Y" horiz-adv-x="1490" 
d="M870 0h-247v469l-580 924h279l421 -666l426 666h277l-576 -924v-469z" />
    <glyph glyph-name="Z" unicode="Z" horiz-adv-x="1372" 
d="M1257 227v-227h-1146v152l792 1013h-762v228h1106v-152l-776 -1014h786z" />
    <glyph glyph-name="bracketleft" unicode="[" horiz-adv-x="722" 
d="M356 -256h295v-227h-532v2033h532v-227h-295v-1579z" />
    <glyph glyph-name="backslash" unicode="\" horiz-adv-x="1038" 
d="M330 1573l663 -2130h-243l-666 2130h246z" />
    <glyph glyph-name="bracketright" unicode="]" horiz-adv-x="722" 
d="M70 1323v227h532v-2033h-532v227h297v1579h-297z" />
    <glyph glyph-name="asciicircum" unicode="^" horiz-adv-x="878" 
d="M438 1184l-170 -254h-233l305 463h197l307 -463h-234z" />
    <glyph glyph-name="underscore" unicode="_" horiz-adv-x="1298" 
d="M68 -205h1163v-207h-1163v207z" />
    <glyph glyph-name="grave" unicode="`" 
d="M819 1153h-231l-240 309h316z" />
    <glyph glyph-name="a" unicode="a" horiz-adv-x="1257" 
d="M602 801q-142 0 -212 -86q-70 -85 -68 -229q0 -144 74 -231t207 -87q134 0 269 104v512q-128 17 -270 17zM567 999q221 0 541 -47v-952h-236v74q-147 -104 -313 -105q-211 1 -340 143t-128 376t128 372t348 139z" />
    <glyph glyph-name="b" unicode="b" horiz-adv-x="1263" 
d="M639 801q-127 0 -246 -27v-586q166 -20 260 -20q143 0 217 87t74 239q0 307 -305 307zM393 1454v-481q127 27 277 26q248 0 376 -136q128 -137 128 -375t-130 -375t-337 -138q-260 0 -549 39v1440h235z" />
    <glyph glyph-name="c" unicode="c" horiz-adv-x="1064" 
d="M666 809q-158 0 -250 -88q-92 -87 -92 -231t90 -229t223 -85t313 45l33 -190q-180 -61 -350 -62q-239 -1 -391 143t-152 380t152 376t401 140q180 -1 336 -52l-33 -188q-188 41 -280 41z" />
    <glyph glyph-name="d" unicode="d" horiz-adv-x="1263" 
d="M625 801q-305 0 -306 -307q0 -152 74 -239t217 -87q94 0 260 20v586q-118 27 -245 27zM1106 1454v-1440q-289 -39 -549 -39q-209 -1 -338 137t-129 376t128 375q128 136 376 136q150 0 276 -26v481h236z" />
    <glyph glyph-name="e" unicode="e" horiz-adv-x="1163" 
d="M605 815q-111 -1 -183 -65t-88 -175h526q-4 109 -74 175t-181 65zM593 1001q214 1 346 -117t134 -311q0 -92 -14 -178h-717q28 -100 106 -157q78 -58 192 -58t357 53l33 -192q-231 -72 -387 -72q-265 1 -409 145t-144 374t144 372q145 141 359 141z" />
    <glyph glyph-name="f" unicode="f" horiz-adv-x="847" 
d="M836 758h-347v-758h-235v758h-236v211h236v157q0 192 108 302t287 110q82 0 160 -22l-35 -199q-74 8 -115 8q-77 0 -123 -52t-47 -155v-149h347v-211z" />
    <glyph glyph-name="g" unicode="g" horiz-adv-x="1247" 
d="M602 801q-142 0 -212 -86q-70 -87 -68 -223q0 -136 74 -220t214 -84q142 0 262 21v575q-128 17 -270 17zM1108 20q0 -244 -143 -391t-410 -147q-150 0 -348 61l39 195q221 -45 301 -45q151 0 235 82t90 231q-134 -16 -328 -16t-324 139t-130 366t128 365t354 139
q226 0 376 -22q149 -22 160 -25v-932z" />
    <glyph glyph-name="h" unicode="h" horiz-adv-x="1265" 
d="M730 999q171 0 283 -102t111 -274v-623h-235v555q1 105 -61 167t-176 62t-255 -30v-754h-235v1454h235v-485q162 30 333 30z" />
    <glyph glyph-name="i" unicode="i" horiz-adv-x="536" 
d="M387 969v-969h-235v969h235zM268 1135q-66 0 -112 44q-46 45 -45 111q0 66 45 111q46 45 112 45t112 -45t46 -112t-46 -111t-112 -43z" />
    <glyph glyph-name="j" unicode="j" horiz-adv-x="522" 
d="M360 969v-998q0 -245 -92 -359t-346 -118l-20 207q131 -4 177 52t46 190v1026h235zM243 1446q67 0 113 -45t45 -112q0 -67 -46 -111q-47 -44 -113 -43q-66 0 -113 44q-47 45 -47 111t47 111t114 45z" />
    <glyph glyph-name="k" unicode="k" horiz-adv-x="1187" 
d="M393 602h82l344 367h289l-385 -412l418 -557h-277l-297 381h-174v-381h-235v1454h235v-852z" />
    <glyph glyph-name="l" unicode="l" horiz-adv-x="563" 
d="M399 1454v-1454h-235v1454h235z" />
    <glyph glyph-name="m" unicode="m" horiz-adv-x="1896" 
d="M1346 999q410 0 409 -376v-623h-235v555q0 229 -226 229q-129 0 -235 -30q16 -59 16 -129v-625h-237v559q0 117 -56 171t-169 54q-114 0 -220 -14v-770h-235v948q68 16 222 34t306 17q150 0 248 -63q172 63 412 63z" />
    <glyph glyph-name="n" unicode="n" horiz-adv-x="1263" 
d="M715 999q184 0 295 -102t110 -274v-623h-235v555q-1 105 -61 167t-170 62t-261 -16v-768h-235v952q240 47 557 47z" />
    <glyph glyph-name="o" unicode="o" horiz-adv-x="1261" 
d="M328 490q0 -140 84 -226t220 -86t219 86t83 226t-83 223q-83 84 -219 84t-220 -84t-84 -223zM90 490q0 236 150 378q150 144 392 144t392 -144t150 -378q0 -236 -150 -381t-392 -145t-392 144q-150 146 -150 382z" />
    <glyph glyph-name="p" unicode="p" horiz-adv-x="1275" 
d="M674 188q122 0 196 84t74 220t-70 222t-212 87q-142 0 -269 -17v-575q121 -21 281 -21zM676 999q240 0 368 -137q127 -137 132 -373q0 -221 -130 -360t-326 -139t-327 16v-479h-235v1425q278 47 518 47z" />
    <glyph glyph-name="q" unicode="q" horiz-adv-x="1275" 
d="M602 188q160 0 281 21v575q-127 16 -269 16t-213 -85q-69 -87 -69 -223t74 -220t196 -84zM600 999q240 0 518 -47v-1425h-235v479q-131 -16 -327 -16t-326 139t-128 367t129 366q129 137 369 137z" />
    <glyph glyph-name="r" unicode="r" horiz-adv-x="821" 
d="M754 999v-231q-195 0 -361 -14v-754h-235v940q326 59 596 59z" />
    <glyph glyph-name="s" unicode="s" horiz-adv-x="1077" 
d="M562 164q190 0 190 100q0 30 -23 53t-60 35q-37 13 -66 19q-28 6 -45 10t-48 9q-206 33 -292 104q-85 70 -85 202t111 216q110 83 314 83t384 -71l-57 -183q-213 66 -353 66q-168 0 -167 -107q0 -76 217 -117t302 -103t85 -191q0 -160 -116 -240q-117 -80 -325 -80
t-419 86l47 195q216 -86 406 -86z" />
    <glyph glyph-name="t" unicode="t" horiz-adv-x="931" 
d="M614 -31q-174 1 -267 99t-93 284v406h-211v211h211v364h235v-364h320v-211h-320v-381q0 -101 40 -149q41 -48 131 -48t186 17l24 -197q-133 -31 -256 -31z" />
    <glyph glyph-name="u" unicode="u" horiz-adv-x="1267" 
d="M1118 969v-949q-86 -18 -255 -34t-302 -17q-190 0 -299 91t-108 286v623h237v-568q0 -229 221 -229q129 0 269 18v779h237z" />
    <glyph glyph-name="v" unicode="v" horiz-adv-x="1226" 
d="M739 0h-252l-428 969h258l297 -688l295 688h260z" />
    <glyph glyph-name="w" unicode="w" horiz-adv-x="1675" 
d="M1294 0h-229l-227 629l-228 -629h-227l-322 969h240l207 -650l240 650h182l237 -652l207 652h240z" />
    <glyph glyph-name="x" unicode="x" horiz-adv-x="1167" 
d="M737 487l373 -487h-276l-248 326l-252 -326h-277l371 487l-369 484h283l242 -314l241 314h285z" />
    <glyph glyph-name="y" unicode="y" horiz-adv-x="1312" 
d="M1255 969l-698 -1440h-266l262 539l-479 901h270l336 -639l309 639h266z" />
    <glyph glyph-name="z" unicode="z" horiz-adv-x="1030" 
d="M956 205v-205h-866v115l506 651h-496v205h822v-131l-492 -635h526z" />
    <glyph glyph-name="braceleft" unicode="{" horiz-adv-x="751" 
d="M504 1190v-428q0 -104 -31 -158t-121 -82q90 -29 121 -81t31 -156v-428q0 -92 40 -125t136 -33v-213q-412 0 -412 381v409q0 92 -37 117t-139 25v211q102 1 139 25t37 114v412q0 381 412 381v-213q-96 0 -136 -33t-40 -125z" />
    <glyph glyph-name="bar" unicode="|" horiz-adv-x="653" 
d="M436 1554v-1880h-219v1880h219z" />
    <glyph glyph-name="braceright" unicode="}" horiz-adv-x="751" 
d="M246 762v428q0 92 -39 125t-137 33v213q414 0 413 -381v-412q0 -90 37 -115t139 -24v-211q-102 0 -139 -25t-37 -117v-409q0 -381 -413 -381v213q98 0 137 33t39 125v428q0 104 30 156q31 52 123 81q-89 28 -121 82t-32 158z" />
    <glyph glyph-name="asciitilde" unicode="~" horiz-adv-x="911" 
d="M651 827h209q0 -97 -39 -165q-72 -125 -218 -119q-65 2 -118 32l-114 70q-57 29 -85 9t-28 -70h-207q0 98 39 166q71 124 218 119q65 -1 118 -31l113 -72q57 -30 85 -8t27 69z" />
    <glyph glyph-name="exclamdown" unicode="&#xa1;" horiz-adv-x="565" 
d="M154 578h235l12 -998h-262zM274 702q-66 0 -112 44t-45 109q-1 65 45 109t113 44t113 -44t46 -108t-47 -110q-47 -44 -113 -44z" />
    <glyph glyph-name="cent" unicode="&#xa2;" horiz-adv-x="1058" 
d="M731 -244h-213v244q-196 31 -314 168t-118 340t118 339t314 169v246h213v-244q119 -8 246 -51l-33 -195q-194 43 -316 43t-211 -85t-89 -222t88 -222t212 -85t320 43l35 -193q-125 -43 -252 -55v-240z" />
    <glyph glyph-name="sterling" unicode="&#xa3;" horiz-adv-x="1236" 
d="M1157 0h-1087v207h129v358h-129v207h129v219q0 195 134 314t357 118q178 0 383 -47l-35 -196q-219 34 -344 34q-124 0 -192 -59t-68 -162v-221h420v-207h-420v-358h723v-207z" />
    <glyph glyph-name="yen" unicode="&#xa5;" horiz-adv-x="1484" 
d="M1290 608v-174h-422v-115h422v-172h-422v-147h-250v147h-423v172h423v115h-423v174h337l-491 785h278l422 -666l424 666h279l-492 -785h338z" />
    <glyph glyph-name="brokenbar" unicode="&#xa6;" horiz-adv-x="653" 
d="M436 -328h-219v836h219v-836zM436 717h-219v835h219v-835z" />
    <glyph glyph-name="section" unicode="&#xa7;" horiz-adv-x="1128" 
d="M289 607q1 -87 69 -131t187 -84t190 -68q105 94 105 181t-68 131t-192 84t-187 68q-104 -94 -104 -181zM594 1423q215 0 391 -86l-70 -178q-189 76 -307 76q-232 0 -233 -141q0 -67 59 -100l30 -15q11 -6 39 -15q28 -8 43 -14t51 -17q255 -78 352 -159q97 -80 98 -229
q0 -186 -166 -305q96 -84 96 -228t-114 -233q-115 -90 -329 -90t-391 86l70 178q188 -76 307 -76q234 0 236 141q0 37 -18 62t-39 36t-33 17t-39 15q-27 10 -43 16t-50 16q-253 75 -352 156q-98 82 -98 231q0 190 166 305q-98 82 -98 226t113 235q114 90 329 90z" />
    <glyph glyph-name="dieresis" unicode="&#xa8;" 
d="M835 1427q62 0 105 -41t43 -101t-43 -102t-105 -42t-106 42q-43 42 -43 102t43 101q44 41 106 41zM396 1427q62 0 106 -41t43 -101q0 -60 -43 -102q-44 -42 -106 -42t-105 42t-43 102t43 101t105 41z" />
    <glyph glyph-name="copyright" unicode="&#xa9;" horiz-adv-x="1683" 
d="M853 934q-102 0 -165 -62t-63 -175q0 -112 62 -173q63 -61 165 -61t248 33l24 -148q-137 -47 -260 -47q-204 0 -314 110q-110 111 -110 287t110 287t314 111q125 0 262 -47l-26 -150q-145 35 -247 35zM842 1315q-268 0 -450 -178q-182 -179 -183 -441q0 -262 182 -440
q183 -178 451 -178t450 178t183 440q-1 262 -183 440t-450 179zM842 1423q319 0 533 -208t214 -519t-214 -519t-533 -208t-534 208q-214 208 -214 519t214 519q215 208 534 208z" />
    <glyph glyph-name="ordfeminine" unicode="&#xaa;" horiz-adv-x="948" 
d="M424 838q86 0 223 16v160l-233 -13q-72 -2 -103 -21t-30 -60q0 -82 143 -82zM500 1423q317 0 317 -262v-436q-263 -37 -413 -37t-223 62t-72 172q0 203 329 217l209 12v8q-4 53 -37 78t-126 25t-283 -27l-19 156q191 32 318 32z" />
    <glyph glyph-name="guillemotleft" unicode="&#xab;" horiz-adv-x="1193" 
d="M1053 203l-131 -119l-381 420l381 418l135 -105l-252 -307zM600 203l-131 -119l-381 420l381 418l133 -105l-250 -307z" />
    <glyph glyph-name="registered" unicode="&#xae;" horiz-adv-x="1683" 
d="M854 952q-94 0 -141 -2v-248h153q57 0 98 37q40 37 40 92q0 121 -150 121zM848 1104q147 0 235 -72t88 -203q0 -156 -147 -233l203 -279h-209l-162 236h-143v-236h-172v781q160 6 307 6zM842 1315q-268 0 -450 -178q-182 -179 -183 -441q0 -262 182 -440
q183 -178 451 -178t450 178t183 440q-1 262 -183 440t-450 179zM842 1423q319 0 533 -208t214 -519t-214 -519t-533 -208t-534 208q-214 208 -214 519t214 519q215 208 534 208z" />
    <glyph glyph-name="macron" unicode="&#xaf;" 
d="M899 1391v-193h-569v193h569z" />
    <glyph glyph-name="degree" unicode="&#xb0;" horiz-adv-x="964" 
d="M482 909q71 0 122 50t51 120t-50 119t-122 49t-123 -49t-51 -119t51 -120t122 -50zM129 1078q0 148 100 246t253 99q153 0 254 -98q102 -98 102 -247t-102 -247t-254 -98q-153 0 -253 98q-100 99 -100 247z" />
    <glyph glyph-name="plusminus" unicode="&#xb1;" horiz-adv-x="1402" 
d="M1190 291v-219h-977v219h977zM1190 659h-375v-280h-225v280h-377v220h377v282h225v-282h375v-220z" />
    <glyph glyph-name="twosuperior" unicode="&#xb2;" horiz-adv-x="718" 
d="M651 592h-596v121l283 254q57 51 78 81q20 30 20 76q0 109 -135 109q-92 0 -213 -39l-39 160q129 49 281 49t226 -74t73 -170q0 -96 -50 -172t-147 -162l-86 -77h305v-156z" />
    <glyph glyph-name="threesuperior" unicode="&#xb3;" horiz-adv-x="739" 
d="M672 850q0 -268 -336 -268q-170 0 -291 67l64 144q119 -53 213 -53q180 -1 180 94q0 80 -119 79h-205v88l207 228h-295v164h545v-111l-211 -217l14 -2q104 -9 169 -69t65 -144z" />
    <glyph glyph-name="acute" unicode="&#xb4;" 
d="M938 1462l-240 -309h-231l156 309h315z" />
    <glyph glyph-name="paragraph" unicode="&#xb6;" horiz-adv-x="1566" 
d="M291 924q-1 -125 67 -196t199 -71h182v525l-182 2q-266 0 -266 -260zM584 1411q547 0 846 -18v-1616h-246v1394l-201 7v-1401h-244v657h-155q-250 0 -393 134q-142 134 -142 360t141 354q142 129 394 129z" />
    <glyph glyph-name="periodcentered" unicode="&#xb7;" horiz-adv-x="618" 
d="M308 371q-73 0 -123 49t-50 120q0 72 50 120t123 48t124 -48q51 -50 51 -120t-51 -120q-51 -49 -124 -49z" />
    <glyph glyph-name="cedilla" unicode="&#xb8;" 
d="M616 -428h-196l92 326h225z" />
    <glyph glyph-name="onesuperior" unicode="&#xb9;" horiz-adv-x="626" 
d="M565 758v-160h-520v160h172v413l-160 -45l-41 162l332 105h51v-635h166z" />
    <glyph glyph-name="ordmasculine" unicode="&#xba;" horiz-adv-x="944" 
d="M473 852q86 0 143 56q58 56 58 148t-58 146q-58 55 -143 55q-86 0 -144 -56q-59 -56 -59 -146q0 -91 58 -147t145 -56zM472 684q-168 0 -278 103t-110 267t110 267q110 102 278 102q169 0 279 -101q109 -101 109 -266t-109 -269q-110 -103 -279 -103z" />
    <glyph glyph-name="guillemotright" unicode="&#xbb;" horiz-adv-x="1193" 
d="M582 817l135 105l379 -418l-379 -420l-131 119l248 307zM129 817l133 105l381 -418l-381 -420l-131 119l248 307z" />
    <glyph glyph-name="onequarter" unicode="&#xbc;" horiz-adv-x="1845" 
d="M1438 324v268l-236 -268h236zM1735 324v-156h-119v-168h-178v168h-463v129l450 498h191v-471h119zM1487 1393l-946 -1393h-131l946 1393h131zM143 598v160h172v413l-159 -45l-41 162l331 105h52v-635h166v-160h-521z" />
    <glyph glyph-name="onehalf" unicode="&#xbd;" horiz-adv-x="1841" 
d="M1753 156v-156h-598v121l285 254q57 51 78 81q20 30 20 76q0 109 -137 109q-90 0 -211 -39l-39 160q129 49 281 49t226 -74t73 -170t-51 -172t-146 -162l-88 -77h307zM1464 1393l-946 -1393h-133l946 1393h133zM143 598v160h172v413l-159 -45l-41 162l331 105h52v-635
h166v-160h-521z" />
    <glyph glyph-name="threequarters" unicode="&#xbe;" horiz-adv-x="1886" 
d="M1481 324v268l-236 -268h236zM1661 324h117v-156h-117v-168h-180v168h-463v129l450 498h193v-471zM563 0h-131l946 1393h131zM391 582q-170 0 -291 67l64 144q119 -53 213 -53q180 -1 180 94q0 80 -119 79h-205v88l207 228h-295v164h545v-111l-211 -217l15 -2
q104 -9 169 -69t64 -144q0 -268 -336 -268z" />
    <glyph glyph-name="questiondown" unicode="&#xbf;" horiz-adv-x="1054" 
d="M592 -401q-223 0 -359 119q-135 120 -135 312t125 315q125 124 320 124h28l-8 160h221l37 -359h-229q-119 0 -192 -68q-72 -68 -72 -171q0 -104 70 -163q71 -58 193 -58t347 32l35 -196q-203 -47 -381 -47zM672 752q-66 0 -113 44t-47 108t47 110q47 45 113 45t112 -45
q46 -46 45 -110q1 -64 -45 -108t-112 -44z" />
    <glyph glyph-name="Agrave" unicode="&#xc0;" horiz-adv-x="1597" 
d="M799 1081l-252 -575h504zM451 285l-125 -285h-277l635 1401h229l633 -1401h-276l-125 285h-694zM918 1534h-232l-240 291h316z" />
    <glyph glyph-name="Aacute" unicode="&#xc1;" horiz-adv-x="1597" 
d="M799 1081l-252 -575h504zM451 285l-125 -285h-277l635 1401h229l633 -1401h-276l-125 285h-694zM1180 1825l-240 -291h-248l172 291h316z" />
    <glyph glyph-name="Acircumflex" unicode="&#xc2;" horiz-adv-x="1597" 
d="M799 1081l-252 -575h504zM451 285l-125 -285h-277l635 1401h229l633 -1401h-276l-125 285h-694zM799 1681l-119 -147h-231l245 291h209l248 -291h-233z" />
    <glyph glyph-name="Atilde" unicode="&#xc3;" horiz-adv-x="1597" 
d="M799 1081l-252 -575h504zM451 285l-125 -285h-277l635 1401h229l633 -1401h-276l-125 285h-694zM975 1786h188q0 -88 -35 -150q-64 -112 -196 -107q-57 1 -107 30l-100 63q-53 24 -77 6t-23 -61h-191q0 88 35 149q65 114 198 109q58 -2 105 -29l102 -63q51 -25 76 -7
t25 60z" />
    <glyph glyph-name="Adieresis" unicode="&#xc4;" horiz-adv-x="1597" 
d="M799 1081l-252 -575h504zM451 285l-125 -285h-277l635 1401h229l633 -1401h-276l-125 285h-694zM1017 1530q-62 0 -106 42q-43 42 -43 102t43 102t105 43q62 0 106 -42q43 -43 43 -103t-43 -102t-105 -42zM579 1530q-62 0 -106 42q-43 42 -43 102t43 102t105 43
q62 0 106 -42q43 -43 43 -103t-43 -102t-105 -42z" />
    <glyph glyph-name="Aring" unicode="&#xc5;" horiz-adv-x="1597" 
d="M799 1081l-252 -575h504zM451 285l-125 -285h-277l635 1401h229l633 -1401h-276l-125 285h-694zM702 1711q0 -41 27 -67t69 -26t68 26t25 68q0 42 -26 67q-25 25 -67 25t-69 -26t-27 -67zM797 1925q101 0 165 -58q64 -59 64 -155t-63 -156t-165 -59q-102 0 -166 59
q-62 60 -62 156t62 154q63 58 165 59z" />
    <glyph glyph-name="AE" unicode="&#xc6;" horiz-adv-x="2236" 
d="M1112 506v584l-410 -584h410zM1358 809h678v-225h-678v-357h764v-227h-1010v279h-567l-195 -279h-301l998 1393h1075v-228h-764v-356z" />
    <glyph glyph-name="Ccedilla" unicode="&#xc7;" horiz-adv-x="1492" 
d="M784 -428h-196l92 326h225zM375 696q0 -222 142 -358q142 -137 378 -137q172 0 436 61l45 -215q-268 -78 -493 -78q-346 0 -557 201q-211 202 -211 528t212 526t558 199q247 0 485 -63l-45 -232q-254 57 -405 58q-260 0 -402 -134t-143 -356z" />
    <glyph glyph-name="Egrave" unicode="&#xc8;" horiz-adv-x="1298" 
d="M420 809h678v-225h-678v-357h764v-227h-1010v1393h1010v-228h-764v-356zM791 1534h-232l-240 291h316z" />
    <glyph glyph-name="Eacute" unicode="&#xc9;" horiz-adv-x="1298" 
d="M420 809h678v-225h-678v-357h764v-227h-1010v1393h1010v-228h-764v-356zM1053 1825l-240 -291h-248l172 291h316z" />
    <glyph glyph-name="Ecircumflex" unicode="&#xca;" horiz-adv-x="1298" 
d="M420 809h678v-225h-678v-357h764v-227h-1010v1393h1010v-228h-764v-356zM672 1681l-119 -147h-231l245 291h209l248 -291h-233z" />
    <glyph glyph-name="Edieresis" unicode="&#xcb;" horiz-adv-x="1298" 
d="M420 809h678v-225h-678v-357h764v-227h-1010v1393h1010v-228h-764v-356zM890 1530q-62 0 -106 42q-43 42 -43 102t43 102q44 42 106 43q62 0 105 -42q43 -43 43 -103t-43 -102t-105 -42zM452 1530q-62 0 -106 42q-43 42 -43 102t43 102q44 42 106 43q62 0 105 -42
q43 -43 43 -103t-43 -102t-105 -42z" />
    <glyph glyph-name="Igrave" unicode="&#xcc;" horiz-adv-x="593" 
d="M420 1393v-1393h-246v1393h246zM416 1534h-232l-239 291h315z" />
    <glyph glyph-name="Iacute" unicode="&#xcd;" horiz-adv-x="593" 
d="M420 1393v-1393h-246v1393h246zM678 1825l-240 -291h-248l172 291h316z" />
    <glyph glyph-name="Icircumflex" unicode="&#xce;" horiz-adv-x="593" 
d="M420 1393v-1393h-246v1393h246zM297 1681l-119 -147h-231l246 291h208l248 -291h-233z" />
    <glyph glyph-name="Idieresis" unicode="&#xcf;" horiz-adv-x="593" 
d="M420 1393v-1393h-246v1393h246zM367 1674q0 60 43 102t105 43q61 0 105 -42q44 -43 44 -103t-44 -102t-105 -42q-62 0 -105 42t-43 102zM77 1530q-62 0 -106 42q-43 42 -43 102t43 102t105 43q62 0 106 -42q43 -43 43 -103t-43 -102t-105 -42z" />
    <glyph glyph-name="Eth" unicode="&#xd0;" horiz-adv-x="1517" 
d="M702 209q188 0 317 137q128 137 128 355q0 219 -134 351t-347 132q-137 0 -246 -8v-379h295v-228h-295v-352q184 -8 282 -8zM664 1411q328 -1 534 -195t205 -515q0 -321 -200 -519q-201 -198 -513 -198t-516 16v569h-115v228h115v596q308 18 490 18z" />
    <glyph glyph-name="Ntilde" unicode="&#xd1;" horiz-adv-x="1595" 
d="M1421 1393v-1393h-233l-768 975v-975h-246v1393h227l777 -985v985h243zM958 1786h189q0 -88 -35 -150q-64 -112 -197 -107q-57 1 -106 30l-100 63q-53 24 -77 6t-24 -61h-190q0 88 35 149t87 86t110 23t106 -29l102 -63q51 -25 76 -8q24 18 24 61z" />
    <glyph glyph-name="Ograve" unicode="&#xd2;" horiz-adv-x="1714" 
d="M858 201q213 0 348 137t135 358q0 220 -135 358t-348 138t-349 -137t-136 -359t136 -358q136 -137 349 -137zM856 1423q328 -1 536 -201t208 -526t-208 -526t-536 -201q-328 0 -534 201q-206 200 -207 526q1 326 207 526t534 201zM977 1534h-232l-239 291h315z" />
    <glyph glyph-name="Oacute" unicode="&#xd3;" horiz-adv-x="1714" 
d="M858 201q213 0 348 137t135 358q0 220 -135 358t-348 138t-349 -137t-136 -359t136 -358q136 -137 349 -137zM856 1423q328 -1 536 -201t208 -526t-208 -526t-536 -201q-328 0 -534 201q-206 200 -207 526q1 326 207 526t534 201zM1239 1825l-240 -291h-247l172 291h315z
" />
    <glyph glyph-name="Ocircumflex" unicode="&#xd4;" horiz-adv-x="1714" 
d="M858 201q213 0 348 137t135 358q0 220 -135 358t-348 138t-349 -137t-136 -359t136 -358q136 -137 349 -137zM856 1423q328 -1 536 -201t208 -526t-208 -526t-536 -201q-328 0 -534 201q-206 200 -207 526q1 326 207 526t534 201zM858 1681l-119 -147h-231l246 291h209
l247 -291h-233z" />
    <glyph glyph-name="Otilde" unicode="&#xd5;" horiz-adv-x="1714" 
d="M858 201q213 0 348 137t135 358q0 220 -135 358t-348 138t-349 -137t-136 -359t136 -358q136 -137 349 -137zM856 1423q328 -1 536 -201t208 -526t-208 -526t-536 -201q-328 0 -534 201q-206 200 -207 526q1 326 207 526t534 201zM1034 1786h189q0 -88 -35 -150
q-64 -112 -197 -107q-57 1 -106 30l-101 63q-52 24 -76 6t-24 -61h-190q0 88 34 149q65 114 198 109q58 -2 105 -29l103 -63q53 -25 77 -8q23 18 23 61z" />
    <glyph glyph-name="Odieresis" unicode="&#xd6;" horiz-adv-x="1714" 
d="M858 201q213 0 348 137t135 358q0 220 -135 358t-348 138t-349 -137t-136 -359t136 -358q136 -137 349 -137zM856 1423q328 -1 536 -201t208 -526t-208 -526t-536 -201q-328 0 -534 201q-206 200 -207 526q1 326 207 526t534 201zM928 1674q0 60 43 102t105 43
q62 0 106 -42q44 -43 43 -103q1 -60 -43 -102t-106 -42t-105 42t-43 102zM638 1530q-62 0 -106 42q-43 42 -43 102t43 102q44 42 106 43q62 0 105 -42q43 -43 43 -103t-43 -102t-105 -42z" />
    <glyph glyph-name="multiply" unicode="&#xd7;" horiz-adv-x="1386" 
d="M1147 360l-156 -155l-297 299l-299 -299l-155 155l299 299l-299 297l155 156l299 -297l297 297l156 -156l-297 -297z" />
    <glyph glyph-name="Oslash" unicode="&#xd8;" horiz-adv-x="1714" 
d="M858 201q213 0 348 137t135 358q0 180 -94 310l-649 -738q117 -67 260 -67zM373 696q0 -162 76 -282l636 727q-102 51 -227 51q-213 0 -349 -138t-136 -358zM1599 684q1 -314 -207 -514t-536 -201q-240 0 -422 113l-94 -109l-160 136l96 110q-162 195 -161 477
q0 326 207 527t534 200q219 0 393 -96l90 103l162 -138l-84 -96q182 -198 182 -512z" />
    <glyph glyph-name="Ugrave" unicode="&#xd9;" horiz-adv-x="1556" 
d="M1403 1393v-799q0 -287 -171 -456t-454 -169q-284 0 -454 169t-170 456v799h245v-799q1 -184 103 -290t275 -105q173 0 277 105q103 105 103 290v799h246zM899 1534h-231l-240 291h315z" />
    <glyph glyph-name="Uacute" unicode="&#xda;" horiz-adv-x="1556" 
d="M1403 1393v-799q0 -287 -171 -456t-454 -169q-284 0 -454 169t-170 456v799h245v-799q1 -184 103 -290t275 -105q173 0 277 105q103 105 103 290v799h246zM1161 1825l-239 -291h-248l172 291h315z" />
    <glyph glyph-name="Ucircumflex" unicode="&#xdb;" horiz-adv-x="1556" 
d="M1403 1393v-799q0 -287 -171 -456t-454 -169q-284 0 -454 169t-170 456v799h245v-799q1 -184 103 -290t275 -105q173 0 277 105q103 105 103 290v799h246zM778 1681l-119 -147h-231l246 291h209l247 -291h-233z" />
    <glyph glyph-name="Udieresis" unicode="&#xdc;" horiz-adv-x="1556" 
d="M1403 1393v-799q0 -287 -171 -456t-454 -169q-284 0 -454 169t-170 456v799h245v-799q1 -184 103 -290t275 -105q173 0 277 105q103 105 103 290v799h246zM848 1674q0 60 43 102t105 43q62 0 106 -42q44 -43 43 -103q1 -60 -43 -102t-106 -42t-105 42t-43 102zM410 1674
q0 60 43 102t105 43q62 0 106 -42q44 -43 43 -103q1 -60 -43 -102t-106 -42t-105 42t-43 102z" />
    <glyph glyph-name="Yacute" unicode="&#xdd;" horiz-adv-x="1490" 
d="M870 0h-249v469l-578 924h279l421 -666l424 666h279l-576 -924v-469zM1128 1825l-239 -291h-248l172 291h315z" />
    <glyph glyph-name="Thorn" unicode="&#xde;" horiz-adv-x="1318" 
d="M420 446h278q135 0 222 74q86 74 86 195t-86 189t-224 69q-138 0 -276 -6v-521zM672 1200q256 0 414 -131t159 -352q0 -221 -160 -357t-413 -135h-252v-225h-246v1393h246v-197q172 4 252 4z" />
    <glyph glyph-name="germandbls" unicode="&#xdf;" horiz-adv-x="1349" 
d="M573 1538v-213q-92 0 -134 -48t-42 -147v-161h797v-148l-281 -364l25 -2q162 -23 254 -129t92 -294t-136 -315t-357 -127q-154 0 -328 41l33 199q178 -31 296 -31t190 68t73 170q0 103 -65 159t-165 56h-213v117l273 383h-488v-752h-237v1155q-1 383 413 383z" />
    <glyph glyph-name="agrave" unicode="&#xe0;" horiz-adv-x="1257" 
d="M604 801q-141 0 -212 -86q-70 -85 -70 -229t74 -231t208 -87q133 0 268 104v512q-127 17 -268 17zM569 999q220 0 539 -47v-952h-236v74q-143 -104 -313 -105q-211 1 -340 143t-127 376t129 373q128 138 348 138zM791 1153h-232l-240 309h316z" />
    <glyph glyph-name="aacute" unicode="&#xe1;" horiz-adv-x="1257" 
d="M604 801q-141 0 -212 -86q-70 -85 -70 -229t74 -231t208 -87q133 0 268 104v512q-127 17 -268 17zM569 999q220 0 539 -47v-952h-236v74q-143 -104 -313 -105q-211 1 -340 143t-127 376t129 373q128 138 348 138zM991 1462l-239 -309h-232l156 309h315z" />
    <glyph glyph-name="acircumflex" unicode="&#xe2;" horiz-adv-x="1257" 
d="M604 801q-141 0 -212 -86q-70 -85 -70 -229t74 -231t208 -87q133 0 268 104v512q-127 17 -268 17zM569 999q220 0 539 -47v-952h-236v74q-143 -104 -313 -105q-211 1 -340 143t-127 376t129 373q128 138 348 138zM647 1290l-121 -131h-231l246 283h209l247 -283h-233z
" />
    <glyph glyph-name="atilde" unicode="&#xe3;" horiz-adv-x="1257" 
d="M604 801q-141 0 -212 -86q-70 -85 -70 -229t74 -231t208 -87q133 0 268 104v512q-127 17 -268 17zM569 999q220 0 539 -47v-952h-236v74q-143 -104 -313 -105q-211 1 -340 143t-127 376t129 373q128 138 348 138zM823 1407h189q0 -87 -35 -149q-66 -115 -197 -109
q-57 2 -106 29l-101 63q-53 25 -77 7t-23 -60h-190q0 88 34 149q63 110 198 108q58 -1 106 -30l102 -63q51 -24 75 -6t25 61z" />
    <glyph glyph-name="adieresis" unicode="&#xe4;" horiz-adv-x="1257" 
d="M604 801q-141 0 -212 -86q-70 -85 -70 -229t74 -231t208 -87q133 0 268 104v512q-127 17 -268 17zM569 999q220 0 539 -47v-952h-236v74q-143 -104 -313 -105q-211 1 -340 143t-127 376t129 373q128 138 348 138zM867 1427q61 0 105 -41t44 -101t-43 -102t-105 -42
t-106 42q-43 42 -43 102t43 101t105 41zM429 1427q61 0 105 -41t44 -101t-43 -102t-105 -42t-106 42q-43 42 -43 102t43 101t105 41z" />
    <glyph glyph-name="aring" unicode="&#xe5;" horiz-adv-x="1257" 
d="M604 801q-141 0 -212 -86q-70 -85 -70 -229t74 -231t208 -87q133 0 268 104v512q-127 17 -268 17zM569 999q220 0 539 -47v-952h-236v74q-143 -104 -313 -105q-211 1 -340 143t-127 376t129 373q128 138 348 138zM551 1328q1 -42 27 -68t68 -25q42 0 68 26q26 25 26 67
t-26 68t-68 26t-68 -26t-27 -68zM645 1542q101 0 165 -58t64 -154t-63 -156t-165 -60t-166 60q-62 60 -62 155q0 96 62 155q63 58 165 58z" />
    <glyph glyph-name="ae" unicode="&#xe6;" horiz-adv-x="1837" 
d="M299 283q0 -123 211 -123q135 0 311 55q-41 68 -57 160l-266 -2q-109 -1 -154 -21t-45 -69zM1271 815q-109 -1 -181 -65t-93 -175h529q-2 109 -74 175t-181 65zM1739 565q0 -84 -15 -170h-720q28 -100 108 -157q80 -58 196 -58t353 53l35 -192q-231 -72 -387 -72
q-213 0 -355 99q-249 -84 -380 -95q-48 -4 -121 -4q-182 0 -280 85q-97 86 -97 236t107 216q108 66 331 63l240 -2v49q0 98 -37 142t-159 43q-122 0 -359 -37l-25 199q254 45 422 45q240 0 322 -131q141 125 347 125t339 -118t135 -311v-8z" />
    <glyph glyph-name="ccedilla" unicode="&#xe7;" horiz-adv-x="1064" 
d="M575 -428h-196l92 326h225zM666 809q-158 0 -249 -88q-91 -87 -91 -231t89 -229t224 -85t311 45l35 -190q-184 -61 -352 -62q-239 -1 -391 143t-152 380t152 376t401 140q182 -1 336 -52l-33 -188q-188 41 -280 41z" />
    <glyph glyph-name="egrave" unicode="&#xe8;" horiz-adv-x="1163" 
d="M606 815q-110 -1 -182 -65t-90 -175h526q-2 109 -72 175t-182 65zM593 1001q214 1 347 -117t135 -311q0 -92 -14 -178h-719q27 -100 107 -157q80 -58 193 -58t355 53l33 -192q-227 -72 -387 -72q-265 1 -409 145t-144 374t144 372q145 141 359 141zM762 1153h-232
l-239 309h315z" />
    <glyph glyph-name="eacute" unicode="&#xe9;" horiz-adv-x="1163" 
d="M606 815q-110 -1 -182 -65t-90 -175h526q-2 109 -72 175t-182 65zM593 1001q214 1 347 -117t135 -311q0 -92 -14 -178h-719q27 -100 107 -157q80 -58 193 -58t355 53l33 -192q-227 -72 -387 -72q-265 1 -409 145t-144 374t144 372q145 141 359 141zM961 1462l-240 -309
h-232l156 309h316z" />
    <glyph glyph-name="ecircumflex" unicode="&#xea;" horiz-adv-x="1163" 
d="M606 815q-110 -1 -182 -65t-90 -175h526q-2 109 -72 175t-182 65zM593 1001q214 1 347 -117t135 -311q0 -92 -14 -178h-719q27 -100 107 -157q80 -58 193 -58t355 53l33 -192q-227 -72 -387 -72q-265 1 -409 145t-144 374t144 372q145 141 359 141zM616 1290l-120 -131
h-232l246 283h209l246 -283h-232z" />
    <glyph glyph-name="edieresis" unicode="&#xeb;" horiz-adv-x="1163" 
d="M606 815q-110 -1 -182 -65t-90 -175h526q-2 109 -72 175t-182 65zM593 1001q214 1 347 -117t135 -311q0 -92 -14 -178h-719q27 -100 107 -157q80 -58 193 -58t355 53l33 -192q-227 -72 -387 -72q-265 1 -409 145t-144 374t144 372q145 141 359 141zM837 1427
q62 0 105 -41t43 -101t-43 -102t-105 -42t-106 42q-43 42 -43 102t43 101q44 41 106 41zM398 1427q62 0 106 -41t43 -101q0 -60 -43 -102q-44 -42 -106 -42t-105 42t-43 102t43 101t105 41z" />
    <glyph glyph-name="igrave" unicode="&#xec;" horiz-adv-x="538" 
d="M387 969v-969h-235v969h235zM373 1153h-232l-241 309h317z" />
    <glyph glyph-name="iacute" unicode="&#xed;" horiz-adv-x="538" 
d="M387 969v-969h-235v969h235zM621 1462l-240 -309h-231l155 309h316z" />
    <glyph glyph-name="icircumflex" unicode="&#xee;" horiz-adv-x="538" 
d="M387 969v-969h-235v969h235zM270 1290l-120 -131h-232l246 283h209l248 -283h-234z" />
    <glyph glyph-name="idieresis" unicode="&#xef;" horiz-adv-x="538" 
d="M387 969v-969h-235v969h235zM490 1427q62 0 106 -41t43 -101q0 -60 -43 -102q-44 -42 -106 -42t-105 42t-43 102t43 101t105 41zM52 1427q62 0 106 -41t43 -101q0 -60 -43 -102q-44 -42 -106 -42t-105 42t-43 102t43 101t105 41z" />
    <glyph glyph-name="eth" unicode="&#xf0;" horiz-adv-x="1261" 
d="M632 797q-130 0 -217 -85t-87 -222q0 -136 87 -224t219 -88t216 86t84 226t-86 223q-86 84 -216 84zM1174 528q0 -262 -150 -414t-390 -151t-392 147t-152 378t146 378q146 145 360 146q131 0 244 -74q-113 156 -203 215l-289 -104l-57 141l194 70q-102 63 -213 106
l240 100q117 -43 221 -116l195 71l57 -141l-117 -43q142 -127 224 -313t82 -396z" />
    <glyph glyph-name="ntilde" unicode="&#xf1;" horiz-adv-x="1263" 
d="M715 999q184 0 295 -102t110 -274v-623h-235v555q-1 105 -61 167t-170 62t-261 -16v-768h-235v952q246 47 557 47zM809 1407h188q-1 -87 -35 -149q-65 -115 -196 -109q-57 2 -107 29l-100 63q-51 25 -76 7t-24 -60h-191q0 88 35 149q63 110 198 108q58 -1 105 -30
l103 -63q53 -24 77 -6t23 61z" />
    <glyph glyph-name="ograve" unicode="&#xf2;" horiz-adv-x="1261" 
d="M328 490q0 -140 84 -226t220 -86t219 86t83 226t-83 223q-83 84 -219 84t-220 -84t-84 -223zM632 1012q242 0 392 -144t150 -378q0 -236 -148 -381t-393 -145q-243 0 -393 144q-150 146 -150 382t150 378q150 144 392 144zM776 1153h-231l-240 309h316z" />
    <glyph glyph-name="oacute" unicode="&#xf3;" horiz-adv-x="1261" 
d="M328 490q0 -140 84 -226t220 -86t219 86t83 226t-83 223q-83 84 -219 84t-220 -84t-84 -223zM632 1012q242 0 392 -144t150 -378q0 -236 -148 -381t-393 -145q-243 0 -393 144q-150 146 -150 382t150 378q150 144 392 144zM977 1462l-240 -309h-231l156 309h315z" />
    <glyph glyph-name="ocircumflex" unicode="&#xf4;" horiz-adv-x="1261" 
d="M328 490q0 -140 84 -226t220 -86t219 86t83 226t-83 223q-83 84 -219 84t-220 -84t-84 -223zM632 1012q242 0 392 -144t150 -378q0 -236 -148 -381t-393 -145q-243 0 -393 144q-150 146 -150 382t150 378q150 144 392 144zM633 1290l-121 -131h-231l245 283h209l248 -283
h-233z" />
    <glyph glyph-name="otilde" unicode="&#xf5;" horiz-adv-x="1261" 
d="M328 490q0 -140 84 -226t220 -86t219 86t83 226t-83 223q-83 84 -219 84t-220 -84t-84 -223zM632 1012q242 0 392 -144t150 -378q0 -236 -148 -381t-393 -145q-243 0 -393 144q-150 146 -150 382t150 378q150 144 392 144zM809 1407h188q-1 -87 -35 -149
q-65 -115 -196 -109q-57 2 -107 29l-100 63q-51 25 -76 7t-24 -60h-191q0 88 35 149q63 110 198 108q58 -1 105 -30l103 -63q53 -24 77 -6t23 61z" />
    <glyph glyph-name="odieresis" unicode="&#xf6;" horiz-adv-x="1261" 
d="M328 490q0 -140 84 -226t220 -86t219 86t83 226t-83 223q-83 84 -219 84t-220 -84t-84 -223zM632 1012q242 0 392 -144t150 -378q0 -236 -148 -381t-393 -145q-243 0 -393 144q-150 146 -150 382t150 378q150 144 392 144zM853 1427q62 0 105 -41t43 -101t-43 -102
t-105 -42t-105 42t-43 102t43 101t105 41zM415 1427q62 0 105 -41t43 -101t-43 -102t-105 -42t-106 42q-43 42 -43 102t43 101q44 41 106 41z" />
    <glyph glyph-name="divide" unicode="&#xf7;" horiz-adv-x="1402" 
d="M844 293q0 -57 -42 -96t-101 -39q-58 0 -99 39t-41 96t41 96t99 39q59 0 101 -39t42 -96zM213 784h977v-217h-977v217zM844 1069q0 -57 -42 -96t-101 -39q-58 0 -99 39t-41 96t41 96t99 39q59 0 101 -39t42 -96z" />
    <glyph glyph-name="oslash" unicode="&#xf8;" horiz-adv-x="1261" 
d="M633 178q135 0 218 86t83 210t-49 198l-389 -465q63 -29 137 -29zM328 492q0 -98 43 -173l383 457q-53 20 -121 21q-137 0 -221 -84t-84 -221zM90 500q0 224 150 368q150 143 393 144q150 0 268 -58l107 125l129 -108l-99 -117q136 -140 136 -370t-148 -375t-393 -146
q-160 0 -285 68l-106 -127l-129 110l102 121q-125 141 -125 365z" />
    <glyph glyph-name="ugrave" unicode="&#xf9;" horiz-adv-x="1267" 
d="M1116 969v-949q-84 -18 -253 -34t-302 -17q-408 0 -407 377v623h235v-568q0 -229 221 -229q129 0 271 18v779h235zM778 1153h-231l-240 309h316z" />
    <glyph glyph-name="uacute" unicode="&#xfa;" horiz-adv-x="1267" 
d="M1116 969v-949q-84 -18 -253 -34t-302 -17q-408 0 -407 377v623h235v-568q0 -229 221 -229q129 0 271 18v779h235zM979 1462l-240 -309h-231l156 309h315z" />
    <glyph glyph-name="ucircumflex" unicode="&#xfb;" horiz-adv-x="1267" 
d="M1116 969v-949q-84 -18 -253 -34t-302 -17q-408 0 -407 377v623h235v-568q0 -229 221 -229q129 0 271 18v779h235zM635 1290l-121 -131h-231l245 283h209l248 -283h-233z" />
    <glyph glyph-name="udieresis" unicode="&#xfc;" horiz-adv-x="1267" 
d="M1116 969v-949q-84 -18 -253 -34t-302 -17q-408 0 -407 377v623h235v-568q0 -229 221 -229q129 0 271 18v779h235zM855 1427q61 0 105 -41t44 -101t-43 -102t-105 -42t-106 42q-43 42 -43 102t43 101t105 41zM417 1427q62 0 105 -41t43 -101t-43 -102t-105 -42t-106 42
q-43 42 -43 102t43 101q44 41 106 41z" />
    <glyph glyph-name="yacute" unicode="&#xfd;" horiz-adv-x="1312" 
d="M1255 969l-698 -1440h-266l262 539l-479 901h270l336 -639l309 639h266zM762 1155h-232l156 309h315z" />
    <glyph glyph-name="thorn" unicode="&#xfe;" horiz-adv-x="1280" 
d="M658 168q140 0 216 87q74 87 74 230t-69 230q-69 86 -213 86t-269 -17v-596q121 -20 261 -20zM692 999q230 0 356 -137t132 -373q0 -235 -129 -377t-325 -142t-329 16v-459h-235v1927h235v-471q113 16 295 16z" />
    <glyph glyph-name="ydieresis" unicode="&#xff;" horiz-adv-x="1312" 
d="M1255 969l-698 -1440h-266l262 539l-479 901h270l336 -639l309 639h266zM878 1143q-62 0 -106 42q-43 42 -43 102q0 59 43 101q44 42 106 42t105 -41t43 -101t-43 -103q-43 -42 -105 -42zM291 1287q0 59 43 101t105 42q61 0 105 -41t44 -101t-44 -103q-44 -42 -105 -42
q-62 0 -105 42t-43 102z" />
    <glyph glyph-name="Amacron" unicode="&#x100;" horiz-adv-x="1597" 
d="M799 1081l-252 -575h504zM451 285l-125 -285h-277l635 1401h229l633 -1401h-276l-125 285h-694zM1118 1772v-191h-639v191h639z" />
    <glyph glyph-name="amacron" unicode="&#x101;" horiz-adv-x="1257" 
d="M604 801q-141 0 -212 -86q-70 -85 -70 -229t74 -231t208 -87q133 0 268 104v512q-127 17 -268 17zM569 999q220 0 539 -47v-952h-236v74q-143 -104 -313 -105q-211 1 -340 143t-127 376t129 373q128 138 348 138zM932 1391v-193h-570v193h570z" />
    <glyph glyph-name="Abreve" unicode="&#x102;" horiz-adv-x="1597" 
d="M799 1081l-252 -575h504zM451 285l-125 -285h-277l635 1401h229l633 -1401h-276l-125 285h-694zM915 1841h203q0 -145 -86 -227t-233 -82t-234 82q-86 82 -86 227h201q0 -125 118 -125t117 125z" />
    <glyph glyph-name="abreve" unicode="&#x103;" horiz-adv-x="1257" 
d="M604 801q-141 0 -212 -86q-70 -85 -70 -229t74 -231t208 -87q133 0 268 104v512q-127 17 -268 17zM569 999q220 0 539 -47v-952h-236v74q-143 -104 -313 -105q-211 1 -340 143t-127 376t129 373q128 138 348 138zM764 1450h203q0 -145 -86 -228q-85 -83 -233 -83t-234 83
t-86 228h200q0 -125 118 -125t118 125z" />
    <glyph glyph-name="Aogonek" unicode="&#x104;" horiz-adv-x="1597" 
d="M1051 506l-252 575l-252 -575h504zM1436 -195q29 0 84 11l22 -174q-53 -23 -137 -23q-131 -1 -211 63t-80 176t139 179l-108 248h-694l-125 -285h-277l635 1401h229l633 -1401h-160q-76 -45 -75 -106q0 -89 125 -89z" />
    <glyph glyph-name="aogonek" unicode="&#x105;" horiz-adv-x="1257" 
d="M604 168q133 0 268 104v512q-127 16 -268 16t-212 -85q-70 -85 -70 -229t74 -231t208 -87zM1022 -412q-131 0 -211 64t-80 175q0 112 141 179v68q-143 -104 -313 -105q-211 1 -340 143t-127 376t129 372t347 139q220 0 540 -47v-952h-39q-78 -32 -110 -64t-31 -73
q0 -88 125 -88q29 0 84 10l22 -174q-53 -23 -137 -23z" />
    <glyph glyph-name="Cacute" unicode="&#x106;" horiz-adv-x="1492" 
d="M375 696q0 -222 142 -358q142 -137 378 -137q172 0 436 61l45 -215q-268 -78 -493 -78q-346 0 -557 201q-211 202 -211 528t212 526t558 199q247 0 485 -63l-45 -232q-254 57 -405 58q-260 0 -402 -134t-143 -356zM1253 1825l-239 -291h-248l172 291h315z" />
    <glyph glyph-name="cacute" unicode="&#x107;" horiz-adv-x="1064" 
d="M666 809q-158 0 -249 -88q-91 -87 -91 -231t89 -229t224 -85t311 45l35 -190q-184 -61 -352 -62q-239 -1 -391 143t-152 380t152 376t401 140q182 -1 336 -52l-33 -188q-188 41 -280 41zM946 1460l-239 -309h-232l156 309h315z" />
    <glyph glyph-name="Cdotaccent" unicode="&#x10a;" horiz-adv-x="1492" 
d="M375 696q0 -222 142 -358q142 -137 378 -137q172 0 436 61l45 -215q-268 -78 -493 -78q-346 0 -557 201q-211 202 -211 528t212 526t558 199q247 0 485 -63l-45 -232q-254 57 -405 58q-260 0 -402 -134t-143 -356zM872 1530q-61 0 -105 42t-44 102t44 102t105 43
q62 0 106 -42q44 -43 44 -103t-44 -102t-106 -42z" />
    <glyph glyph-name="cdotaccent" unicode="&#x10b;" horiz-adv-x="1064" 
d="M666 809q-158 0 -249 -88q-91 -87 -91 -231t89 -229t224 -85t311 45l35 -190q-184 -61 -352 -62q-239 -1 -391 143t-152 380t152 376t401 140q182 -1 336 -52l-33 -188q-188 41 -280 41zM602 1139q-61 0 -105 42t-44 102t44 101t105 41q62 0 106 -41t44 -101t-44 -102
t-106 -42z" />
    <glyph glyph-name="Ccaron" unicode="&#x10c;" horiz-adv-x="1492" 
d="M375 696q0 -222 142 -358q142 -137 378 -137q172 0 436 61l45 -215q-268 -78 -493 -78q-346 0 -557 201q-211 202 -211 528t212 526t558 199q247 0 485 -63l-45 -232q-254 57 -405 58q-260 0 -402 -134t-143 -356zM977 1509h-209l-246 312h234l116 -150l119 150h234z" />
    <glyph glyph-name="ccaron" unicode="&#x10d;" horiz-adv-x="1064" 
d="M666 809q-158 0 -249 -88q-91 -87 -91 -231t89 -229t224 -85t311 45l35 -190q-184 -61 -352 -62q-239 -1 -391 143t-152 380t152 376t401 140q182 -1 336 -52l-33 -188q-188 41 -280 41zM705 1147h-209l-246 311h233l117 -149l119 149h233z" />
    <glyph glyph-name="Dcaron" unicode="&#x10e;" horiz-adv-x="1517" 
d="M702 209q188 0 317 137q128 137 128 355q0 219 -134 351t-347 132q-137 0 -246 -8v-959q184 -8 282 -8zM664 1411q328 -1 534 -195t205 -515q0 -321 -200 -519q-201 -198 -513 -198t-516 16v1393q308 18 490 18zM793 1509h-209l-246 312h233l117 -150l119 150h233z" />
    <glyph glyph-name="dcaron" unicode="&#x10f;" horiz-adv-x="1263" 
d="M625 801q-305 0 -306 -307q0 -152 74 -239t217 -87q94 0 260 20v586q-118 27 -245 27zM1434 1454l-74 -414h-178l12 414h240zM1106 1454v-1440q-289 -39 -549 -39q-209 -1 -338 137t-129 376t128 375q128 136 376 136q150 0 276 -26v481h236z" />
    <glyph glyph-name="Dcroat" unicode="&#x110;" horiz-adv-x="1517" 
d="M702 209q188 0 317 137q128 137 128 355q0 219 -134 351t-347 132q-137 0 -246 -8v-379h295v-228h-295v-352q184 -8 282 -8zM664 1411q328 -1 534 -195t205 -515q0 -321 -200 -519q-201 -198 -513 -198t-516 16v569h-115v228h115v596q308 18 490 18z" />
    <glyph glyph-name="dcroat" unicode="&#x111;" horiz-adv-x="1263" 
d="M625 801q-305 0 -306 -307q0 -152 74 -239t217 -87q94 0 260 20v586q-119 27 -245 27zM1182 1130h-76v-1116q-289 -39 -549 -39q-209 -1 -338 137t-129 376t128 375q128 136 376 136q150 0 276 -26v157h-335v195h335v129h236v-129h76v-195z" />
    <glyph glyph-name="Emacron" unicode="&#x112;" horiz-adv-x="1298" 
d="M420 809h678v-225h-678v-357h764v-227h-1010v1393h1010v-228h-764v-356zM991 1772v-191h-639v191h639z" />
    <glyph glyph-name="emacron" unicode="&#x113;" horiz-adv-x="1163" 
d="M606 815q-110 -1 -182 -65t-90 -175h526q-2 109 -72 175t-182 65zM593 1001q214 1 347 -117t135 -311q0 -92 -14 -178h-719q27 -100 107 -157q80 -58 193 -58t355 53l33 -192q-227 -72 -387 -72q-265 1 -409 145t-144 374t144 372q145 141 359 141zM901 1391v-193h-569
v193h569z" />
    <glyph glyph-name="Edotaccent" unicode="&#x116;" horiz-adv-x="1298" 
d="M420 809h678v-225h-678v-357h764v-227h-1010v1393h1010v-228h-764v-356zM672 1530q-61 0 -106 42q-44 42 -44 102t44 102t106 43q62 0 105 -42q44 -43 44 -103t-44 -102t-105 -42z" />
    <glyph glyph-name="edotaccent" unicode="&#x117;" horiz-adv-x="1163" 
d="M606 815q-110 -1 -182 -65t-90 -175h526q-2 109 -72 175t-182 65zM593 1001q214 1 347 -117t135 -311q0 -92 -14 -178h-719q27 -100 107 -157q80 -58 193 -58t355 53l33 -192q-227 -72 -387 -72q-265 1 -409 145t-144 374t144 372q145 141 359 141zM616 1141
q-61 0 -105 42t-44 102t44 101t105 41q62 0 106 -41t44 -101t-44 -102t-106 -42z" />
    <glyph glyph-name="Eogonek" unicode="&#x118;" horiz-adv-x="1298" 
d="M420 1165v-356h678v-225h-678v-357h764v-227h-131q-113 -51 -113 -125q0 -88 125 -88q29 0 84 10l22 -174q-53 -23 -137 -22q-131 0 -211 63q-80 64 -80 166t107 170h-676v1393h1010v-228h-764z" />
    <glyph glyph-name="eogonek" unicode="&#x119;" horiz-adv-x="1163" 
d="M334 575h526q-2 109 -73 175t-181 66t-182 -66q-72 -64 -90 -175zM915 -213q29 0 84 10l23 -174q-53 -23 -137 -22q-131 0 -211 63q-80 62 -80 154t65 151h-16q-265 1 -409 145t-144 374t144 372t358 141q214 1 348 -117q133 -118 135 -311q0 -92 -14 -178h-719
q27 -100 107 -157q80 -58 193 -58t355 53l33 -192q-90 -27 -133 -43t-75 -50q-32 -32 -31 -73q0 -88 124 -88z" />
    <glyph glyph-name="Ecaron" unicode="&#x11a;" horiz-adv-x="1298" 
d="M420 809h678v-225h-678v-357h764v-227h-1010v1393h1010v-228h-764v-356zM776 1509h-209l-245 312h233l117 -150l119 150h233z" />
    <glyph glyph-name="ecaron" unicode="&#x11b;" horiz-adv-x="1163" 
d="M606 815q-110 -1 -182 -65t-90 -175h526q-2 109 -72 175t-182 65zM593 1001q214 1 347 -117t135 -311q0 -92 -14 -178h-719q27 -100 107 -157q80 -58 193 -58t355 53l33 -192q-227 -72 -387 -72q-265 1 -409 145t-144 374t144 372q145 141 359 141zM719 1149h-209
l-246 311h234l116 -149l119 149h232z" />
    <glyph glyph-name="Gbreve" unicode="&#x11e;" horiz-adv-x="1638" 
d="M1501 801v-680q-352 -152 -643 -152q-336 0 -540 202q-204 203 -204 529t215 525q214 199 564 198q236 0 479 -61l-49 -229q-295 53 -412 53q-242 0 -390 -133t-148 -353t133 -356q133 -135 340 -135t422 61v303h-502v228h735zM979 1841h203q0 -145 -86 -227t-234 -82
t-233 82q-86 82 -86 227h200q0 -125 118 -125t118 125z" />
    <glyph glyph-name="gbreve" unicode="&#x11f;" horiz-adv-x="1247" 
d="M602 801q-142 0 -212 -86q-70 -87 -68 -223q0 -136 74 -220t216 -84q140 0 260 21v575q-128 17 -270 17zM587 999q238 0 521 -47v-932q0 -244 -143 -391t-410 -147q-150 0 -348 61l39 195q225 -45 303 -45q151 0 235 82t88 231q-130 -16 -326 -16t-326 139t-130 366
t129 366q130 138 368 138zM764 1450h203q0 -145 -86 -228q-85 -83 -233 -83t-234 83t-86 228h200q0 -125 118 -125t118 125z" />
    <glyph glyph-name="Gdotaccent" unicode="&#x120;" horiz-adv-x="1638" 
d="M1501 801v-680q-352 -152 -643 -152q-336 0 -540 202q-204 203 -204 529t215 525q214 199 564 198q236 0 479 -61l-49 -229q-295 53 -412 53q-242 0 -390 -133t-148 -353t133 -356q133 -135 340 -135t422 61v303h-502v228h735zM862 1530q-61 0 -105 42t-44 102t44 102
t105 43q62 0 106 -42q44 -43 44 -103t-44 -102t-106 -42z" />
    <glyph glyph-name="gdotaccent" unicode="&#x121;" horiz-adv-x="1247" 
d="M602 801q-142 0 -212 -86q-70 -87 -68 -223q0 -136 74 -220t216 -84q140 0 260 21v575q-128 17 -270 17zM587 999q238 0 521 -47v-932q0 -244 -143 -391t-410 -147q-150 0 -348 61l39 195q225 -45 303 -45q151 0 235 82t88 231q-130 -16 -326 -16t-326 139t-130 366
t129 366q130 138 368 138zM647 1141q-61 0 -105 42t-44 102t44 101t105 41t105 -41t45 -101q-1 -60 -45 -102t-105 -42z" />
    <glyph glyph-name="Gcommaaccent" unicode="&#x122;" horiz-adv-x="1638" 
d="M709 -231q0 53 41 91t97 38t96 -38t40 -83t-17 -79t-118 -204h-131l74 162q-82 31 -82 113zM1501 801v-680q-352 -152 -643 -152q-336 0 -540 202q-204 203 -204 529t215 525q214 199 564 198q236 0 479 -61l-49 -229q-295 53 -412 53q-242 0 -390 -133t-148 -353
t133 -356q133 -135 340 -135t422 61v303h-502v228h735z" />
    <glyph glyph-name="gcommaaccent" unicode="&#x123;" horiz-adv-x="1247" 
d="M602 801q-142 0 -212 -86q-70 -87 -68 -223q0 -136 74 -220t216 -84q140 0 260 21v575q-128 17 -270 17zM587 999q238 0 521 -47v-932q0 -244 -143 -391t-410 -147q-150 0 -348 61l39 195q225 -45 303 -45q151 0 235 82t88 231q-130 -16 -326 -16t-326 139t-130 366
t129 366q130 138 368 138zM648 1169q-56 0 -96 38t-40 83t17 79t118 204h131l-73 -162q82 -31 81 -113q0 -53 -41 -91t-97 -38z" />
    <glyph glyph-name="Hbar" unicode="&#x126;" horiz-adv-x="1554" 
d="M1137 991h-717v-194h717v194zM1468 991h-88v-991h-243v569h-717v-569h-246v991h-88v203h88v199h246v-199h717v199h243v-199h88v-203z" />
    <glyph glyph-name="hbar" unicode="&#x127;" horiz-adv-x="1265" 
d="M731 999q172 0 283 -102t110 -274v-623h-235v555q-1 105 -61 167t-174 62t-257 -30v-754h-235v1186h-103v168h103v100h235v-100h273v-168h-273v-217q162 30 334 30z" />
    <glyph glyph-name="Imacron" unicode="&#x12a;" horiz-adv-x="593" 
d="M420 1393v-1393h-246v1393h246zM616 1772v-191h-639v191h639z" />
    <glyph glyph-name="imacron" unicode="&#x12b;" horiz-adv-x="538" 
d="M387 969v-969h-235v969h235zM555 1391v-193h-569v193h569z" />
    <glyph glyph-name="Iogonek" unicode="&#x12e;" horiz-adv-x="593" 
d="M296 -385q-108 0 -188 63t-79 176q0 113 145 181v1358h246v-1393h-111q-84 -47 -84 -111q0 -88 125 -88q29 1 84 11l23 -174q-53 -23 -161 -23z" />
    <glyph glyph-name="iogonek" unicode="&#x12f;" horiz-adv-x="538" 
d="M305 -213q29 0 84 10l23 -174q-53 -23 -138 -22q-131 0 -211 63t-79 168q0 133 168 199v938h235v-969h-94q-113 -51 -113 -125q0 -88 125 -88zM270 1141q-61 0 -105 42t-44 102t44 101t105 41q62 0 106 -41t44 -101t-44 -102t-106 -42z" />
    <glyph glyph-name="Idotaccent" unicode="&#x130;" horiz-adv-x="593" 
d="M420 1393v-1393h-246v1393h246zM297 1544q-68 0 -116 46t-48 113t48 112t116 45t116 -45t48 -112t-48 -113t-116 -46z" />
    <glyph glyph-name="dotlessi" unicode="&#x131;" horiz-adv-x="538" 
d="M387 969v-969h-235v969h235z" />
    <glyph glyph-name="IJ" unicode="&#x132;" horiz-adv-x="1748" 
d="M1595 1393v-856q0 -264 -135 -416t-352 -152t-483 82l45 219q254 -63 428 -63q110 0 180 87t70 241v858h247zM420 1393v-1393h-246v1393h246z" />
    <glyph glyph-name="ij" unicode="&#x133;" horiz-adv-x="1112" 
d="M950 969v-998q0 -245 -92 -359t-346 -118l-20 207q131 -4 177 52t46 190v1026h235zM387 969v-969h-235v969h235zM991 1289q0 -67 -46 -111t-113 -43q-68 0 -114 44q-46 45 -46 111t46 111t114 45q67 0 113 -45t46 -112zM268 1135q-66 0 -112 44q-46 45 -45 111
q0 66 45 111q46 45 112 45t112 -45t46 -112t-46 -111t-112 -43z" />
    <glyph glyph-name="Kcommaaccent" unicode="&#x136;" horiz-adv-x="1439" 
d="M549 -231q0 53 41 91t97 38t96 -38t40 -83t-17 -79t-118 -204h-131l74 162q-82 31 -82 113zM420 518v-518h-246v1393h246v-635h110l533 635h305l-553 -658l580 -735h-303l-422 518h-250z" />
    <glyph glyph-name="kcommaaccent" unicode="&#x137;" horiz-adv-x="1187" 
d="M446 -231q0 53 41 91t97 38t97 -38q40 -38 40 -83q1 -45 -17 -79t-118 -204h-131l73 162q-82 31 -82 113zM393 602h82l346 367h287l-385 -412l418 -557h-277l-297 381h-174v-381h-235v1454h235v-852z" />
    <glyph glyph-name="Lacute" unicode="&#x139;" horiz-adv-x="1220" 
d="M1153 0h-979v1393h246v-1172h733v-221zM684 1825l-240 -291h-247l172 291h315z" />
    <glyph glyph-name="lacute" unicode="&#x13a;" horiz-adv-x="563" 
d="M399 1454v-1454h-235v1454h235zM635 1864l-242 -310h-231l155 310h318z" />
    <glyph glyph-name="Lcommaaccent" unicode="&#x13b;" horiz-adv-x="1220" 
d="M516 -231q0 53 41 91t97 38t96 -38t41 -83t-17 -79t-119 -204h-131l74 162q-82 31 -82 113zM1153 0h-979v1393h246v-1172h733v-221z" />
    <glyph glyph-name="lcommaaccent" unicode="&#x13c;" horiz-adv-x="563" 
d="M137 -231q0 53 41 91t97 38q57 0 97 -38t40 -83t-18 -79t-118 -204h-131l74 162q-82 31 -82 113zM399 1454v-1454h-235v1454h235z" />
    <glyph glyph-name="Lcaron" unicode="&#x13d;" horiz-adv-x="1220" 
d="M850 1393l-74 -414h-178l12 414h240zM1153 0h-979v1393h246v-1172h733v-221z" />
    <glyph glyph-name="lcaron" unicode="&#x13e;" horiz-adv-x="563" 
d="M723 1454l-74 -414h-178l12 414h240zM399 1454v-1454h-235v1454h235z" />
    <glyph glyph-name="Ldot" unicode="&#x13f;" horiz-adv-x="1220" 
d="M806 504q-62 0 -106 42q-43 42 -43 102t43 102q44 42 106 43q62 0 105 -42q43 -43 43 -103t-43 -102t-105 -42zM1153 0h-979v1393h246v-1172h733v-221z" />
    <glyph glyph-name="ldot" unicode="&#x140;" horiz-adv-x="765" 
d="M650 535q-62 1 -105 41t-43 100t43 103q43 42 105 42t106 -42t45 -102q0 -60 -44 -102q-45 -40 -107 -40zM399 1454v-1454h-235v1454h235z" />
    <glyph glyph-name="Lslash" unicode="&#x141;" horiz-adv-x="1220" 
d="M1153 221v-221h-979v467l-147 -61v206l147 62v719h246v-619l311 129v-205l-311 -129v-348h733z" />
    <glyph glyph-name="lslash" unicode="&#x142;" horiz-adv-x="563" 
d="M399 0h-235v547l-131 -58v205l131 58v702h235v-602l138 59v-204l-138 -60v-647z" />
    <glyph glyph-name="Nacute" unicode="&#x143;" horiz-adv-x="1595" 
d="M1421 1393v-1393h-233l-768 975v-975h-246v1393h227l777 -985v985h243zM1163 1825l-239 -291h-248l172 291h315z" />
    <glyph glyph-name="nacute" unicode="&#x144;" horiz-adv-x="1263" 
d="M715 999q184 0 295 -102t110 -274v-623h-235v555q-1 105 -61 167t-170 62t-261 -16v-768h-235v952q246 47 557 47zM977 1462l-240 -309h-231l156 309h315z" />
    <glyph glyph-name="Ncommaaccent" unicode="&#x145;" horiz-adv-x="1595" 
d="M645 -248q0 53 41 91t97 38q57 0 97 -38t40 -83q0 -44 -18 -78t-118 -204h-131l74 162q-82 31 -82 112zM1421 1393v-1393h-233l-768 975v-975h-246v1393h227l777 -985v985h243z" />
    <glyph glyph-name="ncommaaccent" unicode="&#x146;" horiz-adv-x="1263" 
d="M485 -231q0 53 41 91q42 38 98 38t96 -38t40 -83t-18 -79t-117 -204h-131l73 162q-82 31 -82 113zM715 999q184 0 295 -102t110 -274v-623h-235v555q-1 105 -61 167t-170 62t-261 -16v-768h-235v952q246 47 557 47z" />
    <glyph glyph-name="Ncaron" unicode="&#x147;" horiz-adv-x="1595" 
d="M1421 1393v-1393h-233l-768 975v-975h-246v1393h227l777 -985v985h243zM887 1509h-209l-246 312h234l116 -150l119 150h234z" />
    <glyph glyph-name="ncaron" unicode="&#x148;" horiz-adv-x="1263" 
d="M715 999q184 0 295 -102t110 -274v-623h-235v555q-1 105 -61 167t-170 62t-261 -16v-768h-235v952q246 47 557 47zM735 1149h-209l-245 311h233l117 -149l119 149h233z" />
    <glyph glyph-name="Omacron" unicode="&#x14c;" horiz-adv-x="1714" 
d="M858 201q213 0 348 137t135 358q0 220 -135 358t-348 138t-349 -137t-136 -359t136 -358q136 -137 349 -137zM856 1423q328 -1 536 -201t208 -526t-208 -526t-536 -201q-328 0 -534 201q-206 200 -207 526q1 326 207 526t534 201zM1178 1772v-191h-639v191h639z" />
    <glyph glyph-name="omacron" unicode="&#x14d;" horiz-adv-x="1261" 
d="M328 490q0 -140 84 -226t220 -86t219 86t83 226t-83 223q-83 84 -219 84t-220 -84t-84 -223zM632 1012q242 0 392 -144t150 -378q0 -236 -148 -381t-393 -145q-243 0 -393 144q-150 146 -150 382t150 378q150 144 392 144zM918 1391v-193h-570v193h570z" />
    <glyph glyph-name="Ohungarumlaut" unicode="&#x150;" horiz-adv-x="1714" 
d="M858 201q213 0 348 137t135 358q0 220 -135 358t-348 138t-349 -137t-136 -359t136 -358q136 -137 349 -137zM856 1423q328 -1 536 -201t208 -526t-208 -526t-536 -201q-328 0 -534 201q-206 200 -207 526q1 326 207 526t534 201zM1251 1825l-118 -291h-211l96 291h233z
M936 1825l-119 -291h-213l98 291h234z" />
    <glyph glyph-name="ohungarumlaut" unicode="&#x151;" horiz-adv-x="1261" 
d="M328 490q0 -140 84 -226t220 -86t219 86t83 226t-83 223q-83 84 -219 84t-220 -84t-84 -223zM632 1012q242 0 392 -144t150 -378q0 -236 -148 -381t-393 -145q-243 0 -393 144q-150 146 -150 382t150 378q150 144 392 144zM1020 1442l-119 -293h-211l96 293h234z
M705 1442l-119 -293h-211l96 293h234z" />
    <glyph glyph-name="OE" unicode="&#x152;" horiz-adv-x="2043" 
d="M373 696q0 -221 143 -342t404 -123v930q-260 -2 -404 -123t-143 -342zM1165 809h678v-225h-678v-357h764v-227h-1009q-354 2 -580 189q-225 187 -225 507t225 506q225 188 580 191h1009v-228h-764v-356z" />
    <glyph glyph-name="oe" unicode="&#x153;" horiz-adv-x="2009" 
d="M328 490q0 -140 84 -226t220 -86t219 86t83 226t-83 223q-83 84 -219 84t-220 -84t-84 -223zM1180 575h528q-4 109 -75 175t-181 66t-182 -66q-72 -64 -90 -175zM1489 -31q-285 0 -434 172q-150 -178 -408 -178q-257 -1 -407 145t-150 382t150 378q150 144 408 144
t409 -178q145 168 389 167q207 1 340 -117t135 -311q0 -92 -14 -178h-719q26 -100 106 -157q80 -58 196 -58t353 53l33 -192q-227 -72 -387 -72z" />
    <glyph glyph-name="Racute" unicode="&#x154;" horiz-adv-x="1374" 
d="M420 670h293q125 0 208 74t83 194q0 121 -83 183t-227 63q-82 0 -274 -4v-510zM616 451h-196v-451h-246v1393q326 12 510 12q256 0 408 -123t151 -348q0 -143 -75 -253t-207 -169l370 -512h-299l-315 453q-33 -2 -101 -2zM1008 1825l-240 -291h-248l172 291h316z" />
    <glyph glyph-name="racute" unicode="&#x155;" horiz-adv-x="821" 
d="M754 999v-231q-190 0 -361 -14v-754h-235v940q326 59 596 59zM801 1462l-240 -309h-231l155 309h316z" />
    <glyph glyph-name="Rcommaaccent" unicode="&#x156;" horiz-adv-x="1374" 
d="M555 -231q0 53 41 91t97 38q57 0 97 -38t40 -83t-18 -79q-17 -34 -118 -204h-131l74 162q-82 31 -82 113zM420 670h293q125 0 208 74t83 194q0 121 -83 183t-227 63q-82 0 -274 -4v-510zM616 451h-196v-451h-246v1393q326 12 510 12q256 0 408 -123t151 -348
q0 -143 -75 -253t-207 -169l370 -512h-299l-315 453q-33 -2 -101 -2z" />
    <glyph glyph-name="rcommaaccent" unicode="&#x157;" horiz-adv-x="821" 
d="M133 -231q0 53 41 91t97 38q57 0 97 -38t40 -83t-18 -79t-118 -204h-131l74 162q-82 31 -82 113zM754 999v-231q-190 0 -361 -14v-754h-235v940q326 59 596 59z" />
    <glyph glyph-name="Rcaron" unicode="&#x158;" horiz-adv-x="1374" 
d="M420 670h293q125 0 208 74t83 194q0 121 -83 183t-227 63q-82 0 -274 -4v-510zM616 451h-196v-451h-246v1393q326 12 510 12q256 0 408 -123t151 -348q0 -143 -75 -253t-207 -169l370 -512h-299l-315 453q-33 -2 -101 -2zM731 1509h-209l-246 312h234l117 -150l118 150
h234z" />
    <glyph glyph-name="rcaron" unicode="&#x159;" horiz-adv-x="821" 
d="M754 999v-231q-190 0 -361 -14v-754h-235v940q326 59 596 59zM559 1149h-209l-246 311h234l117 -149l118 149h234z" />
    <glyph glyph-name="Sacute" unicode="&#x15a;" horiz-adv-x="1390" 
d="M682 1190q-123 0 -192 -46q-68 -46 -68 -133t79 -125t301 -83t340 -131t118 -284t-152 -308t-428 -111q-276 0 -559 117l59 229q285 -115 535 -114q297 0 297 178q0 75 -55 115q-32 24 -52 36t-112 35t-127 29q-285 47 -394 141q-110 94 -110 273t144 292t406 113
t509 -94l-64 -217q-279 88 -475 88zM1075 1825l-239 -291h-248l172 291h315z" />
    <glyph glyph-name="sacute" unicode="&#x15b;" horiz-adv-x="1077" 
d="M562 164q190 0 190 100q0 42 -26 58q-54 35 -106 47t-96 19q-221 36 -306 106t-85 202t111 216q110 83 314 83t384 -71l-55 -183q-217 66 -355 66q-168 0 -167 -107q0 -76 217 -117t303 -103t86 -191q0 -160 -116 -240q-115 -80 -325 -80t-421 86l47 195q216 -86 406 -86
zM887 1458l-240 -309h-231l155 309h316z" />
    <glyph glyph-name="Scedilla" unicode="&#x15e;" horiz-adv-x="1390" 
d="M686 -428h-197l93 326h225zM682 1190q-123 0 -192 -46q-68 -46 -68 -133t79 -125t301 -83t340 -131t118 -284t-152 -308t-428 -111q-276 0 -559 117l59 229q285 -115 535 -114q297 0 297 178q0 75 -55 115q-32 24 -52 36t-112 35t-127 29q-285 47 -394 141
q-110 94 -110 273t144 292t406 113t509 -94l-64 -217q-279 88 -475 88z" />
    <glyph glyph-name="scedilla" unicode="&#x15f;" horiz-adv-x="1077" 
d="M541 -428h-197l92 326h226zM562 164q190 0 190 100q0 42 -26 58q-54 35 -106 47t-96 19q-221 36 -306 106t-85 202t111 216q110 83 314 83t384 -71l-55 -183q-217 66 -355 66q-168 0 -167 -107q0 -76 217 -117t303 -103t86 -191q0 -160 -116 -240q-115 -80 -325 -80
t-421 86l47 195q216 -86 406 -86z" />
    <glyph glyph-name="Scaron" unicode="&#x160;" horiz-adv-x="1390" 
d="M682 1190q-123 0 -192 -46q-68 -46 -68 -133t79 -125t301 -83t340 -131t118 -284t-152 -308t-428 -111q-276 0 -559 117l59 229q285 -115 535 -114q297 0 297 178q0 75 -55 115q-32 24 -52 36t-112 35t-127 29q-285 47 -394 141q-110 94 -110 273t144 292t406 113
t509 -94l-64 -217q-279 88 -475 88zM799 1509h-209l-246 312h234l116 -150l119 150h234z" />
    <glyph glyph-name="scaron" unicode="&#x161;" horiz-adv-x="1077" 
d="M562 164q190 0 190 100q0 42 -26 58q-54 35 -106 47t-96 19q-221 36 -306 106t-85 202t111 216q110 83 314 83t384 -71l-55 -183q-217 66 -355 66q-168 0 -167 -107q0 -76 217 -117t303 -103t86 -191q0 -160 -116 -240q-115 -80 -325 -80t-421 86l47 195q216 -86 406 -86
zM645 1145h-209l-246 311h234l117 -149l118 149h234z" />
    <glyph glyph-name="Tcaron" unicode="&#x164;" horiz-adv-x="1384" 
d="M815 1165v-1165h-246v1165h-508v228h1262v-228h-508zM797 1509h-209l-246 312h233l117 -150l119 150h233z" />
    <glyph glyph-name="tcaron" unicode="&#x165;" horiz-adv-x="931" 
d="M614 -31q-176 1 -269 99t-93 284v406h-209v211h209v364h237v-364h320v-211h-320v-381q0 -101 40 -149q41 -48 131 -48t186 17l22 -197q-131 -31 -254 -31zM825 1497l-73 -414h-179l13 414h239z" />
    <glyph glyph-name="Umacron" unicode="&#x16a;" horiz-adv-x="1556" 
d="M1403 1393v-799q0 -287 -171 -456t-454 -169q-284 0 -454 169t-170 456v799h245v-799q1 -184 103 -290t275 -105q173 0 277 105q103 105 103 290v799h246zM1100 1772v-191h-639v191h639z" />
    <glyph glyph-name="umacron" unicode="&#x16b;" horiz-adv-x="1267" 
d="M1116 969v-949q-84 -18 -253 -34t-302 -17q-408 0 -407 377v623h235v-568q0 -229 221 -229q129 0 271 18v779h235zM920 1391v-193h-570v193h570z" />
    <glyph glyph-name="Uring" unicode="&#x16e;" horiz-adv-x="1556" 
d="M1403 1393v-799q0 -287 -171 -456t-454 -169q-284 0 -454 169t-170 456v799h245v-799q1 -184 103 -290t275 -105q173 0 277 105q103 105 103 290v799h246zM684 1711q0 -41 26 -67t69 -26q42 0 68 26q25 26 25 68t-25 67q-26 25 -68 25q-43 0 -69 -26t-26 -67zM778 1925
q102 0 166 -58q64 -59 64 -155t-64 -156t-166 -59q-102 0 -165 59q-62 60 -62 156t62 155q63 58 165 58z" />
    <glyph glyph-name="uring" unicode="&#x16f;" horiz-adv-x="1267" 
d="M1116 969v-949q-84 -18 -253 -34t-302 -17q-408 0 -407 377v623h235v-568q0 -229 221 -229q129 0 271 18v779h235zM634 1235q42 0 68 26q26 25 25 67q0 42 -26 68q-25 26 -67 26t-69 -26t-27 -68t28 -68q26 -26 68 -25zM633 1542q101 0 165 -58t64 -154t-63 -156
t-165 -60t-166 60q-62 60 -62 155q0 96 62 155q63 58 165 58z" />
    <glyph glyph-name="Uhungarumlaut" unicode="&#x170;" horiz-adv-x="1556" 
d="M1403 1393v-799q0 -287 -171 -456t-454 -169q-284 0 -454 169t-170 456v799h245v-799q1 -184 103 -290t275 -105q173 0 277 105q103 105 103 290v799h246zM1174 1825l-119 -291h-211l96 291h234zM858 1825l-119 -291h-213l99 291h233z" />
    <glyph glyph-name="uhungarumlaut" unicode="&#x171;" horiz-adv-x="1267" 
d="M1116 969v-949q-84 -18 -253 -34t-302 -17q-408 0 -407 377v623h235v-568q0 -229 221 -229q129 0 271 18v779h235zM1022 1442l-119 -293h-211l96 293h234zM707 1442l-119 -293h-211l96 293h234z" />
    <glyph glyph-name="Uogonek" unicode="&#x172;" horiz-adv-x="1556" 
d="M1403 1393v-799q0 -227 -111 -384t-305 -212q-125 -55 -125 -131q0 -88 125 -88q29 0 84 10l23 -174q-53 -23 -161 -23t-188 64q-79 64 -79 158q0 96 75 155q-268 13 -428 181t-159 444v799h245v-799q1 -184 103 -290t275 -105q173 0 277 105q103 105 103 290v799h246z
" />
    <glyph glyph-name="uogonek" unicode="&#x173;" horiz-adv-x="1267" 
d="M778 -172q0 94 74 158q-158 -16 -291 -17q-408 0 -407 377v623h235v-568q0 -229 221 -229q129 0 271 18v779h235v-949q-78 -32 -110 -64t-31 -73q0 -88 125 -88q29 0 84 10l22 -174q-53 -23 -137 -22q-131 0 -211 63q-80 62 -80 156z" />
    <glyph glyph-name="Wcircumflex" unicode="&#x174;" horiz-adv-x="2170" 
d="M1657 0h-232l-340 975l-340 -975h-233l-463 1393h260l326 -1014l346 1014h209l344 -1014l328 1014h258zM1085 1681l-118 -147h-232l246 291h209l248 -291h-234z" />
    <glyph glyph-name="wcircumflex" unicode="&#x175;" horiz-adv-x="1675" 
d="M1294 0h-229l-227 629l-228 -629h-227l-322 969h240l207 -650l240 650h182l237 -652l207 652h240zM840 1290l-121 -131h-232l246 283h209l248 -283h-234z" />
    <glyph glyph-name="Ycircumflex" unicode="&#x176;" horiz-adv-x="1490" 
d="M870 0h-249v469l-578 924h279l421 -666l424 666h279l-576 -924v-469zM745 1681l-118 -147h-232l246 291h209l248 -291h-234z" />
    <glyph glyph-name="ycircumflex" unicode="&#x177;" horiz-adv-x="1312" 
d="M1255 969l-698 -1440h-266l262 539l-479 901h270l336 -639l309 639h266zM537 1161h-232l246 283h209l248 -283h-234l-117 131z" />
    <glyph glyph-name="Ydieresis" unicode="&#x178;" horiz-adv-x="1490" 
d="M870 0h-249v469l-578 924h279l421 -666l424 666h279l-576 -924v-469zM964 1530q-62 0 -106 42q-43 42 -43 102t43 102q44 42 106 43q62 0 105 -42q43 -43 43 -103t-43 -102t-105 -42zM377 1674q0 60 43 102t105 43q61 0 105 -42q44 -43 44 -103t-44 -102t-105 -42
q-62 0 -105 42t-43 102z" />
    <glyph glyph-name="Zacute" unicode="&#x179;" horiz-adv-x="1372" 
d="M1255 227v-227h-1144v152l790 1013h-762v228h1108v-152l-776 -1014h784zM1069 1825l-240 -291h-247l172 291h315z" />
    <glyph glyph-name="zacute" unicode="&#x17a;" horiz-adv-x="1030" 
d="M956 205v-205h-866v115l506 651h-496v205h822v-131l-492 -635h526zM850 1462l-240 -309h-231l156 309h315z" />
    <glyph glyph-name="Zdotaccent" unicode="&#x17b;" horiz-adv-x="1372" 
d="M1255 227v-227h-1144v152l790 1013h-762v228h1108v-152l-776 -1014h784zM688 1530q-61 0 -105 42t-44 102t44 102t105 43q62 0 106 -42q44 -43 44 -103t-44 -102t-106 -42z" />
    <glyph glyph-name="zdotaccent" unicode="&#x17c;" horiz-adv-x="1030" 
d="M956 205v-205h-866v115l506 651h-496v205h822v-131l-492 -635h526zM506 1141q-61 0 -106 42q-44 42 -44 102t44 101t106 41t105 -41q44 -41 44 -101t-44 -102t-105 -42z" />
    <glyph glyph-name="Zcaron" unicode="&#x17d;" horiz-adv-x="1372" 
d="M1255 227v-227h-1144v152l790 1013h-762v228h1108v-152l-776 -1014h784zM793 1509h-209l-246 312h233l117 -150l119 150h233z" />
    <glyph glyph-name="zcaron" unicode="&#x17e;" horiz-adv-x="1030" 
d="M956 205v-205h-866v115l506 651h-496v205h822v-131l-492 -635h526zM608 1149h-209l-245 311h233l117 -149l119 149h233z" />
    <glyph glyph-name="florin" unicode="&#x192;" horiz-adv-x="1134" 
d="M846 1423q92 0 201 -32l-35 -195q-80 14 -157 14t-115 -50t-54 -161l-20 -145h348v-211h-377l-35 -256q-31 -209 -125 -313t-272 -105q-92 0 -201 33l37 195q78 -15 155 -15q78 0 116 50t53 161l34 250h-243v211h274l21 152q29 209 123 313q96 104 272 104z" />
    <glyph glyph-name="Acaron" unicode="&#x1cd;" horiz-adv-x="1597" 
d="M799 1081l-252 -575h504zM451 285l-125 -285h-277l635 1401h229l633 -1401h-276l-125 285h-694zM903 1509h-209l-245 312h233l117 -150l119 150h233z" />
    <glyph glyph-name="acaron" unicode="&#x1ce;" horiz-adv-x="1257" 
d="M604 801q-141 0 -212 -86q-70 -85 -70 -229t74 -231t208 -87q133 0 268 104v512q-127 17 -268 17zM569 999q220 0 539 -47v-952h-236v74q-143 -104 -313 -105q-211 1 -340 143t-127 376t129 373q128 138 348 138zM750 1149h-209l-246 311h233l117 -149l119 149h233z" />
    <glyph glyph-name="Scommaaccent" unicode="&#x218;" horiz-adv-x="1390" 
d="M522 -231q0 53 41 91t97 38t96 -38t41 -83t-17 -79t-118 -204h-132l74 162q-82 31 -82 113zM682 1190q-123 0 -192 -46q-68 -46 -68 -133t79 -125t301 -83t340 -131t118 -284t-152 -308t-428 -111q-276 0 -559 117l59 229q285 -115 535 -114q297 0 297 178q0 75 -55 115
q-32 24 -52 36t-112 35t-127 29q-285 47 -394 141q-110 94 -110 273t144 292t406 113t509 -94l-64 -217q-279 88 -475 88z" />
    <glyph glyph-name="scommaaccent" unicode="&#x219;" horiz-adv-x="1077" 
d="M403 -231q0 53 41 91q42 38 98 38t96 -38t40 -83t-18 -79t-117 -204h-131l73 162q-82 31 -82 113zM562 164q190 0 190 100q0 42 -26 58q-54 35 -106 47t-96 19q-221 36 -306 106t-85 202t111 216q110 83 314 83t384 -71l-55 -183q-217 66 -355 66q-168 0 -167 -107
q0 -76 217 -117t303 -103t86 -191q0 -160 -116 -240q-115 -80 -325 -80t-421 86l47 195q216 -86 406 -86z" />
    <glyph glyph-name="uni021A" unicode="&#x21a;" horiz-adv-x="1384" 
d="M555 -231q0 53 41 91t97 38q57 0 97 -38t40 -83t-18 -79q-17 -34 -118 -204h-131l74 162q-82 31 -82 113zM815 1165v-1165h-246v1165h-508v228h1262v-228h-508z" />
    <glyph glyph-name="uni021B" unicode="&#x21b;" horiz-adv-x="931" 
d="M397 -231q0 53 41 91q42 38 98 38t96 -38t40 -83t-18 -79t-117 -204h-131l73 162q-82 31 -82 113zM614 -31q-176 1 -269 99t-93 284v406h-209v211h209v364h237v-364h320v-211h-320v-381q0 -101 40 -149q41 -48 131 -48t186 17l22 -197q-131 -31 -254 -31z" />
    <glyph glyph-name="circumflex" unicode="&#x2c6;" 
d="M616 1290l-120 -131h-232l246 283h209l248 -283h-234z" />
    <glyph glyph-name="caron" unicode="&#x2c7;" 
d="M719 1149h-209l-246 311h234l116 -149l119 149h234z" />
    <glyph glyph-name="breve" unicode="&#x2d8;" 
d="M731 1450h203q0 -145 -86 -228t-234 -83t-233 83q-86 83 -86 228h201q0 -125 118 -125t117 125z" />
    <glyph glyph-name="dotaccent" unicode="&#x2d9;" 
d="M614 1141q-61 0 -105 42t-44 102t44 101t105 41q62 0 106 -41t44 -101t-44 -102t-106 -42z" />
    <glyph glyph-name="ring" unicode="&#x2da;" 
d="M514 1328q0 -42 26 -68t69 -25q42 0 68 26q25 25 25 67t-25 68q-26 26 -68 26q-43 0 -69 -26t-26 -68zM608 1542q102 0 166 -58t64 -154t-64 -156t-166 -60t-164 60t-63 155q0 96 62 155q63 58 165 58z" />
    <glyph glyph-name="ogonek" unicode="&#x2db;" 
d="M614 -78q0 -88 125 -88q29 0 84 10l23 -174q-53 -23 -137 -22q-131 0 -211 63t-80 161t86 162q86 65 231 79l21 -54q-78 -31 -110 -63t-32 -74z" />
    <glyph glyph-name="tilde" unicode="&#x2dc;" 
d="M793 1407h188q0 -87 -35 -149q-66 -115 -196 -109q-57 2 -107 29l-100 63q-51 25 -76 7t-25 -60h-190q0 88 35 149t87 85q116 53 216 -7l102 -63q53 -24 77 -6t24 61z" />
    <glyph glyph-name="hungarumlaut" unicode="&#x2dd;" 
d="M1001 1442l-118 -293h-211l96 293h233zM686 1442l-119 -293h-211l97 293h233z" />
    <glyph glyph-name="commaaccentcomb" unicode="&#x326;" horiz-adv-x="0" 
d="M475 -240q0 54 41 92t97 38t97 -38q40 -38 40 -84t-18 -78q-18 -34 -118 -204h-131l74 162q-82 31 -82 112z" />
    <glyph glyph-name="Wgrave" unicode="&#x1e80;" horiz-adv-x="2170" 
d="M1657 0h-232l-340 975l-340 -975h-233l-463 1393h260l326 -1014l346 1014h209l344 -1014l328 1014h258zM1206 1534h-231l-240 291h316z" />
    <glyph glyph-name="wgrave" unicode="&#x1e81;" horiz-adv-x="1675" 
d="M1294 0h-229l-227 629l-228 -629h-227l-322 969h240l207 -650l240 650h182l237 -652l207 652h240zM938 1153h-229l-242 309h317z" />
    <glyph glyph-name="Wacute" unicode="&#x1e82;" horiz-adv-x="2170" 
d="M1657 0h-232l-340 975l-340 -975h-233l-463 1393h260l326 -1014l346 1014h209l344 -1014l328 1014h258zM1468 1825l-239 -291h-248l172 291h315z" />
    <glyph glyph-name="wacute" unicode="&#x1e83;" horiz-adv-x="1675" 
d="M1294 0h-229l-227 629l-228 -629h-227l-322 969h240l207 -650l240 650h182l237 -652l207 652h240zM1210 1462l-239 -309h-232l156 309h315z" />
    <glyph glyph-name="Wdieresis" unicode="&#x1e84;" horiz-adv-x="2170" 
d="M1657 0h-232l-340 975l-340 -975h-233l-463 1393h260l326 -1014l346 1014h209l344 -1014l328 1014h258zM1304 1530q-62 0 -106 42q-43 42 -43 102t43 102q44 42 106 43q62 0 105 -42q43 -43 43 -103t-43 -102t-105 -42zM717 1674q0 60 43 102t105 43q61 0 105 -42
q44 -43 44 -103t-44 -102t-105 -42q-62 0 -105 42t-43 102z" />
    <glyph glyph-name="wdieresis" unicode="&#x1e85;" horiz-adv-x="1675" 
d="M1294 0h-229l-227 629l-228 -629h-227l-322 969h240l207 -650l240 650h182l237 -652l207 652h240zM1060 1427q62 0 105 -41t43 -101t-43 -102t-105 -42t-106 42q-43 42 -43 102t43 101q44 41 106 41zM622 1427q62 0 105 -41t43 -101t-43 -102t-105 -42t-106 42
q-43 42 -43 102t43 101q44 41 106 41z" />
    <glyph glyph-name="Ygrave" unicode="&#x1ef2;" horiz-adv-x="1490" 
d="M870 0h-249v469l-578 924h279l421 -666l424 666h279l-576 -924v-469zM866 1534h-231l-240 291h316z" />
    <glyph glyph-name="ygrave" unicode="&#x1ef3;" horiz-adv-x="1312" 
d="M1255 969l-698 -1440h-266l262 539l-479 901h270l336 -639l309 639h266zM569 1155l-239 309h315l156 -309h-232z" />
    <glyph glyph-name="uni2009" unicode="&#x2009;" horiz-adv-x="315" 
 />
    <glyph glyph-name="endash" unicode="&#x2013;" horiz-adv-x="1345" 
d="M1182 422h-1018v235h1018v-235z" />
    <glyph glyph-name="emdash" unicode="&#x2014;" horiz-adv-x="2031" 
d="M1868 422h-1704v235h1704v-235z" />
    <glyph glyph-name="quoteleft" unicode="&#x2018;" horiz-adv-x="618" 
d="M479 1167q0 -69 -51 -117t-123 -48t-124 48t-52 104t18 99t82 159t88 163h172l-116 -264q106 -43 106 -144z" />
    <glyph glyph-name="quoteright" unicode="&#x2019;" horiz-adv-x="620" 
d="M310 1583q73 0 124 -48q51 -49 51 -105t-18 -97t-84 -162t-86 -159h-172l117 262q-104 41 -105 143q0 70 50 118t123 48z" />
    <glyph glyph-name="quotesinglbase" unicode="&#x201a;" horiz-adv-x="620" 
d="M309 301q72 0 124 -48q52 -49 52 -105t-18 -99t-82 -159t-88 -162h-172l117 264q-106 43 -107 143q0 70 51 118t123 48z" />
    <glyph glyph-name="quotedblleft" unicode="&#x201c;" horiz-adv-x="1036" 
d="M545 1154q0 56 18 97t84 162t86 160h172l-117 -262q104 -41 105 -144q0 -69 -50 -117t-123 -48t-124 48t-51 104zM477 1167q0 -69 -51 -117t-123 -48t-123 48t-51 107t25 111t161 305h172l-116 -262q106 -43 106 -144z" />
    <glyph glyph-name="quotedblright" unicode="&#x201d;" horiz-adv-x="1036" 
d="M730 1589q73 0 124 -48q51 -49 51 -105t-18 -97t-84 -162t-86 -159h-172l117 262q-104 41 -105 143q0 70 50 118t123 48zM313 1589q72 0 123 -48q51 -47 51 -107q-1 -60 -25 -111t-161 -305h-172l115 262q-104 41 -105 143q0 70 51 118t123 48z" />
    <glyph glyph-name="quotedblbase" unicode="&#x201e;" horiz-adv-x="1038" 
d="M555 135q0 70 51 118t123 48t123 -48q51 -47 51 -107q1 -60 -23 -109t-165 -309h-172l116 264q-104 41 -104 143zM309 301q72 0 124 -48q52 -49 52 -105t-18 -99t-82 -159t-88 -162h-172l117 264q-106 43 -107 143q0 70 51 118t123 48z" />
    <glyph glyph-name="dagger" unicode="&#x2020;" horiz-adv-x="833" 
d="M496 1075v-442h-158v442h-242v158h242v242h158v-242h241v-158h-241z" />
    <glyph glyph-name="daggerdbl" unicode="&#x2021;" horiz-adv-x="833" 
d="M496 997h241v-157h-241v-207h-158v207h-242v157h242v123h-242v158h242v197h158v-197h241v-158h-241v-123z" />
    <glyph glyph-name="bullet" unicode="&#x2022;" horiz-adv-x="688" 
d="M344 342q-116 0 -192 76t-76 190t77 191q77 75 191 75t193 -76q77 -76 77 -190t-78 -190t-192 -76z" />
    <glyph glyph-name="ellipsis" unicode="&#x2026;" horiz-adv-x="1591" 
d="M1283 -35q-73 0 -124 48t-51 119t51 120t123 49t124 -49t52 -120t-51 -119t-124 -48zM791 -35q-74 0 -124 48q-51 48 -51 119t52 120t123 49q73 0 123 -49t50 -120t-49 -119q-50 -48 -124 -48zM309 -35q-74 0 -124 48t-50 119t51 120t123 49t123 -49t51 -120t-50 -119
t-124 -48z" />
    <glyph glyph-name="perthousand" unicode="&#x2030;" horiz-adv-x="3100" 
d="M2532 596q-93 0 -156 -64q-64 -64 -64 -164t62 -164t157 -64q93 0 157 62q64 64 64 166t-63 164q-64 64 -157 64zM1636 596q-94 0 -156 -64t-62 -164t62 -164t156 -64t156 62q62 64 63 166q-1 102 -63 164q-62 64 -156 64zM2533 766q172 0 285 -111t113 -287t-113 -288
q-113 -111 -286 -111q-174 0 -286 111t-112 288q0 178 114 288t285 110zM1636 766q172 0 285 -111t113 -287t-113 -288q-113 -111 -285 -111t-284 111t-113 288q1 178 113 288t284 110zM567 1253q-94 0 -156 -62q-63 -61 -63 -163t62 -167t157 -65q94 0 158 65q63 65 63 166
t-63 164q-64 62 -158 62zM690 0h-131l946 1393h131zM567 1423q172 1 286 -109t114 -287t-114 -289t-286 -112q-173 0 -285 112t-112 289t112 287t285 109z" />
    <glyph glyph-name="guilsinglleft" unicode="&#x2039;" horiz-adv-x="739" 
d="M598 203l-129 -119l-381 420l381 418l133 -105l-252 -307z" />
    <glyph glyph-name="guilsinglright" unicode="&#x203a;" horiz-adv-x="739" 
d="M137 817l133 105l381 -418l-381 -420l-129 119l248 307z" />
    <glyph glyph-name="fraction" unicode="&#x2044;" horiz-adv-x="1007" 
d="M88 0h-131l946 1393h131z" />
    <glyph glyph-name="zerosuperior" unicode="&#x2070;" horiz-adv-x="956" 
d="M480 1239q-100 0 -162 -69q-64 -70 -64 -180t64 -180t162 -69q99 0 162 69q62 68 62 180t-62 180t-162 69zM480 1405q183 0 296 -114t113 -300t-113 -301t-296 -115t-297 115t-113 301q0 186 113 300q114 114 297 114z" />
    <glyph glyph-name="foursuperior" unicode="&#x2074;" horiz-adv-x="817" 
d="M502 922v268l-236 -268h236zM680 922h119v-156h-119v-168h-178v168h-463v129l450 498h191v-471z" />
    <glyph glyph-name="fivesuperior" unicode="&#x2075;" horiz-adv-x="780" 
d="M711 850q0 -116 -88 -192t-251 -76t-296 67l59 154q139 -61 227 -61t134 29q45 30 45 77q0 82 -140 88l-258 12l35 445h502v-164h-348l-10 -123l98 -4q139 -4 215 -70t76 -182z" />
    <glyph glyph-name="sixsuperior" unicode="&#x2076;" horiz-adv-x="815" 
d="M408 727q72 0 118 44t45 114q0 71 -45 111q-44 40 -118 40t-118 -41t-44 -111t45 -113q45 -44 117 -44zM408 569q-150 0 -244 88t-94 230q0 92 61 186l223 320h215l-141 -205q143 -6 231 -86q89 -80 89 -218t-96 -226q-94 -88 -244 -89z" />
    <glyph glyph-name="sevensuperior" unicode="&#x2077;" horiz-adv-x="669" 
d="M33 1221v172h604v-111l-303 -684h-203l287 623h-385z" />
    <glyph glyph-name="eightsuperior" unicode="&#x2078;" horiz-adv-x="743" 
d="M372 719q62 0 99 32q37 31 37 81t-37 80t-99 30t-100 -30t-36 -81q-2 -49 36 -81t100 -31zM258 1156q0 -46 31 -73t84 -27t84 28q31 26 31 72t-32 76t-83 30t-83 -30t-32 -76zM702 811q0 -104 -91 -170t-239 -66t-240 66q-91 66 -91 170q0 135 147 188q-119 49 -118 175
q0 104 85 167t218 63t217 -62q84 -64 84 -179t-119 -164q147 -53 147 -188z" />
    <glyph glyph-name="ninesuperior" unicode="&#x2079;" horiz-adv-x="798" 
d="M398 1260q-74 0 -118 -43t-44 -113t45 -112t119 -42t117 42q44 42 44 112t-45 113t-118 43zM59 1105q-1 138 95 226t246 88t243 -88q94 -88 94 -229q0 -86 -43 -160l-241 -346h-215l141 203q-143 6 -232 87q-88 81 -88 219z" />
    <glyph glyph-name="zeroinferior" unicode="&#x2080;" horiz-adv-x="956" 
d="M482 -219q99 0 162 68q62 69 62 181t-62 180t-162 69q-100 0 -162 -69q-64 -70 -64 -180t63 -180q64 -69 163 -69zM482 444q183 0 296 -114t113 -299q0 -186 -113 -301t-296 -115t-297 115t-113 301q0 186 113 300q114 113 297 113z" />
    <glyph glyph-name="oneinferior" unicode="&#x2081;" horiz-adv-x="626" 
d="M565 -209v-160h-520v160h172v414l-160 -45l-41 162l332 104h51v-635h166z" />
    <glyph glyph-name="twoinferior" unicode="&#x2082;" horiz-adv-x="718" 
d="M651 -369h-596v121l283 254q57 51 78 81q20 30 20 77q0 109 -135 108q-92 0 -213 -39l-39 160q129 49 281 49t226 -74t73 -170q0 -96 -50 -172t-147 -161l-86 -78h305v-156z" />
    <glyph glyph-name="threeinferior" unicode="&#x2083;" horiz-adv-x="739" 
d="M672 -117q0 -268 -336 -268q-170 0 -291 68l64 143q119 -53 213 -53q180 0 180 94q0 80 -119 80h-205v88l207 227h-295v164h545v-111l-211 -217l14 -2q104 -8 169 -68t65 -145z" />
    <glyph glyph-name="fourinferior" unicode="&#x2084;" horiz-adv-x="817" 
d="M502 -45v268l-236 -268h236zM680 -45h119v-156h-119v-168h-178v168h-463v129l450 498h191v-471z" />
    <glyph glyph-name="fiveinferior" unicode="&#x2085;" horiz-adv-x="780" 
d="M711 -116q0 -116 -88 -192t-251 -77q-163 0 -296 68l59 153q139 -61 227 -61q88 -1 134 29q45 30 45 77q0 82 -140 88l-258 13l35 444h502v-164h-348l-10 -123l98 -4q139 -3 215 -69t76 -182z" />
    <glyph glyph-name="sixinferior" unicode="&#x2086;" horiz-adv-x="815" 
d="M408 -240q72 0 118 44t45 114q0 70 -45 111q-44 41 -118 41t-118 -41t-44 -111t45 -114t117 -44zM408 -397q-150 0 -244 88t-94 229q0 92 61 186l223 320h215l-141 -205q143 -6 231 -86q89 -80 89 -218t-96 -226q-94 -88 -244 -88z" />
    <glyph glyph-name="seveninferior" unicode="&#x2087;" horiz-adv-x="669" 
d="M33 254v172h604v-111l-303 -684h-203l287 623h-385z" />
    <glyph glyph-name="eightinferior" unicode="&#x2088;" horiz-adv-x="743" 
d="M372 -242q62 0 99 32t37 82t-37 80t-99 30t-100 -30t-36 -81q-2 -49 36 -81t100 -32zM373 301q-51 1 -83 -29t-32 -76t31 -73t84 -27t84 27t31 73t-32 76t-83 29zM702 -150q0 -104 -91 -170t-239 -65q-148 0 -240 66q-91 66 -91 169q0 135 147 189q-119 49 -118 174
q0 103 85 167t218 64t217 -63t84 -178t-119 -164q147 -53 147 -189z" />
    <glyph glyph-name="nineinferior" unicode="&#x2089;" horiz-adv-x="798" 
d="M398 297q-74 0 -118 -43t-44 -113q0 -69 45 -111t119 -42t117 42q44 42 44 112t-45 112q-45 43 -118 43zM59 142q-1 138 95 226t246 89q150 0 243 -88q94 -88 94 -230q0 -85 -43 -159l-2 -5l-239 -342h-215l141 203q-143 6 -232 87q-88 81 -88 219z" />
    <glyph glyph-name="Euro" unicode="&#x20ac;" horiz-adv-x="1556" 
d="M942 1423q248 0 498 -82l-45 -221q-250 60 -405 60q-156 0 -270 -71t-167 -196h532l-45 -168h-530q-2 -18 -2 -59t8 -80h492l-41 -168h-396q53 -111 157 -171t250 -60q147 0 423 63l45 -215q-262 -86 -502 -86t-418 125t-245 344h-166v168h133q-6 45 -6 80v59h-127v168
h153q58 236 242 373t432 137z" />
    <glyph glyph-name="uni2116" unicode="&#x2116;" horiz-adv-x="2887" 
d="M1688 209h978v-209h-978v209zM1878 877q0 -139 84 -225t220 -87q136 0 219 86q83 85 83 225t-83 224t-219 84t-220 -84t-84 -223zM1421 1393v-1393h-233l-768 975v-975h-246v1393h227l777 -985v985h243zM2180 1399q242 1 392 -143t150 -380t-148 -380
q-148 -146 -393 -146q-243 0 -393 146t-150 380q0 236 150 380t392 143z" />
    <glyph glyph-name="uni2117" unicode="&#x2117;" horiz-adv-x="1724" 
d="M905 952q-86 0 -135 -2v-248h148q63 0 104 37t41 97q0 116 -158 116zM884 1104q167 0 256 -70t89 -206t-93 -206t-229 -69h-137v-236h-170v781q117 6 284 6zM862 1315q-268 0 -450 -178q-182 -179 -182 -441t182 -440t450 -178t451 178q182 178 182 440t-182 441
q-183 178 -451 178zM862 1423q320 0 534 -208t214 -519t-214 -519t-534 -208t-533 208q-214 208 -214 519t214 519t533 208z" />
    <glyph glyph-name="trademark" unicode="&#x2122;" horiz-adv-x="1513" 
d="M1262 1092l-144 -332h-129l-143 332l-19 -332h-141l27 633h143l201 -445l190 445h139l39 -633h-147zM606 1251h-213v-491h-149v491h-215v142h577v-142z" />
    <glyph glyph-name="oneeighth" unicode="&#x215b;" horiz-adv-x="1951" 
d="M1337 241q1 -50 39 -82t100 -32t99 32t37 82t-37 80q-37 29 -99 29t-101 -29q-38 -30 -38 -80zM1477 670q-51 0 -83 -30t-32 -76t31 -72t84 -27q53 0 84 27q31 26 31 72t-32 76t-83 30zM1806 219q0 -104 -91 -170q-91 -65 -239 -65t-240 66q-91 66 -91 169q0 135 147 189
q-119 49 -118 174q0 104 84 168q84 63 218 63t218 -63t84 -178t-119 -164q147 -53 147 -189zM1487 1393l-946 -1393h-131l946 1393h131zM150 598v160h172v413l-160 -45l-41 162l332 105h51v-635h166v-160h-520z" />
    <glyph glyph-name="threeeighths" unicode="&#x215c;" horiz-adv-x="1953" 
d="M1469 127q62 0 100 32q37 32 37 82t-37 80q-37 29 -99 29t-101 -30q-38 -30 -38 -79q0 -50 38 -82t100 -32zM1470 670q-50 0 -82 -30t-32 -76t30 -72t84 -27q53 0 84 27q31 26 31 72t-32 76t-83 30zM1800 219q0 -104 -91 -170q-91 -65 -240 -65t-239 66t-91 169
q0 135 147 189q-119 50 -119 164t85 178t218 63q134 0 218 -63t84 -178t-119 -164q147 -53 147 -189zM539 0h-133l946 1393h133zM721 850q0 -268 -336 -268q-170 0 -291 67l64 144q119 -53 213 -53q180 -1 180 94q0 80 -119 79h-205v88l207 228h-295v164h545v-111l-211 -217
l14 -2q104 -9 169 -69t65 -144z" />
    <glyph glyph-name="fiveeighths" unicode="&#x215d;" horiz-adv-x="1978" 
d="M1496 127q62 0 99 32t37 82t-37 80q-37 29 -99 29t-100 -30t-38 -79q0 -50 38 -82t100 -32zM1382 564q0 -46 31 -72t84 -27q53 0 84 27q31 26 31 72t-32 76t-83 30t-83 -30t-32 -76zM1165 219q0 135 148 189q-119 50 -119 164t85 178t218 63q133 0 217 -63t84 -178
t-119 -164q147 -53 148 -189q0 -104 -91 -170q-91 -65 -240 -65t-240 66t-91 169zM543 0h-131l946 1393h131zM717 850q0 -116 -88 -192t-251 -76t-296 67l59 154q139 -61 227 -61t134 29q45 30 45 77q0 82 -139 88l-258 12l34 445h502v-164h-348l-10 -123l98 -4
q139 -4 215 -70t76 -182z" />
    <glyph glyph-name="seveneighths" unicode="&#x215e;" horiz-adv-x="1861" 
d="M1380 127q61 0 100 32q38 32 38 82t-38 80q-38 29 -100 29t-100 -31q-39 -31 -39 -79t39 -81q39 -32 100 -32zM1381 670q-49 0 -81 -30t-32 -76t30 -72t83 -27q52 0 84 27q32 26 32 72t-33 76t-83 30zM1710 219q0 -104 -91 -170q-91 -65 -240 -65t-239 66t-89 169
q0 135 147 189q-119 50 -119 164t84 178t218 63q134 0 217 -63q84 -63 84 -178t-119 -164q147 -53 147 -189zM432 0h-133l946 1393h133zM147 1221v172h605v-111l-303 -684h-203l286 623h-385z" />
    <glyph glyph-name="arrowleft" unicode="&#x2190;" horiz-adv-x="1540" 
d="M1464 813v-223h-1009l438 -465l-162 -143l-668 718l654 705l164 -145l-424 -447h1007z" />
    <glyph glyph-name="arrowup" unicode="&#x2191;" horiz-adv-x="1574" 
d="M668 0v1008l-447 -424l-145 164l704 653l719 -668l-143 -164l-465 441v-1010h-223z" />
    <glyph glyph-name="arrowright" unicode="&#x2192;" horiz-adv-x="1540" 
d="M76 813h1007l-421 447l161 145l656 -705l-670 -718l-162 143l438 465h-1009v223z" />
    <glyph glyph-name="arrowdown" unicode="&#x2193;" horiz-adv-x="1574" 
d="M666 1393h229v-1010l461 438l143 -159l-719 -672l-704 655l145 162l445 -422v1008z" />
    <glyph glyph-name="arrowupleft" unicode="&#x2196;" horiz-adv-x="1628" 
d="M367 432h-220v961h990v-217h-619l1024 -1035l-143 -145l-1032 1024v-588z" />
    <glyph glyph-name="arrowupright" unicode="&#x2197;" horiz-adv-x="1628" 
d="M492 1176v217h989v-961h-219v588l-1033 -1024l-145 145l1026 1035h-618z" />
    <glyph glyph-name="arrowdownright" unicode="&#x2198;" horiz-adv-x="1628" 
d="M1262 961h219v-961h-989v217h618l-1026 1034l145 146l1033 -1024v588z" />
    <glyph glyph-name="arrowdownleft" unicode="&#x2199;" horiz-adv-x="1628" 
d="M1137 217v-217h-990v961h220v-588l1032 1024l143 -146l-1024 -1034h619z" />
    <glyph glyph-name="minus" unicode="&#x2212;" horiz-adv-x="1402" 
d="M213 784h977v-217h-977v217z" />
    <glyph glyph-name="triagup" unicode="&#x25b2;" horiz-adv-x="1992" 
d="M993 1415l856 -1415h-1706z" />
    <glyph glyph-name="blackuppointingsmalltriangle" unicode="&#x25b4;" horiz-adv-x="991" 
d="M494 1006l376 -623h-751z" />
    <glyph glyph-name="uni25B8" unicode="&#x25b8;" horiz-adv-x="886" 
d="M795 684l-621 -377v754z" />
    <glyph glyph-name="triagdn" unicode="&#x25bc;" horiz-adv-x="1992" 
d="M1849 1393l-856 -1416l-850 1416h1706z" />
    <glyph glyph-name="uni25BE" unicode="&#x25be;" horiz-adv-x="991" 
d="M872 965l-376 -623l-377 623h753z" />
    <glyph glyph-name="uni25C2" unicode="&#x25c2;" horiz-adv-x="886" 
d="M713 307l-621 377l621 377v-754z" />
    <glyph glyph-name="R.ss02" horiz-adv-x="1339" 
d="M694 1184q-86 0 -274 -4v-510h291q127 0 210 74t83 194q0 122 -84 184t-226 62zM684 1405q256 0 408 -123t151 -348q0 -180 -119 -307t-317 -162h-35l535 -465h-336l-514 451h-37v-451h-246v1393q326 12 510 12z" />
    <glyph glyph-name="Racute.ss02" horiz-adv-x="1339" 
d="M694 1184q-82 0 -274 -4v-510h293q125 0 208 74t83 194q0 122 -84 184t-226 62zM684 1405q256 0 408 -123t151 -348q0 -180 -119 -307t-317 -162h-35l535 -465h-336l-514 451h-37v-451h-246v1393q326 12 510 12zM1008 1825l-240 -291h-248l172 291h316z" />
    <glyph glyph-name="Rcaron.ss02" horiz-adv-x="1339" 
d="M694 1184q-82 0 -274 -4v-510h293q125 0 208 74t83 194q0 122 -84 184t-226 62zM684 1405q256 0 408 -123t151 -348q0 -180 -119 -307t-317 -162h-35l535 -465h-336l-514 451h-37v-451h-246v1393q326 12 510 12zM731 1509h-209l-246 312h234l117 -150l118 150h234z" />
    <glyph glyph-name="Rcommaaccent.ss02" horiz-adv-x="1339" 
d="M530 -231q0 53 41 91t97 38t97 -38q40 -38 40 -83q1 -45 -17 -79t-118 -204h-131l73 162q-82 31 -82 113zM694 1184q-82 0 -274 -4v-510h293q125 0 208 74t83 194q0 122 -84 184t-226 62zM684 1405q256 0 408 -123t151 -348q0 -180 -119 -307t-317 -162h-35l535 -465
h-336l-514 451h-37v-451h-246v1393q326 12 510 12z" />
    <glyph glyph-name="Q.ss04" horiz-adv-x="1714" 
d="M1458 -147v-222q-342 2 -686 62v166zM858 201q213 0 348 137t135 358q0 220 -135 358t-348 138t-349 -137t-136 -359t136 -358q136 -137 349 -137zM856 1423q328 -1 536 -201t208 -526t-208 -526t-536 -201q-328 0 -534 201q-206 200 -207 526q1 326 207 526t534 201z
" />
    <glyph glyph-name="i.loclTRK" horiz-adv-x="538" 
d="M387 969v-969h-235v969h235zM270 1141q-61 0 -105 42t-44 102t44 101t105 41q62 0 106 -41t44 -101t-44 -102t-106 -42z" />
    <glyph glyph-name="germandbls.case" horiz-adv-x="2719" 
d="M2009 1190q-121 0 -191 -46t-69 -133q0 -87 79 -125t302 -83t341 -131t118 -284t-152 -308t-428 -111q-276 0 -559 117l57 229q285 -115 537 -114q297 0 297 178q1 70 -59 116t-117 61q-57 14 -139 30t-97 20q-236 49 -337 136t-101 266t143 292q144 113 406 113t508 -94
l-64 -217q-279 88 -475 88zM682 1190q-123 0 -192 -46q-68 -46 -68 -133t79 -125t301 -83t340 -131t118 -284t-152 -308t-428 -111q-276 0 -559 117l59 229q285 -115 535 -114q297 0 297 178q0 75 -55 115q-32 24 -52 36t-112 35t-127 29q-285 47 -394 141q-110 94 -110 273
t144 292t406 113t509 -94l-64 -217q-279 88 -475 88z" />
    <glyph glyph-name="y.ss01" horiz-adv-x="1267" 
d="M1118 969v-949q0 -244 -144 -391t-411 -147q-137 0 -342 51l33 205q225 -45 303 -45q152 0 236 83t88 234q-157 -20 -337 -20t-285 85t-105 292v602h237v-547q0 -229 221 -229q129 0 269 18v758h237z" />
    <glyph glyph-name="yacute.ss01" horiz-adv-x="1267" 
d="M1116 969v-949q0 -244 -143 -391t-410 -147q-137 0 -342 51l33 205q225 -45 303 -45q150 0 235 83t89 234q-157 -20 -337 -20t-285 85t-105 292v602h235v-547q0 -229 221 -229q129 0 271 18v758h235zM979 1462l-240 -309h-231l156 309h315z" />
    <glyph glyph-name="ycircumflex.ss01" horiz-adv-x="1267" 
d="M1116 969v-949q0 -244 -143 -391t-410 -147q-137 0 -342 51l33 205q225 -45 303 -45q150 0 235 83t89 234q-157 -20 -337 -20t-285 85t-105 292v602h235v-547q0 -229 221 -229q129 0 271 18v758h235zM635 1290l-121 -131h-231l245 283h209l248 -283h-233z" />
    <glyph glyph-name="ydieresis.ss01" horiz-adv-x="1267" 
d="M1116 969v-949q0 -244 -143 -391t-410 -147q-137 0 -342 51l33 205q225 -45 303 -45q150 0 235 83t89 234q-157 -20 -337 -20t-285 85t-105 292v602h235v-547q0 -229 221 -229q129 0 271 18v758h235zM855 1427q61 0 105 -41t44 -101t-43 -102t-105 -42t-106 42
q-43 42 -43 102t43 101t105 41zM417 1427q62 0 105 -41t43 -101t-43 -102t-105 -42t-106 42q-43 42 -43 102t43 101q44 41 106 41z" />
    <glyph glyph-name="ygrave.ss01" horiz-adv-x="1267" 
d="M1116 969v-949q0 -244 -143 -391t-410 -147q-137 0 -342 51l33 205q225 -45 303 -45q150 0 235 83t89 234q-157 -20 -337 -20t-285 85t-105 292v602h235v-547q0 -229 221 -229q129 0 271 18v758h235zM778 1153h-231l-240 309h316z" />
    <glyph glyph-name="a.ss03" horiz-adv-x="1161" 
d="M510 160q127 0 289 22v260l-301 -16q-199 -12 -199 -135q0 -131 211 -131zM620 1008q397 0 398 -371v-617q-344 -51 -546 -51t-299 85t-97 243q0 287 438 305l285 16v13q0 170 -221 170q-141 0 -379 -37l-25 199q254 45 446 45z" />
    <glyph glyph-name="aacute.ss03" horiz-adv-x="1161" 
d="M512 160q127 0 289 22v260l-303 -16q-199 -12 -199 -135q0 -131 213 -131zM620 1008q397 0 398 -371v-617q-344 -51 -546 -51t-299 85t-97 243q0 287 438 305l285 16v13q0 170 -221 170q-141 0 -379 -37l-25 199q254 45 446 45zM901 1462l-239 -309h-232l156 309h315z
" />
    <glyph glyph-name="abreve.ss03" horiz-adv-x="1161" 
d="M512 160q127 0 289 22v260l-303 -16q-199 -12 -199 -135q0 -131 213 -131zM620 1008q397 0 398 -371v-617q-344 -51 -546 -51t-299 85t-97 243q0 287 438 305l285 16v13q0 170 -221 170q-141 0 -379 -37l-25 199q254 45 446 45zM672 1450h202q0 -145 -86 -228t-233 -83
t-233 83t-86 228h200q0 -125 118 -125t118 125z" />
    <glyph glyph-name="acaron.ss03" horiz-adv-x="1161" 
d="M512 160q127 0 289 22v260l-303 -16q-199 -12 -199 -135q0 -131 213 -131zM620 1008q397 0 398 -371v-617q-344 -51 -546 -51t-299 85t-97 243q0 287 438 305l285 16v13q0 170 -221 170q-141 0 -379 -37l-25 199q254 45 446 45zM657 1149h-208l-246 311h233l117 -149
l119 149h233z" />
    <glyph glyph-name="acircumflex.ss03" horiz-adv-x="1161" 
d="M512 160q127 0 289 22v260l-303 -16q-199 -12 -199 -135q0 -131 213 -131zM620 1008q397 0 398 -371v-617q-344 -51 -546 -51t-299 85t-97 243q0 287 438 305l285 16v13q0 170 -221 170q-141 0 -379 -37l-25 199q254 45 446 45zM555 1290l-121 -131h-231l246 283h208
l248 -283h-233z" />
    <glyph glyph-name="adieresis.ss03" horiz-adv-x="1161" 
d="M512 160q127 0 289 22v260l-303 -16q-199 -12 -199 -135q0 -131 213 -131zM620 1008q397 0 398 -371v-617q-344 -51 -546 -51t-299 85t-97 243q0 287 438 305l285 16v13q0 170 -221 170q-141 0 -379 -37l-25 199q254 45 446 45zM775 1427q61 0 105 -41t44 -101t-43 -102
t-105 -42t-106 42q-43 42 -43 102t43 101t105 41zM337 1427q62 0 105 -41t43 -101t-43 -102t-105 -42t-106 42q-43 42 -43 102t43 101q44 41 106 41z" />
    <glyph glyph-name="agrave.ss03" horiz-adv-x="1161" 
d="M512 160q127 0 289 22v260l-303 -16q-199 -12 -199 -135q0 -131 213 -131zM620 1008q397 0 398 -371v-617q-344 -51 -546 -51t-299 85t-97 243q0 287 438 305l285 16v13q0 170 -221 170q-141 0 -379 -37l-25 199q254 45 446 45zM700 1153h-231l-240 309h316z" />
    <glyph glyph-name="amacron.ss03" horiz-adv-x="1161" 
d="M512 160q127 0 289 22v260l-303 -16q-199 -12 -199 -135q0 -131 213 -131zM620 1008q397 0 398 -371v-617q-344 -51 -546 -51t-299 85t-97 243q0 287 438 305l285 16v13q0 170 -221 170q-141 0 -379 -37l-25 199q254 45 446 45zM840 1391v-193h-570v193h570z" />
    <glyph glyph-name="aogonek.ss03" horiz-adv-x="1161" 
d="M299 291q0 -131 213 -131q127 0 289 22v260l-303 -16q-199 -12 -199 -135zM680 -172q0 94 74 158q-145 -16 -314 -16t-267 84q-97 85 -97 243q0 287 438 305l285 16v13q0 170 -221 170q-141 0 -379 -37l-25 199q254 45 446 45q397 0 398 -371v-617q-78 -32 -110 -64
t-31 -73q0 -88 124 -88q29 0 84 10l23 -174q-53 -23 -137 -22q-131 0 -211 63q-80 62 -80 156z" />
    <glyph glyph-name="aring.ss03" horiz-adv-x="1161" 
d="M512 160q127 0 289 22v260l-303 -16q-199 -12 -199 -135q0 -131 213 -131zM620 1008q397 0 398 -371v-617q-344 -51 -546 -51t-299 85t-97 243q0 287 438 305l285 16v13q0 170 -221 170q-141 0 -379 -37l-25 199q254 45 446 45zM556 1235q42 0 68 26q26 25 26 67t-26 68
t-68 26t-69 -26t-27 -68t28 -68q26 -26 68 -25zM555 1542q101 0 165 -58t64 -154t-63 -156t-165 -60t-166 60q-62 60 -62 155q0 96 62 155q63 58 165 58z" />
    <glyph glyph-name="atilde.ss03" horiz-adv-x="1161" 
d="M512 160q127 0 289 22v260l-303 -16q-199 -12 -199 -135q0 -131 213 -131zM620 1008q397 0 398 -371v-617q-344 -51 -546 -51t-299 85t-97 243q0 287 438 305l285 16v13q0 170 -221 170q-141 0 -379 -37l-25 199q254 45 446 45zM731 1407h189q0 -87 -35 -149
q-66 -115 -197 -109q-57 2 -106 29l-101 63q-51 25 -75 7t-25 -60h-191q0 88 35 149q63 110 198 108q58 -1 105 -30l103 -63q53 -24 77 -6t23 61z" />
    <glyph glyph-name="f_b" horiz-adv-x="2101" 
d="M1494 168q140 0 215 87t75 230t-71 229t-212 87q-141 0 -268 -27v-586q121 -20 261 -20zM1528 999q229 0 357 -138t128 -373q0 -234 -129 -376t-340 -143q-270 0 -549 51v1254q-129 51 -243 51q-268 0 -269 -252v-104h367v-211h-367v-758h-235v758h-230v211h230v110
q0 223 124 341t371 118q123 0 269 -61l221 -13v-491q137 26 295 26z" />
    <glyph glyph-name="f_f_b" horiz-adv-x="2869" 
d="M2261 168q143 0 217 87t74 239q0 307 -305 307q-127 0 -246 -27v-586q166 -20 260 -20zM1016 969v110q0 76 16 148q-137 98 -274 98q-137 1 -206 -65t-69 -191v-100h533zM2275 999q248 0 377 -136q129 -137 129 -375t-130 -375t-339 -138q-260 0 -549 39v1260
q-123 51 -258 51q-254 0 -254 -252v-104h369v-211h-369v-758h-235v758h-533v-758h-235v758h-230v211h230v108q0 217 135 339t356 122q113 0 199 -32t188 -99q121 131 371 131q139 0 285 -61l217 -13v-10h2v-481q127 26 274 26z" />
    <glyph glyph-name="f_f_f" horiz-adv-x="2381" 
d="M1788 969v157q0 37 8 103q-135 96 -271 96q-136 1 -205 -65t-69 -191v-100h537zM1016 969v108q0 80 18 148q-135 100 -274 100q-277 0 -277 -256v-100h533zM2370 758h-347v-758h-235v758h-537v-758h-235v758h-533v-758h-235v758h-230v211h230v108q0 217 135 339t356 122
q115 0 202 -33t194 -104q133 137 372 137q111 0 195 -30t182 -93q106 123 299 123q82 0 160 -22l-35 -199q-78 8 -117 8q-75 0 -121 -53t-47 -154v-149h347v-211z" />
    <glyph glyph-name="f_f_h" horiz-adv-x="2852" 
d="M1016 969v110q0 76 16 148q-137 98 -274 98q-137 1 -206 -65t-69 -191v-100h533zM2316 999q172 0 283 -102t111 -274v-623h-236v555q0 105 -60 167t-175 62t-257 -30v-754h-235v1274q-127 51 -244 51q-252 0 -252 -252v-104h351v-211h-351v-758h-235v758h-533v-758h-235
v758h-230v211h230v108q0 217 135 339t356 122q113 0 199 -32t186 -99q121 131 371 131q123 0 268 -61l219 -13v-495q162 30 334 30z" />
    <glyph glyph-name="f_f_j" horiz-adv-x="2070" 
d="M1016 969v108q0 82 18 146q-139 102 -276 102q-137 1 -206 -65t-69 -191v-100h533zM1950 969v-963q0 -244 -92 -358t-347 -117l-20 205q131 -4 177 52t46 189v781h-463v-758h-235v758h-533v-758h-235v758h-230v211h230v108q0 217 135 339t354 122q117 0 204 -33t194 -104
q133 137 372 137q119 0 207 -34t203 -111l-115 -168q-143 100 -278 100q-135 1 -204 -65t-69 -191v-100h699z" />
    <glyph glyph-name="f_f_k" horiz-adv-x="2777" 
d="M1016 969v110q0 76 16 148q-137 98 -274 98q-137 1 -206 -65t-69 -191v-100h533zM1982 381v-381h-235v1274q-127 51 -244 51q-252 0 -252 -252v-104h351v-211h-351v-758h-235v758h-533v-758h-235v758h-230v211h230v108q0 217 135 339t356 122q113 0 199 -32t186 -99
q121 131 371 131q123 0 268 -61l219 -13v-862h82l344 367h289l-385 -412l418 -557h-276l-297 381h-175z" />
    <glyph glyph-name="f_f_t" horiz-adv-x="2441" 
d="M1016 969v157q0 49 10 105q-137 94 -271 94q-134 1 -203 -65t-69 -191v-100h533zM2124 -31q-176 1 -270 99t-93 284v406h-510v-758h-235v758h-533v-758h-235v758h-230v211h230v108q0 217 135 339t356 122q111 0 195 -30t180 -93q111 123 316 123q80 0 174 -27l-35 -196
q-72 10 -131 10q-186 0 -187 -207v-149h510v364h238v-364h319v-211h-319v-381q0 -101 40 -149t130 -48t186 17l23 -197q-133 -31 -254 -31z" />
    <glyph glyph-name="f_h" horiz-adv-x="2103" 
d="M1568 999q170 0 282 -102t112 -274v-623h-236v555q0 105 -61 167t-175 62t-255 -30v-754h-236v1272q-131 53 -247 53q-268 0 -269 -252v-104h367v-211h-367v-758h-235v758h-230v211h230v110q0 223 124 341t371 118q123 0 269 -61l223 -13v-495q163 30 333 30z" />
    <glyph glyph-name="f_j" horiz-adv-x="1320" 
d="M1198 969v-963q0 -244 -92 -358t-346 -117l-19 205q131 -4 177 52q45 56 45 189v781h-480v-758h-235v758h-230v211h230v108q0 219 138 340t370 121q119 0 207 -34t204 -111l-114 -168q-143 100 -283 100q-287 0 -287 -256v-100h715z" />
    <glyph glyph-name="f_k" horiz-adv-x="2009" 
d="M1214 381v-381h-235v1274q-131 51 -244 51q-252 0 -252 -252v-104h351v-211h-351v-758h-235v758h-230v211h230v110q0 221 121 340t356 119q123 0 268 -61l221 -13v-862h82l344 367h289l-385 -412l416 -557h-277l-278 381h-191z" />
    <glyph glyph-name="f_t" horiz-adv-x="1675" 
d="M1358 -31q-176 1 -268 99t-93 284v406h-514v-758h-235v758h-230v211h230v151q0 201 109 310q110 109 305 108q76 0 174 -27l-35 -196q-72 10 -131 10q-186 0 -187 -211v-145h514v364h236v-364h319v-211h-319v-381q0 -101 40 -149t130 -48t186 17l25 -197
q-131 -31 -256 -31z" />
    <glyph glyph-name="r_f" horiz-adv-x="1527" 
d="M1516 758h-328v-758h-238v756q-354 0 -557 -19v-737h-235v909q116 21 366 39t414 21h12v157q0 192 109 302t289 110q80 0 157 -22l-35 -199q-74 8 -114 8q-76 0 -122 -53t-46 -154v-149h328v-211z" />
    <glyph glyph-name="r_t" horiz-adv-x="1611" 
d="M1169 989h320v-213h-320v-399q0 -101 40 -149t130 -48t187 17l24 -197q-133 -31 -256 -31q-174 1 -267 99t-93 284v424q-313 0 -541 -20v-756h-235v928q313 51 776 59v346h235v-344z" />
    <glyph glyph-name="zero.osf" horiz-adv-x="1329" 
d="M324 553q0 -160 98 -260t242 -100q145 0 243 101t99 259q0 158 -98 259t-244 101q-144 0 -242 -100t-98 -260zM666 1130q252 0 412 -160t161 -417q0 -258 -161 -418q-160 -160 -412 -160t-414 160t-162 418q0 257 162 417t414 160z" />
    <glyph glyph-name="one.osf" horiz-adv-x="966" 
d="M950 201v-201h-917v201h379v624l-353 -92l-55 205l574 170h69v-907h303z" />
    <glyph glyph-name="two.osf" horiz-adv-x="1114" 
d="M548 1114q220 0 336 -102t115 -258q0 -276 -426 -527l-38 -22h501v-205h-934v162l207 125q256 154 346 252t90 174q0 174 -251 174q-109 0 -365 -58l-33 220q232 65 452 65z" />
    <glyph glyph-name="three.osf" horiz-adv-x="1179" 
d="M1102 127q0 -209 -140 -329t-410 -120t-486 115l86 193q209 -98 411 -99q127 0 209 65t82 159t-78 144t-211 50h-248v117l396 455h-594v221h928v-148l-388 -442h17q198 -14 312 -118t114 -263z" />
    <glyph glyph-name="four.osf" horiz-adv-x="1325" 
d="M868 201v585l-489 -585h489zM1104 201h172v-201h-172v-287h-236v287h-805v160l805 946h236v-905z" />
    <glyph glyph-name="five.osf" horiz-adv-x="1216" 
d="M1124 142q0 -196 -144 -327q-144 -130 -378 -130q-291 0 -516 116l78 203q233 -104 428 -104q133 0 218 66t85 170q0 203 -313 220l-400 19l62 733h829v-229h-620l-29 -297l192 -11q233 -12 371 -122q137 -111 137 -307z" />
    <glyph glyph-name="six.osf" horiz-adv-x="1251" 
d="M946 485q0 137 -90 221t-233 85q-143 0 -231 -84q-88 -83 -89 -221q1 -138 91 -224t232 -86t231 86t89 223zM1182 486q0 -230 -156 -373t-402 -143t-400 142q-155 144 -154 375q0 170 106 304l420 602h274l-286 -412l41 2q249 0 403 -134q154 -133 154 -363z" />
    <glyph glyph-name="seven.osf" horiz-adv-x="1107" 
d="M59 879v229h1008v-147l-551 -1246h-266l530 1164h-721z" />
    <glyph glyph-name="eight.osf" horiz-adv-x="1288" 
d="M643 176q131 0 215 65t84 157t-83 154t-216 62t-215 -61t-82 -155t83 -158t214 -64zM399 1021q0 -91 68 -149q67 -58 177 -57q110 0 178 57q68 56 69 148q0 92 -69 148q-68 56 -178 56t-178 -56t-67 -147zM1202 383q0 -182 -154 -298t-402 -116t-402 116t-154 298
q0 240 260 340q-201 88 -200 313q0 174 137 280t358 107q221 0 359 -106t139 -281q0 -223 -203 -313q262 -100 262 -340z" />
    <glyph glyph-name="nine.osf" horiz-adv-x="1300" 
d="M322 623q0 -137 89 -221t232 -85q143 0 231 84q88 83 88 221t-88 224q-90 86 -232 86t-231 -86t-89 -223zM641 125q-249 0 -403 135q-154 136 -154 364t156 372t402 143q248 1 402 -143t154 -375q0 -152 -106 -304l-420 -602h-281l287 410h-37z" />
    <glyph glyph-name="zero.osf.zero" horiz-adv-x="1329" 
d="M678 193q131 0 228 100q98 99 98 239t-58 230l-489 -502q90 -67 221 -67zM666 913q-146 0 -244 -100t-98 -260q0 -102 43 -182l479 491q-84 51 -180 51zM668 1130q252 0 412 -160t161 -417q0 -258 -161 -418q-160 -160 -412 -160t-415 160t-163 418q0 257 163 417
t415 160z" />
    <glyph glyph-name="three.ss05" horiz-adv-x="1222" 
d="M588 803q266 0 266 191q0 94 -79 148t-239 54t-372 -78l-55 209q227 96 467 96q240 -1 382 -109t142 -290q0 -243 -246 -315q270 -68 270 -328q0 -195 -143 -303t-394 -109q-251 0 -478 97l55 208q219 -78 383 -78t247 57q83 56 83 149q0 92 -79 142t-210 50h-250v209
h250z" />
    <glyph glyph-name="zero.tf" horiz-adv-x="1292" 
d="M305 696q0 -228 94 -366q94 -140 248 -140t248 140t94 366t-94 366t-248 140t-248 -139t-94 -367zM59 696q0 328 162 528t427 199q265 1 427 -199t162 -528t-162 -528t-427 -199q-265 0 -427 200q-162 199 -162 527z" />
    <glyph glyph-name="one.tf" horiz-adv-x="1292" 
d="M1188 0h-1038v201h407v905l-352 -94l-53 211l581 170h70v-1192h385v-201z" />
    <glyph glyph-name="two.tf" horiz-adv-x="1292" 
d="M1176 0h-1016v162l487 473q76 71 109 105q32 34 68 96t36 122q0 118 -78 178t-220 60t-353 -82l-55 211q226 98 464 98t367 -125t129 -307q0 -260 -350 -553l-254 -217h666v-221z" />
    <glyph glyph-name="three.tf" horiz-adv-x="1292" 
d="M1188 418q0 -207 -141 -328t-411 -121t-484 115l86 192q209 -98 411 -98q127 0 209 65t82 160t-78 145t-211 50h-248v115l396 458h-594v222h928v-150l-388 -444h17q198 -13 312 -117t114 -264z" />
    <glyph glyph-name="four.tf" horiz-adv-x="1292" 
d="M836 451v622l-445 -622h445zM1079 451h164v-209h-164v-242h-243v242h-760v168l760 983h243v-942z" />
    <glyph glyph-name="five.tf" horiz-adv-x="1292" 
d="M1190 426q0 -196 -144 -327q-144 -130 -376 -130q-295 0 -516 117l77 211q233 -104 428 -104q125 -1 203 65t78 162t-80 154t-213 65l-397 18l61 736h828v-230h-617l-28 -295l188 -10q232 -12 370 -124t138 -308z" />
    <glyph glyph-name="six.tf" horiz-adv-x="1292" 
d="M644 176q142 0 232 86q89 86 89 223t-89 221q-88 84 -232 85q-144 0 -232 -84q-88 -83 -88 -221t89 -224t231 -86zM645 983q248 0 403 -135q154 -136 154 -364t-156 -371t-402 -143q-248 0 -402 142q-154 144 -154 375q0 133 107 304l385 602h282l-264 -410h47z" />
    <glyph glyph-name="seven.tf" horiz-adv-x="1292" 
d="M111 1163v230h1087v-148l-647 -1245h-266l608 1163h-782z" />
    <glyph glyph-name="eight.tf" horiz-adv-x="1292" 
d="M666 176q131 0 214 65t83 157t-82 154t-215 62t-215 -61t-82 -155t83 -158t214 -64zM420 1021q0 -91 67 -149q68 -57 178 -57q111 0 179 57q68 56 68 148t-69 148t-179 56t-176 -56q-68 -56 -68 -147zM1223 383q0 -182 -154 -298q-155 -116 -403 -116t-402 116t-153 298
q0 240 260 340q-203 90 -203 313q0 174 138 280t360 107q222 0 358 -106q137 -106 137 -281q1 -225 -200 -313q262 -100 262 -340z" />
    <glyph glyph-name="nine.tf" horiz-adv-x="1292" 
d="M350 907q0 -137 90 -221t234 -84t231 84q88 84 88 221t-90 223t-232 86q-141 0 -231 -86t-90 -223zM672 1423q246 0 400 -143t155 -375q0 -152 -107 -303l-420 -602h-280l287 410h-35q-248 0 -403 134t-155 363t156 373q156 143 402 143z" />
    <glyph glyph-name="zero.zero" horiz-adv-x="1536" 
d="M768 190q182 0 294 140t112 358q0 220 -101 359l-532 -781q98 -76 227 -76zM768 1202q-182 0 -294 -139t-112 -348t80 -336l525 768q-90 55 -199 55zM115 696q0 328 180 528t474 199q294 1 473 -199t179 -528t-179 -528t-473 -199q-294 0 -474 200q-180 199 -180 527z
" />
    <glyph glyph-name="zero.dnom" horiz-adv-x="956" 
d="M254 399q0 -111 64 -180t162 -69q99 0 162 68q62 68 62 180t-62 181t-162 69t-163 -69t-63 -180zM480 813q183 0 296 -114t113 -300t-113 -301q-113 -114 -296 -114t-297 114t-113 301q0 186 113 300q114 114 297 114z" />
    <glyph glyph-name="one.dnom" horiz-adv-x="626" 
d="M565 160v-160h-520v160h172v413l-160 -45l-41 162l332 105h51v-635h166z" />
    <glyph glyph-name="two.dnom" horiz-adv-x="718" 
d="M651 0h-596v121l283 254q57 51 78 81q20 30 20 76q0 109 -135 109q-92 0 -213 -39l-39 160q129 49 281 49t226 -74t73 -170q0 -96 -50 -172t-147 -162l-86 -77h305v-156z" />
    <glyph glyph-name="three.dnom" horiz-adv-x="739" 
d="M672 252q0 -268 -336 -268q-170 0 -291 67l64 144q119 -53 213 -53q180 -1 180 94q0 80 -119 79h-205v88l207 228h-295v164h545v-111l-211 -217l14 -2q104 -9 169 -69t65 -144z" />
    <glyph glyph-name="four.dnom" horiz-adv-x="817" 
d="M496 324v268l-236 -268h236zM674 324h119v-156h-119v-168h-178v168h-463v129l450 498h191v-471z" />
    <glyph glyph-name="five.dnom" horiz-adv-x="780" 
d="M711 252q0 -116 -88 -192t-251 -76t-296 67l59 154q139 -61 227 -61t134 29q45 30 45 77q0 82 -140 88l-258 12l35 445h502v-164h-348l-10 -123l98 -4q139 -4 215 -70t76 -182z" />
    <glyph glyph-name="six.dnom" horiz-adv-x="815" 
d="M408 129q72 0 118 44t45 114q0 71 -45 111q-44 40 -118 40t-118 -41t-44 -111t45 -113q45 -44 117 -44zM408 -29q-150 0 -244 88t-94 230q0 92 61 186l223 320h215l-141 -205q143 -6 231 -86q89 -80 89 -218t-96 -226q-94 -88 -244 -89z" />
    <glyph glyph-name="seven.dnom" horiz-adv-x="669" 
d="M33 623v172h604v-111l-303 -684h-203l287 623h-385z" />
    <glyph glyph-name="eight.dnom" horiz-adv-x="743" 
d="M372 127q62 0 99 32t37 82t-37 80q-37 29 -99 29t-101 -29q-38 -30 -35 -81q-2 -49 36 -81t100 -32zM258 564q0 -46 31 -72t84 -27q53 0 84 27q31 26 31 72t-32 76t-83 30t-83 -30t-32 -76zM702 219q0 -104 -91 -170q-91 -65 -239 -65t-240 66q-91 66 -91 169
q0 135 147 189q-119 49 -118 174q0 104 85 168t218 63q133 0 217 -63t84 -178t-119 -164q147 -53 147 -189z" />
    <glyph glyph-name="nine.dnom" horiz-adv-x="798" 
d="M398 666q-74 0 -118 -43t-44 -113t45 -112t119 -42t117 42q44 42 44 112t-45 113t-118 43zM59 511q-1 138 95 226t246 88t243 -88q94 -88 94 -229q0 -86 -43 -160l-2 -4l-239 -342h-215l141 203q-143 6 -232 87q-88 81 -88 219z" />
    <glyph glyph-name="zero.numr" horiz-adv-x="956" 
d="M254 997q0 -111 64 -180t162 -69q99 0 162 68q62 68 62 180t-62 181t-162 69t-163 -69t-63 -180zM480 1411q183 0 296 -114t113 -300t-113 -301q-113 -114 -296 -114t-297 114t-113 301q0 186 113 300q114 114 297 114z" />
    <glyph glyph-name="one.numr" horiz-adv-x="626" 
d="M565 758v-160h-520v160h172v413l-160 -45l-41 162l332 105h51v-635h166z" />
    <glyph glyph-name="two.numr" horiz-adv-x="718" 
d="M651 598h-596v121l283 254q57 51 78 81q20 30 20 76q0 109 -135 109q-92 0 -213 -39l-39 160q129 49 281 49t226 -74t73 -170q0 -96 -50 -172t-147 -162l-86 -77h305v-156z" />
    <glyph glyph-name="three.numr" horiz-adv-x="739" 
d="M672 850q0 -268 -336 -268q-170 0 -291 67l64 144q119 -53 213 -53q180 -1 180 94q0 80 -119 79h-205v88l207 228h-295v164h545v-111l-211 -217l14 -2q104 -9 169 -69t65 -144z" />
    <glyph glyph-name="four.numr" horiz-adv-x="817" 
d="M496 922v268l-236 -268h236zM674 922h119v-156h-119v-168h-178v168h-463v129l450 498h191v-471z" />
    <glyph glyph-name="five.numr" horiz-adv-x="780" 
d="M711 850q0 -116 -88 -192t-251 -76t-296 67l59 154q139 -61 227 -61t134 29q45 30 45 77q0 82 -140 88l-258 12l35 445h502v-164h-348l-10 -123l98 -4q139 -4 215 -70t76 -182z" />
    <glyph glyph-name="six.numr" horiz-adv-x="815" 
d="M408 727q72 0 118 44t45 114q0 71 -45 111q-44 40 -118 40t-118 -41t-44 -111t45 -113q45 -44 117 -44zM408 569q-150 0 -244 88t-94 230q0 92 61 186l223 320h215l-141 -205q143 -6 231 -86q89 -80 89 -218t-96 -226q-94 -88 -244 -89z" />
    <glyph glyph-name="seven.numr" horiz-adv-x="669" 
d="M33 1221v172h604v-111l-303 -684h-203l287 623h-385z" />
    <glyph glyph-name="eight.numr" horiz-adv-x="743" 
d="M372 719q62 0 99 32q37 31 37 81t-37 80t-99 30t-100 -30t-36 -81q-2 -49 36 -81t100 -31zM258 1156q0 -46 31 -73t84 -27t84 28q31 26 31 72t-32 76t-83 30t-83 -30t-32 -76zM702 811q0 -104 -91 -170t-239 -66t-240 66q-91 66 -91 170q0 135 147 188q-119 49 -118 175
q0 104 85 167t218 63t217 -62q84 -64 84 -179t-119 -164q147 -53 147 -188z" />
    <glyph glyph-name="nine.numr" horiz-adv-x="798" 
d="M561 1094q0 70 -45 112t-118 43q-74 -1 -118 -43t-44 -112t45 -112t119 -42t117 42q44 42 44 112zM59 1095q-1 138 95 226t246 88t243 -88q94 -88 94 -229q0 -86 -43 -160l-241 -346h-215l141 202q-143 6 -231 88t-89 219z" />
    <glyph glyph-name="braceleft.case" horiz-adv-x="786" 
d="M504 1190v-250q0 -117 -30 -172t-122 -84q92 -29 122 -84t30 -172v-250q0 -92 40 -125t136 -33v-213q-412 0 -412 381v250q0 90 -37 116t-139 26v208q102 0 139 26t37 116v250q0 381 412 381v-213q-96 0 -136 -33t-40 -125z" />
    <glyph glyph-name="braceright.case" horiz-adv-x="786" 
d="M281 940v250q0 92 -39 125t-138 33v213q414 0 414 -381v-250q0 -90 37 -116t139 -26v-208q-102 0 -139 -26t-37 -116v-250q0 -381 -414 -381v213q98 0 138 33q39 33 39 125v250q0 117 30 172q31 55 123 84q-92 29 -123 84q-30 55 -30 172z" />
    <glyph glyph-name="bracketleft.case" horiz-adv-x="722" 
d="M356 66h295v-228h-532v1712h532v-227h-295v-1257z" />
    <glyph glyph-name="bracketright.case" horiz-adv-x="722" 
d="M70 1323v227h532v-1712h-532v228h297v1257h-297z" />
    <glyph glyph-name="parenleft.case" horiz-adv-x="696" 
d="M319 698q0 -160 41 -298q42 -138 92 -227t158 -249l-172 -108q-344 418 -344 882t344 883l172 -108q-108 -160 -158 -249q-50 -90 -92 -228t-41 -298z" />
    <glyph glyph-name="parenright.case" horiz-adv-x="677" 
d="M584 698q0 -465 -344 -882l-172 108q109 160 158 249q50 89 91 227t41 298t-41 298t-91 228t-158 249l172 108q344 -418 344 -883z" />
    <glyph glyph-name="emdash.case" horiz-adv-x="2031" 
d="M1868 582h-1704v237h1704v-237z" />
    <glyph glyph-name="endash.case" horiz-adv-x="1345" 
d="M1182 582h-1018v237h1018v-237z" />
    <glyph glyph-name="hyphen.case" horiz-adv-x="970" 
d="M805 580h-643v237h643v-237z" />
    <glyph glyph-name="guillemotleft.case" horiz-adv-x="1193" 
d="M1053 371l-131 -121l-381 420l381 420l135 -105l-252 -309zM598 371l-129 -121l-381 420l381 420l133 -105l-252 -309z" />
    <glyph glyph-name="guillemotright.case" horiz-adv-x="1193" 
d="M582 985l135 105l379 -420l-379 -420l-131 121l248 305zM129 985l133 105l381 -420l-381 -420l-131 121l248 305z" />
    <glyph glyph-name="guilsinglleft.case" horiz-adv-x="739" 
d="M598 371l-129 -121l-381 420l381 420l133 -105l-252 -309z" />
    <glyph glyph-name="guilsinglright.case" horiz-adv-x="739" 
d="M137 985l133 105l381 -420l-381 -420l-129 121l248 305z" />
    <glyph glyph-name="backslash.case" horiz-adv-x="974" 
d="M330 1573l561 -1788h-246l-561 1788h246z" />
    <glyph glyph-name="bullet.case" horiz-adv-x="688" 
d="M344 403q-116 0 -192 77t-76 192q0 114 77 190t191 76t193 -77q77 -77 77 -191t-78 -190q-78 -77 -192 -77z" />
    <glyph glyph-name="exclamdown.case" horiz-adv-x="565" 
d="M154 997h235l12 -997h-262zM274 1122q-66 0 -112 44t-45 109q-1 65 45 109t113 43q67 0 113 -44t46 -108q0 -65 -47 -109t-113 -44z" />
    <glyph glyph-name="periodcentered.case" horiz-adv-x="618" 
d="M308 539q-73 0 -123 49t-50 119q0 71 50 119t123 48t124 -49t51 -119t-51 -118q-51 -49 -124 -49z" />
    <glyph glyph-name="questiondown.case" horiz-adv-x="1054" 
d="M592 -31q-223 0 -359 119q-135 119 -135 311q0 191 125 315t320 124h28l-8 159h221l37 -356h-229q-119 0 -192 -69q-72 -69 -72 -172t70 -162q70 -60 197 -60q128 0 343 35l35 -197q-203 -47 -381 -47zM672 1122q-66 0 -113 44t-47 109t46 109t113 43q67 0 113 -44
t45 -108q1 -65 -45 -109t-112 -44z" />
    <glyph glyph-name="slash.case" horiz-adv-x="966" 
d="M330 -197h-246l553 1770h246z" />
    <glyph glyph-name="florin.tf" horiz-adv-x="1292" 
d="M1133 854v-211h-379l-35 -256q-31 -209 -125 -313t-272 -105q-92 0 -201 33l37 195q80 -15 156 -15t114 50q39 50 53 161l35 250h-242v211h273l20 152q29 207 124 312t272 105q90 0 202 -32l-37 -195q-80 14 -156 14t-115 -50q-38 -50 -54 -161l-21 -145h351z" />
    <glyph glyph-name="cent.tf" horiz-adv-x="1292" 
d="M852 -244h-213v244q-197 31 -315 167t-117 340q0 204 118 340t314 169v246h213v-244q115 -8 246 -51l-33 -195q-197 43 -299 43q-141 0 -230 -85q-90 -85 -90 -222t90 -222t230 -85q102 0 303 43l33 -193q-125 -43 -250 -55v-240z" />
    <glyph glyph-name="dollar.tf" horiz-adv-x="1292" 
d="M1217 400q0 -185 -120 -294t-327 -131v-221h-213v219q-252 18 -479 113l59 229q285 -115 535 -114q297 0 297 178q0 75 -55 115q-32 24 -52 36t-112 35t-127 29q-285 47 -394 141q-110 94 -110 263t119 279t319 132v236h213v-238q233 -20 408 -88l-64 -217
q-279 88 -475 88q-123 0 -192 -46t-69 -133t80 -125q79 -38 301 -83t340 -131t118 -272z" />
    <glyph glyph-name="Euro.tf" horiz-adv-x="1292" 
d="M848 207q147 0 364 47l29 -225q-185 -59 -413 -59t-395 123q-167 124 -230 343h-154v166h123q-4 61 -4 94v45h-119v166h141q54 236 226 372t410 136t415 -57l-27 -223q-213 43 -368 43q-297 0 -389 -271h530l-45 -166h-514l-2 -45q0 -49 6 -94h486l-41 -166h-404
q103 -229 375 -229z" />
    <glyph glyph-name="sterling.tf" horiz-adv-x="1292" 
d="M1194 0h-1088v207h130v358h-130v207h130v219q0 195 134 314t357 118q178 0 383 -47l-35 -196q-219 34 -344 34t-193 -59t-67 -162v-221h420v-207h-420v-358h723v-207z" />
    <glyph glyph-name="yen.tf" horiz-adv-x="1292" 
d="M1176 606v-174h-406v-113h406v-172h-406v-147h-248v147h-409v172h409v113h-409v174h340l-412 787h278l326 -633l328 633h278l-411 -787h336z" />
    <glyph glyph-name="arrowdown.ss06" horiz-adv-x="1431" 
d="M655 975h115v-383l135 133l80 -78l-272 -274l-273 274l80 78l135 -135v385zM716 215q196 0 335 139t139 335t-139 335t-335 139t-335 -139t-139 -335t139 -335t335 -139zM717 86q-250 0 -427 177t-177 427t177 426t427 176t426 -177t176 -426t-176 -426t-426 -177z" />
    <glyph glyph-name="arrowdownleft.ss06" horiz-adv-x="1433" 
d="M492 854h112v-192l273 272l79 -82l-270 -270h191v-113l-385 -2v387zM1192 689q0 196 -139 334t-336 139t-335 -137t-138 -336t138 -336t335 -137t336 139t139 334zM115 690q0 250 176 426t426 176t426 -176t176 -426t-176 -426t-426 -176t-426 176t-176 426z" />
    <glyph glyph-name="arrowdownright.ss06" horiz-adv-x="1431" 
d="M557 582h191l-271 270l80 82l272 -272v192h113v-387l-385 2v113zM1190 689q0 198 -138 336t-335 137t-336 -139t-139 -334t139 -334t336 -139t335 137t138 336zM717 88q-250 0 -426 176t-176 425t176 426t426 177t426 -176t176 -426t-176 -426t-426 -176z" />
    <glyph glyph-name="arrowleft.ss06" horiz-adv-x="1431" 
d="M1001 750v-115h-383l134 -135l-78 -80l-275 272l275 273l78 -80l-136 -135h385zM242 689q0 -196 139 -335t335 -139t335 139t139 335t-139 335t-335 139t-335 -139t-139 -335zM113 688q0 250 177 427t427 177t426 -177t176 -427t-176 -426t-426 -176t-427 176t-177 426z
" />
    <glyph glyph-name="arrowright.ss06" horiz-adv-x="1431" 
d="M430 635v115h385l-135 135l78 80l274 -273l-274 -272l-78 80l133 135h-383zM1190 689q0 196 -139 335t-335 139t-335 -139t-139 -335t139 -335t335 -139t335 139t139 335zM1319 688q0 -250 -177 -426t-426 -176t-426 176t-177 426t176 427t426 177t427 -177t177 -427z
" />
    <glyph glyph-name="arrowup.ss06" horiz-adv-x="1431" 
d="M770 403h-115v385l-135 -135l-80 78l273 275l272 -275l-80 -78l-135 133v-383zM716 1163q-196 0 -335 -139t-139 -335t139 -335t335 -139t335 139t139 335t-139 335t-335 139zM717 1292q250 0 426 -177t176 -427t-176 -426t-426 -176t-427 176t-177 426t177 427t427 177z
" />
    <glyph glyph-name="arrowupleft.ss06" horiz-adv-x="1433" 
d="M877 799h-191l270 -271l-79 -82l-273 273v-193h-112v387l385 -2v-112zM244 691q0 -198 138 -336t335 -137t336 139t139 334t-139 334t-336 139t-335 -137t-138 -336zM717 1292q250 0 426 -176t176 -425t-176 -426t-426 -177t-426 176t-176 426t176 426t426 176z" />
    <glyph glyph-name="arrowupright.ss06" horiz-adv-x="1431" 
d="M942 526h-113v193l-272 -273l-80 82l271 271h-191v112l385 2v-387zM242 691q0 -196 139 -334t336 -139t335 137t138 335t-138 336t-335 138t-336 -139t-139 -334zM1319 690q0 -250 -176 -426t-426 -176t-426 177t-176 426t176 425t426 176t426 -176t176 -426z" />
    <glyph glyph-name="arrowdown.ss08" horiz-adv-x="1431" 
d="M770 975h-115v-385l-135 135l-80 -78l273 -274l272 274l-80 78l-135 -133v383zM717 86q-250 0 -427 177t-177 427t177 426t427 176t426 -177t176 -426t-176 -426t-426 -177z" />
    <glyph glyph-name="arrowdownleft.ss08" horiz-adv-x="1433" 
d="M877 582h-191l270 270l-79 82l-273 -272v192h-112v-387l385 2v113zM115 690q0 250 176 426t426 176t426 -176t176 -426t-176 -426t-426 -176t-426 176t-176 426z" />
    <glyph glyph-name="arrowdownright.ss08" horiz-adv-x="1431" 
d="M942 854h-113v-192l-272 272l-80 -82l271 -270h-191v-113l385 -2v387zM717 88q-250 0 -426 176t-176 425t176 426t426 177t426 -176t176 -426t-176 -426t-426 -176z" />
    <glyph glyph-name="arrowleft.ss08" horiz-adv-x="1431" 
d="M1001 635v115h-385l136 135l-78 80l-275 -273l275 -272l78 80l-134 135h383zM113 688q0 250 177 427t427 177t426 -177t176 -427t-176 -426t-426 -176t-427 176t-177 426z" />
    <glyph glyph-name="arrowright.ss08" horiz-adv-x="1431" 
d="M430 750v-115h383l-133 -135l78 -80l274 272l-274 273l-78 -80l135 -135h-385zM1319 688q0 -250 -177 -426t-426 -176t-426 176t-177 426t176 427t426 177t427 -177t177 -427z" />
    <glyph glyph-name="arrowup.ss08" horiz-adv-x="1431" 
d="M655 403h115v383l135 -133l80 78l-272 275l-273 -275l80 -78l135 135v-385zM717 1292q250 0 426 -177t176 -427t-176 -426t-426 -176t-427 176t-177 426t177 427t427 177z" />
    <glyph glyph-name="arrowupleft.ss08" horiz-adv-x="1433" 
d="M492 526h112v193l273 -273l79 82l-270 271h191v112l-385 2v-387zM717 1292q250 0 426 -176t176 -425t-176 -426t-426 -177t-426 176t-176 426t176 426t426 176z" />
    <glyph glyph-name="arrowupright.ss08" horiz-adv-x="1431" 
d="M557 799h191l-271 -271l80 -82l272 273v-193h113v387l-385 -2v-112zM1319 690q0 -250 -176 -426t-426 -176t-426 177t-176 426t176 425t426 176t426 -176t176 -426z" />
    <glyph glyph-name="arrowdown.ss09" horiz-adv-x="1425" 
d="M1241 819l-528 -530l-531 534l144 144l387 -387l385 385z" />
    <glyph glyph-name="arrowup.ss09" horiz-adv-x="1425" 
d="M1098 334l-385 385l-387 -389l-144 145l531 535l528 -531z" />
    <glyph glyph-name="arrowleft.ss09" horiz-adv-x="1126" 
d="M489 694l385 -385l-145 -143l-530 528l534 531l146 -144z" />
    <glyph glyph-name="arrowright.ss09" horiz-adv-x="1126" 
d="M928 694l-531 -528l-145 143l385 385l-389 387l145 144z" />
    <glyph glyph-name="registered.ss07" horiz-adv-x="1191" 
d="M535 965h83q29 0 46 17q16 17 16 40q0 66 -72 65l-73 -2v-120zM622 1188q66 0 118 -45t52 -127t-81 -125l102 -158h-135l-86 131h-57v-131h-107v451q128 4 194 4zM597 1331q-165 -1 -273 -109t-109 -271q0 -163 109 -273q110 -110 274 -109q164 0 272 110
q108 111 109 273q-1 162 -109 270t-273 109zM596 1423q205 0 343 -135t138 -338t-137 -337t-344 -134t-344 134t-137 337t138 338t343 135z" />
    <glyph glyph-name="at.case" horiz-adv-x="2097" 
d="M1004 971q-146 0 -214 -82t-69 -217q0 -135 72 -220q73 -85 201 -85t261 104q-4 45 -4 74v409q-101 17 -247 17zM967 1161q285 0 510 -45v-610q1 -92 23 -131t83 -39q279 0 279 351t-224 568t-580 217q-354 0 -588 -226t-234 -564q0 -223 96 -403q96 -181 273 -285
t397 -106t548 75l23 -110q-326 -84 -565 -84q-397 0 -647 259q-249 259 -249 651t268 652t680 260t668 -250t257 -659q0 -250 -122 -377t-318 -127t-257 127q-156 -127 -348 -127t-316 137t-122 359t124 355q122 132 341 132z" />
    <glyph glyph-name="bar.case" horiz-adv-x="653" 
d="M436 1616v-1880h-219v1880h219z" />
    <glyph glyph-name="brokenbar.case" horiz-adv-x="653" 
d="M436 -266h-219v835h219v-835zM436 778h-219v836h219v-836z" />
    <glyph glyph-name="caron.alt" 
d="M745 1393l-73 -414h-178l12 414h239z" />
    <glyph glyph-name="acute.case" 
d="M979 1825l-240 -291h-247l172 291h315z" />
    <glyph glyph-name="breve.case" 
d="M731 1841h203q0 -145 -86 -227t-234 -82t-233 82q-86 82 -86 227h201q0 -125 118 -125t117 125z" />
    <glyph glyph-name="caron.case" 
d="M719 1509h-209l-246 312h234l116 -150l119 150h234z" />
    <glyph glyph-name="circumflex.case" 
d="M614 1681l-118 -147h-232l246 291h209l248 -291h-234z" />
    <glyph glyph-name="dieresis.case" 
d="M684 1674q0 60 43 102t105 43q62 0 106 -42q44 -43 43 -103q1 -60 -43 -102t-106 -42t-105 42t-43 102zM246 1674q0 60 43 102t105 43q62 0 106 -42q44 -43 43 -103q1 -60 -43 -102t-106 -42t-105 42t-43 102z" />
    <glyph glyph-name="dotaccent.case" 
d="M614 1530q-61 0 -105 42t-44 102t44 102t105 43q62 0 106 -42q44 -43 44 -103t-44 -102t-106 -42z" />
    <glyph glyph-name="grave.case" 
d="M721 1534h-232l-239 291h315z" />
    <glyph glyph-name="hungarumlaut.case" 
d="M1008 1825l-119 -291h-211l96 291h234zM692 1825l-119 -291h-213l99 291h233z" />
    <glyph glyph-name="macron.case" 
d="M934 1772v-191h-639v191h639z" />
    <glyph glyph-name="ring.case" 
d="M514 1711q0 -41 26 -67t69 -26q42 0 68 26q25 26 25 68t-25 67q-26 25 -68 25q-43 0 -69 -26t-26 -67zM608 1925q102 0 166 -58q64 -59 64 -155t-64 -156t-166 -59q-102 0 -165 59q-62 60 -62 156t62 155q63 58 165 58z" />
    <glyph glyph-name="tilde.case" 
d="M793 1786h188q0 -88 -35 -150q-64 -112 -196 -107q-57 1 -107 30l-100 63q-51 24 -76 6t-25 -61h-190q0 88 35 149t87 86t110 23t106 -29l102 -63q53 -25 77 -7t24 60z" />
    </font>
</defs>
</svg>
