<?xml version="1.0" standalone="no"?>
<!DOCTYPE svg PUBLIC "-//W3C//DTD SVG 1.1//EN" "http://www.w3.org/Graphics/SVG/1.1/DTD/svg11.dtd" >
<svg xmlns="http://www.w3.org/2000/svg">
<metadata>
Created by FontPrep 20130207 at Mon Nov 21 12:25:25 2016
 By Rene Bieder
Copyright (c) 2013 by Rene' Bieder. All rights reserved.
</metadata>
<defs>
<font id="7afa10f6b2deaf5cc777aca7506e9d9f" horiz-adv-x='1024' >
  <font-face 
    font-family="Canaro-ExtraBold"
    font-weight="800"
    font-stretch="normal"
    units-per-em="2048"
    panose-1="0 0 9 0 0 0 0 0 0 0"
    ascent="1638"
    descent="-410"
    x-height="1008"
    cap-height="1393"
    bbox="-176 -598 3078 2007.01"
    underline-thickness="102"
    underline-position="-102"
    unicode-range="U+0020-FB02"
  />
<missing-glyph horiz-adv-x="1781" 
d="M348 143h977l-977 977v-977zM1434 1249h-985l985 -985v985zM1577 1393v-1393h-1372v1393h1372z" />
    <glyph glyph-name="fi" unicode="fi" horiz-adv-x="1482" 
d="M809 1251q-213 0 -213 -196v-47h807v-1008h-395v657h-412v-657h-395v657h-195v351h195v61q0 236 160 379q161 143 407 143q295 0 504 -200l-201 -242q-135 102 -262 102z" />
    <glyph glyph-name="fl" unicode="fl" horiz-adv-x="1507" 
d="M1415 0h-397v1206q-125 45 -223 45q-199 0 -199 -184v-59h303v-351h-303v-657h-395v657h-195v351h195v102q0 231 143 356t365 125q86 0 145 -12t180 -51l381 -19v-1509z" />
    <glyph glyph-name="f_f" unicode="ff" horiz-adv-x="1751" 
d="M1047 1008v159q-119 84 -227 84q-224 0 -224 -196v-47h451zM1745 657h-303v-657h-395v657h-451v-657h-395v657h-195v351h195v61q0 236 163 379t395 143t406 -114q115 115 305 114q131 0 263 -24l-35 -310q-68 7 -128 7q-128 1 -128 -156v-100h303v-351z" />
    <glyph glyph-name="f_f_i" unicode="ffi" horiz-adv-x="2320" 
d="M809 1251q-213 0 -213 -196v-47h442v61q0 57 9 98q-123 84 -238 84zM1647 1251q-213 0 -213 -196v-47h807v-1008h-396v657h-411v-657h-396v657h-442v-657h-395v657h-195v351h195v61q0 236 160 379q161 143 408 143t433 -141q160 141 404 141q295 0 503 -200l-200 -242
q-135 102 -262 102z" />
    <glyph glyph-name="f_f_l" unicode="ffl" horiz-adv-x="2336" 
d="M809 1251q-213 0 -213 -196v-47h442v102q0 41 2 61q-115 80 -231 80zM2238 0h-397v1212q-113 39 -209 39q-199 0 -198 -184v-59h303v-351h-303v-657h-396v657h-442v-657h-395v657h-195v351h195v61q0 236 160 379q161 143 402 143t419 -125q137 125 364 125q88 0 148 -13
t178 -52l366 -17v-1509z" />
    <glyph glyph-name=".notdef" horiz-adv-x="1781" 
d="M348 143h977l-977 977v-977zM1434 1249h-985l985 -985v985zM1577 1393v-1393h-1372v1393h1372z" />
    <glyph glyph-name=".null" horiz-adv-x="0" 
 />
    <glyph glyph-name="nonmarkingreturn" horiz-adv-x="681" 
 />
    <glyph glyph-name="space" unicode=" " horiz-adv-x="456" 
 />
    <glyph glyph-name="exclam" unicode="!" horiz-adv-x="616" 
d="M310 -33q-89 1 -151 59q-63 58 -63 145t62 146t152 59q88 0 152 -58q64 -60 64 -147t-64 -145t-152 -59zM530 1393l-32 -924h-381l-33 924h446z" />
    <glyph glyph-name="quotedbl" unicode="&#x22;" horiz-adv-x="950" 
d="M518 999v574h371l-80 -574h-291zM117 999v574h370l-79 -574h-291z" />
    <glyph glyph-name="numbersign" unicode="#" horiz-adv-x="1673" 
d="M727 791l-65 -213h270l65 213h-270zM1511 578v-312h-317l-82 -266h-360l82 266h-271l-84 -266h-360l84 266h-156v312h254l66 213h-207v311h305l90 293h360l-90 -293h271l92 293h360l-92 -293h168v-311h-266l-66 -213h219z" />
    <glyph glyph-name="dollar" unicode="$" horiz-adv-x="1392" 
d="M868 -213h-295v190q-231 23 -512 117l93 348q336 -117 524 -123q92 -2 134 24t42 71t-66 70q-18 6 -31 12t-39 11t-42 9t-47 10q-286 55 -402 152q-117 96 -117 284t122 304q122 117 341 143v229h295v-229q231 -23 424 -84l-78 -352q-330 96 -490 96t-159 -90
q0 -61 94 -84q127 -30 215 -49q172 -37 296 -122q143 -97 143 -291q0 -195 -116 -310t-329 -143v-193z" />
    <glyph glyph-name="percent" unicode="%" horiz-adv-x="2242" 
d="M1705 211q73 0 125 50t52 128t-52 128t-125 50t-125 -50t-52 -128t52 -128t125 -50zM1704 807q186 0 308 -116t122 -302t-122 -303t-308 -117t-308 117t-122 303t122 302t308 116zM541 825q74 1 125 51t51 128t-52 128t-125 50t-125 -50q-53 -50 -53 -128t52 -128
t127 -51zM733 0h-190l960 1393h191zM539 1423q186 1 308 -115t122 -302t-122 -304t-308 -116q-186 0 -309 116q-122 118 -122 304t122 302q123 115 309 115z" />
    <glyph glyph-name="ampersand" unicode="&#x26;" horiz-adv-x="1298" 
d="M803 569h-146q-242 0 -241 -131q0 -63 53 -103t140 -40t141 41q53 41 53 110v123zM680 1098q-186 0 -186 -130q0 -62 34 -88t129 -26h613v-285h-101v-123q-1 -215 -155 -346t-406 -131t-406 118t-153 310q0 240 219 326q-139 93 -139 283t141 304t383 113q195 0 365 -51
l-74 -305q-166 31 -264 31z" />
    <glyph glyph-name="quotesingle" unicode="'" horiz-adv-x="546" 
d="M117 999v574h368l-79 -574h-289z" />
    <glyph glyph-name="parenleft" unicode="(" horiz-adv-x="813" 
d="M475 534q0 -268 70 -472t213 -457l-320 -183q-375 498 -375 1116t375 1092l320 -182q-143 -242 -213 -444t-70 -470z" />
    <glyph glyph-name="parenright" unicode=")" horiz-adv-x="796" 
d="M733 538q0 -617 -375 -1116l-319 183q143 255 213 457t70 472t-70 470q-70 202 -213 444l319 182q375 -475 375 -1092z" />
    <glyph glyph-name="asterisk" unicode="*" horiz-adv-x="837" 
d="M516 713h-194v196l-177 -104l-96 166l180 106l-180 107l96 168l177 -105v187h194v-187l176 105l96 -168l-180 -107l180 -106l-96 -166l-176 104v-196z" />
    <glyph glyph-name="plus" unicode="+" horiz-adv-x="1341" 
d="M815 526v-342h-287v342h-338v277h338v342h287v-342h336v-277h-336z" />
    <glyph glyph-name="comma" unicode="," horiz-adv-x="690" 
d="M111 195q1 95 69 159t166 64t167 -65t69 -145t-41 -159q-41 -80 -193 -321h-237l129 280q-129 57 -129 187z" />
    <glyph glyph-name="hyphen" unicode="-" horiz-adv-x="1085" 
d="M893 342h-703v367h703v-367z" />
    <glyph glyph-name="period" unicode="." horiz-adv-x="690" 
d="M344 -33q-98 0 -167 65t-68 161q1 97 69 161t166 64t168 -65t70 -161t-70 -160q-70 -65 -168 -65z" />
    <glyph glyph-name="slash" unicode="/" horiz-adv-x="1095" 
d="M324 -557h-318l752 2130h317z" />
    <glyph glyph-name="zero" unicode="0" horiz-adv-x="1488" 
d="M745 322q133 0 214 103t81 271t-81 272t-214 103q-133 0 -215 -103q-82 -104 -82 -272t82 -271t215 -103zM745 1423q303 0 489 -199q185 -200 185 -528t-185 -528q-184 -200 -488 -199q-304 0 -490 200q-186 199 -186 527t186 528t489 199z" />
    <glyph glyph-name="one" unicode="1" horiz-adv-x="913" 
d="M770 0h-387v940l-287 -68l-76 345l609 176h141v-1393z" />
    <glyph glyph-name="two" unicode="2" horiz-adv-x="1198" 
d="M1133 0h-1049v268l434 377q117 97 158 153t41 109q0 160 -191 160q-141 0 -389 -76l-80 326q299 106 546 106t379 -127t132 -327q0 -147 -76 -265t-227 -245l-141 -115h463v-344z" />
    <glyph glyph-name="three" unicode="3" horiz-adv-x="1269" 
d="M1190 444q0 -227 -144 -351t-416 -124t-575 115l103 305q262 -94 467 -94q90 0 141 39t51 100t-55 93t-152 32h-256v160l291 332h-524v342h1016v-207l-299 -361l22 -4q152 -25 241 -127t89 -250z" />
    <glyph glyph-name="four" unicode="4" horiz-adv-x="1370" 
d="M817 524v437l-342 -437h342zM1171 524h154v-311h-154v-213h-354v213h-770v268l770 912h354v-869z" />
    <glyph glyph-name="five" unicode="5" horiz-adv-x="1265" 
d="M1202 440q0 -209 -152 -340t-430 -131t-552 117l102 305q256 -92 436 -92q211 0 211 143q0 135 -219 146l-420 20l76 785h883v-361h-555l-15 -135l109 -6q256 -12 391 -127t135 -324z" />
    <glyph glyph-name="six" unicode="6" horiz-adv-x="1300" 
d="M651 287q104 0 169 60q65 61 65 159t-65 158t-170 61q-105 0 -170 -60q-64 -61 -64 -159t65 -159q66 -60 170 -60zM1247 510q0 -242 -165 -392t-432 -149q-267 0 -431 150t-164 391q0 162 117 319l426 564h444l-294 -383q227 -25 363 -159t136 -341z" />
    <glyph glyph-name="seven" unicode="7" horiz-adv-x="1193" 
d="M55 1032v361h1100v-219l-491 -1174h-424l438 1032h-623z" />
    <glyph glyph-name="eight" unicode="8" horiz-adv-x="1284" 
d="M461 437q0 -67 50 -111t131 -43q81 0 130 44q49 45 49 111t-49 108t-130 42t-131 -42t-50 -109zM641 1137q-70 -1 -114 -41t-44 -102t43 -100t115 -38t116 38t44 100t-45 102t-115 41zM1229 383q0 -195 -156 -305t-431 -109q-275 0 -431 110t-156 304q0 240 256 342
q-197 88 -196 305q0 172 148 283q149 111 379 111t379 -110q148 -110 148 -284q1 -217 -198 -305q258 -102 258 -342z" />
    <glyph glyph-name="nine" unicode="9" horiz-adv-x="1320" 
d="M418 887q0 -98 64 -159q65 -60 170 -60t169 60q63 60 63 158t-64 160q-65 60 -169 60t-169 -60q-64 -61 -64 -159zM651 1423q268 1 432 -149t164 -391q0 -135 -94 -291l-375 -592h-440l244 379q-240 19 -383 155t-143 364t163 376q164 149 432 149z" />
    <glyph glyph-name="colon" unicode=":" horiz-adv-x="690" 
d="M344 -33q-98 0 -167 65t-68 161q1 97 69 161t166 64t167 -65t69 -161t-69 -160q-69 -65 -167 -65zM344 590q-98 0 -167 66t-68 161q0 96 68 161q69 64 167 64t168 -64t70 -161q0 -95 -70 -161t-168 -66z" />
    <glyph glyph-name="semicolon" unicode=";" horiz-adv-x="696" 
d="M111 195q1 95 69 159t166 64t167 -65t69 -145t-41 -159q-41 -80 -193 -321h-237l131 280q-131 57 -131 187zM352 590q-98 0 -167 66t-68 161q0 96 68 161q69 64 167 64t167 -64t69 -161q0 -95 -69 -161t-167 -66z" />
    <glyph glyph-name="less" unicode="&#x3c;" horiz-adv-x="1054" 
d="M940 1188v-338l-491 -219l491 -221v-338l-864 389v338z" />
    <glyph glyph-name="equal" unicode="=" horiz-adv-x="1370" 
d="M1178 301h-988v277h988v-277zM1178 737h-988v277h988v-277z" />
    <glyph glyph-name="greater" unicode="&#x3e;" horiz-adv-x="1054" 
d="M981 461l-864 -389v338l489 221l-489 219v338l864 -389v-338z" />
    <glyph glyph-name="question" unicode="?" horiz-adv-x="1040" 
d="M415 377q89 1 152 -59t63 -147t-62 -145q-64 -58 -153 -58t-151 58t-63 145q1 87 63 147t151 59zM459 1423q242 -1 388 -119t146 -306q-1 -188 -113 -312q-112 -125 -294 -125h-8l2 -106h-351l-39 364h236q94 0 147 38q53 37 53 103t-47 102q-48 36 -148 36t-335 -37
l-51 313q236 49 414 49z" />
    <glyph glyph-name="at" unicode="@" horiz-adv-x="2029" 
d="M978 692q-76 0 -126 -56q-51 -56 -51 -148t52 -146q52 -55 131 -55t159 67v330q-89 8 -165 8zM1589 190q255 0 252 308q0 352 -222 568q-221 216 -573 216t-583 -225t-231 -561t209 -559q210 -223 548 -226q207 0 555 78l25 -123q-344 -86 -580 -86q-399 0 -647 260
t-248 656t270 656q270 261 682 261q414 0 673 -251t259 -664q0 -250 -135 -378t-361 -128t-296 123q-129 -125 -294 -125t-307 140t-143 380q14 207 142 337t336 130q156 0 585 -45v-596q-1 -80 17 -113t67 -33z" />
    <glyph glyph-name="A" unicode="A" horiz-adv-x="1619" 
d="M811 940l-160 -412h316zM524 190l-73 -190h-437l604 1401h383l605 -1401h-437l-73 190h-572z" />
    <glyph glyph-name="B" unicode="B" horiz-adv-x="1347" 
d="M702 307q192 0 191 144q0 57 -44 90t-118 32h-209v-262q82 -4 180 -4zM692 1090q-83 0 -170 -3v-266h183q71 0 115 39t44 105q0 125 -172 125zM776 -16q-234 0 -667 16v1393q427 12 647 12t356 -99t137 -272q-1 -119 -63 -211t-168 -125q127 -30 203 -118t75 -201
q0 -183 -143 -289t-377 -106z" />
    <glyph glyph-name="C" unicode="C" horiz-adv-x="1445" 
d="M882 1040q-160 0 -262 -94q-104 -94 -104 -250t104 -251t271 -95q121 0 436 53l62 -356q-285 -76 -531 -76q-354 0 -571 200q-217 199 -217 525t217 526t569 199q242 1 535 -69l-64 -365q-285 53 -445 53z" />
    <glyph glyph-name="D" unicode="D" horiz-adv-x="1495" 
d="M1001 697q0 161 -89 256t-234 96q-53 0 -156 -5v-698l168 -2q137 0 224 96t87 257zM649 1409q357 0 567 -189q210 -190 210 -522t-206 -523q-204 -191 -542 -191q-231 0 -569 16v1393q421 16 540 16z" />
    <glyph glyph-name="E" unicode="E" horiz-adv-x="1273" 
d="M522 864h572v-332h-572v-186h668v-346h-1081v1393h1081v-346h-668v-183z" />
    <glyph glyph-name="F" unicode="F" horiz-adv-x="1187" 
d="M522 805h543v-365h-543v-440h-413v1393h1052v-353h-639v-235z" />
    <glyph glyph-name="G" unicode="G" horiz-adv-x="1589" 
d="M1485 834v-721q-401 -143 -643 -144q-348 0 -560 201q-212 202 -212 528t209 526t550 199q266 0 564 -71l-64 -351q-315 47 -468 47t-254 -96t-101 -255t95 -255t247 -96t313 39v137h-403v312h727z" />
    <glyph glyph-name="H" unicode="H" horiz-adv-x="1531" 
d="M1421 0h-411v496h-488v-496h-413v1393h413v-537h488v537h411v-1393z" />
    <glyph glyph-name="I" unicode="I" horiz-adv-x="616" 
d="M514 1393v-1393h-412v1393h412z" />
    <glyph glyph-name="J" unicode="J" horiz-adv-x="1140" 
d="M1053 1393v-789q1 -305 -141 -470t-416 -165q-236 0 -484 97l78 352q240 -59 377 -60q166 0 166 232v803h420z" />
    <glyph glyph-name="K" unicode="K" horiz-adv-x="1509" 
d="M522 436v-436h-413v1393h413v-555h35l404 555h487l-479 -652l526 -741h-502l-297 436h-174z" />
    <glyph glyph-name="L" unicode="L" horiz-adv-x="1210" 
d="M1167 0h-1058v1393h413v-1037h645v-356z" />
    <glyph glyph-name="M" unicode="M" horiz-adv-x="1912" 
d="M1391 578l-304 -578h-262l-301 578l-37 -578h-399l68 1393h352l448 -828l449 828h354l66 -1393h-400z" />
    <glyph glyph-name="N" unicode="N" horiz-adv-x="1566" 
d="M1458 1393v-1393h-366l-570 702v-702h-413v1393h378l557 -705v705h414z" />
    <glyph glyph-name="O" unicode="O" horiz-adv-x="1642" 
d="M821 342q145 0 237 97q91 97 91 257t-91 257q-90 97 -236 97t-237 -96q-91 -98 -91 -258t91 -257t236 -97zM821 1423q336 -1 544 -201t208 -526t-208 -526t-544 -201q-335 0 -543 201q-208 200 -208 526t208 526t543 201z" />
    <glyph glyph-name="P" unicode="P" horiz-adv-x="1343" 
d="M522 680h166q92 0 148 50q55 50 55 141t-54 141t-158 49q-104 0 -157 -2v-379zM680 1409q295 0 461 -141q166 -142 166 -398t-167 -397t-460 -141h-158v-332h-413v1393q409 16 571 16z" />
    <glyph glyph-name="Q" unicode="Q" horiz-adv-x="1642" 
d="M494 696q0 -160 91 -257t237 -97t238 97q91 97 91 257t-91 257q-92 97 -238 97t-237 -96q-91 -98 -91 -258zM1571 696q0 -214 -91 -376t-257 -254l315 -404h-475l-244 307q-333 0 -541 201q-208 200 -208 526t208 527t544 201t542 -202q207 -200 207 -526z" />
    <glyph glyph-name="R" unicode="R" horiz-adv-x="1400" 
d="M522 696h160q98 0 154 52t57 137q0 176 -217 176h-154v-365zM522 362v-362h-413v1393q440 14 591 14q289 0 449 -132t160 -378q0 -281 -213 -426l307 -471h-481l-217 362h-183z" />
    <glyph glyph-name="S" unicode="S" horiz-adv-x="1392" 
d="M724 1069q-160 0 -159 -90q0 -47 48 -66t91 -28t75 -17t99 -22q168 -36 292 -122q143 -97 143 -307t-157 -329q-156 -119 -438 -119t-657 125l93 348q336 -117 526 -123q90 -2 132 24t42 71t-66 70q-18 6 -31 12t-39 11t-42 9t-47 10q-286 55 -402 152q-115 96 -114 278
q0 219 156 340q157 121 447 121t576 -92l-78 -352q-330 96 -490 96z" />
    <glyph glyph-name="T" unicode="T" horiz-adv-x="1378" 
d="M895 1034v-1034h-412v1034h-442v359h1296v-359h-442z" />
    <glyph glyph-name="U" unicode="U" horiz-adv-x="1515" 
d="M1425 1393v-740q0 -326 -176 -505t-491 -179t-493 179q-177 179 -177 505v740h418v-740q0 -141 68 -220t184 -79q118 0 184 79t66 220v740h417z" />
    <glyph glyph-name="V" unicode="V" horiz-adv-x="1636" 
d="M1030 0h-422l-588 1393h461l336 -854l340 854h459z" />
    <glyph glyph-name="W" unicode="W" horiz-adv-x="2189" 
d="M1749 0h-403l-250 723l-252 -723h-404l-424 1393h439l211 -742l260 742h338l258 -742l213 742h438z" />
    <glyph glyph-name="X" unicode="X" horiz-adv-x="1546" 
d="M1049 684l477 -684h-471l-283 377l-283 -377h-471l478 684l-473 709h493l256 -379l254 379h496z" />
    <glyph glyph-name="Y" unicode="Y" horiz-adv-x="1540" 
d="M977 0h-412l-2 420l-547 973h459l293 -533l297 533h459l-547 -973v-420z" />
    <glyph glyph-name="Z" unicode="Z" horiz-adv-x="1359" 
d="M1296 358v-358h-1235v264l635 770h-596v359h1180v-265l-616 -770h632z" />
    <glyph glyph-name="bracketleft" unicode="[" horiz-adv-x="829" 
d="M487 -170h295v-362h-692v2129h692v-362h-295v-1405z" />
    <glyph glyph-name="backslash" unicode="\" horiz-adv-x="1095" 
d="M426 1573l649 -2130h-385l-649 2130h385z" />
    <glyph glyph-name="bracketright" unicode="]" horiz-adv-x="829" 
d="M47 1235v362h692v-2129h-692v362h295v1405h-295z" />
    <glyph glyph-name="asciicircum" unicode="^" horiz-adv-x="894" 
d="M446 1149l-122 -211h-308l291 457h281l289 -457h-308z" />
    <glyph glyph-name="underscore" unicode="_" horiz-adv-x="1259" 
d="M47 -188h1163v-324h-1163v324z" />
    <glyph glyph-name="grave" unicode="`" 
d="M838 1147h-371l-287 321h467z" />
    <glyph glyph-name="a" unicode="a" horiz-adv-x="1300" 
d="M639 731q-93 0 -149 -61q-56 -62 -56 -160t56 -158t140 -61q84 0 173 76v354q-119 10 -164 10zM548 1038q212 0 650 -49v-989h-395v63q-121 -94 -281 -94t-306 128q-71 62 -116 170t-45 243q9 240 145 384t348 144z" />
    <glyph glyph-name="b" unicode="b" horiz-adv-x="1302" 
d="M657 731q-55 0 -155 -14v-414q123 -12 160 -12q94 0 150 60q56 61 56 161t-56 160q-57 59 -155 59zM502 1454v-428q131 12 233 12q231 0 369 -143t143 -383q0 -137 -46 -246q-79 -186 -280 -263q-85 -32 -212 -32t-605 47v1436h398z" />
    <glyph glyph-name="c" unicode="c" horiz-adv-x="1048" 
d="M655 725q-93 0 -159 -60q-66 -59 -66 -159t64 -158t174 -57q111 0 295 31l34 -291q-190 -61 -362 -62q-260 1 -420 147t-160 389t161 390t423 147q174 0 358 -59l-49 -289q-199 31 -293 31z" />
    <glyph glyph-name="d" unicode="d" horiz-adv-x="1302" 
d="M645 731q-99 0 -155 -59q-56 -60 -56 -160t56 -160t151 -61q37 0 160 12v414q-101 14 -156 14zM1198 1454v-1436q-477 -47 -604 -47t-212 32t-160 93t-121 170t-46 246q5 240 143 383t369 143q100 0 234 -12v428h397z" />
    <glyph glyph-name="e" unicode="e" horiz-adv-x="1142" 
d="M592 748q-143 0 -176 -152h338q-4 70 -46 111t-116 41zM47 508q0 240 146 386q145 146 377 146t374 -131t146 -342q0 -80 -21 -176h-639q49 -119 205 -119t371 45l45 -264q-227 -84 -416 -84q-268 0 -428 150q-160 149 -160 389z" />
    <glyph glyph-name="f" unicode="f" horiz-adv-x="905" 
d="M899 657h-303v-657h-395v657h-195v351h195v129q0 219 116 337q117 118 310 117q131 0 262 -24l-35 -310q-72 7 -132 7q-126 1 -126 -156v-100h303v-351z" />
    <glyph glyph-name="g" unicode="g" horiz-adv-x="1294" 
d="M639 731q-93 0 -149 -61q-56 -62 -56 -158t56 -154t142 -59q86 0 171 12v410q-119 10 -164 10zM561 1038q154 0 637 -49v-983q0 -258 -157 -398t-455 -140q-174 0 -375 59l49 287q211 -37 309 -37q225 0 234 209q-117 -10 -244 -10t-237 54t-188 179q-79 125 -79 301
q5 240 143 384t363 144z" />
    <glyph glyph-name="h" unicode="h" horiz-adv-x="1277" 
d="M786 1038q180 0 290 -106t110 -281v-651h-398v528q0 156 -129 156q-35 0 -163 -12v-672h-398v1454h398v-432q161 16 290 16z" />
    <glyph glyph-name="i" unicode="i" horiz-adv-x="583" 
d="M492 1008v-1008h-398v1008h398zM291 1114q-94 0 -161 64t-67 157t67 157t161 64t162 -63q67 -63 67 -157t-68 -158t-161 -64z" />
    <glyph glyph-name="j" unicode="j" horiz-adv-x="606" 
d="M502 1008v-971q0 -135 -18 -222t-74 -164q-105 -147 -453 -155l-20 320q61 4 97 17q57 21 67 99q3 25 3 78v998h398zM302 1556q95 0 162 -63q66 -63 66 -157t-66 -158t-162 -64q-95 0 -162 64t-66 157q0 94 66 158q67 63 162 63z" />
    <glyph glyph-name="k" unicode="k" horiz-adv-x="1294" 
d="M502 684h22l262 324h445l-338 -420l381 -588h-451l-205 324h-116v-324h-398v1454h398v-770z" />
    <glyph glyph-name="l" unicode="l" horiz-adv-x="608" 
d="M502 1454v-1454h-396v1454h396z" />
    <glyph glyph-name="m" unicode="m" horiz-adv-x="1908" 
d="M1412 1038q181 0 293 -99t112 -288v-651h-398v528q0 90 -36 123t-80 33t-150 -10q6 -61 6 -111v-563h-397v528q0 90 -36 123t-86 33t-138 -6v-678h-398v987q418 51 648 51q119 0 204 -39q275 39 456 39z" />
    <glyph glyph-name="n" unicode="n" horiz-adv-x="1284" 
d="M666 684q-36 0 -164 -8v-676h-398v989q437 49 687 49q181 0 291 -106t110 -281v-651h-397v528q0 156 -129 156z" />
    <glyph glyph-name="o" unicode="o" horiz-adv-x="1259" 
d="M630 295q91 0 151 59q61 58 61 152t-60 152t-152 58t-152 -58t-60 -152t60 -153q61 -58 152 -58zM631 1044q253 0 413 -148t160 -389t-160 -391t-414 -149q-254 0 -414 150q-161 149 -161 391t161 389t415 147z" />
    <glyph glyph-name="p" unicode="p" horiz-adv-x="1306" 
d="M670 299q86 0 142 58q56 59 56 155t-55 158t-149 61q-45 0 -162 -10v-410q82 -12 168 -12zM736 1038q232 0 368 -144t145 -384q0 -132 -46 -238q-81 -187 -279 -264q-86 -33 -196 -33t-226 11v-432h-398v1435q400 49 632 49z" />
    <glyph glyph-name="q" unicode="q" horiz-adv-x="1306" 
d="M637 299q86 0 170 12v410q-119 10 -164 10q-94 0 -149 -61q-56 -62 -56 -158t56 -154t143 -59zM572 1038q232 0 630 -49v-1435h-395v432q-119 -10 -245 -10t-236 54t-188 179q-79 125 -79 301q9 240 145 384t368 144z" />
    <glyph glyph-name="r" unicode="r" horiz-adv-x="870" 
d="M829 1030v-381q-162 0 -327 -12v-637h-398v965q358 65 725 65z" />
    <glyph glyph-name="s" unicode="s" horiz-adv-x="1077" 
d="M514 254q110 0 111 39q1 27 -27 37q-41 15 -94 25q-223 42 -324 123q-84 69 -84 208q0 172 120 263t340 91t450 -69l-64 -287q-252 76 -356 76t-105 -49q0 -36 75 -50q75 -15 114 -24q168 -39 257 -110t89 -225t-120 -243q-120 -90 -337 -90t-498 92l72 283
q271 -90 381 -90z" />
    <glyph glyph-name="t" unicode="t" horiz-adv-x="987" 
d="M584 -31q-186 0 -289 118q-102 118 -102 337v233h-173v351h173v323h397v-323h295v-351h-295v-198q0 -135 123 -135q20 0 194 16l35 -320q-172 -51 -358 -51z" />
    <glyph glyph-name="u" unicode="u" horiz-adv-x="1286" 
d="M1184 1008v-992q-416 -37 -686 -36q-180 0 -290 99t-110 288v641h396v-557q0 -90 34 -123t97 -33q12 0 32 1l60 3q39 2 71 4v705h396z" />
    <glyph glyph-name="v" unicode="v" horiz-adv-x="1298" 
d="M844 0h-389l-432 1008h419l207 -535l207 535h420z" />
    <glyph glyph-name="w" unicode="w" horiz-adv-x="1712" 
d="M1382 0h-378l-148 473l-149 -473h-377l-307 1008h397l131 -506l158 506h295l155 -504l131 504h400z" />
    <glyph glyph-name="x" unicode="x" horiz-adv-x="1232" 
d="M877 498l333 -498h-419l-175 260l-174 -260h-419l331 498l-331 512h440l153 -228l154 228h440z" />
    <glyph glyph-name="y" unicode="y" horiz-adv-x="1394" 
d="M1372 1008l-647 -1452h-428l209 477l-477 975h442l240 -504l221 504h440z" />
    <glyph glyph-name="z" unicode="z" horiz-adv-x="1081" 
d="M1026 330v-330h-965v201l408 479h-403v330h933v-209l-391 -471h418z" />
    <glyph glyph-name="braceleft" unicode="{" horiz-adv-x="794" 
d="M614 1139v-332q0 -215 -217 -285q217 -70 217 -284v-332q0 -62 28 -80t106 -19v-376q-528 0 -529 440v393q0 115 -162 115v287q162 0 162 114v394q0 440 529 440v-377q-78 -1 -106 -19t-28 -79z" />
    <glyph glyph-name="bar" unicode="|" horiz-adv-x="694" 
d="M516 1567v-1880h-338v1880h338z" />
    <glyph glyph-name="braceright" unicode="}" horiz-adv-x="794" 
d="M180 807v332q0 61 -27 80q-28 18 -106 18v377q528 0 528 -440v-394q0 -115 162 -114v-287q-162 0 -162 -115v-393q0 -440 -528 -440v376q78 1 106 19t27 80v332q0 215 217 284q-217 70 -217 285z" />
    <glyph glyph-name="asciitilde" unicode="~" horiz-adv-x="1038" 
d="M684 879h328q0 -141 -52 -237q-93 -170 -294 -162q-86 3 -156 44l-68 39q-88 53 -88 -57h-329q0 115 34 199q61 146 203 183t266 -30l66 -39q90 -46 90 60z" />
    <glyph glyph-name="exclamdown" unicode="&#xa1;" horiz-adv-x="606" 
d="M121 541h381l33 -924h-447zM316 1042q90 0 152 -59t62 -146t-62 -145t-152 -59q-90 0 -151 58q-63 57 -63 145t62 147t152 59z" />
    <glyph glyph-name="cent" unicode="&#xa2;" horiz-adv-x="1042" 
d="M774 -213h-295v219q-195 41 -309 179t-115 339q0 201 115 340t309 180v224h295v-217q115 -16 223 -52l-47 -290q-199 31 -297 31t-159 -61q-62 -59 -62 -155t62 -153t168 -57t301 28l34 -291q-109 -35 -223 -51v-213z" />
    <glyph glyph-name="sterling" unicode="&#xa3;" horiz-adv-x="1265" 
d="M1194 0h-1139v338h107v203h-107v282h107v156q0 195 146 315t388 119q186 0 412 -51l-49 -313q-248 39 -320 38q-188 0 -188 -165v-99h350v-282h-350v-203h643v-338z" />
    <glyph glyph-name="yen" unicode="&#xa5;" horiz-adv-x="1540" 
d="M1364 598v-203h-387v-84h387v-202h-387v-109h-412v109h-389v202h387v84h-387v203h289l-449 795h459l293 -533l297 533h459l-449 -795h289z" />
    <glyph glyph-name="brokenbar" unicode="&#xa6;" horiz-adv-x="694" 
d="M516 -315h-338v835h338v-835zM516 729h-338v836h338v-836z" />
    <glyph glyph-name="section" unicode="&#xa7;" horiz-adv-x="1232" 
d="M438 578q0 -86 215 -150q49 -14 92 -31q49 57 50 109q0 82 -217 149q-83 27 -91 31q-49 -53 -49 -108zM668 1423q242 0 419 -104l-108 -285q-199 100 -329 100t-130 -71q0 -57 94 -89q52 -16 68 -22t46 -15l50 -15q163 -48 282 -128q118 -82 118 -264t-172 -292
q70 -82 69 -199q0 -175 -134 -277q-133 -102 -373 -102t-425 102l111 285q197 -98 328 -98t131 71q0 43 -48 68t-155 54q-208 57 -332 142q-123 84 -123 268t170 294q-68 80 -67 198q0 176 134 278t376 101z" />
    <glyph glyph-name="dieresis" unicode="&#xa8;" 
d="M863 1528q87 0 149 -58t61 -143q0 -86 -60 -142q-61 -57 -149 -57t-148 56t-61 143q1 85 61 143t147 58zM156 1327q0 85 60 143t148 58q87 0 148 -58t61 -143q0 -86 -60 -142q-60 -57 -148 -57q-89 0 -149 56t-60 143z" />
    <glyph glyph-name="copyright" unicode="&#xa9;" horiz-adv-x="1619" 
d="M688 698q0 -68 40 -106t108 -39q68 0 213 20l22 -192q-125 -41 -240 -41q-186 0 -288 96q-103 96 -103 261t102 265t289 99q109 0 240 -43l-31 -193q-128 21 -200 21t-112 -40t-40 -108zM1362 696q0 229 -158 384t-394 155q-234 0 -393 -155t-159 -384t159 -384
q159 -154 393 -154t394 154q158 154 158 384zM809 1423q319 0 533 -208t214 -519t-214 -519t-533 -208t-533 208q-213 208 -213 519t213 519q214 208 533 208z" />
    <glyph glyph-name="ordfeminine" unicode="&#xaa;" horiz-adv-x="942" 
d="M360 913q0 -51 76 -51q45 0 125 6v103l-131 -6q-70 -6 -70 -52zM846 1149v-449q-276 -37 -481 -36q-137 0 -213 66t-76 169t74 151t223 56l188 10v8q-4 57 -88 58q-125 0 -303 -23l-31 232q215 30 369 32q154 1 246 -71t92 -203z" />
    <glyph glyph-name="guillemotleft" unicode="&#xab;" horiz-adv-x="1361" 
d="M1262 244l-232 -205l-409 471l409 473l234 -199l-220 -272zM696 244l-231 -205l-410 471l410 473l231 -199l-217 -272z" />
    <glyph glyph-name="registered" unicode="&#xae;" horiz-adv-x="1619" 
d="M811 870q-47 0 -74 -2v-145h88q33 1 57 23t23 53q0 71 -94 71zM811 1051q158 0 240 -66q82 -65 82 -191t-109 -194l158 -233h-260l-111 180h-74v-180h-225v677q141 7 299 7zM1362 696q0 229 -158 384t-394 155q-234 0 -393 -155t-159 -384t159 -384q159 -154 393 -154
t394 154q158 154 158 384zM809 1423q319 0 533 -208t214 -519t-214 -519t-533 -208t-533 208q-213 208 -213 519t213 519q214 208 533 208z" />
    <glyph glyph-name="macron" unicode="&#xaf;" 
d="M915 1438v-287h-602v287h602z" />
    <glyph glyph-name="degree" unicode="&#xb0;" horiz-adv-x="937" 
d="M469 924q59 0 99 39t40 97t-40 97t-99 39t-99 -39t-40 -97t40 -97t99 -39zM469 1423q162 0 268 -103q107 -103 107 -260t-106 -260q-106 -104 -269 -104q-162 0 -268 104q-107 104 -107 260q0 157 106 260t269 103z" />
    <glyph glyph-name="plusminus" unicode="&#xb1;" horiz-adv-x="1341" 
d="M1151 352v-276h-961v276h961zM1151 670h-336v-240h-287v240h-338v276h338v240h287v-240h336v-276z" />
    <glyph glyph-name="twosuperior" unicode="&#xb2;" horiz-adv-x="745" 
d="M711 561h-666v178l309 244q70 55 70 109q0 80 -94 80t-256 -50l-47 224q178 63 342 63q163 0 245 -77t82 -181t-43 -174t-139 -148l-55 -43h252v-225z" />
    <glyph glyph-name="threesuperior" unicode="&#xb3;" horiz-adv-x="765" 
d="M739 838q0 -141 -90 -216t-266 -75t-363 69l70 203q174 -55 287 -55t112 67q0 55 -88 56h-200v104l170 174h-303v230h653v-138l-186 -196q100 -25 152 -83t52 -140z" />
    <glyph glyph-name="acute" unicode="&#xb4;" 
d="M1069 1468l-287 -321h-370l190 321h467z" />
    <glyph glyph-name="paragraph" unicode="&#xb6;" horiz-adv-x="1556" 
d="M340 912q0 -102 58 -161q58 -60 153 -61h156v434l-156 2q-95 0 -153 -56t-58 -158zM586 1411q647 0 882 -18v-1620h-321v1341q-39 2 -121 2v-1343h-319v637h-121q-244 0 -395 140t-151 366t151 361q151 134 395 134z" />
    <glyph glyph-name="periodcentered" unicode="&#xb7;" horiz-adv-x="690" 
d="M344 322q-98 0 -167 66t-68 161q0 96 68 161q69 64 167 64t168 -64t70 -161q0 -95 -70 -161t-168 -66z" />
    <glyph glyph-name="cedilla" unicode="&#xb8;" 
d="M674 -436h-277l88 342h338z" />
    <glyph glyph-name="onesuperior" unicode="&#xb9;" horiz-adv-x="669" 
d="M635 795v-232h-582v232h162v307l-147 -35l-52 219l367 107h94v-598h158z" />
    <glyph glyph-name="ordmasculine" unicode="&#xba;" horiz-adv-x="927" 
d="M342 1046q0 -56 35 -92t87 -36t88 36t36 90q0 56 -36 91t-88 35t-87 -34t-35 -90zM465 1423q180 0 291 -104q110 -104 110 -274t-110 -276q-111 -105 -291 -105t-292 105t-112 275t112 275q112 104 292 104z" />
    <glyph glyph-name="guillemotright" unicode="&#xbb;" horiz-adv-x="1361" 
d="M662 784l233 199l410 -473l-410 -471l-231 205l217 268zM96 784l232 199l409 -473l-409 -471l-232 205l217 268z" />
    <glyph glyph-name="onequarter" unicode="&#xbc;" horiz-adv-x="1902" 
d="M1479 356v207l-179 -207h179zM1827 356v-206h-105v-150h-243v150h-478v182l455 497h266v-473h105zM1559 1393l-963 -1393h-190l962 1393h191zM127 563v232h162v307l-148 -35l-51 219l367 107h94v-598h158v-232h-582z" />
    <glyph glyph-name="onehalf" unicode="&#xbd;" horiz-adv-x="1935" 
d="M1872 225v-225h-666v178l307 244q70 55 70 108q0 80 -94 80t-256 -49l-45 223q178 64 341 64t245 -77t82 -182t-44 -175q-43 -70 -139 -146l-53 -43h252zM1544 1393l-960 -1393h-191l961 1393h190zM121 563v232h162v307l-148 -35l-51 219l367 107h94v-598h157v-232h-581z
" />
    <glyph glyph-name="threequarters" unicode="&#xbe;" horiz-adv-x="1921" 
d="M1503 356v207l-178 -207h178zM1745 356h104v-206h-104v-150h-242v150h-479v182l455 497h266v-473zM608 0h-190l962 1393h191zM786 838q0 -141 -90 -216t-266 -75t-362 69l69 203q174 -55 287 -55t113 67q0 55 -88 56h-201v104l170 174h-303v230h653v-138l-186 -196
q100 -25 152 -83t52 -140z" />
    <glyph glyph-name="questiondown" unicode="&#xbf;" horiz-adv-x="1034" 
d="M580 -401q-242 0 -389 119q-146 120 -146 306t113 313q113 126 295 126h8l-2 104h350l39 -364h-236q-94 0 -147 -37q-53 -38 -53 -104t48 -102t141 -36t341 39l51 -313q-229 -51 -413 -51zM624 645q-88 -1 -152 59t-64 147t63 146t153 59t151 -58q63 -60 63 -147
t-62 -147t-152 -59z" />
    <glyph glyph-name="Agrave" unicode="&#xc0;" horiz-adv-x="1619" 
d="M809 940l-158 -412h316zM524 190l-73 -190h-437l604 1401h383l605 -1401h-437l-73 190h-572zM1004 1509h-373l-287 314h469z" />
    <glyph glyph-name="Aacute" unicode="&#xc1;" horiz-adv-x="1619" 
d="M809 940l-158 -412h316zM524 190l-73 -190h-437l604 1401h383l605 -1401h-437l-73 190h-572zM1284 1823l-287 -314h-376l196 314h467z" />
    <glyph glyph-name="Acircumflex" unicode="&#xc2;" horiz-adv-x="1619" 
d="M809 940l-158 -412h316zM524 190l-73 -190h-437l604 1401h383l605 -1401h-437l-73 190h-572zM809 1624l-90 -115h-344l262 314h342l262 -314h-344z" />
    <glyph glyph-name="Atilde" unicode="&#xc3;" horiz-adv-x="1619" 
d="M809 940l-158 -412h316zM524 190l-73 -190h-437l604 1401h383l605 -1401h-437l-73 190h-572zM975 1849h285q0 -123 -46 -205t-114 -113q-68 -30 -142 -27t-135 38l-57 35q-76 37 -78 -49h-285q-1 121 45 203q46 81 114 111t143 28q74 -2 135 -37l57 -35q78 -45 78 51z
" />
    <glyph glyph-name="Adieresis" unicode="&#xc4;" horiz-adv-x="1619" 
d="M809 940l-158 -412h316zM524 190l-73 -190h-437l604 1401h383l605 -1401h-437l-73 190h-572zM1058 1491q-87 0 -149 56q-61 57 -61 143t61 143t149 57t147 -57q61 -57 61 -142t-60 -143t-148 -57zM559 1491q-88 0 -148 56q-61 57 -61 143t60 143t148 57q86 0 148 -57
t62 -143t-60 -143q-61 -56 -149 -56z" />
    <glyph glyph-name="Aring" unicode="&#xc5;" horiz-adv-x="1619" 
d="M809 940l-158 -412h316zM524 190l-73 -190h-437l604 1401h383l605 -1401h-437l-73 190h-572zM807 1642q45 0 72 27t26 70t-27 69t-71 27q-45 0 -72 -27q-27 -28 -27 -70t28 -69q26 -27 71 -27zM807 2007q127 0 208 -74q81 -73 81 -193t-81 -195t-208 -75t-208 75t-81 195
t81 194t208 73z" />
    <glyph glyph-name="AE" unicode="&#xc6;" horiz-adv-x="2273" 
d="M1122 526v471l-303 -471h303zM1534 864h573v-332h-573v-186h670v-346h-1082v193h-518l-125 -193h-465l930 1393h1260v-346h-670v-183z" />
    <glyph glyph-name="Ccedilla" unicode="&#xc7;" horiz-adv-x="1445" 
d="M778 -436h-276l88 342h338zM882 1040q-158 0 -264 -94q-104 -94 -104 -249t103 -251t274 -96q125 0 434 53l64 -356q-289 -76 -533 -76q-352 0 -569 200q-217 199 -217 525t217 526t569 199q244 1 533 -69l-64 -365q-285 53 -443 53z" />
    <glyph glyph-name="Egrave" unicode="&#xc8;" horiz-adv-x="1273" 
d="M520 864h574v-332h-574v-186h670v-346h-1081v1393h1081v-346h-670v-183zM834 1509h-373l-287 314h469z" />
    <glyph glyph-name="Eacute" unicode="&#xc9;" horiz-adv-x="1273" 
d="M520 864h574v-332h-574v-186h670v-346h-1081v1393h1081v-346h-670v-183zM1112 1823l-287 -314h-376l196 314h467z" />
    <glyph glyph-name="Ecircumflex" unicode="&#xca;" horiz-adv-x="1273" 
d="M520 864h574v-332h-574v-186h670v-346h-1081v1393h1081v-346h-670v-183zM637 1624l-90 -115h-344l262 314h342l262 -314h-344z" />
    <glyph glyph-name="Edieresis" unicode="&#xcb;" horiz-adv-x="1273" 
d="M520 864h574v-332h-574v-186h670v-346h-1081v1393h1081v-346h-670v-183zM886 1491q-87 0 -149 56q-61 57 -61 143t61 143t149 57t147 -57q61 -57 61 -142t-60 -143t-148 -57zM387 1491q-88 0 -148 56q-61 57 -61 143t60 143t148 57q86 0 148 -57t62 -143t-60 -143
q-61 -56 -149 -56z" />
    <glyph glyph-name="Igrave" unicode="&#xcc;" horiz-adv-x="616" 
d="M514 1393v-1393h-412v1393h412zM504 1509h-373l-287 314h469z" />
    <glyph glyph-name="Iacute" unicode="&#xcd;" horiz-adv-x="616" 
d="M514 1393v-1393h-412v1393h412zM784 1823l-286 -314h-377l196 314h467z" />
    <glyph glyph-name="Icircumflex" unicode="&#xce;" horiz-adv-x="616" 
d="M514 1393v-1393h-412v1393h412zM309 1624l-90 -115h-344l262 314h342l262 -314h-344z" />
    <glyph glyph-name="Idieresis" unicode="&#xcf;" horiz-adv-x="616" 
d="M514 1393v-1393h-412v1393h412zM558 1491q-87 0 -148 56q-62 57 -62 143t62 143t148 57q88 0 148 -57t60 -142t-60 -143q-61 -57 -148 -57zM59 1491q-88 0 -148 56q-61 57 -61 143t60 143t148 57q86 0 148 -57t62 -143t-60 -143q-61 -56 -149 -56z" />
    <glyph glyph-name="Eth" unicode="&#xd0;" horiz-adv-x="1495" 
d="M522 850h219v-340h-219v-164l170 -2q137 0 224 96q88 96 88 257t-90 256t-236 96q-49 0 -156 -5v-194zM649 1409q356 0 565 -189q209 -190 209 -522q1 -332 -203 -523t-544 -191q-233 0 -567 16v510h-80v340h80v543q417 16 540 16z" />
    <glyph glyph-name="Ntilde" unicode="&#xd1;" horiz-adv-x="1566" 
d="M1456 1393v-1393h-366l-570 702v-702h-411v1393h378l557 -705v705h412zM942 1849h285q0 -123 -46 -205q-82 -147 -255 -140q-74 3 -135 38l-58 35q-76 37 -78 -49h-284q0 121 45 203q46 81 114 111t142 28t135 -37l57 -35q78 -45 78 51z" />
    <glyph glyph-name="Ograve" unicode="&#xd2;" horiz-adv-x="1642" 
d="M822 342q146 0 238 97q91 97 91 257t-91 257q-92 97 -238 97t-237 -96q-91 -98 -91 -258t91 -257t237 -97zM821 1423q336 -1 543 -201t207 -526t-207 -526t-543 -201q-335 0 -543 201q-208 200 -208 526t208 526t543 201zM1016 1509h-373l-287 314h469z" />
    <glyph glyph-name="Oacute" unicode="&#xd3;" horiz-adv-x="1642" 
d="M822 342q146 0 238 97q91 97 91 257t-91 257q-92 97 -238 97t-237 -96q-91 -98 -91 -258t91 -257t237 -97zM821 1423q336 -1 543 -201t207 -526t-207 -526t-543 -201q-335 0 -543 201q-208 200 -208 526t208 526t543 201zM1296 1823l-286 -314h-377l196 314h467z" />
    <glyph glyph-name="Ocircumflex" unicode="&#xd4;" horiz-adv-x="1642" 
d="M822 342q146 0 238 97q91 97 91 257t-91 257q-92 97 -238 97t-237 -96q-91 -98 -91 -258t91 -257t237 -97zM821 1423q336 -1 543 -201t207 -526t-207 -526t-543 -201q-335 0 -543 201q-208 200 -208 526t208 526t543 201zM821 1624l-90 -115h-344l262 314h342l262 -314
h-344z" />
    <glyph glyph-name="Otilde" unicode="&#xd5;" horiz-adv-x="1642" 
d="M822 342q146 0 238 97q91 97 91 257t-91 257q-92 97 -238 97t-237 -96q-91 -98 -91 -258t91 -257t237 -97zM821 1423q336 -1 543 -201t207 -526t-207 -526t-543 -201q-335 0 -543 201q-208 200 -208 526t208 526t543 201zM987 1849h285q0 -123 -46 -205
q-82 -147 -255 -140q-74 3 -135 38l-58 35q-76 37 -78 -49h-284q0 121 45 203q45 81 113 111t143 28q74 -2 135 -37l57 -35q78 -45 78 51z" />
    <glyph glyph-name="Odieresis" unicode="&#xd6;" horiz-adv-x="1642" 
d="M822 342q146 0 238 97q91 97 91 257t-91 257q-92 97 -238 97t-237 -96q-91 -98 -91 -258t91 -257t237 -97zM821 1423q336 -1 543 -201t207 -526t-207 -526t-543 -201q-335 0 -543 201q-208 200 -208 526t208 526t543 201zM1070 1491q-87 0 -148 56q-62 57 -62 143t62 143
t148 57q88 0 148 -57t60 -142t-60 -143q-61 -57 -148 -57zM571 1491q-88 0 -148 56q-61 57 -61 143t60 143t148 57q86 0 148 -57t62 -143t-60 -143q-61 -56 -149 -56z" />
    <glyph glyph-name="multiply" unicode="&#xd7;" horiz-adv-x="1284" 
d="M1118 377l-196 -197l-279 281l-281 -281l-196 197l280 280l-280 279l196 197l281 -279l279 279l196 -197l-278 -279z" />
    <glyph glyph-name="Oslash" unicode="&#xd8;" horiz-adv-x="1642" 
d="M821 342q147 0 239 97q91 97 91 257q0 109 -43 189l-436 -510q71 -33 149 -33zM494 696q0 -96 34 -172l428 500q-59 27 -135 27q-145 1 -236 -97t-91 -258zM821 -31q-233 0 -409 101l-82 -97l-158 133l78 93q-180 197 -180 510t208 514t543 200q225 0 398 -94l86 103
l157 -134l-80 -94q188 -198 188 -516t-206 -518q-207 -200 -543 -201z" />
    <glyph glyph-name="Ugrave" unicode="&#xd9;" horiz-adv-x="1515" 
d="M1425 1393v-740q0 -326 -176 -505t-492 -179t-493 179q-176 179 -176 505v740h418v-740q0 -141 66 -220t184 -79q116 0 184 79t68 220v740h417zM952 1509h-372l-287 314h469z" />
    <glyph glyph-name="Uacute" unicode="&#xda;" horiz-adv-x="1515" 
d="M1425 1393v-740q0 -326 -176 -505t-492 -179t-493 179q-176 179 -176 505v740h418v-740q0 -141 66 -220t184 -79q116 0 184 79t68 220v740h417zM1233 1823l-287 -314h-377l197 314h467z" />
    <glyph glyph-name="Ucircumflex" unicode="&#xdb;" horiz-adv-x="1515" 
d="M1425 1393v-740q0 -326 -176 -505t-492 -179t-493 179q-176 179 -176 505v740h418v-740q0 -141 66 -220t184 -79q116 0 184 79t68 220v740h417zM758 1624l-90 -115h-344l262 314h342l262 -314h-344z" />
    <glyph glyph-name="Udieresis" unicode="&#xdc;" horiz-adv-x="1515" 
d="M1425 1393v-740q0 -326 -176 -505t-492 -179t-493 179q-176 179 -176 505v740h418v-740q0 -141 66 -220t184 -79q116 0 184 79t68 220v740h417zM1214 1691q0 -85 -60 -143t-147 -57q-87 0 -149 56q-61 57 -61 143t61 143q60 57 148 57t148 -57t60 -142zM508 1491
q-88 0 -149 56q-60 57 -60 143t60 143q59 57 147 57t149 -57t61 -143t-60 -142t-148 -57z" />
    <glyph glyph-name="Yacute" unicode="&#xdd;" horiz-adv-x="1540" 
d="M977 0h-412l-2 420l-547 973h459l293 -533l297 533h459l-547 -973v-420zM1245 1823l-287 -314h-376l196 314h467z" />
    <glyph glyph-name="Thorn" unicode="&#xde;" horiz-adv-x="1349" 
d="M522 516h166q92 0 148 50q55 50 55 141t-54 141t-158 49q-104 0 -157 -2v-379zM1307 706q0 -256 -167 -397t-460 -141h-158v-168h-413v1393h413v-150l158 2q295 0 461 -141q166 -142 166 -398z" />
    <glyph glyph-name="germandbls" unicode="&#xdf;" horiz-adv-x="1415" 
d="M633 1591v-327q-133 0 -133 -136v-120h817v-207l-244 -340l10 -2q135 -23 216 -135t81 -273q0 -225 -141 -352t-393 -127q-143 0 -320 47l47 305q171 -28 259 -28t135 47t47 113t-50 106t-133 41h-180v157l195 308h-346v-668h-396v1151q1 440 529 440z" />
    <glyph glyph-name="agrave" unicode="&#xe0;" horiz-adv-x="1300" 
d="M639 731q-93 0 -149 -61q-56 -62 -56 -160t56 -158t140 -61q84 0 173 76v354q-119 10 -164 10zM548 1038q212 0 652 -49v-989h-397v63q-121 -94 -279 -94t-307 128q-72 62 -117 170t-45 243q9 240 145 384t348 144zM872 1157h-370l-287 322h467z" />
    <glyph glyph-name="aacute" unicode="&#xe1;" horiz-adv-x="1300" 
d="M639 731q-93 0 -149 -61q-56 -62 -56 -160t56 -158t140 -61q84 0 173 76v354q-119 10 -164 10zM548 1038q212 0 652 -49v-989h-397v63q-121 -94 -279 -94t-307 128q-72 62 -117 170t-45 243q9 240 145 384t348 144zM1147 1479l-287 -322h-371l191 322h467z" />
    <glyph glyph-name="acircumflex" unicode="&#xe2;" horiz-adv-x="1300" 
d="M639 731q-93 0 -149 -61q-56 -62 -56 -160t56 -158t140 -61q84 0 173 76v354q-119 10 -164 10zM548 1038q212 0 652 -49v-989h-397v63q-121 -94 -279 -94t-307 128q-72 62 -117 170t-45 243q9 240 145 384t348 144zM684 1270l-90 -109h-344l262 309h342l262 -309h-344z
" />
    <glyph glyph-name="atilde" unicode="&#xe3;" horiz-adv-x="1300" 
d="M639 731q-93 0 -149 -61q-56 -62 -56 -160t56 -158t140 -61q84 0 173 76v354q-119 10 -164 10zM548 1038q212 0 652 -49v-989h-397v63q-121 -94 -279 -94t-307 128q-72 62 -117 170t-45 243q9 240 145 384t348 144zM836 1481h270q0 -117 -44 -196q-77 -139 -244 -134
q-71 2 -130 37l-55 35q-76 43 -76 -49h-270q0 116 43 194q77 139 243 133q72 -2 132 -35l55 -34q76 -39 76 49z" />
    <glyph glyph-name="adieresis" unicode="&#xe4;" horiz-adv-x="1300" 
d="M639 731q-93 0 -149 -61q-56 -62 -56 -160t56 -158t140 -61q84 0 173 76v354q-119 10 -164 10zM548 1038q212 0 652 -49v-989h-397v63q-121 -94 -279 -94t-307 128q-72 62 -117 170t-45 243q9 240 145 384t348 144zM933 1538q87 0 148 -57t61 -143t-60 -143
q-60 -56 -148 -56t-149 56q-60 56 -60 142t60 144q61 57 148 57zM433 1538q87 0 149 -57t61 -143q0 -86 -60 -143q-61 -56 -149 -56t-148 56t-61 142q1 85 61 143t147 58z" />
    <glyph glyph-name="aring" unicode="&#xe5;" horiz-adv-x="1300" 
d="M639 731q-93 0 -149 -61q-56 -62 -56 -160t56 -158t140 -61q84 0 173 76v354q-119 10 -164 10zM548 1038q212 0 652 -49v-989h-397v63q-121 -94 -279 -94t-307 128q-72 62 -117 170t-45 243q9 240 145 384t348 144zM682 1319q45 0 72 27q26 28 26 70t-26 69
q-27 27 -72 27t-72 -28q-26 -26 -26 -69t26 -69t72 -27zM682 1683q127 -1 208 -75t81 -193t-81 -193t-208 -75q-127 0 -208 75q-81 76 -81 194t81 192t208 75z" />
    <glyph glyph-name="ae" unicode="&#xe6;" horiz-adv-x="1798" 
d="M418 305q0 -78 127 -78q98 0 213 25q-29 55 -45 125h-181q-114 0 -114 -72zM1243 748q-143 0 -176 -152h338q-4 70 -47 111t-115 41zM1739 565q0 -78 -21 -174h-639q53 -119 221 -119q139 0 355 45l47 -264q-230 -84 -418 -84t-323 76q-287 -76 -493 -76t-312 91
q-104 91 -104 243q0 151 98 223q100 72 321 70l213 -2l-2 22q-4 64 -29 90t-122 26t-349 -34l-41 297q313 45 463 45q207 4 316 -86q133 86 307 86q227 0 369 -131t143 -342v-2z" />
    <glyph glyph-name="ccedilla" unicode="&#xe7;" horiz-adv-x="1048" 
d="M582 -436h-277l88 342h338zM656 725q-94 0 -160 -60q-66 -61 -66 -159t65 -156t175 -59q110 0 293 31l34 -291q-190 -61 -360 -62q-260 -1 -421 147t-161 390t161 389t423 147q174 0 358 -59l-47 -289q-199 31 -294 31z" />
    <glyph glyph-name="egrave" unicode="&#xe8;" horiz-adv-x="1142" 
d="M592 748q-143 0 -176 -152h338q-2 70 -45 111t-117 41zM47 508q0 240 146 386q145 146 377 146t374 -131t143 -342q0 -80 -20 -176h-639q53 -119 207 -119t369 45l47 -264q-231 -84 -418 -84q-268 0 -427 150q-159 149 -159 389zM770 1147h-371l-286 321h467z" />
    <glyph glyph-name="eacute" unicode="&#xe9;" horiz-adv-x="1142" 
d="M592 748q-143 0 -176 -152h338q-2 70 -45 111t-117 41zM47 508q0 240 146 386q145 146 377 146t374 -131t143 -342q0 -80 -20 -176h-639q53 -119 207 -119t369 45l47 -264q-231 -84 -418 -84q-268 0 -427 150q-159 149 -159 389zM1044 1468l-286 -321h-371l191 321h466z
" />
    <glyph glyph-name="ecircumflex" unicode="&#xea;" horiz-adv-x="1142" 
d="M592 748q-143 0 -176 -152h338q-2 70 -45 111t-117 41zM47 508q0 240 146 386q145 146 377 146t374 -131t143 -342q0 -80 -20 -176h-639q53 -119 207 -119t369 45l47 -264q-231 -84 -418 -84q-268 0 -427 150q-159 149 -159 389zM582 1260l-90 -109h-345l263 309h342
l262 -309h-344z" />
    <glyph glyph-name="edieresis" unicode="&#xeb;" horiz-adv-x="1142" 
d="M592 748q-143 0 -176 -152h338q-2 70 -45 111t-117 41zM47 508q0 240 146 386q145 146 377 146t374 -131t143 -342q0 -80 -20 -176h-639q53 -119 207 -119t369 45l47 -264q-231 -84 -418 -84q-268 0 -427 150q-159 149 -159 389zM623 1327q0 85 60 143t147 58
q86 0 148 -58t62 -143q0 -86 -60 -142q-60 -57 -148 -57t-149 56q-60 56 -60 143zM123 1327q1 85 61 143t147 58t148 -58t61 -143q0 -86 -60 -142q-60 -57 -148 -57t-148 56t-61 143z" />
    <glyph glyph-name="igrave" unicode="&#xec;" horiz-adv-x="585" 
d="M492 1008v-1008h-398v1008h398zM481 1147h-370l-287 321h467z" />
    <glyph glyph-name="iacute" unicode="&#xed;" horiz-adv-x="585" 
d="M492 1008v-1008h-398v1008h398zM756 1468l-287 -321h-371l191 321h467z" />
    <glyph glyph-name="icircumflex" unicode="&#xee;" horiz-adv-x="585" 
d="M492 1008v-1008h-398v1008h398zM293 1260l-90 -109h-344l262 309h342l262 -309h-344z" />
    <glyph glyph-name="idieresis" unicode="&#xef;" horiz-adv-x="585" 
d="M492 1008v-1008h-398v1008h398zM334 1327q0 85 60 143t148 58q87 0 148 -58q62 -58 62 -143q0 -86 -60 -142q-60 -57 -149 -57t-149 56t-60 143zM42 1528q87 0 148 -58q62 -58 62 -143q0 -86 -60 -142q-60 -57 -149 -57q-88 0 -148 56t-61 143q0 85 60 143t148 58z" />
    <glyph glyph-name="eth" unicode="&#xf0;" horiz-adv-x="1232" 
d="M815 506q-1 94 -57 152t-143 59t-142 -57t-55 -153t55 -153t142 -59q87 0 144 58q56 59 56 153zM1178 563q0 -279 -154 -437t-406 -159q-252 0 -408 150q-156 151 -155 391t149 388t374 148q70 0 141 -28q-76 96 -119 137l-324 -117l-71 183l229 81l-155 109l260 96
q94 -43 180 -102l209 76l69 -181l-104 -38q285 -281 285 -697z" />
    <glyph glyph-name="ntilde" unicode="&#xf1;" horiz-adv-x="1284" 
d="M666 684q-36 0 -164 -8v-676h-398v989q437 49 687 49q181 0 291 -106t110 -281v-651h-397v528q0 156 -129 156zM795 1470h270q0 -118 -44 -196q-79 -141 -244 -133q-71 2 -130 37l-55 34q-76 43 -76 -49h-270q0 117 43 195q76 138 243 133q72 -2 132 -35l55 -35
q76 -39 76 49z" />
    <glyph glyph-name="ograve" unicode="&#xf2;" horiz-adv-x="1259" 
d="M630 295q91 0 151 59q61 58 61 152t-60 152t-152 58t-152 -58t-60 -152t60 -153q61 -58 152 -58zM631 1044q254 0 415 -148q160 -148 160 -388t-160 -390t-415 -151q-254 0 -415 151q-161 150 -161 390t161 388t415 148zM817 1147h-371l-286 321h467z" />
    <glyph glyph-name="oacute" unicode="&#xf3;" horiz-adv-x="1259" 
d="M630 295q91 0 151 59q61 58 61 152t-60 152t-152 58t-152 -58t-60 -152t60 -153q61 -58 152 -58zM631 1044q254 0 415 -148q160 -148 160 -388t-160 -390t-415 -151q-254 0 -415 151q-161 150 -161 390t161 388t415 148zM1094 1468l-287 -321h-371l191 321h467z" />
    <glyph glyph-name="ocircumflex" unicode="&#xf4;" horiz-adv-x="1259" 
d="M630 295q91 0 151 59q61 58 61 152t-60 152t-152 58t-152 -58t-60 -152t60 -153q61 -58 152 -58zM631 1044q254 0 415 -148q160 -148 160 -388t-160 -390t-415 -151q-254 0 -415 151q-161 150 -161 390t161 388t415 148zM629 1260l-90 -109h-344l262 309h342l262 -309
h-344z" />
    <glyph glyph-name="otilde" unicode="&#xf5;" horiz-adv-x="1259" 
d="M630 295q91 0 151 59q61 58 61 152t-60 152t-152 58t-152 -58t-60 -152t60 -153q61 -58 152 -58zM631 1044q254 0 415 -148q160 -148 160 -388t-160 -390t-415 -151q-254 0 -415 151q-161 150 -161 390t161 388t415 148zM780 1470h271q0 -118 -44 -196
q-79 -141 -244 -133q-71 2 -130 37l-55 34q-76 43 -76 -49h-271q0 117 43 195q76 138 244 133q72 -2 131 -35l56 -35q75 -39 75 49z" />
    <glyph glyph-name="odieresis" unicode="&#xf6;" horiz-adv-x="1259" 
d="M630 295q91 0 151 59q61 58 61 152t-60 152t-152 58t-152 -58t-60 -152t60 -153q61 -58 152 -58zM631 1044q254 0 415 -148q160 -148 160 -388t-160 -390t-415 -151q-254 0 -415 151q-161 150 -161 390t161 388t415 148zM672 1327q0 85 60 143t148 58q87 0 148 -58
q62 -58 62 -143q0 -86 -60 -142q-60 -57 -149 -57t-149 56t-60 143zM172 1327q0 85 60 143t148 58q87 0 148 -58q62 -58 62 -143q0 -86 -60 -142q-60 -57 -149 -57t-149 56t-60 143z" />
    <glyph glyph-name="divide" unicode="&#xf7;" horiz-adv-x="1396" 
d="M698 68q-78 0 -133 52t-55 128t55 128t133 52t133 -52t55 -128t-54 -128q-56 -52 -134 -52zM190 803h1016v-277h-1016v277zM698 905q-78 0 -133 52t-55 128t55 128q55 53 133 53t133 -52t55 -129q0 -76 -54 -128q-56 -52 -134 -52z" />
    <glyph glyph-name="oslash" unicode="&#xf8;" horiz-adv-x="1259" 
d="M631 295q90 0 150 59t61 154q0 55 -23 100l-256 -303q35 -10 68 -10zM418 508q0 -55 20 -96l250 299q-29 6 -57 6q-93 -1 -153 -59t-60 -150zM631 -33q-168 0 -295 66l-107 -127l-127 106l101 119q-147 147 -147 382t160 383q161 148 415 148q154 0 287 -61l102 123
l127 -107l-94 -110q153 -147 153 -384t-160 -387t-415 -151z" />
    <glyph glyph-name="ugrave" unicode="&#xf9;" horiz-adv-x="1286" 
d="M496 451q0 -90 34 -123t82 -33t176 8v705h398v-992q-418 -37 -688 -36q-180 0 -290 99t-110 288v641h398v-557zM831 1147h-370l-287 321h467z" />
    <glyph glyph-name="uacute" unicode="&#xfa;" horiz-adv-x="1286" 
d="M496 451q0 -90 34 -123t82 -33t176 8v705h398v-992q-418 -37 -688 -36q-180 0 -290 99t-110 288v641h398v-557zM1106 1468l-287 -321h-370l190 321h467z" />
    <glyph glyph-name="ucircumflex" unicode="&#xfb;" horiz-adv-x="1286" 
d="M496 451q0 -90 34 -123t82 -33t176 8v705h398v-992q-418 -37 -688 -36q-180 0 -290 99t-110 288v641h398v-557zM643 1260l-90 -109h-344l262 309h342l262 -309h-344z" />
    <glyph glyph-name="udieresis" unicode="&#xfc;" horiz-adv-x="1286" 
d="M496 451q0 -90 34 -123t82 -33t176 8v705h398v-992q-418 -37 -688 -36q-180 0 -290 99t-110 288v641h398v-557zM684 1327q0 85 60 143t148 58q87 0 148 -58q62 -58 62 -143q0 -86 -60 -142q-60 -57 -149 -57t-149 56t-60 143zM392 1528q86 0 148 -58t62 -143
q0 -86 -60 -142q-60 -57 -148 -57t-149 56q-60 56 -61 143q0 85 60 143t148 58z" />
    <glyph glyph-name="yacute" unicode="&#xfd;" horiz-adv-x="1394" 
d="M1372 1008l-647 -1452h-428l209 475l-477 977h440l242 -506l221 506h440zM909 1151h-370l190 322h467z" />
    <glyph glyph-name="thorn" unicode="&#xfe;" horiz-adv-x="1308" 
d="M679 291q79 0 135 60q56 61 56 159t-55 160t-149 61q-45 0 -164 -10v-416q98 -14 177 -14zM743 1038q225 0 361 -144t145 -384q0 -135 -45 -243q-78 -187 -278 -265q-86 -33 -196 -33t-228 11v-426h-396v1900h396v-426q114 10 241 10z" />
    <glyph glyph-name="ydieresis" unicode="&#xff;" horiz-adv-x="1394" 
d="M1372 1008l-647 -1452h-428l209 475l-477 977h440l242 -506l221 506h440zM983 1133q-88 0 -148 56t-61 142q0 85 60 143t148 58q87 0 148 -57q62 -57 62 -143t-60 -143q-60 -56 -149 -56zM483 1133q-88 0 -148 56t-61 142q0 85 60 143t148 58q86 0 148 -57t62 -143
t-60 -143q-60 -56 -149 -56z" />
    <glyph glyph-name="Amacron" unicode="&#x100;" horiz-adv-x="1619" 
d="M809 940l-158 -412h316zM524 190l-73 -190h-437l604 1401h383l605 -1401h-437l-73 190h-572zM1163 1817v-287h-708v287h708z" />
    <glyph glyph-name="amacron" unicode="&#x101;" horiz-adv-x="1300" 
d="M639 731q-93 0 -149 -61q-56 -62 -56 -160t56 -158t140 -61q84 0 173 76v354q-119 10 -164 10zM548 1038q212 0 652 -49v-989h-397v63q-121 -94 -279 -94t-307 128q-72 62 -117 170t-45 243q9 240 145 384t348 144zM985 1448v-287h-602v287h602z" />
    <glyph glyph-name="Abreve" unicode="&#x102;" horiz-adv-x="1619" 
d="M809 940l-158 -412h316zM524 190l-73 -190h-437l604 1401h383l605 -1401h-437l-73 190h-572zM911 1860h287q0 -170 -107 -268q-108 -97 -282 -97t-282 97t-107 268h285q-1 -45 29 -75t75 -30t74 30q28 30 28 75z" />
    <glyph glyph-name="abreve" unicode="&#x103;" horiz-adv-x="1300" 
d="M639 731q-93 0 -149 -61q-56 -62 -56 -160t56 -158t140 -61q84 0 173 76v354q-119 10 -164 10zM548 1038q212 0 652 -49v-989h-397v63q-121 -94 -279 -94t-307 128q-72 62 -117 170t-45 243q9 240 145 384t348 144zM786 1507h287q0 -170 -106 -267q-107 -97 -283 -97
t-283 97q-106 97 -106 267h285q0 -47 28 -77t75 -29q47 -1 75 29t28 77z" />
    <glyph glyph-name="Aogonek" unicode="&#x104;" horiz-adv-x="1619" 
d="M967 528l-158 412l-158 -412h316zM1399 -125q49 0 106 16l37 -294q-66 -35 -201 -35t-231 74t-96 198q0 123 143 197l-61 159h-572l-73 -190h-437l604 1401h383l605 -1401h-252q-43 -25 -43 -63q0 -62 88 -62z" />
    <glyph glyph-name="aogonek" unicode="&#x105;" horiz-adv-x="1300" 
d="M631 291q84 0 172 76v354q-119 10 -164 10q-93 0 -149 -61q-56 -62 -56 -160t56 -159q57 -60 141 -60zM1016 -451q-136 0 -232 75t-96 191t115 187v61q-121 -94 -279 -94t-307 128q-72 62 -117 170t-45 243q9 240 145 384t348 144t652 -49v-989h-147q-68 -33 -68 -76
q0 -61 88 -61q50 0 107 16l37 -295q-65 -35 -201 -35z" />
    <glyph glyph-name="Cacute" unicode="&#x106;" horiz-adv-x="1445" 
d="M882 1040q-158 0 -264 -94q-104 -94 -104 -249t103 -251t274 -96q125 0 434 53l64 -356q-289 -76 -533 -76q-352 0 -569 200q-217 199 -217 525t217 526t569 199q244 1 533 -69l-64 -365q-285 53 -443 53zM1323 1823l-287 -314h-377l197 314h467z" />
    <glyph glyph-name="cacute" unicode="&#x107;" horiz-adv-x="1048" 
d="M656 725q-94 0 -160 -60q-66 -61 -66 -159t65 -156t175 -59q110 0 293 31l34 -291q-190 -61 -360 -62q-260 -1 -421 147t-161 390t161 389t423 147q174 0 358 -59l-47 -289q-199 31 -294 31zM1063 1468l-287 -321h-370l190 321h467z" />
    <glyph glyph-name="Cdotaccent" unicode="&#x10a;" horiz-adv-x="1445" 
d="M882 1040q-158 0 -264 -94q-104 -94 -104 -249t103 -251t274 -96q125 0 434 53l64 -356q-289 -76 -533 -76q-352 0 -569 200q-217 199 -217 525t217 526t569 199q244 1 533 -69l-64 -365q-285 53 -443 53zM844 1491q-84 0 -143 55q-58 55 -58 136q0 80 58 136
q59 56 143 56t142 -55t58 -137t-58 -136q-58 -55 -142 -55z" />
    <glyph glyph-name="cdotaccent" unicode="&#x10b;" horiz-adv-x="1048" 
d="M656 725q-94 0 -160 -60q-66 -61 -66 -159t65 -156t175 -59q110 0 293 31l34 -291q-190 -61 -360 -62q-260 -1 -421 147t-161 390t161 389t423 147q174 0 358 -59l-47 -289q-199 31 -294 31zM600 1128q-88 0 -148 56t-61 143q1 86 61 143q60 58 147 58t149 -58t61 -143
q-1 -87 -61 -143t-148 -56z" />
    <glyph glyph-name="Ccaron" unicode="&#x10c;" horiz-adv-x="1445" 
d="M882 1040q-158 0 -264 -94q-104 -94 -104 -249t103 -251t274 -96q125 0 434 53l64 -356q-289 -76 -533 -76q-352 0 -569 200q-217 199 -217 525t217 526t569 199q244 1 533 -69l-64 -365q-285 53 -443 53zM1018 1499h-342l-262 322h344l90 -117l88 117h344z" />
    <glyph glyph-name="ccaron" unicode="&#x10d;" horiz-adv-x="1048" 
d="M656 725q-94 0 -160 -60q-66 -61 -66 -159t65 -156t175 -59q110 0 293 31l34 -291q-190 -61 -360 -62q-260 -1 -421 147t-161 390t161 389t423 147q174 0 358 -59l-47 -289q-199 31 -294 31zM770 1147h-342l-262 321h344l90 -116l88 116h344z" />
    <glyph glyph-name="Dcaron" unicode="&#x10e;" horiz-adv-x="1495" 
d="M522 346l170 -2q137 0 224 96q88 96 88 257t-90 256t-236 96q-49 0 -156 -5v-698zM649 1409q356 0 565 -189q209 -190 209 -522q1 -332 -203 -523t-544 -191q-233 0 -567 16v1393q417 16 540 16zM852 1499h-342l-262 322h344l90 -117l88 117h344z" />
    <glyph glyph-name="dcaron" unicode="&#x10f;" horiz-adv-x="1302" 
d="M645 731q-99 0 -155 -59q-56 -60 -56 -160t56 -160t151 -61q37 0 160 12v414q-101 14 -156 14zM1612 1454l-80 -416h-266l10 416h336zM1198 1454v-1436q-477 -47 -604 -47t-212 32t-160 93t-121 170t-46 246q5 240 143 383t369 143q100 0 234 -12v428h397z" />
    <glyph glyph-name="Dcroat" unicode="&#x110;" horiz-adv-x="1495" 
d="M522 850h219v-340h-219v-164l170 -2q137 0 224 96q88 96 88 257t-90 256t-236 96q-49 0 -156 -5v-194zM649 1409q356 0 565 -189q209 -190 209 -522q1 -332 -203 -523t-544 -191q-233 0 -567 16v510h-80v340h80v543q417 16 540 16z" />
    <glyph glyph-name="dcroat" unicode="&#x111;" horiz-adv-x="1302" 
d="M645 731q-99 0 -155 -59q-56 -60 -56 -160t56 -160t151 -61q37 0 160 12v414q-100 14 -156 14zM1268 1116h-70v-1098q-477 -47 -604 -47t-212 32t-160 93t-121 170t-46 246q5 240 143 383t369 143q100 0 234 -12v90h-266v248h266v90h397v-90h70v-248z" />
    <glyph glyph-name="Emacron" unicode="&#x112;" horiz-adv-x="1273" 
d="M520 864h574v-332h-574v-186h670v-346h-1081v1393h1081v-346h-670v-183zM991 1817v-287h-708v287h708z" />
    <glyph glyph-name="emacron" unicode="&#x113;" horiz-adv-x="1142" 
d="M592 748q-143 0 -176 -152h338q-2 70 -45 111t-117 41zM47 508q0 240 146 386q145 146 377 146t374 -131t143 -342q0 -80 -20 -176h-639q53 -119 207 -119t369 45l47 -264q-231 -84 -418 -84q-268 0 -427 150q-159 149 -159 389zM883 1438v-287h-602v287h602z" />
    <glyph glyph-name="Edotaccent" unicode="&#x116;" horiz-adv-x="1273" 
d="M520 864h574v-332h-574v-186h670v-346h-1081v1393h1081v-346h-670v-183zM633 1491q-84 0 -143 55q-58 55 -58 136q0 80 58 136t142 56t143 -55t59 -137t-58 -136q-58 -55 -143 -55z" />
    <glyph glyph-name="edotaccent" unicode="&#x117;" horiz-adv-x="1142" 
d="M592 748q-143 0 -176 -152h338q-2 70 -45 111t-117 41zM47 508q0 240 146 386q145 146 377 146t374 -131t143 -342q0 -80 -20 -176h-639q53 -119 207 -119t369 45l47 -264q-231 -84 -418 -84q-268 0 -427 150q-159 149 -159 389zM582 1128q-88 0 -148 56t-61 143
q0 86 60 143q59 58 147 58t149 -58t61 -143q0 -87 -60 -143t-148 -56z" />
    <glyph glyph-name="Eogonek" unicode="&#x118;" horiz-adv-x="1273" 
d="M520 1047v-183h574v-332h-574v-186h670v-346h-141q-102 -37 -103 -90q0 -61 88 -62q49 0 107 17l37 -295q-66 -35 -202 -35t-231 75q-96 74 -96 196t137 194h-677v1393h1081v-346h-670z" />
    <glyph glyph-name="eogonek" unicode="&#x119;" horiz-adv-x="1142" 
d="M592 748q-143 0 -176 -152h338q-2 70 -45 111t-117 41zM1087 567q0 -80 -20 -176h-639q53 -119 207 -119t369 45l47 -264q-59 -23 -125 -41q-66 -22 -90 -44t-25 -50q0 -61 88 -61q49 0 107 16l36 -295q-66 -35 -201 -35t-231 75q-96 76 -96 182t80 169q-252 13 -399 161
t-147 383t146 381t377 146t373 -131t143 -342z" />
    <glyph glyph-name="Ecaron" unicode="&#x11a;" horiz-adv-x="1273" 
d="M520 864h574v-332h-574v-186h670v-346h-1081v1393h1081v-346h-670v-183zM807 1499h-342l-262 322h344l90 -117l88 117h344z" />
    <glyph glyph-name="ecaron" unicode="&#x11b;" horiz-adv-x="1142" 
d="M592 748q-143 0 -176 -152h338q-2 70 -45 111t-117 41zM47 508q0 240 146 386q145 146 377 146t374 -131t143 -342q0 -80 -20 -176h-639q53 -119 207 -119t369 45l47 -264q-231 -84 -418 -84q-268 0 -427 150q-159 149 -159 389zM752 1147h-342l-263 321h345l90 -116
l88 116h344z" />
    <glyph glyph-name="Gbreve" unicode="&#x11e;" horiz-adv-x="1589" 
d="M1483 834v-721q-401 -143 -641 -144q-348 0 -560 201q-212 202 -212 528t209 526t548 199q266 0 564 -71l-64 -351q-311 47 -465 47t-255 -96t-101 -255t95 -255t249 -96t309 39v137h-401v312h725zM928 1860h286q0 -170 -107 -268q-108 -97 -282 -97q-173 0 -281 97
t-108 268h285q0 -45 30 -75q31 -30 75 -30t73 30t29 75z" />
    <glyph glyph-name="gbreve" unicode="&#x11f;" horiz-adv-x="1294" 
d="M639 731q-93 0 -149 -61q-56 -62 -56 -158t56 -154t142 -59q86 0 171 12v410q-119 10 -164 10zM568 1038q232 0 632 -49v-983q0 -258 -157 -398t-457 -140q-174 0 -375 59l49 287q212 -37 320 -37t163 51t60 158q-115 -10 -225 -10t-197 32q-202 78 -281 263
q-45 105 -45 239q9 240 145 384t368 144zM758 1497h286q0 -170 -106 -267t-282 -97t-283 97q-106 97 -107 267h285q0 -47 29 -77q28 -30 74 -30t75 30t29 77z" />
    <glyph glyph-name="Gdotaccent" unicode="&#x120;" horiz-adv-x="1589" 
d="M1483 834v-721q-401 -143 -641 -144q-348 0 -560 201q-212 202 -212 528t209 526t548 199q266 0 564 -71l-64 -351q-311 47 -465 47t-255 -96t-101 -255t95 -255t249 -96t309 39v137h-401v312h725zM821 1491q-84 0 -142 55t-58 136q0 80 58 136t142 56q85 0 143 -55
t58 -137t-58 -136q-58 -55 -143 -55z" />
    <glyph glyph-name="gdotaccent" unicode="&#x121;" horiz-adv-x="1294" 
d="M639 731q-93 0 -149 -61q-56 -62 -56 -158t56 -154t142 -59q86 0 171 12v410q-119 10 -164 10zM568 1038q232 0 632 -49v-983q0 -258 -157 -398t-457 -140q-174 0 -375 59l49 287q212 -37 320 -37t163 51t60 158q-115 -10 -225 -10t-197 32q-202 78 -281 263
q-45 105 -45 239q9 240 145 384t368 144zM655 1128q-88 0 -148 56t-61 143q0 86 60 143q60 58 148 58q86 0 148 -58t62 -143q0 -87 -60 -143t-149 -56z" />
    <glyph glyph-name="Gcommaaccent" unicode="&#x122;" horiz-adv-x="1589" 
d="M1018 -265q0 -61 -32 -119t-138 -208h-182l88 174q-100 43 -101 142q-1 74 53 124t130 50t129 -50t53 -113zM1483 834v-721q-401 -143 -641 -144q-348 0 -560 201q-212 202 -212 528t209 526t548 199q266 0 564 -71l-64 -351q-311 47 -465 47t-255 -96t-101 -255t95 -255
t249 -96t309 39v137h-401v312h725z" />
    <glyph glyph-name="gcommaaccent" unicode="&#x123;" horiz-adv-x="1294" 
d="M639 731q-93 0 -149 -61q-56 -62 -56 -158t56 -154t142 -59q86 0 171 12v410q-119 10 -164 10zM568 1038q232 0 632 -49v-983q0 -258 -157 -398t-457 -140q-174 0 -375 59l49 287q212 -37 320 -37t163 51t60 158q-115 -10 -225 -10t-197 32q-202 78 -281 263
q-45 105 -45 239q9 240 145 384t368 144zM850 1346q0 -74 -53 -124t-129 -50t-129 50t-53 112t31 120q32 57 138 207h183l-88 -174q100 -43 100 -141z" />
    <glyph glyph-name="Hbar" unicode="&#x126;" horiz-adv-x="1531" 
d="M1010 1006h-490v-150h490v150zM1493 1006h-72v-1006h-411v496h-490v-496h-411v1006h-70v243h70v144h411v-144h490v144h411v-144h72v-243z" />
    <glyph glyph-name="hbar" unicode="&#x127;" horiz-adv-x="1286" 
d="M784 1038q180 0 291 -106t111 -281v-651h-398v528q0 156 -129 156q-35 0 -163 -12v-672h-398v1169h-65v203h65v82h398v-82h174v-203h-174v-147q161 16 288 16z" />
    <glyph glyph-name="Imacron" unicode="&#x12a;" horiz-adv-x="616" 
d="M514 1393v-1393h-412v1393h412zM664 1817v-287h-709v287h709z" />
    <glyph glyph-name="imacron" unicode="&#x12b;" horiz-adv-x="585" 
d="M492 1008v-1008h-398v1008h398zM594 1438v-287h-602v287h602z" />
    <glyph glyph-name="Iogonek" unicode="&#x12e;" horiz-adv-x="616" 
d="M514 0h-188q-76 -33 -76 -80q0 -61 88 -61q49 0 106 16l37 -295q-66 -35 -201 -35t-231 75t-96 199t149 197v1377h412v-1393z" />
    <glyph glyph-name="iogonek" unicode="&#x12f;" horiz-adv-x="585" 
d="M94 1008h398v-1008h-179q-59 -29 -59 -72q0 -61 88 -61q49 0 107 16l36 -295q-66 -34 -201 -34t-231 74t-96 197q0 122 137 193v990zM293 1128q-89 0 -149 56t-60 143q0 86 60 143q60 58 148 58t148 -58q62 -58 62 -143q0 -87 -60 -143t-149 -56z" />
    <glyph glyph-name="Idotaccent" unicode="&#x130;" horiz-adv-x="616" 
d="M514 1393v-1393h-412v1393h412zM304 1507q-97 0 -165 65q-67 65 -67 160q0 96 68 160t164 64q97 0 166 -65t69 -159t-69 -160q-69 -65 -166 -65z" />
    <glyph glyph-name="dotlessi" unicode="&#x131;" horiz-adv-x="585" 
d="M492 1008v-1008h-398v1008h398z" />
    <glyph glyph-name="IJ" unicode="&#x132;" horiz-adv-x="1759" 
d="M1669 1393v-789q0 -305 -141 -470t-416 -165q-236 0 -483 97l78 352q240 -59 376 -60q166 0 166 232v803h420zM514 1393v-1393h-412v1393h412z" />
    <glyph glyph-name="ij" unicode="&#x133;" horiz-adv-x="1239" 
d="M1133 1008v-971q-1 -135 -19 -222t-74 -164q-106 -147 -452 -155l-21 320q61 4 97 17q58 21 68 99q3 25 3 78v998h398zM492 1008v-1008h-398v1008h398zM933 1556q95 0 162 -63t67 -157t-68 -158q-66 -64 -161 -64t-162 64t-66 157q0 94 66 158q67 63 162 63zM291 1114
q-94 0 -161 64t-67 157t67 157t161 64t162 -63q67 -63 67 -157t-68 -158t-161 -64z" />
    <glyph glyph-name="Kcommaaccent" unicode="&#x136;" horiz-adv-x="1509" 
d="M887 -265q0 -61 -32 -119t-138 -208h-182l88 174q-100 43 -101 142q0 74 53 124t129 50t130 -50q53 -50 53 -113zM520 436v-436h-411v1393h411v-555h37l401 555h490l-481 -652l528 -741h-502l-297 436h-176z" />
    <glyph glyph-name="kcommaaccent" unicode="&#x137;" horiz-adv-x="1294" 
d="M446 -592l89 174q-100 43 -101 142q0 74 53 124t129 50t129 -50t53 -113q0 -61 -31 -119q-32 -58 -138 -208h-183zM502 684h22l262 324h445l-338 -420l381 -588h-451l-205 324h-116v-324h-398v1454h398v-770z" />
    <glyph glyph-name="Lacute" unicode="&#x139;" horiz-adv-x="1210" 
d="M1167 0h-1058v1393h411v-1037h647v-356zM801 1823l-287 -314h-377l197 314h467z" />
    <glyph glyph-name="lacute" unicode="&#x13a;" horiz-adv-x="593" 
d="M504 1454v-1454h-398v1454h398zM762 1853l-287 -319h-371l191 319h467z" />
    <glyph glyph-name="Lcommaaccent" unicode="&#x13b;" horiz-adv-x="1210" 
d="M455 -276q0 74 53 124t129 50t129 -50t53 -113q0 -61 -32 -119t-138 -208h-182l88 174q-100 43 -100 142zM1167 0h-1058v1393h411v-1037h647v-356z" />
    <glyph glyph-name="lcommaaccent" unicode="&#x13c;" horiz-adv-x="608" 
d="M113 -276q0 74 53 124t129 50t129 -50t53 -113q0 -61 -32 -119t-138 -208h-182l88 174q-100 43 -100 142zM504 1454v-1454h-398v1454h398z" />
    <glyph glyph-name="Lcaron" unicode="&#x13d;" horiz-adv-x="1210" 
d="M1026 1393l-80 -416h-266l10 416h336zM1167 0h-1058v1393h411v-1037h647v-356z" />
    <glyph glyph-name="lcaron" unicode="&#x13e;" horiz-adv-x="608" 
d="M903 1454l-80 -416h-266l10 416h336zM504 1454v-1454h-398v1454h398z" />
    <glyph glyph-name="Ldot" unicode="&#x13f;" horiz-adv-x="1210" 
d="M863 510q-87 0 -148 57t-61 143t60 144q62 57 149 57t147 -57t61 -143q0 -86 -60 -144q-61 -57 -148 -57zM1167 0h-1058v1393h411v-1037h647v-356z" />
    <glyph glyph-name="ldot" unicode="&#x140;" horiz-adv-x="968" 
d="M781 510q-87 0 -148 57t-61 143t60 144q62 57 149 57t147 -57t61 -143q0 -86 -60 -144q-61 -57 -148 -57zM504 1454v-1454h-398v1454h398z" />
    <glyph glyph-name="Lslash" unicode="&#x141;" horiz-adv-x="1210" 
d="M1167 356v-356h-1058v406l-103 -33v313l103 33v674h411v-539l285 94v-313l-285 -94v-185h647z" />
    <glyph glyph-name="lslash" unicode="&#x142;" horiz-adv-x="608" 
d="M504 0h-398v471l-90 -31v314l90 30v670h398v-539l90 31v-313l-90 -31v-602z" />
    <glyph glyph-name="Nacute" unicode="&#x143;" horiz-adv-x="1566" 
d="M1456 1393v-1393h-366l-570 702v-702h-411v1393h378l557 -705v705h412zM1251 1823l-286 -314h-377l196 314h467z" />
    <glyph glyph-name="nacute" unicode="&#x144;" horiz-adv-x="1284" 
d="M666 684q-36 0 -164 -8v-676h-398v989q437 49 687 49q181 0 291 -106t110 -281v-651h-397v528q0 156 -129 156zM1106 1468l-287 -321h-370l190 321h467z" />
    <glyph glyph-name="Ncommaaccent" unicode="&#x145;" horiz-adv-x="1566" 
d="M594 -283q0 74 53 124t129 50t129 -50q53 -51 53 -113t-32 -119t-138 -207h-182l88 174q-100 43 -100 141zM1456 1393v-1393h-366l-570 702v-702h-411v1393h378l557 -705v705h412z" />
    <glyph glyph-name="ncommaaccent" unicode="&#x146;" horiz-adv-x="1284" 
d="M459 -276q0 74 53 124t129 50t129 -50t53 -113q1 -61 -31 -119t-139 -208h-182l88 174q-100 43 -100 142zM666 684q-36 0 -164 -8v-676h-398v989q437 49 687 49q181 0 291 -106t110 -281v-651h-397v528q0 156 -129 156z" />
    <glyph glyph-name="Ncaron" unicode="&#x147;" horiz-adv-x="1566" 
d="M1456 1393v-1393h-366l-570 702v-702h-411v1393h378l557 -705v705h412zM946 1499h-342l-262 322h344l90 -117l88 117h344z" />
    <glyph glyph-name="ncaron" unicode="&#x148;" horiz-adv-x="1284" 
d="M666 684q-36 0 -164 -8v-676h-398v989q437 49 687 49q181 0 291 -106t110 -281v-651h-397v528q0 156 -129 156zM813 1147h-342l-262 321h344l90 -116l88 116h344z" />
    <glyph glyph-name="Omacron" unicode="&#x14c;" horiz-adv-x="1642" 
d="M822 342q146 0 238 97q91 97 91 257t-91 257q-92 97 -238 97t-237 -96q-91 -98 -91 -258t91 -257t237 -97zM821 1423q336 -1 543 -201t207 -526t-207 -526t-543 -201q-335 0 -543 201q-208 200 -208 526t208 526t543 201zM1176 1817v-287h-709v287h709z" />
    <glyph glyph-name="omacron" unicode="&#x14d;" horiz-adv-x="1259" 
d="M630 295q91 0 151 59q61 58 61 152t-60 152t-152 58t-152 -58t-60 -152t60 -153q61 -58 152 -58zM631 1044q254 0 415 -148q160 -148 160 -388t-160 -390t-415 -151q-254 0 -415 151q-161 150 -161 390t161 388t415 148zM932 1438v-287h-602v287h602z" />
    <glyph glyph-name="Ohungarumlaut" unicode="&#x150;" horiz-adv-x="1642" 
d="M822 342q146 0 238 97q91 97 91 257t-91 257q-92 97 -238 97t-237 -96q-91 -98 -91 -258t91 -257t237 -97zM821 1423q336 -1 543 -201t207 -526t-207 -526t-543 -201q-335 0 -543 201q-208 200 -208 526t208 526t543 201zM1264 1837l-121 -315h-269l70 315h320zM883 1837
l-123 -315h-268l71 315h320z" />
    <glyph glyph-name="ohungarumlaut" unicode="&#x151;" horiz-adv-x="1259" 
d="M630 295q91 0 151 59q61 58 61 152t-60 152t-152 58t-152 -58t-60 -152t60 -153q61 -58 152 -58zM631 1044q254 0 415 -148q160 -148 160 -388t-160 -390t-415 -151q-254 0 -415 151q-161 150 -161 390t161 388t415 148zM1120 1499l-137 -348h-297l78 348h356zM723 1499
l-137 -348h-297l78 348h356z" />
    <glyph glyph-name="OE" unicode="&#x152;" horiz-adv-x="2056" 
d="M494 696q0 -158 105 -240t306 -83v647q-201 -2 -306 -84t-105 -240zM1317 864h573v-332h-573v-186h670v-346h-1082q-375 2 -605 188t-230 508t230 508t605 189h1082v-346h-670v-183z" />
    <glyph glyph-name="oe" unicode="&#x153;" horiz-adv-x="1941" 
d="M630 295q91 0 151 59q61 58 61 152t-60 152t-152 58t-152 -58t-60 -152t60 -153q61 -58 152 -58zM1389 748q-144 0 -177 -152h340q-4 70 -47 111t-116 41zM1432 272q156 0 370 45l47 -264q-231 -84 -417 -84q-250 0 -406 131q-156 -133 -402 -133t-408 151
q-161 150 -161 390t161 388q162 148 404 148t400 -124q139 120 360 120q220 0 362 -131t144 -342q0 -80 -20 -176h-639q49 -119 205 -119z" />
    <glyph glyph-name="Racute" unicode="&#x154;" horiz-adv-x="1400" 
d="M522 696h160q100 0 156 52t55 137q0 176 -217 176h-154v-365zM520 362v-362h-411v1393q440 14 591 14q289 0 448 -132t159 -378q0 -283 -213 -426l309 -471h-481l-217 362h-185zM1116 1823l-287 -314h-376l196 314h467z" />
    <glyph glyph-name="racute" unicode="&#x155;" horiz-adv-x="870" 
d="M829 1030v-381q-162 0 -327 -12v-637h-398v965q358 65 725 65zM930 1468l-287 -321h-371l191 321h467z" />
    <glyph glyph-name="Rcommaaccent" unicode="&#x156;" horiz-adv-x="1400" 
d="M887 -265q0 -61 -32 -119t-138 -208h-182l88 174q-100 43 -101 142q0 74 53 124t129 50t130 -50q53 -50 53 -113zM522 696h160q100 0 156 52t55 137q0 176 -217 176h-154v-365zM520 362v-362h-411v1393q440 14 591 14q289 0 448 -132t159 -378q0 -283 -213 -426l309 -471
h-481l-217 362h-185z" />
    <glyph glyph-name="rcommaaccent" unicode="&#x157;" horiz-adv-x="870" 
d="M125 -276q0 74 53 124t129 50t129 -50t53 -113q1 -61 -31 -119t-139 -208h-182l88 174q-100 43 -100 142zM829 1030v-381q-162 0 -327 -12v-637h-398v965q358 65 725 65z" />
    <glyph glyph-name="Rcaron" unicode="&#x158;" horiz-adv-x="1400" 
d="M522 696h160q100 0 156 52t55 137q0 176 -217 176h-154v-365zM520 362v-362h-411v1393q440 14 591 14q289 0 448 -132t159 -378q0 -283 -213 -426l309 -471h-481l-217 362h-185zM811 1499h-342l-262 322h344l90 -117l88 117h344z" />
    <glyph glyph-name="rcaron" unicode="&#x159;" horiz-adv-x="870" 
d="M829 1030v-381q-162 0 -327 -12v-637h-398v965q358 65 725 65zM637 1147h-342l-262 321h344l90 -116l88 116h344z" />
    <glyph glyph-name="Sacute" unicode="&#x15a;" horiz-adv-x="1392" 
d="M724 1069q-160 0 -159 -90q0 -61 94 -84q127 -30 215 -49q172 -37 296 -122q143 -97 143 -307t-158 -329q-159 -119 -441 -119t-653 125l93 348q336 -117 524 -123q92 -2 134 24t42 71t-66 70q-18 6 -31 12t-39 11t-42 9t-47 10q-286 55 -402 152q-117 96 -116 278
q0 219 156 340q157 121 447 121t578 -92l-78 -352q-330 96 -490 96zM1294 1823l-286 -314h-377l196 314h467z" />
    <glyph glyph-name="sacute" unicode="&#x15b;" horiz-adv-x="1077" 
d="M514 254q110 0 111 39q1 27 -27 37q-41 15 -94 25q-223 42 -324 123q-84 69 -84 208q0 172 120 263t340 91t450 -69l-64 -287q-252 76 -356 76t-105 -49q0 -36 75 -50q75 -15 114 -24q168 -39 257 -110t89 -225t-120 -243q-120 -90 -337 -90t-498 92l72 283
q271 -90 381 -90zM1026 1479l-287 -322h-370l190 322h467z" />
    <glyph glyph-name="Scedilla" unicode="&#x15e;" horiz-adv-x="1392" 
d="M666 -436h-277l88 342h338zM724 1069q-160 0 -159 -90q0 -61 94 -84q127 -30 215 -49q172 -37 296 -122q143 -97 143 -307t-158 -329q-159 -119 -441 -119t-653 125l93 348q336 -117 524 -123q92 -2 134 24t42 71t-66 70q-18 6 -31 12t-39 11t-42 9t-47 10
q-286 55 -402 152q-117 96 -116 278q0 219 156 340q157 121 447 121t578 -92l-78 -352q-330 96 -490 96z" />
    <glyph glyph-name="scedilla" unicode="&#x15f;" horiz-adv-x="1077" 
d="M582 -436h-277l88 342h338zM514 254q110 0 111 39q1 27 -27 37q-41 15 -94 25q-223 42 -324 123q-84 69 -84 208q0 172 120 263t340 91t450 -69l-64 -287q-252 76 -356 76t-105 -49q0 -36 75 -50q75 -15 114 -24q168 -39 257 -110t89 -225t-120 -243q-120 -90 -337 -90
t-498 92l72 283q271 -90 381 -90z" />
    <glyph glyph-name="Scaron" unicode="&#x160;" horiz-adv-x="1392" 
d="M724 1069q-160 0 -159 -90q0 -61 94 -84q127 -30 215 -49q172 -37 296 -122q143 -97 143 -307t-158 -329q-159 -119 -441 -119t-653 125l93 348q336 -117 524 -123q92 -2 134 24t42 71t-66 70q-18 6 -31 12t-39 11t-42 9t-47 10q-286 55 -402 152q-117 96 -116 278
q0 219 156 340q157 121 447 121t578 -92l-78 -352q-330 96 -490 96zM989 1499h-342l-262 322h344l90 -117l88 117h344z" />
    <glyph glyph-name="scaron" unicode="&#x161;" horiz-adv-x="1077" 
d="M514 254q110 0 111 39q1 27 -27 37q-41 15 -94 25q-223 42 -324 123q-84 69 -84 208q0 172 120 263t340 91t450 -69l-64 -287q-252 76 -356 76t-105 -49q0 -36 75 -50q75 -15 114 -24q168 -39 257 -110t89 -225t-120 -243q-120 -90 -337 -90t-498 92l72 283
q271 -90 381 -90zM731 1157h-342l-262 322h344l90 -117l88 117h344z" />
    <glyph glyph-name="Tcaron" unicode="&#x164;" horiz-adv-x="1378" 
d="M895 1034v-1034h-412v1034h-442v359h1296v-359h-442zM858 1499h-342l-262 322h344l90 -117l88 117h344z" />
    <glyph glyph-name="tcaron" unicode="&#x165;" horiz-adv-x="987" 
d="M584 -31q-186 0 -289 118q-102 118 -102 337v233h-173v351h173v323h397v-323h295v-351h-295v-198q0 -135 123 -135q20 0 194 16l35 -320q-172 -51 -358 -51zM1006 1509l-80 -415h-267l11 415h336z" />
    <glyph glyph-name="Umacron" unicode="&#x16a;" horiz-adv-x="1515" 
d="M1425 1393v-740q0 -326 -176 -505t-492 -179t-493 179q-176 179 -176 505v740h418v-740q0 -141 66 -220t184 -79q116 0 184 79t68 220v740h417zM1112 1817v-287h-709v287h709z" />
    <glyph glyph-name="umacron" unicode="&#x16b;" horiz-adv-x="1286" 
d="M496 451q0 -90 34 -123t82 -33t176 8v705h398v-992q-418 -37 -688 -36q-180 0 -290 99t-110 288v641h398v-557zM944 1438v-287h-602v287h602z" />
    <glyph glyph-name="Uring" unicode="&#x16e;" horiz-adv-x="1515" 
d="M1425 1393v-740q0 -326 -176 -505t-492 -179t-493 179q-176 179 -176 505v740h418v-740q0 -141 66 -220t184 -79q116 0 184 79t68 220v740h417zM756 1642q46 0 72 27t26 70t-27 69t-71 27q-44 0 -72 -27q-27 -28 -27 -70t27 -69t72 -27zM756 2007q127 0 208 -74
q80 -73 80 -193t-80 -195t-208 -75q-127 0 -208 75t-81 195t81 194t208 73z" />
    <glyph glyph-name="uring" unicode="&#x16f;" horiz-adv-x="1286" 
d="M496 451q0 -90 34 -123t82 -33t176 8v705h398v-992q-418 -37 -688 -36q-180 0 -290 99t-110 288v641h398v-557zM643 1309q45 1 72 27t26 69q0 43 -26 70q-27 27 -72 27t-72 -28q-27 -26 -27 -69t27 -70q27 -26 72 -26zM643 1673q127 0 208 -75q81 -76 81 -194t-81 -193
t-208 -75t-208 76q-81 74 -81 193t81 193t208 75z" />
    <glyph glyph-name="Uhungarumlaut" unicode="&#x170;" horiz-adv-x="1515" 
d="M1425 1393v-740q0 -326 -176 -505t-492 -179t-493 179q-176 179 -176 505v740h418v-740q0 -141 66 -220t184 -79q116 0 184 79t68 220v740h417zM1200 1837l-121 -315h-268l70 315h319zM819 1837l-123 -315h-268l72 315h319z" />
    <glyph glyph-name="uhungarumlaut" unicode="&#x171;" horiz-adv-x="1286" 
d="M496 451q0 -90 34 -123t82 -33t176 8v705h398v-992q-418 -37 -688 -36q-180 0 -290 99t-110 288v641h398v-557zM1135 1499l-138 -348h-297l78 348h357zM737 1499l-137 -348h-297l78 348h356z" />
    <glyph glyph-name="Uogonek" unicode="&#x172;" horiz-adv-x="1515" 
d="M1425 1393v-740q0 -251 -104 -415t-301 -230q-66 -22 -90 -44t-25 -50q0 -61 88 -61q49 0 107 16l37 -295q-65 -35 -201 -35t-232 75t-96 183t86 174q-290 15 -448 195t-158 487v740h418v-740q0 -141 66 -220t184 -79q116 0 184 79t68 220v740h417z" />
    <glyph glyph-name="uogonek" unicode="&#x173;" horiz-adv-x="1286" 
d="M496 451q0 -90 34 -123t82 -33t176 8v705h398v-992q-66 -22 -90 -44t-25 -50q0 -61 88 -61q50 0 107 16l37 -295q-65 -35 -201 -35t-232 75t-96 189t105 181q-195 -12 -378 -12t-293 99t-110 288v641h398v-557z" />
    <glyph glyph-name="Wcircumflex" unicode="&#x174;" horiz-adv-x="2189" 
d="M1749 0h-403l-250 723l-252 -723h-404l-424 1393h439l211 -742l260 742h338l258 -742l213 742h438zM1096 1624l-90 -115h-344l262 314h342l262 -314h-344z" />
    <glyph glyph-name="wcircumflex" unicode="&#x175;" horiz-adv-x="1712" 
d="M1382 0h-378l-148 473l-149 -473h-377l-307 1008h397l131 -506l158 506h295l155 -504l131 504h400zM856 1260l-90 -109h-344l262 309h342l262 -309h-344z" />
    <glyph glyph-name="Ycircumflex" unicode="&#x176;" horiz-adv-x="1540" 
d="M977 0h-412l-2 420l-547 973h459l293 -533l297 533h459l-547 -973v-420zM770 1624l-90 -115h-344l262 314h342l262 -314h-344z" />
    <glyph glyph-name="ycircumflex" unicode="&#x177;" horiz-adv-x="1394" 
d="M1372 1008l-647 -1452h-428l209 475l-477 977h440l242 -506l221 506h440zM643 1155h-344l262 309h342l262 -309h-344l-88 109z" />
    <glyph glyph-name="Ydieresis" unicode="&#x178;" horiz-adv-x="1540" 
d="M977 0h-412l-2 420l-547 973h459l293 -533l297 533h459l-547 -973v-420zM1019 1491q-87 0 -149 56q-61 57 -61 143t61 143q60 57 148 57t148 -57t60 -142t-60 -143t-147 -57zM520 1491q-88 0 -148 56q-60 57 -60 143t60 143t147 57t149 -57t61 -143q0 -86 -60 -143
q-61 -56 -149 -56z" />
    <glyph glyph-name="Zacute" unicode="&#x179;" horiz-adv-x="1359" 
d="M1294 358v-358h-1233v264l633 770h-596v359h1182v-265l-616 -770h630zM1155 1823l-287 -314h-376l196 314h467z" />
    <glyph glyph-name="zacute" unicode="&#x17a;" horiz-adv-x="1081" 
d="M1026 330v-330h-965v201l406 479h-404v330h934v-209l-389 -471h418zM993 1468l-286 -321h-371l190 321h467z" />
    <glyph glyph-name="Zdotaccent" unicode="&#x17b;" horiz-adv-x="1359" 
d="M1294 358v-358h-1233v264l633 770h-596v359h1182v-265l-616 -770h630zM676 1491q-84 0 -142 55t-58 136q0 80 58 136t142 56t142 -55t58 -137t-58 -136q-58 -55 -142 -55z" />
    <glyph glyph-name="zdotaccent" unicode="&#x17c;" horiz-adv-x="1081" 
d="M1026 330v-330h-965v201l406 479h-404v330h934v-209l-389 -471h418zM530 1128q-88 0 -148 56t-60 143q0 86 60 143q60 58 147 58t149 -58t61 -143q-1 -87 -61 -143t-148 -56z" />
    <glyph glyph-name="Zcaron" unicode="&#x17d;" horiz-adv-x="1359" 
d="M1294 358v-358h-1233v264l633 770h-596v359h1182v-265l-616 -770h630zM850 1499h-342l-262 322h344l90 -117l88 117h344z" />
    <glyph glyph-name="zcaron" unicode="&#x17e;" horiz-adv-x="1081" 
d="M1026 330v-330h-965v201l406 479h-404v330h934v-209l-389 -471h418zM700 1147h-342l-262 321h344l90 -116l88 116h345z" />
    <glyph glyph-name="florin" unicode="&#x192;" horiz-adv-x="1234" 
d="M852 1423q147 0 328 -39l-37 -303q-137 15 -195 15t-86 -36q-29 -36 -41 -120l-6 -45h303v-352h-348l-16 -119q-59 -455 -426 -455q-147 0 -328 39l37 303q139 -14 195 -14t86 36q28 36 40 120l13 90h-228v352h273l10 74q59 454 426 454z" />
    <glyph glyph-name="Acaron" unicode="&#x1cd;" horiz-adv-x="1619" 
d="M809 940l-158 -412h316zM524 190l-73 -190h-437l604 1401h383l605 -1401h-437l-73 190h-572zM979 1499h-342l-262 322h344l90 -117l88 117h344z" />
    <glyph glyph-name="acaron" unicode="&#x1ce;" horiz-adv-x="1300" 
d="M639 731q-93 0 -149 -61q-56 -62 -56 -160t56 -158t140 -61q84 0 173 76v354q-119 10 -164 10zM548 1038q212 0 652 -49v-989h-397v63q-121 -94 -279 -94t-307 128q-72 62 -117 170t-45 243q9 240 145 384t348 144zM854 1157h-342l-262 322h344l90 -117l88 117h344z" />
    <glyph glyph-name="Scommaaccent" unicode="&#x218;" horiz-adv-x="1392" 
d="M469 -276q0 74 53 124t129 50t129 -50q54 -50 54 -113q0 -61 -32 -119t-138 -208h-183l88 174q-100 43 -100 142zM724 1069q-160 0 -159 -90q0 -61 94 -84q127 -30 215 -49q172 -37 296 -122q143 -97 143 -307t-158 -329q-159 -119 -441 -119t-653 125l93 348
q336 -117 524 -123q92 -2 134 24t42 71t-66 70q-18 6 -31 12t-39 11t-42 9t-47 10q-286 55 -402 152q-117 96 -116 278q0 219 156 340q157 121 447 121t578 -92l-78 -352q-330 96 -490 96z" />
    <glyph glyph-name="scommaaccent" unicode="&#x219;" horiz-adv-x="1077" 
d="M371 -276q0 74 53 124t129 50t129 -50t53 -113q0 -61 -32 -119t-138 -208h-182l88 174q-100 43 -100 142zM514 254q110 0 111 39q1 27 -27 37q-41 15 -94 25q-223 42 -324 123q-84 69 -84 208q0 172 120 263t340 91t450 -69l-64 -287q-252 76 -356 76t-105 -49
q0 -36 75 -50q75 -15 114 -24q168 -39 257 -110t89 -225t-120 -243q-120 -90 -337 -90t-498 92l72 283q271 -90 381 -90z" />
    <glyph glyph-name="uni021A" unicode="&#x21a;" horiz-adv-x="1378" 
d="M510 -276q0 74 53 124t129 50t129 -50t53 -113q0 -61 -32 -119t-137 -208h-183l88 174q-100 43 -100 142zM895 1034v-1034h-412v1034h-442v359h1296v-359h-442z" />
    <glyph glyph-name="uni021B" unicode="&#x21b;" horiz-adv-x="987" 
d="M715 -265q0 -61 -32 -119t-138 -208h-183l89 174q-100 43 -101 142q0 74 53 124t129 50t130 -50t53 -113zM584 -31q-186 0 -289 118q-102 118 -102 337v233h-173v351h173v323h397v-323h295v-351h-295v-198q0 -135 123 -135q20 0 194 16l35 -320q-172 -51 -358 -51z" />
    <glyph glyph-name="circumflex" unicode="&#x2c6;" 
d="M614 1260l-90 -109h-344l262 309h342l263 -309h-345z" />
    <glyph glyph-name="caron" unicode="&#x2c7;" 
d="M784 1147h-342l-262 321h344l90 -116l88 116h345z" />
    <glyph glyph-name="breve" unicode="&#x2d8;" 
d="M717 1497h287q0 -170 -106 -267t-284 -97q-176 0 -282 97t-107 267h285q0 -47 29 -77t75 -30t74 30q29 30 29 77z" />
    <glyph glyph-name="dotaccent" unicode="&#x2d9;" 
d="M614 1128q-88 0 -148 56t-60 143q0 86 60 143q60 58 147 58t149 -58t61 -143q-1 -87 -61 -143t-148 -56z" />
    <glyph glyph-name="ring" unicode="&#x2da;" 
d="M612 1309q45 1 72 27t27 69t-27 70t-72 27q-46 0 -72 -28q-26 -26 -26 -69t26 -69t72 -27zM612 1673q127 0 208 -75q81 -76 81 -194t-81 -193t-208 -75t-208 76q-81 74 -80 193q0 119 80 193t208 75z" />
    <glyph glyph-name="ogonek" unicode="&#x2db;" 
d="M647 -53q0 -61 88 -62q49 0 107 17l37 -295q-65 -35 -201 -35t-232 75t-96 181q0 222 369 274l43 -61q-66 -23 -90 -45t-25 -49z" />
    <glyph glyph-name="tilde" unicode="&#x2dc;" 
d="M766 1470h270q0 -118 -44 -196q-79 -141 -243 -133q-71 2 -131 37l-55 34q-76 43 -76 -49h-270q0 117 43 195q76 138 244 133q72 -2 131 -35l55 -35q76 -39 76 49z" />
    <glyph glyph-name="hungarumlaut" unicode="&#x2dd;" 
d="M1112 1499l-137 -348h-297l78 348h356zM715 1499l-137 -348h-297l77 348h357z" />
    <glyph glyph-name="commaaccentcomb" unicode="&#x326;" horiz-adv-x="0" 
d="M414 -276q0 74 53 124t129 50t129 -50t53 -113q0 -61 -32 -119t-138 -208h-182l88 174q-100 43 -100 142z" />
    <glyph glyph-name="Wgrave" unicode="&#x1e80;" horiz-adv-x="2189" 
d="M1749 0h-403l-250 723l-252 -723h-404l-424 1393h439l211 -742l260 742h338l258 -742l213 742h438zM1290 1509h-372l-287 314h469z" />
    <glyph glyph-name="wgrave" unicode="&#x1e81;" horiz-adv-x="1712" 
d="M1382 0h-378l-148 473l-149 -473h-377l-307 1008h397l131 -506l158 506h295l155 -504l131 504h400zM1004 1147h-371l-287 321h467z" />
    <glyph glyph-name="Wacute" unicode="&#x1e82;" horiz-adv-x="2189" 
d="M1749 0h-403l-250 723l-252 -723h-404l-424 1393h439l211 -742l260 742h338l258 -742l213 742h438zM1571 1823l-287 -314h-377l197 314h467z" />
    <glyph glyph-name="wacute" unicode="&#x1e83;" horiz-adv-x="1712" 
d="M1382 0h-378l-148 473l-149 -473h-377l-307 1008h397l131 -506l158 506h295l155 -504l131 504h400zM1354 1468l-287 -321h-371l191 321h467z" />
    <glyph glyph-name="Wdieresis" unicode="&#x1e84;" horiz-adv-x="2189" 
d="M1749 0h-403l-250 723l-252 -723h-404l-424 1393h439l211 -742l260 742h338l258 -742l213 742h438zM1552 1691q0 -85 -60 -143t-147 -57q-87 0 -149 56q-61 57 -61 143t61 143q60 57 148 57t148 -57t60 -142zM846 1491q-88 0 -149 56q-60 57 -60 143t60 143q59 57 147 57
t149 -57t61 -143t-60 -142t-148 -57z" />
    <glyph glyph-name="wdieresis" unicode="&#x1e85;" horiz-adv-x="1712" 
d="M1382 0h-378l-148 473l-149 -473h-377l-307 1008h397l131 -506l158 506h295l155 -504l131 504h400zM897 1327q1 85 61 143t147 58t148 -58t61 -143q0 -86 -60 -142q-60 -57 -148 -57t-148 56t-61 143zM605 1528q87 0 149 -58t61 -143q0 -86 -60 -142q-61 -57 -149 -57
t-148 56t-61 143q1 85 61 143t147 58z" />
    <glyph glyph-name="Ygrave" unicode="&#x1ef2;" horiz-adv-x="1540" 
d="M977 0h-412l-2 420l-547 973h459l293 -533l297 533h459l-547 -973v-420zM965 1509h-373l-287 314h469z" />
    <glyph glyph-name="ygrave" unicode="&#x1ef3;" horiz-adv-x="1394" 
d="M1372 1008l-647 -1452h-428l209 475l-477 977h440l242 -506l221 506h440zM551 1151l-287 322h467l191 -322h-371z" />
    <glyph glyph-name="uni2009" unicode="&#x2009;" horiz-adv-x="266" 
 />
    <glyph glyph-name="endash" unicode="&#x2013;" horiz-adv-x="1236" 
d="M1126 346h-1017v365h1017v-365z" />
    <glyph glyph-name="emdash" unicode="&#x2014;" horiz-adv-x="2142" 
d="M1993 346h-1843v365h1843v-365z" />
    <glyph glyph-name="quoteleft" unicode="&#x2018;" horiz-adv-x="690" 
d="M582 1098q0 -94 -69 -160t-167 -66t-168 66q-126 119 -27 305q42 80 193 320h236l-129 -279q131 -57 131 -186z" />
    <glyph glyph-name="quoteright" unicode="&#x2019;" horiz-adv-x="690" 
d="M582 1375q0 -81 -41 -161t-193 -319h-237l129 281q-63 27 -97 76q-33 50 -32 108q0 96 68 161q69 65 167 65t167 -66q69 -64 69 -145z" />
    <glyph glyph-name="quotesinglbase" unicode="&#x201a;" horiz-adv-x="690" 
d="M111 195q1 95 69 159t166 64t167 -65t69 -145t-41 -159q-41 -80 -193 -321h-237l131 280q-131 57 -131 187z" />
    <glyph glyph-name="quotedblleft" unicode="&#x201c;" horiz-adv-x="1200" 
d="M854 870q-98 0 -167 65t-69 146t41 161t193 319h238l-132 -281q131 -55 132 -184q0 -96 -69 -161t-167 -65zM582 1096q0 -96 -69 -161t-167 -65t-168 65t-69 161q0 66 42 146t193 319h236l-129 -281q131 -55 131 -184z" />
    <glyph glyph-name="quotedblright" unicode="&#x201d;" horiz-adv-x="1212" 
d="M868 1587q98 1 167 -65t69 -146t-41 -160t-193 -319h-237l129 279q-129 57 -129 186q0 94 68 160q69 65 167 65zM346 1587q98 1 167 -65t69 -146t-41 -160t-193 -319h-237l129 279q-129 57 -129 186q0 94 68 160q69 65 167 65z" />
    <glyph glyph-name="quotedblbase" unicode="&#x201e;" horiz-adv-x="1200" 
d="M854 418q98 0 167 -65t69 -145t-41 -159q-41 -80 -193 -321h-238l132 280q-131 57 -132 187q0 95 69 159t167 64zM111 195q1 95 69 159t166 64t167 -65t69 -145t-41 -159q-41 -80 -193 -321h-237l131 280q-131 57 -131 187z" />
    <glyph glyph-name="dagger" unicode="&#x2020;" horiz-adv-x="813" 
d="M520 1024v-426h-227v426h-221v229h221v222h227v-222h221v-229h-221z" />
    <glyph glyph-name="daggerdbl" unicode="&#x2021;" horiz-adv-x="813" 
d="M520 987h221v-229h-221v-160h-227v160h-221v229h221v98h-221v230h221v160h227v-160h221v-230h-221v-98z" />
    <glyph glyph-name="bullet" unicode="&#x2022;" horiz-adv-x="825" 
d="M411 279q-146 0 -247 96q-100 96 -101 239q1 144 101 240t246 96t249 -96t103 -240t-102 -239q-102 -96 -249 -96z" />
    <glyph glyph-name="ellipsis" unicode="&#x2026;" horiz-adv-x="1851" 
d="M1505 -33q-98 0 -167 65t-68 161q0 97 68 161t167 64q98 0 168 -65t70 -161t-70 -160q-70 -65 -168 -65zM920 -33q-98 0 -167 65t-69 161q0 97 69 161t167 64t168 -65t69 -161q1 -96 -69 -160q-70 -65 -168 -65zM344 -33q-98 0 -167 65t-68 161q1 97 69 161t166 64
t167 -65t69 -161t-69 -160q-69 -65 -167 -65z" />
    <glyph glyph-name="perthousand" unicode="&#x2030;" horiz-adv-x="3186" 
d="M2649 567q-73 0 -125 -50t-52 -128t52 -128t125 -50t125 50t52 128t-52 128t-125 50zM1697 567q-73 0 -125 -50t-52 -128t52 -128t125 -50t125 50t52 128t-52 128t-125 50zM2648 807q186 0 308 -116t122 -302t-122 -303t-308 -117t-308 117t-122 303t122 302t308 116z
M1698 807q186 0 307 -116t121 -302t-121 -303t-307 -117t-308 117t-122 303t122 302t308 116zM540 1182q-73 0 -125 -50q-53 -50 -53 -128t52 -128t125 -50q74 0 126 50t52 128t-52 128t-125 50zM731 0h-190l962 1393h191zM539 1423q186 1 308 -115t122 -302t-122 -304
t-308 -116q-186 0 -309 116q-122 118 -122 304t122 302q123 115 309 115z" />
    <glyph glyph-name="guilsinglleft" unicode="&#x2039;" horiz-adv-x="794" 
d="M694 244l-229 -205l-410 471l410 473l231 -199l-217 -272z" />
    <glyph glyph-name="guilsinglright" unicode="&#x203a;" horiz-adv-x="794" 
d="M98 784l234 199l409 -473l-409 -471l-232 205l217 268z" />
    <glyph glyph-name="fraction" unicode="&#x2044;" horiz-adv-x="1173" 
d="M197 0h-191l963 1393h190z" />
    <glyph glyph-name="zerosuperior" unicode="&#x2070;" horiz-adv-x="968" 
d="M305 978q0 -90 50 -146t130 -56t129 56t50 147q0 90 -50 145q-50 56 -129 56q-80 0 -130 -56t-50 -146zM922 978q0 -194 -120 -314t-318 -119q-198 0 -318 120q-120 121 -119 315q-1 194 119 312t318 119q198 0 318 -119q120 -120 120 -314z" />
    <glyph glyph-name="foursuperior" unicode="&#x2074;" horiz-adv-x="851" 
d="M496 920v206l-179 -206h179zM737 920h105v-207h-105v-150h-241v150h-480v182l455 498h266v-473z" />
    <glyph glyph-name="fivesuperior" unicode="&#x2075;" horiz-adv-x="780" 
d="M754 836q0 -129 -96 -209t-278 -80q-181 0 -349 69l69 203q158 -57 277 -57t119 66t-117 73l-275 14l48 480h559v-230h-334l-8 -71l57 -2q328 -16 328 -256z" />
    <glyph glyph-name="sixsuperior" unicode="&#x2076;" horiz-adv-x="796" 
d="M276 869q0 -51 34 -83t88 -32t88 32t34 84q0 51 -34 83t-88 32t-88 -32t-34 -84zM764 862q0 -137 -101 -228t-265 -91t-263 90q-100 90 -100 239q0 86 57 179l217 344h293l-139 -217q137 -16 219 -98t82 -218z" />
    <glyph glyph-name="sevensuperior" unicode="&#x2077;" horiz-adv-x="727" 
d="M16 1153v240h695v-148l-295 -682h-291l258 590h-367z" />
    <glyph glyph-name="eightsuperior" unicode="&#x2078;" horiz-adv-x="776" 
d="M295 830q-1 -36 25 -58t68 -22t68 22t26 58t-26 59t-68 23t-68 -24q-26 -22 -25 -58zM305 1149q0 -33 23 -52t59 -20q82 0 82 72q0 33 -23 53q-24 20 -60 20t-58 -20t-23 -53zM760 795q0 -115 -100 -183t-274 -68q-173 0 -271 68t-99 183q0 150 160 209q-119 52 -119 164
q1 112 93 178t238 66t237 -66q90 -66 90 -178t-117 -164q162 -59 162 -209z" />
    <glyph glyph-name="ninesuperior" unicode="&#x2079;" horiz-adv-x="790" 
d="M272 1085q0 -51 34 -83t89 -32t89 32t34 83t-34 84t-89 33t-89 -33t-34 -84zM760 1081q0 -89 -66 -188l-209 -332h-295l142 217q-137 16 -219 98t-82 218q0 137 101 228t264 91q164 0 264 -91t100 -241z" />
    <glyph glyph-name="zeroinferior" unicode="&#x2080;" horiz-adv-x="968" 
d="M305 48q0 -90 50 -146t130 -56t129 56t50 147q0 89 -50 145t-129 56q-80 0 -130 -56t-50 -146zM922 48q0 -194 -120 -314t-318 -119q-198 0 -318 120q-120 121 -119 315q-1 194 119 312t318 119q198 0 318 -119q120 -120 120 -314z" />
    <glyph glyph-name="oneinferior" unicode="&#x2081;" horiz-adv-x="669" 
d="M635 -137v-232h-582v232h162v307l-147 -35l-52 219l367 107h94v-598h158z" />
    <glyph glyph-name="twoinferior" unicode="&#x2082;" horiz-adv-x="745" 
d="M711 -369h-666v179l309 243q70 55 70 109q0 80 -94 80t-256 -49l-47 223q178 63 342 63q163 0 245 -77t82 -181t-43 -174t-139 -147l-55 -43h252v-226z" />
    <glyph glyph-name="threeinferior" unicode="&#x2083;" horiz-adv-x="765" 
d="M739 -94q0 -141 -90 -216t-266 -75t-363 70l70 202q174 -55 287 -55t112 68q0 55 -88 55h-200v104l170 174h-303v230h653v-137l-186 -197q100 -25 152 -83t52 -140z" />
    <glyph glyph-name="fourinferior" unicode="&#x2084;" horiz-adv-x="851" 
d="M496 -12v207l-179 -207h179zM737 -12h105v-207h-105v-150h-241v150h-480v182l455 498h266v-473z" />
    <glyph glyph-name="fiveinferior" unicode="&#x2085;" horiz-adv-x="780" 
d="M754 -96q0 -129 -96 -209t-278 -80q-181 0 -349 70l69 202q158 -57 277 -57t119 67t-117 72l-275 15l48 479h559v-230h-334l-8 -71l57 -2q328 -16 328 -256z" />
    <glyph glyph-name="sixinferior" unicode="&#x2086;" horiz-adv-x="796" 
d="M398 -178q54 0 88 33t34 84t-34 83t-88 32t-88 -32t-34 -84t34 -84t88 -32zM764 -70q0 -136 -101 -228t-265 -91q-164 0 -263 90q-100 90 -100 240q0 86 57 178l217 344h293l-139 -217q137 -16 219 -98t82 -218z" />
    <glyph glyph-name="seveninferior" unicode="&#x2087;" horiz-adv-x="727" 
d="M16 221v240h695v-148l-295 -682h-291l258 590h-367z" />
    <glyph glyph-name="eightinferior" unicode="&#x2088;" horiz-adv-x="776" 
d="M388 -180q42 0 68 22t26 59t-26 59t-68 22t-68 -23t-25 -59q-1 -36 25 -58t68 -22zM305 219q0 -33 23 -52t59 -20q82 0 82 72q0 33 -23 53q-24 20 -60 20t-58 -20t-23 -53zM760 -135q0 -115 -100 -183t-274 -67q-173 0 -271 68t-99 182q0 150 160 209q-119 52 -119 164
q1 112 93 178t238 66t237 -66q90 -66 90 -178t-117 -164q162 -59 162 -209z" />
    <glyph glyph-name="nineinferior" unicode="&#x2089;" horiz-adv-x="790" 
d="M272 156q0 -51 34 -83t89 -32t89 32t34 83t-34 84q-34 32 -89 32t-89 -32t-34 -84zM760 152q0 -90 -66 -189l-209 -332h-295l142 217q-137 16 -219 98t-82 218q0 138 101 228t264 91q164 -1 264 -91t100 -240z" />
    <glyph glyph-name="Euro" unicode="&#x20ac;" horiz-adv-x="1503" 
d="M899 1423q268 0 547 -80l-66 -346q-283 47 -417 47q-197 0 -281 -131h418l-45 -172h-430q-2 -16 -2 -47t2 -47h407l-43 -172h-307q84 -123 256 -123q123 0 457 43l51 -346q-297 -80 -564 -80t-444 131q-176 131 -231 375h-137v172h114q-2 16 -2 47t2 47h-114v172h139
q59 236 241 373t449 137z" />
    <glyph glyph-name="uni2116" unicode="&#x2116;" horiz-adv-x="2865" 
d="M1688 254h989v-250h-989v250zM2182 674q91 0 152 59q60 59 60 153t-60 153t-152 59t-151 -58q-61 -58 -61 -153q0 -93 60 -153t152 -60zM1456 1393v-1393h-366l-570 702v-702h-411v1393h378l557 -705v705h412zM2183 1423q254 0 415 -147t161 -388q0 -240 -161 -390
t-415 -150t-415 150q-160 150 -160 390t160 388q161 147 415 147z" />
    <glyph glyph-name="uni2117" unicode="&#x2117;" horiz-adv-x="1632" 
d="M856 723q36 1 60 23t24 54t-24 51t-71 19q-46 0 -75 -2v-145h86zM841 1051q324 1 324 -257q0 -128 -92 -188t-239 -59h-64v-180h-223v677q133 7 294 7zM816 1235q-234 0 -392 -155t-158 -384t158 -384q158 -154 392 -154t393 154t159 384q0 229 -159 384t-393 155z
M817 1423q319 0 533 -208t213 -519q0 -311 -213 -519q-212 -208 -532 -208t-534 208t-214 519t214 519t533 208z" />
    <glyph glyph-name="trademark" unicode="&#x2122;" horiz-adv-x="1579" 
d="M1272 971l-115 -234h-139l-117 234l-10 -234h-211l27 656h188l195 -353l188 353h188l31 -656h-213zM627 1200h-185v-463h-219v463h-186v193h590v-193z" />
    <glyph glyph-name="oneeighth" unicode="&#x215b;" horiz-adv-x="1949" 
d="M1490 188q42 0 68 23t26 59t-26 58t-68 22t-68 -22t-26 -59t26 -59t68 -22zM1489 662q-37 0 -59 -20t-21 -54q0 -72 81 -72t81 72q-1 34 -23 54t-59 20zM1862 233q0 -115 -100 -183t-272 -66q-173 0 -271 68t-99 181q0 150 160 209q-121 56 -121 166t92 176q93 66 239 66
t236 -66t90 -178t-116 -164q162 -59 162 -209zM1544 1393l-960 -1393h-191l961 1393h190zM115 563v232h161v307l-147 -35l-51 219l366 107h95v-598h157v-232h-581z" />
    <glyph glyph-name="threeeighths" unicode="&#x215c;" horiz-adv-x="1966" 
d="M1413 269q-1 -37 25 -59t68 -22t68 23t26 59t-26 58t-68 22t-68 -22t-25 -59zM1425 588q0 -72 81 -72t81 72q0 33 -22 53q-23 21 -60 21t-59 -20t-21 -54zM1878 233q0 -115 -99 -183t-273 -66q-174 0 -271 68q-98 68 -98 181q0 150 159 209q-120 56 -120 166t92 176
t238 66t236 -66t91 -178q0 -112 -117 -164q162 -59 162 -209zM602 0h-190l960 1393h191zM786 838q0 -141 -90 -216t-266 -75t-362 69l69 203q174 -55 287 -55t113 67q0 55 -88 56h-201v104l170 174h-303v230h653v-138l-186 -196q100 -25 152 -83t52 -140z" />
    <glyph glyph-name="fiveeighths" unicode="&#x215d;" horiz-adv-x="1970" 
d="M1417 269q-1 -37 25 -59t68 -22t68 23t26 59t-26 58t-68 22t-68 -22t-25 -59zM1427 588q0 -33 23 -52t59 -20q82 0 82 72q0 33 -22 53q-23 21 -60 21t-59 -20t-23 -54zM1882 233q0 -115 -100 -183t-274 -66q-174 0 -271 68q-98 68 -98 181q0 150 159 209
q-118 52 -118 164t92 178t238 66t236 -66t91 -178q0 -112 -117 -164q162 -59 162 -209zM582 0h-191l963 1393h190zM774 836q0 -129 -96 -209t-278 -80t-349 69l70 203q159 -57 277 -57t118 66t-117 73l-274 14l47 480h559v-230h-334l-8 -71l57 -2q328 -16 328 -256z" />
    <glyph glyph-name="seveneighths" unicode="&#x215e;" horiz-adv-x="1886" 
d="M1333 269q-1 -37 25 -59t68 -22t68 23t26 59t-26 58t-68 22t-68 -22t-25 -59zM1346 588q0 -72 80 -72t81 72q0 33 -22 53q-23 21 -60 21t-58 -20t-21 -54zM1798 233q0 -115 -99 -183t-273 -66q-174 0 -271 68q-98 68 -98 181q0 150 160 209q-121 56 -121 166t92 176
t238 66t236 -66t91 -178q0 -112 -117 -164q162 -59 162 -209zM487 0h-190l963 1393h190zM92 1153v240h694v-148l-294 -682h-291l258 590h-367z" />
    <glyph glyph-name="arrowleft" unicode="&#x2190;" horiz-adv-x="1540" 
d="M1499 866v-334h-821l317 -342l-254 -235l-710 743l704 740l254 -236l-311 -336h821z" />
    <glyph glyph-name="arrowup" unicode="&#x2191;" horiz-adv-x="1562" 
d="M608 0v797l-317 -303l-225 245l712 682l719 -686l-225 -246l-326 308v-797h-338z" />
    <glyph glyph-name="arrowright" unicode="&#x2192;" horiz-adv-x="1540" 
d="M43 866h819l-311 334l254 234l702 -736l-708 -741l-254 233l317 342h-819v334z" />
    <glyph glyph-name="arrowdown" unicode="&#x2193;" horiz-adv-x="1562" 
d="M608 1393h340v-797l324 307l225 -244l-719 -688l-712 682l225 246l317 -303v797z" />
    <glyph glyph-name="arrowupleft" unicode="&#x2196;" horiz-adv-x="1609" 
d="M477 377h-334v1016h1045v-334h-483l847 -850l-223 -223l-852 848v-457z" />
    <glyph glyph-name="arrowupright" unicode="&#x2197;" horiz-adv-x="1622" 
d="M434 1059v334h1045v-1016h-334v457l-852 -848l-225 223l847 850h-481z" />
    <glyph glyph-name="arrowdownright" unicode="&#x2198;" horiz-adv-x="1609" 
d="M1133 1016h333v-1016h-1044v334h481l-848 850l226 223l852 -848v457z" />
    <glyph glyph-name="arrowdownleft" unicode="&#x2199;" horiz-adv-x="1609" 
d="M1188 334v-334h-1045v1016h334v-457l852 848l223 -223l-847 -850h483z" />
    <glyph glyph-name="minus" unicode="&#x2212;" horiz-adv-x="1341" 
d="M190 803h961v-277h-961v277z" />
    <glyph glyph-name="triagup" unicode="&#x25b2;" horiz-adv-x="1992" 
d="M993 1415l856 -1415h-1706z" />
    <glyph glyph-name="blackuppointingsmalltriangle" unicode="&#x25b4;" horiz-adv-x="1105" 
d="M553 1057l434 -719h-868z" />
    <glyph glyph-name="uni25B8" unicode="&#x25b8;" horiz-adv-x="991" 
d="M897 702l-719 -436v869z" />
    <glyph glyph-name="triagdn" unicode="&#x25bc;" horiz-adv-x="1992" 
d="M1849 1393l-856 -1416l-850 1416h1706z" />
    <glyph glyph-name="uni25BE" unicode="&#x25be;" horiz-adv-x="1105" 
d="M987 1016l-434 -719l-434 719h868z" />
    <glyph glyph-name="uni25C2" unicode="&#x25c2;" horiz-adv-x="991" 
d="M815 266l-719 436l719 433v-869z" />
    <glyph glyph-name="R.ss02" horiz-adv-x="1390" 
d="M702 1061h-180v-336h187q80 0 132 50t52 127t-51 118q-52 41 -140 41zM700 1407q289 0 449 -132t160 -378q0 -159 -84 -277t-236 -176h-2l410 -444h-510l-352 383h-13v-383h-413v1393q439 14 591 14z" />
    <glyph glyph-name="Racute.ss02" horiz-adv-x="1390" 
d="M702 1061h-180v-336h189q80 0 131 50t51 127t-51 118q-52 41 -140 41zM700 1407q289 0 448 -132t159 -378q0 -159 -84 -277t-234 -176h-2l408 -444h-508l-352 383h-15v-383h-411v1393q439 14 591 14zM1128 1823l-286 -314h-377l197 314h466z" />
    <glyph glyph-name="Rcaron.ss02" horiz-adv-x="1390" 
d="M702 1061h-180v-336h189q80 0 131 50t51 127t-51 118q-52 41 -140 41zM700 1407q289 0 448 -132t159 -378q0 -159 -84 -277t-234 -176h-2l408 -444h-508l-352 383h-15v-383h-411v1393q439 14 591 14zM823 1499h-342l-262 322h344l90 -117l88 117h344z" />
    <glyph glyph-name="Rcommaaccent.ss02" horiz-adv-x="1390" 
d="M502 -276q0 74 53 124t129 50t129 -50t53 -113q0 -61 -32 -119t-138 -208h-182l88 174q-100 43 -100 142zM702 1061h-180v-336h189q80 0 131 50t51 127t-51 118q-52 41 -140 41zM700 1407q289 0 448 -132t159 -378q0 -159 -84 -277t-234 -176h-2l408 -444h-508l-352 383
h-15v-383h-411v1393q439 14 591 14z" />
    <glyph glyph-name="Q.ss04" horiz-adv-x="1642" 
d="M1473 -94v-318q-356 0 -701 62v256h701zM822 342q146 0 238 97q91 97 91 257t-91 257q-92 97 -238 97t-237 -96q-91 -98 -91 -258t91 -257t237 -97zM821 1423q336 -1 543 -201t207 -526t-207 -526t-543 -201q-335 0 -543 201q-208 200 -208 526t208 526t543 201z" />
    <glyph glyph-name="i.loclTRK" horiz-adv-x="585" 
d="M492 1008v-1008h-398v1008h398zM293 1128q-89 0 -149 56t-60 143q0 86 60 143q60 58 148 58t148 -58q62 -58 62 -143q0 -87 -60 -143t-149 -56z" />
    <glyph glyph-name="germandbls.case" horiz-adv-x="2723" 
d="M2056 1069q-160 0 -160 -90q0 -47 48 -66t91 -28t75 -17t99 -22t145 -44q196 -75 254 -202q36 -76 36 -178q0 -215 -157 -334t-439 -119t-655 125l92 348q336 -117 526 -123q90 -2 132 24t42 71t-65 70q-18 6 -32 12t-39 11q-26 5 -42 9t-47 10q-286 55 -402 152
q-115 96 -114 278q0 219 157 340t446 121t576 -92l-77 -352q-330 96 -490 96zM724 1069q-160 0 -159 -90q0 -61 94 -84q127 -30 215 -49q172 -37 296 -122q143 -97 143 -307t-158 -329q-159 -119 -441 -119t-653 125l93 348q336 -117 524 -123q92 -2 134 24t42 71t-66 70
q-18 6 -31 12t-39 11t-42 9t-47 10q-286 55 -402 152q-117 96 -116 278q0 219 156 340q157 121 447 121t578 -92l-78 -352q-330 96 -490 96z" />
    <glyph glyph-name="y.ss01" horiz-adv-x="1271" 
d="M1184 1008v-1002q0 -260 -157 -406t-456 -147q-180 0 -372 58l47 303q212 -37 320 -37q215 0 222 215q-120 -6 -296 -6t-285 97t-109 292v633h396v-551q0 -90 34 -122t90 -32t170 8v697h396z" />
    <glyph glyph-name="yacute.ss01" horiz-adv-x="1271" 
d="M1186 1008v-1002q0 -260 -158 -406t-457 -147q-180 0 -372 58l47 303q212 -37 320 -37q215 0 222 215q-120 -6 -296 -6t-285 97t-109 292v633h398v-551q0 -90 34 -122t88 -32q56 0 170 8v697h398zM1100 1468l-287 -321h-371l191 321h467z" />
    <glyph glyph-name="ycircumflex.ss01" horiz-adv-x="1271" 
d="M1186 1008v-1002q0 -260 -158 -406t-457 -147q-180 0 -372 58l47 303q212 -37 320 -37q215 0 222 215q-120 -6 -296 -6t-285 97t-109 292v633h398v-551q0 -90 34 -122t88 -32q56 0 170 8v697h398zM635 1260l-90 -109h-344l262 309h342l262 -309h-344z" />
    <glyph glyph-name="ydieresis.ss01" horiz-adv-x="1271" 
d="M1186 1008v-1002q0 -260 -158 -406t-457 -147q-180 0 -372 58l47 303q212 -37 320 -37q215 0 222 215q-120 -6 -296 -6t-285 97t-109 292v633h398v-551q0 -90 34 -122t88 -32q56 0 170 8v697h398zM678 1327q0 85 60 143t148 58q87 0 148 -58q62 -58 62 -143
q0 -86 -60 -142q-60 -57 -149 -57t-149 56t-60 143zM386 1528q86 0 148 -58t62 -143q0 -86 -60 -142q-60 -57 -148 -57t-149 56q-60 56 -61 143q0 85 60 143t148 58z" />
    <glyph glyph-name="ygrave.ss01" horiz-adv-x="1271" 
d="M1186 1008v-1002q0 -260 -158 -406t-457 -147q-180 0 -372 58l47 303q212 -37 320 -37q215 0 222 215q-120 -6 -296 -6t-285 97t-109 292v633h398v-551q0 -90 34 -122t88 -32q56 0 170 8v697h398zM823 1147h-370l-287 321h467z" />
    <glyph glyph-name="a.ss03" horiz-adv-x="1191" 
d="M545 227q76 0 166 11v159l-179 -10q-115 -6 -114 -80q0 -80 127 -80zM1100 653v-633q-360 -51 -649 -51q-190 0 -295 91q-104 91 -105 241q0 293 420 315l240 13v6q-1 96 -139 96t-390 -33l-41 297q314 45 490 45q223 4 346 -97t123 -290z" />
    <glyph glyph-name="aacute.ss03" horiz-adv-x="1191" 
d="M545 227q76 0 166 11v159l-179 -10q-115 -6 -114 -80q0 -80 127 -80zM1100 653v-633q-360 -51 -649 -51q-190 0 -295 91q-104 91 -105 241q0 293 420 315l240 13v6q-1 96 -139 96t-390 -33l-41 297q314 45 490 45q223 4 346 -97t123 -290zM1042 1468l-286 -321h-371
l190 321h467z" />
    <glyph glyph-name="abreve.ss03" horiz-adv-x="1191" 
d="M545 227q76 0 166 11v159l-179 -10q-115 -6 -114 -80q0 -80 127 -80zM1100 653v-633q-360 -51 -649 -51q-190 0 -295 91q-104 91 -105 241q0 293 420 315l240 13v6q-1 96 -139 96t-390 -33l-41 297q314 45 490 45q223 4 346 -97t123 -290zM682 1497h287
q-1 -170 -107 -267t-282 -97t-283 97q-106 97 -107 267h285q0 -47 29 -77t75 -30q47 0 75 30t28 77z" />
    <glyph glyph-name="acaron.ss03" horiz-adv-x="1191" 
d="M545 227q76 0 166 11v159l-179 -10q-115 -6 -114 -80q0 -80 127 -80zM1100 653v-633q-360 -51 -649 -51q-190 0 -295 91q-104 91 -105 241q0 293 420 315l240 13v6q-1 96 -139 96t-390 -33l-41 297q314 45 490 45q223 4 346 -97t123 -290zM748 1147h-342l-263 321h344
l91 -116l88 116h344z" />
    <glyph glyph-name="acircumflex.ss03" horiz-adv-x="1191" 
d="M545 227q76 0 166 11v159l-179 -10q-115 -6 -114 -80q0 -80 127 -80zM1100 653v-633q-360 -51 -649 -51q-190 0 -295 91q-104 91 -105 241q0 293 420 315l240 13v6q-1 96 -139 96t-390 -33l-41 297q314 45 490 45q223 4 346 -97t123 -290zM578 1260l-91 -109h-344
l263 309h342l262 -309h-344z" />
    <glyph glyph-name="adieresis.ss03" horiz-adv-x="1191" 
d="M545 227q76 0 166 11v159l-179 -10q-115 -6 -114 -80q0 -80 127 -80zM1100 653v-633q-360 -51 -649 -51q-190 0 -295 91q-104 91 -105 241q0 293 420 315l240 13v6q-1 96 -139 96t-390 -33l-41 297q314 45 490 45q223 4 346 -97t123 -290zM621 1327q0 85 60 143t147 58
q86 0 148 -58t62 -143q0 -86 -60 -142q-60 -57 -148 -57t-149 56q-60 56 -60 143zM121 1327q1 85 61 143t147 58t148 -58t61 -143q0 -86 -60 -142q-60 -57 -148 -57t-148 56t-61 143z" />
    <glyph glyph-name="agrave.ss03" horiz-adv-x="1191" 
d="M545 227q76 0 166 11v159l-179 -10q-115 -6 -114 -80q0 -80 127 -80zM1100 653v-633q-360 -51 -649 -51q-190 0 -295 91q-104 91 -105 241q0 293 420 315l240 13v6q-1 96 -139 96t-390 -33l-41 297q314 45 490 45q223 4 346 -97t123 -290zM766 1147h-371l-286 321h466z
" />
    <glyph glyph-name="amacron.ss03" horiz-adv-x="1191" 
d="M545 227q76 0 166 11v159l-179 -10q-115 -6 -114 -80q0 -80 127 -80zM1100 653v-633q-360 -51 -649 -51q-190 0 -295 91q-104 91 -105 241q0 293 420 315l240 13v6q-1 96 -139 96t-390 -33l-41 297q314 45 490 45q223 4 346 -97t123 -290zM881 1438v-287h-602v287h602z
" />
    <glyph glyph-name="aogonek.ss03" horiz-adv-x="1191" 
d="M545 227q76 0 166 11v159l-179 -10q-115 -6 -114 -80q0 -80 127 -80zM1016 -449q-136 0 -232 75q-96 76 -96 182t82 174q-143 -12 -326 -12t-288 90q-104 91 -105 241q0 293 420 315l240 13v6q-1 96 -139 96t-390 -33l-41 297q313 45 490 45q223 4 346 -97t123 -290v-633
q-66 -22 -90 -44t-25 -50q0 -61 88 -61q50 0 107 16l37 -295q-65 -35 -201 -35z" />
    <glyph glyph-name="aring.ss03" horiz-adv-x="1191" 
d="M545 227q76 0 166 11v159l-179 -10q-115 -6 -114 -80q0 -80 127 -80zM1100 653v-633q-360 -51 -649 -51q-190 0 -295 91q-104 91 -105 241q0 293 420 315l240 13v6q-1 96 -139 96t-390 -33l-41 297q314 45 490 45q223 4 346 -97t123 -290zM578 1309q46 1 72 27t26 69
t-27 70t-71 27t-72 -28q-27 -26 -27 -69t27 -69t72 -27zM578 1673q128 0 208 -75q80 -76 80 -194t-81 -193t-207 -75t-208 76q-81 74 -81 193t81 193t208 75z" />
    <glyph glyph-name="atilde.ss03" horiz-adv-x="1191" 
d="M545 227q76 0 166 11v159l-179 -10q-115 -6 -114 -80q0 -80 127 -80zM1100 653v-633q-360 -51 -649 -51q-190 0 -295 91q-104 91 -105 241q0 293 420 315l240 13v6q-1 96 -139 96t-390 -33l-41 297q314 45 490 45q223 4 346 -97t123 -290zM729 1470h270q0 -118 -44 -196
q-79 -141 -243 -133q-71 2 -130 37l-56 34q-76 43 -75 -49h-271q0 117 43 195q76 138 244 133q72 -2 131 -35l55 -35q76 -39 76 49z" />
    <glyph glyph-name="f_b" horiz-adv-x="2222" 
d="M1597 291q78 0 135 60q56 61 56 159t-55 160t-150 61q-39 0 -162 -14v-414q98 -12 176 -12zM1663 1038q225 0 361 -144t143 -384q0 -135 -45 -243t-119 -170q-153 -128 -344 -128t-635 51v1188q-127 43 -223 43q-205 0 -205 -184v-59h311v-351h-311v-657h-395v657h-195
v351h195v102q0 231 144 356t370 125q86 0 145 -12t180 -51l381 -19v-483q109 12 242 12z" />
    <glyph glyph-name="f_f_b" horiz-adv-x="3059" 
d="M2419 291q94 0 150 60q57 61 57 161t-56 160t-155 59q-55 0 -156 -14v-414q123 -12 160 -12zM809 1251q-213 0 -213 -196v-47h442v102q0 41 2 61q-115 80 -231 80zM2492 1038q230 0 368 -143t144 -383q0 -137 -46 -246t-120 -170q-153 -125 -326 -125t-650 47v1190
q-127 43 -232 43q-197 0 -196 -184v-59h311v-351h-311v-657h-396v657h-442v-657h-395v657h-195v351h195v61q0 236 160 379q161 143 402 143t419 -125q137 125 364 125q90 0 152 -12t178 -51l383 -19v-483q131 12 233 12z" />
    <glyph glyph-name="f_f_f" horiz-adv-x="2580" 
d="M1647 1251q-213 0 -213 -196v-47h442v163q-115 80 -229 80zM809 1251q-213 0 -213 -196v-47h442v61q0 57 9 98q-123 84 -238 84zM2574 657h-303v-657h-395v657h-442v-657h-396v657h-442v-657h-395v657h-195v351h195v61q0 236 160 379q161 143 408 143t433 -141
q160 141 392 141t405 -112q111 113 303 112q131 0 262 -24l-35 -310q-70 7 -130 7t-94 -38t-34 -118v-100h303v-351z" />
    <glyph glyph-name="f_f_h" horiz-adv-x="3035" 
d="M809 1251q-213 0 -213 -196v-47h442v102q0 41 2 61q-115 80 -231 80zM2542 1038q180 0 290 -106t109 -281v-651h-395v528q0 156 -131 156q-35 0 -164 -12v-672h-396v1208q-127 43 -225 43q-197 0 -196 -184v-59h305v-351h-305v-657h-396v657h-442v-657h-395v657h-195v351
h195v61q0 236 160 379q161 143 402 143t419 -125q137 125 364 125q86 0 146 -12t178 -51l383 -19v-71h-2v-416q162 16 291 16z" />
    <glyph glyph-name="f_f_j" horiz-adv-x="2328" 
d="M809 1251q-213 0 -213 -196v-47h442v61q0 57 9 98q-123 84 -238 84zM1647 1251q-213 0 -213 -196v-47h804v-945q0 -135 -18 -222t-74 -164q-105 -146 -452 -154l-21 319q122 8 148 62q14 32 17 56t3 77v620h-407v-657h-396v657h-442v-657h-395v657h-195v351h195v61
q0 236 160 379q161 143 408 143t433 -141q160 141 404 141q295 0 503 -200l-200 -242q-135 102 -262 102z" />
    <glyph glyph-name="f_f_k" horiz-adv-x="3045" 
d="M809 1251q-213 0 -213 -196v-47h442v102q0 41 2 61q-115 80 -231 80zM2251 324v-324h-396v1208q-127 43 -225 43q-197 0 -196 -184v-59h305v-351h-305v-657h-396v657h-442v-657h-395v657h-195v351h195v61q0 236 160 379q161 143 402 143t419 -125q137 125 364 125
q86 0 146 -12t178 -51l383 -19v-71h-2v-754h24l260 324h447l-338 -420l381 -588h-451l-204 324h-119z" />
    <glyph glyph-name="f_f_t" horiz-adv-x="2641" 
d="M809 1251q-213 0 -213 -196v-47h442v163q-115 80 -229 80zM2238 -31q-186 0 -288 118t-103 337v233h-413v-657h-396v657h-442v-657h-395v657h-195v351h195v61q0 236 160 379q161 143 395 143t405 -112q117 113 309 112q121 0 244 -22l-33 -309q-74 4 -98 4
q-80 0 -115 -37t-34 -119v-100h413v323h398v-323h295v-351h-295v-198q0 -135 122 -135q21 0 195 16l35 -320q-173 -51 -359 -51z" />
    <glyph glyph-name="f_h" horiz-adv-x="2203" 
d="M1726 1038q164 0 275 -106t110 -281v-651h-397v528q0 156 -129 156q-43 0 -164 -14v-670h-397v1208q-127 43 -223 43q-205 0 -205 -184v-59h311v-351h-311v-657h-395v657h-195v351h195v102q0 231 144 356t370 125q86 0 145 -12t180 -51l381 -19v-485q141 14 305 14z" />
    <glyph glyph-name="f_j" horiz-adv-x="1499" 
d="M1407 1008v-945q0 -135 -18 -222q-44 -214 -239 -277q-112 -37 -288 -41l-20 319q122 8 148 62q14 32 18 56t4 77v620h-416v-657h-395v657h-195v351h195v61q0 238 161 380q162 142 412 142q297 0 504 -200l-201 -242q-131 102 -262 102q-219 0 -219 -196v-47h811z" />
    <glyph glyph-name="f_k" horiz-adv-x="2207" 
d="M1413 324v-324h-395v1208q-127 43 -223 43q-199 0 -199 -184v-59h303v-351h-303v-657h-395v657h-195v351h195v102q0 231 143 356t365 125q86 0 145 -12t180 -51l379 -19v-825h25l260 324h446l-338 -420l381 -588h-450l-199 324h-125z" />
    <glyph glyph-name="f_t" horiz-adv-x="1804" 
d="M1400 -31q-186 0 -288 118t-102 337v233h-414v-657h-395v657h-195v351h195v129q0 219 117 337q118 118 315 117q121 0 246 -22l-35 -309q-74 4 -99 4q-81 0 -115 -37t-34 -119v-100h414v323h397v-323h295v-351h-295v-198q0 -135 123 -135q20 0 194 16l35 -320
q-173 -51 -359 -51z" />
    <glyph glyph-name="r_f" horiz-adv-x="1675" 
d="M1669 657h-297v-657h-395v647q-250 -6 -477 -22v-625h-398v944q348 59 875 64v129q0 219 117 337t309 117q127 0 260 -24l-35 -310q-68 7 -128 7t-94 -38t-34 -118v-100h297v-351z" />
    <glyph glyph-name="r_t" horiz-adv-x="1742" 
d="M1346 1028h294v-350h-294v-219q0 -135 122 -135q20 0 195 16l35 -320q-172 -51 -358 -51t-289 118q-102 118 -103 337v242q-182 -2 -448 -19v-647h-398v965q414 59 846 63v303h398v-303z" />
    <glyph glyph-name="zero.osf" horiz-adv-x="1298" 
d="M649 301q104 0 175 72q71 73 71 185t-71 184t-175 71q-104 0 -175 -72q-71 -73 -71 -185t71 -184t175 -71zM650 1139q261 0 427 -161t166 -421t-166 -421t-427 -161t-428 161t-167 421t167 421t428 161z" />
    <glyph glyph-name="one.osf" horiz-adv-x="1050" 
d="M1038 336v-336h-1003v336h346v336l-293 -68l-74 334l607 176h143v-778h274z" />
    <glyph glyph-name="two.osf" horiz-adv-x="1130" 
d="M572 1139q230 -1 353 -107q124 -106 124 -274q0 -227 -283 -408l-23 -14h328v-336h-993v268l225 113q213 113 282 179t68 122q0 115 -151 115q-113 0 -391 -62l-62 324q293 80 523 80z" />
    <glyph glyph-name="three.osf" horiz-adv-x="1263" 
d="M1190 158q0 -223 -146 -347t-421 -124q-274 0 -574 114l98 291q262 -96 474 -96q98 0 156 43q59 43 59 109t-62 102q-62 35 -168 35h-252v151l314 348h-553v326h1022v-199l-322 -372l25 -4q162 -25 256 -126t94 -251z" />
    <glyph glyph-name="four.osf" horiz-adv-x="1357" 
d="M811 281v401l-344 -401h344zM1161 281h156v-281h-156v-279h-350v279h-770v238l770 876h350v-833z" />
    <glyph glyph-name="five.osf" horiz-adv-x="1251" 
d="M1186 162q0 -208 -152 -340q-152 -131 -431 -131t-537 116l88 304q258 -96 442 -97q109 0 167 40t58 114q0 139 -268 151l-391 19l76 776h880v-348h-555l-14 -148l110 -8q255 -16 391 -128t136 -320z" />
    <glyph glyph-name="six.osf" horiz-adv-x="1288" 
d="M643 287q104 0 169 60q65 61 65 159t-65 158t-170 61q-104 0 -168 -60q-64 -61 -64 -159t64 -159q65 -60 169 -60zM1239 494q0 -226 -164 -376t-432 -149q-268 0 -432 150t-164 391q0 168 109 307l428 576h440l-291 -381q231 -23 369 -158q138 -134 137 -360z" />
    <glyph glyph-name="seven.osf" horiz-adv-x="1185" 
d="M47 766v346h1106v-213l-506 -1180h-409l454 1047h-645z" />
    <glyph glyph-name="eight.osf" horiz-adv-x="1284" 
d="M641 283q80 0 130 44q50 45 50 111t-50 108t-130 42t-130 -42t-50 -109t50 -111t130 -43zM641 1137q-70 -1 -114 -41t-44 -102t43 -100t115 -38t115 38t43 100t-44 102t-114 41zM1229 383q0 -195 -156 -305t-431 -109q-275 0 -431 110t-156 304q0 240 256 342
q-197 88 -196 305q0 172 148 283q149 111 379 111t379 -110q148 -110 148 -284q1 -217 -198 -305q258 -102 258 -342z" />
    <glyph glyph-name="nine.osf" horiz-adv-x="1320" 
d="M418 608q0 -98 64 -158t170 -60q104 0 168 60t64 158t-64 158q-65 60 -169 61q-104 0 -169 -60q-64 -61 -64 -159zM651 1145q268 0 432 -150t164 -391q0 -135 -94 -291l-375 -592h-440l244 379q-240 18 -383 154t-143 364t163 378q164 150 432 149z" />
    <glyph glyph-name="zero.osf.zero" horiz-adv-x="1298" 
d="M649 301q102 0 173 72t71 184q0 66 -25 117l-338 -342q51 -31 119 -31zM649 813q-104 0 -175 -72t-71 -184q0 -61 21 -104l332 338q-52 22 -107 22zM650 1139q261 0 428 -161t167 -421t-167 -421t-428 -161t-428 161t-167 421t167 421t428 161z" />
    <glyph glyph-name="three.ss05" horiz-adv-x="1243" 
d="M627 -31q-261 0 -561 107l90 313q264 -88 442 -88q94 0 143 34t49 93t-48 89q-50 30 -130 30h-256v299h256q76 0 124 30t48 93q0 123 -184 123t-444 -88l-90 313q300 106 558 106q258 1 409 -113t151 -304q0 -220 -236 -310q121 -40 182 -112t62 -193q0 -195 -152 -309
t-413 -113z" />
    <glyph glyph-name="zero.tf" horiz-adv-x="1351" 
d="M676 317q116 1 190 105t74 274t-74 274t-190 105q-116 0 -191 -104q-73 -105 -73 -275t74 -274t190 -105zM676 1423q285 -1 463 -201t178 -526t-178 -526t-463 -201q-285 0 -462 201q-177 200 -177 526t177 526t462 201z" />
    <glyph glyph-name="one.tf" horiz-adv-x="1351" 
d="M1264 0h-1151v336h397v612l-289 -67l-76 336l609 176h141v-1057h369v-336z" />
    <glyph glyph-name="two.tf" horiz-adv-x="1351" 
d="M1243 0h-1102v268l434 377q117 97 158 153t41 109q0 160 -190 160q-141 0 -389 -76l-82 326q299 106 547 106t379 -127q132 -127 132 -327q-1 -150 -77 -269t-226 -241l-141 -115h516v-344z" />
    <glyph glyph-name="three.tf" horiz-adv-x="1351" 
d="M1247 444q0 -225 -145 -350q-144 -125 -416 -125t-573 115l100 305q262 -94 469 -94q90 0 140 39t50 100t-55 93t-149 32h-256v160l288 332h-522v342h1016v-207l-301 -361l25 -4q152 -25 240 -127t89 -250z" />
    <glyph glyph-name="four.tf" horiz-adv-x="1351" 
d="M791 524v437l-304 -437h304zM1143 524h153v-311h-153v-213h-352v213h-730v268l730 912h352v-869z" />
    <glyph glyph-name="five.tf" horiz-adv-x="1351" 
d="M1253 440q1 -209 -151 -340t-430 -131t-553 117l102 305q256 -92 436 -92q211 0 211 143q0 135 -219 146l-420 20l76 785h883v-361h-555l-15 -135l109 -6q256 -12 391 -127t135 -324z" />
    <glyph glyph-name="six.tf" horiz-adv-x="1351" 
d="M672 287q104 0 169 60q65 61 65 159t-65 159q-65 60 -170 60t-170 -60q-65 -61 -65 -159t66 -158t170 -61zM671 -31q-267 0 -431 150t-164 391q0 160 108 307l414 576h442l-280 -381q231 -23 369 -158q139 -134 139 -360t-165 -376t-432 -149z" />
    <glyph glyph-name="seven.tf" horiz-adv-x="1351" 
d="M96 1032v361h1168v-219l-607 -1174h-438l547 1032h-670z" />
    <glyph glyph-name="eight.tf" horiz-adv-x="1351" 
d="M682 283q80 0 130 44q50 45 50 111t-50 108t-130 42t-130 -42t-50 -109t50 -111t130 -43zM682 1137q-70 -1 -114 -41t-44 -102t43 -100t115 -38t115 38t43 100t-44 102t-114 41zM1270 383q0 -195 -156 -305t-431 -109q-275 0 -431 110t-156 304q0 240 256 342
q-199 88 -198 305q0 174 148 284t378 110t381 -112q150 -110 149 -282q1 -217 -198 -305q258 -102 258 -342z" />
    <glyph glyph-name="nine.tf" horiz-adv-x="1351" 
d="M449 887q0 -98 64 -159q65 -60 170 -60t170 60t65 158t-66 160q-66 60 -170 60t-169 -60q-64 -61 -64 -159zM683 1423q267 1 431 -149t164 -391q0 -139 -92 -291l-375 -592h-442l243 379q-238 19 -382 155t-144 364t165 376q165 149 432 149z" />
    <glyph glyph-name="zero.zero" horiz-adv-x="1488" 
d="M745 317q133 1 215 105t82 274q1 111 -38 195l-377 -543q57 -31 118 -31zM745 1075q-135 0 -217 -104t-82 -275q0 -94 29 -168l365 527q-48 20 -95 20zM745 1423q303 0 489 -199q185 -200 185 -528t-185 -528q-184 -200 -488 -199q-304 0 -490 200q-186 199 -186 527
t186 528t489 199z" />
    <glyph glyph-name="zero.dnom" horiz-adv-x="968" 
d="M305 417q0 -89 50 -145t130 -57q80 0 129 56q50 57 50 147t-50 145t-129 55q-80 0 -130 -56t-50 -145zM47 418q-1 196 119 314t318 118t318 -119t120 -313t-120 -315q-120 -119 -318 -119t-318 120t-119 314z" />
    <glyph glyph-name="one.dnom" horiz-adv-x="669" 
d="M635 231v-231h-582v231h162v308l-147 -35l-52 219l367 106h94v-598h158z" />
    <glyph glyph-name="two.dnom" horiz-adv-x="745" 
d="M711 0h-666v178l309 244q70 55 70 108q0 80 -94 80t-256 -49l-47 223q178 64 342 64q163 0 245 -77t82 -181t-43 -174t-139 -148l-55 -43h252v-225z" />
    <glyph glyph-name="three.dnom" horiz-adv-x="765" 
d="M739 274q0 -141 -90 -216q-90 -74 -266 -74t-363 69l70 203q174 -55 287 -55t112 67q0 55 -88 56h-200v104l170 174h-303v229h653v-137l-186 -196q100 -25 152 -83t52 -141z" />
    <glyph glyph-name="four.dnom" horiz-adv-x="851" 
d="M496 356v207l-179 -207h179zM737 356h105v-206h-105v-150h-241v150h-480v182l455 497h266v-473z" />
    <glyph glyph-name="five.dnom" horiz-adv-x="780" 
d="M754 272q0 -129 -96 -209q-96 -79 -278 -79q-181 0 -349 69l69 203q158 -57 277 -57q119 1 119 67t-117 72l-275 14l48 479h559v-229h-334l-8 -72l57 -2q328 -16 328 -256z" />
    <glyph glyph-name="six.dnom" horiz-adv-x="796" 
d="M398 190q54 0 88 33t34 84t-34 83t-88 32t-88 -32t-34 -84t34 -84t88 -32zM764 299q0 -137 -101 -228t-265 -91t-263 90q-100 90 -100 239q0 86 57 178l217 344h293l-139 -217q137 -16 219 -97t82 -218z" />
    <glyph glyph-name="seven.dnom" horiz-adv-x="727" 
d="M16 590v239h695v-147l-295 -682h-291l258 590h-367z" />
    <glyph glyph-name="eight.dnom" horiz-adv-x="776" 
d="M295 269q-1 -37 25 -59t68 -22t68 23t26 59t-26 58t-68 22t-68 -22t-25 -59zM305 588q0 -33 23 -52t59 -20q82 0 82 72q0 33 -23 53q-24 21 -60 21t-58 -20t-23 -54zM760 233q0 -115 -100 -183t-274 -66q-173 0 -271 68t-99 181q0 150 160 209q-119 52 -119 164
q1 112 93 178t238 66t236 -66t91 -178q0 -112 -117 -164q162 -59 162 -209z" />
    <glyph glyph-name="nine.dnom" horiz-adv-x="790" 
d="M272 524q0 -51 34 -83q34 -31 89 -31t89 32t34 82q0 51 -34 84t-89 33t-89 -33t-34 -84zM760 520q0 -89 -66 -188l-209 -332h-295l142 217q-137 16 -219 97q-82 80 -82 218t101 229t264 91q164 0 264 -91t100 -241z" />
    <glyph glyph-name="zero.numr" horiz-adv-x="968" 
d="M305 980q0 -90 50 -146t130 -56t129 56t50 147q0 90 -50 145q-50 56 -129 56q-80 0 -130 -56t-50 -146zM922 980q0 -194 -120 -314t-318 -119q-198 0 -318 120q-120 121 -119 315q-1 194 119 312t318 119q198 0 318 -119q120 -120 120 -314z" />
    <glyph glyph-name="one.numr" horiz-adv-x="669" 
d="M635 795v-232h-582v232h162v307l-147 -35l-52 219l367 107h94v-598h158z" />
    <glyph glyph-name="two.numr" horiz-adv-x="745" 
d="M711 565h-666v178l309 244q70 55 70 109q0 80 -94 80t-256 -50l-47 224q178 63 342 63q163 0 245 -77t82 -181t-43 -174t-139 -147l-55 -43h252v-226z" />
    <glyph glyph-name="three.numr" horiz-adv-x="765" 
d="M739 838q0 -141 -90 -216t-266 -75t-363 69l70 203q174 -55 287 -55t112 67q0 55 -88 56h-200v104l170 174h-303v230h653v-138l-186 -196q100 -25 152 -83t52 -140z" />
    <glyph glyph-name="four.numr" horiz-adv-x="851" 
d="M496 920v206l-179 -206h179zM737 920h105v-207h-105v-150h-241v150h-480v182l455 498h266v-473z" />
    <glyph glyph-name="five.numr" horiz-adv-x="780" 
d="M754 836q0 -129 -96 -209t-278 -80q-181 0 -349 69l69 203q158 -57 277 -57t119 66t-117 73l-275 14l48 480h559v-230h-334l-8 -71l57 -2q328 -16 328 -256z" />
    <glyph glyph-name="six.numr" horiz-adv-x="796" 
d="M276 869q0 -51 34 -83t88 -32t88 32t34 84q0 51 -34 83t-88 32t-88 -32t-34 -84zM764 862q0 -137 -101 -228t-265 -91t-263 90q-100 90 -100 239q0 86 57 179l217 344h293l-139 -217q137 -16 219 -98t82 -218z" />
    <glyph glyph-name="seven.numr" horiz-adv-x="727" 
d="M16 1153v240h695v-148l-295 -682h-291l258 590h-367z" />
    <glyph glyph-name="eight.numr" horiz-adv-x="776" 
d="M295 830q-1 -36 25 -58t68 -22t68 22t26 58t-26 59t-68 23t-68 -24q-26 -22 -25 -58zM305 1149q0 -33 23 -52t59 -20q82 0 82 72q0 33 -23 53q-24 20 -60 20t-58 -20t-23 -53zM760 795q0 -115 -100 -183t-274 -68q-173 0 -271 68t-99 183q0 150 160 209q-119 52 -119 164
q1 112 93 178t238 66t237 -66q90 -66 90 -178t-117 -164q162 -59 162 -209z" />
    <glyph glyph-name="nine.numr" horiz-adv-x="790" 
d="M272 1081q0 -51 34 -83t89 -32t89 32t34 83t-34 84t-89 33t-89 -33t-34 -84zM760 1077q0 -89 -66 -188l-209 -332h-295l142 217q-137 16 -219 97t-82 219t101 228q101 91 264 91q164 0 264 -91t100 -241z" />
    <glyph glyph-name="braceleft.case" horiz-adv-x="808" 
d="M614 1139v-162q0 -221 -217 -291q217 -70 217 -291v-162q0 -61 28 -79t106 -19v-377q-528 0 -529 441v229q0 115 -162 115v286q162 0 162 115v230q0 440 529 440v-377q-78 -1 -106 -19t-28 -79z" />
    <glyph glyph-name="braceright.case" horiz-adv-x="808" 
d="M195 977v162q0 61 -29 79t-105 19v377q528 0 529 -440v-230q0 -115 160 -115v-286q-160 0 -160 -115v-229q0 -440 -529 -441v377q76 1 105 19t29 79v162q0 221 217 291q-217 70 -217 291z" />
    <glyph glyph-name="bracketleft.case" horiz-adv-x="829" 
d="M487 158h295v-363h-692v1802h692v-362h-295v-1077z" />
    <glyph glyph-name="bracketright.case" horiz-adv-x="829" 
d="M41 1235v362h690v-1802h-690v363h295v1077h-295z" />
    <glyph glyph-name="parenleft.case" horiz-adv-x="790" 
d="M475 723q0 -180 35 -310t77 -213t144 -266l-319 -182q-180 240 -265 460q-84 220 -84 480q-1 260 85 486t264 452l319 -182q-141 -240 -199 -392t-57 -333z" />
    <glyph glyph-name="parenright.case" horiz-adv-x="770" 
d="M707 692q0 -260 -84 -480t-265 -460l-319 182q102 182 144 266t77 213q35 130 35 310q1 181 -57 333t-199 392l319 182q178 -227 264 -452q86 -226 85 -486z" />
    <glyph glyph-name="emdash.case" horiz-adv-x="2142" 
d="M1993 510h-1843v364h1843v-364z" />
    <glyph glyph-name="endash.case" horiz-adv-x="1236" 
d="M1126 510h-1017v364h1017v-364z" />
    <glyph glyph-name="hyphen.case" horiz-adv-x="1003" 
d="M850 506h-703v366h703v-366z" />
    <glyph glyph-name="guillemotleft.case" horiz-adv-x="1361" 
d="M1262 408l-232 -205l-409 471l409 473l234 -199l-220 -272zM694 408l-229 -205l-410 471l410 473l231 -199l-217 -272z" />
    <glyph glyph-name="guillemotright.case" horiz-adv-x="1361" 
d="M662 948l233 199l410 -473l-410 -471l-231 205l217 268zM96 948l232 199l409 -473l-409 -471l-232 205l217 268z" />
    <glyph glyph-name="guilsinglleft.case" horiz-adv-x="794" 
d="M694 408l-229 -205l-410 471l410 473l231 -199l-217 -272z" />
    <glyph glyph-name="guilsinglright.case" horiz-adv-x="794" 
d="M98 948l234 199l409 -473l-409 -471l-232 205l217 268z" />
    <glyph glyph-name="backslash.case" horiz-adv-x="1015" 
d="M426 1573l549 -1798h-385l-549 1798h385z" />
    <glyph glyph-name="bullet.case" horiz-adv-x="815" 
d="M411 334q-146 0 -247 96q-100 96 -100 240t100 239q100 97 246 97t249 -96t103 -240t-102 -240t-249 -96z" />
    <glyph glyph-name="exclamdown.case" horiz-adv-x="606" 
d="M121 924h381l33 -924h-447zM316 1425q90 0 152 -58t62 -145q0 -86 -62 -146t-152 -60t-151 59q-63 59 -63 147t62 145q62 58 152 58z" />
    <glyph glyph-name="periodcentered.case" horiz-adv-x="690" 
d="M344 473q-98 0 -167 65q-69 64 -69 160t69 161t167 65t168 -65t70 -161t-70 -160t-168 -65z" />
    <glyph glyph-name="questiondown.case" horiz-adv-x="1034" 
d="M412 432q0 -138 196 -137q100 0 334 37l51 -314q-235 -49 -413 -49q-242 0 -389 119q-146 119 -146 306q0 186 113 312t295 125h8l-2 107h350l39 -365h-236q-94 1 -147 -37t-53 -104zM624 1016q-89 0 -153 59q-63 59 -63 147t63 145q63 58 153 58t151 -58q63 -58 63 -145
q0 -86 -62 -146t-152 -60z" />
    <glyph glyph-name="slash.case" horiz-adv-x="1005" 
d="M426 -193h-385l539 1766h385z" />
    <glyph glyph-name="florin.tf" horiz-adv-x="1351" 
d="M1038 1096q-58 0 -86 -36q-29 -36 -41 -120l-6 -45h303v-352h-348l-16 -119q-59 -455 -426 -455q-147 0 -328 39l37 303q139 -14 195 -14t86 36q29 36 41 120l12 90h-228v352h273l10 74q59 455 426 454q147 0 328 -39l-37 -303q-137 15 -195 15z" />
    <glyph glyph-name="cent.tf" horiz-adv-x="1351" 
d="M915 -213h-294v219q-195 41 -310 179t-115 339t115 340t310 180v224h294v-217q115 -16 226 -52l-49 -290q-199 31 -296 31q-96 0 -158 -61q-62 -59 -62 -155t60 -153q62 -57 170 -57t300 28l35 -291q-111 -35 -226 -51v-213z" />
    <glyph glyph-name="dollar.tf" horiz-adv-x="1351" 
d="M852 -213h-295v190q-227 23 -512 117l92 348q336 -117 527 -123q90 -2 132 24t42 71t-66 70q-18 6 -32 12t-39 11q-26 5 -42 9t-47 10q-286 55 -401 152q-115 96 -115 284t121 304q121 117 340 143v229h295v-229q231 -23 424 -84l-78 -352q-330 96 -490 96t-159 -90
q0 -61 121 -90q25 -6 43 -10q18 -3 50 -11q33 -8 99 -22q169 -37 292 -122q142 -96 142 -291t-116 -310t-328 -143v-193z" />
    <glyph glyph-name="Euro.tf" horiz-adv-x="1351" 
d="M856 352q111 0 412 37l43 -350q-250 -70 -499 -70t-418 133t-222 373h-129v172h107l-3 51v43h-104v172h131q60 233 232 371t418 139q246 0 493 -69l-57 -348q-264 43 -390 43q-158 0 -235 -136h375l-43 -172h-381l-2 -43q0 -35 2 -51h362l-43 -172h-266q76 -123 217 -123
z" />
    <glyph glyph-name="sterling.tf" horiz-adv-x="1351" 
d="M1255 0h-1138v338h108v203h-108v282h108v156q1 195 147 315t388 119q186 0 411 -51l-49 -313q-252 39 -319 38q-188 0 -189 -165v-99h351v-282h-351v-203h641v-338z" />
    <glyph glyph-name="yen.tf" horiz-adv-x="1351" 
d="M1262 598v-203h-379v-84h379v-202h-377v-109h-414v109h-383v202h381v84h-381v203h299l-373 795h455l205 -463l207 463h454l-370 -795h297z" />
    <glyph glyph-name="arrowdown.ss06" horiz-adv-x="1431" 
d="M641 965h150v-314l100 101l104 -103l-280 -280l-281 280l107 103l100 -101v314zM1163 689q0 183 -132 315t-315 133q-184 0 -316 -132q-132 -131 -132 -315t132 -316t316 -132q183 0 315 132t132 315zM717 72q-256 0 -437 181t-182 437q0 256 182 436t436 180
q255 0 436 -180t181 -436t-180 -437t-436 -181z" />
    <glyph glyph-name="arrowdownleft.ss06" horiz-adv-x="1433" 
d="M489 463v397l148 -2v-141l221 221l107 -107l-222 -221h142l2 -145zM717 1137q-187 0 -317 -130q-130 -131 -130 -317t130 -316t316 -130t317 130q130 130 130 316t-130 316t-316 131zM1335 690q0 -256 -181 -436t-437 -181t-437 180t-182 437q0 256 182 436t438 180
q255 0 436 -180t181 -436z" />
    <glyph glyph-name="arrowdownright.ss06" horiz-adv-x="1431" 
d="M549 610h141l-221 221l106 107l222 -221v141l147 2v-397l-397 2zM1163 690q0 186 -130 316t-316 131q-187 0 -317 -130q-130 -131 -130 -317t130 -316t316 -130t317 130q130 130 130 316zM1335 690q0 -256 -181 -437t-437 -180t-438 181q-180 180 -181 436q0 256 181 436
q182 180 437 180t437 -180t182 -436z" />
    <glyph glyph-name="arrowleft.ss06" horiz-adv-x="1431" 
d="M991 764v-150h-313l100 -100l-102 -104l-281 280l281 281l102 -107l-100 -100h313zM268 689q0 -183 132 -315t316 -132t315 132q132 132 132 315t-132 315t-315 133q-183 0 -316 -132q-132 -133 -132 -316zM98 688q0 256 182 437t437 181q256 0 436 -180
q180 -182 180 -437t-181 -436t-436 -181q-254 0 -436 180t-182 436z" />
    <glyph glyph-name="arrowright.ss06" horiz-adv-x="1431" 
d="M440 614v150h314l-101 100l103 107l280 -281l-280 -280l-103 104l101 100h-314zM1163 689q0 183 -132 315t-315 133q-184 0 -316 -132q-132 -131 -132 -315t132 -316t316 -132t315 132q132 132 132 315zM1333 688q0 -256 -181 -436t-437 -180t-436 181q-181 181 -181 436
t180 436t437 181q256 0 437 -180q181 -182 181 -438z" />
    <glyph glyph-name="arrowup.ss06" horiz-adv-x="1431" 
d="M791 414h-150v313l-100 -100l-107 102l281 281l280 -281l-104 -102l-100 100v-313zM1163 689q0 183 -132 315t-315 133q-184 0 -316 -132q-132 -131 -132 -315t132 -316t316 -132t315 132q132 132 132 315zM717 1307q256 1 436 -181t180 -437t-181 -436t-436 -181
t-436 180t-182 436q0 256 182 438t437 181z" />
    <glyph glyph-name="arrowupleft.ss06" horiz-adv-x="1433" 
d="M885 770h-142l222 -221l-107 -107l-221 222v-142l-148 -2v398l398 -3zM1163 690q0 186 -130 316q-131 130 -317 131q-186 0 -316 -130q-130 -131 -130 -317t130 -316t316 -130t317 130q130 130 130 316zM1335 690q0 -256 -181 -436t-436 -180t-437 180t-183 436
q1 256 182 437t437 181t437 -182q181 -180 181 -436z" />
    <glyph glyph-name="arrowupright.ss06" horiz-adv-x="1431" 
d="M944 918v-398l-147 2v142l-222 -222l-106 107l221 221h-141l-2 145zM717 1137q-187 0 -317 -130q-130 -131 -130 -317t130 -316t316 -130t317 130q130 130 130 316t-130 317q-130 130 -316 130zM1335 690q0 -256 -182 -436t-437 -180t-437 180q-180 180 -181 436
q0 256 181 436q182 180 438 181t437 -180t181 -437z" />
    <glyph glyph-name="arrowdown.ss08" horiz-adv-x="1431" 
d="M791 965h-150v-314l-100 101l-107 -103l281 -280l280 280l-104 103l-100 -101v314zM717 72q-256 0 -437 181t-182 437q0 256 182 436t436 180q255 0 436 -180t181 -436t-180 -437t-436 -181z" />
    <glyph glyph-name="arrowdownleft.ss08" horiz-adv-x="1433" 
d="M885 610h-142l222 221l-107 107l-221 -221v141l-148 2v-397l398 2zM1335 690q0 -256 -181 -436t-437 -181t-437 180t-182 437q0 256 182 436t438 180q255 0 436 -180t181 -436z" />
    <glyph glyph-name="arrowdownright.ss08" horiz-adv-x="1431" 
d="M944 463v397l-147 -2v-141l-222 221l-106 -107l221 -221h-141l-2 -145zM1335 690q0 -256 -181 -437t-437 -180t-438 181q-180 180 -181 436q0 256 181 436q182 180 437 180t437 -180t182 -436z" />
    <glyph glyph-name="arrowleft.ss08" horiz-adv-x="1431" 
d="M991 614v150h-313l100 100l-102 107l-281 -281l281 -280l102 104l-100 100h313zM98 688q0 256 182 437t437 181q256 0 436 -180q180 -182 180 -437t-181 -436t-436 -181q-254 0 -436 180t-182 436z" />
    <glyph glyph-name="arrowright.ss08" horiz-adv-x="1431" 
d="M440 764v-150h314l-101 -100l103 -104l280 280l-280 281l-103 -107l101 -100h-314zM1333 688q0 -256 -181 -436t-437 -180t-436 181q-181 181 -181 436t180 436t437 181q256 0 437 -180q181 -182 181 -438z" />
    <glyph glyph-name="arrowup.ss08" horiz-adv-x="1431" 
d="M641 414h150v313l100 -100l104 102l-280 281l-281 -281l107 -102l100 100v-313zM717 1307q256 1 436 -181t180 -437t-181 -436t-436 -181t-436 180t-182 436q0 256 182 438t437 181z" />
    <glyph glyph-name="arrowupleft.ss08" horiz-adv-x="1433" 
d="M489 918v-398l148 2v142l221 -222l107 107l-222 221h142l2 145zM1335 690q0 -256 -181 -436t-436 -180t-437 180t-183 436q1 256 182 437t437 181t437 -182q181 -180 181 -436z" />
    <glyph glyph-name="arrowupright.ss08" horiz-adv-x="1431" 
d="M549 770h141l-221 -221l106 -107l222 222v-142l147 -2v398l-397 -3zM1335 690q0 -256 -182 -436t-437 -180t-437 180q-180 180 -181 436q0 256 181 436q182 180 438 181t437 -180t181 -437z" />
    <glyph glyph-name="arrowdown.ss09" horiz-adv-x="1433" 
d="M1307 809l-590 -592l-590 592l225 225l365 -366l364 366z" />
    <glyph glyph-name="arrowup.ss09" horiz-adv-x="1433" 
d="M1081 266l-364 367l-365 -367l-225 226l590 591l590 -591z" />
    <glyph glyph-name="arrowleft.ss09" horiz-adv-x="1126" 
d="M590 690l364 -364l-225 -226l-590 590l592 590l225 -225z" />
    <glyph glyph-name="arrowright.ss09" horiz-adv-x="1126" 
d="M987 690l-590 -590l-225 226l365 364l-367 365l225 225z" />
    <glyph glyph-name="registered.ss07" 
d="M571 936h58q23 0 38 15t15 34q0 51 -55 51l-56 -2v-98zM629 1161q94 0 148 -47t54 -131t-71 -133l100 -160h-174l-72 125h-43v-125h-147v465q111 6 205 6zM615 1294q-165 0 -275 -110t-109 -273q0 -163 110 -273q111 -110 275 -110t275 110t111 274t-111 273t-276 109z
M614 1423q225 0 375 -146q150 -145 150 -365t-150 -365t-375 -145q-224 0 -374 144q-150 146 -150 365t150 365t374 147z" />
    <glyph glyph-name="at.case" horiz-adv-x="2029" 
d="M978 877q-76 -1 -126 -57q-51 -56 -51 -147t52 -147t131 -55q79 0 159 68v329q-89 9 -165 9zM1589 375q255 0 252 307q0 352 -222 568q-221 216 -573 216t-583 -225t-231 -561t209 -559q210 -223 548 -225q207 0 555 77l25 -123q-344 -86 -580 -86q-399 0 -647 260
t-248 656q0 395 270 656t682 261q414 -1 673 -251t259 -664q0 -250 -135 -378t-361 -128t-296 123q-129 -125 -294 -125t-307 140t-143 380q14 207 142 337t336 130q156 0 585 -45v-596q-1 -80 17 -112t67 -33z" />
    <glyph glyph-name="bar.case" horiz-adv-x="694" 
d="M516 1628v-1880h-338v1880h338z" />
    <glyph glyph-name="brokenbar.case" horiz-adv-x="694" 
d="M516 -254h-338v836h338v-836zM516 791h-338v835h338v-835z" />
    <glyph glyph-name="caron.alt" 
d="M807 1393l-80 -416h-266l10 416h336z" />
    <glyph glyph-name="acute.case" 
d="M1110 1823l-287 -314h-377l197 314h467z" />
    <glyph glyph-name="breve.case" 
d="M717 1860h287q0 -170 -108 -268t-282 -97q-174 0 -282 97t-107 268h285q0 -45 30 -75t74 -30t74 30q29 30 29 75z" />
    <glyph glyph-name="caron.case" 
d="M784 1499h-342l-262 322h344l90 -117l88 117h345z" />
    <glyph glyph-name="circumflex.case" 
d="M614 1624l-90 -115h-344l262 314h342l263 -314h-345z" />
    <glyph glyph-name="dieresis.case" 
d="M863 1491q-87 0 -148 56q-61 57 -61 143t60 143q62 57 149 57t147 -57t61 -142q0 -85 -60 -143q-61 -57 -148 -57zM365 1491q-88 0 -149 56q-60 57 -60 143t60 143t148 57t148 -57q61 -57 61 -143t-60 -142t-148 -57z" />
    <glyph glyph-name="dotaccent.case" 
d="M610 1491q-84 0 -142 55t-58 136q0 80 58 136t142 56t142 -55t59 -137q-1 -82 -59 -136q-58 -55 -142 -55z" />
    <glyph glyph-name="grave.case" 
d="M803 1509h-373l-287 314h469z" />
    <glyph glyph-name="hungarumlaut.case" 
d="M1055 1837l-121 -315h-268l69 315h320zM674 1837l-123 -315h-268l71 315h320z" />
    <glyph glyph-name="macron.case" 
d="M969 1817v-287h-709v287h709z" />
    <glyph glyph-name="ring.case" 
d="M612 1642q45 0 72 27t27 70t-27 69t-72 27q-46 0 -72 -27q-26 -28 -26 -70t26 -69t72 -27zM612 2007q127 0 208 -74q81 -73 81 -193t-81 -195t-208 -75t-208 75q-80 75 -80 195t80 194t208 73z" />
    <glyph glyph-name="tilde.case" 
d="M780 1849h285q0 -123 -46 -205q-82 -147 -255 -140q-74 3 -135 38l-58 35q-77 38 -77 -49h-285q0 121 45 203q79 144 256 139q74 -2 135 -37l57 -35q78 -45 78 51z" />
    </font>
</defs>
</svg>
