<?xml version="1.0" standalone="no"?>
<!DOCTYPE svg PUBLIC "-//W3C//DTD SVG 1.1//EN" "http://www.w3.org/Graphics/SVG/1.1/DTD/svg11.dtd" >
<svg xmlns="http://www.w3.org/2000/svg">
<metadata>
Created by FontPrep 20130207 at Mon Nov 21 12:25:22 2016
 By Rene Bieder
Copyright (c) 2013 by Rene' Bieder. All rights reserved.
</metadata>
<defs>
<font id="5675de437b1e75e57dcf192fc8536fd3" horiz-adv-x='1024' >
  <font-face 
    font-family="Canaro-BoldItalic"
    font-weight="700"
    font-style="italic"
    font-stretch="normal"
    units-per-em="2048"
    panose-1="0 0 8 0 0 0 0 0 0 0"
    ascent="1638"
    descent="-410"
    x-height="993"
    cap-height="1393"
    bbox="-246 -592 3000 1974"
    underline-thickness="102"
    underline-position="-102"
    slope="-10"
    unicode-range="U+0020-FB02"
  />
<missing-glyph horiz-adv-x="1781" 
d="M348 143h977l-977 977v-977zM1434 1249h-985l985 -985v985zM1577 1393v-1393h-1372v1393h1372z" />
    <glyph glyph-name="fi" unicode="fi" horiz-adv-x="1386" 
d="M933 1565q243 0 427 -183l-203 -215q-117 104 -256 105q-236 0 -272 -217l-13 -62h773l-175 -993h-333l123 696h-441l-121 -696h-331l120 696h-196l53 297h197l12 74q41 229 217 363t419 135z" />
    <glyph glyph-name="fl" unicode="fl" horiz-adv-x="1443" 
d="M885 1272q-219 0 -256 -209l-13 -70h322l-51 -297h-322l-125 -696h-331l124 696h-196l51 297h197l16 94q41 229 198 353t390 125q115 0 282 -62l318 -16l-262 -1487h-334l217 1225q-119 47 -225 47z" />
    <glyph glyph-name="f_f" unicode="ff" horiz-adv-x="1656" 
d="M901 1272q-236 0 -272 -217l-13 -62h480l18 107q2 14 19 86q-105 86 -232 86zM1616 1565q86 0 207 -23l-86 -270q-51 8 -109 8q-150 0 -182 -176l-19 -111h308l-52 -297h-309l-121 -696h-331l120 696h-479l-121 -696h-331l120 696h-196l53 297h197l12 74q41 229 216 363
t395 135q220 0 380 -119q135 119 328 119z" />
    <glyph glyph-name="f_f_i" unicode="ffi" horiz-adv-x="2197" 
d="M901 1272q-236 0 -272 -217l-13 -62h480l12 74q12 63 33 113q-111 92 -240 92zM918 1565q228 0 399 -142q170 141 420 141t434 -182l-203 -215q-117 104 -256 105q-236 0 -272 -217l-13 -62h773l-175 -993h-333l123 696h-441l-121 -696h-331l120 696h-479l-121 -696h-331
l120 696h-196l53 297h197l12 74q41 229 217 363t404 135z" />
    <glyph glyph-name="f_f_l" unicode="ffl" horiz-adv-x="2234" 
d="M912 1272q-245 0 -285 -217l-11 -62h480l14 82q14 72 27 107q-103 90 -225 90zM1696 1272q-219 0 -256 -209l-13 -70h322l-51 -297h-322l-125 -696h-331l124 696h-479l-125 -696h-331l124 696h-196l51 297h197l14 74q39 227 215 363t398 135q222 0 391 -129
q154 129 397 129q119 0 287 -64l292 -14l-262 -1487h-331l217 1233q-106 39 -207 39z" />
    <glyph glyph-name=".notdef" horiz-adv-x="1781" 
d="M348 143h977l-977 977v-977zM1434 1249h-985l985 -985v985zM1577 1393v-1393h-1372v1393h1372z" />
    <glyph glyph-name=".null" horiz-adv-x="0" 
 />
    <glyph glyph-name="nonmarkingreturn" horiz-adv-x="681" 
 />
    <glyph glyph-name="space" unicode=" " horiz-adv-x="423" 
 />
    <glyph glyph-name="exclam" unicode="!" horiz-adv-x="567" 
d="M432 153q0 -79 -58 -135t-139 -55q-81 0 -139 55q-57 54 -57 134t57 134q56 54 138 54t140 -54t58 -133zM627 1393l-193 -957h-323l143 957h373z" />
    <glyph glyph-name="quotedbl" unicode="&#x22;" horiz-adv-x="899" 
d="M1004 1573l-160 -547h-269l97 547h332zM629 1573l-162 -547h-266l96 547h332z" />
    <glyph glyph-name="numbersign" unicode="#" horiz-adv-x="1624" 
d="M756 782l-103 -204h273l100 204h-270zM1251 578h222l-50 -279h-307l-147 -299h-326l148 299h-273l-147 -299h-324l148 299h-175l50 279h260l100 204h-211l47 279h299l164 334h324l-162 -334h272l162 334h326l-164 -334h182l-47 -279h-270z" />
    <glyph glyph-name="dollar" unicode="$" horiz-adv-x="1363" 
d="M1274 471q0 -215 -146 -344t-403 -152l-45 -241h-281l47 246q-233 27 -438 110l131 305q295 -119 510 -119q119 -2 181 34t62 90t-24 72q-26 20 -44 30t-50 18q-34 8 -56 14t-65 15q-259 48 -356 131q-98 82 -98 231q0 197 137 328t373 164l41 233h268l-41 -229
q244 -20 418 -86l-127 -299q-289 90 -469 90q-101 0 -159 -35t-58 -98q0 -38 19 -55q31 -27 76 -40l50 -15q62 -15 137 -31q210 -49 310 -124t100 -243z" />
    <glyph glyph-name="percent" unicode="%" horiz-adv-x="2242" 
d="M1639 184q81 0 151 66t70 150t-46 128t-126 45q-80 -1 -149 -65t-69 -149t44 -130t125 -45zM1735 791q158 -1 256 -95t98 -247q0 -209 -146 -345t-354 -135q-158 0 -254 94t-96 250q1 205 147 341t349 137zM844 1035q0 85 -45 129t-126 44t-150 -66t-69 -150
q0 -85 46 -129q44 -44 125 -44t150 66t69 150zM627 0h-166l1210 1393h166zM721 1423q158 0 255 -94t97 -248q0 -207 -146 -343t-352 -136q-159 0 -255 94t-97 250q1 207 147 342t351 135z" />
    <glyph glyph-name="ampersand" unicode="&#x26;" horiz-adv-x="1312" 
d="M631 588q-139 0 -214 -48t-75 -128t56 -120q56 -42 158 -42t175 51q74 51 88 135l27 152h-215zM514 -31q-236 -1 -364 101q-129 102 -130 270q0 279 287 385q-100 63 -100 219q0 209 167 344t431 135q168 0 317 -45l-108 -270q-150 35 -257 35t-172 -50t-65 -139
q0 -57 35 -84t121 -26h651l-45 -256h-123l-26 -152q-37 -211 -210 -339t-409 -128z" />
    <glyph glyph-name="quotesingle" unicode="'" horiz-adv-x="524" 
d="M629 1573l-162 -547h-266l96 547h332z" />
    <glyph glyph-name="parenleft" unicode="(" horiz-adv-x="763" 
d="M647 1614l227 -131q-8 -12 -59 -88t-59 -90t-51 -81t-53 -87q-10 -19 -46 -81q-35 -62 -46 -94t-51 -126t-71 -266q-57 -319 -24 -531t114 -442l-268 -132q-256 494 -145 1119q100 563 532 1030z" />
    <glyph glyph-name="parenright" unicode=")" horiz-adv-x="749" 
d="M131 -535l-229 132q42 70 92 140q49 70 96 145t58 100q12 26 48 92t48 106t40 118q28 77 58 231q73 387 -26 745q-26 94 -66 209l268 131q251 -490 146 -1118q-101 -560 -533 -1031z" />
    <glyph glyph-name="asterisk" unicode="*" horiz-adv-x="837" 
d="M846 903l-109 -131l-162 139l-34 -194l-170 31l35 194l-199 -78l-60 162l205 78l-164 143l109 133l162 -139l33 189l172 -31l-35 -189l198 76l58 -162l-203 -77z" />
    <glyph glyph-name="plus" unicode="+" horiz-adv-x="1370" 
d="M829 541l-63 -355h-272l63 355h-350l45 262h350l64 356h272l-64 -356h351l-45 -262h-351z" />
    <glyph glyph-name="comma" unicode="," horiz-adv-x="669" 
d="M61 172q1 88 63 147t152 59t154 -60t64 -132t-34 -139q-34 -66 -184 -313h-215l123 266q-123 51 -123 172z" />
    <glyph glyph-name="hyphen" unicode="-" horiz-adv-x="1073" 
d="M854 371h-678l55 315h678z" />
    <glyph glyph-name="period" unicode="." horiz-adv-x="669" 
d="M276 -37q-90 1 -152 61t-63 148q1 88 63 147t152 59t154 -60t64 -147t-64 -147t-154 -61z" />
    <glyph glyph-name="slash" unicode="/" horiz-adv-x="1075" 
d="M180 -557h-338l1026 2130h338z" />
    <glyph glyph-name="zero" unicode="0" horiz-adv-x="1511" 
d="M711 270q180 0 302 148t122 370q0 152 -74 243t-201 91q-180 0 -302 -147t-122 -371q0 -152 74 -243t201 -91zM915 1423q256 0 404 -159q147 -160 147 -430q0 -375 -230 -620t-579 -245q-258 0 -406 161t-149 429q0 375 232 619t581 245z" />
    <glyph glyph-name="one" unicode="1" horiz-adv-x="899" 
d="M647 0h-332l181 1010l-324 -76l-22 285l634 174h109z" />
    <glyph glyph-name="two" unicode="2" horiz-adv-x="1198" 
d="M742 1423q220 0 335 -105t115 -272q0 -166 -100 -300t-306 -297l-194 -164h489l-51 -285h-1014l39 225l535 426q143 111 194 172t52 144q0 149 -172 149t-410 -76l-23 285q291 98 511 98z" />
    <glyph glyph-name="three" unicode="3" horiz-adv-x="1245" 
d="M1159 494q0 -236 -168 -380t-464 -144t-527 114l145 262q215 -96 418 -96q133 0 205 52t72 142q0 54 -60 90t-164 35h-262l25 144l385 377h-526l51 303h977l-33 -189l-387 -389l16 -2q135 -8 216 -99t81 -220z" />
    <glyph glyph-name="four" unicode="4" horiz-adv-x="1368" 
d="M457 498h389l88 485zM1155 498h162l-49 -269h-160l-41 -229h-309l41 229h-781l43 238l943 926h309z" />
    <glyph glyph-name="five" unicode="5" horiz-adv-x="1263" 
d="M1178 512q0 -233 -178 -388t-464 -155q-288 0 -522 117l144 266q226 -98 384 -98t234 57t76 148q0 133 -231 145l-404 21l203 768h858l-57 -310h-564l-51 -198l121 -6q215 -11 333 -107t118 -260z" />
    <glyph glyph-name="six" unicode="6" horiz-adv-x="1294" 
d="M618 246q120 0 211 84t91 196t-62 167q-62 57 -182 57q-121 0 -211 -83t-90 -193t61 -170q62 -58 182 -58zM1237 582q0 -266 -195 -440t-487 -173q-229 0 -364 122q-134 122 -134 325t162 383l500 594h393l-330 -389q211 -10 333 -123t122 -299z" />
    <glyph glyph-name="seven" unicode="7" horiz-adv-x="1175" 
d="M1249 1198l-721 -1198h-372l661 1083h-645l55 310h1057z" />
    <glyph glyph-name="eight" unicode="8" horiz-adv-x="1333" 
d="M401 404q1 -74 59 -118q58 -42 170 -42t191 57q80 57 80 145q0 60 -60 108t-167 48t-190 -62t-83 -136zM543 987q0 -153 190 -151q94 0 163 55t69 143q-1 57 -51 95t-142 38t-160 -53t-69 -127zM1247 433q0 -204 -187 -334t-491 -130q-246 -1 -387 97t-141 262
q0 276 334 395q-160 78 -160 250q0 199 175 325q174 126 412 125q238 0 367 -94t129 -250q0 -247 -266 -356q215 -86 215 -290z" />
    <glyph glyph-name="nine" unicode="9" horiz-adv-x="1320" 
d="M451 850q0 -94 61 -150t182 -57q121 0 211 83q90 84 90 194t-62 168t-182 59q-120 0 -210 -84t-90 -213zM815 1423q229 0 363 -121q133 -122 133 -314t-162 -394l-471 -594h-385l311 387q-219 8 -346 122t-127 302q-1 266 195 439t489 173z" />
    <glyph glyph-name="colon" unicode=":" horiz-adv-x="673" 
d="M276 -37q-90 1 -152 61t-63 148q1 88 63 147t152 59t154 -60t64 -147t-64 -147t-154 -61zM395 612q-90 0 -152 60t-63 147q0 87 62 147t153 60t153 -59t62 -147t-62 -148t-153 -60z" />
    <glyph glyph-name="semicolon" unicode=";" horiz-adv-x="681" 
d="M61 172q-1 86 63 146t153 60t153 -60t64 -132t-34 -139q-34 -66 -184 -313h-215l125 266q-125 51 -125 172zM403 612q-90 0 -152 60t-63 147q0 87 62 147t153 60t153 -59t62 -147t-62 -148t-153 -60z" />
    <glyph glyph-name="less" unicode="&#x3c;" horiz-adv-x="1081" 
d="M86 477l53 301l928 389l-49 -301l-572 -239l484 -238l-49 -301z" />
    <glyph glyph-name="equal" unicode="=" horiz-adv-x="1382" 
d="M1153 315h-987l47 263h987zM1229 739h-987l45 262h987z" />
    <glyph glyph-name="greater" unicode="&#x3e;" horiz-adv-x="1083" 
d="M1040 778l-53 -301l-928 -389l50 301l573 240l-485 237l49 301z" />
    <glyph glyph-name="question" unicode="?" horiz-adv-x="1036" 
d="M325 340q81 0 138 -54t57 -133t-57 -135t-138 -55q-81 0 -139 55q-57 54 -57 134t57 134q58 54 139 54zM618 1423q199 0 319 -100t120 -268q1 -203 -147 -351t-361 -149h-14l-37 -125h-295l65 367h215q113 0 183 57t69 152q0 63 -47 100t-140 37t-351 -37l4 268
q218 49 417 49z" />
    <glyph glyph-name="at" unicode="@" horiz-adv-x="2037" 
d="M743 456q0 -210 187 -210q92 0 203 84q8 31 10 53l59 336q-94 12 -186 12q-137 0 -205 -85q-68 -86 -68 -190zM1182 1413q366 0 582 -213t216 -544q0 -332 -166 -498t-423 -166q-211 0 -256 123q-156 -125 -335 -125t-286 139q-106 139 -65 373q49 219 194 349t379 130
q170 -1 321 -21q152 -20 205 -26l-106 -608q-16 -82 -3 -114t70 -32t109 16t106 61q53 44 85 138t32 230q0 317 -180 487t-498 170q-250 0 -471 -124t-355 -341t-134 -481t170 -444t469 -179q205 0 563 76l2 -123q-350 -86 -588 -86q-352 0 -554 212t-202 550q0 297 155 545
t412 387t552 139z" />
    <glyph glyph-name="A" unicode="A" horiz-adv-x="1587" 
d="M887 991l-281 -469h389zM438 231l-137 -231h-377l869 1401h319l373 -1401h-367l-55 231h-625z" />
    <glyph glyph-name="B" unicode="B" horiz-adv-x="1370" 
d="M442 272l244 -6q127 0 196 47t68 136q0 59 -47 91t-129 31h-278zM811 1122h-219l-53 -307h243q98 0 162 52q63 52 64 134q0 121 -197 121zM878 1405q236 0 352 -83t116 -225t-86 -249q-87 -106 -224 -143q115 -27 182 -104t66 -177q0 -201 -166 -321q-166 -119 -444 -119
t-625 16l244 1393q349 12 585 12z" />
    <glyph glyph-name="C" unicode="C" horiz-adv-x="1443" 
d="M492 631q0 -145 101 -235t257 -89q156 0 448 55l7 -309q-287 -84 -525 -84q-299 0 -482 166t-183 438q0 383 253 617t666 233q213 1 500 -73l-113 -308q-276 55 -401 56q-244 0 -386 -128t-142 -339z" />
    <glyph glyph-name="D" unicode="D" horiz-adv-x="1497" 
d="M662 293q178 0 308 137t130 344q0 146 -88 236t-224 90t-200 -4l-139 -799q70 -4 213 -4zM817 1409q293 0 470 -162t177 -428q0 -362 -251 -599t-613 -236q-248 0 -551 16l246 1393q307 16 522 16z" />
    <glyph glyph-name="E" unicode="E" horiz-adv-x="1282" 
d="M543 844h616l-53 -295h-614l-46 -248h709l-53 -301h-1053l246 1393h1053l-54 -301h-706z" />
    <glyph glyph-name="F" unicode="F" horiz-adv-x="1204" 
d="M532 786h586l-53 -313h-586l-84 -473h-346l246 1393h1024l-55 -306h-678z" />
    <glyph glyph-name="G" unicode="G" horiz-adv-x="1613" 
d="M746 -31q-272 0 -451 170q-178 170 -178 436q0 381 243 615q244 233 641 233q262 0 535 -71l-113 -301q-283 49 -446 49q-221 0 -356 -130t-136 -341q-1 -150 93 -243t240 -93t356 47l34 201h-442l49 282h739l-124 -719q-412 -135 -684 -135z" />
    <glyph glyph-name="H" unicode="H" horiz-adv-x="1544" 
d="M1321 0h-346l92 522h-582l-90 -522h-346l246 1393h346l-98 -559h579l99 559h346z" />
    <glyph glyph-name="I" unicode="I" horiz-adv-x="612" 
d="M637 1393l-246 -1393h-346l246 1393h346z" />
    <glyph glyph-name="J" unicode="J" horiz-adv-x="1144" 
d="M403 -31q-219 0 -462 88l116 301q211 -55 379 -55q98 0 166 72t90 192l146 826h350l-144 -818q-53 -295 -216 -451t-425 -155z" />
    <glyph glyph-name="K" unicode="K" horiz-adv-x="1480" 
d="M477 469l-82 -469h-346l246 1393h346l-104 -588h63l559 588h424l-625 -658l406 -735h-403l-252 469h-232z" />
    <glyph glyph-name="L" unicode="L" horiz-adv-x="1218" 
d="M1077 0h-1028l246 1393h346l-192 -1088h681z" />
    <glyph glyph-name="M" unicode="M" horiz-adv-x="1910" 
d="M1450 672l-453 -672h-254l-213 672l-165 -672h-336l319 1393h305l287 -942l629 942h311l-174 -1393h-336z" />
    <glyph glyph-name="N" unicode="N" horiz-adv-x="1581" 
d="M1604 1393l-246 -1393h-299l-518 809l-146 -809h-346l246 1393h307l508 -815l147 815h347z" />
    <glyph glyph-name="O" unicode="O" horiz-adv-x="1675" 
d="M805 287q197 0 334 137t137 346q0 152 -89 243t-237 91q-197 0 -334 -136t-137 -345q-1 -152 89 -244t237 -92zM1006 1423q290 0 462 -166t172 -440q0 -369 -258 -609t-634 -239q-289 0 -461 166t-172 440q0 369 257 609t634 239z" />
    <glyph glyph-name="P" unicode="P" horiz-adv-x="1331" 
d="M725 678q123 0 203 70t80 169t-56 145t-141 46q-84 0 -223 -4l-76 -426h213zM852 1409q228 0 368 -114t140 -314q0 -270 -198 -437t-509 -167h-192l-68 -377h-346l246 1393q331 16 559 16z" />
    <glyph glyph-name="Q" unicode="Q" horiz-adv-x="1675" 
d="M479 623q0 -152 89 -244t237 -92q197 0 334 137t137 346q0 152 -89 243t-237 91q-197 0 -334 -136t-137 -345zM1640 825q0 -266 -134 -468t-359 -304l258 -391h-408l-206 307h-43q-289 0 -461 166t-172 440q0 369 257 609t634 239q290 0 462 -166t172 -432z" />
    <glyph glyph-name="R" unicode="R" horiz-adv-x="1390" 
d="M737 690q119 0 199 72t80 180q0 166 -219 166l-207 -2l-74 -416h221zM842 1405q256 -1 390 -107t134 -286t-87 -313q-87 -132 -239 -212l248 -487h-409l-187 399h-227l-70 -399h-346l246 1393q291 12 547 12z" />
    <glyph glyph-name="S" unicode="S" horiz-adv-x="1363" 
d="M799 1112q-101 0 -159 -35t-58 -98q0 -38 19 -55q31 -27 76 -40l50 -15q46 -12 137 -31q210 -49 310 -124t100 -243q0 -240 -178 -371t-484 -131t-604 121l131 305q295 -119 510 -119q119 -2 181 34t62 90t-24 72q-26 20 -44 30t-50 18q-34 8 -56 14t-65 15
q-259 48 -356 131q-98 82 -98 231q0 225 180 363t474 139q294 0 542 -92l-127 -299q-289 90 -469 90z" />
    <glyph glyph-name="T" unicode="T" horiz-adv-x="1388" 
d="M971 1083l-191 -1083h-346l193 1083h-461l53 310h1268l-55 -310h-461z" />
    <glyph glyph-name="U" unicode="U" horiz-adv-x="1533" 
d="M684 -31q-301 0 -451 176t-94 486l135 762h353l-135 -762q-26 -158 38 -246t202 -88t235 88q96 88 123 246l135 762h352l-135 -762q-53 -305 -255 -483t-503 -179z" />
    <glyph glyph-name="V" unicode="V" horiz-adv-x="1652" 
d="M913 0h-344l-379 1393h385l236 -934l580 934h393z" />
    <glyph glyph-name="W" unicode="W" horiz-adv-x="2181" 
d="M1626 0h-334l-139 819l-434 -819h-334l-195 1393h361l104 -852l449 852h285l141 -852l412 852h372z" />
    <glyph glyph-name="X" unicode="X" horiz-adv-x="1542" 
d="M1024 674l397 -674h-397l-260 426l-395 -426h-428l643 696l-383 697h415l232 -432l375 432h440z" />
    <glyph glyph-name="Y" unicode="Y" horiz-adv-x="1525" 
d="M573 440l-387 953h383l238 -586l457 586h393l-725 -953l-78 -440h-358z" />
    <glyph glyph-name="Z" unicode="Z" horiz-adv-x="1368" 
d="M1393 1176l-822 -867h678l-53 -309h-1200l37 217l835 866h-647l55 310h1151z" />
    <glyph glyph-name="bracketleft" unicode="[" horiz-adv-x="784" 
d="M309 -203h297l-53 -309h-631l369 2089h629l-54 -309h-297z" />
    <glyph glyph-name="backslash" unicode="\" horiz-adv-x="1075" 
d="M518 1573l400 -2130h-326l-399 2130h325z" />
    <glyph glyph-name="bracketright" unicode="]" horiz-adv-x="798" 
d="M487 1268h-299l56 309h630l-368 -2089h-631l55 309h297z" />
    <glyph glyph-name="asciicircum" unicode="^" horiz-adv-x="892" 
d="M567 1151l-176 -215h-291l375 457h252l219 -457h-280z" />
    <glyph glyph-name="underscore" unicode="_" horiz-adv-x="1271" 
d="M-66 -186h1164l-49 -281h-1164z" />
    <glyph glyph-name="grave" unicode="`" 
d="M987 1147h-274l-217 301h405z" />
    <glyph glyph-name="a" unicode="a" horiz-adv-x="1284" 
d="M672 756q-125 0 -206 -85t-81 -222q0 -93 49 -149q50 -56 148 -56t215 86l73 415q-108 11 -198 11zM680 1024q158 0 563 -49l-172 -975h-332l13 68q-143 -98 -322 -98q-180 0 -294 142q-114 144 -66 385t212 384q165 143 398 143z" />
    <glyph glyph-name="b" unicode="b" horiz-adv-x="1284" 
d="M907 555q0 93 -49 147t-144 54t-210 -17l-84 -481q100 -14 214 -14t194 88t79 223zM815 1024q207 0 315 -123t99 -317q-10 -194 -97 -335q-88 -140 -216 -210t-273 -70q-240 0 -596 51l252 1434h332l-78 -448q152 18 262 18z" />
    <glyph glyph-name="c" unicode="c" horiz-adv-x="1048" 
d="M683 750q-120 0 -208 -82t-88 -211q0 -93 59 -147t171 -54t301 37l-9 -262q-195 -61 -366 -62q-217 0 -349 121t-133 322q-1 270 189 442t479 172q162 0 344 -57l-86 -256q-184 37 -304 37z" />
    <glyph glyph-name="d" unicode="d" horiz-adv-x="1282" 
d="M385 468q-1 -224 197 -224q98 0 202 14l86 481q-108 17 -198 17q-150 0 -218 -89t-69 -199zM461 -31q-182 0 -299 123t-99 342q17 268 179 429t417 161q111 0 259 -18l77 448h334l-254 -1434q-377 -51 -614 -51z" />
    <glyph glyph-name="e" unicode="e" horiz-adv-x="1148" 
d="M647 772q-174 0 -244 -180h410q10 82 -35 131t-131 49zM680 1024q207 0 325 -116q172 -170 44 -519h-668q14 -79 65 -109t162 -30t355 49l4 -252q-248 -78 -418 -78q-238 0 -365 122t-127 319q-1 266 181 440t442 174z" />
    <glyph glyph-name="f" unicode="f" horiz-adv-x="872" 
d="M819 1565q84 0 205 -23l-84 -270q-51 8 -111 8q-147 0 -180 -176l-20 -111h323l-53 -297h-321l-123 -696h-332l123 696h-211l53 297h211l23 129q37 211 172 327t325 116z" />
    <glyph glyph-name="g" unicode="g" horiz-adv-x="1267" 
d="M668 756q-125 0 -206 -85t-81 -222q0 -93 50 -149q49 -56 147 -56t202 14l86 487q-108 11 -198 11zM670 1024q147 0 571 -49l-172 -975q-43 -244 -220 -386t-464 -142q-162 0 -350 61l90 254q229 -41 297 -41q258 0 309 234q-109 -10 -274 -11q-203 1 -321 143t-70 385
t209 385q162 142 395 142z" />
    <glyph glyph-name="h" unicode="h" horiz-adv-x="1261" 
d="M834 1024q182 0 276 -105t64 -278l-113 -641h-334l96 543q16 90 -21 135q-38 45 -114 45t-205 -18l-125 -705h-333l258 1454h331l-79 -453q176 23 299 23z" />
    <glyph glyph-name="i" unicode="i" horiz-adv-x="565" 
d="M537 993l-175 -993h-333l176 993h332zM414 1114q-84 0 -143 56q-58 56 -58 142t58 142q59 57 143 57t143 -57t59 -142q0 -86 -59 -142t-143 -56z" />
    <glyph glyph-name="j" unicode="j" horiz-adv-x="571" 
d="M530 993l-178 -1007q-22 -131 -56 -217t-100 -158q-129 -142 -442 -146l29 277q127 22 170 64t61 149l183 1038h333zM610 1312q0 -86 -59 -142t-143 -56t-143 56q-58 56 -58 142t58 142q59 57 143 57t143 -57t59 -142z" />
    <glyph glyph-name="k" unicode="k" horiz-adv-x="1247" 
d="M489 653h41l340 340h406l-430 -434l280 -559h-368l-172 346h-150l-61 -346h-332l256 1454h332z" />
    <glyph glyph-name="l" unicode="l" horiz-adv-x="591" 
d="M631 1454l-256 -1454h-332l256 1454h332z" />
    <glyph glyph-name="m" unicode="m" horiz-adv-x="1935" 
d="M1488 1024q190 0 285 -95t60 -288l-113 -641h-331l96 543q16 98 -21 139t-123 41t-170 -16q-2 -49 -14 -109l-104 -598h-332l96 543q16 98 -20 139q-37 41 -119 41t-166 -8l-127 -715h-332l170 971q365 53 596 53q143 0 228 -51q251 51 441 51z" />
    <glyph glyph-name="n" unicode="n" horiz-adv-x="1302" 
d="M842 1024q202 0 296 -105t64 -278l-115 -641h-331l96 543q16 90 -22 135t-108 45t-210 -10l-127 -713h-332l172 975q415 49 617 49z" />
    <glyph glyph-name="o" unicode="o" horiz-adv-x="1261" 
d="M604 250q112 0 197 84q84 84 84 213q1 92 -55 146q-56 55 -168 55t-196 -83q-85 -83 -85 -193q-1 -222 223 -222zM727 1032q221 0 350 -120t129 -322q0 -270 -189 -448t-478 -177q-221 0 -351 122q-129 122 -129 327q1 270 191 444t477 174z" />
    <glyph glyph-name="p" unicode="p" horiz-adv-x="1294" 
d="M644 244q114 0 194 88t80 223q0 92 -50 146q-50 55 -142 55q-93 0 -210 -11l-86 -487q100 -14 214 -14zM841 1024q215 0 321 -141t68 -385t-206 -386t-352 -142t-291 10l-76 -441h-334l254 1436q401 49 616 49z" />
    <glyph glyph-name="q" unicode="q" horiz-adv-x="1280" 
d="M383 449q0 -93 49 -149q50 -56 148 -56t202 14l86 487q-113 10 -200 11q-129 0 -207 -84t-78 -223zM719 1024q178 0 522 -49l-254 -1436h-332l78 441q-111 -10 -276 -11q-203 -1 -321 143t-68 390q106 522 651 522z" />
    <glyph glyph-name="r" unicode="r" horiz-adv-x="866" 
d="M905 1028l-57 -323q-205 0 -342 -13l-119 -692h-332l168 963q356 65 682 65z" />
    <glyph glyph-name="s" unicode="s" horiz-adv-x="1073" 
d="M490 227q144 0 143 64q0 45 -112 66q-65 13 -85 18q-147 33 -219 91t-72 167q1 187 133 289t358 102t421 -72l-107 -256q-193 74 -329 74t-136 -76q0 -29 35 -43t88 -23q200 -34 281 -97q80 -64 80 -171q-1 -188 -139 -289t-366 -101t-448 87l109 258q221 -88 365 -88z
" />
    <glyph glyph-name="t" unicode="t" horiz-adv-x="966" 
d="M500 -31q-172 0 -252 109t-45 313l53 305h-203l53 297h203l60 338h331l-59 -338h305l-53 -297h-305l-47 -272q-29 -158 114 -158q72 1 195 17l-16 -273q-162 -41 -334 -41z" />
    <glyph glyph-name="u" unicode="u" horiz-adv-x="1280" 
d="M440 -27q-186 -1 -280 95t-60 288l113 637h332l-99 -565q-34 -180 136 -180q61 0 204 10l129 735h332l-170 -975q-381 -45 -637 -45z" />
    <glyph glyph-name="v" unicode="v" horiz-adv-x="1296" 
d="M729 0h-338l-268 993h352l148 -598l358 598h365z" />
    <glyph glyph-name="w" unicode="w" horiz-adv-x="1691" 
d="M1262 0h-320l-84 532l-278 -532h-318l-135 993h332l57 -561l293 561h250l90 -563l258 563h338z" />
    <glyph glyph-name="x" unicode="x" horiz-adv-x="1216" 
d="M823 494l267 -494h-363l-156 287l-260 -287h-362l440 496l-266 497h377l147 -262l242 262h377z" />
    <glyph glyph-name="y" unicode="y" horiz-adv-x="1366" 
d="M1419 995l-934 -1454h-338l314 506l-336 948h358l203 -587l367 587h366z" />
    <glyph glyph-name="z" unicode="z" horiz-adv-x="1058" 
d="M1020 817l-510 -536h451l-52 -281h-923l28 164l529 549h-426l49 280h885z" />
    <glyph glyph-name="braceleft" unicode="{" horiz-adv-x="774" 
d="M686 1151l-70 -387q-16 -106 -65 -160t-164 -90q176 -55 139 -260l-67 -387q-13 -72 13 -89t128 -18l-57 -309q-240 0 -344 112t-70 316l74 408q12 70 -20 86t-138 16l47 264q86 0 135 29t62 98l71 408q35 205 170 304t396 99l-58 -309q-84 0 -127 -30t-55 -101z" />
    <glyph glyph-name="bar" unicode="|" horiz-adv-x="675" 
d="M674 1559l-332 -1881h-295l332 1881h295z" />
    <glyph glyph-name="braceright" unicode="}" horiz-adv-x="772" 
d="M96 -109l68 388q18 106 66 160t163 89q-176 57 -137 260l68 388q12 72 -15 89t-127 17l58 309q240 1 343 -111t68 -317l-71 -407q-12 -70 20 -86t137 -17l-49 -264q-174 0 -194 -127l-72 -407q-37 -205 -172 -305t-393 -99l57 309q84 0 127 30t55 101z" />
    <glyph glyph-name="asciitilde" unicode="~" horiz-adv-x="968" 
d="M717 856h280q-19 -123 -81 -207q-110 -150 -287 -145q-76 2 -133 39l-78 53q-47 24 -72 6t-31 -63h-280q21 123 81 205q109 149 285 145q76 -2 134 -39l79 -51q85 -43 103 57z" />
    <glyph glyph-name="exclamdown" unicode="&#xa1;" horiz-adv-x="587" 
d="M-53 -399l192 956h324l-144 -956h-372zM339 1030q81 0 138 -54t57 -134t-56 -134q-58 -54 -139 -54t-138 54t-58 134t57 134t139 54z" />
    <glyph glyph-name="cent" unicode="&#xa2;" horiz-adv-x="1024" 
d="M51 432q-1 229 145 393t377 209l43 234h269l-41 -230q100 -10 221 -51l-88 -256q-190 35 -305 35t-203 -81t-88 -191t59 -167t170 -57t301 37l-10 -256q-135 -41 -242 -51l-38 -225h-269l41 229q-160 33 -251 148t-91 280z" />
    <glyph glyph-name="sterling" unicode="&#xa3;" horiz-adv-x="1245" 
d="M834 1417q208 0 417 -47l-92 -268q-225 35 -327 35q-102 -1 -164 -53q-61 -52 -78 -142l-25 -133h373l-45 -258h-375l-45 -266h670l-49 -285h-1114l49 285h114l47 266h-114l45 258h115l30 174q33 197 196 315q164 118 372 119z" />
    <glyph glyph-name="yen" unicode="&#xa5;" horiz-adv-x="1499" 
d="M1354 606l-33 -198h-412l-14 -89h410l-35 -198h-412l-20 -121h-349l23 121h-395l35 198h395l14 89h-393l33 198h297l-324 787h387l242 -586l452 586h387l-600 -787h312z" />
    <glyph glyph-name="brokenbar" unicode="&#xa6;" horiz-adv-x="675" 
d="M342 -324h-295l146 836h294zM524 721h-295l148 835h295z" />
    <glyph glyph-name="section" unicode="&#xa7;" horiz-adv-x="1185" 
d="M381 576q0 -64 56 -99q55 -35 149 -65t127 -45q92 88 92 149t-55 96q-54 36 -134 60t-143 51q-92 -83 -92 -147zM773 1423q243 0 411 -96l-137 -244q-178 88 -316 88q-182 0 -182 -114q0 -28 11 -41q11 -12 23 -23t58 -27q72 -25 102 -33q195 -50 288 -127t93 -206
q0 -219 -223 -358q51 -61 51 -158q0 -188 -148 -303t-392 -115t-410 98l137 244q178 -90 316 -90q182 0 182 115q0 47 -47 72t-202 71q-155 45 -241 115t-86 198q0 221 224 359q-51 63 -52 158q1 188 149 302t391 115z" />
    <glyph glyph-name="dieresis" unicode="&#xa8;" 
d="M949 1468q77 0 131 -51t54 -125t-54 -125t-131 -51t-130 50t-53 126t53 126t130 50zM480 1468q77 0 130 -51q54 -51 54 -125t-54 -125t-130 -51q-77 0 -130 50t-53 126t53 126t130 50z" />
    <glyph glyph-name="copyright" unicode="&#xa9;" horiz-adv-x="1652" 
d="M922 887q-102 1 -164 -59t-64 -141q0 -81 51 -121t125 -40t226 25l-6 -178q-141 -45 -256 -45q-166 0 -269 86q-102 86 -102 225q0 201 133 324t350 122q115 0 240 -45l-60 -180q-147 27 -204 27zM856 1270q-250 0 -418 -165t-168 -409t168 -408t418 -165q250 0 418 165
q168 164 168 408t-168 409t-418 165zM856 1423q318 0 532 -208t214 -519t-213 -519t-533 -208t-533 208q-214 208 -214 519t214 519t533 208z" />
    <glyph glyph-name="ordfeminine" unicode="&#xaa;" horiz-adv-x="946" 
d="M498 854q43 0 170 10l22 121l-180 -10q-59 -3 -81 -19t-21 -49q0 -53 90 -53zM410 674q-119 0 -183 53q-63 53 -63 143q0 124 87 184t271 70l193 11l2 6q8 71 -90 71t-316 -24l8 201q234 34 351 34q164 3 236 -67t50 -203l-77 -442q-272 -37 -469 -37z" />
    <glyph glyph-name="guillemotleft" unicode="&#xab;" horiz-adv-x="1290" 
d="M1135 227l-222 -170l-325 453l469 444l166 -170l-299 -280zM614 227l-219 -170l-325 453l467 444l165 -170l-296 -280z" />
    <glyph glyph-name="registered" unicode="&#xae;" horiz-adv-x="1656" 
d="M914 924q-60 0 -97 -2l-31 -185h111q43 0 78 29t43 70q8 40 -18 64t-86 24zM641 1094l311 4q150 0 223 -69t49 -202t-159 -211l131 -251h-246l-96 202h-98l-35 -202h-209zM868 1270q-250 0 -418 -165t-167 -409q0 -244 168 -408q167 -164 417 -165q250 0 418 165
q168 164 168 408t-168 409t-418 165zM868 1423q320 0 534 -208t214 -519t-214 -519t-534 -208t-533 208q-214 208 -214 519t214 519t533 208z" />
    <glyph glyph-name="macron" unicode="&#xaf;" 
d="M1067 1417l-45 -254h-588l45 254h588z" />
    <glyph glyph-name="degree" unicode="&#xb0;" horiz-adv-x="946" 
d="M546 924q66 0 114 47q50 47 50 111t-32 96t-98 32t-116 -47t-50 -109q0 -130 132 -130zM625 1423q145 0 228 -80t83 -215q0 -182 -125 -300t-311 -117q-143 0 -227 81q-83 81 -83 216q0 180 124 298q125 117 311 117z" />
    <glyph glyph-name="plusminus" unicode="&#xb1;" horiz-adv-x="1370" 
d="M1143 332l-45 -262h-975l47 262h973zM1202 664h-350l-47 -258h-273l48 258h-353l47 262h351l45 254h272l-45 -254h350z" />
    <glyph glyph-name="twosuperior" unicode="&#xb2;" horiz-adv-x="702" 
d="M520 1124q0 70 -98 70t-238 -39l-8 201q166 53 314 53t217 -62q67 -61 67 -161t-59 -180t-193 -179l-67 -51h266l-35 -201h-637l29 158l356 264q47 37 67 62q19 25 19 65z" />
    <glyph glyph-name="threesuperior" unicode="&#xb3;" horiz-adv-x="731" 
d="M760 872q0 -141 -95 -227t-290 -86t-336 68l104 184q131 -55 259 -55t128 84q0 51 -77 51h-213l16 102l217 195h-303l35 205h620l-24 -129l-230 -201q94 -14 141 -67q48 -52 48 -124z" />
    <glyph glyph-name="acute" unicode="&#xb4;" 
d="M1130 1448l-305 -301h-321l209 301h417z" />
    <glyph glyph-name="paragraph" unicode="&#xb6;" horiz-adv-x="1568" 
d="M395 888q0 -206 191 -206h164l79 455l-163 2q-125 0 -198 -72q-73 -73 -73 -179zM745 1411q618 0 877 -18l-287 -1620h-301l240 1353q-94 4 -146 4l-239 -1357h-299l112 643h-131q-219 0 -343 114t-124 306q0 258 178 416t463 159z" />
    <glyph glyph-name="periodcentered" unicode="&#xb7;" horiz-adv-x="669" 
d="M343 340q-89 0 -153 59q-63 59 -63 147t63 147q62 61 152 61t154 -60t63 -148q0 -87 -63 -147q-64 -59 -153 -59z" />
    <glyph glyph-name="cedilla" unicode="&#xb8;" 
d="M512 -432h-252l148 334h299z" />
    <glyph glyph-name="onesuperior" unicode="&#xb9;" horiz-adv-x="638" 
d="M649 782l-39 -207h-547l39 207h146l61 340l-155 -37l-15 199l375 109h74l-107 -611h168z" />
    <glyph glyph-name="ordmasculine" unicode="&#xba;" horiz-adv-x="940" 
d="M410 1032q0 -68 36 -105q36 -36 102 -36t122 52q55 53 55 121t-37 104q-36 36 -102 36t-121 -52t-55 -120zM633 1423q154 0 246 -86t92 -227q0 -190 -135 -315t-334 -125q-154 0 -246 87t-92 232q0 188 136 311t333 123z" />
    <glyph glyph-name="guillemotright" unicode="&#xbb;" horiz-adv-x="1290" 
d="M668 784l221 170l325 -450l-469 -447l-165 170l299 281zM150 784l221 170l323 -450l-467 -447l-166 170l297 281z" />
    <glyph glyph-name="onequarter" unicode="&#xbc;" horiz-adv-x="1806" 
d="M1430 569l-232 -221h191zM1722 348l-32 -188h-113l-27 -160h-223l29 160h-469l28 162l539 495h240l-82 -469h110zM1663 1393l-1210 -1393h-166l1210 1393h166zM119 575l39 207h145l62 340l-156 -37l-14 199l374 109h74l-106 -611h168l-39 -207h-547z" />
    <glyph glyph-name="onehalf" unicode="&#xbd;" horiz-adv-x="1855" 
d="M1540 549q0 122 -336 31l-6 200q164 54 312 54t216 -62t68 -162t-59 -180t-191 -178l-69 -51h268l-37 -201h-637l29 158l358 264q47 35 66 60q18 26 18 67zM1642 1393l-1210 -1393h-166l1209 1393h167zM119 575l39 207h145l62 340l-156 -37l-14 199l374 109h74l-106 -611
h168l-39 -207h-547z" />
    <glyph glyph-name="threequarters" unicode="&#xbe;" horiz-adv-x="1873" 
d="M1262 348h190l39 221zM1673 348h111l-33 -188h-111l-28 -160h-223l28 160h-469l29 162l539 495h239zM487 0h-165l1208 1393h168zM803 872q0 -141 -95 -227t-290 -86t-336 68l104 184q131 -55 259 -55t128 84q0 51 -77 51h-213l16 102l217 195h-303l35 205h620l-24 -129
l-230 -201q94 -14 141 -67q48 -52 48 -124z" />
    <glyph glyph-name="questiondown" unicode="&#xbf;" horiz-adv-x="1048" 
d="M422 -401q-196 0 -314 99t-118 267q0 203 147 351t359 149h14l37 127h295l-66 -367h-215q-111 0 -181 -57t-71 -152q0 -61 47 -99q48 -38 150 -38t342 35l-4 -268q-226 -47 -422 -47zM720 682q-81 0 -138 53t-58 133q0 80 58 134t138 54q81 0 138 -54t57 -134t-57 -133
t-138 -53z" />
    <glyph glyph-name="Agrave" unicode="&#xc0;" horiz-adv-x="1587" 
d="M887 991l-281 -469h389zM438 231l-135 -231h-379l871 1401h317l373 -1401h-367l-53 231h-627zM1139 1522h-279l-246 301h408z" />
    <glyph glyph-name="Aacute" unicode="&#xc1;" horiz-adv-x="1587" 
d="M887 991l-281 -469h389zM438 231l-135 -231h-379l871 1401h317l373 -1401h-367l-53 231h-627zM1487 1823l-320 -301h-336l236 301h420z" />
    <glyph glyph-name="Acircumflex" unicode="&#xc2;" horiz-adv-x="1587" 
d="M887 991l-281 -469h389zM438 231l-135 -231h-379l871 1401h317l373 -1401h-367l-53 231h-627zM1016 1645l-119 -123h-307l305 301h289l198 -301h-299z" />
    <glyph glyph-name="Atilde" unicode="&#xc3;" horiz-adv-x="1587" 
d="M887 991l-281 -469h389zM438 231l-135 -231h-379l871 1401h317l373 -1401h-367l-53 231h-627zM1208 1827h250q-20 -109 -74 -183q-100 -135 -252 -128q-67 2 -118 34l-70 47q-79 42 -92 -51h-250q18 109 72 183q98 133 254 126q68 -2 119 -32l69 -47q74 -45 92 51z" />
    <glyph glyph-name="Adieresis" unicode="&#xc4;" horiz-adv-x="1587" 
d="M887 991l-281 -469h389zM438 231l-135 -231h-379l871 1401h317l373 -1401h-367l-53 231h-627zM1241 1501q-78 0 -133 52t-55 128t55 128q55 53 133 53t132 -52t54 -129q0 -76 -54 -128t-132 -52zM770 1501q-78 0 -132 52t-54 128t54 128q54 53 132 53t133 -52t55 -129
q0 -76 -55 -128t-133 -52z" />
    <glyph glyph-name="Aring" unicode="&#xc5;" horiz-adv-x="1587" 
d="M887 991l-281 -469h389zM438 231l-135 -231h-379l871 1401h317l373 -1401h-367l-53 231h-627zM901 1724q-1 -42 23 -64t66 -22t72 28t30 69t-24 63t-66 23q-42 0 -72 -28q-29 -28 -29 -69zM1011 1974q119 0 185 -62t66 -171t-82 -183t-199 -73q-117 0 -183 62t-67 171
q0 108 81 182t199 74z" />
    <glyph glyph-name="AE" unicode="&#xc6;" horiz-adv-x="2250" 
d="M1206 1022l-422 -500h330zM1518 844h614l-51 -295h-617l-43 -248h707l-53 -301h-1053l41 225h-526l-191 -225h-409l1202 1393h1181l-53 -301h-706z" />
    <glyph glyph-name="Ccedilla" unicode="&#xc7;" horiz-adv-x="1443" 
d="M668 -432h-252l147 334h299zM492 631q0 -145 101 -235t257 -89q156 0 448 55l7 -309q-291 -84 -527 -84q-299 0 -481 166t-182 438q0 383 253 617t666 233q215 1 498 -73l-111 -308q-276 55 -401 56q-244 0 -386 -128t-142 -339z" />
    <glyph glyph-name="Egrave" unicode="&#xc8;" horiz-adv-x="1282" 
d="M543 844h616l-53 -295h-614l-46 -248h709l-53 -301h-1053l246 1393h1053l-54 -301h-706zM983 1522h-278l-246 301h407z" />
    <glyph glyph-name="Eacute" unicode="&#xc9;" horiz-adv-x="1282" 
d="M543 844h616l-53 -295h-614l-46 -248h709l-53 -301h-1053l246 1393h1053l-54 -301h-706zM1331 1823l-319 -301h-336l235 301h420z" />
    <glyph glyph-name="Ecircumflex" unicode="&#xca;" horiz-adv-x="1282" 
d="M543 844h616l-53 -295h-614l-46 -248h709l-53 -301h-1053l246 1393h1053l-54 -301h-706zM862 1645l-119 -123h-307l305 301h289l199 -301h-299z" />
    <glyph glyph-name="Edieresis" unicode="&#xcb;" horiz-adv-x="1282" 
d="M543 844h616l-53 -295h-614l-46 -248h709l-53 -301h-1053l246 1393h1053l-54 -301h-706zM1087 1501q-78 0 -133 52t-55 128t55 128q55 53 133 53q79 0 133 -52t54 -129q0 -76 -54 -128t-133 -52zM616 1501q-78 0 -132 52t-54 128t54 128q54 53 132 53t134 -52t55 -129
q1 -76 -55 -128t-134 -52z" />
    <glyph glyph-name="Igrave" unicode="&#xcc;" horiz-adv-x="612" 
d="M637 1393l-246 -1393h-346l246 1393h346zM637 1522h-279l-245 301h407z" />
    <glyph glyph-name="Iacute" unicode="&#xcd;" horiz-adv-x="612" 
d="M637 1393l-246 -1393h-346l246 1393h346zM985 1823l-319 -301h-336l235 301h420z" />
    <glyph glyph-name="Icircumflex" unicode="&#xce;" horiz-adv-x="612" 
d="M637 1393l-246 -1393h-346l246 1393h346zM514 1645l-119 -123h-307l305 301h289l199 -301h-299z" />
    <glyph glyph-name="Idieresis" unicode="&#xcf;" horiz-adv-x="612" 
d="M637 1393l-246 -1393h-346l246 1393h346zM739 1501q-78 0 -133 52t-55 128t55 128q55 53 133 53t132 -52q55 -52 55 -129q0 -76 -54 -128t-133 -52zM268 1501q-78 0 -132 52t-54 128t54 128q54 53 132 53t133 -52t55 -129q0 -76 -54 -128q-56 -52 -134 -52z" />
    <glyph glyph-name="Eth" unicode="&#xd0;" horiz-adv-x="1497" 
d="M680 293q160 0 291 137t131 344q0 146 -88 236t-226 90t-200 -4l-47 -267h223l-53 -299h-222l-40 -233q71 -4 231 -4zM817 1409q293 0 469 -162t176 -428q0 -362 -250 -599t-612 -236q-248 0 -551 16l94 530h-116l51 299h117l100 564q307 16 522 16z" />
    <glyph glyph-name="Ntilde" unicode="&#xd1;" horiz-adv-x="1581" 
d="M1604 1393l-246 -1393h-299l-518 809l-146 -809h-346l246 1393h307l508 -815l147 815h347zM1178 1827h249q-20 -109 -74 -183q-100 -135 -252 -128q-67 2 -118 34l-70 47q-79 42 -92 -51h-250q19 109 73 183q98 133 253 126q68 -2 119 -32l69 -47q75 -45 93 51z" />
    <glyph glyph-name="Ograve" unicode="&#xd2;" horiz-adv-x="1675" 
d="M805 287q197 0 334 137t137 346q0 152 -89 243t-237 91q-197 0 -334 -136t-137 -345q-1 -152 89 -244t237 -92zM1006 1423q290 0 462 -166t172 -440q0 -369 -258 -609t-634 -239q-289 0 -461 166t-172 440q0 369 257 609t634 239zM1169 1522h-278l-246 301h408z" />
    <glyph glyph-name="Oacute" unicode="&#xd3;" horiz-adv-x="1675" 
d="M805 287q197 0 334 137t137 346q0 152 -89 243t-237 91q-197 0 -334 -136t-137 -345q-1 -152 89 -244t237 -92zM1006 1423q290 0 462 -166t172 -440q0 -369 -258 -609t-634 -239q-289 0 -461 166t-172 440q0 369 257 609t634 239zM1518 1823l-320 -301h-336l236 301h420z
" />
    <glyph glyph-name="Ocircumflex" unicode="&#xd4;" horiz-adv-x="1675" 
d="M805 287q197 0 334 137t137 346q0 152 -89 243t-237 91q-197 0 -334 -136t-137 -345q-1 -152 89 -244t237 -92zM1006 1423q290 0 462 -166t172 -440q0 -369 -258 -609t-634 -239q-289 0 -461 166t-172 440q0 369 257 609t634 239zM1047 1645l-119 -123h-307l305 301h288
l199 -301h-299z" />
    <glyph glyph-name="Otilde" unicode="&#xd5;" horiz-adv-x="1675" 
d="M805 287q197 0 334 137t137 346q0 152 -89 243t-237 91q-197 0 -334 -136t-137 -345q-1 -152 89 -244t237 -92zM1006 1423q290 0 462 -166t172 -440q0 -369 -258 -609t-634 -239q-289 0 -461 166t-172 440q0 369 257 609t634 239zM1239 1827h250q-21 -109 -75 -183
q-100 -135 -252 -128q-67 2 -118 34l-69 47q-81 43 -92 -51h-250q19 109 73 183q98 133 252 126q68 -2 119 -32l70 -47q74 -45 92 51z" />
    <glyph glyph-name="Odieresis" unicode="&#xd6;" horiz-adv-x="1675" 
d="M805 287q197 0 334 137t137 346q0 152 -89 243t-237 91q-197 0 -334 -136t-137 -345q-1 -152 89 -244t237 -92zM1006 1423q290 0 462 -166t172 -440q0 -369 -258 -609t-634 -239q-289 0 -461 166t-172 440q0 369 257 609t634 239zM1272 1501q-78 0 -133 52t-56 128
t55 128q56 53 134 53t132 -52t54 -129q0 -76 -54 -128t-132 -52zM801 1501q-78 0 -132 52t-55 128q0 76 54 128q54 53 133 53q78 0 133 -52t55 -129q0 -76 -55 -128t-133 -52z" />
    <glyph glyph-name="multiply" unicode="&#xd7;" horiz-adv-x="1339" 
d="M1120 375l-213 -187l-233 285l-336 -285l-160 187l334 284l-233 285l210 186l236 -284l334 284l162 -186l-336 -285z" />
    <glyph glyph-name="Oslash" unicode="&#xd8;" horiz-adv-x="1675" 
d="M805 287q197 0 334 137t137 346q0 84 -29 152l-616 -592q76 -43 174 -43zM479 623q0 -74 21 -129l602 579q-68 31 -152 31q-197 0 -334 -136t-137 -345zM748 -31q-227 0 -386 105l-104 -101l-152 144l109 104q-100 147 -100 354q0 369 257 609t634 239q213 0 364 -92
l105 101l151 -146l-98 -94q113 -158 112 -375q0 -369 -258 -609t-634 -239z" />
    <glyph glyph-name="Ugrave" unicode="&#xd9;" horiz-adv-x="1533" 
d="M684 -31q-301 0 -451 176t-94 486l133 762h353l-133 -762q-28 -158 36 -246t202 -88t235 88q96 88 125 246l133 762h352l-133 -762q-53 -305 -255 -483t-503 -179zM1100 1522h-279l-246 301h408z" />
    <glyph glyph-name="Uacute" unicode="&#xda;" horiz-adv-x="1533" 
d="M684 -31q-301 0 -451 176t-94 486l133 762h353l-133 -762q-28 -158 36 -246t202 -88t235 88q96 88 125 246l133 762h352l-133 -762q-53 -305 -255 -483t-503 -179zM1448 1823l-320 -301h-335l235 301h420z" />
    <glyph glyph-name="Ucircumflex" unicode="&#xdb;" horiz-adv-x="1533" 
d="M684 -31q-301 0 -451 176t-94 486l133 762h353l-133 -762q-28 -158 36 -246t202 -88t235 88q96 88 125 246l133 762h352l-133 -762q-53 -305 -255 -483t-503 -179zM977 1645l-119 -123h-307l305 301h289l198 -301h-299z" />
    <glyph glyph-name="Udieresis" unicode="&#xdc;" horiz-adv-x="1533" 
d="M684 -31q-301 0 -451 176t-94 486l133 762h353l-133 -762q-28 -158 36 -246t202 -88t235 88q96 88 125 246l133 762h352l-133 -762q-53 -305 -255 -483t-503 -179zM1202 1501q-78 0 -133 52t-55 128t55 128q55 53 133 53t132 -52t54 -129q0 -76 -54 -128t-132 -52z
M731 1501q-78 0 -132 52t-54 128t54 128q54 53 132 53t133 -52q56 -52 56 -129q0 -76 -56 -128t-133 -52z" />
    <glyph glyph-name="Yacute" unicode="&#xdd;" horiz-adv-x="1525" 
d="M573 440l-387 953h381l240 -586l457 586h391l-723 -953l-80 -440h-358zM1444 1823l-320 -301h-336l236 301h420z" />
    <glyph glyph-name="Thorn" unicode="&#xde;" horiz-adv-x="1333" 
d="M694 494q123 0 204 70t81 168q0 192 -209 192q-74 0 -213 -4l-74 -426h211zM803 1225q246 0 385 -113t139 -315q0 -269 -197 -437t-509 -167h-193l-33 -193h-346l246 1393h346l-31 -170q64 2 193 2z" />
    <glyph glyph-name="germandbls" unicode="&#xdf;" horiz-adv-x="1386" 
d="M1272 129q0 -239 -168 -393t-436 -154q-150 0 -320 45l88 264q162 -27 272 -27t178 64q69 63 68 156q0 61 -45 100t-121 39h-198l26 146l271 329h-389l-123 -698h-332l203 1149q72 416 555 416l-51 -285q-150 0 -177 -156l-22 -131h799l-35 -188l-301 -336
q120 -24 189 -115q69 -90 69 -225z" />
    <glyph glyph-name="agrave" unicode="&#xe0;" horiz-adv-x="1284" 
d="M672 756q-125 0 -206 -85t-81 -222q0 -93 49 -149q50 -56 148 -56t215 86l73 415q-108 11 -198 11zM680 1024q158 0 563 -49l-172 -975h-332l13 68q-143 -98 -322 -98q-180 0 -294 142q-114 144 -66 385t212 384q165 143 398 143zM958 1147h-274l-217 301h405z" />
    <glyph glyph-name="aacute" unicode="&#xe1;" horiz-adv-x="1284" 
d="M672 756q-125 0 -206 -85t-81 -222q0 -93 49 -149q50 -56 148 -56t215 86l73 415q-108 11 -198 11zM680 1024q158 0 563 -49l-172 -975h-332l13 68q-143 -98 -322 -98q-180 0 -294 142q-114 144 -66 385t212 384q165 143 398 143zM1239 1448l-305 -301h-322l209 301h418z
" />
    <glyph glyph-name="acircumflex" unicode="&#xe2;" horiz-adv-x="1284" 
d="M672 756q-125 0 -206 -85t-81 -222q0 -93 49 -149q50 -56 148 -56t215 86l73 415q-108 11 -198 11zM680 1024q158 0 563 -49l-172 -975h-332l13 68q-143 -98 -322 -98q-180 0 -294 142q-114 144 -66 385t212 384q165 143 398 143zM827 1262l-116 -109h-310l304 295h288
l201 -295h-297z" />
    <glyph glyph-name="atilde" unicode="&#xe3;" horiz-adv-x="1284" 
d="M672 756q-125 0 -206 -85t-81 -222q0 -93 49 -149q50 -56 148 -56t215 86l73 415q-108 11 -198 11zM680 1024q158 0 563 -49l-172 -975h-332l13 68q-143 -98 -322 -98q-180 0 -294 142q-114 144 -66 385t212 384q165 143 398 143zM999 1444h242q-19 -106 -71 -179
q-96 -133 -247 -126q-67 2 -116 35l-70 45q-76 43 -90 -50h-241q18 107 70 179q93 130 247 125q66 -2 117 -33l69 -45q41 -23 63 -7t27 56z" />
    <glyph glyph-name="adieresis" unicode="&#xe4;" horiz-adv-x="1284" 
d="M672 756q-125 0 -206 -85t-81 -222q0 -93 49 -149q50 -56 148 -56t215 86l73 415q-108 11 -198 11zM680 1024q158 0 563 -49l-172 -975h-332l13 68q-143 -98 -322 -98q-180 0 -294 142q-114 144 -66 385t212 384q165 143 398 143zM1037 1468q77 0 131 -51t54 -125
t-54 -125t-131 -51t-130 50t-53 126t53 126t130 50zM568 1468q77 0 130 -51q54 -51 54 -125t-54 -125t-130 -51q-77 0 -130 50t-53 126t53 126t130 50z" />
    <glyph glyph-name="aring" unicode="&#xe5;" horiz-adv-x="1284" 
d="M672 756q-125 0 -206 -85t-81 -222q0 -93 49 -149q50 -56 148 -56t215 86l73 415q-108 11 -198 11zM680 1024q158 0 563 -49l-172 -975h-332l13 68q-143 -98 -322 -98q-180 0 -294 142q-114 144 -66 385t212 384q165 143 398 143zM698 1362q0 -42 24 -64t65 -22
q42 0 72 28t30 68t-24 64q-25 22 -67 22t-71 -28t-29 -68zM809 1612q117 0 183 -62t67 -170q0 -110 -81 -184t-198 -74q-116 0 -184 62t-68 172q0 108 82 182t199 74z" />
    <glyph glyph-name="ae" unicode="&#xe6;" horiz-adv-x="1816" 
d="M352 283q0 -76 128 -76t278 37q-25 66 -27 127l-221 -2q-90 1 -124 -21t-34 -65zM1318 772q-88 0 -152 -49t-95 -131h416q10 82 -35 131t-134 49zM1366 1024q207 0 324 -126t79 -327q-14 -80 -49 -182h-665q35 -150 227 -149q115 0 358 49l-2 -242q-248 -78 -430 -78
t-307 86q-266 -74 -408 -84q-44 -2 -122 -2q-162 0 -248 73t-86 202q0 178 116 263t375 83l220 -2l2 28q10 72 -24 106t-142 34t-365 -35l10 262q293 45 455 47q231 0 324 -104q151 98 358 98z" />
    <glyph glyph-name="ccedilla" unicode="&#xe7;" horiz-adv-x="1048" 
d="M420 -432h-252l147 334h299zM387 474q0 -218 231 -218q111 0 302 37l-11 -262q-195 -61 -364 -62q-219 0 -351 121t-133 322q-1 270 189 442t479 172q160 0 346 -57l-86 -256q-188 37 -306 37t-207 -83t-89 -193z" />
    <glyph glyph-name="egrave" unicode="&#xe8;" horiz-adv-x="1148" 
d="M647 772q-174 0 -244 -180h410q10 82 -35 131t-131 49zM682 1024q207 0 324 -116q171 -170 43 -519h-668q14 -79 65 -109t162 -30t355 49l6 -252q-248 -78 -418 -78q-238 0 -366 122t-128 319q-1 268 181 441t444 173zM881 1147h-275l-217 301h406z" />
    <glyph glyph-name="eacute" unicode="&#xe9;" horiz-adv-x="1148" 
d="M647 772q-174 0 -244 -180h410q10 82 -35 131t-131 49zM682 1024q207 0 324 -116q171 -170 43 -519h-668q14 -79 65 -109t162 -30t355 49l6 -252q-248 -78 -418 -78q-238 0 -366 122t-128 319q-1 268 181 441t444 173zM1163 1448l-305 -301h-321l208 301h418z" />
    <glyph glyph-name="ecircumflex" unicode="&#xea;" horiz-adv-x="1148" 
d="M647 772q-174 0 -244 -180h410q10 82 -35 131t-131 49zM682 1024q207 0 324 -116q171 -170 43 -519h-668q14 -79 65 -109t162 -30t355 49l6 -252q-248 -78 -418 -78q-238 0 -366 122t-128 319q-1 268 181 441t444 173zM752 1262l-117 -109h-309l303 295h289l200 -295
h-297z" />
    <glyph glyph-name="edieresis" unicode="&#xeb;" horiz-adv-x="1148" 
d="M647 772q-174 0 -244 -180h410q10 82 -35 131t-131 49zM682 1024q207 0 324 -116q171 -170 43 -519h-668q14 -79 65 -109t162 -30t355 49l6 -252q-248 -78 -418 -78q-238 0 -366 122t-128 319q-1 268 181 441t444 173zM960 1468q77 0 131 -51t54 -125t-54 -125t-131 -51
t-131 50q-53 50 -53 126t53 126q54 50 131 50zM491 1468q77 0 130 -51t53 -125t-53 -125t-130 -51t-131 50q-53 50 -53 126t53 126q54 50 131 50z" />
    <glyph glyph-name="igrave" unicode="&#xec;" horiz-adv-x="565" 
d="M537 993l-177 -993h-331l174 993h334zM575 1147h-274l-217 301h405z" />
    <glyph glyph-name="iacute" unicode="&#xed;" horiz-adv-x="565" 
d="M537 993l-177 -993h-331l174 993h334zM858 1448l-305 -301h-322l209 301h418z" />
    <glyph glyph-name="icircumflex" unicode="&#xee;" horiz-adv-x="565" 
d="M537 993l-177 -993h-331l174 993h334zM446 1262l-116 -109h-310l304 295h288l201 -295h-297z" />
    <glyph glyph-name="idieresis" unicode="&#xef;" horiz-adv-x="565" 
d="M537 993l-177 -993h-331l174 993h334zM654 1468q77 0 131 -51q55 -51 55 -125t-54 -125t-132 -51q-77 0 -130 50t-53 126t53 126t130 50zM185 1468q77 0 130 -51t53 -125t-52 -125q-54 -51 -131 -51t-130 50t-53 126t53 126t130 50z" />
    <glyph glyph-name="eth" unicode="&#xf0;" horiz-adv-x="1241" 
d="M862 545q0 91 -55 147t-159 56t-190 -82q-85 -82 -85 -209q0 -91 55 -149q56 -58 160 -58t189 84t85 211zM551 -35q-250 -1 -382 143t-104 380t201 391q174 154 400 153q82 0 180 -33q-68 104 -119 148l-324 -111l-38 168l217 76q-78 55 -162 104l274 101
q86 -37 178 -109l222 78l36 -170l-118 -45q104 -117 153 -288t25 -361q-31 -291 -210 -458t-429 -167z" />
    <glyph glyph-name="ntilde" unicode="&#xf1;" horiz-adv-x="1302" 
d="M842 1024q202 0 296 -105t64 -278l-115 -641h-331l96 543q16 90 -22 135t-108 45t-210 -10l-127 -713h-332l172 975q415 49 617 49zM985 1444h242q-19 -106 -71 -179q-96 -133 -248 -126q-67 2 -115 35l-70 45q-41 23 -63 7t-27 -57h-242q19 107 71 179q94 130 247 125
q66 -2 116 -33l70 -45q41 -23 63 -7t27 56z" />
    <glyph glyph-name="ograve" unicode="&#xf2;" horiz-adv-x="1261" 
d="M604 250q112 0 195 84q84 84 84 213q1 92 -55 146q-56 55 -166 55t-196 -83q-85 -83 -85 -210q0 -92 55 -149q56 -56 168 -56zM725 1032q223 0 351 -120t128 -322q0 -270 -189 -448t-476 -177q-221 0 -351 122q-129 122 -129 327q-1 270 189 444t477 174zM924 1147h-275
l-217 301h406z" />
    <glyph glyph-name="oacute" unicode="&#xf3;" horiz-adv-x="1261" 
d="M604 250q112 0 195 84q84 84 84 213q1 92 -55 146q-56 55 -166 55t-196 -83q-85 -83 -85 -210q0 -92 55 -149q56 -56 168 -56zM725 1032q223 0 351 -120t128 -322q0 -270 -189 -448t-476 -177q-221 0 -351 122q-129 122 -129 327q-1 270 189 444t477 174zM1204 1448
l-305 -301h-321l208 301h418z" />
    <glyph glyph-name="ocircumflex" unicode="&#xf4;" horiz-adv-x="1261" 
d="M604 250q112 0 195 84q84 84 84 213q1 92 -55 146q-56 55 -166 55t-196 -83q-85 -83 -85 -210q0 -92 55 -149q56 -56 168 -56zM725 1032q223 0 351 -120t128 -322q0 -270 -189 -448t-476 -177q-221 0 -351 122q-129 122 -129 327q-1 270 189 444t477 174zM795 1262
l-117 -109h-309l303 295h289l200 -295h-297z" />
    <glyph glyph-name="otilde" unicode="&#xf5;" horiz-adv-x="1261" 
d="M604 250q112 0 195 84q84 84 84 213q1 92 -55 146q-56 55 -166 55t-196 -83q-85 -83 -85 -210q0 -92 55 -149q56 -56 168 -56zM725 1032q223 0 351 -120t128 -322q0 -270 -189 -448t-476 -177q-221 0 -351 122q-129 122 -129 327q-1 270 189 444t477 174zM965 1444h241
q-18 -106 -70 -179q-95 -133 -248 -126q-67 2 -116 35l-70 45q-76 43 -90 -50h-241q18 107 70 179q93 130 247 125q66 -2 117 -33l69 -45q41 -23 63 -7t28 56z" />
    <glyph glyph-name="odieresis" unicode="&#xf6;" horiz-adv-x="1261" 
d="M604 250q112 0 195 84q84 84 84 213q1 92 -55 146q-56 55 -166 55t-196 -83q-85 -83 -85 -210q0 -92 55 -149q56 -56 168 -56zM725 1032q223 0 351 -120t128 -322q0 -270 -189 -448t-476 -177q-221 0 -351 122q-129 122 -129 327q-1 270 189 444t477 174zM1003 1468
q77 0 131 -51t54 -125t-54 -125t-131 -51t-131 50q-53 50 -53 126t53 126q54 50 131 50zM534 1468q77 0 130 -51t53 -125t-53 -125t-130 -51t-131 50q-53 50 -53 126t53 126q54 50 131 50z" />
    <glyph glyph-name="divide" unicode="&#xf7;" horiz-adv-x="1396" 
d="M616 106q-72 0 -122 48t-50 118t50 118t122 48t123 -48t51 -118t-50 -118q-52 -48 -124 -48zM252 803h1001l-47 -262h-999zM821 915q-72 1 -122 49t-50 118t50 117q50 48 122 48t123 -48t51 -118t-51 -118t-123 -48z" />
    <glyph glyph-name="oslash" unicode="&#xf8;" horiz-adv-x="1261" 
d="M883 547q0 43 -13 76l-362 -361q37 -12 80 -12q127 0 211 84t84 213zM381 455q0 -37 10 -74l359 356q-37 10 -72 11q-127 0 -212 -83t-85 -210zM1204 590q0 -270 -189 -448t-476 -177q-150 0 -267 62l-125 -125l-122 114l120 119q-86 115 -86 279q-1 270 189 444t477 174
q152 0 262 -57l115 115l123 -115l-109 -107q88 -113 88 -278z" />
    <glyph glyph-name="ugrave" unicode="&#xf9;" horiz-adv-x="1280" 
d="M440 -27q-186 -1 -280 95t-60 288l113 637h332l-99 -565q-34 -180 136 -180q61 0 204 10l129 735h332l-170 -975q-381 -45 -637 -45zM932 1147h-275l-217 301h406z" />
    <glyph glyph-name="uacute" unicode="&#xfa;" horiz-adv-x="1280" 
d="M440 -27q-186 -1 -280 95t-60 288l113 637h332l-99 -565q-34 -180 136 -180q61 0 204 10l129 735h332l-170 -975q-381 -45 -637 -45zM1214 1448l-305 -301h-321l209 301h417z" />
    <glyph glyph-name="ucircumflex" unicode="&#xfb;" horiz-adv-x="1280" 
d="M440 -27q-186 -1 -280 95t-60 288l113 637h332l-99 -565q-34 -180 136 -180q61 0 204 10l129 735h332l-170 -975q-381 -45 -637 -45zM803 1262l-117 -109h-309l303 295h289l200 -295h-297z" />
    <glyph glyph-name="udieresis" unicode="&#xfc;" horiz-adv-x="1280" 
d="M440 -27q-186 -1 -280 95t-60 288l113 637h332l-99 -565q-34 -180 136 -180q61 0 204 10l129 735h332l-170 -975q-381 -45 -637 -45zM1011 1468q77 0 131 -51t54 -125t-54 -125t-131 -51t-130 50t-54 126t53 126t131 50zM542 1468q77 0 130 -51t53 -125t-53 -125
t-130 -51t-130 50t-54 126q0 76 54 126t130 50z" />
    <glyph glyph-name="yacute" unicode="&#xfd;" horiz-adv-x="1366" 
d="M1421 995l-936 -1454h-338l314 506l-336 948h358l203 -587l367 587h368zM936 1149h-322l209 301h418z" />
    <glyph glyph-name="thorn" unicode="&#xfe;" horiz-adv-x="1269" 
d="M620 244q113 0 193 88t80 223q0 92 -49 146q-48 55 -142 55t-210 -11l-86 -487q101 -14 214 -14zM803 1024q227 0 333 -141t70 -381q-45 -248 -211 -390t-349 -142t-290 10l-75 -441h-334l338 1915h331l-75 -442q123 12 262 12z" />
    <glyph glyph-name="ydieresis" unicode="&#xff;" horiz-adv-x="1366" 
d="M1421 995l-936 -1454h-338l314 506l-336 948h358l203 -587l367 587h368zM1037 1118q-77 0 -130 50t-53 126t53 126t130 50t131 -51t54 -125t-54 -125t-131 -51zM568 1118q-77 0 -130 50t-53 126t53 126t130 50t130 -51q54 -51 54 -125t-54 -125t-130 -51z" />
    <glyph glyph-name="Amacron" unicode="&#x100;" horiz-adv-x="1587" 
d="M887 991l-281 -469h389zM438 231l-135 -231h-379l871 1401h317l373 -1401h-367l-53 231h-627zM1378 1802l-43 -250h-682l43 250h682z" />
    <glyph glyph-name="amacron" unicode="&#x101;" horiz-adv-x="1284" 
d="M672 756q-125 0 -206 -85t-81 -222q0 -93 49 -149q50 -56 148 -56t215 86l73 415q-108 11 -198 11zM680 1024q158 0 563 -49l-172 -975h-332l13 68q-143 -98 -322 -98q-180 0 -294 142q-114 144 -66 385t212 384q165 143 398 143zM1118 1417l-45 -254h-588l45 254h588z
" />
    <glyph glyph-name="Abreve" unicode="&#x102;" horiz-adv-x="1587" 
d="M887 991l-281 -469h389zM438 231l-135 -231h-379l871 1401h317l373 -1401h-367l-53 231h-627zM987 1513q-151 0 -223 83t-45 231h229q-8 -47 14 -72t64 -24q95 0 111 96h233q-27 -147 -130 -231t-253 -83z" />
    <glyph glyph-name="abreve" unicode="&#x103;" horiz-adv-x="1284" 
d="M672 756q-125 0 -206 -85t-81 -222q0 -93 49 -149q50 -56 148 -56t215 86l73 415q-108 11 -198 11zM680 1024q158 0 563 -49l-172 -975h-332l13 68q-143 -98 -322 -98q-180 0 -294 142q-114 144 -66 385t212 384q165 143 398 143zM776 1133q-150 0 -224 84t-46 231h231
q-8 -47 14 -73t64 -25q93 0 111 98h231q-27 -147 -129 -231t-252 -84z" />
    <glyph glyph-name="Aogonek" unicode="&#x104;" horiz-adv-x="1587" 
d="M995 522l-108 469l-281 -469h389zM1298 -156q43 0 101 15l16 -230q-102 -33 -214 -33q-113 0 -185 57q-72 56 -72 146q0 145 166 238l-45 194h-627l-135 -231h-379l871 1401h317l373 -1401h-215q-58 -44 -58 -100t86 -56z" />
    <glyph glyph-name="aogonek" unicode="&#x105;" horiz-adv-x="1284" 
d="M385 449q0 -93 49 -149q50 -56 148 -56t215 86l73 415q-109 11 -216 11t-188 -85t-81 -222zM911 -176q43 0 101 14l16 -229q-102 -33 -214 -33t-184 56t-73 147q0 156 186 248l9 41q-143 -98 -322 -98q-180 0 -294 142q-114 144 -66 385t212 384q165 143 398 143
q158 0 563 -49l-172 -975h-153q-92 -47 -93 -117q0 -59 86 -59z" />
    <glyph glyph-name="Cacute" unicode="&#x106;" horiz-adv-x="1443" 
d="M492 631q0 -145 101 -235t257 -89q156 0 448 55l7 -309q-291 -84 -527 -84q-299 0 -481 166t-182 438q0 383 253 617t666 233q215 1 498 -73l-111 -308q-276 55 -401 56q-244 0 -386 -128t-142 -339zM1536 1823l-319 -301h-336l235 301h420z" />
    <glyph glyph-name="cacute" unicode="&#x107;" horiz-adv-x="1048" 
d="M387 474q0 -218 231 -218q111 0 302 37l-11 -262q-195 -61 -364 -62q-219 0 -351 121t-133 322q-1 270 189 442t479 172q160 0 346 -57l-86 -256q-188 37 -306 37t-207 -83t-89 -193zM1171 1446l-305 -301h-321l209 301h417z" />
    <glyph glyph-name="Cdotaccent" unicode="&#x10a;" horiz-adv-x="1443" 
d="M492 631q0 -145 101 -235t257 -89q156 0 448 55l7 -309q-291 -84 -527 -84q-299 0 -481 166t-182 438q0 383 253 617t666 233q215 1 498 -73l-111 -308q-276 55 -401 56q-244 0 -386 -128t-142 -339zM1041 1524q-77 0 -130 50t-53 126t53 126t130 50t130 -51t53 -125
t-52 -125q-54 -51 -131 -51z" />
    <glyph glyph-name="cdotaccent" unicode="&#x10b;" horiz-adv-x="1048" 
d="M387 474q0 -218 231 -218q111 0 302 37l-11 -262q-195 -61 -364 -62q-219 0 -351 121t-133 322q-1 270 189 442t479 172q160 0 346 -57l-86 -256q-188 37 -306 37t-207 -83t-89 -193zM739 1124q-78 0 -133 52t-55 129q0 76 55 128t133 52t132 -52q55 -52 55 -128
q0 -77 -54 -129t-133 -52z" />
    <glyph glyph-name="Ccaron" unicode="&#x10c;" horiz-adv-x="1443" 
d="M492 631q0 -145 101 -235t257 -89q156 0 448 55l7 -309q-291 -84 -527 -84q-299 0 -481 166t-182 438q0 383 253 617t666 233q215 1 498 -73l-111 -308q-276 55 -401 56q-244 0 -386 -128t-142 -339zM1180 1505h-289l-197 314h297l68 -121l119 121h309z" />
    <glyph glyph-name="ccaron" unicode="&#x10d;" horiz-adv-x="1048" 
d="M387 474q0 -218 231 -218q111 0 302 37l-11 -262q-195 -61 -364 -62q-219 0 -351 121t-133 322q-1 270 189 442t479 172q160 0 346 -57l-86 -256q-188 37 -306 37t-207 -83t-89 -193zM858 1145h-289l-196 313h297l67 -121l119 121h309z" />
    <glyph glyph-name="Dcaron" unicode="&#x10e;" horiz-adv-x="1497" 
d="M680 293q160 0 291 137t131 344q0 146 -88 236t-226 90t-200 -4l-139 -799q71 -4 231 -4zM817 1409q293 0 469 -162t176 -428q0 -362 -250 -599t-612 -236q-248 0 -551 16l246 1393q307 16 522 16zM1006 1505h-289l-197 314h297l68 -121l119 121h309z" />
    <glyph glyph-name="dcaron" unicode="&#x10f;" horiz-adv-x="1282" 
d="M385 468q1 -224 197 -224q98 0 202 14l84 481q-104 17 -198 17q-147 0 -216 -89t-69 -199zM1706 1454l-154 -430h-243l84 430h313zM461 -31q-182 0 -298 123t-97 342q16 268 177 429t419 161q113 0 256 -18l79 448h332l-252 -1434q-377 -51 -616 -51z" />
    <glyph glyph-name="Dcroat" unicode="&#x110;" horiz-adv-x="1497" 
d="M680 293q160 0 291 137t131 344q0 146 -88 236t-226 90t-200 -4l-47 -267h223l-53 -299h-222l-40 -233q71 -4 231 -4zM817 1409q293 0 469 -162t176 -428q0 -362 -250 -599t-612 -236q-248 0 -551 16l94 530h-116l51 299h117l100 564q307 16 522 16z" />
    <glyph glyph-name="dcroat" unicode="&#x111;" horiz-adv-x="1282" 
d="M385 468q1 -224 197 -224q98 0 202 14l84 481q-104 16 -198 17q-147 0 -216 -89t-69 -199zM461 -31q-182 0 -298 123t-97 342q16 268 177 429t419 161q113 0 256 -18l20 110h-297l41 234h297l18 104h332l-18 -104h67l-41 -234h-67l-193 -1096q-377 -51 -616 -51z" />
    <glyph glyph-name="Emacron" unicode="&#x112;" horiz-adv-x="1282" 
d="M543 844h616l-53 -295h-614l-46 -248h709l-53 -301h-1053l246 1393h1053l-54 -301h-706zM1225 1802l-43 -250h-682l43 250h682z" />
    <glyph glyph-name="emacron" unicode="&#x113;" horiz-adv-x="1148" 
d="M647 772q-174 0 -244 -180h410q10 82 -35 131t-131 49zM682 1024q207 0 324 -116q171 -170 43 -519h-668q14 -79 65 -109t162 -30t355 49l6 -252q-248 -78 -418 -78q-238 0 -366 122t-128 319q-1 268 181 441t444 173zM1042 1417l-45 -254h-587l45 254h587z" />
    <glyph glyph-name="Edotaccent" unicode="&#x116;" horiz-adv-x="1282" 
d="M543 844h616l-53 -295h-614l-46 -248h709l-53 -301h-1053l246 1393h1053l-54 -301h-706zM837 1524q-77 0 -130 50t-54 126t53 126t131 50t130 -51t53 -125t-53 -125t-130 -51z" />
    <glyph glyph-name="edotaccent" unicode="&#x117;" horiz-adv-x="1148" 
d="M647 772q-174 0 -244 -180h410q10 82 -35 131t-131 49zM682 1024q207 0 324 -116q171 -170 43 -519h-668q14 -79 65 -109t162 -30t355 49l6 -252q-248 -78 -418 -78q-238 0 -366 122t-128 319q-1 268 181 441t444 173zM731 1126q-78 0 -133 52t-55 129q0 76 55 128
t133 52t132 -52q55 -52 55 -128q0 -77 -54 -129t-133 -52z" />
    <glyph glyph-name="Eogonek" unicode="&#x118;" horiz-adv-x="1282" 
d="M790 -451q-112 1 -185 57t-73 146q0 156 187 248h-670l246 1393h1053l-54 -301h-706l-45 -248h616l-53 -295h-614l-46 -248h709l-53 -301h-144q-158 -49 -157 -143q0 -59 86 -60q43 0 100 15l17 -230q-102 -33 -214 -33z" />
    <glyph glyph-name="eogonek" unicode="&#x119;" horiz-adv-x="1148" 
d="M647 772q-174 0 -244 -180h410q10 82 -35 131t-131 49zM682 1024q207 0 324 -116q171 -170 43 -519h-668q14 -79 65 -109t162 -30t355 49l6 -252q-45 -14 -135 -39q-147 -49 -148 -139q0 -59 86 -59q43 0 100 14l17 -230q-102 -32 -214 -32t-185 56t-72 146
q0 121 117 205q-229 4 -354 125q-124 121 -124 316q-1 268 181 441t444 173z" />
    <glyph glyph-name="Ecaron" unicode="&#x11a;" horiz-adv-x="1282" 
d="M543 844h616l-53 -295h-614l-46 -248h709l-53 -301h-1053l246 1393h1053l-54 -301h-706zM975 1505h-289l-197 314h297l68 -121l119 121h309z" />
    <glyph glyph-name="ecaron" unicode="&#x11b;" horiz-adv-x="1148" 
d="M647 772q-174 0 -244 -180h410q10 82 -35 131t-131 49zM682 1024q207 0 324 -116q171 -170 43 -519h-668q14 -79 65 -109t162 -30t355 49l6 -252q-248 -78 -418 -78q-238 0 -366 122t-128 319q-1 268 181 441t444 173zM850 1147h-289l-196 313h297l67 -121l119 121h309z
" />
    <glyph glyph-name="Gbreve" unicode="&#x11e;" horiz-adv-x="1613" 
d="M746 -31q-272 0 -451 170q-178 170 -178 436q0 381 243 615q244 233 641 233q262 0 535 -71l-113 -301q-283 49 -446 49q-221 0 -356 -130t-136 -341q-1 -150 93 -243t240 -93t356 47l34 201h-442l49 282h739l-124 -719q-412 -135 -684 -135zM1030 1513q-150 0 -222 83
t-46 231h229q-8 -47 14 -72t64 -24q95 0 111 96h233q-27 -147 -130 -231t-253 -83z" />
    <glyph glyph-name="gbreve" unicode="&#x11f;" horiz-adv-x="1267" 
d="M668 756q-125 0 -206 -85t-81 -222q0 -93 49 -149q48 -56 146 -56t204 14l86 487q-108 11 -198 11zM670 1024q147 0 571 -49l-172 -975q-43 -244 -220 -386t-464 -142q-162 0 -350 61l90 254q229 -41 297 -41q258 0 309 234q-109 -10 -274 -11q-203 1 -321 143t-70 385
t209 385q162 142 395 142zM745 1133q-149 0 -223 84t-47 231h232q-9 -47 13 -73t64 -25q93 0 111 98h231q-27 -147 -129 -231t-252 -84z" />
    <glyph glyph-name="Gdotaccent" unicode="&#x120;" horiz-adv-x="1613" 
d="M746 -31q-272 0 -451 170q-178 170 -178 436q0 381 243 615q244 233 641 233q262 0 535 -71l-113 -301q-283 49 -446 49q-221 0 -356 -130t-136 -341q-1 -150 93 -243t240 -93t356 47l34 201h-442l49 282h739l-124 -719q-412 -135 -684 -135zM1035 1524q-77 0 -130 50
t-53 126t53 126t130 50t130 -51t53 -125t-52 -125q-54 -51 -131 -51z" />
    <glyph glyph-name="gdotaccent" unicode="&#x121;" horiz-adv-x="1267" 
d="M668 756q-125 0 -206 -85t-81 -222q0 -93 49 -149q48 -56 146 -56t204 14l86 487q-108 11 -198 11zM670 1024q147 0 571 -49l-172 -975q-43 -244 -220 -386t-464 -142q-162 0 -350 61l90 254q229 -41 297 -41q258 0 309 234q-109 -10 -274 -11q-203 1 -321 143t-70 385
t209 385q162 142 395 142zM776 1126q-78 0 -133 52t-55 129q0 76 55 128t133 52t132 -52t54 -128q0 -77 -54 -129t-132 -52z" />
    <glyph glyph-name="Gcommaaccent" unicode="&#x122;" horiz-adv-x="1613" 
d="M506 -262q0 72 55 123t131 51t130 -51t54 -111t-27 -114q-28 -52 -144 -228h-183l90 182q-106 43 -106 148zM746 -31q-272 0 -451 170q-178 170 -178 436q0 381 243 615q244 233 641 233q262 0 535 -71l-113 -301q-283 49 -446 49q-221 0 -356 -130t-136 -341
q-1 -150 93 -243t240 -93t356 47l34 201h-442l49 282h739l-124 -719q-412 -135 -684 -135z" />
    <glyph glyph-name="gcommaaccent" unicode="&#x123;" horiz-adv-x="1267" 
d="M668 756q-125 0 -206 -85t-81 -222q0 -93 49 -149q48 -56 146 -56t204 14l86 487q-108 11 -198 11zM670 1024q147 0 571 -49l-172 -975q-43 -244 -220 -386t-464 -142q-162 0 -350 61l90 254q229 -41 297 -41q258 0 309 234q-109 -10 -274 -11q-203 1 -321 143t-70 385
t209 385q162 142 395 142zM985 1317q0 -72 -55 -123t-131 -51t-130 51q-55 52 -55 112t28 112t144 229h183l-90 -183q106 -43 106 -147z" />
    <glyph glyph-name="Hbar" unicode="&#x126;" horiz-adv-x="1544" 
d="M1151 993h-580l-28 -159h579zM1573 993h-76l-176 -993h-346l92 522h-582l-90 -522h-346l176 993h-78l41 236h78l29 164h346l-29 -164h580l29 164h346l-29 -164h78z" />
    <glyph glyph-name="hbar" unicode="&#x127;" horiz-adv-x="1261" 
d="M834 1024q182 0 276 -105t64 -278l-115 -641h-332l96 543q16 90 -21 135q-38 45 -115 45t-206 -18l-125 -705h-331l206 1178h-65l35 194h65l15 82h333l-14 -82h223l-32 -194h-226l-30 -177q176 23 299 23z" />
    <glyph glyph-name="Imacron" unicode="&#x12a;" horiz-adv-x="612" 
d="M637 1393l-246 -1393h-346l246 1393h346zM877 1802l-43 -250h-682l43 250h682z" />
    <glyph glyph-name="imacron" unicode="&#x12b;" horiz-adv-x="565" 
d="M537 993l-177 -993h-331l174 993h334zM737 1417l-45 -254h-588l46 254h587z" />
    <glyph glyph-name="Iogonek" unicode="&#x12e;" horiz-adv-x="612" 
d="M141 -129q0 -59 86 -59q43 0 101 14l16 -229q-102 -33 -214 -33t-184 56t-73 147q0 152 174 239l244 1387h346l-246 -1393h-133q-117 -49 -117 -129z" />
    <glyph glyph-name="iogonek" unicode="&#x12f;" horiz-adv-x="565" 
d="M211 -184q43 0 100 14l17 -229q-102 -33 -214 -33t-185 56t-72 147q0 150 174 241l172 981h334l-177 -993h-127q-109 -49 -108 -125q0 -59 86 -59zM426 1487q78 0 132 -52t54 -128t-54 -128q-54 -53 -132 -53t-133 52t-55 129q0 76 55 128t133 52z" />
    <glyph glyph-name="Idotaccent" unicode="&#x130;" horiz-adv-x="612" 
d="M637 1393l-246 -1393h-346l246 1393h346zM494 1540q-86 0 -146 56q-59 56 -59 140t59 139q60 56 146 56t145 -56t59 -139q0 -84 -59 -140t-145 -56z" />
    <glyph glyph-name="dotlessi" unicode="&#x131;" horiz-adv-x="565" 
d="M537 993l-175 -993h-333l176 993h332z" />
    <glyph glyph-name="IJ" unicode="&#x132;" horiz-adv-x="1757" 
d="M1016 -31q-219 0 -463 88l117 301q211 -55 379 -55q97 0 165 72t91 192l145 826h350l-143 -818q-53 -295 -216 -451t-425 -155zM637 1393l-246 -1393h-346l246 1393h346z" />
    <glyph glyph-name="ij" unicode="&#x133;" horiz-adv-x="1189" 
d="M1151 993l-178 -1007q-23 -131 -57 -217q-80 -202 -273 -266q-109 -36 -268 -38l28 277q127 22 170 64t62 149l182 1038h334zM537 993l-177 -993h-331l174 993h334zM1028 1114q-84 0 -142 56t-58 142t58 142q58 57 142 57t143 -57t59 -142q0 -86 -58 -142
q-60 -56 -144 -56zM616 1312q0 -86 -59 -142t-143 -56t-143 56q-58 56 -58 142t58 142q59 57 143 57t143 -57t59 -142z" />
    <glyph glyph-name="Kcommaaccent" unicode="&#x136;" horiz-adv-x="1480" 
d="M631 -88q76 0 130 -51t54 -111t-28 -114q-28 -52 -144 -228h-182l90 182q-106 43 -107 148q0 72 56 123t131 51zM477 469l-82 -469h-346l246 1393h346l-104 -588h63l559 588h424l-625 -658l406 -735h-403l-252 469h-232z" />
    <glyph glyph-name="kcommaaccent" unicode="&#x137;" horiz-adv-x="1247" 
d="M502 -88q76 0 130 -51t54 -111t-28 -114q-28 -52 -144 -228h-182l90 182q-106 43 -107 148q-1 72 55 123t132 51zM489 653h41l342 340h404l-428 -434l280 -559h-370l-172 346h-150l-61 -346h-332l256 1454h332z" />
    <glyph glyph-name="Lacute" unicode="&#x139;" horiz-adv-x="1218" 
d="M1077 0h-1028l246 1393h346l-192 -1088h681zM995 1823l-319 -301h-336l235 301h420z" />
    <glyph glyph-name="lacute" unicode="&#x13a;" horiz-adv-x="585" 
d="M631 1454l-256 -1454h-332l256 1454h332zM944 1839l-303 -301h-324l209 301h418z" />
    <glyph glyph-name="Lcommaaccent" unicode="&#x13b;" horiz-adv-x="1218" 
d="M336 -262q0 72 55 123t131 51t130 -51t54 -111t-27 -114q-28 -52 -144 -228h-183l90 182q-106 43 -106 148zM1077 0h-1028l246 1393h346l-192 -1088h681z" />
    <glyph glyph-name="lcommaaccent" unicode="&#x13c;" horiz-adv-x="591" 
d="M154 -88q76 0 130 -51t54 -111t-28 -114q-28 -52 -144 -228h-182l90 182q-106 43 -107 148q-1 72 55 123t132 51zM631 1454l-256 -1454h-332l256 1454h332z" />
    <glyph glyph-name="Lcaron" unicode="&#x13d;" horiz-adv-x="1218" 
d="M1112 1393l-154 -430h-243l84 430h313zM1077 0h-1028l246 1393h346l-192 -1088h681z" />
    <glyph glyph-name="lcaron" unicode="&#x13e;" horiz-adv-x="591" 
d="M1001 1454l-153 -430h-244l84 430h313zM631 1454l-256 -1454h-332l256 1454h332z" />
    <glyph glyph-name="Ldot" unicode="&#x13f;" horiz-adv-x="1216" 
d="M870 518q-78 0 -133 52t-55 128t55 128t133 52t132 -52t54 -128t-54 -128t-132 -52zM1077 0h-1028l246 1393h346l-192 -1088h681z" />
    <glyph glyph-name="ldot" unicode="&#x140;" horiz-adv-x="882" 
d="M762 508q-78 0 -133 52t-56 128t55 128t134 52t132 -52t54 -128t-54 -128t-132 -52zM631 1454l-256 -1454h-332l256 1454h332z" />
    <glyph glyph-name="Lslash" unicode="&#x141;" horiz-adv-x="1216" 
d="M1130 305l-53 -305h-1028l76 432l-129 -43l47 273l131 45l121 686h346l-100 -564l315 107l-49 -272l-313 -107l-45 -252h681z" />
    <glyph glyph-name="lslash" unicode="&#x142;" horiz-adv-x="591" 
d="M604 664l-119 -41l-110 -623h-332l88 504l-108 -37l47 272l110 37l119 678h332l-99 -559l119 41z" />
    <glyph glyph-name="Nacute" unicode="&#x143;" horiz-adv-x="1581" 
d="M1604 1393l-246 -1393h-299l-518 809l-146 -809h-346l246 1393h307l508 -815l147 815h347zM1456 1823l-319 -301h-336l235 301h420z" />
    <glyph glyph-name="nacute" unicode="&#x144;" horiz-adv-x="1302" 
d="M842 1024q202 0 296 -105t64 -278l-115 -641h-331l96 543q16 90 -22 135t-108 45t-210 -10l-127 -713h-332l172 975q415 49 617 49zM1227 1448l-305 -301h-322l209 301h418z" />
    <glyph glyph-name="Ncommaaccent" unicode="&#x145;" horiz-adv-x="1581" 
d="M676 -88q76 0 130 -51t54 -111t-28 -114q-28 -52 -144 -228h-182l90 182q-106 43 -107 148q-1 72 55 123t132 51zM1604 1393l-246 -1393h-299l-518 809l-146 -809h-346l246 1393h307l508 -815l147 815h347z" />
    <glyph glyph-name="ncommaaccent" unicode="&#x146;" horiz-adv-x="1302" 
d="M332 -262q0 72 55 123t131 51t130 -51t54 -111t-28 -114q-28 -52 -144 -228h-182l90 182q-106 43 -106 148zM842 1024q202 0 296 -105t64 -278l-115 -641h-331l96 543q16 90 -22 135t-108 45t-210 -10l-127 -713h-332l172 975q415 49 617 49z" />
    <glyph glyph-name="Ncaron" unicode="&#x147;" horiz-adv-x="1581" 
d="M1604 1393l-246 -1393h-299l-518 809l-146 -809h-346l246 1393h307l508 -815l147 815h347zM1100 1505h-289l-197 314h297l68 -121l119 121h309z" />
    <glyph glyph-name="ncaron" unicode="&#x148;" horiz-adv-x="1302" 
d="M842 1024q202 0 296 -105t64 -278l-115 -641h-331l96 543q16 90 -22 135t-108 45t-210 -10l-127 -713h-332l172 975q415 49 617 49zM913 1147h-288l-197 313h297l68 -121l118 121h310z" />
    <glyph glyph-name="Omacron" unicode="&#x14c;" horiz-adv-x="1675" 
d="M805 287q197 0 334 137t137 346q0 152 -89 243t-237 91q-197 0 -334 -136t-137 -345q-1 -152 89 -244t237 -92zM1006 1423q290 0 462 -166t172 -440q0 -369 -258 -609t-634 -239q-289 0 -461 166t-172 440q0 369 257 609t634 239zM1409 1802l-43 -250h-682l43 250h682z
" />
    <glyph glyph-name="omacron" unicode="&#x14d;" horiz-adv-x="1261" 
d="M604 250q112 0 195 84q84 84 84 213q1 92 -55 146q-56 55 -166 55t-196 -83q-85 -83 -85 -210q0 -92 55 -149q56 -56 168 -56zM725 1032q223 0 351 -120t128 -322q0 -270 -189 -448t-476 -177q-221 0 -351 122q-129 122 -129 327q-1 270 189 444t477 174zM1083 1417
l-45 -254h-587l45 254h587z" />
    <glyph glyph-name="Ohungarumlaut" unicode="&#x150;" horiz-adv-x="1675" 
d="M805 287q197 0 334 137t137 346q0 152 -89 243t-237 91q-197 0 -334 -136t-137 -345q-1 -152 89 -244t237 -92zM1006 1423q290 0 462 -166t172 -440q0 -369 -258 -609t-634 -239q-289 0 -461 166t-172 440q0 369 257 609t634 239zM1542 1847l-188 -336h-289l145 336h332z
M1145 1847l-189 -336h-288l145 336h332z" />
    <glyph glyph-name="ohungarumlaut" unicode="&#x151;" horiz-adv-x="1261" 
d="M604 250q112 0 195 84q84 84 84 213q1 92 -55 146q-56 55 -166 55t-196 -83q-85 -83 -85 -210q0 -92 55 -149q56 -56 168 -56zM725 1032q223 0 351 -120t128 -322q0 -270 -189 -448t-476 -177q-221 0 -351 122q-129 122 -129 327q-1 270 189 444t477 174zM1083 1153h-270
l135 315h312zM709 1153h-273l135 315h312z" />
    <glyph glyph-name="OE" unicode="&#x152;" horiz-adv-x="2052" 
d="M479 631q-1 -150 103 -231t299 -83l133 756q-252 -1 -394 -117t-141 -325zM1319 844h614l-51 -295h-614l-45 -248h708l-53 -301h-1053q-321 2 -515 160t-193 430q0 360 273 580t681 223h1053l-53 -301h-709z" />
    <glyph glyph-name="oe" unicode="&#x153;" horiz-adv-x="1966" 
d="M594 250q102 0 182 64q78 64 101 167l6 39v27q1 92 -55 146q-56 55 -166 55t-196 -83q-85 -83 -85 -210q0 -92 55 -149q56 -56 158 -56zM1464 772q-173 0 -243 -180h409q10 82 -35 131t-131 49zM1487 1024q217 0 334 -116t98 -302q-12 -100 -55 -217h-666q14 -79 64 -109
t162 -30q110 0 354 49l6 -252q-248 -78 -418 -78q-254 0 -387 144q-181 -147 -421 -147t-370 121q-129 122 -129 327q-1 270 189 444t477 174q244 0 375 -143q170 135 387 135z" />
    <glyph glyph-name="Racute" unicode="&#x154;" horiz-adv-x="1390" 
d="M737 690q119 0 199 72t80 180q0 166 -219 166l-207 -2l-74 -416h221zM841 1405q257 -1 390 -107t133 -286t-86 -313q-86 -132 -238 -212l246 -487h-409l-187 399h-225l-70 -399h-346l244 1393q291 12 548 12zM1315 1823l-320 -301h-336l236 301h420z" />
    <glyph glyph-name="racute" unicode="&#x155;" horiz-adv-x="866" 
d="M905 1028l-57 -323q-205 0 -340 -13l-121 -692h-332l168 963q360 65 682 65zM1055 1448l-305 -301h-322l209 301h418z" />
    <glyph glyph-name="Rcommaaccent" unicode="&#x156;" horiz-adv-x="1390" 
d="M418 -262q0 72 55 123t131 51t130 -51t54 -111t-28 -114q-28 -52 -144 -228h-182l90 182q-106 43 -106 148zM737 690q119 0 199 72t80 180q0 166 -219 166l-207 -2l-74 -416h221zM841 1405q257 -1 390 -107t133 -286t-86 -313q-86 -132 -238 -212l246 -487h-409l-187 399
h-225l-70 -399h-346l244 1393q291 12 548 12z" />
    <glyph glyph-name="rcommaaccent" unicode="&#x157;" horiz-adv-x="866" 
d="M-8 -262q0 72 55 123t131 51t130 -51t54 -111t-28 -114q-28 -52 -144 -228h-182l90 182q-106 43 -106 148zM905 1028l-57 -323q-205 0 -340 -13l-121 -692h-332l168 963q360 65 682 65z" />
    <glyph glyph-name="Rcaron" unicode="&#x158;" horiz-adv-x="1390" 
d="M737 690q119 0 199 72t80 180q0 166 -219 166l-207 -2l-74 -416h221zM841 1405q257 -1 390 -107t133 -286t-86 -313q-86 -132 -238 -212l246 -487h-409l-187 399h-225l-70 -399h-346l244 1393q291 12 548 12zM956 1505h-288l-197 314h297l68 -121l118 121h310z" />
    <glyph glyph-name="rcaron" unicode="&#x159;" horiz-adv-x="866" 
d="M905 1028l-57 -323q-205 0 -340 -13l-121 -692h-332l168 963q360 65 682 65zM741 1147h-288l-197 313h297l68 -121l118 121h310z" />
    <glyph glyph-name="Sacute" unicode="&#x15a;" horiz-adv-x="1363" 
d="M799 1112q-101 0 -159 -35t-58 -98q0 -38 19 -55q31 -27 76 -40l50 -15q46 -12 137 -31q210 -49 310 -124t100 -243q0 -240 -178 -371t-484 -131t-604 121l131 305q295 -119 510 -119q119 -2 181 34t62 90t-24 72q-26 20 -44 30t-50 18q-34 8 -56 14t-65 15
q-259 48 -356 131q-98 82 -98 231q0 225 180 363t474 139q294 0 542 -92l-127 -299q-289 90 -469 90zM1376 1823l-319 -301h-336l235 301h420z" />
    <glyph glyph-name="sacute" unicode="&#x15b;" horiz-adv-x="1073" 
d="M490 227q144 0 143 64q-1 21 -17 32t-26 16q-12 6 -68 18l-42 9q-178 32 -257 95q-78 63 -78 172q1 187 133 289t358 102t421 -72l-107 -256q-190 74 -326 74t-137 -76q0 -29 36 -43t87 -23q198 -33 279 -97q80 -64 80 -171q1 -188 -137 -289t-366 -101t-450 87l109 258
q221 -88 365 -88zM1128 1452l-305 -301h-321l209 301h417z" />
    <glyph glyph-name="Scedilla" unicode="&#x15e;" horiz-adv-x="1363" 
d="M532 -432h-251l147 334h299zM799 1112q-101 0 -159 -35t-58 -98q0 -38 19 -55q31 -27 76 -40l50 -15q46 -12 137 -31q210 -49 310 -124t100 -243q0 -240 -178 -371t-484 -131t-604 121l131 305q295 -119 510 -119q119 -2 181 34t62 90t-24 72q-26 20 -44 30t-50 18
q-34 8 -56 14t-65 15q-259 48 -356 131q-98 82 -98 231q0 225 180 363t474 139q294 0 542 -92l-127 -299q-289 90 -469 90z" />
    <glyph glyph-name="scedilla" unicode="&#x15f;" horiz-adv-x="1073" 
d="M410 -432h-252l147 334h299zM490 227q144 0 143 64q-1 21 -17 32t-26 16q-12 6 -68 18l-42 9q-178 32 -257 95q-78 63 -78 172q1 187 133 289t358 102t421 -72l-107 -256q-190 74 -326 74t-137 -76q0 -29 36 -43t87 -23q198 -33 279 -97q80 -64 80 -171q1 -188 -137 -289
t-366 -101t-450 87l109 258q221 -88 365 -88z" />
    <glyph glyph-name="Scaron" unicode="&#x160;" horiz-adv-x="1363" 
d="M799 1112q-101 0 -159 -35t-58 -98q0 -38 19 -55q31 -27 76 -40l50 -15q46 -12 137 -31q210 -49 310 -124t100 -243q0 -240 -178 -371t-484 -131t-604 121l131 305q295 -119 510 -119q119 -2 181 34t62 90t-24 72q-26 20 -44 30t-50 18q-34 8 -56 14t-65 15
q-259 48 -356 131q-98 82 -98 231q0 225 180 363t474 139q294 0 542 -92l-127 -299q-289 90 -469 90zM1018 1505h-289l-197 314h297l68 -121l119 121h309z" />
    <glyph glyph-name="scaron" unicode="&#x161;" horiz-adv-x="1073" 
d="M490 227q144 0 143 64q-1 21 -17 32t-26 16q-12 6 -68 18l-42 9q-178 32 -257 95q-78 63 -78 172q1 187 133 289t358 102t421 -72l-107 -256q-190 74 -326 74t-137 -76q0 -29 36 -43t87 -23q198 -33 279 -97q80 -64 80 -171q1 -188 -137 -289t-366 -101t-450 87l109 258
q221 -88 365 -88zM815 1151h-289l-196 313h297l67 -121l119 121h309z" />
    <glyph glyph-name="Tcaron" unicode="&#x164;" horiz-adv-x="1388" 
d="M973 1083l-193 -1083h-346l193 1083h-461l53 310h1268l-53 -310h-461zM1016 1505h-289l-197 314h297l68 -121l119 121h309z" />
    <glyph glyph-name="tcaron" unicode="&#x165;" horiz-adv-x="966" 
d="M500 -31q-172 0 -252 109t-43 313l51 305h-203l53 297h203l60 338h331l-57 -338h303l-53 -297h-303l-49 -272q-27 -158 114 -158q72 1 195 17l-16 -273q-162 -41 -334 -41zM1128 1501l-153 -430h-244l84 430h313z" />
    <glyph glyph-name="Umacron" unicode="&#x16a;" horiz-adv-x="1533" 
d="M684 -31q-301 0 -451 176t-94 486l133 762h353l-133 -762q-28 -158 36 -246t202 -88t235 88q96 88 125 246l133 762h352l-133 -762q-53 -305 -255 -483t-503 -179zM1339 1802l-43 -250h-682l43 250h682z" />
    <glyph glyph-name="umacron" unicode="&#x16b;" horiz-adv-x="1280" 
d="M440 -27q-186 -1 -280 95t-60 288l113 637h332l-99 -565q-34 -180 136 -180q61 0 204 10l129 735h332l-170 -975q-381 -45 -637 -45zM1094 1417l-45 -254h-588l45 254h588z" />
    <glyph glyph-name="Uring" unicode="&#x16e;" horiz-adv-x="1533" 
d="M684 -31q-301 0 -451 176t-94 486l133 762h353l-133 -762q-28 -158 36 -246t202 -88t235 88q96 88 125 246l133 762h352l-133 -762q-53 -305 -255 -483t-503 -179zM860 1724q0 -42 24 -64t65 -22q42 0 72 28t30 69t-24 63q-25 22 -67 23q-42 0 -71 -28t-29 -69zM970 1974
q118 0 184 -62t67 -171q0 -109 -82 -183t-199 -73q-118 0 -184 62t-66 171q0 108 81 182t199 74z" />
    <glyph glyph-name="uring" unicode="&#x16f;" horiz-adv-x="1280" 
d="M440 -27q-186 -1 -280 95t-60 288l113 637h332l-99 -565q-34 -180 136 -180q61 0 204 10l129 735h332l-170 -975q-381 -45 -637 -45zM761 1276q42 0 72 28q29 28 29 68t-23 64q-24 22 -67 22t-72 -28q-28 -28 -28 -68q2 -86 89 -86zM781 1612q118 0 185 -62
q66 -62 66 -170q0 -110 -81 -184t-198 -74t-185 62t-66 172q0 108 80 182t199 74z" />
    <glyph glyph-name="Uhungarumlaut" unicode="&#x170;" horiz-adv-x="1533" 
d="M684 -31q-301 0 -451 176t-94 486l133 762h353l-133 -762q-28 -158 36 -246t202 -88t235 88q96 88 125 246l133 762h352l-133 -762q-53 -305 -255 -483t-503 -179zM1473 1847l-189 -336h-289l146 336h332zM1075 1847l-188 -336h-289l145 336h332z" />
    <glyph glyph-name="uhungarumlaut" unicode="&#x171;" horiz-adv-x="1280" 
d="M440 -27q-186 -1 -280 95t-60 288l113 637h332l-99 -565q-34 -180 136 -180q61 0 204 10l129 735h332l-170 -975q-381 -45 -637 -45zM1092 1153h-271l135 315h312zM717 1153h-273l136 315h311z" />
    <glyph glyph-name="Uogonek" unicode="&#x172;" horiz-adv-x="1533" 
d="M768 -139q0 -59 86 -60q43 0 100 15l17 -230q-102 -32 -214 -32t-185 56t-72 146q0 129 129 215q-273 15 -407 191t-83 469l133 762h353l-133 -762q-28 -158 36 -246t202 -88t235 88q96 88 125 246l133 762h352l-133 -762q-44 -246 -184 -411t-353 -222
q-137 -49 -137 -137z" />
    <glyph glyph-name="uogonek" unicode="&#x173;" horiz-adv-x="1280" 
d="M1006 -184q43 0 100 14l16 -229q-102 -33 -214 -33t-184 56t-73 147q0 129 135 219q-200 -16 -366 -16t-260 94q-94 96 -60 288l113 637h332l-99 -565q-34 -180 136 -180q61 0 204 10l129 735h332l-170 -975q-158 -49 -157 -143q0 -59 86 -59z" />
    <glyph glyph-name="Wcircumflex" unicode="&#x174;" horiz-adv-x="2181" 
d="M1628 0h-336l-137 819l-434 -819h-336l-195 1393h363l104 -852l447 852h287l139 -852l412 852h372zM1300 1645l-118 -123h-308l306 301h288l199 -301h-299z" />
    <glyph glyph-name="wcircumflex" unicode="&#x175;" horiz-adv-x="1691" 
d="M1262 0h-320l-84 532l-278 -532h-318l-135 993h332l57 -561l293 561h250l90 -563l258 563h338zM1010 1262l-117 -109h-309l303 295h289l200 -295h-297z" />
    <glyph glyph-name="Ycircumflex" unicode="&#x176;" horiz-adv-x="1525" 
d="M573 440l-387 953h381l240 -586l457 586h391l-723 -953l-80 -440h-358zM973 1645l-119 -123h-307l305 301h289l198 -301h-299z" />
    <glyph glyph-name="ycircumflex" unicode="&#x177;" horiz-adv-x="1366" 
d="M1421 995l-936 -1454h-338l314 506l-336 948h358l203 -587l367 587h368zM713 1155h-310l304 295h288l201 -295h-297l-70 109z" />
    <glyph glyph-name="Ydieresis" unicode="&#x178;" horiz-adv-x="1525" 
d="M573 440l-387 953h381l240 -586l457 586h391l-723 -953l-80 -440h-358zM1198 1501q-78 0 -133 52t-55 128t55 128q55 53 133 53t132 -52t54 -129q0 -76 -54 -128t-132 -52zM727 1501q-78 0 -132 52t-54 128t54 128q54 53 132 53t133 -52t55 -129q0 -76 -55 -128t-133 -52
z" />
    <glyph glyph-name="Zacute" unicode="&#x179;" horiz-adv-x="1368" 
d="M1395 1176l-822 -867h678l-53 -309h-1200l37 217l835 866h-647l56 310h1151zM1364 1823l-320 -301h-335l235 301h420z" />
    <glyph glyph-name="zacute" unicode="&#x17a;" horiz-adv-x="1058" 
d="M1020 817l-510 -536h451l-52 -281h-923l28 164l529 549h-426l49 280h885zM1092 1448l-306 -301h-321l209 301h418z" />
    <glyph glyph-name="Zdotaccent" unicode="&#x17b;" horiz-adv-x="1368" 
d="M1395 1176l-822 -867h678l-53 -309h-1200l37 217l835 866h-647l56 310h1151zM869 1524q-77 0 -130 50t-53 126t53 126t130 50t130 -51t53 -125t-52 -125q-54 -51 -131 -51z" />
    <glyph glyph-name="zdotaccent" unicode="&#x17c;" horiz-adv-x="1058" 
d="M1020 817l-510 -536h451l-52 -281h-923l28 164l529 549h-426l49 280h885zM659 1126q-78 0 -133 52t-55 129q0 76 55 128t133 52q79 0 133 -52t54 -128q0 -77 -54 -129t-133 -52z" />
    <glyph glyph-name="Zcaron" unicode="&#x17d;" horiz-adv-x="1368" 
d="M1395 1176l-822 -867h678l-53 -309h-1200l37 217l835 866h-647l56 310h1151zM1008 1505h-289l-197 314h297l68 -121l119 121h309z" />
    <glyph glyph-name="zcaron" unicode="&#x17e;" horiz-adv-x="1058" 
d="M1020 817l-510 -536h451l-52 -281h-923l28 164l529 549h-426l49 280h885zM778 1147h-289l-196 313h297l67 -121l119 121h309z" />
    <glyph glyph-name="florin" unicode="&#x192;" horiz-adv-x="1187" 
d="M1044 1423q115 0 263 -37l-86 -260q-102 12 -169 12t-108 -40q-41 -41 -70 -135l-26 -84h319l-51 -295h-360l-54 -172q-139 -442 -499 -443q-117 0 -260 37l84 260q100 -12 168 -12q69 0 109 41t69 135l49 154h-232l52 295h272l33 102q135 442 497 442z" />
    <glyph glyph-name="Acaron" unicode="&#x1cd;" horiz-adv-x="1587" 
d="M887 991l-281 -469h389zM438 231l-135 -231h-379l871 1401h317l373 -1401h-367l-53 231h-627zM1128 1505h-288l-197 314h297l68 -121l118 121h310z" />
    <glyph glyph-name="acaron" unicode="&#x1ce;" horiz-adv-x="1284" 
d="M672 756q-125 0 -206 -85t-81 -222q0 -93 49 -149q50 -56 148 -56t215 86l73 415q-108 11 -198 11zM680 1024q158 0 563 -49l-172 -975h-332l13 68q-143 -98 -322 -98q-180 0 -294 142q-114 144 -66 385t212 384q165 143 398 143zM926 1147h-289l-197 313h297l68 -121
l119 121h309z" />
    <glyph glyph-name="Scommaaccent" unicode="&#x218;" horiz-adv-x="1363" 
d="M336 -262q0 72 55 123t131 51t130 -51t54 -111t-27 -114q-28 -52 -144 -228h-183l90 182q-106 43 -106 148zM799 1112q-101 0 -159 -35t-58 -98q0 -38 19 -55q31 -27 76 -40l50 -15q46 -12 137 -31q210 -49 310 -124t100 -243q0 -240 -178 -371t-484 -131t-604 121
l131 305q295 -119 510 -119q119 -2 181 34t62 90t-24 72q-26 20 -44 30t-50 18q-34 8 -56 14t-65 15q-259 48 -356 131q-98 82 -98 231q0 225 180 363t474 139q294 0 542 -92l-127 -299q-289 90 -469 90z" />
    <glyph glyph-name="scommaaccent" unicode="&#x219;" horiz-adv-x="1073" 
d="M199 -262q0 72 55 123t131 51t130 -51t54 -111q1 -60 -27 -114q-28 -52 -145 -228h-182l90 182q-106 43 -106 148zM490 227q144 0 143 64q-1 21 -17 32t-26 16q-12 6 -68 18l-42 9q-178 32 -257 95q-78 63 -78 172q1 187 133 289t358 102t421 -72l-107 -256
q-190 74 -326 74t-137 -76q0 -29 36 -43t87 -23q198 -33 279 -97q80 -64 80 -171q1 -188 -137 -289t-366 -101t-450 87l109 258q221 -88 365 -88z" />
    <glyph glyph-name="uni021A" unicode="&#x21a;" horiz-adv-x="1388" 
d="M578 -74q76 0 130 -51t54 -111t-28 -113q-28 -52 -144 -229h-182l90 183q-106 43 -107 147q0 72 55 123q56 51 132 51zM973 1083l-193 -1083h-346l193 1083h-461l53 310h1268l-53 -310h-461z" />
    <glyph glyph-name="uni021B" unicode="&#x21b;" horiz-adv-x="966" 
d="M416 -88q76 0 130 -51t54 -111t-28 -114q-28 -52 -144 -228h-182l90 182q-106 43 -107 148q-1 72 55 123t132 51zM500 -31q-172 0 -252 109t-43 313l51 305h-203l53 297h203l60 338h331l-57 -338h303l-53 -297h-303l-49 -272q-27 -158 114 -158q72 1 195 17l-16 -273
q-162 -41 -334 -41z" />
    <glyph glyph-name="circumflex" unicode="&#x2c6;" 
d="M758 1262l-117 -109h-309l303 295h289l200 -295h-297z" />
    <glyph glyph-name="caron" unicode="&#x2c7;" 
d="M877 1147h-289l-197 313h297l68 -121l118 121h310z" />
    <glyph glyph-name="breve" unicode="&#x2d8;" 
d="M692 1133q-150 0 -224 84t-46 231h231q-8 -47 14 -73t64 -25q93 0 111 98h231q-27 -147 -129 -231t-252 -84z" />
    <glyph glyph-name="dotaccent" unicode="&#x2d9;" 
d="M737 1126q-78 0 -133 52t-55 129q0 76 55 128t133 52t132 -52q55 -52 55 -128q0 -77 -54 -129t-133 -52z" />
    <glyph glyph-name="ring" unicode="&#x2da;" 
d="M761 1276q42 0 72 28q29 28 29 68t-23 64q-24 22 -67 22t-72 -28q-28 -28 -28 -68q2 -86 89 -86zM783 1612q117 0 183 -62t66 -170q0 -110 -81 -184t-198 -74t-185 62t-66 172q0 108 82 182t199 74z" />
    <glyph glyph-name="ogonek" unicode="&#x2db;" 
d="M561 -102q0 -59 86 -60q43 0 101 15l16 -230q-102 -33 -214 -33t-184 56t-73 147q0 199 301 293l125 -45q-158 -49 -158 -143z" />
    <glyph glyph-name="tilde" unicode="&#x2dc;" 
d="M922 1444h241q-18 -106 -70 -179q-95 -133 -248 -126q-67 2 -116 35l-70 45q-76 43 -90 -50h-241q18 107 70 179q93 130 247 125q66 -2 117 -33l69 -45q41 -23 63 -7t28 56z" />
    <glyph glyph-name="hungarumlaut" unicode="&#x2dd;" 
d="M1034 1153h-270l135 315h311zM659 1153h-272l135 315h312z" />
    <glyph glyph-name="commaaccentcomb" unicode="&#x326;" horiz-adv-x="0" 
d="M584 -74q76 0 130 -51t54 -111t-28 -113q-28 -52 -144 -229h-182l90 183q-106 43 -107 147q-1 72 55 123t132 51z" />
    <glyph glyph-name="Wgrave" unicode="&#x1e80;" horiz-adv-x="2181" 
d="M1628 0h-336l-137 819l-434 -819h-336l-195 1393h363l104 -852l447 852h287l139 -852l412 852h372zM1423 1522h-278l-246 301h408z" />
    <glyph glyph-name="wgrave" unicode="&#x1e81;" horiz-adv-x="1691" 
d="M1262 0h-320l-84 532l-278 -532h-318l-135 993h332l57 -561l293 561h250l90 -563l258 563h338zM1047 1147h-275l-217 301h406z" />
    <glyph glyph-name="Wacute" unicode="&#x1e82;" horiz-adv-x="2181" 
d="M1628 0h-336l-137 819l-434 -819h-336l-195 1393h363l104 -852l447 852h287l139 -852l412 852h372zM1772 1823l-320 -301h-336l236 301h420z" />
    <glyph glyph-name="wacute" unicode="&#x1e83;" horiz-adv-x="1691" 
d="M1262 0h-320l-84 532l-278 -532h-318l-135 993h332l57 -561l293 561h250l90 -563l258 563h338zM1442 1448l-305 -301h-322l207 301h420z" />
    <glyph glyph-name="Wdieresis" unicode="&#x1e84;" horiz-adv-x="2181" 
d="M1628 0h-336l-137 819l-434 -819h-336l-195 1393h363l104 -852l447 852h287l139 -852l412 852h372zM1526 1501q-78 0 -133 52t-56 128t55 128q56 53 134 53t132 -52t54 -129q0 -76 -54 -128t-132 -52zM1055 1501q-78 0 -132 52t-55 128q0 76 54 128q54 53 133 53
q78 0 133 -52t55 -129q0 -76 -55 -128t-133 -52z" />
    <glyph glyph-name="wdieresis" unicode="&#x1e85;" horiz-adv-x="1691" 
d="M1262 0h-320l-84 532l-278 -532h-318l-135 993h332l57 -561l293 561h250l90 -563l258 563h338zM1218 1468q77 0 131 -51t54 -125t-54 -125t-131 -51t-131 50q-53 50 -53 126t53 126q54 50 131 50zM749 1468q77 0 130 -51t53 -125t-53 -125t-130 -51t-131 50
q-53 50 -53 126t53 126q54 50 131 50z" />
    <glyph glyph-name="Ygrave" unicode="&#x1ef2;" horiz-adv-x="1525" 
d="M573 440l-387 953h381l240 -586l457 586h391l-723 -953l-80 -440h-358zM1096 1522h-279l-246 301h408z" />
    <glyph glyph-name="ygrave" unicode="&#x1ef3;" horiz-adv-x="1366" 
d="M1421 995l-936 -1454h-338l314 506l-336 948h358l203 -587l367 587h368zM684 1149l-217 301h405l86 -301h-274z" />
    <glyph glyph-name="uni2009" unicode="&#x2009;" horiz-adv-x="286" 
 />
    <glyph glyph-name="endash" unicode="&#x2013;" horiz-adv-x="1290" 
d="M1133 373h-1018l55 317h1018z" />
    <glyph glyph-name="emdash" unicode="&#x2014;" horiz-adv-x="2107" 
d="M1927 373h-1792l55 317h1795z" />
    <glyph glyph-name="quoteleft" unicode="&#x2018;" horiz-adv-x="671" 
d="M664 1130q0 -86 -64 -145t-152 -59q-89 0 -153 59q-63 59 -63 131t32 139q33 66 185 316h215l-125 -268q125 -51 125 -173z" />
    <glyph glyph-name="quoteright" unicode="&#x2019;" horiz-adv-x="671" 
d="M274 1382q0 86 64 146t152 59q88 0 152 -59t64 -132t-32 -139q-33 -66 -185 -315h-215l125 266q-125 55 -125 174z" />
    <glyph glyph-name="quotesinglbase" unicode="&#x201a;" horiz-adv-x="669" 
d="M61 172q-1 86 63 146t153 60t153 -60t64 -132t-34 -139q-34 -66 -184 -313h-215l125 266q-125 51 -125 172z" />
    <glyph glyph-name="quotedblleft" unicode="&#x201c;" horiz-adv-x="1144" 
d="M1137 1128q-1 -86 -63 -145t-152 -59t-153 59q-62 59 -62 131t32 138q33 65 183 317h217l-125 -266q123 -53 123 -175zM664 1128q0 -86 -64 -145t-152 -59q-89 0 -153 59q-63 59 -63 131t32 139q33 66 185 316h215l-125 -266q125 -55 125 -175z" />
    <glyph glyph-name="quotedblright" unicode="&#x201d;" horiz-adv-x="1150" 
d="M972 1589q89 0 152 -59q64 -59 64 -132q0 -72 -33 -138t-184 -316h-215l125 268q-125 51 -125 172q0 86 63 146q64 59 153 59zM274 1384q0 86 64 146t152 59q88 0 152 -59t64 -132q0 -72 -32 -138q-33 -66 -185 -316h-215l125 268q-125 51 -125 172z" />
    <glyph glyph-name="quotedblbase" unicode="&#x201e;" horiz-adv-x="1144" 
d="M535 -266l124 266q-123 51 -122 172q0 88 62 147q63 59 153 59t152 -58q62 -60 62 -134t-32 -138q-33 -65 -182 -314h-217zM61 172q-1 86 63 146t153 60t153 -60t64 -132t-34 -139q-34 -66 -184 -313h-215l125 266q-125 51 -125 172z" />
    <glyph glyph-name="dagger" unicode="&#x2020;" horiz-adv-x="825" 
d="M610 1042l-78 -434h-200l76 434h-230l35 201h229l41 230h203l-41 -230h229l-34 -201h-230z" />
    <glyph glyph-name="daggerdbl" unicode="&#x2021;" horiz-adv-x="825" 
d="M600 989h229l-34 -201h-230l-33 -180h-200l30 180h-229l35 201h229l21 107h-230l35 200h230l30 177h203l-31 -177h230l-37 -200h-230z" />
    <glyph glyph-name="bullet" unicode="&#x2022;" horiz-adv-x="778" 
d="M409 305q-134 0 -225 88q-90 88 -90 219t90 219q90 89 224 89t226 -88q91 -88 91 -220q0 -131 -91 -219t-225 -88z" />
    <glyph glyph-name="ellipsis" unicode="&#x2026;" horiz-adv-x="1748" 
d="M1356 -37q-90 1 -152 61t-63 148q0 88 62 147q63 59 153 59t153 -60t63 -147t-62 -147q-64 -60 -154 -61zM811 -37q-91 1 -153 61t-62 148t62 147t152 59t154 -60t64 -147t-64 -147t-153 -61zM276 -37q-90 1 -152 61t-63 148q1 88 63 147t152 59t154 -60t64 -147
t-64 -147t-154 -61z" />
    <glyph glyph-name="perthousand" unicode="&#x2030;" horiz-adv-x="3153" 
d="M2552 184q80 0 150 66t69 151q0 85 -45 129t-126 43t-150 -65q-68 -64 -68 -149t45 -130t125 -45zM1673 573q-81 -1 -149 -65t-68 -149t44 -130t125 -45t150 66t69 151t-46 129q-45 44 -125 43zM2648 791q158 -1 255 -95t97 -247q0 -207 -146 -343t-351 -137
q-158 0 -255 94t-98 250q0 205 146 341t352 137zM1720 791q158 -1 255 -95t98 -247q1 -209 -145 -345t-353 -135q-158 0 -254 94t-96 250q0 205 146 341t349 137zM844 1035q0 85 -45 129t-126 44t-150 -66t-69 -150q0 -85 46 -129t126 -44t149 66t69 150zM627 0h-166
l1210 1393h166zM719 1423q158 0 256 -94t98 -248q0 -207 -146 -343t-352 -136q-159 0 -255 94t-97 250q-1 207 145 342t351 135z" />
    <glyph glyph-name="guilsinglleft" unicode="&#x2039;" horiz-adv-x="772" 
d="M614 227l-219 -170l-325 453l467 444l165 -170l-296 -280z" />
    <glyph glyph-name="guilsinglright" unicode="&#x203a;" horiz-adv-x="770" 
d="M156 784l221 170l325 -450l-469 -447l-165 170l299 281z" />
    <glyph glyph-name="fraction" unicode="&#x2044;" horiz-adv-x="1103" 
d="M12 0h-168l1211 1393h166z" />
    <glyph glyph-name="zerosuperior" unicode="&#x2070;" horiz-adv-x="919" 
d="M344 961q0 -193 176 -193q88 0 158 74t70 169q0 191 -176 191q-88 0 -158 -73t-70 -168zM621 1411q168 0 264 -96t96 -254q0 -217 -145 -359t-365 -143q-168 0 -265 96t-97 256q0 217 146 359q147 141 366 141z" />
    <glyph glyph-name="foursuperior" unicode="&#x2074;" horiz-adv-x="831" 
d="M371 924h190l39 221zM784 924h111l-33 -189h-112l-29 -160h-221l26 160h-467l27 162l539 496h239z" />
    <glyph glyph-name="fivesuperior" unicode="&#x2075;" horiz-adv-x="745" 
d="M772 877q0 -139 -93 -229t-294 -91q-201 0 -342 70l102 188q139 -57 254 -57q143 0 144 84q0 59 -109 67l-264 13l125 471h534l-38 -205h-334l-23 -88l70 -2q268 -12 268 -221z" />
    <glyph glyph-name="sixsuperior" unicode="&#x2076;" horiz-adv-x="759" 
d="M307 861q1 -116 123 -116q60 0 107 43q47 44 47 100q0 116 -126 114q-62 0 -106 -43q-45 -42 -45 -98zM809 926q0 -164 -121 -270q-122 -106 -282 -107q-160 0 -242 76q-82 75 -82 195t100 239l281 334h266l-180 -211q121 -12 191 -80t69 -176z" />
    <glyph glyph-name="sevensuperior" unicode="&#x2077;" horiz-adv-x="688" 
d="M805 1255l-414 -680h-258l371 601h-367l39 217h653z" />
    <glyph glyph-name="eightsuperior" unicode="&#x2078;" horiz-adv-x="747" 
d="M422 743q47 0 82 27t35 65q0 37 -25 59q-24 22 -70 22t-84 -29q-37 -29 -36 -70q0 -74 98 -74zM586 1168q0 72 -90 71q-42 -1 -72 -27q-31 -26 -31 -65q0 -68 80 -68q51 0 82 27q31 28 31 62zM399 559q-163 0 -247 58t-84 155q0 164 194 229q-94 43 -94 151t105 184
t248 75q143 0 219 -55t77 -150q-1 -66 -31 -116t-120 -86q120 -49 120 -169t-112 -198t-275 -78z" />
    <glyph glyph-name="ninesuperior" unicode="&#x2079;" horiz-adv-x="759" 
d="M623 1109q1 116 -123 116q-62 0 -107 -43q-45 -44 -45 -100q0 -116 124 -114q62 0 106 43q45 42 45 98zM543 1421q139 1 222 -75t83 -195t-86 -225h2l-297 -348h-266l180 210q-121 12 -190 80t-68 176q0 164 120 270t300 107z" />
    <glyph glyph-name="zeroinferior" unicode="&#x2080;" horiz-adv-x="919" 
d="M182 17q0 -193 176 -193q88 0 158 74t70 169q0 191 -176 191q-88 0 -158 -73t-70 -168zM459 467q168 0 264 -96t96 -254q0 -217 -145 -359t-365 -143q-168 0 -265 96t-97 256q0 217 146 359q147 141 366 141z" />
    <glyph glyph-name="oneinferior" unicode="&#x2081;" horiz-adv-x="638" 
d="M506 -162l-39 -207h-547l39 207h145l62 340l-156 -37l-14 199l375 109h73l-106 -611h168z" />
    <glyph glyph-name="twoinferior" unicode="&#x2082;" horiz-adv-x="702" 
d="M268 250q-98 0 -237 -39l-8 201q166 53 314 53q148 -1 216 -63t68 -161q1 -99 -59 -179t-193 -179l-68 -51h266l-35 -201h-636l28 158l357 264q47 37 66 62t20 65q-1 70 -99 70z" />
    <glyph glyph-name="threeinferior" unicode="&#x2083;" horiz-adv-x="731" 
d="M598 -72q0 -141 -95 -227t-290 -86t-336 68l105 184q130 -55 258 -55t129 84q0 51 -78 51h-213l16 102l217 195h-303l35 205h621l-25 -130l-229 -200q94 -16 141 -67q47 -52 47 -124z" />
    <glyph glyph-name="fourinferior" unicode="&#x2084;" horiz-adv-x="831" 
d="M209 -20h190l39 221zM623 -20h110l-33 -189h-112l-29 -160h-221l27 160h-467l26 162l539 496h239z" />
    <glyph glyph-name="fiveinferior" unicode="&#x2085;" horiz-adv-x="745" 
d="M612 -68q0 -139 -93 -229t-293 -90t-343 70l103 188q139 -57 254 -57q143 0 143 84q0 59 -109 67l-264 12l125 472h535l-39 -205h-334l-23 -88l70 -2q268 -12 268 -222z" />
    <glyph glyph-name="sixinferior" unicode="&#x2086;" horiz-adv-x="759" 
d="M145 -83q1 -116 123 -116q60 0 107 43q47 44 47 100q0 116 -126 114q-62 0 -106 -43q-45 -42 -45 -98zM244 -395q-160 0 -242 76q-82 75 -82 195t100 239l281 334h266l-180 -211q121 -12 191 -80t69 -176q0 -164 -121 -270q-122 -106 -282 -107z" />
    <glyph glyph-name="seveninferior" unicode="&#x2087;" horiz-adv-x="688" 
d="M641 311l-414 -680h-258l371 600h-367l39 218h654z" />
    <glyph glyph-name="eightinferior" unicode="&#x2088;" horiz-adv-x="747" 
d="M162 -127q0 -74 98 -74q47 0 82 27t35 65q0 37 -25 59q-24 22 -70 22t-83 -30q-37 -28 -37 -69zM231 203q0 -68 80 -68q51 0 82 27q31 28 31 62t-24 52t-66 18t-72 -26q-31 -26 -31 -65zM625 -110q0 -120 -112 -197q-112 -78 -276 -78q-163 0 -247 58t-84 155
q0 164 194 229q-94 43 -94 151t106 184t248 75q142 0 219 -55t76 -150q-1 -66 -31 -116t-120 -87q121 -49 121 -169z" />
    <glyph glyph-name="nineinferior" unicode="&#x2089;" horiz-adv-x="759" 
d="M461 165q1 116 -123 116q-62 0 -107 -43q-45 -44 -45 -100q0 -116 124 -114q62 0 106 43q45 42 45 98zM381 477q139 1 222 -75t83 -195t-86 -225h2l-297 -349h-266l180 211q-121 12 -189 80t-69 176q0 164 120 270t300 107z" />
    <glyph glyph-name="Euro" unicode="&#x20ac;" horiz-adv-x="1482" 
d="M1073 1423q258 0 510 -82l-110 -299q-260 53 -400 54q-238 0 -371 -176h455l-78 -183h-461q-16 -54 -16 -104h434l-78 -182h-327q72 -156 278 -156q115 0 449 53v-295q-291 -84 -545 -84t-409 127t-177 355h-147l31 182h118q4 52 17 104h-117l31 183h143q102 233 307 368
t463 135z" />
    <glyph glyph-name="uni2116" unicode="&#x2116;" horiz-adv-x="2848" 
d="M1628 246h987l-43 -244h-987zM2220 643q112 0 195 83q84 83 84 212q1 92 -55 146t-168 54t-195 -81q-84 -82 -84 -211q0 -92 55 -148q56 -55 168 -55zM1604 1393l-246 -1393h-299l-518 809l-146 -809h-346l246 1393h307l508 -815l147 815h347zM2341 1425q223 -1 351 -121
t128 -323q0 -270 -189 -447t-477 -178q-221 0 -350 122t-129 327q-1 270 189 445t477 175z" />
    <glyph glyph-name="uni2117" unicode="&#x2117;" horiz-adv-x="1683" 
d="M944 924q-60 0 -96 -2l-31 -185h111q43 0 78 29t43 70q8 40 -18 64q-27 24 -87 24zM885 567h-99l-34 -202h-209l129 729l311 4q151 0 223 -69t50 -198t-131 -197q-110 -68 -240 -67zM883 1270q-250 0 -418 -165t-168 -409t168 -408t418 -165q249 0 417 165
q168 164 168 408t-168 409t-417 165zM883 1423q319 0 532 -208t213 -519t-213 -519t-532 -208t-534 208q-214 208 -214 519t214 519q215 208 534 208z" />
    <glyph glyph-name="trademark" unicode="&#x2122;" horiz-adv-x="1552" 
d="M1356 1014l-168 -264h-141l-74 264l-66 -264h-182l139 643h172l117 -389l258 389h174l-80 -643h-188zM768 1219h-195l-84 -469h-192l82 469h-197l33 174h584z" />
    <glyph glyph-name="oneeighth" unicode="&#x215b;" horiz-adv-x="1861" 
d="M1294 242q0 -74 100 -74q48 0 83 27t35 65t-26 58q-24 22 -71 22t-84 -29t-37 -69zM1444 504q53 0 84 26t31 62q0 35 -24 53q-23 19 -65 19t-73 -26t-31 -67q0 -67 78 -67zM1757 260q1 -121 -111 -199q-112 -77 -274 -77t-248 58q-84 58 -84 155q0 166 193 229
q-94 42 -94 150t105 184q106 76 248 76t219 -56t77 -149q0 -66 -30 -116t-122 -87q121 -47 121 -168zM1649 1393l-1209 -1393h-168l1211 1393h166zM119 575l39 207h145l62 340l-156 -37l-14 199l374 109h74l-106 -611h168l-39 -207h-547z" />
    <glyph glyph-name="threeeighths" unicode="&#x215c;" horiz-adv-x="1931" 
d="M1364 242q0 -74 99 -74q48 0 83 27t35 65t-25 58q-26 22 -72 22t-83 -29t-37 -69zM1436 571q0 -68 77 -67q53 0 84 26t31 62q0 70 -84 72q-48 0 -78 -26t-30 -67zM1827 260q0 -121 -112 -199q-113 -77 -275 -77t-246 58t-84 155q0 166 193 229q-94 43 -95 139
q0 119 106 195t248 76t219 -56t77 -149q0 -66 -30 -116t-122 -87q121 -47 121 -168zM481 0h-166l1209 1393h168zM801 872q0 -141 -95 -227t-290 -86t-336 68l104 184q131 -55 259 -55t128 84q0 51 -77 51h-213l16 102l217 195h-303l35 205h620l-24 -129l-230 -201
q94 -14 141 -67q48 -52 48 -124z" />
    <glyph glyph-name="fiveeighths" unicode="&#x215d;" horiz-adv-x="1933" 
d="M1368 242q0 -74 98 -74q47 0 82 27t35 65q-1 38 -25 58q-24 22 -71 22t-83 -29t-36 -69zM1438 571q0 -68 80 -67q52 0 82 26t30 62q0 70 -84 72q-48 0 -78 -27t-30 -66zM1831 259q0 -120 -112 -198q-111 -77 -275 -77t-248 58t-84 155q0 166 193 229q-94 43 -95 139
q0 119 106 195t250 76q142 0 219 -56t77 -149q0 -66 -31 -116t-121 -87q121 -49 121 -169zM489 0h-165l1210 1393h166zM412 557q-201 0 -342 70l102 188q139 -57 254 -57q143 0 143 84q0 59 -108 67l-264 13l125 471h534l-39 -205h-334l-22 -88l69 -2q268 -12 269 -221
q0 -139 -93 -229t-294 -91z" />
    <glyph glyph-name="seveneighths" unicode="&#x215e;" horiz-adv-x="1767" 
d="M1202 242q0 -74 98 -74q47 0 82 27t35 65q-1 38 -25 58q-24 22 -71 22t-83 -29t-36 -69zM1272 571q0 -68 80 -67q51 0 82 26q30 26 30 62q-1 70 -84 72q-48 0 -78 -27t-30 -66zM1665 259q0 -120 -112 -198q-111 -77 -275 -77t-248 58t-84 155q0 166 193 229
q-94 43 -95 139q0 119 106 195t250 76q142 0 219 -56t77 -149q0 -66 -31 -116t-121 -87q121 -49 121 -169zM838 1255l-414 -680h-258l371 601h-367l39 217h653zM309 0h-166l1211 1393h166z" />
    <glyph glyph-name="arrowleft" unicode="&#x2190;" horiz-adv-x="1538" 
d="M1491 844v-287h-879l355 -383l-215 -194l-674 720l663 707l215 -195l-342 -368h877z" />
    <glyph glyph-name="arrowup" unicode="&#x2191;" horiz-adv-x="1564" 
d="M631 0v877l-369 -342l-194 215l708 661l721 -674l-194 -215l-383 357v-879h-289z" />
    <glyph glyph-name="arrowright" unicode="&#x2192;" horiz-adv-x="1538" 
d="M68 844h876l-342 368l215 195l664 -707l-674 -720l-215 194l354 383h-878v287z" />
    <glyph glyph-name="arrowdown" unicode="&#x2193;" horiz-adv-x="1564" 
d="M631 1393h289v-879l383 356l194 -215l-721 -673l-708 661l194 215l369 -342v877z" />
    <glyph glyph-name="arrowupleft" unicode="&#x2196;" horiz-adv-x="1613" 
d="M434 408h-291v985h1014v-289h-522l911 -920l-194 -194l-918 911v-493z" />
    <glyph glyph-name="arrowupright" unicode="&#x2197;" horiz-adv-x="1619" 
d="M463 1104v289h1014v-985h-291v493l-918 -911l-192 194l911 920h-524z" />
    <glyph glyph-name="arrowdownright" unicode="&#x2198;" horiz-adv-x="1613" 
d="M1180 985h290v-985h-1013v289h524l-911 919l192 195l918 -911v493z" />
    <glyph glyph-name="arrowdownleft" unicode="&#x2199;" horiz-adv-x="1613" 
d="M1157 289v-289h-1014v985h291v-493l918 911l194 -195l-911 -919h522z" />
    <glyph glyph-name="minus" unicode="&#x2212;" horiz-adv-x="1370" 
d="M252 803h973l-45 -262h-973z" />
    <glyph glyph-name="triagup" unicode="&#x25b2;" horiz-adv-x="2166" 
d="M1034 1415l856 -1415h-1706z" />
    <glyph glyph-name="blackuppointingsmalltriangle" unicode="&#x25b4;" horiz-adv-x="1153" 
d="M578 1120l411 -682h-823z" />
    <glyph glyph-name="uni25B8" unicode="&#x25b8;" horiz-adv-x="1089" 
d="M952 692l-682 -413v823z" />
    <glyph glyph-name="triagdn" unicode="&#x25bc;" horiz-adv-x="2162" 
d="M2052 1393l-856 -1416l-850 1416h1706z" />
    <glyph glyph-name="uni25BE" unicode="&#x25be;" horiz-adv-x="1153" 
d="M1077 997l-411 -682l-412 682h823z" />
    <glyph glyph-name="uni25C2" unicode="&#x25c2;" horiz-adv-x="1089" 
d="M866 279l-682 413l682 410v-823z" />
    <glyph glyph-name="R.ss02" horiz-adv-x="1376" 
d="M754 702q106 0 184 71t78 162q0 173 -205 173l-219 -2l-72 -404h234zM842 1405q256 -1 390 -107t134 -304t-126 -344t-335 -201h-4l373 -449h-443l-339 408h-25l-72 -408h-344l244 1393q291 12 547 12z" />
    <glyph glyph-name="Racute.ss02" horiz-adv-x="1376" 
d="M754 702q108 0 186 71t78 162q0 173 -205 173l-221 -2l-72 -404h234zM843 1405q257 -1 390 -107t133 -304t-126 -344t-335 -201h-4l375 -449h-445l-339 408h-23l-72 -408h-346l244 1393q291 12 548 12zM1325 1823l-319 -301h-336l235 301h420z" />
    <glyph glyph-name="Rcaron.ss02" horiz-adv-x="1376" 
d="M754 702q108 0 186 71t78 162q0 173 -205 173l-221 -2l-72 -404h234zM843 1405q257 -1 390 -107t133 -304t-126 -344t-335 -201h-4l375 -449h-445l-339 408h-23l-72 -408h-346l244 1393q291 12 548 12zM969 1505h-289l-197 314h297l68 -121l119 121h309z" />
    <glyph glyph-name="Rcommaaccent.ss02" horiz-adv-x="1376" 
d="M549 -88q76 0 130 -51t54 -111q1 -60 -27 -114q-28 -52 -145 -228h-182l90 182q-106 43 -107 148q0 72 56 123t131 51zM754 702q108 0 186 71t78 162q0 173 -205 173l-221 -2l-72 -404h234zM843 1405q257 -1 390 -107t133 -304t-126 -344t-335 -201h-4l375 -449h-445
l-339 408h-23l-72 -408h-346l244 1393q291 12 548 12z" />
    <glyph glyph-name="Q.ss04" horiz-adv-x="1675" 
d="M1358 -106l-41 -285q-336 0 -682 63l31 222h692zM805 287q197 0 334 137t137 346q0 152 -89 243t-237 91q-197 0 -334 -136t-137 -345q-1 -152 89 -244t237 -92zM1006 1423q290 0 462 -166t172 -440q0 -369 -258 -609t-634 -239q-289 0 -461 166t-172 440q0 369 257 609
t634 239z" />
    <glyph glyph-name="i.loclTRK" horiz-adv-x="565" 
d="M537 993l-177 -993h-331l174 993h334zM426 1126q-78 0 -133 52t-55 129q0 76 55 128t133 52t132 -52t54 -128q0 -77 -54 -129t-132 -52z" />
    <glyph glyph-name="germandbls.case" horiz-adv-x="2650" 
d="M2087 1112q-101 0 -159 -35t-58 -98q0 -38 19 -55q31 -27 76 -40l50 -15q46 -12 137 -31q210 -49 310 -124t100 -243q0 -240 -178 -371t-484 -131t-604 121l131 305q295 -119 510 -119q119 -2 182 34q62 36 62 90q1 54 -25 72q-52 38 -90 47t-60 15t-64 15
q-260 49 -358 131q-97 82 -97 231q0 225 180 363t474 139q294 0 542 -92l-127 -299q-289 90 -469 90zM799 1112q-101 0 -159 -35t-58 -98q0 -38 19 -55q31 -27 76 -40l50 -15q46 -12 137 -31q210 -49 310 -124t100 -243q0 -240 -178 -371t-484 -131t-604 121l131 305
q295 -119 510 -119q119 -2 181 34t62 90t-24 72q-26 20 -44 30t-50 18q-34 8 -56 14t-65 15q-259 48 -356 131q-98 82 -98 231q0 225 180 363t474 139q294 0 542 -92l-127 -299q-289 90 -469 90z" />
    <glyph glyph-name="y.ss01" horiz-adv-x="1263" 
d="M424 -254q260 0 311 240q-166 -12 -297 -13q-186 -1 -280 95t-60 288l113 637h332l-99 -565q-34 -180 136 -180q61 0 204 10l129 735h332l-174 -993q-43 -244 -221 -389t-465 -146q-141 0 -346 52l90 270q225 -41 295 -41z" />
    <glyph glyph-name="yacute.ss01" horiz-adv-x="1263" 
d="M424 -254q260 0 311 240q-166 -12 -297 -13q-186 -1 -280 95t-60 288l113 637h332l-99 -565q-34 -180 136 -180q61 0 204 10l129 735h332l-174 -993q-43 -244 -221 -389t-465 -146q-141 0 -346 52l90 270q225 -41 295 -41zM1208 1448l-305 -301h-321l209 301h417z" />
    <glyph glyph-name="ycircumflex.ss01" horiz-adv-x="1263" 
d="M424 -254q260 0 311 240q-166 -12 -297 -13q-186 -1 -280 95t-60 288l113 637h332l-99 -565q-34 -180 136 -180q61 0 204 10l129 735h332l-174 -993q-43 -244 -221 -389t-465 -146q-141 0 -346 52l90 270q225 -41 295 -41zM799 1262l-117 -109h-309l303 295h289l200 -295
h-297z" />
    <glyph glyph-name="ydieresis.ss01" horiz-adv-x="1263" 
d="M424 -254q260 0 311 240q-166 -12 -297 -13q-186 -1 -280 95t-60 288l113 637h332l-99 -565q-34 -180 136 -180q61 0 204 10l129 735h332l-174 -993q-43 -244 -221 -389t-465 -146q-141 0 -346 52l90 270q225 -41 295 -41zM1007 1468q77 0 131 -51t54 -125t-54 -125
t-131 -51t-130 50t-54 126t53 126t131 50zM538 1468q77 0 130 -51t53 -125t-53 -125t-130 -51t-130 50t-54 126q0 76 54 126t130 50z" />
    <glyph glyph-name="ygrave.ss01" horiz-adv-x="1263" 
d="M424 -254q260 0 311 240q-166 -12 -297 -13q-186 -1 -280 95t-60 288l113 637h332l-99 -565q-34 -180 136 -180q61 0 204 10l129 735h332l-174 -993q-43 -244 -221 -389t-465 -146q-141 0 -346 52l90 270q225 -41 295 -41zM928 1147h-275l-217 301h406z" />
    <glyph glyph-name="a.ss03" horiz-adv-x="1193" 
d="M496 211q70 0 215 12l34 189l-231 -15q-154 -6 -154 -104q1 -82 136 -82zM383 -31q-162 0 -253 74t-91 201q0 350 493 374l250 13l2 6q10 59 -17 89q-28 30 -103 30q-143 0 -416 -37l12 264q317 49 467 49q215 2 314 -104t69 -279l-111 -629q-375 -51 -616 -51z" />
    <glyph glyph-name="aacute.ss03" horiz-adv-x="1193" 
d="M496 211q70 0 217 12l32 189l-231 -15q-154 -6 -154 -104q1 -82 136 -82zM381 -31q-160 0 -251 74t-91 201q0 350 493 374l250 13l2 6q10 59 -17 89q-28 30 -105 30q-145 0 -414 -37l12 264q317 49 467 49q215 2 313 -104t70 -279l-111 -629q-375 -51 -618 -51z
M1169 1448l-305 -301h-321l209 301h417z" />
    <glyph glyph-name="abreve.ss03" horiz-adv-x="1193" 
d="M496 211q70 0 217 12l32 189l-231 -15q-154 -6 -154 -104q1 -82 136 -82zM381 -31q-160 0 -251 74t-91 201q0 350 493 374l250 13l2 6q10 59 -17 89q-28 30 -105 30q-145 0 -414 -37l12 264q317 49 467 49q215 2 313 -104t70 -279l-111 -629q-375 -51 -618 -51zM706 1133
q-150 0 -223 84q-74 84 -47 231h232q-8 -47 14 -73t63 -25q93 0 111 98h231q-27 -147 -129 -231t-252 -84z" />
    <glyph glyph-name="acaron.ss03" horiz-adv-x="1193" 
d="M496 211q70 0 217 12l32 189l-231 -15q-154 -6 -154 -104q1 -82 136 -82zM381 -31q-160 0 -251 74t-91 201q0 350 493 374l250 13l2 6q10 59 -17 89q-28 30 -105 30q-145 0 -414 -37l12 264q317 49 467 49q215 2 313 -104t70 -279l-111 -629q-375 -51 -618 -51zM856 1147
h-289l-196 313h297l67 -121l119 121h309z" />
    <glyph glyph-name="acircumflex.ss03" horiz-adv-x="1193" 
d="M496 211q70 0 217 12l32 189l-231 -15q-154 -6 -154 -104q1 -82 136 -82zM381 -31q-160 0 -251 74t-91 201q0 350 493 374l250 13l2 6q10 59 -17 89q-28 30 -105 30q-145 0 -414 -37l12 264q317 49 467 49q215 2 313 -104t70 -279l-111 -629q-375 -51 -618 -51zM758 1262
l-117 -109h-309l303 295h289l200 -295h-297z" />
    <glyph glyph-name="adieresis.ss03" horiz-adv-x="1193" 
d="M496 211q70 0 217 12l32 189l-231 -15q-154 -6 -154 -104q1 -82 136 -82zM381 -31q-160 0 -251 74t-91 201q0 350 493 374l250 13l2 6q10 59 -17 89q-28 30 -105 30q-145 0 -414 -37l12 264q317 49 467 49q215 2 313 -104t70 -279l-111 -629q-375 -51 -618 -51zM968 1468
q77 0 131 -51t54 -125t-54 -125t-131 -51t-130 50t-54 126q0 76 54 126t130 50zM499 1468q77 0 130 -51t53 -125t-53 -125t-130 -51t-130 50t-54 126t53 126t131 50z" />
    <glyph glyph-name="agrave.ss03" horiz-adv-x="1193" 
d="M496 211q70 0 217 12l32 189l-231 -15q-154 -6 -154 -104q1 -82 136 -82zM381 -31q-160 0 -251 74t-91 201q0 350 493 374l250 13l2 6q10 59 -17 89q-28 30 -105 30q-145 0 -414 -37l12 264q317 49 467 49q215 2 313 -104t70 -279l-111 -629q-375 -51 -618 -51zM889 1147
h-275l-217 301h406z" />
    <glyph glyph-name="amacron.ss03" horiz-adv-x="1193" 
d="M496 211q70 0 217 12l32 189l-231 -15q-154 -6 -154 -104q1 -82 136 -82zM381 -31q-160 0 -251 74t-91 201q0 350 493 374l250 13l2 6q10 59 -17 89q-28 30 -105 30q-145 0 -414 -37l12 264q317 49 467 49q215 2 313 -104t70 -279l-111 -629q-375 -51 -618 -51z
M1049 1417l-45 -254h-588l45 254h588z" />
    <glyph glyph-name="aogonek.ss03" horiz-adv-x="1193" 
d="M360 293q0 -82 136 -82q70 0 217 12l32 189l-231 -15q-154 -6 -154 -104zM930 -182q43 0 100 14l17 -229q-102 -33 -214 -33t-185 56t-73 147q0 125 125 211q-156 -14 -318 -14t-252 73q-91 74 -91 201q0 350 493 374l250 13l2 6q10 59 -17 89q-28 30 -105 30
q-145 0 -414 -37l12 264q317 49 467 49q215 2 313 -104t70 -279l-109 -629q-158 -49 -157 -143q0 -59 86 -59z" />
    <glyph glyph-name="aring.ss03" horiz-adv-x="1193" 
d="M496 211q70 0 217 12l32 189l-231 -15q-154 -6 -154 -104q1 -82 136 -82zM381 -31q-160 0 -251 74t-91 201q0 350 493 374l250 13l2 6q10 59 -17 89q-28 30 -105 30q-145 0 -414 -37l12 264q317 49 467 49q215 2 313 -104t70 -279l-111 -629q-375 -51 -618 -51zM718 1276
q42 0 72 28t30 68t-24 64q-24 22 -67 22t-72 -28t-29 -68q2 -86 90 -86zM740 1612q118 0 184 -62t66 -170q0 -110 -82 -184q-81 -74 -198 -74q-116 0 -184 62t-68 172q0 108 83 182q82 74 199 74z" />
    <glyph glyph-name="atilde.ss03" horiz-adv-x="1193" 
d="M496 211q70 0 217 12l32 189l-231 -15q-154 -6 -154 -104q1 -82 136 -82zM381 -31q-160 0 -251 74t-91 201q0 350 493 374l250 13l2 6q10 59 -17 89q-28 30 -105 30q-145 0 -414 -37l12 264q317 49 467 49q215 2 313 -104t70 -279l-111 -629q-375 -51 -618 -51zM930 1444
h241q-18 -106 -70 -179q-95 -133 -248 -126q-67 2 -116 35l-69 45q-41 23 -63 7t-27 -57h-242q18 107 70 179q94 130 247 125q66 -2 117 -33l70 -45q40 -23 62 -7t28 56z" />
    <glyph glyph-name="f_b" horiz-adv-x="2148" 
d="M1497 244q113 0 193 88t79 223q0 92 -49 146q-49 55 -144 55t-206 -17l-86 -481q100 -14 213 -14zM1679 1024q205 0 314 -123t98 -330q-18 -274 -189 -438t-404 -164t-589 51l213 1207q-121 45 -223 45q-233 0 -270 -209l-13 -70h336l-51 -297h-336l-123 -696h-331
l122 696h-196l51 297h197l18 94q41 231 199 355t399 123q119 0 287 -62l313 -16l-86 -481q155 18 264 18z" />
    <glyph glyph-name="f_f_b" horiz-adv-x="2942" 
d="M2566 553q0 91 -50 147t-145 56q-94 0 -208 -17l-84 -481q98 -14 212 -14q115 0 195 88t80 221zM909 1272q-245 0 -282 -217l-11 -62h480l16 94q10 55 25 95q-107 90 -228 90zM1698 1565q115 0 287 -62l311 -16l-86 -481q152 18 264 18q208 0 316 -124t98 -333
q-18 -268 -192 -433t-404 -165t-588 51l213 1207q-119 45 -221 45q-221 0 -256 -209l-13 -70h322l-53 -297h-322l-123 -696h-331l122 696h-479l-123 -696h-331l122 696h-196l53 297h197l12 74q41 229 216 363t399 135q224 0 388 -129q158 129 398 129z" />
    <glyph glyph-name="f_f_f" horiz-adv-x="2467" 
d="M1712 1272q-236 0 -272 -217l-13 -62h480l18 115l19 78q-105 86 -232 86zM901 1272q-236 0 -272 -217l-13 -62h480l12 74q8 51 33 113q-111 92 -240 92zM916 1565q228 0 401 -142q170 141 418 142q203 0 364 -119q135 119 328 119q86 0 207 -23l-86 -270q-51 8 -109 8
q-150 0 -182 -176l-19 -111h308l-52 -297h-309l-121 -696h-331l120 696h-479l-121 -696h-331l120 696h-479l-121 -696h-331l120 696h-196l53 297h197l12 74q41 229 216 363t403 135z" />
    <glyph glyph-name="f_f_h" horiz-adv-x="2938" 
d="M912 1272q-244 0 -285 -217l-11 -62h480l14 76q14 76 29 113q-105 90 -227 90zM2511 1024q182 0 276 -105t64 -278l-113 -641h-334l97 543q16 90 -22 135t-116 45t-202 -18l-125 -705h-334l217 1227q-121 45 -223 45q-219 0 -256 -209l-13 -70h322l-51 -297h-322
l-123 -696h-331l122 696h-479l-123 -696h-331l122 696h-196l51 297h197l14 74q41 229 216 363t397 135q222 0 391 -129q158 129 397 129q117 0 285 -62l313 -16l-86 -486q176 23 299 23z" />
    <glyph glyph-name="f_f_j" horiz-adv-x="2193" 
d="M901 1272q-236 0 -272 -217l-13 -62h480l12 74q12 63 33 113q-111 92 -240 92zM918 1565q228 0 399 -142q170 141 420 141t434 -182l-203 -215q-117 104 -256 105q-236 0 -272 -217l-13 -62h758l-168 -946q-23 -131 -57 -217q-82 -203 -272 -265q-109 -36 -269 -38
l29 276q123 -1 167 49t64 164l119 680h-424l-121 -696h-331l120 696h-479l-121 -696h-331l120 696h-196l53 297h197l12 74q41 229 217 363t404 135z" />
    <glyph glyph-name="f_f_k" horiz-adv-x="2910" 
d="M910 1272q-244 0 -281 -217l-13 -62h480l14 82q12 63 29 107q-109 90 -229 90zM1696 1272q-219 0 -256 -209l-13 -70h322l-51 -297h-322l-123 -696h-331l122 696h-479l-123 -696h-331l122 696h-196l51 297h197l14 74q41 229 216 363t399 135q224 0 389 -129
q154 129 397 129q117 0 285 -62l313 -16l-148 -834h45l353 340h387l-430 -415l284 -578h-381l-159 346h-152l-61 -346h-334l217 1227q-119 45 -223 45z" />
    <glyph glyph-name="f_f_t" horiz-adv-x="2525" 
d="M901 1272q-236 0 -272 -217l-13 -62h480l20 119l19 74q-109 86 -234 86zM1616 1565q102 0 207 -25l-84 -268q-51 8 -111 8q-150 0 -182 -176l-19 -111h441l57 338h334l-59 -338h305l-54 -297h-305l-47 -272q-29 -158 115 -158q72 0 194 17l-16 -273q-162 -41 -334 -41
t-252 109t-45 313l54 305h-441l-121 -696h-331l120 696h-479l-121 -696h-331l120 696h-196l53 297h197l12 74q41 229 216 363t395 135q220 0 380 -119q135 119 328 119z" />
    <glyph glyph-name="f_h" horiz-adv-x="2127" 
d="M1700 1024q182 0 276 -105t64 -278l-113 -641h-334l97 543q16 90 -22 135t-116 45t-202 -18l-125 -705h-334l217 1227q-121 45 -223 45q-219 0 -256 -209l-13 -70h322l-51 -297h-322l-123 -696h-331l122 696h-196l51 297h197l16 94q41 229 198 353t390 125q117 0 285 -62
l313 -16l-86 -486q176 23 299 23z" />
    <glyph glyph-name="f_j" horiz-adv-x="1382" 
d="M933 1565q243 0 427 -183l-203 -215q-117 104 -256 105q-236 0 -272 -217l-13 -62h758l-168 -946q-24 -131 -58 -217q-82 -203 -271 -265q-109 -36 -269 -38l29 276q123 -1 167 49t64 164l119 680h-424l-121 -696h-331l120 696h-196l53 297h197l12 74q41 229 217 363
t419 135z" />
    <glyph glyph-name="f_k" horiz-adv-x="2099" 
d="M885 1272q-219 0 -256 -209l-13 -70h322l-51 -297h-322l-123 -696h-331l122 696h-196l51 297h197l18 94q39 229 196 353t390 125q117 0 285 -62l313 -16l-148 -834h45l353 340h387l-430 -434l284 -559h-381l-172 346h-139l-61 -346h-334l217 1227q-119 45 -223 45z" />
    <glyph glyph-name="f_t" horiz-adv-x="1728" 
d="M1262 -31q-172 0 -252 109t-45 313l53 305h-455l-121 -696h-331l120 696h-196l53 297h197l22 129q37 211 172 327t328 116q100 0 205 -25l-84 -268q-51 8 -111 8q-150 0 -182 -176l-19 -111h455l57 338h334l-59 -338h305l-53 -297h-305l-47 -272q-29 -158 112 -158
q72 1 197 17l-19 -273q-159 -41 -331 -41z" />
    <glyph glyph-name="r_f" horiz-adv-x="1595" 
d="M1556 1565q84 0 205 -23l-84 -270q-51 8 -110 8q-150 0 -181 -176l-20 -111h307l-51 -297h-307l-125 -696h-332l123 690q-264 0 -506 -18l-119 -672h-331l163 928q303 53 846 65l23 129q37 211 173 327t326 116z" />
    <glyph glyph-name="r_t" horiz-adv-x="1652" 
d="M1356 266q70 0 194 17l-16 -273q-162 -41 -334 -41t-253 109t-46 313l57 320q-252 0 -479 -19l-123 -692h-331l165 948q369 55 822 64l57 319h332l-58 -317h306l-52 -297h-305l-51 -293q-29 -158 115 -158z" />
    <glyph glyph-name="zero.osf" horiz-adv-x="1312" 
d="M616 262q138 0 238 102t100 250q0 106 -65 172q-66 66 -166 66q-139 0 -239 -100t-101 -252q1 -106 67 -172t166 -66zM772 1139q224 0 360 -131t136 -346q0 -295 -203 -491t-498 -196q-223 0 -360 131t-137 347q0 295 204 491t498 195z" />
    <glyph glyph-name="one.osf" horiz-adv-x="1034" 
d="M985 281l-49 -281h-956l49 281h323l76 440l-328 -76l-12 295l635 174h108l-145 -833h299z" />
    <glyph glyph-name="two.osf" horiz-adv-x="1122" 
d="M646 1128q208 0 321 -90t113 -229t-97 -257q-96 -118 -326 -255l-24 -14h387l-49 -283h-967l39 225l238 123q266 141 354 220t88 149q0 111 -170 110q-109 0 -383 -55l2 287q266 69 474 69z" />
    <glyph glyph-name="three.osf" horiz-adv-x="1222" 
d="M1100 207q0 -233 -161 -375t-466 -143q-305 0 -534 114l137 250q211 -96 428 -96q139 0 216 55t77 150q1 61 -63 97t-177 36h-256l25 139l399 383h-547l49 295h981l-32 -180l-416 -402h16q158 -20 241 -106t83 -217z" />
    <glyph glyph-name="four.osf" horiz-adv-x="1339" 
d="M399 254h392l79 465zM1100 254h160l-46 -254h-159l-49 -279h-310l49 279h-780l37 211l940 903h309z" />
    <glyph glyph-name="five.osf" horiz-adv-x="1234" 
d="M1108 233q0 -235 -167 -389t-449 -154t-539 117l135 267q229 -98 414 -99q129 -1 208 57t78 150q0 135 -249 148l-389 18l202 766h856l-51 -303h-567l-55 -205l122 -6q217 -14 334 -108t117 -259z" />
    <glyph glyph-name="six.osf" horiz-adv-x="1271" 
d="M608 246q120 0 211 84q90 84 90 213q0 94 -62 150q-62 57 -183 57t-210 -82t-89 -194q-1 -228 243 -228zM1227 582q0 -266 -196 -440t-488 -173q-227 0 -362 122q-134 122 -134 327t162 381l498 594h380l-329 -387q217 -10 343 -124t126 -300z" />
    <glyph glyph-name="seven.osf" horiz-adv-x="1150" 
d="M1190 924l-729 -1203h-369l664 1088h-645l53 305h1059z" />
    <glyph glyph-name="eight.osf" horiz-adv-x="1333" 
d="M401 404q1 -74 59 -118q58 -42 170 -42t191 57q80 57 80 145q0 60 -60 108t-167 48t-190 -62t-83 -136zM543 987q0 -153 190 -151q94 0 163 55t69 143q-1 57 -51 95t-142 38t-160 -53t-69 -127zM1247 433q0 -204 -187 -334t-491 -130q-246 -1 -387 97t-141 262
q0 276 334 395q-160 78 -160 250q0 199 175 325q174 126 412 125q238 0 367 -94t129 -250q0 -247 -266 -356q215 -86 215 -290z" />
    <glyph glyph-name="nine.osf" horiz-adv-x="1320" 
d="M412 571q0 -94 61 -150t182 -56q121 1 211 83t90 192t-62 170q-62 58 -182 58t-210 -84t-90 -213zM776 1145q228 0 362 -122q134 -123 134 -315t-162 -393l-471 -594h-385l311 388q-219 7 -346 121t-127 302q0 266 196 440t488 173z" />
    <glyph glyph-name="zero.osf.zero" horiz-adv-x="1312" 
d="M618 262q136 0 236 102t100 250q0 16 -4 50l-489 -347q65 -55 157 -55zM723 852q-137 0 -239 -100t-101 -252q0 -27 2 -39l483 342q-59 49 -145 49zM772 1139q224 0 360 -131t136 -346q0 -295 -203 -491t-498 -196q-223 0 -360 131t-137 347q0 295 204 491t498 195z" />
    <glyph glyph-name="three.ss05" horiz-adv-x="1230" 
d="M1145 444q0 -215 -171 -345t-468 -130q-240 0 -498 101l125 274q221 -80 416 -80q115 0 185 49t71 115q0 66 -54 100q-54 33 -143 33h-262l49 268h262q102 0 167 44q65 43 65 113t-51 106t-138 36q-195 0 -442 -79l-29 274q291 100 525 100t360 -96q127 -97 127 -249
t-82 -244t-217 -134q96 -29 150 -94q53 -66 53 -162z" />
    <glyph glyph-name="zero.tf" horiz-adv-x="1331" 
d="M621 270q152 0 257 150t105 371q0 151 -58 241t-159 90q-154 0 -259 -148t-106 -372q0 -152 59 -242t161 -90zM821 1423q229 0 363 -158q133 -159 133 -427q0 -375 -217 -622t-537 -247q-229 0 -362 160t-133 424q0 377 217 623t536 247z" />
    <glyph glyph-name="one.tf" horiz-adv-x="1331" 
d="M1147 0h-1108l51 281h389l131 745l-325 -76l-21 269l633 174h111l-197 -1112h387z" />
    <glyph glyph-name="two.tf" horiz-adv-x="1331" 
d="M864 967q0 149 -172 149t-409 -76l-23 285q291 98 511 98t335 -105t115 -272q-1 -166 -101 -300t-305 -297l-194 -164h544l-51 -285h-1069l41 225l535 426q141 111 192 172t51 144z" />
    <glyph glyph-name="three.tf" horiz-adv-x="1331" 
d="M1223 494q0 -236 -168 -380q-169 -144 -465 -144t-527 114l146 262q215 -96 418 -96q133 0 205 52t71 142q0 54 -60 90t-163 35h-262l24 144l385 377h-526l51 303h977l-33 -189l-387 -389l17 -2q135 -8 216 -99t81 -220z" />
    <glyph glyph-name="four.tf" horiz-adv-x="1331" 
d="M442 498h389l89 485zM1141 498h162l-50 -269h-159l-41 -229h-310l41 229h-780l43 238l942 926h309z" />
    <glyph glyph-name="five.tf" horiz-adv-x="1331" 
d="M1221 512q1 -233 -177 -388t-466 -155t-519 117l142 266q229 -98 385 -98t233 57q76 57 76 148q0 133 -231 145l-404 21l205 768h856l-55 -310h-566l-49 -198l119 -6q215 -11 333 -107t118 -260z" />
    <glyph glyph-name="six.tf" horiz-adv-x="1331" 
d="M628 246q120 0 210 84t90 213q0 94 -62 150q-62 57 -182 57q-121 0 -211 -83t-90 -193t62 -170q63 -58 183 -58zM1247 582q0 -266 -195 -440q-196 -173 -489 -173q-229 0 -362 122t-133 327t161 381l498 594h395l-329 -389q211 -10 333 -124t121 -298z" />
    <glyph glyph-name="seven.tf" horiz-adv-x="1331" 
d="M1333 1198l-721 -1198h-372l661 1083h-645l55 310h1057z" />
    <glyph glyph-name="eight.tf" horiz-adv-x="1331" 
d="M688 602q-108 0 -190 -62t-82 -136t58 -118q58 -42 170 -42q110 0 191 57t80 145q0 60 -60 108t-167 48zM555 987q0 -153 190 -151q94 0 163 55t69 143q0 57 -50 95t-142 38t-161 -53t-69 -127zM1262 432q0 -203 -188 -333t-490 -130q-246 -1 -387 97t-142 262
q0 276 334 395q-160 78 -160 250q0 199 175 325t413 125q238 0 367 -94t129 -250q0 -247 -266 -356q215 -88 215 -291z" />
    <glyph glyph-name="nine.tf" horiz-adv-x="1331" 
d="M485 850q-1 -94 61 -150t183 -57q121 0 211 83q90 84 90 194t-61 168t-182 59q-121 0 -211 -84t-91 -213zM850 1423q229 1 363 -121q135 -122 135 -314t-162 -394l-471 -594h-387l311 387q-219 8 -345 122t-126 302q0 266 194 439q195 173 488 173z" />
    <glyph glyph-name="zero.zero" horiz-adv-x="1511" 
d="M711 270q180 0 302 148t122 368q0 103 -29 166l-549 -635q59 -47 154 -47zM862 1122q-180 0 -303 -147t-123 -371q0 -80 17 -133l538 621q-55 30 -129 30zM915 1423q256 0 405 -160q148 -161 148 -429q0 -375 -231 -620t-580 -245q-258 0 -405 161t-148 429
q0 375 232 619t579 245z" />
    <glyph glyph-name="zero.dnom" horiz-adv-x="919" 
d="M420 193q88 -1 158 73t69 187q0 78 -44 126t-132 48t-158 -73q-69 -73 -69 -168t44 -144t132 -49zM520 836q168 0 264 -96t97 -255q1 -217 -145 -359t-365 -142q-168 0 -266 96q-97 96 -97 256q0 216 146 358t366 142z" />
    <glyph glyph-name="one.dnom" horiz-adv-x="638" 
d="M567 207l-39 -207h-546l38 207h146l61 340l-155 -37l-15 199l375 108h74l-107 -610h168z" />
    <glyph glyph-name="two.dnom" horiz-adv-x="702" 
d="M428 549q0 122 -336 31l-8 200q166 54 314 54t216 -62t68 -162t-59 -180t-193 -178l-68 -51h267l-35 -201h-637l29 158l356 264q47 37 67 61q19 25 19 66z" />
    <glyph glyph-name="three.dnom" horiz-adv-x="731" 
d="M659 297q0 -141 -95 -227q-96 -86 -290 -86t-335 67l104 185q131 -56 259 -56t128 84q0 51 -78 51h-213l17 103l217 194h-303l34 205h621l-25 -129l-229 -201q94 -16 141 -67t47 -123z" />
    <glyph glyph-name="four.dnom" horiz-adv-x="831" 
d="M270 348h191l39 221zM684 348h111l-33 -188h-113l-28 -160h-222l27 160h-467l27 162l538 495h240z" />
    <glyph glyph-name="five.dnom" horiz-adv-x="745" 
d="M674 301q0 -139 -93 -229t-294 -90t-342 69l102 189q139 -58 268 -58t129 84q0 59 -108 68l-264 12l125 471h534l-39 -205h-334l-22 -88l70 -2q268 -12 268 -221z" />
    <glyph glyph-name="six.dnom" horiz-adv-x="759" 
d="M207 286q1 -116 123 -116q60 0 106 43t47 99q-1 114 -125 114q-62 0 -106 -42q-45 -42 -45 -98zM709 350q0 -164 -121 -270q-122 -106 -282 -106t-243 75q-81 76 -81 196t100 238l280 334h267l-180 -211q121 -12 191 -80t69 -176z" />
    <glyph glyph-name="seven.dnom" horiz-adv-x="688" 
d="M702 680l-413 -680h-258l370 600h-366l39 217h653z" />
    <glyph glyph-name="eight.dnom" horiz-adv-x="747" 
d="M223 242q0 -74 98 -74q47 0 82 27t35 65t-24 58q-24 22 -71 22q-46 0 -83 -29t-37 -69zM293 571q0 -68 80 -67q51 0 82 26t31 62q-1 70 -85 72q-47 0 -77 -27t-31 -66zM686 259q0 -120 -112 -198q-112 -77 -276 -77t-247 58q-84 58 -84 155q0 164 195 229q-94 42 -94 150
t105 184t247 76t220 -56q77 -56 77 -149q0 -66 -31 -116t-121 -87q121 -49 121 -169z" />
    <glyph glyph-name="nine.dnom" horiz-adv-x="759" 
d="M248 508q0 -114 123 -115q61 0 106 42q45 43 45 99q0 118 -122 116q-62 0 -107 -44q-45 -42 -45 -98zM748 576q0 -118 -86 -226h2l-297 -348h-267l181 211q-121 12 -190 80t-68 176q0 164 119 270q120 107 280 107t242 -76q84 -76 84 -194z" />
    <glyph glyph-name="zero.numr" horiz-adv-x="919" 
d="M346 961q0 -193 176 -193q88 0 158 74t70 169q0 191 -176 191q-88 0 -158 -73t-70 -168zM623 1411q168 0 264 -96t96 -254q0 -217 -145 -359t-365 -143q-168 0 -265 96t-97 256q0 217 146 359q147 141 366 141z" />
    <glyph glyph-name="one.numr" horiz-adv-x="638" 
d="M649 782l-39 -207h-547l39 207h146l61 340l-155 -37l-15 199l375 109h74l-107 -611h168z" />
    <glyph glyph-name="two.numr" horiz-adv-x="702" 
d="M518 1124q0 70 -98 70t-238 -39l-8 201q166 53 314 53t217 -62q67 -61 67 -161t-59 -180t-193 -179l-67 -51h266l-35 -201h-637l29 158l356 264q47 37 67 62q19 25 19 65z" />
    <glyph glyph-name="three.numr" horiz-adv-x="731" 
d="M758 872q0 -141 -95 -227t-290 -86t-336 68l104 184q131 -55 259 -55t128 84q0 51 -77 51h-213l16 102l217 195h-303l35 205h620l-24 -129l-230 -201q94 -14 141 -67q48 -52 48 -124z" />
    <glyph glyph-name="four.numr" horiz-adv-x="831" 
d="M367 924h190l39 221zM780 924h111l-33 -189h-113l-28 -160h-221l26 160h-467l27 162l539 496h239z" />
    <glyph glyph-name="five.numr" horiz-adv-x="745" 
d="M768 877q0 -139 -93 -229t-294 -91q-201 0 -342 70l102 188q139 -57 254 -57q143 0 144 84q0 59 -109 67l-264 13l125 471h534l-39 -205h-333l-23 -88l70 -2q268 -12 268 -221z" />
    <glyph glyph-name="six.numr" horiz-adv-x="759" 
d="M307 861q1 -116 123 -116q60 0 107 43q47 44 47 100q0 116 -126 114q-62 0 -106 -43q-45 -42 -45 -98zM809 926q0 -164 -121 -270q-122 -106 -282 -107q-160 0 -242 76q-82 75 -82 195t100 239l281 334h266l-180 -211q121 -12 191 -80t69 -176z" />
    <glyph glyph-name="seven.numr" horiz-adv-x="688" 
d="M803 1255l-414 -680h-258l371 601h-367l39 217h653z" />
    <glyph glyph-name="eight.numr" horiz-adv-x="747" 
d="M422 743q47 0 82 27t35 65q0 37 -25 59q-24 22 -70 22t-84 -29q-37 -29 -36 -70q0 -74 98 -74zM586 1168q0 72 -90 71q-42 -1 -72 -27q-31 -26 -31 -65q0 -68 80 -68q51 0 82 27q31 28 31 62zM399 559q-163 0 -247 58t-84 155q0 164 194 229q-94 43 -94 151t105 184
t248 75q143 0 219 -55t77 -150q-1 -66 -31 -116t-120 -86q120 -49 120 -169t-112 -198t-275 -78z" />
    <glyph glyph-name="nine.numr" horiz-adv-x="759" 
d="M623 1109q1 116 -123 116q-62 0 -107 -43q-45 -44 -45 -100q0 -116 124 -114q62 0 106 43q45 42 45 98zM543 1421q139 1 222 -75t83 -195t-86 -225h2l-297 -348h-266l180 210q-121 12 -190 80t-68 176q0 164 120 270t300 107z" />
    <glyph glyph-name="braceleft.case" horiz-adv-x="800" 
d="M686 1151l-37 -209q-20 -117 -68 -173t-165 -91q92 -28 125 -94t14 -181l-39 -208q-12 -72 15 -90q28 -17 128 -17l-57 -309q-242 -1 -346 111t-70 317l45 244q12 70 -19 86q-32 16 -138 16l49 264q86 0 134 29t60 98l43 244q35 205 170 304t396 99l-58 -309
q-84 0 -127 -30t-55 -101z" />
    <glyph glyph-name="braceright.case" horiz-adv-x="798" 
d="M180 219l37 209q21 117 69 173t165 91q-92 28 -125 94t-15 181l39 209q12 72 -15 89q-28 17 -128 17l57 309q242 1 346 -111t70 -317l-45 -243q-13 -70 19 -86t139 -17l-50 -264q-86 0 -134 -29t-60 -98l-43 -244q-35 -205 -170 -304t-395 -99l57 309q84 0 127 30t55 101
z" />
    <glyph glyph-name="bracketleft.case" horiz-adv-x="784" 
d="M367 125h297l-54 -309h-630l311 1761h629l-54 -309h-297z" />
    <glyph glyph-name="bracketright.case" horiz-adv-x="798" 
d="M487 1268h-299l56 309h628l-309 -1761h-631l56 309h297z" />
    <glyph glyph-name="parenleft.case" horiz-adv-x="747" 
d="M606 1614l228 -131q-109 -158 -166 -252t-123 -248t-94 -311q-66 -356 94 -748l-275 -131q-119 242 -151 456q-33 214 11 467t155 467q110 214 321 431z" />
    <glyph glyph-name="parenright.case" horiz-adv-x="727" 
d="M195 -207l-226 131q109 160 165 252t122 248t96 313q63 350 -96 746l274 131q119 -244 153 -456t-10 -464q-43 -252 -155 -467t-323 -434z" />
    <glyph glyph-name="emdash.case" horiz-adv-x="2107" 
d="M1927 537h-1792l55 317h1795z" />
    <glyph glyph-name="endash.case" horiz-adv-x="1290" 
d="M1133 537h-1018l55 317h1018z" />
    <glyph glyph-name="hyphen.case" horiz-adv-x="991" 
d="M811 535h-678l55 315h678z" />
    <glyph glyph-name="guillemotleft.case" horiz-adv-x="1290" 
d="M1135 391l-222 -170l-325 453l469 444l166 -170l-299 -280zM614 391l-219 -170l-325 453l467 444l165 -170l-296 -280z" />
    <glyph glyph-name="guillemotright.case" horiz-adv-x="1290" 
d="M668 948l221 170l325 -450l-469 -447l-165 170l299 281zM150 948l221 170l323 -450l-467 -447l-166 170l297 281z" />
    <glyph glyph-name="guilsinglleft.case" horiz-adv-x="772" 
d="M614 391l-219 -170l-325 453l467 444l165 -170l-296 -280z" />
    <glyph glyph-name="guilsinglright.case" horiz-adv-x="772" 
d="M156 948l221 170l325 -450l-469 -447l-165 170l299 281z" />
    <glyph glyph-name="backslash.case" horiz-adv-x="1007" 
d="M518 1573l361 -1796h-328l-358 1796h325z" />
    <glyph glyph-name="bullet.case" horiz-adv-x="776" 
d="M425 391q-134 0 -224 88t-90 219q0 132 90 220t224 88t225 -88t91 -220t-91 -219q-91 -88 -225 -88z" />
    <glyph glyph-name="exclamdown.case" horiz-adv-x="587" 
d="M16 0l193 956h323l-143 -956h-373zM211 1240q1 78 59 134t139 56t138 -56t57 -134q0 -79 -57 -133t-138 -54t-140 54q-58 54 -58 133z" />
    <glyph glyph-name="periodcentered.case" horiz-adv-x="669" 
d="M371 496q-90 0 -153 60q-62 60 -62 148t62 148q62 59 152 59t153 -59t63 -147q0 -89 -62 -149t-153 -60z" />
    <glyph glyph-name="questiondown.case" horiz-adv-x="1048" 
d="M492 -31q-199 1 -319 101t-120 268q-1 203 147 351t361 149h14l37 125h295l-65 -367h-215q-113 0 -183 -57t-69 -152q0 -63 47 -100t140 -37t351 37l-4 -269q-218 -49 -417 -49zM981 1240q1 -79 -57 -133t-139 -54t-138 54t-57 133t57 134q57 56 138 56t139 -56t57 -134z
" />
    <glyph glyph-name="slash.case" horiz-adv-x="995" 
d="M274 -193h-337l851 1766h338z" />
    <glyph glyph-name="florin.tf" horiz-adv-x="1331" 
d="M1149 1139q-68 0 -109 -41t-69 -135l-27 -84h318l-52 -295h-358l-55 -172q-135 -442 -498 -443q-115 0 -262 37l86 260q102 -12 169 -12q68 0 108 41t69 135l47 154h-231l51 295h272l33 102q139 442 500 442q117 0 260 -37l-84 -260q-100 13 -168 13z" />
    <glyph glyph-name="cent.tf" horiz-adv-x="1331" 
d="M180 432q0 229 146 393t379 209l40 234h269l-41 -230q100 -10 221 -51l-86 -256q-194 35 -308 35t-202 -81t-88 -191t60 -167t170 -57t300 37l-10 -256q-137 -41 -239 -51l-39 -225h-269l41 229q-160 33 -252 148t-92 280z" />
    <glyph glyph-name="dollar.tf" horiz-adv-x="1331" 
d="M186 911q0 197 138 328t372 164l41 233h269l-41 -229q244 -20 417 -86l-127 -299q-289 90 -469 90q-102 0 -159 -35t-57 -86t18 -67q33 -27 77 -40l50 -15q62 -15 137 -31q211 -49 310 -124t100 -243q0 -215 -146 -344t-405 -152l-45 -241h-279l47 246q-233 27 -438 110
l131 305q295 -119 510 -119q119 -2 181 34t62 89t-24 73q-26 20 -44 30t-50 18q-34 8 -56 14t-65 15q-260 48 -358 131q-97 82 -97 231z" />
    <glyph glyph-name="Euro.tf" horiz-adv-x="1331" 
d="M967 1100q-227 0 -344 -180h446l-78 -183h-438q-8 -49 -12 -104h415l-77 -182h-310q66 -156 254 -156q133 0 385 41l-16 -303q-213 -63 -454 -63t-387 127q-146 128 -175 354h-141l33 182h104q8 70 14 104h-100l31 183h123q94 231 295 367t449 136t450 -61l-101 -303
q-214 41 -366 41z" />
    <glyph glyph-name="sterling.tf" horiz-adv-x="1331" 
d="M886 1417q208 0 419 -47l-93 -268q-225 35 -327 35q-101 -1 -163 -53t-79 -142l-25 -133h373l-45 -258h-375l-45 -266h670l-49 -285h-1114l49 285h115l47 266h-115l45 258h115l30 174q33 197 196 315t371 119z" />
    <glyph glyph-name="yen.tf" horiz-adv-x="1331" 
d="M1251 606l-32 -198h-392l-16 -89h391l-35 -198h-391l-22 -121h-348l22 121h-387l35 198h387l16 89h-387l33 198h307l-239 787h380l158 -533l346 533h379l-514 -787h309z" />
    <glyph glyph-name="arrowdown.ss06" horiz-adv-x="1431" 
d="M645 973h137v-344l115 112l96 -96l-278 -280l-281 280l96 96l115 -114v346zM716 229q189 -1 324 135q136 136 136 325t-136 325t-324 135q-188 0 -324 -135q-136 -134 -136 -324t136 -326t324 -135zM717 72q-256 0 -437 181t-182 437q0 256 182 436t436 180
q255 0 436 -180t181 -436t-180 -437t-436 -181z" />
    <glyph glyph-name="arrowdownleft.ss06" horiz-adv-x="1433" 
d="M485 461v397l138 -2v-160l245 244l97 -96l-244 -244l160 -2l2 -135zM716 1149q-192 0 -325 -134t-133 -326t133 -326t326 -133q193 0 325 134t134 325q0 191 -134 325t-326 135zM1335 690q0 -256 -181 -436t-437 -181t-437 180t-182 437q0 256 182 436t438 180
q255 0 436 -180t181 -436z" />
    <glyph glyph-name="arrowdownright.ss06" horiz-adv-x="1431" 
d="M553 598l160 2l-244 244l96 96l246 -244v160l137 2v-397l-397 2zM716 1149q-192 0 -325 -134q-133 -133 -133 -325t133 -325t325 -135t326 133q134 133 134 325t-134 326t-326 135zM1335 690q0 -256 -181 -437t-437 -180t-438 181q-180 180 -181 436q0 256 181 436
q182 180 437 180t437 -180t182 -436z" />
    <glyph glyph-name="arrowleft.ss06" horiz-adv-x="1431" 
d="M999 760v-137h-344l113 -115l-96 -96l-281 278l281 281l96 -97l-115 -114h346zM256 689q0 -189 135 -324t325 -135t324 134q136 136 136 325t-136 325t-324 135q-189 0 -325 -135q-135 -136 -135 -325zM98 688q0 256 182 437t437 181q256 0 436 -180q180 -182 180 -437
t-181 -436t-436 -181q-254 0 -436 180t-182 436z" />
    <glyph glyph-name="arrowright.ss06" horiz-adv-x="1431" 
d="M432 623v137h346l-114 114l96 97l280 -281l-280 -278l-96 96l112 115h-344zM1176 689q0 189 -136 325t-324 135q-188 0 -324 -135q-136 -134 -136 -324t135 -325t325 -135t324 134q136 136 136 325zM1333 688q0 -256 -181 -436t-437 -180t-436 181q-181 181 -181 436
t180 436t437 181q256 0 437 -180q181 -182 181 -438z" />
    <glyph glyph-name="arrowup.ss06" horiz-adv-x="1431" 
d="M782 406h-137v346l-115 -115l-96 96l281 281l278 -281l-96 -96l-115 113v-344zM716 1149q-188 0 -324 -135q-136 -134 -136 -324t135 -325t325 -135t324 134q136 136 136 325t-136 325t-324 135zM717 1307q256 1 436 -181t180 -437t-181 -436t-436 -181t-436 180
t-182 436q0 256 182 438t437 181z" />
    <glyph glyph-name="arrowupleft.ss06" horiz-adv-x="1433" 
d="M881 782l-160 -2l244 -243l-97 -97l-245 244v-160l-138 -2v398l398 -2zM258 692q0 -192 133 -326t326 -134t325 134t134 325q0 191 -134 325t-326 134q-192 1 -325 -133q-133 -133 -133 -325zM1335 690q0 -256 -181 -436t-436 -180t-437 180t-183 436q1 256 182 437
t437 181t437 -182q181 -180 181 -436z" />
    <glyph glyph-name="arrowupright.ss06" horiz-adv-x="1431" 
d="M948 920v-398l-137 2v160l-246 -244l-96 97l244 243l-160 2l-2 136zM258 692q0 -192 133 -326t326 -134t325 134t133 326q0 192 -133 325q-134 134 -326 133t-325 -134q-133 -132 -133 -324zM1335 690q0 -256 -182 -436t-437 -180t-437 180q-180 180 -181 436
q0 256 181 436q182 180 438 181t437 -180t181 -437z" />
    <glyph glyph-name="arrowdown.ss08" horiz-adv-x="1431" 
d="M782 973h-137v-346l-115 114l-96 -96l281 -280l278 280l-96 96l-115 -112v344zM717 72q-256 0 -437 181t-182 437q0 256 182 436t436 180q255 0 436 -180t181 -436t-180 -437t-436 -181z" />
    <glyph glyph-name="arrowdownleft.ss08" horiz-adv-x="1433" 
d="M881 598l-160 2l244 244l-97 96l-245 -244v160l-138 2v-397l398 2zM1335 690q0 -256 -181 -436t-437 -181t-437 180t-182 437q0 256 182 436t438 180q255 0 436 -180t181 -436z" />
    <glyph glyph-name="arrowdownright.ss08" horiz-adv-x="1431" 
d="M948 461v397l-137 -2v-160l-246 244l-96 -96l244 -244l-160 -2l-2 -135zM1335 690q0 -256 -181 -437t-437 -180t-438 181q-180 180 -181 436q0 256 181 436q182 180 437 180t437 -180t182 -436z" />
    <glyph glyph-name="arrowleft.ss08" horiz-adv-x="1431" 
d="M999 623v137h-346l115 114l-96 97l-281 -281l281 -278l96 96l-113 115h344zM98 688q0 256 182 437t437 181q256 0 436 -180q180 -182 180 -437t-181 -436t-436 -181q-254 0 -436 180t-182 436z" />
    <glyph glyph-name="arrowright.ss08" horiz-adv-x="1431" 
d="M432 760v-137h344l-112 -115l96 -96l280 278l-280 281l-96 -97l114 -114h-346zM1333 688q0 -256 -181 -436t-437 -180t-436 181q-181 181 -181 436t180 436t437 181q256 0 437 -180q181 -182 181 -438z" />
    <glyph glyph-name="arrowup.ss08" horiz-adv-x="1431" 
d="M645 406h137v344l115 -113l96 96l-278 281l-281 -281l96 -96l115 115v-346zM717 1307q256 1 436 -181t180 -437t-181 -436t-436 -181t-436 180t-182 436q0 256 182 438t437 181z" />
    <glyph glyph-name="arrowupleft.ss08" horiz-adv-x="1433" 
d="M485 920v-398l138 2v160l245 -244l97 97l-244 243l160 2l2 136zM1335 690q0 -256 -181 -436t-436 -180t-437 180t-183 436q1 256 182 437t437 181t437 -182q181 -180 181 -436z" />
    <glyph glyph-name="arrowupright.ss08" horiz-adv-x="1431" 
d="M553 782l160 -2l-244 -243l96 -97l246 244v-160l137 -2v398l-397 -2zM1335 690q0 -256 -182 -436t-437 -180t-437 180q-180 180 -181 436q0 256 181 436q182 180 438 181t437 -180t181 -437z" />
    <glyph glyph-name="arrowdown.ss09" horiz-adv-x="1345" 
d="M1292 811l-563 -563l-565 567l194 195l371 -373l369 369z" />
    <glyph glyph-name="arrowup.ss09" horiz-adv-x="1345" 
d="M1040 295l-368 369l-371 -373l-195 194l566 568l563 -564z" />
    <glyph glyph-name="arrowleft.ss09" horiz-adv-x="1226" 
d="M602 678l371 -369l-195 -194l-565 563l567 565l195 -194z" />
    <glyph glyph-name="arrowright.ss09" 
d="M1040 678l-565 -563l-194 194l370 369l-372 371l194 194z" />
    <glyph glyph-name="registered.ss07" horiz-adv-x="1222" 
d="M715 948q27 0 45 20t18 42q0 43 -49 43h-65l-17 -105h68zM756 1171q64 0 115 -43q50 -43 47 -112q-6 -98 -103 -150l74 -159h-144l-55 124h-65l-23 -124h-133l84 460q139 4 203 4zM693 1309q-165 0 -275 -109q-110 -110 -109 -272q0 -162 110 -271q109 -109 275 -109
t275 110q109 108 109 271t-110 271t-275 109zM691 1423q217 0 363 -141t146 -353q0 -211 -144 -353t-364 -142t-363 141q-145 141 -145 353t144 354q144 141 363 141z" />
    <glyph glyph-name="at.case" horiz-adv-x="2037" 
d="M1036 915q-137 0 -205 -85q-67 -85 -67 -189q0 -103 47 -157t139 -54t203 84q8 31 10 53l60 336q-97 12 -187 12zM1202 1597q365 0 582 -213t217 -544q0 -332 -167 -498t-423 -166q-211 0 -256 123q-156 -125 -335 -125t-285 139t-66 373q49 219 195 349t378 130
q164 0 319 -20t208 -27l-107 -608q-16 -82 -3 -114t71 -32q123 1 215 77q53 45 85 139t32 229q0 317 -180 487t-498 170q-250 0 -471 -124t-355 -341t-135 -481q0 -264 170 -443t469 -179q205 0 563 75l2 -123q-350 -86 -587 -86q-352 0 -554 212t-202 550q0 297 155 545
t411 387t552 139z" />
    <glyph glyph-name="bar.case" horiz-adv-x="675" 
d="M684 1620l-332 -1880h-295l332 1880h295z" />
    <glyph glyph-name="brokenbar.case" horiz-adv-x="675" 
d="M352 -262h-295l148 835h295zM537 782h-295l147 836h295z" />
    <glyph glyph-name="caron.alt" 
d="M954 1393l-153 -430h-244l84 430h313z" />
    <glyph glyph-name="acute.case" 
d="M1260 1823l-320 -301h-336l236 301h420z" />
    <glyph glyph-name="breve.case" 
d="M760 1513q-150 0 -222 83t-46 231h229q-9 -47 13 -72t65 -24q94 0 110 96h234q-27 -147 -130 -231t-253 -83z" />
    <glyph glyph-name="caron.case" 
d="M936 1505h-289l-196 314h297l67 -121l119 121h309z" />
    <glyph glyph-name="circumflex.case" 
d="M823 1645l-118 -123h-308l305 301h289l199 -301h-299z" />
    <glyph glyph-name="dieresis.case" 
d="M1040 1501q-78 0 -133 52t-55 128t55 128q55 53 133 53t132 -52t54 -129q0 -76 -54 -128t-132 -52zM569 1501q-78 0 -132 52t-54 128t54 128q54 53 132 53t133 -52q56 -52 56 -129q0 -76 -56 -128t-133 -52z" />
    <glyph glyph-name="dotaccent.case" 
d="M763 1524q-77 0 -130 50t-53 126t53 126t130 50t130 -51t53 -125t-53 -125t-130 -51z" />
    <glyph glyph-name="grave.case" 
d="M932 1522h-279l-245 301h407z" />
    <glyph glyph-name="hungarumlaut.case" 
d="M1317 1847l-189 -336h-288l145 336h332zM920 1847l-189 -336h-289l146 336h332z" />
    <glyph glyph-name="macron.case" 
d="M1186 1802l-43 -250h-682l43 250h682z" />
    <glyph glyph-name="ring.case" 
d="M877 1735q0 41 -24 63t-67 23q-44 0 -72 -28t-28 -69q0 -42 24 -64t65 -22q42 0 72 28t30 69zM796 1974q118 0 184 -62t67 -171q0 -109 -82 -183t-199 -73q-118 0 -184 62t-66 171q0 108 81 182t199 74z" />
    <glyph glyph-name="tilde.case" 
d="M997 1827h250q-21 -109 -75 -183q-100 -135 -251 -128q-67 2 -118 34l-70 47q-79 42 -92 -51h-250q19 109 73 183q98 133 253 126q68 -2 119 -32l69 -47q74 -45 92 51z" />
    </font>
</defs>
</svg>
