<?xml version="1.0" standalone="no"?>
<!DOCTYPE svg PUBLIC "-//W3C//DTD SVG 1.1//EN" "http://www.w3.org/Graphics/SVG/1.1/DTD/svg11.dtd" >
<svg xmlns="http://www.w3.org/2000/svg">
<metadata>
Created by FontPrep 20130207 at Mon Nov 21 12:25:30 2016
 By Rene Bieder
Copyright (c) 2013 by Rene' Bieder. All rights reserved.
</metadata>
<defs>
<font id="115ecf10e53b5ba0a6d61322e60ef056" horiz-adv-x='1024' >
  <font-face 
    font-family="Canaro-Light"
    font-weight="300"
    font-stretch="normal"
    units-per-em="2048"
    panose-1="0 0 4 0 0 0 0 0 0 0"
    ascent="1638"
    descent="-410"
    x-height="946"
    cap-height="1393"
    bbox="-66 -557 2908 1878"
    underline-thickness="102"
    underline-position="-102"
    unicode-range="U+0020-FB02"
  />
<missing-glyph horiz-adv-x="1781" 
d="M348 143h977l-977 977v-977zM1434 1249h-985l985 -985v985zM1577 1393v-1393h-1372v1393h1372z" />
    <glyph glyph-name="fi" unicode="fi" horiz-adv-x="1226" 
d="M1073 946v-946h-139v819h-547v-819h-141v819h-234v127h234v164q0 211 112 322q112 110 300 110t368 -102l-63 -101q-135 76 -283 76q-293 0 -293 -307v-162h686z" />
    <glyph glyph-name="fl" unicode="fl" horiz-adv-x="1275" 
d="M1081 0h-141v1352q-127 63 -267 63t-213 -77t-73 -220v-172h375v-127h-375v-819h-141v819h-234v127h234v176q0 203 107 312q108 109 315 108q137 0 282 -67l131 -9v-1466z" />
    <glyph glyph-name="f_f" unicode="ff" horiz-adv-x="1507" 
d="M987 946v240q0 68 14 119q-156 111 -311 110q-305 0 -305 -307v-162h602zM1491 819h-365v-819h-139v819h-602v-819h-139v819h-234v127h234v164q0 209 116 321q118 111 308 111t385 -125q92 125 270 125q74 0 164 -22l-23 -119q-82 14 -137 14q-92 0 -147 -61t-56 -170
v-238h365v-127z" />
    <glyph glyph-name="f_f_i" unicode="ffi" horiz-adv-x="1947" 
d="M967 946v164q0 117 32 197q-150 109 -319 108q-293 0 -293 -307v-162h580zM1794 946v-946h-141v819h-547v-819h-139v819h-580v-819h-141v819h-234v127h234v164q0 211 112 322q113 111 316 110q108 0 194 -31t193 -98q111 129 332 129q100 0 178 -24t176 -78l-66 -101
q-131 76 -280 76q-295 0 -295 -307v-162h688z" />
    <glyph glyph-name="f_f_l" unicode="ffl" horiz-adv-x="1972" 
d="M967 946v176q0 106 30 187q-152 106 -317 106q-293 0 -293 -307v-162h580zM1778 0h-140v1362q-114 53 -250 53t-209 -77t-73 -220v-172h377v-127h-377v-819h-139v819h-580v-819h-141v819h-234v127h234v164q0 211 112 322q114 110 310 110t389 -127q109 127 329 127
q133 0 279 -65l113 -7v-1470z" />
    <glyph glyph-name=".notdef" horiz-adv-x="1781" 
d="M348 143h977l-977 977v-977zM1434 1249h-985l985 -985v985zM1577 1393v-1393h-1372v1393h1372z" />
    <glyph glyph-name=".null" horiz-adv-x="0" 
 />
    <glyph glyph-name="nonmarkingreturn" horiz-adv-x="681" 
 />
    <glyph glyph-name="space" unicode=" " horiz-adv-x="530" 
 />
    <glyph glyph-name="exclam" unicode="!" horiz-adv-x="487" 
d="M244 -27q-43 0 -73 29t-30 72q0 44 30 72t73 28q44 0 74 -29t30 -71t-30 -72q-30 -29 -74 -29zM319 1393l-6 -1033h-141l-6 1033h153z" />
    <glyph glyph-name="quotedbl" unicode="&#x22;" horiz-adv-x="722" 
d="M606 1561l-33 -480h-124l2 480h155zM317 1561l-34 -480h-125l4 480h155z" />
    <glyph glyph-name="numbersign" unicode="#" horiz-adv-x="1507" 
d="M588 850l-101 -320h418l101 320h-418zM1309 530v-122h-297l-127 -408h-146l129 408h-419l-127 -408h-146l129 408h-221v122h258l100 320h-245v123h284l131 422h146l-133 -422h419l132 422h145l-133 -422h233v-123h-270l-100 -320h258z" />
    <glyph glyph-name="dollar" unicode="$" horiz-adv-x="1396" 
d="M1239 381q0 -184 -128 -292t-343 -118v-239h-129v239q-266 20 -498 115l39 135q285 -117 547 -117q166 0 265 70q100 70 100 202t-135 195q-107 50 -287 84q-25 4 -43 9q-236 49 -331 128q-95 78 -95 240t118 266q119 104 320 117v256h129v-256q238 -12 428 -82l-39 -125
q-259 78 -441 78t-272 -68t-90 -178q0 -112 79 -161t231 -81t220 -52q184 -51 259 -122q96 -94 96 -243z" />
    <glyph glyph-name="percent" unicode="%" horiz-adv-x="2213" 
d="M1647 76q115 0 191 79t77 203q0 124 -77 202q-78 77 -192 77t-191 -78t-77 -202q0 -125 77 -203t192 -78zM1647 743q163 0 271 -106q108 -105 108 -279t-107 -282q-106 -108 -271 -107q-165 0 -273 108q-107 109 -107 281t107 279q108 106 272 106zM565 756q115 0 192 78
t77 202t-77 203q-77 78 -192 78t-191 -78t-77 -203q1 -124 77 -202t191 -78zM680 0h-92l928 1393h92zM565 1423q164 1 272 -107q107 -108 107 -280t-108 -280t-271 -107q-163 0 -271 108q-108 107 -108 279t108 280t271 107z" />
    <glyph glyph-name="ampersand" unicode="&#x26;" horiz-adv-x="1308" 
d="M956 653h-356q-178 -1 -277 -71t-99 -197t98 -208t268 -81t268 82t98 219v256zM1092 653v-256q0 -193 -136 -309t-366 -117q-231 0 -368 114q-136 114 -136 304q0 121 72 205t204 123q-219 76 -219 303q0 174 127 279t340 106q141 0 277 -37l-29 -121q-126 33 -264 33
t-226 -70t-87 -188q-1 -118 79 -182q80 -66 240 -66h643v-121h-151z" />
    <glyph glyph-name="quotesingle" unicode="'" horiz-adv-x="434" 
d="M317 1561l-34 -480h-125l4 480h155z" />
    <glyph glyph-name="parenleft" unicode="(" horiz-adv-x="665" 
d="M250 540q0 -282 83 -504t240 -437l-104 -68q-354 435 -354 1009t354 1008l104 -65q-159 -217 -241 -439t-82 -504z" />
    <glyph glyph-name="parenright" unicode=")" horiz-adv-x="663" 
d="M549 540q0 -574 -354 -1009l-105 68q158 215 241 437t83 504t-83 504t-241 439l105 65q354 -434 354 -1008z" />
    <glyph glyph-name="asterisk" unicode="*" horiz-adv-x="808" 
d="M449 780h-89v236l-219 -129l-41 71l224 134l-224 133l41 75l219 -131v232h89v-232l219 131l43 -75l-224 -133l224 -134l-43 -71l-219 131v-238z" />
    <glyph glyph-name="plus" unicode="+" horiz-adv-x="1419" 
d="M780 596v-403h-137v403h-403v131h403v406h137v-406h400v-131h-400z" />
    <glyph glyph-name="comma" unicode="," horiz-adv-x="561" 
d="M170 82q0 45 32 76q32 30 79 30t79 -30t31 -69q0 -38 -13 -72q-12 -35 -66 -153t-74 -163h-105l109 289q-72 25 -72 92z" />
    <glyph glyph-name="hyphen" unicode="-" horiz-adv-x="1091" 
d="M852 485h-612v142h612v-142z" />
    <glyph glyph-name="period" unicode="." horiz-adv-x="561" 
d="M281 -27q-47 0 -79 32t-32 77t32 76q32 30 79 30t79 -30t31 -76q1 -45 -31 -77t-79 -32z" />
    <glyph glyph-name="slash" unicode="/" horiz-adv-x="987" 
d="M162 -557h-127l758 2130h129z" />
    <glyph glyph-name="zero" unicode="0" horiz-adv-x="1542" 
d="M771 104q218 0 352 163t134 429t-134 429t-352 163t-352 -163t-134 -429t134 -429t352 -163zM135 696q0 328 175 528t461 199q286 1 461 -199t175 -528t-175 -528t-461 -199q-286 0 -461 200q-175 199 -175 527z" />
    <glyph glyph-name="one" unicode="1" horiz-adv-x="839" 
d="M596 0h-143v1233l-381 -113l-31 117l510 156h45v-1393z" />
    <glyph glyph-name="two" unicode="2" horiz-adv-x="1187" 
d="M1077 0h-956v94l493 463q132 126 190 194t78 122q19 54 19 114q0 141 -95 222t-265 81t-385 -108l-41 123q215 119 448 119t361 -118q127 -118 127 -300q1 -146 -91 -272t-272 -288l-352 -315h741v-131z" />
    <glyph glyph-name="three" unicode="3" horiz-adv-x="1208" 
d="M1098 390q0 -182 -144 -302q-144 -119 -391 -119q-246 0 -475 117l51 113q231 -104 441 -105q156 0 264 86t108 213t-99 195t-282 67h-194v70l475 537h-702v131h901v-90l-467 -525h43q223 -8 347 -107t124 -281z" />
    <glyph glyph-name="four" unicode="4" horiz-adv-x="1376" 
d="M936 391v809l-653 -809h653zM1079 391h191v-125h-191v-266h-143v266h-842v99l842 1028h143v-1002z" />
    <glyph glyph-name="five" unicode="5" horiz-adv-x="1253" 
d="M1124 406q0 -194 -139 -316q-139 -121 -358 -121q-279 0 -512 117l49 123q236 -106 457 -107q156 0 256 83t100 219t-99 210t-274 82l-411 21l63 676h817v-136h-692l-41 -415l283 -15q237 -11 369 -119t132 -302z" />
    <glyph glyph-name="six" unicode="6" horiz-adv-x="1271" 
d="M634 829q-170 0 -276 -100t-106 -265q0 -166 108 -268t276 -102t276 102t108 268q0 165 -108 265t-278 100zM637 948q231 0 377 -132t147 -352q0 -220 -146 -358q-145 -138 -377 -137q-232 0 -380 137q-147 137 -147 359q0 154 114 315l434 613h175l-326 -455
q68 10 129 10z" />
    <glyph glyph-name="seven" unicode="7" horiz-adv-x="1128" 
d="M70 1257v136h991v-88l-615 -1305h-159l602 1257h-819z" />
    <glyph glyph-name="eight" unicode="8" horiz-adv-x="1298" 
d="M649 94q174 0 283 83q108 83 108 209t-107 202q-108 76 -284 76q-175 0 -283 -76t-108 -202t108 -209t283 -83zM971 1048q0 116 -89 186q-88 70 -232 71q-144 -1 -233 -71t-89 -186t88 -189t233 -73t234 73q88 73 88 189zM650 1423q210 0 339 -100t129 -266
q0 -244 -244 -326q154 -41 236 -132t82 -220q0 -182 -150 -296t-394 -114t-392 114q-150 114 -150 296q0 129 82 220t234 132q-240 84 -242 326q0 166 130 266t340 100z" />
    <glyph glyph-name="nine" unicode="9" horiz-adv-x="1247" 
d="M236 929q0 -165 108 -265t278 -100t276 100t106 265t-109 267t-277 102t-275 -102t-107 -267zM1145 928q0 -154 -105 -301l-436 -627h-168l320 455q-72 -10 -138 -11q-231 0 -377 132q-147 132 -147 353q0 220 146 357t378 137q231 0 379 -137t148 -358z" />
    <glyph glyph-name="colon" unicode=":" horiz-adv-x="561" 
d="M281 -27q-47 0 -79 32t-32 77t32 76q32 30 79 30t79 -30t31 -76q1 -45 -31 -77t-79 -32zM281 756q-47 0 -79 32t-32 76q0 45 32 76t79 31t79 -31t31 -76q1 -44 -31 -76t-79 -32z" />
    <glyph glyph-name="semicolon" unicode=";" horiz-adv-x="569" 
d="M172 82q0 45 32 76q32 30 79 30t79 -30t31 -76q0 -8 -1 -14t-2 -14t-4 -16q-3 -9 -7 -22t-17 -43q-14 -30 -29 -64t-46 -100q-31 -65 -49 -108h-105l109 289q-70 25 -70 92zM289 756q-47 0 -79 32t-32 76q0 45 32 76t79 31t79 -31t32 -76t-32 -77q-32 -31 -79 -31z" />
    <glyph glyph-name="less" unicode="&#x3c;" horiz-adv-x="1132" 
d="M979 1102v-141l-711 -343l711 -342v-141l-864 412v143z" />
    <glyph glyph-name="equal" unicode="=" horiz-adv-x="1466" 
d="M1227 403h-987v132h987v-132zM1227 801h-987v131h987v-131z" />
    <glyph glyph-name="greater" unicode="&#x3e;" horiz-adv-x="1132" 
d="M1020 547l-864 -412v141l708 342l-708 343v141l864 -412v-143z" />
    <glyph glyph-name="question" unicode="?" horiz-adv-x="1011" 
d="M387 174q43 0 74 -29t31 -71t-31 -72q-31 -29 -74 -29t-73 29t-29 72q-1 44 29 72t73 28zM476 1423q200 1 334 -115t134 -309t-126 -313t-329 -121h-49l9 -205h-132l-26 324h174q156 0 249 88t93 226t-95 220q-95 80 -249 80t-334 -36l-23 116q170 45 370 45z" />
    <glyph glyph-name="at" unicode="@" horiz-adv-x="2082" 
d="M999 868q-170 0 -262 -99t-92 -262t93 -267t251 -104t344 122q-12 53 -12 117v465q-152 28 -322 28zM1050 1413q404 0 657 -246t253 -649q0 -250 -98 -372t-274 -122t-232 134q-198 -138 -394 -138t-324 138t-127 352q1 215 128 344t344 129t471 -49v-580q0 -117 37 -173
t127 -56q258 0 258 393q0 367 -229 591t-595 224t-606 -234q-240 -233 -240 -581t232 -581q231 -233 584 -236q203 0 508 70l14 -74q-285 -74 -522 -74q-393 0 -646 254t-253 639t262 641q261 256 665 256z" />
    <glyph glyph-name="A" unicode="A" horiz-adv-x="1556" 
d="M778 1217l-332 -746h664zM391 340l-151 -340h-164l635 1403h137l633 -1403h-162l-152 340h-776z" />
    <glyph glyph-name="B" unicode="B" horiz-adv-x="1388" 
d="M729 113q186 0 290 70q103 71 103 199t-100 195t-270 66h-402v-520q338 -10 379 -10zM717 1276q-137 0 -367 -8v-500h361q162 0 253 69t91 189q0 250 -338 250zM1268 381q0 -193 -140 -295t-385 -102q-119 0 -538 16v1393q279 12 511 12t355 -93t123 -268
q0 -124 -70 -208t-200 -119q164 -29 254 -117t90 -219z" />
    <glyph glyph-name="C" unicode="C" horiz-adv-x="1538" 
d="M287 696q0 -266 167 -429t443 -163q201 0 479 76l29 -127q-274 -84 -514 -84q-344 0 -550 200q-206 201 -206 529t208 527t558 198q244 1 475 -69l-28 -135q-244 66 -430 65q-297 0 -464 -161t-167 -427z" />
    <glyph glyph-name="D" unicode="D" horiz-adv-x="1538" 
d="M692 121q248 0 404 159t156 424q0 266 -160 418q-158 152 -418 152q-115 0 -324 -8v-1139q166 -6 342 -6zM674 1409q328 0 530 -190t201 -516q0 -326 -199 -522t-514 -195q-205 0 -487 14v1393q322 16 469 16z" />
    <glyph glyph-name="E" unicode="E" horiz-adv-x="1312" 
d="M350 764h737v-135h-737v-496h824v-133h-969v1393h969v-133h-824v-496z" />
    <glyph glyph-name="F" unicode="F" horiz-adv-x="1232" 
d="M350 715h715v-135h-715v-580h-145v1393h944v-133h-799v-545z" />
    <glyph glyph-name="G" unicode="G" horiz-adv-x="1658" 
d="M1509 760v-649q-322 -141 -644 -141t-526 200q-204 202 -204 528t209 526t551 199q248 0 481 -69l-28 -133q-260 63 -445 63q-276 0 -446 -161t-170 -425t163 -427t420 -163t500 91v426h-557v135h696z" />
    <glyph glyph-name="H" unicode="H" horiz-adv-x="1544" 
d="M1339 0h-145v623h-844v-623h-145v1393h145v-637h844v637h145v-1393z" />
    <glyph glyph-name="I" unicode="I" horiz-adv-x="555" 
d="M350 1393v-1393h-145v1393h145z" />
    <glyph glyph-name="J" unicode="J" horiz-adv-x="1171" 
d="M987 1393v-883q0 -256 -128 -398t-344 -142t-462 87l31 129q246 -78 413 -78t255 105q88 104 88 295v885h147z" />
    <glyph glyph-name="K" unicode="K" horiz-adv-x="1404" 
d="M350 578v-578h-145v1393h145v-676h148l612 676h182l-620 -684l674 -709h-185l-563 578h-248z" />
    <glyph glyph-name="L" unicode="L" horiz-adv-x="1200" 
d="M1126 0h-921v1393h145v-1262h776v-131z" />
    <glyph glyph-name="M" unicode="M" horiz-adv-x="1929" 
d="M1536 1075l-506 -1075h-131l-508 1075l-63 -1075h-144l82 1393h140l559 -1219l559 1219h139l82 -1393h-143z" />
    <glyph glyph-name="N" unicode="N" horiz-adv-x="1599" 
d="M1395 1393v-1393h-148l-897 1155v-1155h-145v1393h141l903 -1160v1160h146z" />
    <glyph glyph-name="O" unicode="O" horiz-adv-x="1734" 
d="M866 104q258 0 420 164t162 428t-162 427t-420 163t-419 -163t-161 -427t162 -428q160 -164 418 -164zM866 1423q326 -1 530 -201t204 -526t-204 -526t-530 -201q-326 0 -528 201q-202 200 -203 526q1 326 203 526t528 201z" />
    <glyph glyph-name="P" unicode="P" horiz-adv-x="1310" 
d="M350 604h340q172 0 281 92t109 247t-107 243q-105 88 -281 88t-342 -8v-662zM690 1409q234 0 384 -125t149 -340q0 -215 -151 -343t-396 -128h-326v-473h-145v1393q251 16 485 16z" />
    <glyph glyph-name="Q" unicode="Q" horiz-adv-x="1734" 
d="M866 104q258 0 420 164t162 428t-162 427t-420 163t-419 -163t-161 -427t162 -428q160 -164 418 -164zM1599 696q-1 -240 -113 -414t-308 -255l315 -365h-184l-279 322q-72 -14 -162 -15q-328 0 -530 201q-202 200 -203 526q0 326 203 527q204 201 530 201t529 -201
q202 -201 202 -527z" />
    <glyph glyph-name="R" unicode="R" horiz-adv-x="1347" 
d="M350 631h326q172 0 276 89t104 244q0 154 -102 232q-104 78 -266 78t-338 -6v-637zM629 502h-279v-502h-145v1393q319 14 459 14q248 0 393 -116t145 -328q0 -156 -85 -265t-234 -157l401 -541h-176l-371 506q-70 -4 -108 -4z" />
    <glyph glyph-name="S" unicode="S" horiz-adv-x="1396" 
d="M716 1286q-182 0 -272 -68t-90 -178q0 -112 79 -161t231 -81t221 -52q180 -49 267 -131t87 -234q0 -195 -142 -303t-376 -109q-291 0 -580 117l39 135q287 -117 547 -117q166 0 265 70q100 70 100 202t-135 195q-107 50 -287 84q-25 4 -43 9q-236 49 -331 128
q-95 80 -95 246t135 272t356 107q275 0 504 -84l-37 -125q-261 78 -443 78z" />
    <glyph glyph-name="T" unicode="T" horiz-adv-x="1370" 
d="M758 1260v-1260h-146v1260h-551v133h1248v-133h-551z" />
    <glyph glyph-name="U" unicode="U" horiz-adv-x="1562" 
d="M1378 1393v-834q0 -268 -164 -429t-433 -161t-433 161t-164 429v834h146v-834q0 -207 124 -331t328 -124t327 123q124 123 124 332v834h145z" />
    <glyph glyph-name="V" unicode="V" horiz-adv-x="1558" 
d="M850 0h-141l-629 1393h168l532 -1200l533 1200h166z" />
    <glyph glyph-name="W" unicode="W" horiz-adv-x="2164" 
d="M1612 0h-137l-392 1151l-393 -1151h-137l-477 1393h155l394 -1170l395 1170h125l395 -1168l393 1168h156z" />
    <glyph glyph-name="X" unicode="X" horiz-adv-x="1435" 
d="M817 692l557 -692h-174l-483 580l-484 -580h-174l559 692l-540 701h182l457 -584l457 584h182z" />
    <glyph glyph-name="Y" unicode="Y" horiz-adv-x="1421" 
d="M784 0h-147v498l-584 895h166l492 -746l491 746h166l-584 -895v-498z" />
    <glyph glyph-name="Z" unicode="Z" horiz-adv-x="1357" 
d="M1217 133v-133h-1084v94l879 1166h-854v133h1054v-95l-870 -1165h875z" />
    <glyph glyph-name="bracketleft" unicode="[" horiz-adv-x="669" 
d="M291 -322h282v-135h-421v1991h421v-135h-282v-1721z" />
    <glyph glyph-name="backslash" unicode="\" horiz-adv-x="987" 
d="M240 1573l696 -2130h-145l-697 2130h146z" />
    <glyph glyph-name="bracketright" unicode="]" horiz-adv-x="669" 
d="M96 1399v135h422v-1991h-422v135h283v1721h-283z" />
    <glyph glyph-name="asciicircum" unicode="^" horiz-adv-x="837" 
d="M418 1266l-228 -353h-141l311 480h117l314 -480h-142z" />
    <glyph glyph-name="underscore" unicode="_" horiz-adv-x="1333" 
d="M84 -264h1163v-123h-1163v123z" />
    <glyph glyph-name="grave" unicode="`" 
d="M762 1169h-139l-224 320h189z" />
    <glyph glyph-name="a" unicode="a" horiz-adv-x="1249" 
d="M600 856q-164 0 -257 -104t-93 -278t95 -278q95 -106 256 -106t335 115v624q-172 27 -336 27zM566 -31q-198 -1 -326 139q-129 140 -128 368t130 364t349 137q220 0 484 -51v-926h-139v84q-172 -115 -370 -115z" />
    <glyph glyph-name="b" unicode="b" horiz-adv-x="1255" 
d="M652 90q166 0 260 106q96 106 96 280q0 176 -94 278t-269 102q-174 0 -323 -43v-694q164 -29 330 -29zM322 1454v-520q150 43 333 43q229 0 359 -136q130 -135 131 -365q0 -230 -130 -366t-341 -137q-252 0 -494 45v1436h142z" />
    <glyph glyph-name="c" unicode="c" horiz-adv-x="1085" 
d="M649 860q-180 0 -289 -105q-108 -105 -108 -279t106 -278q106 -105 275 -106q125 0 328 53l24 -116q-193 -59 -356 -60q-229 -1 -373 139t-145 369q0 229 146 367t384 137q174 0 324 -51l-21 -113q-168 43 -295 43z" />
    <glyph glyph-name="d" unicode="d" horiz-adv-x="1255" 
d="M610 856q-174 0 -268 -102t-94 -278t95 -280q95 -106 261 -106t330 29v694q-150 43 -324 43zM1075 1454v-1436q-242 -45 -493 -45q-211 1 -341 137t-130 365t130 365t359 137q182 0 334 -43v520h141z" />
    <glyph glyph-name="e" unicode="e" horiz-adv-x="1167" 
d="M602 862q-148 0 -241 -90t-105 -242h672q-2 154 -90 243t-236 89zM111 475q0 225 137 363t347 139q210 0 335 -122t127 -327q0 -49 -8 -108h-789q16 -148 114 -236t244 -88q148 0 357 54l22 -115q-219 -66 -374 -66q-238 1 -375 141t-137 365z" />
    <glyph glyph-name="f" unicode="f" horiz-adv-x="790" 
d="M774 819h-364v-819h-140v819h-258v127h258v240q0 164 92 260t246 96q76 0 162 -22l-22 -119q-78 14 -136 14q-92 0 -147 -61t-55 -170v-238h364v-127z" />
    <glyph glyph-name="g" unicode="g" horiz-adv-x="1239" 
d="M600 856q-164 0 -257 -104t-93 -270t96 -269q96 -102 266 -102t324 28v690q-172 27 -336 27zM111 483q0 221 129 357q130 136 360 137q230 0 475 -51v-906q0 -240 -136 -384t-376 -144q-174 0 -354 72l27 114q193 -59 325 -59q173 -1 273 105t102 294q-156 -28 -360 -28
t-335 136q-130 136 -130 357z" />
    <glyph glyph-name="h" unicode="h" horiz-adv-x="1249" 
d="M686 977q194 1 296 -103t103 -284v-590h-139v557q0 137 -72 214t-198 77q-195 0 -354 -43v-805h-140v1454h140v-522q170 45 364 45z" />
    <glyph glyph-name="i" unicode="i" horiz-adv-x="512" 
d="M328 946v-946h-142v946h142zM256 1188q-43 0 -73 29q-29 29 -29 73t29 72q30 29 73 29t73 -29q29 -29 29 -73q0 -45 -30 -73t-72 -28z" />
    <glyph glyph-name="j" unicode="j" horiz-adv-x="485" 
d="M303 946v-1022q0 -215 -78 -310t-280 -97l-11 123q129 -2 180 60q50 62 50 210v1036h139zM233 1391q43 0 73 -29t30 -73q0 -45 -30 -73t-73 -28t-73 29t-31 71q1 42 31 73q30 30 73 30z" />
    <glyph glyph-name="k" unicode="k" horiz-adv-x="1161" 
d="M322 543h131l401 403h174l-418 -422l484 -524h-172l-398 414h-202v-414h-142v1454h142v-911z" />
    <glyph glyph-name="l" unicode="l" horiz-adv-x="528" 
d="M334 1454v-1454h-139v1454h139z" />
    <glyph glyph-name="m" unicode="m" horiz-adv-x="1863" 
d="M1333 977q179 0 273 -96t94 -291v-590h-139v557q0 291 -252 291q-178 0 -330 -57q31 -70 31 -189v-602h-140v567q0 154 -61 217t-201 64q-156 -6 -286 -27v-821h-142v926q219 45 453 51q184 0 272 -80q192 80 428 80z" />
    <glyph glyph-name="n" unicode="n" horiz-adv-x="1247" 
d="M698 977q180 1 284 -103t103 -284v-590h-141v557q0 137 -72 214t-198 77q-190 0 -352 -29v-819h-142v926q235 51 518 51z" />
    <glyph glyph-name="o" unicode="o" horiz-adv-x="1257" 
d="M629 94q166 0 270 106q105 106 105 276t-104 274t-271 104t-271 -103t-104 -275t104 -276q104 -106 271 -106zM629 983q229 0 373 -139q144 -138 144 -366t-144 -369t-373 -141t-373 140q-144 142 -145 368q0 226 144 367q145 140 374 140z" />
    <glyph glyph-name="p" unicode="p" horiz-adv-x="1261" 
d="M645 111q170 0 266 102q97 102 97 268q0 167 -94 271t-257 104q-164 0 -335 -27v-690q153 -28 323 -28zM658 977q228 0 357 -136q128 -135 130 -357t-128 -358t-335 -136t-360 28v-481h-142v1389q250 51 478 51z" />
    <glyph glyph-name="q" unicode="q" horiz-adv-x="1261" 
d="M616 111q170 0 324 28v690q-172 27 -336 27t-257 -104t-93 -270t96 -269q96 -102 266 -102zM604 977q228 0 477 -51v-1389h-141v481q-156 -28 -360 -28t-335 136q-130 136 -128 357t130 357q129 136 357 137z" />
    <glyph glyph-name="r" unicode="r" horiz-adv-x="792" 
d="M709 969v-138q-213 0 -387 -20v-811h-142v920q275 49 529 49z" />
    <glyph glyph-name="s" unicode="s" horiz-adv-x="1060" 
d="M166 704q0 123 99 197t279 74t361 -66l-35 -110q-195 61 -340 61q-227 0 -227 -160q0 -68 54 -98t167 -54q113 -25 200 -48t130 -62q80 -72 82 -176q0 -141 -106 -217t-294 -76q-190 0 -411 94l33 117q217 -94 397 -94q113 0 181 43t69 122q0 79 -87 117q-61 25 -138 43
q-78 17 -81 17q-180 36 -257 95q-76 58 -76 181z" />
    <glyph glyph-name="t" unicode="t" horiz-adv-x="888" 
d="M410 342q0 -245 186 -245q90 0 188 16l17 -117q-109 -27 -209 -27q-164 0 -243 87t-79 274v489h-217v127h217v397h140v-397h338v-127h-338v-477z" />
    <glyph glyph-name="u" unicode="u" horiz-adv-x="1251" 
d="M1073 946v-926q-217 -51 -518 -51q-181 1 -283 97t-102 290v590h139v-563q0 -143 70 -218t201 -75q174 0 354 29v827h139z" />
    <glyph glyph-name="v" unicode="v" horiz-adv-x="1193" 
d="M672 0h-150l-442 946h156l362 -782l360 782h154z" />
    <glyph glyph-name="w" unicode="w" horiz-adv-x="1685" 
d="M1247 0h-137l-268 741l-267 -741h-137l-346 946h144l276 -751l274 751h115l270 -753l279 753h143z" />
    <glyph glyph-name="x" unicode="x" horiz-adv-x="1114" 
d="M649 473l391 -473h-168l-315 377l-317 -377h-166l391 473l-383 473h170l305 -373l307 373h168z" />
    <glyph glyph-name="y" unicode="y" horiz-adv-x="1261" 
d="M1188 946l-719 -1407h-158l260 510l-487 897h160l403 -747l383 747h158z" />
    <glyph glyph-name="z" unicode="z" horiz-adv-x="1015" 
d="M918 123v-123h-812v74l601 749h-580v123h772v-84l-594 -739h613z" />
    <glyph glyph-name="braceleft" unicode="{" horiz-adv-x="741" 
d="M438 1188v-377q0 -121 -32 -185t-117 -94q84 -30 117 -94t32 -186v-375q0 -127 47 -178t160 -51v-127q-180 0 -263 87t-83 273v369q0 125 -46 172t-161 47v125q115 0 161 47t46 174v367q0 186 83 274t263 88v-127q-113 0 -160 -51t-47 -178z" />
    <glyph glyph-name="bar" unicode="|" horiz-adv-x="636" 
d="M385 1565v-1880h-133v1880h133z" />
    <glyph glyph-name="braceright" unicode="}" horiz-adv-x="741" 
d="M303 811v377q0 127 -47 178t-160 51v127q180 0 263 -88t83 -274v-367q0 -127 46 -174t161 -47v-125q-115 0 -161 -47t-46 -172v-369q0 -186 -83 -273t-263 -87v127q113 0 160 51t47 178v375q0 124 33 188t117 92q-84 30 -117 94t-33 185z" />
    <glyph glyph-name="asciitilde" unicode="~" horiz-adv-x="940" 
d="M715 809h123q0 -80 -34 -135q-61 -99 -190 -90q-55 4 -100 30l-129 88q-57 39 -109 15q-51 -25 -51 -94h-125q0 80 35 135q63 99 191 90q55 -4 98 -31l131 -88q57 -39 109 -15t51 95z" />
    <glyph glyph-name="exclamdown" unicode="&#xa1;" horiz-adv-x="544" 
d="M197 594h139l8 -1032h-154zM268 981q43 0 73 -29q30 -30 30 -72t-30 -71t-73 -29q-42 0 -72 29t-30 72t30 71t72 29z" />
    <glyph glyph-name="cent" unicode="&#xa2;" horiz-adv-x="1058" 
d="M684 -256h-129v252q-205 18 -330 154t-125 345q0 210 124 344t331 154v252h129v-250q137 -6 272 -51l-22 -115q-168 43 -322 43t-261 -103t-107 -273t106 -274t275 -105q128 0 327 51l23 -119q-145 -45 -291 -55v-250z" />
    <glyph glyph-name="sterling" unicode="&#xa3;" horiz-adv-x="1263" 
d="M1176 0h-1086v123h154v457h-154v122h154v299q0 191 135 307t335 116t369 -46l-24 -116q-178 36 -332 36t-248 -80t-94 -217v-299h489v-122h-489v-457h791v-123z" />
    <glyph glyph-name="yen" unicode="&#xa5;" horiz-adv-x="1396" 
d="M1212 582v-109h-440v-180h440v-109h-440v-184h-145v184h-443v109h443v180h-443v109h389l-532 811h166l491 -746l494 746h164l-531 -811h387z" />
    <glyph glyph-name="brokenbar" unicode="&#xa6;" horiz-adv-x="636" 
d="M385 -317h-133v835h133v-835zM385 727h-133v836h133v-836z" />
    <glyph glyph-name="section" unicode="&#xa7;" horiz-adv-x="1093" 
d="M213 634q0 -88 74 -144q75 -56 231 -126t197 -90q84 56 125 108t41 139t-74 143q-75 56 -231 127q-156 70 -197 90q-84 -55 -125 -107t-41 -140zM178 1142q0 126 102 204t290 77q188 0 358 -71l-41 -111q-173 68 -309 68q-270 0 -269 -170q0 -68 50 -105q50 -38 127 -70
t83 -35q7 -3 17 -7t18 -9q217 -88 309 -168q93 -80 93 -203q0 -122 -52 -192t-147 -129q111 -82 111 -208q0 -125 -102 -203t-292 -78q-189 0 -358 71l41 111q172 -68 308 -68q271 0 269 170q0 68 -50 105t-138 75t-107 46q-217 88 -309 168t-92 203t51 193t148 128
q-109 82 -109 208z" />
    <glyph glyph-name="dieresis" unicode="&#xa8;" 
d="M829 1382q41 0 70 -28t29 -67t-29 -67t-70 -28t-69 28t-29 68q1 40 29 66q28 28 69 28zM399 1382q41 0 70 -28t29 -67t-29 -67t-70 -28t-69 28t-29 66q1 38 29 68q28 28 69 28z" />
    <glyph glyph-name="copyright" unicode="&#xa9;" horiz-adv-x="1720" 
d="M874 997q-145 1 -223 -79t-78 -224t78 -222q78 -79 221 -79q96 0 256 39l19 -92q-143 -49 -275 -49q-200 1 -308 109t-107 294q0 186 108 295q109 109 309 109q119 0 273 -47l-19 -95q-154 41 -254 41zM860 1350q-285 0 -476 -188t-191 -466q0 -279 191 -466t476 -187
t476 187t192 466q0 278 -192 466t-476 188zM860 1423q318 0 532 -208t214 -519t-213 -519t-533 -208t-532 208q-213 208 -213 519t213 519t532 208z" />
    <glyph glyph-name="ordfeminine" unicode="&#xaa;" horiz-adv-x="946" 
d="M233 928q0 -125 207 -125q96 0 254 22v236l-264 -12q-197 -8 -197 -121zM512 1423q144 0 216 -61t73 -193v-421q-225 -37 -381 -37q-295 0 -295 219q0 190 317 207l252 10v20q-4 82 -48 119t-150 37t-281 -25l-12 97q165 28 309 28z" />
    <glyph glyph-name="guillemotleft" unicode="&#xab;" horiz-adv-x="1116" 
d="M965 176l-78 -76l-381 404l381 401l80 -65l-297 -332zM563 176l-80 -76l-379 404l379 401l82 -65l-297 -332z" />
    <glyph glyph-name="registered" unicode="&#xae;" horiz-adv-x="1720" 
d="M692 670h182q90 0 148 47q57 47 57 128t-57 123q-58 42 -154 42l-176 -6v-334zM692 578v-273h-104v791q215 6 276 6q146 0 232 -68t86 -190q0 -178 -181 -238l228 -301h-129l-203 275l-39 -2h-166zM860 1350q-285 0 -476 -188t-191 -466q0 -279 191 -466t476 -187
t476 187t192 466q0 278 -192 466t-476 188zM860 1423q318 0 532 -208t214 -519t-213 -519t-533 -208t-532 208q-213 208 -213 519t213 519t532 208z" />
    <glyph glyph-name="macron" unicode="&#xaf;" 
d="M891 1378v-114h-555v114h555z" />
    <glyph glyph-name="degree" unicode="&#xb0;" horiz-adv-x="997" 
d="M499 864q95 0 161 66t67 160q0 94 -67 160q-68 66 -162 65q-94 0 -161 -66q-67 -65 -67 -159t67 -160t162 -66zM499 1423q146 0 243 -95q98 -95 98 -238q0 -142 -98 -238t-243 -96q-146 0 -245 95q-98 95 -98 239t98 238q99 95 245 95z" />
    <glyph glyph-name="plusminus" unicode="&#xb1;" horiz-adv-x="1419" 
d="M1180 223v-131h-940v131h940zM1180 664h-400v-326h-137v326h-403v131h403v325h137v-325h400v-131z" />
    <glyph glyph-name="twosuperior" unicode="&#xb2;" horiz-adv-x="720" 
d="M637 627h-561v73l280 246q76 66 110 110t34 108t-47 100t-140 36t-215 -49l-26 97q119 57 260 57t213 -67q71 -67 71 -158q0 -92 -50 -160t-150 -158l-160 -139h381v-96z" />
    <glyph glyph-name="threesuperior" unicode="&#xb3;" horiz-adv-x="731" 
d="M332 614q-150 0 -275 64l39 88q124 -53 228 -53t161 38t58 97q0 123 -187 123h-145v53l252 270h-365v99h518v-68l-249 -260l18 -2q123 -5 193 -61t70 -156t-83 -166t-233 -66z" />
    <glyph glyph-name="acute" unicode="&#xb4;" 
d="M872 1489l-223 -320h-137l172 320h188z" />
    <glyph glyph-name="paragraph" unicode="&#xb6;" horiz-adv-x="1527" 
d="M219 943q0 -159 90 -249t258 -90h201v668l-201 2q-172 0 -260 -86t-88 -245zM582 1409q508 0 757 -16v-1606h-145v1475q-164 8 -281 8v-1483h-145v686h-186q-240 0 -373 126t-133 345t131 342t375 123z" />
    <glyph glyph-name="periodcentered" unicode="&#xb7;" horiz-adv-x="561" 
d="M281 418q-47 0 -79 31t-32 75t32 77q32 32 79 32t79 -32t31 -77q1 -46 -31 -76t-79 -30z" />
    <glyph glyph-name="cedilla" unicode="&#xb8;" 
d="M563 -418h-121l105 316h137z" />
    <glyph glyph-name="onesuperior" unicode="&#xb9;" horiz-adv-x="589" 
d="M532 729v-98h-483v98h195v528l-183 -53l-24 99l282 90h33v-664h180z" />
    <glyph glyph-name="ordmasculine" unicode="&#xba;" horiz-adv-x="927" 
d="M464 811q110 0 182 72q72 71 73 185q0 114 -73 184q-72 70 -182 69q-110 0 -182 -70q-72 -69 -73 -183q1 -114 73 -186t182 -71zM464 1423q161 0 265 -98q105 -98 105 -257t-104 -260t-266 -101q-161 0 -265 101q-105 101 -105 260t104 257t266 98z" />
    <glyph glyph-name="guillemotright" unicode="&#xbb;" horiz-adv-x="1116" 
d="M547 840l80 65l381 -401l-381 -404l-80 76l297 332zM145 840l82 65l379 -401l-379 -404l-80 76l295 332z" />
    <glyph glyph-name="onequarter" unicode="&#xbc;" horiz-adv-x="1773" 
d="M1427 266v367l-329 -367h329zM1657 266v-96h-119v-170h-111v170h-473v80l467 512h117v-496h119zM1421 1393l-927 -1393h-93l928 1393h92zM139 631v98h195v528l-182 -53l-25 99l283 90h32v-664h181v-98h-484z" />
    <glyph glyph-name="onehalf" unicode="&#xbd;" horiz-adv-x="1808" 
d="M1669 96v-96h-559v74l279 245q76 66 109 110q34 43 34 107t-47 101t-141 37t-211 -49l-29 96q119 57 260 57t213 -66t72 -158q-1 -91 -51 -161t-148 -157l-160 -140h379zM1389 1393l-928 -1393h-90l927 1393h91zM139 631v98h195v528l-182 -53l-25 99l283 90h32v-664h181
v-98h-484z" />
    <glyph glyph-name="threequarters" unicode="&#xbe;" horiz-adv-x="1888" 
d="M1493 266v367l-330 -367h330zM1604 266h118v-96h-118v-170h-111v170h-473v80l467 512h117v-496zM561 0h-90l928 1393h90zM426 614q-150 0 -274 64l38 88q124 -53 228 -53t162 38q57 38 57 97q0 123 -186 123h-146v53l252 270h-364v99h518v-68l-250 -260l18 -2
q123 -5 193 -61t70 -156t-83 -166t-233 -66z" />
    <glyph glyph-name="questiondown" unicode="&#xbf;" horiz-adv-x="1026" 
d="M594 -393q-219 -1 -353 115q-135 116 -135 309t126 313t329 121h49l-8 205h131l25 -324h-172q-156 0 -249 -88t-93 -226t95 -219t251 -81t332 39l22 -119q-184 -45 -350 -45zM662 856q-43 0 -73 29t-30 71t30 72q30 29 73 29q42 0 72 -29t30 -72q0 -44 -30 -72t-72 -28z
" />
    <glyph glyph-name="Agrave" unicode="&#xc0;" horiz-adv-x="1556" 
d="M778 1217l-332 -746h662zM389 340l-149 -340h-164l633 1403h139l633 -1403h-162l-152 340h-778zM848 1524h-137l-224 311h189z" />
    <glyph glyph-name="Aacute" unicode="&#xc1;" horiz-adv-x="1556" 
d="M778 1217l-332 -746h662zM389 340l-149 -340h-164l633 1403h139l633 -1403h-162l-152 340h-778zM1087 1835l-223 -311h-147l182 311h188z" />
    <glyph glyph-name="Acircumflex" unicode="&#xc2;" horiz-adv-x="1556" 
d="M778 1217l-332 -746h662zM389 340l-149 -340h-164l633 1403h139l633 -1403h-162l-152 340h-778zM778 1737l-182 -213h-141l258 311h131l258 -311h-141z" />
    <glyph glyph-name="Atilde" unicode="&#xc3;" horiz-adv-x="1556" 
d="M778 1217l-332 -746h662zM389 340l-149 -340h-164l633 1403h139l633 -1403h-162l-152 340h-778zM987 1735h113q0 -70 -30 -118q-30 -47 -74 -65q-95 -38 -179 11l-112 75q-49 33 -93 13t-45 -80h-110q0 92 51 145q89 92 231 25l113 -74q49 -33 92 -12t43 80z" />
    <glyph glyph-name="Adieresis" unicode="&#xc4;" horiz-adv-x="1556" 
d="M778 1217l-332 -746h662zM389 340l-149 -340h-164l633 1403h139l633 -1403h-162l-152 340h-778zM993 1581q-41 0 -69 28q-28 27 -29 67q0 40 29 68q30 28 70 28t69 -28t29 -68t-29 -68t-70 -27zM563 1581q-41 0 -69 28q-28 27 -29 67q0 40 29 68q30 28 70 28t69 -28
t29 -68t-29 -68t-70 -27z" />
    <glyph glyph-name="Aring" unicode="&#xc5;" horiz-adv-x="1556" 
d="M778 1217l-332 -746h662zM389 340l-149 -340h-164l633 1403h139l633 -1403h-162l-152 340h-778zM780 1575q49 0 81 31t32 81q0 49 -33 81t-80 32t-80 -32q-32 -32 -32 -82t32 -80q32 -31 80 -31zM779 1878q87 0 143 -53t57 -138q0 -85 -56 -139q-57 -54 -143 -53
q-86 0 -142 53q-56 52 -56 138t55 139t142 53z" />
    <glyph glyph-name="AE" unicode="&#xc6;" horiz-adv-x="2263" 
d="M1157 471v746l-557 -746h557zM1300 764h740v-135h-740v-496h824v-133h-967v336h-653l-250 -336h-178l1040 1393h1008v-133h-824v-496z" />
    <glyph glyph-name="Ccedilla" unicode="&#xc7;" horiz-adv-x="1538" 
d="M784 -418h-120l104 316h137zM289 696q0 -266 166 -429t442 -163q199 0 481 76l27 -127q-270 -84 -514 -84q-344 0 -550 200q-206 201 -206 529t208 527t560 198q242 1 473 -69l-26 -135q-246 66 -430 65q-297 0 -464 -161t-167 -427z" />
    <glyph glyph-name="Egrave" unicode="&#xc8;" horiz-adv-x="1312" 
d="M350 764h737v-135h-737v-496h824v-133h-969v1393h969v-133h-824v-496zM752 1524h-138l-223 311h189z" />
    <glyph glyph-name="Eacute" unicode="&#xc9;" horiz-adv-x="1312" 
d="M350 764h737v-135h-737v-496h824v-133h-969v1393h969v-133h-824v-496zM991 1835l-223 -311h-147l182 311h188z" />
    <glyph glyph-name="Ecircumflex" unicode="&#xca;" horiz-adv-x="1312" 
d="M350 764h737v-135h-737v-496h824v-133h-969v1393h969v-133h-824v-496zM682 1737l-182 -213h-142l258 311h132l258 -311h-142z" />
    <glyph glyph-name="Edieresis" unicode="&#xcb;" horiz-adv-x="1312" 
d="M350 764h737v-135h-737v-496h824v-133h-969v1393h969v-133h-824v-496zM897 1581q-41 0 -70 28q-29 27 -29 67t29 68t70 28t70 -28t29 -68t-30 -68q-28 -28 -69 -27zM467 1581q-41 0 -70 28q-29 27 -29 67t29 68t70 28t70 -28t29 -68t-30 -68q-28 -28 -69 -27z" />
    <glyph glyph-name="Igrave" unicode="&#xcc;" horiz-adv-x="555" 
d="M350 1393v-1393h-145v1393h145zM346 1524h-137l-223 311h188z" />
    <glyph glyph-name="Iacute" unicode="&#xcd;" horiz-adv-x="555" 
d="M350 1393v-1393h-145v1393h145zM586 1835l-224 -311h-147l182 311h189z" />
    <glyph glyph-name="Icircumflex" unicode="&#xce;" horiz-adv-x="555" 
d="M350 1393v-1393h-145v1393h145zM276 1737l-182 -213h-141l258 311h131l258 -311h-141z" />
    <glyph glyph-name="Idieresis" unicode="&#xcf;" horiz-adv-x="555" 
d="M350 1393v-1393h-145v1393h145zM492 1581q-41 0 -70 28q-29 27 -29 67t29 68t70 28q42 0 70 -28t28 -68t-28 -68t-70 -27zM61 1581q-41 0 -69 28q-28 27 -29 67q0 40 29 68q30 28 70 28t69 -28t29 -68t-29 -68t-70 -27z" />
    <glyph glyph-name="Eth" unicode="&#xd0;" horiz-adv-x="1538" 
d="M692 121q248 0 404 159t156 424q0 266 -160 418q-158 152 -418 152q-115 0 -324 -8v-510h373v-133h-373v-496q166 -6 342 -6zM674 1409q328 0 530 -190t201 -516q0 -326 -199 -522t-514 -195q-205 0 -487 14v623h-135v133h135v637q322 16 469 16z" />
    <glyph glyph-name="Ntilde" unicode="&#xd1;" horiz-adv-x="1599" 
d="M1395 1393v-1393h-148l-897 1155v-1155h-145v1393h141l903 -1160v1160h146zM999 1735h113q0 -70 -30 -118q-54 -87 -166 -80q-48 3 -87 26l-112 75q-49 33 -93 13t-44 -80h-111q0 92 51 145q88 92 232 25l112 -74q49 -33 92 -12t43 80z" />
    <glyph glyph-name="Ograve" unicode="&#xd2;" horiz-adv-x="1734" 
d="M866 104q258 0 420 164t162 428t-162 427t-420 163t-419 -163t-161 -427t162 -428q160 -164 418 -164zM867 1423q327 -1 530 -201t203 -526t-204 -526q-202 -200 -529 -201q-327 0 -529 201q-202 200 -203 526q1 326 203 526t529 201zM936 1524h-137l-224 311h189z" />
    <glyph glyph-name="Oacute" unicode="&#xd3;" horiz-adv-x="1734" 
d="M866 104q258 0 420 164t162 428t-162 427t-420 163t-419 -163t-161 -427t162 -428q160 -164 418 -164zM867 1423q327 -1 530 -201t203 -526t-204 -526q-202 -200 -529 -201q-327 0 -529 201q-202 200 -203 526q1 326 203 526t529 201zM1176 1835l-224 -311h-147l182 311
h189z" />
    <glyph glyph-name="Ocircumflex" unicode="&#xd4;" horiz-adv-x="1734" 
d="M866 104q258 0 420 164t162 428t-162 427t-420 163t-419 -163t-161 -427t162 -428q160 -164 418 -164zM867 1423q327 -1 530 -201t203 -526t-204 -526q-202 -200 -529 -201q-327 0 -529 201q-202 200 -203 526q1 326 203 526t529 201zM866 1737l-182 -213h-141l258 311
h131l258 -311h-141z" />
    <glyph glyph-name="Otilde" unicode="&#xd5;" horiz-adv-x="1734" 
d="M866 104q258 0 420 164t162 428t-162 427t-420 163t-419 -163t-161 -427t162 -428q160 -164 418 -164zM867 1423q327 -1 530 -201t203 -526t-204 -526q-202 -200 -529 -201q-327 0 -529 201q-202 200 -203 526q1 326 203 526t529 201zM1075 1735h113q0 -70 -30 -118
q-30 -47 -74 -65q-95 -38 -179 11l-112 75q-49 33 -93 13t-45 -80h-110q0 92 51 145q89 92 231 25l113 -74q49 -33 92 -12t43 80z" />
    <glyph glyph-name="Odieresis" unicode="&#xd6;" horiz-adv-x="1734" 
d="M866 104q258 0 420 164t162 428t-162 427t-420 163t-419 -163t-161 -427t162 -428q160 -164 418 -164zM867 1423q327 -1 530 -201t203 -526t-204 -526q-202 -200 -529 -201q-327 0 -529 201q-202 200 -203 526q1 326 203 526t529 201zM1081 1581q-41 0 -69 28
q-28 27 -29 67q0 40 29 68q30 28 70 28t69 -28t29 -68t-29 -68t-70 -27zM651 1581q-41 0 -69 28q-28 27 -29 67q0 40 29 68q30 28 70 28t69 -28t29 -68t-29 -68t-70 -27z" />
    <glyph glyph-name="multiply" unicode="&#xd7;" horiz-adv-x="1359" 
d="M1096 328l-95 -92l-321 323l-324 -323l-94 92l324 323l-324 324l94 92l324 -322l321 322l95 -92l-324 -324z" />
    <glyph glyph-name="Oslash" unicode="&#xd8;" horiz-adv-x="1734" 
d="M866 104q258 0 420 164t162 422t-150 420l-776 -903q143 -103 344 -103zM866 1286q-258 0 -418 -163t-161 -418q0 -255 141 -414l774 901q-141 94 -336 94zM868 -31q-256 0 -440 127l-106 -123l-97 82l105 123q-195 200 -195 522t203 523t530 200q248 0 430 -118l101 116
l96 -82l-98 -114q203 -199 203 -527t-204 -528q-202 -200 -528 -201z" />
    <glyph glyph-name="Ugrave" unicode="&#xd9;" horiz-adv-x="1562" 
d="M1378 1393v-834q0 -268 -164 -429t-433 -161t-433 161t-164 429v834h146v-834q0 -207 124 -331t328 -124t327 123q124 123 124 332v834h145zM850 1524h-137l-224 311h189z" />
    <glyph glyph-name="Uacute" unicode="&#xda;" horiz-adv-x="1562" 
d="M1378 1393v-834q0 -268 -164 -429t-433 -161t-433 161t-164 429v834h146v-834q0 -207 124 -331t328 -124t327 123q124 123 124 332v834h145zM1090 1835l-224 -311h-147l182 311h189z" />
    <glyph glyph-name="Ucircumflex" unicode="&#xdb;" horiz-adv-x="1562" 
d="M1378 1393v-834q0 -268 -164 -429t-433 -161t-433 161t-164 429v834h146v-834q0 -207 124 -331t328 -124t327 123q124 123 124 332v834h145zM782 1737l-182 -213h-141l258 311h131l258 -311h-141z" />
    <glyph glyph-name="Udieresis" unicode="&#xdc;" horiz-adv-x="1562" 
d="M1378 1393v-834q0 -268 -164 -429t-433 -161t-433 161t-164 429v834h146v-834q0 -207 124 -331t328 -124t327 123q124 123 124 332v834h145zM997 1581q-41 0 -69 28q-28 27 -29 67q0 40 29 68q30 28 70 28t69 -28t29 -68t-29 -68t-70 -27zM567 1581q-41 0 -69 28
q-28 27 -29 67q0 40 29 68q30 28 70 28t69 -28t29 -68t-29 -68t-70 -27z" />
    <glyph glyph-name="Yacute" unicode="&#xdd;" horiz-adv-x="1421" 
d="M784 0h-145v498l-586 895h166l492 -746l493 746h164l-584 -895v-498zM1018 1835l-223 -311h-148l182 311h189z" />
    <glyph glyph-name="Thorn" unicode="&#xde;" horiz-adv-x="1310" 
d="M350 381h340q174 0 282 91t108 247t-107 244q-106 88 -283 88q-131 0 -340 -11v-659zM676 1184q248 0 398 -125t149 -339q0 -214 -152 -343t-395 -129h-326v-248h-145v1393h145v-217q162 8 326 8z" />
    <glyph glyph-name="germandbls" unicode="&#xdf;" horiz-adv-x="1329" 
d="M539 1542v-127q-111 0 -159 -58t-48 -188v-223h854v-92l-398 -453h60q184 -12 293 -115t109 -288q0 -184 -138 -304q-137 -120 -362 -120q-147 0 -301 41l22 119q172 -35 281 -35q162 0 261 84t99 217t-87 206t-232 73h-197v69l399 467h-663v-815h-139v1182q0 186 82 273
q84 87 264 87z" />
    <glyph glyph-name="agrave" unicode="&#xe0;" horiz-adv-x="1249" 
d="M600 856q-164 0 -257 -104t-93 -278t95 -278q95 -106 256 -106t335 115v624q-172 27 -336 27zM590 977q221 0 485 -51v-926h-139v84q-174 -115 -370 -115q-196 -1 -326 139q-129 140 -128 368t129 364t349 137zM748 1169h-140l-223 320h188z" />
    <glyph glyph-name="aacute" unicode="&#xe1;" horiz-adv-x="1249" 
d="M600 856q-164 0 -257 -104t-93 -278t95 -278q95 -106 256 -106t335 115v624q-172 27 -336 27zM590 977q221 0 485 -51v-926h-139v84q-174 -115 -370 -115q-196 -1 -326 139q-129 140 -128 368t129 364t349 137zM915 1489l-223 -320h-137l172 320h188z" />
    <glyph glyph-name="acircumflex" unicode="&#xe2;" horiz-adv-x="1249" 
d="M600 856q-164 0 -257 -104t-93 -278t95 -278q95 -106 256 -106t335 115v624q-172 27 -336 27zM590 977q221 0 485 -51v-926h-139v84q-174 -115 -370 -115q-196 -1 -326 139q-129 140 -128 368t129 364t349 137zM645 1368l-182 -205h-141l258 305h131l258 -305h-142z" />
    <glyph glyph-name="atilde" unicode="&#xe3;" horiz-adv-x="1249" 
d="M600 856q-164 0 -257 -104t-93 -278t95 -278q95 -106 256 -106t335 115v624q-172 27 -336 27zM590 977q221 0 485 -51v-926h-139v84q-174 -115 -370 -115q-196 -1 -326 139q-129 140 -128 368t129 364t349 137zM854 1380h113q0 -70 -30 -118t-74 -64q-96 -38 -179 12
l-113 74q-49 32 -93 12t-44 -79h-110q0 92 51 145q89 92 231 24l113 -73q49 -33 92 -13t43 80z" />
    <glyph glyph-name="adieresis" unicode="&#xe4;" horiz-adv-x="1249" 
d="M600 856q-164 0 -257 -104t-93 -278t95 -278q95 -106 256 -106t335 115v624q-172 27 -336 27zM590 977q221 0 485 -51v-926h-139v84q-174 -115 -370 -115q-196 -1 -326 139q-129 140 -128 368t129 364t349 137zM860 1382q41 0 70 -28q28 -28 28 -67t-28 -67t-70 -28
t-70 28t-28 68t28 66q28 28 70 28zM430 1382q41 0 70 -28q28 -28 28 -67t-28 -67t-70 -28q-41 0 -70 28q-28 28 -28 66t28 68q29 28 70 28z" />
    <glyph glyph-name="aring" unicode="&#xe5;" horiz-adv-x="1249" 
d="M600 856q-164 0 -257 -104t-93 -278t95 -278q95 -106 256 -106t335 115v624q-172 27 -336 27zM590 977q221 0 485 -51v-926h-139v84q-174 -115 -370 -115q-196 -1 -326 139q-129 140 -128 368t129 364t349 137zM647 1208q49 0 81 32t32 81t-32 81t-81 32t-81 -32t-32 -81
t32 -81t81 -32zM646 1513q88 0 144 -53t56 -138t-56 -139q-56 -55 -142 -55t-143 54q-56 54 -56 140q0 85 55 138t142 53z" />
    <glyph glyph-name="ae" unicode="&#xe6;" horiz-adv-x="1847" 
d="M223 272q0 -188 291 -188q152 0 369 76q-78 106 -90 250h-291q-279 3 -279 -138zM1278 862q-146 0 -239 -90t-107 -242h672q-2 154 -90 243q-90 89 -236 89zM1733 526q0 -59 -7 -106h-792q16 -148 116 -236t238 -88t365 54l20 -115q-219 -66 -373 -66q-203 0 -333 103
q-270 -102 -482 -103q-395 0 -395 307q0 256 422 252l274 -2v80q0 126 -48 188t-156 62q-170 0 -373 -33l-14 119q231 39 393 39q240 0 303 -180q139 176 389 176q201 0 327 -122t126 -327v-2z" />
    <glyph glyph-name="ccedilla" unicode="&#xe7;" horiz-adv-x="1085" 
d="M537 -418h-121l104 316h137zM649 860q-180 0 -289 -105q-108 -105 -108 -279t106 -278q106 -105 275 -106q125 0 328 53l22 -116q-188 -59 -354 -60q-229 -1 -373 139t-145 369q0 229 146 367t384 137q174 0 324 -51l-21 -113q-168 43 -295 43z" />
    <glyph glyph-name="egrave" unicode="&#xe8;" horiz-adv-x="1167" 
d="M600 862q-146 0 -239 -90t-105 -242h672q-2 154 -91 243q-91 89 -237 89zM111 475q0 225 137 363t346 139q209 0 334 -122t127 -327q0 -63 -6 -108h-789q16 -148 114 -236t244 -88q148 0 357 54l22 -115q-221 -66 -374 -66q-238 1 -375 141t-137 365zM731 1169h-139
l-223 320h188z" />
    <glyph glyph-name="eacute" unicode="&#xe9;" horiz-adv-x="1167" 
d="M600 862q-146 0 -239 -90t-105 -242h672q-2 154 -91 243q-91 89 -237 89zM111 475q0 225 137 363t346 139q209 0 334 -122t127 -327q0 -63 -6 -108h-789q16 -148 114 -236t244 -88q148 0 357 54l22 -115q-221 -66 -374 -66q-238 1 -375 141t-137 365zM899 1489l-223 -320
h-137l172 320h188z" />
    <glyph glyph-name="ecircumflex" unicode="&#xea;" horiz-adv-x="1167" 
d="M600 862q-146 0 -239 -90t-105 -242h672q-2 154 -91 243q-91 89 -237 89zM111 475q0 225 137 363t346 139q209 0 334 -122t127 -327q0 -63 -6 -108h-789q16 -148 114 -236t244 -88q148 0 357 54l22 -115q-221 -66 -374 -66q-238 1 -375 141t-137 365zM629 1368l-183 -205
h-141l258 305h131l258 -305h-141z" />
    <glyph glyph-name="edieresis" unicode="&#xeb;" horiz-adv-x="1167" 
d="M600 862q-146 0 -239 -90t-105 -242h672q-2 154 -91 243q-91 89 -237 89zM111 475q0 225 137 363t346 139q209 0 334 -122t127 -327q0 -63 -6 -108h-789q16 -148 114 -236t244 -88q148 0 357 54l22 -115q-221 -66 -374 -66q-238 1 -375 141t-137 365zM846 1382
q42 0 70 -28t28 -67t-29 -67t-69 -28t-70 28q-28 28 -28 68t28 67q29 27 70 27zM416 1382q42 0 70 -28t28 -67t-29 -67t-69 -28t-70 28q-29 28 -29 66t29 68q29 28 70 28z" />
    <glyph glyph-name="igrave" unicode="&#xec;" horiz-adv-x="514" 
d="M326 946v-946h-140v946h140zM313 1169h-137l-223 320h188z" />
    <glyph glyph-name="iacute" unicode="&#xed;" horiz-adv-x="514" 
d="M326 946v-946h-140v946h140zM551 1489l-223 -320h-140l174 320h189z" />
    <glyph glyph-name="icircumflex" unicode="&#xee;" horiz-adv-x="514" 
d="M326 946v-946h-140v946h140zM258 1368l-182 -205h-142l259 305h131l258 -305h-142z" />
    <glyph glyph-name="idieresis" unicode="&#xef;" horiz-adv-x="514" 
d="M326 946v-946h-140v946h140zM473 1382q41 0 70 -28t29 -67t-30 -67q-28 -28 -69 -28t-70 28t-29 68t29 67t70 27zM43 1382q41 0 70 -28t29 -67t-30 -67q-28 -28 -69 -28t-70 28t-29 66t29 68q29 28 70 28z" />
    <glyph glyph-name="eth" unicode="&#xf0;" horiz-adv-x="1257" 
d="M629 854q-163 0 -269 -104t-106 -274t105 -275q105 -107 275 -107t269 106q101 106 101 281q0 177 -106 275t-269 98zM1147 496q0 -244 -139 -386q-140 -142 -372 -142t-378 140q-146 142 -147 367q0 225 143 367t365 141q222 0 333 -166q-84 256 -258 395l-325 -120
l-33 90l262 98q-115 76 -246 119l150 59q135 -49 241 -125l175 64l34 -90l-123 -47q147 -129 233 -325q86 -195 85 -439z" />
    <glyph glyph-name="ntilde" unicode="&#xf1;" horiz-adv-x="1247" 
d="M698 977q180 1 282 -103t103 -284v-590h-139v557q0 137 -73 214t-199 77q-188 0 -353 -29v-819h-139v926q231 51 518 51zM831 1380h113q0 -70 -30 -118t-74 -64q-96 -38 -178 12l-113 74q-49 32 -93 12t-44 -79h-111q0 92 51 145q89 93 232 24l112 -73q49 -33 92 -13
t43 80z" />
    <glyph glyph-name="ograve" unicode="&#xf2;" horiz-adv-x="1257" 
d="M629 94q166 0 270 106q105 106 105 276t-104 274t-271 104t-271 -103t-104 -275t104 -276q104 -106 271 -106zM629 983q229 0 373 -140q144 -141 144 -367t-144 -367t-373 -141t-373 140q-144 142 -145 368q0 226 144 367q145 140 374 140zM731 1169h-139l-223 320h188z
" />
    <glyph glyph-name="oacute" unicode="&#xf3;" horiz-adv-x="1257" 
d="M629 94q166 0 270 106q105 106 105 276t-104 274t-271 104t-271 -103t-104 -275t104 -276q104 -106 271 -106zM629 983q229 0 373 -140q144 -141 144 -367t-144 -367t-373 -141t-373 140q-144 142 -145 368q0 226 144 367q145 140 374 140zM897 1489l-223 -320h-137
l172 320h188z" />
    <glyph glyph-name="ocircumflex" unicode="&#xf4;" horiz-adv-x="1257" 
d="M629 94q166 0 270 106q105 106 105 276t-104 274t-271 104t-271 -103t-104 -275t104 -276q104 -106 271 -106zM629 983q229 0 373 -140q144 -141 144 -367t-144 -367t-373 -141t-373 140q-144 142 -145 368q0 226 144 367q145 140 374 140zM629 1368l-183 -205h-141
l258 305h131l258 -305h-141z" />
    <glyph glyph-name="otilde" unicode="&#xf5;" horiz-adv-x="1257" 
d="M629 94q166 0 270 106q105 106 105 276t-104 274t-271 104t-271 -103t-104 -275t104 -276q104 -106 271 -106zM629 983q229 0 373 -140q144 -141 144 -367t-144 -367t-373 -141t-373 140q-144 142 -145 368q0 226 144 367q145 140 374 140zM838 1380h112q0 -70 -30 -118
t-73 -64q-96 -38 -179 12l-113 74q-49 32 -93 12t-44 -79h-111q0 92 51 145q89 93 232 24l112 -73q49 -33 93 -13q43 21 43 80z" />
    <glyph glyph-name="odieresis" unicode="&#xf6;" horiz-adv-x="1257" 
d="M629 94q166 0 270 106q105 106 105 276t-104 274t-271 104t-271 -103t-104 -275t104 -276q104 -106 271 -106zM629 983q229 0 373 -140q144 -141 144 -367t-144 -367t-373 -141t-373 140q-144 142 -145 368q0 226 144 367q145 140 374 140zM844 1382q42 0 70 -28t28 -67
t-29 -67t-69 -28t-70 28q-29 28 -29 68t29 66q29 28 70 28zM414 1382q42 0 70 -28t28 -67t-29 -67t-69 -28t-70 28q-29 28 -29 66t29 68q29 28 70 28z" />
    <glyph glyph-name="divide" unicode="&#xf7;" horiz-adv-x="1419" 
d="M616 283q0 39 27 65t67 27q40 0 68 -27q28 -28 27 -66q1 -38 -27 -64t-68 -25q-40 -1 -67 25t-27 65zM240 727h940v-131h-940v131zM711 950q-39 0 -67 27t-28 65t28 66q28 27 67 27t67 -27t27 -66q1 -40 -27 -66t-67 -26z" />
    <glyph glyph-name="oslash" unicode="&#xf8;" horiz-adv-x="1257" 
d="M629 94q166 0 270 106q105 106 105 270q0 165 -93 269l-491 -587q90 -58 209 -58zM254 485q0 -162 86 -264l489 584q-92 49 -200 49q-166 0 -271 -103q-104 -104 -104 -266zM111 479q0 223 144 363t374 141q162 0 286 -74l121 144l80 -70l-117 -137q147 -140 147 -368
t-144 -369t-373 -142q-170 0 -297 80l-129 -153l-80 67l127 152q-139 143 -139 366z" />
    <glyph glyph-name="ugrave" unicode="&#xf9;" horiz-adv-x="1251" 
d="M1073 946v-926q-217 -51 -518 -51q-181 1 -283 97t-102 290v590h139v-563q0 -143 70 -218q71 -75 223 -75t332 29v827h139zM727 1169h-139l-223 320h188z" />
    <glyph glyph-name="uacute" unicode="&#xfa;" horiz-adv-x="1251" 
d="M1073 946v-926q-217 -51 -518 -51q-181 1 -283 97t-102 290v590h139v-563q0 -143 70 -218q71 -75 223 -75t332 29v827h139zM893 1489l-223 -320h-138l173 320h188z" />
    <glyph glyph-name="ucircumflex" unicode="&#xfb;" horiz-adv-x="1251" 
d="M1073 946v-926q-217 -51 -518 -51q-181 1 -283 97t-102 290v590h139v-563q0 -143 70 -218q71 -75 223 -75t332 29v827h139zM625 1368l-183 -205h-141l258 305h131l258 -305h-141z" />
    <glyph glyph-name="udieresis" unicode="&#xfc;" horiz-adv-x="1251" 
d="M1073 946v-926q-217 -51 -518 -51q-181 1 -283 97t-102 290v590h139v-563q0 -143 70 -218q71 -75 223 -75t332 29v827h139zM840 1382q42 0 70 -28t28 -67t-29 -67t-69 -28t-70 28q-29 28 -29 68t29 66q29 28 70 28zM410 1382q42 0 70 -28t28 -67t-29 -67t-69 -28t-70 28
q-29 28 -29 66t29 68q29 28 70 28z" />
    <glyph glyph-name="yacute" unicode="&#xfd;" horiz-adv-x="1261" 
d="M1188 946l-719 -1407h-158l260 510l-487 897h160l403 -747l383 747h158zM678 1169h-137l172 320h188z" />
    <glyph glyph-name="thorn" unicode="&#xfe;" horiz-adv-x="1263" 
d="M646 90q171 0 266 106q96 106 96 278q0 174 -94 278t-256 104q-163 0 -336 -27v-710q153 -29 324 -29zM668 977q221 0 349 -136q128 -137 129 -365t-128 -367t-334 -139t-362 28v-461h-140v1917h140v-506q166 29 346 29z" />
    <glyph glyph-name="ydieresis" unicode="&#xff;" horiz-adv-x="1261" 
d="M1188 946l-719 -1407h-158l260 510l-487 897h160l403 -747l383 747h158zM846 1192q-41 0 -70 28q-28 28 -28 68t28 67q29 27 70 27q42 0 70 -28t28 -67t-28 -67t-70 -28zM416 1192q-41 0 -70 28t-29 66t29 68q29 28 70 28q42 0 70 -28t28 -67t-28 -67t-70 -28z" />
    <glyph glyph-name="Amacron" unicode="&#x100;" horiz-adv-x="1556" 
d="M778 1217l-332 -746h662zM389 340l-149 -340h-164l633 1403h139l633 -1403h-162l-152 340h-778zM1073 1712v-113h-590v113h590z" />
    <glyph glyph-name="amacron" unicode="&#x101;" horiz-adv-x="1249" 
d="M600 856q-164 0 -257 -104t-93 -278t95 -278q95 -106 256 -106t335 115v624q-172 27 -336 27zM590 977q221 0 485 -51v-926h-139v84q-174 -115 -370 -115q-196 -1 -326 139q-129 140 -128 368t129 364t349 137zM922 1378v-114h-555v114h555z" />
    <glyph glyph-name="Abreve" unicode="&#x102;" horiz-adv-x="1556" 
d="M778 1217l-332 -746h662zM389 340l-149 -340h-164l633 1403h139l633 -1403h-162l-152 340h-778zM954 1827h121q0 -135 -81 -214t-216 -79t-216 79t-81 214h119q0 -84 48 -132t130 -48t129 47t47 133z" />
    <glyph glyph-name="abreve" unicode="&#x103;" horiz-adv-x="1249" 
d="M600 856q-164 0 -257 -104t-93 -278t95 -278q95 -106 256 -106t335 115v624q-172 27 -336 27zM590 977q221 0 485 -51v-926h-139v84q-174 -115 -370 -115q-196 -1 -326 139q-129 140 -128 368t129 364t349 137zM821 1446h121q0 -133 -81 -212t-216 -79t-216 79t-81 212
h119q0 -84 48 -132t129 -48t129 47t48 133z" />
    <glyph glyph-name="Aogonek" unicode="&#x104;" horiz-adv-x="1556" 
d="M1108 471l-330 746l-332 -746h662zM1401 -401q-119 0 -191 59t-71 156q0 133 170 209l-142 317h-778l-149 -340h-164l633 1403h139l633 -1403h-80q-141 -66 -141 -164q0 -57 42 -90t117 -33q25 0 70 8l14 -108q-39 -14 -102 -14z" />
    <glyph glyph-name="aogonek" unicode="&#x105;" horiz-adv-x="1249" 
d="M250 474q0 -174 95 -278q95 -106 256 -106t335 115v624q-172 27 -336 27t-257 -104t-93 -278zM764 -201q0 135 172 211v74q-174 -115 -370 -115q-196 -1 -326 139q-129 140 -128 368t129 364t349 137q221 0 485 -51v-926h-16q-86 -37 -130 -78t-44 -99t42 -91t117 -33
q25 0 70 8l14 -108q-39 -14 -102 -15q-118 0 -190 60t-72 155z" />
    <glyph glyph-name="Cacute" unicode="&#x106;" horiz-adv-x="1538" 
d="M289 696q0 -266 166 -429t442 -163q199 0 481 76l27 -127q-270 -84 -514 -84q-344 0 -550 200q-206 201 -206 529t208 527t560 198q242 1 473 -69l-26 -135q-246 66 -430 65q-297 0 -464 -161t-167 -427zM1198 1835l-223 -311h-148l183 311h188z" />
    <glyph glyph-name="cacute" unicode="&#x107;" horiz-adv-x="1085" 
d="M649 860q-180 0 -289 -105q-108 -105 -108 -279t106 -278q106 -105 275 -106q125 0 328 53l22 -116q-188 -59 -354 -60q-229 -1 -373 139t-145 369q0 229 146 367t384 137q174 0 324 -51l-21 -113q-168 43 -295 43zM874 1489l-223 -320h-137l172 320h188z" />
    <glyph glyph-name="Cdotaccent" unicode="&#x10a;" horiz-adv-x="1538" 
d="M289 696q0 -266 166 -429t442 -163q199 0 481 76l27 -127q-270 -84 -514 -84q-344 0 -550 200q-206 201 -206 529t208 527t560 198q242 1 473 -69l-26 -135q-246 66 -430 65q-297 0 -464 -161t-167 -427zM889 1581q-41 0 -70 28q-29 27 -29 67t29 68t70 28t69 -28t29 -68
q-1 -40 -29 -68t-69 -27z" />
    <glyph glyph-name="cdotaccent" unicode="&#x10b;" horiz-adv-x="1085" 
d="M649 860q-180 0 -289 -105q-108 -105 -108 -279t106 -278q106 -105 275 -106q125 0 328 53l22 -116q-188 -59 -354 -60q-229 -1 -373 139t-145 369q0 229 146 367t384 137q174 0 324 -51l-21 -113q-168 43 -295 43zM606 1192q-42 0 -70 28t-28 68t29 67t69 27t70 -28
q29 -28 29 -67t-29 -67t-70 -28z" />
    <glyph glyph-name="Ccaron" unicode="&#x10c;" horiz-adv-x="1538" 
d="M289 696q0 -266 166 -429t442 -163q199 0 481 76l27 -127q-270 -84 -514 -84q-344 0 -550 200q-206 201 -206 529t208 527t560 198q242 1 473 -69l-26 -135q-246 66 -430 65q-297 0 -464 -161t-167 -427zM954 1513h-131l-258 318h144l180 -217l180 217h143z" />
    <glyph glyph-name="ccaron" unicode="&#x10d;" horiz-adv-x="1085" 
d="M649 860q-180 0 -289 -105q-108 -105 -108 -279t106 -278q106 -105 275 -106q125 0 328 53l22 -116q-188 -59 -354 -60q-229 -1 -373 139t-145 369q0 229 146 367t384 137q174 0 324 -51l-21 -113q-168 43 -295 43zM670 1159h-131l-258 318h143l180 -217l180 217h144z
" />
    <glyph glyph-name="Dcaron" unicode="&#x10e;" horiz-adv-x="1538" 
d="M692 121q248 0 404 159t156 424q0 266 -160 418q-158 152 -418 152q-115 0 -324 -8v-1139q166 -6 342 -6zM674 1409q328 0 530 -190t201 -516q0 -326 -199 -522t-514 -195q-205 0 -487 14v1393q322 16 469 16zM770 1513h-131l-258 318h143l181 -217l180 217h143z" />
    <glyph glyph-name="dcaron" unicode="&#x10f;" horiz-adv-x="1255" 
d="M610 856q-174 0 -268 -102t-94 -278t95 -280q95 -106 261 -106t330 29v694q-150 43 -324 43zM1348 1454l-58 -401h-108l20 401h146zM1075 1454v-1436q-242 -45 -493 -45q-211 1 -341 137t-130 365t130 365t359 137q182 0 334 -43v520h141z" />
    <glyph glyph-name="Dcroat" unicode="&#x110;" horiz-adv-x="1538" 
d="M692 121q248 0 404 159t156 424q0 266 -160 418q-158 152 -418 152q-115 0 -324 -8v-510h373v-133h-373v-496q166 -6 342 -6zM674 1409q328 0 530 -190t201 -516q0 -326 -199 -522t-514 -195q-205 0 -487 14v623h-135v133h135v637q322 16 469 16z" />
    <glyph glyph-name="dcroat" unicode="&#x111;" horiz-adv-x="1255" 
d="M610 856q-174 0 -268 -102t-94 -278t95 -280q95 -106 261 -106t330 29v694q-150 43 -324 43zM1174 1176h-99v-1158q-242 -45 -493 -45q-211 1 -341 137t-130 365t130 365t359 137q182 0 334 -43v242h-379v116h379v162h141v-162h99v-116z" />
    <glyph glyph-name="Emacron" unicode="&#x112;" horiz-adv-x="1312" 
d="M350 764h737v-135h-737v-496h824v-133h-969v1393h969v-133h-824v-496zM977 1712v-113h-590v113h590z" />
    <glyph glyph-name="emacron" unicode="&#x113;" horiz-adv-x="1167" 
d="M600 862q-146 0 -239 -90t-105 -242h672q-2 154 -91 243q-91 89 -237 89zM111 475q0 225 137 363t346 139q209 0 334 -122t127 -327q0 -63 -6 -108h-789q16 -148 114 -236t244 -88q148 0 357 54l22 -115q-221 -66 -374 -66q-238 1 -375 141t-137 365zM907 1378v-114h-555
v114h555z" />
    <glyph glyph-name="Edotaccent" unicode="&#x116;" horiz-adv-x="1312" 
d="M350 764h737v-135h-737v-496h824v-133h-969v1393h969v-133h-824v-496zM682 1581q-41 0 -70 28q-28 27 -28 67t28 68q29 28 70 28t70 -28q28 -28 28 -68t-28 -68t-70 -27z" />
    <glyph glyph-name="edotaccent" unicode="&#x117;" horiz-adv-x="1167" 
d="M600 862q-146 0 -239 -90t-105 -242h672q-2 154 -91 243q-91 89 -237 89zM111 475q0 225 137 363t346 139q209 0 334 -122t127 -327q0 -63 -6 -108h-789q16 -148 114 -236t244 -88q148 0 357 54l22 -115q-221 -66 -374 -66q-238 1 -375 141t-137 365zM631 1192
q-41 0 -70 28t-29 68t29 67t70 27t69 -28t29 -67q-1 -39 -29 -67t-69 -28z" />
    <glyph glyph-name="Eogonek" unicode="&#x118;" horiz-adv-x="1312" 
d="M350 1260v-496h737v-135h-737v-496h824v-133h-117q-160 -70 -160 -172q0 -57 42 -90t118 -33q25 0 69 8l15 -108q-39 -14 -103 -15q-118 0 -190 60t-72 155q0 121 139 195h-710v1393h969v-133h-824z" />
    <glyph glyph-name="eogonek" unicode="&#x119;" horiz-adv-x="1167" 
d="M601 862q-147 0 -240 -90t-105 -242h672q-2 154 -91 243t-236 89zM618 96q148 0 357 54l22 -115q-55 -16 -116 -33q-86 -37 -128 -77t-42 -98t42 -91t117 -33q25 0 70 8l14 -108q-39 -14 -102 -15q-118 0 -190 60t-72 155q0 96 96 168q-20 -2 -63 -2q-238 1 -375 141
t-137 365t137 363t346 139q209 0 334 -122t127 -327q0 -63 -6 -108h-789q16 -148 114 -236q96 -88 244 -88z" />
    <glyph glyph-name="Ecaron" unicode="&#x11a;" horiz-adv-x="1312" 
d="M350 764h737v-135h-737v-496h824v-133h-969v1393h969v-133h-824v-496zM748 1513h-132l-258 318h144l180 -217l180 217h144z" />
    <glyph glyph-name="ecaron" unicode="&#x11b;" horiz-adv-x="1167" 
d="M600 862q-146 0 -239 -90t-105 -242h672q-2 154 -91 243q-91 89 -237 89zM111 475q0 225 137 363t346 139q209 0 334 -122t127 -327q0 -63 -6 -108h-789q16 -148 114 -236t244 -88q148 0 357 54l22 -115q-221 -66 -374 -66q-238 1 -375 141t-137 365zM694 1159h-131
l-258 318h144l180 -217l180 217h143z" />
    <glyph glyph-name="Gbreve" unicode="&#x11e;" horiz-adv-x="1658" 
d="M1511 760v-649q-324 -141 -646 -141t-526 200q-204 202 -204 528t209 526t553 199q246 0 481 -69l-30 -133q-256 63 -443 63q-279 0 -449 -161t-169 -425q0 -264 163 -427t420 -163t502 91v426h-557v135h696zM1053 1827h121q0 -135 -81 -214t-216 -79t-217 79
q-81 79 -80 214h118q0 -84 48 -132t130 -48t130 47q47 47 47 133z" />
    <glyph glyph-name="gbreve" unicode="&#x11f;" horiz-adv-x="1239" 
d="M600 856q-164 0 -257 -104t-93 -270t95 -269q95 -102 266 -102t325 28v690q-172 27 -336 27zM111 482q0 220 129 358q128 138 358 137q230 0 477 -51v-906q0 -240 -136 -384t-376 -144q-174 0 -354 72l27 114q188 -59 342 -59q154 -1 254 105q102 106 104 294
q-158 -28 -362 -28t-333 136q-130 136 -130 356zM827 1446h121q0 -133 -81 -212t-216 -79t-216 79t-81 212h119q0 -84 48 -132t130 -48t129 47t47 133z" />
    <glyph glyph-name="Gdotaccent" unicode="&#x120;" horiz-adv-x="1658" 
d="M1511 760v-649q-324 -141 -646 -141t-526 200q-204 202 -204 528t209 526t553 199q246 0 481 -69l-30 -133q-256 63 -443 63q-279 0 -449 -161t-169 -425q0 -264 163 -427t420 -163t502 91v426h-557v135h696zM877 1581q-41 0 -70 28q-29 27 -29 67t29 68t70 28t69 -28
t29 -68q-1 -40 -29 -68t-69 -27z" />
    <glyph glyph-name="gdotaccent" unicode="&#x121;" horiz-adv-x="1239" 
d="M600 856q-164 0 -257 -104t-93 -270t95 -269q95 -102 266 -102t325 28v690q-172 27 -336 27zM111 482q0 220 129 358q128 138 358 137q230 0 477 -51v-906q0 -240 -136 -384t-376 -144q-174 0 -354 72l27 114q188 -59 342 -59q154 -1 254 105q102 106 104 294
q-158 -28 -362 -28t-333 136q-130 136 -130 356zM651 1192q-41 0 -69 28t-29 68q0 40 29 67q30 27 70 27t69 -28t29 -67t-29 -67t-70 -28z" />
    <glyph glyph-name="Gcommaaccent" unicode="&#x122;" horiz-adv-x="1658" 
d="M969 -234q0 -31 -109 -249h-86l72 182q-59 23 -60 80q0 35 26 61t65 25q39 0 65 -26t27 -47v-26zM1511 760v-649q-324 -141 -646 -141t-526 200q-204 202 -204 528t209 526t553 199q246 0 481 -69l-30 -133q-256 63 -443 63q-279 0 -449 -161t-169 -425q0 -264 163 -427
t420 -163t502 91v426h-557v135h696z" />
    <glyph glyph-name="gcommaaccent" unicode="&#x123;" horiz-adv-x="1239" 
d="M600 856q-164 0 -257 -104t-93 -270t95 -269q95 -102 266 -102t325 28v690q-172 27 -336 27zM111 482q0 220 129 358q128 138 358 137q230 0 477 -51v-906q0 -240 -136 -384t-376 -144q-174 0 -354 72l27 114q188 -59 342 -59q154 -1 254 105q102 106 104 294
q-158 -28 -362 -28t-333 136q-130 136 -130 356zM739 1286q1 -34 -25 -60t-65 -26t-65 26t-27 47v26q0 13 4 23q4 9 8 24t13 29q8 15 26 54t58 119h86l-72 -182q59 -23 59 -80z" />
    <glyph glyph-name="Hbar" unicode="&#x126;" horiz-adv-x="1544" 
d="M1194 1028h-844v-272h844v272zM1440 1028h-101v-1028h-145v623h-844v-623h-145v1028h-99v121h99v244h145v-244h844v244h145v-244h101v-121z" />
    <glyph glyph-name="hbar" unicode="&#x127;" horiz-adv-x="1249" 
d="M686 977q194 1 296 -103t103 -284v-590h-139v557q0 137 -73 214t-199 77q-193 0 -352 -43v-805h-140v1196h-123v104h123v154h140v-154h348v-104h-348v-264q170 45 364 45z" />
    <glyph glyph-name="Imacron" unicode="&#x12a;" horiz-adv-x="555" 
d="M350 1393v-1393h-145v1393h145zM571 1712v-113h-589v113h589z" />
    <glyph glyph-name="imacron" unicode="&#x12b;" horiz-adv-x="514" 
d="M326 946v-946h-140v946h140zM535 1378v-114h-555v114h555z" />
    <glyph glyph-name="Iogonek" unicode="&#x12e;" horiz-adv-x="555" 
d="M291 -403q-119 0 -191 59t-71 156q0 137 176 213v1368h145v-1393h-55q-145 -66 -145 -166q0 -57 42 -90t117 -33q25 0 70 8l14 -108q-39 -14 -102 -14z" />
    <glyph glyph-name="iogonek" unicode="&#x12f;" horiz-adv-x="514" 
d="M0 -195q0 141 186 218v923h140v-946h-45q-160 -70 -160 -172q0 -57 42 -90t118 -33q24 0 69 8l15 -108q-39 -14 -103 -15q-118 0 -190 60t-72 155zM258 1192q-41 0 -70 28q-28 28 -28 68t28 67q29 27 70 27t70 -28q28 -28 28 -67t-28 -67t-70 -28z" />
    <glyph glyph-name="Idotaccent" unicode="&#x130;" horiz-adv-x="555" 
d="M350 1393v-1393h-145v1393h145zM276 1599q-44 0 -76 31t-32 76t32 75q32 29 76 29t77 -30q32 -30 32 -74q0 -45 -32 -76t-77 -31z" />
    <glyph glyph-name="dotlessi" unicode="&#x131;" horiz-adv-x="514" 
d="M328 946v-946h-142v946h142z" />
    <glyph glyph-name="IJ" unicode="&#x132;" horiz-adv-x="1726" 
d="M1542 1393v-883q0 -256 -128 -398t-344 -142t-462 87l31 129q246 -78 413 -78t255 105q88 104 88 295v885h147zM350 1393v-1393h-145v1393h145z" />
    <glyph glyph-name="ij" unicode="&#x133;" horiz-adv-x="1024" 
d="M842 946v-1022q0 -215 -78 -310t-281 -97l-10 123q129 -2 179 60t50 210v1036h140zM326 946v-946h-140v946h140zM772 1391q43 0 73 -29q29 -29 29 -73q0 -45 -30 -73t-72 -28q-43 0 -74 29q-30 29 -30 71t30 73q31 30 74 30zM256 1188q-43 0 -73 29q-29 29 -29 73t29 72
q30 29 73 29t73 -29q29 -29 29 -73q0 -45 -30 -73t-72 -28z" />
    <glyph glyph-name="Kcommaaccent" unicode="&#x136;" horiz-adv-x="1404" 
d="M756 -234q0 -31 -109 -249h-86l72 182q-59 23 -60 80q0 35 26 61t65 25q40 0 66 -26t26 -47v-26zM350 578v-578h-145v1393h145v-676h148l612 676h182l-620 -684l674 -709h-185l-563 578h-248z" />
    <glyph glyph-name="kcommaaccent" unicode="&#x137;" horiz-adv-x="1161" 
d="M471 -221q0 35 26 61q27 26 65 25q38 0 65 -26t27 -47t-1 -26q0 -6 -1 -12t-4 -13t-5 -14q-5 -19 -17 -42l-15 -30q-18 -38 -36 -75t-30 -63h-86l71 182q-59 23 -59 80zM319 543h134l399 403h176l-420 -422l486 -524h-172l-398 414h-205v-414h-139v1454h139v-911z" />
    <glyph glyph-name="Lacute" unicode="&#x139;" horiz-adv-x="1200" 
d="M1126 0h-921v1393h145v-1262h776v-131zM590 1835l-223 -311h-148l182 311h189z" />
    <glyph glyph-name="lacute" unicode="&#x13a;" horiz-adv-x="528" 
d="M334 1454v-1454h-139v1454h139zM557 1864l-223 -320h-137l172 320h188z" />
    <glyph glyph-name="Lcommaaccent" unicode="&#x13b;" horiz-adv-x="1200" 
d="M750 -234q0 -31 -109 -249h-86l72 182q-59 23 -60 80q0 35 26 61q27 26 65 25q38 0 65 -26t27 -47v-26zM1126 0h-921v1393h145v-1262h776v-131z" />
    <glyph glyph-name="lcommaaccent" unicode="&#x13c;" horiz-adv-x="528" 
d="M168 -221q0 35 26 61t64 25q38 0 66 -26q26 -26 26 -47v-26q0 -6 -1 -12t-4 -13t-5 -14q-5 -19 -17 -42l-15 -30q-18 -38 -36 -75t-30 -63h-86l71 182q-59 23 -59 80zM334 1454v-1454h-139v1454h139z" />
    <glyph glyph-name="Lcaron" unicode="&#x13d;" horiz-adv-x="1200" 
d="M739 1393l-57 -402h-109l21 402h145zM1126 0h-921v1393h145v-1262h776v-131z" />
    <glyph glyph-name="lcaron" unicode="&#x13e;" horiz-adv-x="528" 
d="M592 1454l-57 -401h-109l20 401h146zM334 1454v-1454h-139v1454h139z" />
    <glyph glyph-name="Ldot" unicode="&#x13f;" horiz-adv-x="1200" 
d="M797 520q-41 0 -70 28t-29 68t29 67q29 28 70 28t69 -28t29 -68q-1 -39 -29 -67t-69 -28zM1126 0h-921v1393h145v-1262h776v-131z" />
    <glyph glyph-name="ldot" unicode="&#x140;" horiz-adv-x="628" 
d="M545 575q-41 0 -69 28t-28 68q0 39 28 67t69 28t69 -28t29 -68q-1 -40 -29 -67q-28 -28 -69 -28zM334 1454v-1454h-139v1454h139z" />
    <glyph glyph-name="Lslash" unicode="&#x141;" horiz-adv-x="1200" 
d="M1126 131v-131h-921v496l-162 -80v125l162 80v772h145v-699l320 158v-127l-320 -158v-436h776z" />
    <glyph glyph-name="lslash" unicode="&#x142;" horiz-adv-x="528" 
d="M334 0h-139v590l-148 -74v125l148 74v739h139v-670l149 76v-125l-149 -76v-659z" />
    <glyph glyph-name="Nacute" unicode="&#x143;" horiz-adv-x="1599" 
d="M1395 1393v-1393h-148l-897 1155v-1155h-145v1393h141l903 -1160v1160h146zM1100 1835l-223 -311h-148l182 311h189z" />
    <glyph glyph-name="nacute" unicode="&#x144;" horiz-adv-x="1247" 
d="M698 977q180 1 282 -103t103 -284v-590h-139v557q0 137 -73 214t-199 77q-188 0 -353 -29v-819h-139v926q231 51 518 51zM893 1489l-223 -320h-138l173 320h188z" />
    <glyph glyph-name="Ncommaaccent" unicode="&#x145;" horiz-adv-x="1599" 
d="M782 -143q38 0 66 -26q26 -26 26 -47v-26t-1 -12t-4 -13t-8 -26t-30 -65q-24 -47 -38 -77t-27 -57h-86l72 183q-59 23 -60 80q0 35 26 61t64 25zM1395 1393v-1393h-148l-897 1155v-1155h-145v1393h141l903 -1160v1160h146z" />
    <glyph glyph-name="ncommaaccent" unicode="&#x146;" horiz-adv-x="1247" 
d="M610 -135q38 0 66 -26q26 -26 26 -47v-26q0 -6 -1 -12t-4 -13t-5 -14q-5 -19 -17 -42l-15 -30q-9 -19 -17 -35t-22 -47q-14 -30 -27 -56h-86l72 182q-59 23 -60 80q0 35 26 61t64 25zM698 977q180 1 282 -103t103 -284v-590h-139v557q0 137 -73 214t-199 77
q-188 0 -353 -29v-819h-139v926q231 51 518 51z" />
    <glyph glyph-name="Ncaron" unicode="&#x147;" horiz-adv-x="1599" 
d="M1395 1393v-1393h-148l-897 1155v-1155h-145v1393h141l903 -1160v1160h146zM856 1513h-131l-258 318h143l181 -217l180 217h143z" />
    <glyph glyph-name="ncaron" unicode="&#x148;" horiz-adv-x="1247" 
d="M698 977q180 1 282 -103t103 -284v-590h-139v557q0 137 -73 214t-199 77q-188 0 -353 -29v-819h-139v926q231 51 518 51zM688 1159h-131l-258 318h143l181 -217l180 217h143z" />
    <glyph glyph-name="Omacron" unicode="&#x14c;" horiz-adv-x="1734" 
d="M866 104q258 0 420 164t162 428t-162 427t-420 163t-419 -163t-161 -427t162 -428q160 -164 418 -164zM867 1423q327 -1 530 -201t203 -526t-204 -526q-202 -200 -529 -201q-327 0 -529 201q-202 200 -203 526q1 326 203 526t529 201zM1161 1712v-113h-590v113h590z" />
    <glyph glyph-name="omacron" unicode="&#x14d;" horiz-adv-x="1257" 
d="M629 94q166 0 270 106q105 106 105 276t-104 274t-271 104t-271 -103t-104 -275t104 -276q104 -106 271 -106zM629 983q229 0 373 -140q144 -141 144 -367t-144 -367t-373 -141t-373 140q-144 142 -145 368q0 226 144 367q145 140 374 140zM905 1378v-114h-555v114h555z
" />
    <glyph glyph-name="Ohungarumlaut" unicode="&#x150;" horiz-adv-x="1734" 
d="M866 104q258 0 420 164t162 428t-162 427t-420 163t-419 -163t-161 -427t162 -428q160 -164 418 -164zM867 1423q327 -1 530 -201t203 -526t-204 -526q-202 -200 -529 -201q-327 0 -529 201q-202 200 -203 526q1 326 203 526t529 201zM1251 1835l-161 -311h-129l143 311
h147zM971 1835l-164 -311h-127l143 311h148z" />
    <glyph glyph-name="ohungarumlaut" unicode="&#x151;" horiz-adv-x="1257" 
d="M629 94q166 0 270 106q105 106 105 276t-104 274t-271 104t-271 -103t-104 -275t104 -276q104 -106 271 -106zM629 983q229 0 373 -140q144 -141 144 -367t-144 -367t-373 -141t-373 140q-144 142 -145 368q0 226 144 367q145 140 374 140zM991 1468l-164 -309h-129
l146 309h147zM711 1468l-164 -309h-129l145 309h148z" />
    <glyph glyph-name="OE" unicode="&#x152;" horiz-adv-x="2054" 
d="M287 695q0 -265 171 -411t488 -149v1120q-317 -3 -488 -149t-171 -411zM1092 764h737v-135h-737v-496h823v-133h-969q-375 2 -593 187t-218 509t218 509t593 188h969v-133h-823v-496z" />
    <glyph glyph-name="oe" unicode="&#x153;" horiz-adv-x="2060" 
d="M629 94q166 0 270 106q105 106 105 276t-104 274t-271 104t-271 -103t-104 -275t104 -276q104 -106 271 -106zM1496 862q-147 0 -241 -90t-104 -242h670q-2 154 -90 243t-235 89zM1510 96q146 0 360 54l20 -115q-219 -66 -372 -66q-311 0 -445 230q-65 -109 -181 -170
t-263 -62q-229 -1 -373 141t-145 368q0 226 144 366t374 141q147 0 263 -60t183 -171q61 106 172 166t250 59q201 0 326 -122t127 -327q0 -49 -8 -108h-787q17 -148 113 -236t242 -88z" />
    <glyph glyph-name="Racute" unicode="&#x154;" horiz-adv-x="1347" 
d="M350 631h326q172 0 277 89t105 244q0 154 -104 232t-266 78t-338 -6v-637zM629 502h-279v-502h-145v1393q319 14 459 14q248 0 393 -116t145 -328q0 -156 -85 -265t-234 -157l401 -541h-176l-371 506q-70 -4 -108 -4zM922 1835l-224 -311h-147l182 311h189z" />
    <glyph glyph-name="racute" unicode="&#x155;" horiz-adv-x="792" 
d="M707 969v-138q-213 0 -388 -20v-811h-139v920q275 49 527 49zM715 1489l-223 -320h-138l172 320h189z" />
    <glyph glyph-name="Rcommaaccent" unicode="&#x156;" horiz-adv-x="1347" 
d="M596 -221q0 35 26 61t64 25q38 0 66 -26q26 -26 26 -47v-26q0 -6 -1 -12t-4 -13t-5 -14q-5 -19 -17 -42l-15 -30q-18 -38 -36 -75t-30 -63h-86l71 182q-59 23 -59 80zM350 631h326q172 0 277 89t105 244q0 154 -104 232t-266 78t-338 -6v-637zM629 502h-279v-502h-145
v1393q319 14 459 14q248 0 393 -116t145 -328q0 -156 -85 -265t-234 -157l401 -541h-176l-371 506q-70 -4 -108 -4z" />
    <glyph glyph-name="rcommaaccent" unicode="&#x157;" horiz-adv-x="792" 
d="M156 -221q0 35 26 61t64 25q40 0 66 -26t26 -47v-26q0 -13 -4 -23q-4 -9 -8 -24t-13 -29q-8 -15 -26 -54t-58 -119h-86l72 182q-59 23 -59 80zM707 969v-138q-213 0 -388 -20v-811h-139v920q275 49 527 49z" />
    <glyph glyph-name="Rcaron" unicode="&#x158;" horiz-adv-x="1347" 
d="M350 631h326q172 0 277 89t105 244q0 154 -104 232t-266 78t-338 -6v-637zM629 502h-279v-502h-145v1393q319 14 459 14q248 0 393 -116t145 -328q0 -156 -85 -265t-234 -157l401 -541h-176l-371 506q-70 -4 -108 -4zM678 1513h-131l-258 318h143l180 -217l181 217h143z
" />
    <glyph glyph-name="rcaron" unicode="&#x159;" horiz-adv-x="792" 
d="M707 969v-138q-213 0 -388 -20v-811h-139v920q275 49 527 49zM510 1159h-131l-258 318h143l180 -217l181 217h143z" />
    <glyph glyph-name="Sacute" unicode="&#x15a;" horiz-adv-x="1396" 
d="M716 1286q-182 0 -272 -68t-90 -178q0 -112 79 -161t231 -81t220 -52q184 -51 259 -122q96 -94 96 -243q0 -195 -142 -303t-376 -109q-291 0 -580 117l39 135q285 -117 547 -117q166 0 265 70q100 70 100 202t-135 195q-107 50 -287 84q-25 4 -43 9q-236 49 -331 128
q-95 78 -95 246t134 274t381 105q247 0 480 -84l-39 -125q-259 78 -441 78zM1018 1835l-223 -311h-148l182 311h189z" />
    <glyph glyph-name="sacute" unicode="&#x15b;" horiz-adv-x="1060" 
d="M555 86q111 0 179 43t69 109q0 66 -46 103q-46 36 -119 56t-198 45q-126 25 -200 82t-74 180t99 197t277 74t363 -66l-37 -110q-190 61 -338 61q-227 0 -227 -160q0 -68 54 -98q55 -30 227 -66q172 -38 261 -92t89 -189q0 -134 -106 -210t-294 -76q-190 0 -409 94l33 117
q215 -94 397 -94zM801 1487l-223 -320h-138l172 320h189z" />
    <glyph glyph-name="Scedilla" unicode="&#x15e;" horiz-adv-x="1396" 
d="M653 -418h-121l105 316h137zM716 1286q-182 0 -272 -68t-90 -178q0 -112 79 -161t231 -81t220 -52q184 -51 259 -122q96 -94 96 -243q0 -195 -142 -303t-376 -109q-291 0 -580 117l39 135q285 -117 547 -117q166 0 265 70q100 70 100 202t-135 195q-107 50 -287 84
q-25 4 -43 9q-236 49 -331 128q-95 78 -95 246t134 274t381 105q247 0 480 -84l-39 -125q-259 78 -441 78z" />
    <glyph glyph-name="scedilla" unicode="&#x15f;" horiz-adv-x="1060" 
d="M479 -418h-121l105 316h137zM555 86q111 0 179 43t69 109q0 66 -46 103q-46 36 -119 56t-198 45q-126 25 -200 82t-74 180t99 197t277 74t363 -66l-37 -110q-190 61 -338 61q-227 0 -227 -160q0 -68 54 -98q55 -30 227 -66q172 -38 261 -92t89 -189q0 -134 -106 -210
t-294 -76q-190 0 -409 94l33 117q215 -94 397 -94z" />
    <glyph glyph-name="Scaron" unicode="&#x160;" horiz-adv-x="1396" 
d="M716 1286q-182 0 -272 -68t-90 -178q0 -112 79 -161t231 -81t220 -52q184 -51 259 -122q96 -94 96 -243q0 -195 -142 -303t-376 -109q-291 0 -580 117l39 135q285 -117 547 -117q166 0 265 70q100 70 100 202t-135 195q-107 50 -287 84q-25 4 -43 9q-236 49 -331 128
q-95 78 -95 246t134 274t381 105q247 0 480 -84l-39 -125q-259 78 -441 78zM776 1513h-131l-258 318h143l181 -217l180 217h143z" />
    <glyph glyph-name="scaron" unicode="&#x161;" horiz-adv-x="1060" 
d="M555 86q111 0 179 43t69 109q0 66 -46 103q-46 36 -119 56t-198 45q-126 25 -200 82t-74 180t99 197t277 74t363 -66l-37 -110q-190 61 -338 61q-227 0 -227 -160q0 -68 54 -98q55 -30 227 -66q172 -38 261 -92t89 -189q0 -134 -106 -210t-294 -76q-190 0 -409 94l33 117
q215 -94 397 -94zM596 1157h-131l-258 318h143l180 -218l181 218h143z" />
    <glyph glyph-name="Tcaron" unicode="&#x164;" horiz-adv-x="1370" 
d="M758 1260v-1260h-146v1260h-551v133h1248v-133h-551zM750 1513h-132l-258 318h144l180 -217l180 217h144z" />
    <glyph glyph-name="tcaron" unicode="&#x165;" horiz-adv-x="888" 
d="M410 342q0 -245 186 -245q90 0 188 16l19 -117q-109 -27 -211 -27q-164 0 -243 88t-79 273v489h-217v127h217v397h140v-397h338v-127h-338v-477zM694 1507l-57 -401h-109l21 401h145z" />
    <glyph glyph-name="Umacron" unicode="&#x16a;" horiz-adv-x="1562" 
d="M1378 1393v-834q0 -268 -164 -429t-433 -161t-433 161t-164 429v834h146v-834q0 -207 124 -331t328 -124t327 123q124 123 124 332v834h145zM1075 1712v-113h-590v113h590z" />
    <glyph glyph-name="umacron" unicode="&#x16b;" horiz-adv-x="1251" 
d="M1073 946v-926q-217 -51 -518 -51q-181 1 -283 97t-102 290v590h139v-563q0 -143 70 -218q71 -75 223 -75t332 29v827h139zM901 1378v-114h-555v114h555z" />
    <glyph glyph-name="Uring" unicode="&#x16e;" horiz-adv-x="1562" 
d="M1378 1393v-834q0 -268 -164 -429t-433 -161t-433 161t-164 429v834h146v-834q0 -207 124 -331t328 -124t327 123q124 123 124 332v834h145zM782 1575q49 0 81 31t32 81q0 49 -32 81t-81 32t-81 -32q-31 -32 -31 -82t32 -80q32 -31 80 -31zM781 1878q87 0 143 -53
t57 -138q0 -85 -56 -139q-57 -54 -143 -53q-86 0 -142 53q-56 52 -56 138t55 139t142 53z" />
    <glyph glyph-name="uring" unicode="&#x16f;" horiz-adv-x="1251" 
d="M1073 946v-926q-217 -51 -518 -51q-181 1 -283 97t-102 290v590h139v-563q0 -143 70 -218q71 -75 223 -75t332 29v827h139zM627 1208q49 0 81 32t31 81q0 49 -31 81q-32 32 -81 32t-81 -32t-32 -81t32 -81t81 -32zM626 1513q87 0 143 -53t56 -138t-56 -139
q-56 -55 -142 -55q-87 0 -143 54t-56 140q0 85 55 138q56 53 143 53z" />
    <glyph glyph-name="Uhungarumlaut" unicode="&#x170;" horiz-adv-x="1562" 
d="M1378 1393v-834q0 -268 -164 -429t-433 -161t-433 161t-164 429v834h146v-834q0 -207 124 -331t328 -124t327 123q124 123 124 332v834h145zM1167 1835l-161 -311h-129l143 311h147zM887 1835l-164 -311h-127l143 311h148z" />
    <glyph glyph-name="uhungarumlaut" unicode="&#x171;" horiz-adv-x="1251" 
d="M1073 946v-926q-217 -51 -518 -51q-181 1 -283 97t-102 290v590h139v-563q0 -143 70 -218q71 -75 223 -75t332 29v827h139zM985 1468l-162 -309h-129l144 309h147zM705 1468l-162 -309h-129l143 309h148z" />
    <glyph glyph-name="Uogonek" unicode="&#x172;" horiz-adv-x="1562" 
d="M1378 1393v-834q0 -227 -118 -379t-324 -194q-150 -70 -150 -168q0 -57 42 -90t118 -33q25 0 70 8l14 -109q-39 -14 -102 -14q-119 0 -191 60q-71 60 -71 157q0 98 104 172q-264 4 -425 164t-161 426v834h146v-834q0 -207 124 -331t328 -124t327 123q124 123 124 332v834
h145z" />
    <glyph glyph-name="uogonek" unicode="&#x173;" horiz-adv-x="1251" 
d="M1040 -395q-118 0 -190 59q-72 58 -72 156t96 168q-158 -18 -330 -18t-272 96q-102 96 -102 290v590h139v-563q0 -143 70 -218q71 -75 223 -75t332 29v827h139v-926q-86 -38 -130 -78t-44 -98t42 -92q42 -33 118 -33q24 1 69 9l15 -109q-39 -14 -103 -14z" />
    <glyph glyph-name="Wcircumflex" unicode="&#x174;" horiz-adv-x="2164" 
d="M1612 0h-137l-392 1151l-393 -1151h-137l-477 1393h153l396 -1170l393 1170h127l395 -1168l393 1168h156zM1083 1737l-182 -213h-141l258 311h131l258 -311h-141z" />
    <glyph glyph-name="wcircumflex" unicode="&#x175;" horiz-adv-x="1685" 
d="M1247 0h-137l-268 741l-267 -741h-137l-346 946h144l276 -751l274 751h115l270 -753l279 753h143zM842 1368l-183 -205h-141l258 305h131l258 -305h-141z" />
    <glyph glyph-name="Ycircumflex" unicode="&#x176;" horiz-adv-x="1421" 
d="M784 0h-145v498l-586 895h166l492 -746l493 746h164l-584 -895v-498zM711 1737l-183 -213h-141l258 311h131l258 -311h-141z" />
    <glyph glyph-name="ycircumflex" unicode="&#x177;" horiz-adv-x="1261" 
d="M1188 946l-719 -1407h-158l260 510l-487 897h160l403 -747l383 747h158zM449 1163h-142l258 305h131l258 -305h-141l-182 205z" />
    <glyph glyph-name="Ydieresis" unicode="&#x178;" horiz-adv-x="1421" 
d="M784 0h-145v498l-586 895h166l492 -746l493 746h164l-584 -895v-498zM926 1581q-41 0 -70 28q-29 27 -29 67t29 68t70 28q42 0 70 -28t28 -68t-28 -68t-70 -27zM496 1581q-41 0 -70 28q-29 27 -29 67t29 68t70 28q42 0 70 -28t28 -68t-28 -68t-70 -27z" />
    <glyph glyph-name="Zacute" unicode="&#x179;" horiz-adv-x="1357" 
d="M1219 133v-133h-1086v94l881 1166h-856v133h1054v-95l-870 -1165h877zM987 1835l-223 -311h-148l183 311h188z" />
    <glyph glyph-name="zacute" unicode="&#x17a;" horiz-adv-x="1015" 
d="M918 123v-123h-812v74l601 749h-580v123h772v-84l-592 -739h611zM772 1489l-223 -320h-137l172 320h188z" />
    <glyph glyph-name="Zdotaccent" unicode="&#x17b;" horiz-adv-x="1357" 
d="M1219 133v-133h-1086v94l881 1166h-856v133h1054v-95l-870 -1165h877zM680 1581q-41 0 -70 28q-28 27 -28 67t28 68q29 28 70 28t70 -28q28 -28 28 -68t-28 -68t-70 -27z" />
    <glyph glyph-name="zdotaccent" unicode="&#x17c;" horiz-adv-x="1015" 
d="M918 123v-123h-812v74l601 749h-580v123h772v-84l-592 -739h611zM504 1192q-41 0 -70 28q-28 28 -28 68t28 67q29 27 70 27q42 0 70 -28t28 -67t-28 -67t-70 -28z" />
    <glyph glyph-name="Zcaron" unicode="&#x17d;" horiz-adv-x="1357" 
d="M1219 133v-133h-1086v94l881 1166h-856v133h1054v-95l-870 -1165h877zM745 1513h-131l-258 318h144l180 -217l180 217h144z" />
    <glyph glyph-name="zcaron" unicode="&#x17e;" horiz-adv-x="1015" 
d="M918 123v-123h-812v74l601 749h-580v123h772v-84l-592 -739h611zM567 1159h-131l-258 318h144l180 -217l180 217h143z" />
    <glyph glyph-name="florin" unicode="&#x192;" horiz-adv-x="1112" 
d="M829 1423q74 0 185 -28l-25 -115q-87 16 -171 16t-126 -57t-61 -199l-29 -213h385v-127h-403l-47 -352q-27 -201 -102 -290t-236 -89q-74 0 -185 29l25 115q88 -17 172 -17t126 58t60 198l47 348h-260v127h279l29 217q27 201 101 290t236 89z" />
    <glyph glyph-name="Acaron" unicode="&#x1cd;" horiz-adv-x="1556" 
d="M778 1217l-332 -746h662zM389 340l-149 -340h-164l633 1403h139l633 -1403h-162l-152 340h-778zM844 1513h-131l-258 318h143l180 -217l180 217h144z" />
    <glyph glyph-name="acaron" unicode="&#x1ce;" horiz-adv-x="1249" 
d="M600 856q-164 0 -257 -104t-93 -278t95 -278q95 -106 256 -106t335 115v624q-172 27 -336 27zM590 977q221 0 485 -51v-926h-139v84q-174 -115 -370 -115q-196 -1 -326 139q-129 140 -128 368t129 364t349 137zM711 1159h-131l-258 318h143l180 -217l180 217h144z" />
    <glyph glyph-name="Scommaaccent" unicode="&#x218;" horiz-adv-x="1396" 
d="M590 -221q0 35 26 61t64 25q40 0 66 -26t26 -47v-26q0 -13 -4 -23q-4 -9 -8 -24t-13 -29q-8 -15 -20 -41t-32 -66q-19 -40 -31 -66h-86l71 182q-59 23 -59 80zM716 1286q-182 0 -272 -68t-90 -178q0 -112 79 -161t231 -81t220 -52q184 -51 259 -122q96 -94 96 -243
q0 -195 -142 -303t-376 -109q-291 0 -580 117l39 135q285 -117 547 -117q166 0 265 70q100 70 100 202t-135 195q-107 50 -287 84q-25 4 -43 9q-236 49 -331 128q-95 78 -95 246t134 274t381 105q247 0 480 -84l-39 -125q-259 78 -441 78z" />
    <glyph glyph-name="scommaaccent" unicode="&#x219;" horiz-adv-x="1060" 
d="M627 -234q0 -31 -109 -249h-86l72 182q-59 23 -60 80q0 35 26 61t65 25q39 0 65 -26t27 -47v-26zM555 86q111 0 179 43t69 109q0 66 -46 103q-46 36 -119 56t-198 45q-126 25 -200 82t-74 180t99 197t277 74t363 -66l-37 -110q-190 61 -338 61q-227 0 -227 -160
q0 -68 54 -98q55 -30 227 -66q172 -38 261 -92t89 -189q0 -134 -106 -210t-294 -76q-190 0 -409 94l33 117q215 -94 397 -94z" />
    <glyph glyph-name="uni021A" unicode="&#x21a;" horiz-adv-x="1370" 
d="M592 -221q0 35 26 61t64 25q39 0 66 -26q26 -26 26 -47v-26q0 -6 -1 -12t-4 -13t-7 -22t-13 -29q-8 -15 -20 -41t-31 -66q-20 -40 -32 -66h-86l71 182q-59 23 -59 80zM758 1260v-1260h-146v1260h-551v133h1248v-133h-551z" />
    <glyph glyph-name="uni021B" unicode="&#x21b;" horiz-adv-x="888" 
d="M416 -221q0 35 26 61t64 25q40 0 66 -26t26 -47v-26q0 -13 -4 -23q-4 -9 -8 -24t-13 -29q-8 -15 -26 -54t-58 -119h-86l72 182q-59 23 -59 80zM410 342q0 -245 186 -245q90 0 188 16l19 -117q-109 -27 -211 -27q-164 0 -243 88t-79 273v489h-217v127h217v397h140v-397
h338v-127h-338v-477z" />
    <glyph glyph-name="circumflex" unicode="&#x2c6;" 
d="M614 1368l-182 -205h-141l258 305h131l258 -305h-141z" />
    <glyph glyph-name="caron" unicode="&#x2c7;" 
d="M680 1159h-131l-258 318h143l180 -217l181 217h143z" />
    <glyph glyph-name="breve" unicode="&#x2d8;" 
d="M791 1446h120q0 -133 -81 -212t-216 -79t-216 79t-81 212h119q0 -84 48 -132t130 -48t130 47t47 133z" />
    <glyph glyph-name="dotaccent" unicode="&#x2d9;" 
d="M614 1192q-42 0 -70 28t-28 68t29 67t69 27t70 -28q29 -28 29 -67t-29 -67t-70 -28z" />
    <glyph glyph-name="ring" unicode="&#x2da;" 
d="M612 1208q49 0 81 32t32 81t-32 81t-81 32t-81 -32q-31 -32 -31 -81t32 -81t80 -32zM611 1513q87 0 143 -53t57 -138q0 -85 -56 -139q-57 -55 -143 -55t-142 54t-56 140q0 85 55 138t142 53z" />
    <glyph glyph-name="ogonek" unicode="&#x2db;" 
d="M573 -154q0 -58 42 -92q42 -33 118 -33q25 0 70 9l14 -109q-39 -14 -102 -14q-119 0 -191 59q-72 58 -72 152t80 158q78 64 195 90l21 -43q-86 -37 -130 -78t-45 -99z" />
    <glyph glyph-name="tilde" unicode="&#x2dc;" 
d="M823 1380h113q0 -70 -30 -118q-55 -86 -166 -79q-48 3 -87 27l-112 74q-49 32 -93 12t-45 -79h-110q0 92 51 145q52 53 114 52t117 -28l113 -73q49 -33 92 -13t43 80z" />
    <glyph glyph-name="hungarumlaut" unicode="&#x2dd;" 
d="M987 1468l-164 -309h-129l146 309h147zM707 1468l-164 -309h-129l145 309h148z" />
    <glyph glyph-name="commaaccentcomb" unicode="&#x326;" horiz-adv-x="0" 
d="M709 -269q0 -31 -109 -249h-86l72 182q-59 23 -60 80q0 34 26 60t64 26t66 -26q27 -26 27 -47v-26z" />
    <glyph glyph-name="Wgrave" unicode="&#x1e80;" horiz-adv-x="2164" 
d="M1612 0h-137l-392 1151l-393 -1151h-137l-477 1393h153l396 -1170l393 1170h127l395 -1168l393 1168h156zM1151 1524h-137l-223 311h188z" />
    <glyph glyph-name="wgrave" unicode="&#x1e81;" horiz-adv-x="1685" 
d="M1247 0h-137l-268 741l-267 -741h-137l-346 946h144l276 -751l274 751h115l270 -753l279 753h143zM893 1169h-139l-224 320h189z" />
    <glyph glyph-name="Wacute" unicode="&#x1e82;" horiz-adv-x="2164" 
d="M1612 0h-137l-392 1151l-393 -1151h-137l-477 1393h153l396 -1170l393 1170h127l395 -1168l393 1168h156zM1391 1835l-224 -311h-147l182 311h189z" />
    <glyph glyph-name="wacute" unicode="&#x1e83;" horiz-adv-x="1685" 
d="M1247 0h-137l-268 741l-267 -741h-137l-346 946h144l276 -751l274 751h115l270 -753l279 753h143zM1157 1489l-225 -320h-137l172 320h190z" />
    <glyph glyph-name="Wdieresis" unicode="&#x1e84;" horiz-adv-x="2164" 
d="M1612 0h-137l-392 1151l-393 -1151h-137l-477 1393h153l396 -1170l393 1170h127l395 -1168l393 1168h156zM1298 1581q-42 0 -70 28q-28 27 -28 67t29 68t69 28t70 -28q29 -28 29 -68t-29 -68t-70 -27zM868 1581q-42 0 -70 28q-28 27 -28 67t29 68t69 28t70 -28
q29 -28 29 -68t-29 -68t-70 -27z" />
    <glyph glyph-name="wdieresis" unicode="&#x1e85;" horiz-adv-x="1685" 
d="M1247 0h-137l-268 741l-267 -741h-137l-346 946h144l276 -751l274 751h115l270 -753l279 753h143zM1059 1382q41 0 69 -28t29 -67q0 -39 -29 -67q-30 -28 -70 -28t-69 28t-29 68t29 67t70 27zM629 1382q41 0 69 -28t29 -67q0 -39 -29 -67q-30 -28 -70 -28t-69 28t-29 66
t29 68q29 28 70 28z" />
    <glyph glyph-name="Ygrave" unicode="&#x1ef2;" horiz-adv-x="1421" 
d="M784 0h-145v498l-586 895h166l492 -746l493 746h164l-584 -895v-498zM780 1524h-137l-223 311h188z" />
    <glyph glyph-name="ygrave" unicode="&#x1ef3;" horiz-adv-x="1261" 
d="M1188 946l-719 -1407h-158l260 510l-487 897h160l403 -747l383 747h158zM594 1169l-223 320h188l174 -320h-139z" />
    <glyph glyph-name="uni2009" unicode="&#x2009;" horiz-adv-x="342" 
 />
    <glyph glyph-name="endash" unicode="&#x2013;" horiz-adv-x="1345" 
d="M1182 487h-1018v140h1018v-140z" />
    <glyph glyph-name="emdash" unicode="&#x2014;" horiz-adv-x="1906" 
d="M1743 487h-1579v140h1579v-140z" />
    <glyph glyph-name="quoteleft" unicode="&#x2018;" horiz-adv-x="557" 
d="M373 1184q0 -45 -32 -76t-79 -31t-79 31q-53 51 -15 148q16 42 68 153t71 156h105l-111 -289q72 -25 72 -92z" />
    <glyph glyph-name="quoteright" unicode="&#x2019;" horiz-adv-x="561" 
d="M170 1458q0 45 32 76t79 31t79 -31t31 -70q0 -39 -18 -86t-56 -129q-38 -83 -52 -115t-27 -59h-105l109 291q-72 25 -72 92z" />
    <glyph glyph-name="quotesinglbase" unicode="&#x201a;" horiz-adv-x="561" 
d="M172 82q0 45 32 76q32 30 79 30t79 -30t31 -76q0 -8 -1 -14t-2 -14t-4 -16q-3 -9 -7 -22t-17 -43q-14 -30 -29 -64t-46 -100q-31 -65 -49 -108h-105l109 289q-70 25 -70 92z" />
    <glyph glyph-name="quotedblleft" unicode="&#x201c;" horiz-adv-x="909" 
d="M713 1182q0 -45 -32 -76t-79 -31t-79 31q-31 31 -31 70t18 86t56 129t46 104t33 70h105l-109 -291q72 -25 72 -92zM365 1182q0 -45 -32 -76t-78 -31t-79 31t-33 65q-1 34 5 50t14 41t31 72q22 47 49 107t57 124h104l-108 -291q70 -25 70 -92z" />
    <glyph glyph-name="quotedblright" unicode="&#x201d;" horiz-adv-x="909" 
d="M639 1579q47 0 79 -32t32 -70q0 -37 -14 -71t-55 -128q-42 -94 -56 -125q-14 -32 -29 -63h-104l108 290q-72 25 -72 90q0 45 32 77t79 32zM293 1579q47 0 79 -32t31 -77q0 -8 -1 -14t-2 -13t-4 -17t-6 -19q-9 -30 -58 -135q-49 -104 -84 -182h-105l111 290q-72 25 -72 90
q0 45 32 77t79 32z" />
    <glyph glyph-name="quotedblbase" unicode="&#x201e;" horiz-adv-x="913" 
d="M522 82q0 45 33 76q33 30 79 30t79 -30t32 -76q0 -8 -1 -14t-2 -14t-4 -16l-6 -20t-10 -26l-14 -32q-6 -16 -20 -46t-26 -56t-32 -70t-40 -87h-105l109 289q-72 25 -72 92zM172 82q0 45 32 76q32 30 79 30t79 -30t31 -76q0 -8 -1 -14t-2 -14t-4 -16q-3 -9 -7 -22t-17 -43
q-14 -30 -29 -64t-46 -100q-31 -65 -49 -108h-105l109 289q-70 25 -70 92z" />
    <glyph glyph-name="dagger" unicode="&#x2020;" horiz-adv-x="831" 
d="M465 1128v-450h-100v450h-254v101h254v254h100v-254h256v-101h-256z" />
    <glyph glyph-name="daggerdbl" unicode="&#x2021;" horiz-adv-x="831" 
d="M465 1008h256v-101h-256v-229h-100v229h-254v101h254v163h-254v99h254v213h100v-213h256v-99h-256v-163z" />
    <glyph glyph-name="bullet" unicode="&#x2022;" horiz-adv-x="649" 
d="M557 608q-1 -98 -67 -164t-165 -67q-99 1 -167 67t-68 164t68 165t167 67t165 -67t67 -165z" />
    <glyph glyph-name="ellipsis" unicode="&#x2026;" horiz-adv-x="1464" 
d="M1184 -27q-47 0 -79 32t-32 77t32 76q32 30 79 30t79 -30q31 -30 31 -76q0 -45 -32 -77t-78 -32zM727 -27q-47 0 -79 32t-32 77t32 76q32 30 79 30t79 -30t32 -76q0 -45 -32 -77t-79 -32zM281 -27q-47 0 -79 32t-32 77t32 76q32 30 79 30t79 -30t31 -76q1 -45 -31 -77
t-79 -32z" />
    <glyph glyph-name="perthousand" unicode="&#x2030;" horiz-adv-x="3094" 
d="M2527 637q-115 0 -191 -77t-77 -202q0 -126 77 -204q78 -78 192 -78t191 79t77 203t-77 202q-77 77 -192 77zM1638 637q-116 0 -192 -78t-76 -202q0 -125 77 -203t191 -78t192 79q77 79 77 203t-77 201q-77 78 -192 78zM2528 -31q-164 0 -272 108q-108 109 -108 281
t108 278t272 107q165 0 273 -106q107 -105 107 -279t-108 -282t-272 -107zM1638 743q164 0 272 -106q108 -105 108 -279t-108 -282t-272 -107q-164 0 -272 108q-108 109 -106 281q0 172 107 278t271 107zM565 1317q-115 0 -191 -78t-77 -203q0 -124 77 -202q78 -78 192 -78
t191 78t77 202t-77 203q-77 78 -192 78zM684 0h-90l928 1393h90zM565 1423q164 1 273 -107q108 -108 108 -280t-108 -280t-272 -107q-164 0 -272 108q-108 107 -108 279t108 280t271 107z" />
    <glyph glyph-name="guilsinglleft" unicode="&#x2039;" horiz-adv-x="716" 
d="M565 176l-80 -76l-381 404l381 401l82 -65l-299 -332z" />
    <glyph glyph-name="guilsinglright" unicode="&#x203a;" horiz-adv-x="716" 
d="M150 840l81 65l379 -401l-379 -404l-79 76l294 332z" />
    <glyph glyph-name="fraction" unicode="&#x2044;" horiz-adv-x="921" 
d="M37 0h-90l927 1393h91z" />
    <glyph glyph-name="zerosuperior" unicode="&#x2070;" horiz-adv-x="946" 
d="M473 711q121 0 196 83t75 215t-75 215t-195 83t-194 -82t-75 -215t73 -216t195 -83zM473 1407q173 0 277 -110q104 -111 104 -289t-104 -288t-276 -110t-278 110t-106 289t106 289t277 109z" />
    <glyph glyph-name="foursuperior" unicode="&#x2074;" horiz-adv-x="815" 
d="M532 897v367l-329 -367h329zM643 897h119v-96h-119v-170h-111v170h-473v80l467 512h117v-496z" />
    <glyph glyph-name="fivesuperior" unicode="&#x2075;" horiz-adv-x="778" 
d="M682 860q0 -110 -82 -178t-232 -68t-278 64l35 94q139 -59 241 -59t158 40t56 103t-52 97t-139 38l-248 13l35 389h477v-99h-383l-18 -192l147 -6q135 -6 209 -66t74 -170z" />
    <glyph glyph-name="sixsuperior" unicode="&#x2076;" horiz-adv-x="804" 
d="M402 707q89 0 146 55q56 55 56 142t-56 139q-56 53 -148 53t-146 -50q-53 -50 -53 -140t56 -144q56 -55 145 -55zM403 1194q137 0 225 -80t87 -210q0 -130 -88 -212q-89 -82 -225 -82t-224 82t-88 213q0 88 62 178l217 310h131l-140 -201q14 2 43 2z" />
    <glyph glyph-name="sevensuperior" unicode="&#x2077;" horiz-adv-x="655" 
d="M37 1288v105h575v-68l-336 -694h-124l323 657h-438z" />
    <glyph glyph-name="eightsuperior" unicode="&#x2078;" horiz-adv-x="753" 
d="M377 700q84 0 136 40t52 104t-52 103q-52 38 -136 38t-136 -38q-53 -38 -53 -101q0 -62 52 -104t137 -42zM223 1189q0 -58 42 -94t113 -36q70 0 112 36t42 94t-43 93t-111 35t-112 -35q-43 -35 -43 -93zM682 836q0 -98 -85 -162t-221 -64t-220 64t-84 162q0 139 161 188
q-125 47 -124 174q0 94 74 152q75 57 195 57t194 -57t75 -152q0 -125 -127 -174q162 -49 162 -188z" />
    <glyph glyph-name="ninesuperior" unicode="&#x2079;" horiz-adv-x="796" 
d="M600 1126q0 86 -56 142t-146 55q-90 1 -145 -55q-56 -56 -56 -143t56 -139t146 -52t146 53q55 53 55 139zM397 836q-137 0 -224 80t-87 209q0 130 88 212t224 82t224 -82t89 -213q0 -93 -45 -153l-234 -336h-131l141 203q-14 -2 -45 -2z" />
    <glyph glyph-name="zeroinferior" unicode="&#x2080;" horiz-adv-x="946" 
d="M485 -285q121 0 196 83t75 215t-75 215t-195 83t-194 -82t-75 -215t73 -216t195 -83zM485 412q173 0 277 -110t104 -289t-104 -289t-276 -109q-172 0 -278 110q-106 111 -106 289t106 288t277 110z" />
    <glyph glyph-name="oneinferior" unicode="&#x2081;" horiz-adv-x="589" 
d="M532 -270v-99h-483v99h195v528l-183 -53l-24 98l282 90h33v-663h180z" />
    <glyph glyph-name="twoinferior" unicode="&#x2082;" horiz-adv-x="720" 
d="M637 -369h-561v74l280 246q76 65 110 109t34 108t-47 100t-140 37q-93 0 -215 -49l-26 96q119 58 260 58t213 -67q71 -67 71 -158t-50 -159t-150 -159l-160 -139h381v-97z" />
    <glyph glyph-name="threeinferior" unicode="&#x2083;" horiz-adv-x="731" 
d="M332 -385q-150 0 -275 63l39 89q124 -53 228 -53t161 37q57 38 58 97q0 123 -187 123h-145v54l252 270h-365v98h518v-67l-249 -260l18 -3q123 -4 193 -60q70 -55 70 -155t-83 -166t-233 -67z" />
    <glyph glyph-name="fourinferior" unicode="&#x2084;" horiz-adv-x="815" 
d="M532 -102v366l-329 -366h329zM643 -102h119v-97h-119v-170h-111v170h-473v80l467 512h117v-495z" />
    <glyph glyph-name="fiveinferior" unicode="&#x2085;" horiz-adv-x="778" 
d="M682 -139q0 -109 -82 -177t-232 -69q-150 0 -278 63l35 95q139 -59 241 -59t158 39t56 103t-52 98t-139 38l-248 12l35 389h477v-98h-383l-18 -193l147 -6q135 -6 209 -66t74 -169z" />
    <glyph glyph-name="sixinferior" unicode="&#x2086;" horiz-adv-x="804" 
d="M201 -93q0 -89 56 -145t145 -55q89 0 146 55q56 54 56 142t-56 140t-148 52t-146 -50q-53 -50 -53 -139zM403 195q137 0 225 -80t87 -210q0 -130 -88 -212q-89 -82 -225 -82t-224 82t-88 213q0 88 62 178l217 309h131l-140 -200q14 2 43 2z" />
    <glyph glyph-name="seveninferior" unicode="&#x2087;" horiz-adv-x="655" 
d="M37 289v104h575v-67l-336 -695h-124l323 658h-438z" />
    <glyph glyph-name="eightinferior" unicode="&#x2088;" horiz-adv-x="753" 
d="M377 -295q84 0 136 40t52 104q0 65 -52 103t-136 38t-136 -38q-53 -38 -53 -102t52 -104q52 -41 137 -41zM223 194q0 -58 42 -94t113 -37q70 0 112 36q42 37 42 95t-43 93t-111 35t-112 -35q-43 -35 -43 -93zM682 -160q0 -98 -85 -162t-221 -63q-136 0 -220 63t-84 162
q0 139 161 189q-125 47 -124 174q0 94 74 151q75 58 195 58t194 -58t75 -151q0 -125 -127 -174q162 -49 162 -189z" />
    <glyph glyph-name="nineinferior" unicode="&#x2089;" horiz-adv-x="796" 
d="M197 122q0 -87 56 -139q56 -53 146 -53q89 0 145 54t56 139q0 86 -56 141t-146 55t-145 -55q-56 -55 -56 -142zM397 -168q-137 0 -224 80t-87 210t88 212t224 82t224 -82t89 -213q0 -94 -45 -154l-234 -336h-131l141 203q-14 -2 -45 -2z" />
    <glyph glyph-name="Euro" unicode="&#x20ac;" horiz-adv-x="1609" 
d="M986 1423q258 0 484 -80l-28 -126q-236 63 -434 63t-343 -106q-144 -106 -194 -291h647l-26 -105h-646q-4 -28 -4 -90t9 -113h591l-26 -104h-533q53 -170 189 -266t334 -96q197 0 464 73l27 -125q-268 -88 -515 -88t-427 134t-242 368h-178v104h158q-8 78 -8 112t4 91
h-154v105h168q53 250 239 395t444 145z" />
    <glyph glyph-name="uni2116" unicode="&#x2116;" horiz-adv-x="2867" 
d="M1681 127h955v-127h-955v127zM1788 813q0 -169 104 -275t272 -106q167 0 270 106t103 275q0 170 -103 274q-103 105 -269 105q-165 0 -271 -104t-106 -275zM2165 1319q229 0 372 -139q143 -138 143 -366t-142 -370q-144 -142 -373 -141q-229 0 -374 141
q-144 140 -144 368t144 368q145 139 374 139zM1395 1393v-1393h-148l-897 1155v-1155h-145v1393h141l903 -1160v1160h146z" />
    <glyph glyph-name="uni2117" unicode="&#x2117;" horiz-adv-x="1761" 
d="M743 670h177q94 0 151 47t57 128t-58 123q-59 42 -157 42l-170 -6v-334zM903 1102q156 0 243 -67t87 -197t-93 -195q-93 -66 -225 -65h-172v-273h-106v791q203 6 266 6zM881 1350q-285 0 -477 -188t-191 -466q0 -279 191 -466q190 -187 476 -187t477 187t191 466
q0 278 -191 466t-476 188zM881 1423q319 0 532 -208t213 -519t-213 -519t-532 -208t-533 208q-213 208 -213 519t213 519q214 208 533 208z" />
    <glyph glyph-name="trademark" unicode="&#x2122;" horiz-adv-x="1480" 
d="M1266 1194l-195 -430h-86l-197 430l-24 -430h-94l32 629h95l233 -510l227 510h91l38 -629h-94zM592 1303h-234v-539h-98v539h-235v90h567v-90z" />
    <glyph glyph-name="oneeighth" unicode="&#x215b;" horiz-adv-x="1849" 
d="M1395 74q84 0 136 40t52 104t-52 102t-136 38t-137 -37q-52 -37 -52 -101t52 -105t137 -41zM1241 562q0 -58 42 -94t113 -36q70 0 112 36t42 94t-43 93t-111 35t-112 -35q-43 -35 -43 -93zM1700 209q0 -97 -85 -161t-221 -64t-220 63t-84 162q0 139 161 188
q-125 47 -125 174q0 93 75 151t195 58t194 -57t75 -152q0 -125 -127 -174q162 -49 162 -188zM1421 1393l-927 -1393h-93l928 1393h92zM164 631v98h194v528l-182 -53l-24 99l282 90h33v-664h180v-98h-483z" />
    <glyph glyph-name="threeeighths" unicode="&#x215c;" horiz-adv-x="1921" 
d="M1432 74q84 0 136 40t52 104t-52 102t-136 38t-137 -37q-52 -37 -52 -101q1 -64 53 -105t136 -41zM1278 562q0 -58 42 -94t113 -36t113 36t41 94q0 58 -43 93q-44 35 -112 35t-111 -35t-43 -93zM1737 209q0 -97 -85 -161t-221 -64t-221 63q-84 63 -84 162q0 139 162 188
q-125 47 -125 174q0 93 75 151t195 58q121 0 195 -57t74 -152q0 -125 -127 -174q162 -49 162 -188zM524 0h-90l928 1393h90zM725 846q0 -100 -82 -166q-83 -66 -233 -66t-275 64l39 88q124 -53 228 -53t161 38t58 97q0 123 -187 123h-145v53l252 270h-365v99h518v-68
l-250 -260l19 -2q123 -5 193 -61t69 -156z" />
    <glyph glyph-name="fiveeighths" unicode="&#x215d;" horiz-adv-x="1949" 
d="M1473 74q84 0 136 41t50 104q2 63 -50 101t-137 38t-138 -37q-52 -37 -52 -101t54 -105t137 -41zM1319 562q0 -58 42 -94t112 -36q71 0 113 36t42 93t-43 93t-111 36t-112 -35q-43 -35 -43 -93zM1778 209q0 -97 -85 -161t-221 -64t-221 63q-84 63 -84 162q0 139 162 188
q-127 49 -127 174q0 93 75 151t196 58t195 -57t73 -152q0 -127 -125 -174q162 -49 162 -188zM541 0h-90l927 1393h90zM717 860q0 -110 -82 -178q-81 -68 -231 -68t-279 64l35 94q140 -59 242 -59t157 40t55 103t-51 97t-139 38l-248 13l35 389h477v-99h-383l-18 -192l147 -6
q135 -6 209 -66t74 -170z" />
    <glyph glyph-name="seveneighths" unicode="&#x215e;" horiz-adv-x="1855" 
d="M1377 74q83 0 135 40t52 104t-50 102q-52 38 -137 38t-137 -38t-52 -100q0 -64 53 -105t136 -41zM1377 690q-69 0 -111 -35t-43 -93q0 -58 42 -94q43 -36 113 -36t112 36t42 94t-43 93t-112 35zM1377 -16q-136 0 -221 63t-85 162q0 139 162 188q-125 49 -125 174
q0 93 75 151t195 58t194 -57q75 -57 75 -152q0 -125 -125 -174q162 -49 161 -188q0 -97 -85 -161t-221 -64zM416 0h-90l927 1393h90zM186 1288v105h576v-68l-336 -694h-125l324 657h-439z" />
    <glyph glyph-name="arrowleft" unicode="&#x2190;" horiz-adv-x="1554" 
d="M1466 766v-131h-1163l551 -563l-96 -88l-692 716l684 709l96 -86l-543 -557h1163z" />
    <glyph glyph-name="arrowup" unicode="&#x2191;" horiz-adv-x="1603" 
d="M731 -2v1161l-555 -543l-86 97l707 684l716 -690l-86 -97l-565 551v-1163h-131z" />
    <glyph glyph-name="arrowright" unicode="&#x2192;" horiz-adv-x="1554" 
d="M90 766h1161l-542 557l96 86l684 -709l-690 -716l-99 88l553 563h-1163v131z" />
    <glyph glyph-name="arrowdown" unicode="&#x2193;" horiz-adv-x="1603" 
d="M729 1393h137v-1164l561 551l86 -96l-716 -690l-707 684l86 96l553 -545v1164z" />
    <glyph glyph-name="arrowupleft" unicode="&#x2196;" horiz-adv-x="1648" 
d="M160 1393h997l2 -129h-778l1175 -1182l-88 -86l-1179 1175v-763l-129 2v983z" />
    <glyph glyph-name="arrowupright" unicode="&#x2197;" horiz-adv-x="1648" 
d="M1489 1393v-983l-129 -2v763l-1180 -1175l-86 86l1174 1182h-779l3 129h997z" />
    <glyph glyph-name="arrowdownright" unicode="&#x2198;" horiz-adv-x="1648" 
d="M1489 0h-997l-3 129h779l-1174 1182l86 86l1180 -1176v764l129 -2v-983z" />
    <glyph glyph-name="arrowdownleft" unicode="&#x2199;" horiz-adv-x="1648" 
d="M160 0v983l129 2v-764l1179 1176l88 -86l-1175 -1182h778l-2 -129h-997z" />
    <glyph glyph-name="minus" unicode="&#x2212;" horiz-adv-x="1419" 
d="M240 727h940v-131h-940v131z" />
    <glyph glyph-name="triagup" unicode="&#x25b2;" horiz-adv-x="1992" 
d="M993 1415l856 -1415h-1706z" />
    <glyph glyph-name="blackuppointingsmalltriangle" unicode="&#x25b4;" horiz-adv-x="952" 
d="M467 961l338 -551h-672z" />
    <glyph glyph-name="uni25B8" unicode="&#x25b8;" horiz-adv-x="876" 
d="M756 688l-553 -336v670z" />
    <glyph glyph-name="triagdn" unicode="&#x25bc;" horiz-adv-x="1992" 
d="M1849 1393l-856 -1416l-850 1416h1706z" />
    <glyph glyph-name="uni25BE" unicode="&#x25be;" horiz-adv-x="952" 
d="M811 922l-336 -551l-334 551h670z" />
    <glyph glyph-name="uni25C2" unicode="&#x25c2;" horiz-adv-x="876" 
d="M674 352l-553 336l553 334v-670z" />
    <glyph glyph-name="R.ss02" horiz-adv-x="1310" 
d="M688 1274q-162 0 -338 -6v-637h326q172 0 276 89t104 244q0 154 -102 232q-104 78 -266 78zM664 1407q248 0 393 -116q145 -115 145 -319t-129 -325t-348 -137h-131l659 -510h-206l-650 502h-47v-502h-145v1393q320 14 459 14z" />
    <glyph glyph-name="Racute.ss02" horiz-adv-x="1310" 
d="M688 1274q-162 0 -338 -6v-637h326q172 0 277 89t105 244q0 154 -104 232t-266 78zM664 1407q248 0 393 -116q145 -115 145 -319t-129 -325t-348 -137h-131l659 -510h-206l-650 502h-47v-502h-145v1393q320 14 459 14zM922 1835l-224 -311h-147l182 311h189z" />
    <glyph glyph-name="Rcaron.ss02" horiz-adv-x="1310" 
d="M688 1274q-162 0 -338 -6v-637h326q172 0 277 89t105 244q0 154 -104 232t-266 78zM664 1407q248 0 393 -116q145 -115 145 -319t-129 -325t-348 -137h-131l659 -510h-206l-650 502h-47v-502h-145v1393q320 14 459 14zM678 1513h-131l-258 318h143l180 -217l181 217h143z
" />
    <glyph glyph-name="Rcommaaccent.ss02" horiz-adv-x="1310" 
d="M748 -234q0 -31 -109 -249h-86l72 182q-59 23 -60 80q0 35 26 61q27 26 65 25q38 0 65 -26t27 -47v-26zM688 1274q-162 0 -338 -6v-637h326q172 0 277 89t105 244q0 154 -104 232t-266 78zM664 1407q248 0 393 -116q145 -115 145 -319t-129 -325t-348 -137h-131l659 -510
h-206l-650 502h-47v-502h-145v1393q320 14 459 14z" />
    <glyph glyph-name="Q.ss04" horiz-adv-x="1734" 
d="M1458 -225v-135q-322 8 -686 57v100zM866 104q258 0 420 164t162 428t-162 427t-420 163t-419 -163t-161 -427t162 -428q160 -164 418 -164zM867 1423q327 -1 530 -201t203 -526t-204 -526q-202 -200 -529 -201q-327 0 -529 201q-202 200 -203 526q1 326 203 526t529 201
z" />
    <glyph glyph-name="i.loclTRK" horiz-adv-x="514" 
d="M326 946v-946h-140v946h140zM258 1192q-41 0 -70 28q-28 28 -28 68t28 67q29 27 70 27t70 -28q28 -28 28 -67t-28 -67t-70 -28z" />
    <glyph glyph-name="germandbls.case" horiz-adv-x="2732" 
d="M2052 1286q-182 0 -272 -68t-90 -178q0 -112 78 -161t230 -81t222 -52q180 -49 259 -122q97 -92 95 -243q0 -195 -142 -303t-376 -109q-291 0 -579 117l39 135q287 -117 546 -117q166 0 266 70q99 70 99 202t-134 195q-108 50 -288 84q-25 4 -43 9q-236 49 -331 128
q-95 80 -95 246t135 272t383 107q248 0 477 -84l-37 -125q-260 78 -442 78zM716 1286q-182 0 -272 -68t-90 -178q0 -112 79 -161t231 -81t220 -52q184 -51 259 -122q96 -94 96 -243q0 -195 -142 -303t-376 -109q-291 0 -580 117l39 135q285 -117 547 -117q166 0 265 70
q100 70 100 202t-135 195q-107 50 -287 84q-25 4 -43 9q-236 49 -331 128q-95 78 -95 246t134 274t381 105q247 0 480 -84l-39 -125q-259 78 -441 78z" />
    <glyph glyph-name="y.ss01" horiz-adv-x="1241" 
d="M1073 946v-926q0 -240 -136 -384t-376 -144q-174 0 -352 68l24 118q188 -59 342 -59q154 1 255 107t104 294q-182 -30 -374 -30t-291 91t-99 296v569h139v-543q0 -143 70 -218q71 -75 223 -75t332 29v807h139z" />
    <glyph glyph-name="yacute.ss01" horiz-adv-x="1241" 
d="M1073 946v-926q0 -240 -136 -384t-376 -144q-174 0 -352 68l24 118q188 -59 324 -59q174 1 274 107t103 294q-182 -30 -374 -30t-291 91t-99 296v569h139v-543q0 -143 70 -218q71 -75 223 -75t332 29v807h139zM887 1489l-223 -320h-138l172 320h189z" />
    <glyph glyph-name="ycircumflex.ss01" horiz-adv-x="1241" 
d="M1073 946v-926q0 -240 -136 -384t-376 -144q-174 0 -352 68l24 118q188 -59 324 -59q174 1 274 107t103 294q-182 -30 -374 -30t-291 91t-99 296v569h139v-543q0 -143 70 -218q71 -75 223 -75t332 29v807h139zM618 1368l-182 -205h-141l258 305h131l258 -305h-141z" />
    <glyph glyph-name="ydieresis.ss01" horiz-adv-x="1241" 
d="M1073 946v-926q0 -240 -136 -384t-376 -144q-174 0 -352 68l24 118q188 -59 324 -59q174 1 274 107t103 294q-182 -30 -374 -30t-291 91t-99 296v569h139v-543q0 -143 70 -218q71 -75 223 -75t332 29v807h139zM834 1382q42 0 70 -28t28 -67t-29 -67t-69 -28t-70 28
q-29 28 -29 68t29 66q29 28 70 28zM403 1382q41 0 70 -28t29 -67t-29 -67t-70 -28t-69 28t-29 66q1 38 29 68q28 28 69 28z" />
    <glyph glyph-name="ygrave.ss01" horiz-adv-x="1241" 
d="M1073 946v-926q0 -240 -136 -384t-376 -144q-174 0 -352 68l24 118q188 -59 324 -59q174 1 274 107t103 294q-182 -30 -374 -30t-291 91t-99 296v569h139v-543q0 -143 70 -218q71 -75 223 -75t332 29v807h139zM721 1169h-139l-224 320h189z" />
    <glyph glyph-name="a.ss03" horiz-adv-x="1144" 
d="M514 84q135 0 338 33v358l-350 -16q-279 -12 -279 -183q0 -192 291 -192zM608 981q376 0 375 -365v-596q-293 -51 -498 -51q-395 0 -395 307q0 274 422 293l340 15v30q0 126 -67 184t-220 58t-356 -33l-14 119q231 39 413 39z" />
    <glyph glyph-name="aacute.ss03" horiz-adv-x="1144" 
d="M514 84q135 0 338 33v358l-348 -16q-281 -12 -281 -183q0 -192 291 -192zM608 981q182 0 279 -88q96 -88 96 -277v-596q-291 -51 -498 -51q-395 0 -395 307q0 274 422 293l340 15v30q0 126 -67 184t-220 58t-356 -33l-14 119q231 39 413 39zM831 1489l-223 -320h-137
l172 320h188z" />
    <glyph glyph-name="abreve.ss03" horiz-adv-x="1144" 
d="M514 84q135 0 338 33v358l-348 -16q-281 -12 -281 -183q0 -192 291 -192zM608 981q182 0 279 -88q96 -88 96 -277v-596q-291 -51 -498 -51q-395 0 -395 307q0 274 422 293l340 15v30q0 126 -67 184t-220 58t-356 -33l-14 119q231 39 413 39zM739 1446h121
q0 -133 -81 -212t-216 -79t-216 79t-81 212h119q0 -84 48 -132t129 -48t129 47t48 133z" />
    <glyph glyph-name="acaron.ss03" horiz-adv-x="1144" 
d="M514 84q135 0 338 33v358l-348 -16q-281 -12 -281 -183q0 -192 291 -192zM608 981q182 0 279 -88q96 -88 96 -277v-596q-291 -51 -498 -51q-395 0 -395 307q0 274 422 293l340 15v30q0 126 -67 184t-220 58t-356 -33l-14 119q231 39 413 39zM629 1159h-131l-258 318h143
l180 -217l180 217h144z" />
    <glyph glyph-name="acircumflex.ss03" horiz-adv-x="1144" 
d="M514 84q135 0 338 33v358l-348 -16q-281 -12 -281 -183q0 -192 291 -192zM608 981q182 0 279 -88q96 -88 96 -277v-596q-291 -51 -498 -51q-395 0 -395 307q0 274 422 293l340 15v30q0 126 -67 184t-220 58t-356 -33l-14 119q231 39 413 39zM563 1368l-182 -205h-141
l258 305h131l258 -305h-142z" />
    <glyph glyph-name="adieresis.ss03" horiz-adv-x="1144" 
d="M514 84q135 0 338 33v358l-348 -16q-281 -12 -281 -183q0 -192 291 -192zM608 981q182 0 279 -88q96 -88 96 -277v-596q-291 -51 -498 -51q-395 0 -395 307q0 274 422 293l340 15v30q0 126 -67 184t-220 58t-356 -33l-14 119q231 39 413 39zM778 1382q41 0 70 -28t29 -67
t-29 -67t-70 -28q-42 0 -70 28t-28 68t28 66q28 28 70 28zM348 1382q41 0 70 -28q28 -28 28 -67t-28 -67t-70 -28t-70 28t-28 66t28 68q28 28 70 28z" />
    <glyph glyph-name="agrave.ss03" horiz-adv-x="1144" 
d="M514 84q135 0 338 33v358l-348 -16q-281 -12 -281 -183q0 -192 291 -192zM608 981q182 0 279 -88q96 -88 96 -277v-596q-291 -51 -498 -51q-395 0 -395 307q0 274 422 293l340 15v30q0 126 -67 184t-220 58t-356 -33l-14 119q231 39 413 39zM666 1169h-140l-223 320h189z
" />
    <glyph glyph-name="amacron.ss03" horiz-adv-x="1144" 
d="M514 84q135 0 338 33v358l-348 -16q-281 -12 -281 -183q0 -192 291 -192zM608 981q182 0 279 -88q96 -88 96 -277v-596q-291 -51 -498 -51q-395 0 -395 307q0 274 422 293l340 15v30q0 126 -67 184t-220 58t-356 -33l-14 119q231 39 413 39zM840 1378v-114h-555v114h555z
" />
    <glyph glyph-name="aogonek.ss03" horiz-adv-x="1144" 
d="M223 276q0 -193 291 -192q135 0 338 33v358l-348 -16q-281 -13 -281 -183zM950 -395q-118 0 -190 59q-72 60 -72 158t100 168q-147 -20 -303 -21q-395 0 -395 307q0 274 422 293l340 15v30q0 126 -67 184t-220 58t-356 -33l-14 119q231 39 413 39t279 -88q96 -88 96 -277
v-596q-86 -38 -130 -78t-44 -98t42 -92q42 -33 118 -33q24 1 69 9l15 -109q-39 -14 -103 -14z" />
    <glyph glyph-name="aring.ss03" horiz-adv-x="1144" 
d="M514 84q135 0 338 33v358l-348 -16q-281 -12 -281 -183q0 -192 291 -192zM608 981q182 0 279 -88q96 -88 96 -277v-596q-291 -51 -498 -51q-395 0 -395 307q0 274 422 293l340 15v30q0 126 -67 184t-220 58t-356 -33l-14 119q231 39 413 39zM563 1208q49 0 81 32t32 81
t-32 81t-81 32t-81 -32t-32 -81t32 -81t81 -32zM562 1513q88 0 144 -53t56 -138t-56 -139q-56 -55 -142 -55t-143 54q-56 54 -56 140q0 85 55 138t142 53z" />
    <glyph glyph-name="atilde.ss03" horiz-adv-x="1144" 
d="M514 84q135 0 338 33v358l-348 -16q-281 -12 -281 -183q0 -192 291 -192zM608 981q182 0 279 -88q96 -88 96 -277v-596q-291 -51 -498 -51q-395 0 -395 307q0 274 422 293l340 15v30q0 126 -67 184t-220 58t-356 -33l-14 119q231 39 413 39zM772 1380h113q0 -70 -30 -118
t-74 -64q-96 -38 -179 12l-113 74q-49 32 -93 12t-44 -79h-110q0 92 51 145t113 52t118 -28l113 -73q49 -33 92 -13t43 80z" />
    <glyph glyph-name="f_b" horiz-adv-x="2011" 
d="M1400 90q171 0 266 106t95 278q0 174 -93 278t-268 104t-325 -43v-694q154 -29 325 -29zM1436 977q206 0 336 -137q130 -136 129 -364q0 -228 -129 -367q-128 -139 -356 -139t-480 50v1338q-121 57 -256 57q-293 0 -293 -297v-172h385v-127h-385v-819h-141v819h-234v127
h234v176q0 203 109 312q110 109 321 108q137 0 274 -63l125 -9v-536q155 43 361 43z" />
    <glyph glyph-name="f_f_b" horiz-adv-x="2732" 
d="M2126 90q166 0 261 106t95 280q0 176 -94 278t-268 102t-324 -43v-694q164 -29 330 -29zM967 946v176q0 102 28 185q-147 109 -315 108q-295 0 -295 -307v-162h582zM2132 977q229 0 358 -135q129 -134 129 -364t-130 -367t-339 -138q-252 0 -493 45v1340q-123 57 -254 57
q-297 0 -297 -297v-172h385v-127h-385v-819h-139v819h-582v-819h-139v819h-234v127h234v164q0 211 111 322q112 111 315 110q110 0 196 -30t191 -97q111 127 340 127q133 0 274 -63l123 -9v-536q150 43 336 43z" />
    <glyph glyph-name="f_f_f" horiz-adv-x="2217" 
d="M1698 946v240q0 63 16 123q-147 106 -313 106q-295 0 -295 -307v-162h592zM967 946v164q0 113 32 197q-158 109 -319 108q-295 0 -295 -307v-162h582zM2202 819h-365v-819h-139v819h-592v-819h-139v819h-582v-819h-139v819h-234v127h234v164q0 211 111 322
q112 111 315 110q110 0 196 -31t193 -98q111 129 317 129t391 -121q92 121 269 121q72 0 162 -22l-23 -119q-80 14 -135 14q-94 0 -150 -61t-55 -170v-238h365v-127z" />
    <glyph glyph-name="f_f_h" horiz-adv-x="2713" 
d="M967 946v176q0 100 28 187q-147 106 -315 106q-295 0 -295 -307v-162h582zM2152 977q194 1 296 -103q103 -104 104 -284v-590h-142v557q0 137 -71 214q-72 77 -199 77q-193 0 -352 -43v-805h-141v1358q-121 57 -258 57t-210 -77t-73 -220v-172h377v-127h-377v-819h-139
v819h-582v-819h-139v819h-234v127h234v164q0 211 111 322q112 111 315 110q110 0 196 -30t189 -97q109 127 329 127q133 0 279 -65l121 -7v-16h2v-522q170 45 364 45z" />
    <glyph glyph-name="f_f_j" horiz-adv-x="1918" 
d="M967 946v164q0 117 32 197q-150 109 -319 108q-293 0 -293 -307v-162h580zM1769 946v-1003q0 -215 -77 -312q-78 -96 -281 -98l-10 125q131 -2 180 59t49 209v893h-524v-819h-139v819h-580v-819h-141v819h-234v127h234v164q0 211 112 322q113 111 316 110q108 0 194 -31
t193 -98q111 129 332 129q100 0 178 -24t176 -78l-66 -101q-131 76 -280 76q-295 0 -295 -307v-162h663z" />
    <glyph glyph-name="f_f_k" horiz-adv-x="2627" 
d="M967 946v176q0 100 28 187q-147 106 -315 106q-295 0 -295 -307v-162h582zM1788 414v-414h-141v1358q-121 57 -258 57t-210 -77t-73 -220v-172h377v-127h-377v-819h-139v819h-582v-819h-139v819h-234v127h234v164q0 211 111 322q112 111 315 110q110 0 196 -30t189 -97
q109 127 329 127q133 0 279 -65l121 -7v-16h2v-911h131l401 403h174l-417 -422l483 -524h-172l-397 414h-203z" />
    <glyph glyph-name="f_f_t" horiz-adv-x="2283" 
d="M967 946v240q0 72 18 129q-143 100 -305 100q-295 0 -295 -307v-162h582zM1804 342q0 -245 186 -245q90 0 189 16l19 -117q-109 -27 -211 -27q-164 0 -243 88t-79 273v489h-559v-819h-139v819h-582v-819h-139v819h-234v127h234v164q0 211 111 322q113 110 307 110
t378 -117q94 117 273 117q74 0 170 -26l-23 -117q-78 16 -160 16t-138 -61q-58 -61 -58 -170v-238h559v397h139v-397h338v-127h-338v-477z" />
    <glyph glyph-name="f_h" horiz-adv-x="2015" 
d="M1452 977q194 1 296 -103t103 -284v-590h-139v557q0 137 -73 214t-199 77q-193 0 -353 -43v-805h-139v1352q-127 63 -268 63q-293 0 -293 -297v-172h385v-127h-385v-819h-141v819h-234v127h234v176q0 203 109 312q110 109 321 108q137 0 274 -63l137 -9v-538
q171 45 365 45z" />
    <glyph glyph-name="f_j" horiz-adv-x="1208" 
d="M1059 946v-1003q0 -215 -78 -311t-281 -99l-10 125q131 -2 180 59t50 209v893h-533v-819h-141v819h-234v127h234v164q0 211 113 322q115 110 305 110t370 -102l-63 -101q-135 76 -283 76q-301 0 -301 -307v-162h672z" />
    <glyph glyph-name="f_k" horiz-adv-x="1908" 
d="M1067 414v-414h-139v1358q-121 57 -258 57t-210 -77t-73 -220v-172h375v-127h-375v-819h-141v819h-234v127h234v176q0 203 107 312q108 109 315 108q137 0 274 -63l125 -9v-927h133l399 403h175l-418 -422l485 -524h-172l-389 414h-213z" />
    <glyph glyph-name="f_t" horiz-adv-x="1574" 
d="M1096 342q0 -245 186 -245q90 0 188 16l19 -117q-109 -27 -211 -27q-164 0 -243 88t-79 273v489h-569v-819h-141v819h-234v127h234v217q0 379 348 379q78 0 170 -26l-23 -117q-78 16 -143 16q-111 0 -161 -60t-50 -196v-213h569v397h140v-397h338v-127h-338v-477z" />
    <glyph glyph-name="r_f" horiz-adv-x="1482" 
d="M1110 946h356v-127h-356v-819h-139v819h-97q-352 0 -552 -22v-797h-142v897q291 49 682 49h109v240q0 164 93 260t245 96q74 0 164 -22l-23 -119q-78 14 -135 14q-93 0 -149 -61t-56 -170v-238z" />
    <glyph glyph-name="r_t" horiz-adv-x="1581" 
d="M1102 961h338v-125h-338v-494q0 -244 186 -246q90 0 189 17l16 -117q-109 -27 -209 -27q-164 0 -243 87t-78 274v504q-358 0 -641 -25v-809h-142v913q385 45 783 48v382h139v-382z" />
    <glyph glyph-name="zero.osf" horiz-adv-x="1345" 
d="M674 104q182 0 301 121t119 315t-119 314t-301 121q-182 0 -302 -121q-120 -120 -120 -314t120 -315t302 -121zM674 1104q246 0 404 -157t157 -407q0 -250 -158 -408q-157 -157 -403 -157t-405 157t-159 408q0 252 160 408q158 156 404 156z" />
    <glyph glyph-name="one.osf" horiz-adv-x="864" 
d="M864 121v-121h-817v121h367v803l-361 -111l-33 121l488 158h45v-971h311z" />
    <glyph glyph-name="two.osf" horiz-adv-x="1105" 
d="M536 1100q220 0 332 -98t113 -243q0 -145 -130 -283t-405 -302l-81 -51h651v-123h-916v94l199 123q285 176 409 291t124 224t-81 171q-81 61 -242 61t-388 -77l-27 129q222 84 442 84z" />
    <glyph glyph-name="three.osf" horiz-adv-x="1167" 
d="M1077 84q0 -182 -144 -301t-392 -119t-473 115l51 112q236 -102 416 -102q181 0 289 85t108 213t-99 196t-282 67h-195v70l475 524h-702v131h901v-90l-467 -512h43q223 -10 347 -109q124 -98 124 -280z" />
    <glyph glyph-name="four.osf" horiz-adv-x="1335" 
d="M915 121v760l-649 -760h649zM1055 121h194v-121h-194v-313h-140v313h-841v94l841 985h140v-958z" />
    <glyph glyph-name="five.osf" horiz-adv-x="1212" 
d="M1104 103q0 -193 -139 -314t-359 -121q-279 0 -512 117l47 117q248 -106 459 -107q162 0 264 84q102 83 102 221t-98 212q-100 74 -284 83l-412 21l64 676h817v-136h-695l-41 -417l285 -15q238 -12 370 -120t132 -301z" />
    <glyph glyph-name="six.osf" horiz-adv-x="1230" 
d="M615 94q169 0 277 102t108 268q0 165 -108 265t-279 100t-276 -100t-105 -265q0 -166 106 -268q108 -102 277 -102zM616 948q232 0 378 -132t146 -352t-146 -358t-378 -137q-232 0 -378 137q-147 137 -148 359q0 156 103 301l438 627h166l-320 -457q65 12 139 12z" />
    <glyph glyph-name="seven.osf" horiz-adv-x="1087" 
d="M49 956v136h991v-91l-614 -1302h-160l602 1257h-819z" />
    <glyph glyph-name="eight.osf" horiz-adv-x="1298" 
d="M649 94q174 0 283 83q108 83 108 209t-107 202q-108 76 -284 76q-175 0 -283 -76t-108 -202t108 -209t283 -83zM971 1048q0 116 -89 186q-90 70 -234 71q-144 -1 -232 -71t-88 -187t88 -189t233 -72t234 73q88 73 88 189zM1192 379q0 -182 -150 -296t-394 -114t-392 114
q-150 114 -150 296q0 129 82 220t236 132q-244 82 -244 326q0 166 130 266t340 100t339 -100t129 -266q0 -244 -244 -326q154 -41 236 -132t82 -220z" />
    <glyph glyph-name="nine.osf" horiz-adv-x="1247" 
d="M236 628q0 -165 107 -266q109 -100 279 -100t276 100t106 266t-109 267q-109 102 -277 102t-275 -102t-107 -267zM1145 627q0 -154 -105 -301l-436 -627h-168l320 455q-72 -10 -138 -11q-231 0 -377 132q-147 133 -147 353t146 357t378 137q231 0 379 -137t148 -358z" />
    <glyph glyph-name="zero.osf.zero" horiz-adv-x="1345" 
d="M684 104q172 0 291 121t119 305t-97 297l-600 -624q115 -99 287 -99zM252 539q0 -154 82 -269l598 621q-112 84 -276 84q-164 -1 -284 -121t-120 -315zM674 1104q246 0 404 -157t157 -407q0 -250 -158 -408q-157 -157 -403 -157t-405 157t-159 408q0 252 160 408
q158 156 404 156z" />
    <glyph glyph-name="three.ss05" horiz-adv-x="1220" 
d="M1098 377q0 -190 -140 -299t-380 -109t-478 107l35 121q242 -95 426 -95t288 78q103 78 103 209q0 258 -381 258h-192v123h192q178 0 264 59q85 59 85 187t-96 201t-272 73q-177 0 -417 -94l-35 121q238 106 468 106t364 -106t135 -285q0 -256 -260 -319
q291 -59 291 -336z" />
    <glyph glyph-name="zero.tf" horiz-adv-x="1241" 
d="M621 100q186 0 301 164t114 432q0 268 -114 432q-115 164 -301 164q-185 0 -301 -164t-116 -432t116 -432q115 -164 301 -164zM621 1423q255 1 409 -199t154 -528t-155 -528t-409 -199q-254 0 -408 200q-155 199 -155 527t155 528t409 199z" />
    <glyph glyph-name="one.tf" horiz-adv-x="1241" 
d="M1137 0h-992v121h441v1106l-391 -113l-33 123l522 156h45v-1272h408v-121z" />
    <glyph glyph-name="two.tf" horiz-adv-x="1241" 
d="M1137 0h-998v94l494 463q127 121 187 191q60 71 80 125q19 54 20 114q0 141 -96 222t-265 81q-170 0 -385 -108l-41 123q215 119 449 119t360 -118q127 -118 127 -300q0 -146 -93 -276t-269 -284l-353 -315h783v-131z" />
    <glyph glyph-name="three.tf" horiz-adv-x="1241" 
d="M1151 390q0 -182 -144 -302q-144 -119 -390 -119t-476 117l52 113q231 -104 440 -105q157 0 265 86t108 213t-100 195t-281 67h-195v70l475 537h-702v131h901v-90l-467 -525h43q223 -8 347 -107t124 -281z" />
    <glyph glyph-name="four.tf" horiz-adv-x="1241" 
d="M868 391v803l-596 -803h596zM1012 391h178v-125h-178v-266h-144v266h-788v99l788 1028h144v-1002z" />
    <glyph glyph-name="five.tf" horiz-adv-x="1241" 
d="M1155 406q0 -194 -140 -315q-140 -122 -360 -122q-279 0 -512 117l50 123q236 -106 456 -107q156 0 256 83q101 83 101 219t-100 210t-273 82l-412 21l64 676h819v-136h-694l-41 -415l282 -15q238 -11 371 -119t133 -302z" />
    <glyph glyph-name="six.tf" horiz-adv-x="1241" 
d="M618 94q168 0 276 102t108 268q0 165 -108 265t-279 100t-276 -100t-105 -265q0 -166 108 -268t276 -102zM618 948q232 0 378 -132t146 -352t-146 -358t-378 -137q-232 0 -378 137q-147 137 -148 359q0 145 105 301l417 627h170l-305 -455q71 10 139 10z" />
    <glyph glyph-name="seven.tf" horiz-adv-x="1241" 
d="M106 1257v136h1063v-88l-694 -1305h-162l674 1257h-881z" />
    <glyph glyph-name="eight.tf" horiz-adv-x="1241" 
d="M639 94q174 0 284 83q109 83 109 209t-108 202q-109 76 -285 76t-284 -76q-107 -76 -107 -202t108 -209t283 -83zM640 1305q-144 -1 -232 -71t-89 -186t87 -189t233 -73t234 73t89 189t-88 186q-90 70 -234 71zM172 1057q0 166 129 266t339 100t340 -100t130 -266
q0 -244 -244 -326q154 -41 236 -132t82 -220q0 -182 -151 -296t-393 -114t-394 114q-150 114 -150 296q0 129 82 220t236 132q-242 85 -242 326z" />
    <glyph glyph-name="nine.tf" horiz-adv-x="1241" 
d="M644 1298q-168 0 -276 -102t-108 -267t108 -265t278 -100t276 100t106 265t-107 267q-108 102 -277 102zM643 1423q231 0 379 -137t147 -358q0 -152 -102 -301l-438 -627h-168l319 455q-72 -10 -137 -11q-231 0 -377 132t-147 353q0 220 146 357q147 137 378 137z" />
    <glyph glyph-name="zero.zero" horiz-adv-x="1542" 
d="M1108 1143l-627 -942q123 -100 291 -101q219 0 354 164q136 164 136 442t-154 437zM772 1292q-221 0 -356 -164t-135 -429t135 -429l624 936q-114 86 -268 86zM135 696q0 328 175 528t461 199q286 1 461 -199t175 -528t-175 -528t-461 -199q-286 0 -461 200
q-175 199 -175 527z" />
    <glyph glyph-name="zero.dnom" horiz-adv-x="946" 
d="M473 84q121 0 196 83t75 215t-75 215t-195 83t-194 -82t-75 -215t73 -216t195 -83zM473 780q172 0 277 -109q104 -110 104 -289t-104 -289q-104 -109 -276 -109t-278 110t-106 288t106 288t277 110z" />
    <glyph glyph-name="one.dnom" horiz-adv-x="589" 
d="M532 98v-98h-483v98h195v529l-183 -54l-24 99l282 90h33v-664h180z" />
    <glyph glyph-name="two.dnom" horiz-adv-x="720" 
d="M637 0h-561v74l280 245q76 66 110 110q34 43 34 107t-47 101t-140 37t-215 -49l-26 96q119 57 260 57t213 -66q71 -66 71 -158q0 -91 -50 -160t-150 -158l-160 -140h381v-96z" />
    <glyph glyph-name="three.dnom" horiz-adv-x="731" 
d="M324 82q104 0 161 38t58 97q0 123 -187 123h-145v53l252 271h-365v98h518v-68l-249 -260l18 -2q123 -4 193 -60t70 -156t-83 -166t-233 -66t-275 63l39 88q124 -53 228 -53z" />
    <glyph glyph-name="four.dnom" horiz-adv-x="815" 
d="M510 266v367l-330 -367h330zM621 266h118v-96h-118v-170h-111v170h-473v80l467 512h117v-496z" />
    <glyph glyph-name="five.dnom" horiz-adv-x="778" 
d="M682 229q0 -109 -82 -177t-232 -68t-278 63l35 94q139 -59 241 -59t158 40t56 103t-52 97t-139 38l-248 13l35 389h477v-98h-383l-18 -193l147 -6q135 -7 209 -67t74 -169z" />
    <glyph glyph-name="six.dnom" horiz-adv-x="804" 
d="M402 76q89 0 146 55q56 55 56 142t-56 139t-148 53q-92 0 -146 -50q-53 -49 -53 -139t56 -145t145 -55zM403 563q137 0 225 -80t87 -210q0 -130 -88 -212q-89 -81 -225 -81t-224 82t-88 212q0 88 62 179l217 309h131l-140 -201q14 2 43 2z" />
    <glyph glyph-name="seven.dnom" horiz-adv-x="655" 
d="M37 657v105h575v-68l-336 -694h-124l323 657h-438z" />
    <glyph glyph-name="eight.dnom" horiz-adv-x="753" 
d="M377 74q84 0 136 40t52 104t-52 102t-136 38t-136 -38q-53 -38 -53 -100q0 -64 52 -105t137 -41zM223 562q0 -58 42 -94t113 -36q70 0 112 36t42 94t-43 93t-111 35t-112 -35q-43 -35 -43 -93zM682 209q0 -97 -85 -161t-221 -64t-220 63t-84 162q0 139 161 188
q-125 47 -124 174q0 94 74 152q75 57 195 57t194 -57t75 -152q0 -125 -127 -174q162 -49 162 -188z" />
    <glyph glyph-name="nine.dnom" horiz-adv-x="796" 
d="M600 491q0 85 -56 141t-146 56t-145 -56q-56 -56 -56 -142q0 -87 56 -139t146 -52t146 53q55 53 55 139zM397 201q-137 0 -224 80q-87 79 -87 209t88 212t224 82t224 -82t89 -213q0 -93 -45 -153l-234 -336h-131l141 203q-14 -2 -45 -2z" />
    <glyph glyph-name="zero.numr" horiz-adv-x="946" 
d="M473 715q121 0 196 83t75 215t-75 215t-195 83t-194 -82t-75 -215t73 -216t195 -83zM473 1411q172 0 277 -109q104 -110 104 -289t-104 -289t-276 -110t-278 110t-106 289t106 289t277 109z" />
    <glyph glyph-name="one.numr" horiz-adv-x="589" 
d="M532 729v-98h-483v98h195v528l-183 -53l-24 99l282 90h33v-664h180z" />
    <glyph glyph-name="two.numr" horiz-adv-x="720" 
d="M637 631h-561v74l280 245q76 66 110 110t34 108t-47 100q-47 37 -140 37t-215 -50l-26 97q119 57 260 57t213 -67q71 -68 71 -158t-50 -159t-150 -159l-160 -139h381v-96z" />
    <glyph glyph-name="three.numr" horiz-adv-x="731" 
d="M332 614q-150 0 -275 64l39 88q124 -53 228 -53t161 38t58 97q0 123 -187 123h-145v53l252 270h-365v99h518v-68l-249 -260l18 -2q123 -5 193 -61t70 -156t-83 -166t-233 -66z" />
    <glyph glyph-name="four.numr" horiz-adv-x="815" 
d="M510 897v367l-330 -367h330zM621 897h118v-96h-118v-170h-111v170h-473v80l467 512h117v-496z" />
    <glyph glyph-name="five.numr" horiz-adv-x="778" 
d="M682 860q0 -110 -82 -178t-232 -68t-278 64l35 94q139 -59 241 -59t158 40t56 103t-52 97t-139 38l-248 13l35 389h477v-99h-383l-18 -192l147 -6q135 -6 209 -66t74 -170z" />
    <glyph glyph-name="six.numr" horiz-adv-x="804" 
d="M402 707q89 0 146 55q56 55 56 142t-56 139q-56 53 -148 53t-146 -50q-53 -50 -53 -140t56 -144q56 -55 145 -55zM403 1194q137 0 225 -80t87 -210q0 -130 -88 -212q-89 -82 -225 -82t-224 82t-88 213q0 88 62 178l217 310h131l-140 -201q14 2 43 2z" />
    <glyph glyph-name="seven.numr" horiz-adv-x="655" 
d="M37 1288v105h575v-68l-336 -694h-124l323 657h-438z" />
    <glyph glyph-name="eight.numr" horiz-adv-x="753" 
d="M377 700q84 0 136 40t52 104t-52 103q-52 38 -136 38t-136 -38q-53 -38 -53 -101q0 -62 52 -104t137 -42zM223 1189q0 -58 42 -94t113 -36q70 0 112 36t42 94t-43 93t-111 35t-112 -35q-43 -35 -43 -93zM682 836q0 -98 -85 -162t-221 -64t-220 64t-84 162q0 139 161 188
q-125 47 -124 174q0 94 74 152q75 57 195 57t194 -57t75 -152q0 -125 -127 -174q162 -49 162 -188z" />
    <glyph glyph-name="nine.numr" horiz-adv-x="796" 
d="M197 1113q0 -87 56 -139t146 -52t146 53q55 53 55 139t-56 141t-146 55t-145 -54q-56 -56 -56 -143zM397 823q-137 0 -224 80t-87 210t88 212t224 82t224 -82t89 -213q0 -86 -45 -154l-234 -335h-131l141 202q-14 -2 -45 -2z" />
    <glyph glyph-name="braceleft.case" horiz-adv-x="759" 
d="M438 1188v-215q0 -127 -32 -194t-117 -95q84 -30 117 -96t32 -193v-215q0 -127 47 -178t160 -51v-127q-180 0 -263 88t-83 274v215q0 127 -46 173t-161 47v127q115 0 161 46t46 173v215q0 186 83 274t263 88v-127q-113 0 -160 -51t-47 -178z" />
    <glyph glyph-name="braceright.case" horiz-adv-x="759" 
d="M322 973v215q0 127 -48 178t-159 51v127q180 0 263 -88t83 -274v-215q0 -127 46 -173t161 -46v-127q-115 -1 -161 -47t-46 -173v-215q0 -186 -83 -274t-263 -88v127q113 0 159 51t48 178v215q0 129 31 195q32 66 116 94q-84 29 -116 94q-31 66 -31 195z" />
    <glyph glyph-name="bracketleft.case" horiz-adv-x="669" 
d="M291 -18h282v-134h-421v1686h421v-135h-282v-1417z" />
    <glyph glyph-name="bracketright.case" horiz-adv-x="669" 
d="M96 1399v135h422v-1686h-422v134h283v1417h-283z" />
    <glyph glyph-name="parenleft.case" horiz-adv-x="655" 
d="M250 692q0 -226 71 -401q71 -176 224 -387l-105 -68q-326 399 -325 856q-1 457 325 856l105 -65q-155 -213 -225 -389t-70 -402z" />
    <glyph glyph-name="parenright.case" horiz-adv-x="645" 
d="M100 1483l105 65q327 -399 327 -856t-327 -856l-105 68q156 211 227 387t70 401q-1 226 -71 402t-226 389z" />
    <glyph glyph-name="emdash.case" horiz-adv-x="1906" 
d="M1743 639h-1579v139h1579v-139z" />
    <glyph glyph-name="endash.case" horiz-adv-x="1345" 
d="M1182 639h-1018v139h1018v-139z" />
    <glyph glyph-name="hyphen.case" horiz-adv-x="940" 
d="M774 639h-612v139h612v-139z" />
    <glyph glyph-name="guillemotleft.case" horiz-adv-x="1116" 
d="M965 350l-78 -74l-381 404l381 401l80 -67l-297 -332zM565 350l-80 -74l-381 404l381 401l82 -67l-299 -332z" />
    <glyph glyph-name="guillemotright.case" horiz-adv-x="1116" 
d="M547 1014l80 67l381 -401l-381 -404l-80 74l297 332zM145 1014l82 67l379 -401l-379 -404l-80 74l295 332z" />
    <glyph glyph-name="guilsinglleft.case" horiz-adv-x="716" 
d="M565 350l-80 -74l-381 404l381 401l82 -67l-299 -332z" />
    <glyph glyph-name="guilsinglright.case" horiz-adv-x="716" 
d="M150 1014l81 67l379 -401l-379 -404l-79 74l294 332z" />
    <glyph glyph-name="backslash.case" horiz-adv-x="911" 
d="M240 1573l577 -1768h-145l-578 1768h146z" />
    <glyph glyph-name="bullet.case" horiz-adv-x="649" 
d="M557 676q-1 -98 -67 -165t-165 -67t-167 67t-68 165t68 165t167 67t165 -68q66 -66 67 -164z" />
    <glyph glyph-name="exclamdown.case" horiz-adv-x="544" 
d="M197 1032h139l8 -1032h-154zM268 1419q43 -1 73 -29t30 -71t-30 -72t-73 -29q-42 0 -72 30q-30 28 -30 71t30 71t72 29z" />
    <glyph glyph-name="periodcentered.case" horiz-adv-x="561" 
d="M281 592q-47 0 -79 32t-32 76t32 77q32 32 79 32t79 -32t31 -77q1 -44 -31 -76t-79 -32z" />
    <glyph glyph-name="questiondown.case" horiz-adv-x="1026" 
d="M574 -31q-200 0 -333 116q-135 117 -135 309t126 313t329 120h49l-8 205h131l25 -323h-172q-156 0 -249 -88q-93 -89 -93 -227t95 -219t249 -81t334 37l22 -117q-170 -45 -370 -45zM662 1219q-43 1 -73 29t-30 71t30 72t73 29q42 0 72 -30q30 -28 30 -71t-30 -71t-72 -29
z" />
    <glyph glyph-name="slash.case" horiz-adv-x="913" 
d="M240 -201h-146l582 1774h143z" />
    <glyph glyph-name="florin.tf" horiz-adv-x="1241" 
d="M918 1296q-84 0 -126 -57t-61 -199l-29 -213h383v-127h-401l-47 -352q-27 -201 -101 -290t-237 -89q-74 0 -184 29l22 115q88 -17 172 -17t127 56t62 200l47 348h-262v127h278l29 217q29 201 103 290q75 89 237 89q76 0 182 -28l-22 -115q-88 16 -172 16z" />
    <glyph glyph-name="cent.tf" horiz-adv-x="1241" 
d="M764 -256h-129v252q-205 18 -330 154t-125 345q0 210 124 344t331 154v252h129v-250q137 -6 272 -51l-22 -115q-166 43 -301 43q-175 0 -281 -103t-106 -273t105 -274t255 -105q150 0 346 51l23 -119q-147 -45 -291 -55v-250z" />
    <glyph glyph-name="dollar.tf" horiz-adv-x="1241" 
d="M690 -268h-129v239q-266 20 -498 115l39 135q287 -117 547 -117q166 0 265 70q100 70 100 202t-134 195q-108 50 -288 84q-25 4 -43 9q-236 49 -331 128q-95 78 -95 240t119 266t319 117v256h129v-256q242 -12 428 -82l-37 -125q-261 78 -443 78t-272 -68t-90 -178
q0 -112 79 -161t231 -81t221 -52q180 -49 267 -131t87 -250t-128 -276t-343 -118v-239z" />
    <glyph glyph-name="Euro.tf" horiz-adv-x="1241" 
d="M778 -29q-220 0 -379 130q-158 130 -211 358h-153v104h135q-6 59 -6 115t2 80h-131v104h145q45 244 207 385t412 142q197 0 379 -64l-21 -131q-209 55 -375 55t-286 -102q-119 -102 -160 -285h622l-24 -104h-615q-2 -26 -2 -86t9 -109h567l-27 -104h-520
q45 -166 160 -257t285 -91t385 63l18 -131q-196 -72 -416 -72z" />
    <glyph glyph-name="sterling.tf" horiz-adv-x="1241" 
d="M1163 0h-1085v123h153v457h-153v122h153v299q-1 191 135 307t336 116t369 -46l-24 -116q-178 36 -332 36t-248 -80t-94 -217v-299h489v-122h-489v-457h790v-123z" />
    <glyph glyph-name="yen.tf" horiz-adv-x="1241" 
d="M1128 573v-108h-434v-172h434v-109h-434v-184h-147v184h-428v109h428v172h-428v108h389l-467 820h164l413 -727l416 727h164l-465 -820h395z" />
    <glyph glyph-name="arrowdown.ss06" horiz-adv-x="1431" 
d="M678 954h76v-399l159 160l54 -53l-252 -252l-252 252l53 53l162 -160v399zM717 217q195 0 333 139t138 334t-139 333t-333 138t-333 -138t-139 -333t139 -334t334 -139zM717 133q-229 0 -393 163t-164 393t164 393t393 163t392 -163t163 -392t-163 -393t-392 -164z" />
    <glyph glyph-name="arrowdownleft.ss06" horiz-adv-x="1433" 
d="M518 494v356h76v-229l283 284l53 -55l-283 -281l227 -2v-73h-356zM717 217q197 0 334 139t137 334t-137 332t-334 138t-334 -137t-137 -333t137 -334t334 -139zM160 690q0 231 164 393t394 162t393 -162t163 -393t-163 -393t-394 -163t-394 162t-163 394z" />
    <glyph glyph-name="arrowdownright.ss06" horiz-adv-x="1431" 
d="M840 850h75v-356h-356v73l227 2l-282 281l53 55l283 -284v229zM1188 690q0 195 -137 333t-334 137t-334 -138t-137 -332t137 -334t334 -139t334 139t137 334zM160 689q0 230 162 394q164 162 394 162t394 -162t164 -393t-163 -394t-394 -162t-395 163q-162 162 -162 392z
" />
    <glyph glyph-name="arrowleft.ss06" horiz-adv-x="1431" 
d="M981 727v-76h-399l159 -159l-53 -54l-252 252l252 252l53 -53l-159 -162h399zM244 688q0 -195 139 -333t333 -138t333 139t139 333t-138 333t-333 139t-334 -139t-139 -334zM160 688q0 229 164 393t393 164t392 -164t163 -393t-163 -392t-392 -163t-393 163t-164 392z
" />
    <glyph glyph-name="arrowright.ss06" horiz-adv-x="1431" 
d="M451 651v76h399l-160 162l53 53l252 -252l-252 -252l-53 54l160 159h-399zM1188 688q0 195 -139 334t-334 139t-333 -139t-138 -333t138 -333t333 -139t334 138t139 333zM1272 688q0 -229 -164 -392t-393 -163t-392 163t-163 392t163 393t393 164t393 -164t163 -393z" />
    <glyph glyph-name="arrowup.ss06" horiz-adv-x="1431" 
d="M754 424h-76v399l-162 -159l-53 53l252 252l252 -252l-54 -53l-159 159v-399zM717 1161q-195 0 -334 -139t-139 -334t139 -333t333 -138t333 139t139 333t-138 333t-333 139zM717 1245q229 0 392 -164t163 -393t-163 -392t-392 -163t-393 163t-164 392t164 393t393 164z
" />
    <glyph glyph-name="arrowupleft.ss06" horiz-adv-x="1433" 
d="M594 530h-76v357h356v-74l-227 -2l283 -281l-53 -55l-283 285v-230zM246 690q0 -195 137 -333t334 -137t334 138t137 332t-137 334t-334 139t-334 -139t-137 -334zM1274 690q0 -231 -163 -393t-393 -162t-394 162t-164 393t163 394t394 162t394 -163t163 -393z" />
    <glyph glyph-name="arrowupright.ss06" horiz-adv-x="1431" 
d="M915 887v-357h-75v230l-283 -285l-53 55l282 281l-227 2v74h356zM717 1163q-197 0 -334 -139t-137 -334t137 -332t334 -138t334 137t137 333t-137 334t-334 139zM1274 690q0 -231 -164 -393t-394 -162t-394 162q-162 162 -162 392t162 394q164 162 395 163t394 -162
t163 -394z" />
    <glyph glyph-name="arrowdown.ss08" horiz-adv-x="1431" 
d="M754 954h-76v-399l-162 160l-53 -53l252 -252l252 252l-54 53l-159 -160v399zM717 133q-229 0 -393 163t-164 393t164 393t393 163t392 -163t163 -392t-163 -393t-392 -164z" />
    <glyph glyph-name="arrowdownleft.ss08" horiz-adv-x="1433" 
d="M594 850h-76v-356h356v73l-227 2l283 281l-53 55l-283 -284v229zM160 690q0 231 164 393t394 162t393 -162t163 -393t-163 -393t-394 -163t-394 162t-163 394z" />
    <glyph glyph-name="arrowdownright.ss08" horiz-adv-x="1431" 
d="M915 494v356h-75v-229l-283 284l-53 -55l282 -281l-227 -2v-73h356zM160 689q0 230 162 394q164 162 394 162t394 -162t164 -393t-163 -394t-394 -162t-395 163q-162 162 -162 392z" />
    <glyph glyph-name="arrowleft.ss08" horiz-adv-x="1431" 
d="M981 651v76h-399l159 162l-53 53l-252 -252l252 -252l53 54l-159 159h399zM160 688q0 229 164 393t393 164t392 -164t163 -393t-163 -392t-392 -163t-393 163t-164 392z" />
    <glyph glyph-name="arrowright.ss08" horiz-adv-x="1431" 
d="M451 727v-76h399l-160 -159l53 -54l252 252l-252 252l-53 -53l160 -162h-399zM1272 688q0 -229 -164 -392t-393 -163t-392 163t-163 392t163 393t393 164t393 -164t163 -393z" />
    <glyph glyph-name="arrowup.ss08" horiz-adv-x="1431" 
d="M678 424h76v399l159 -159l54 53l-252 252l-252 -252l53 -53l162 159v-399zM717 1245q229 0 392 -164t163 -393t-163 -392t-392 -163t-393 163t-164 392t164 393t393 164z" />
    <glyph glyph-name="arrowupleft.ss08" horiz-adv-x="1433" 
d="M518 887v-357h76v230l283 -285l53 55l-283 281l227 2v74h-356zM1274 690q0 -231 -163 -393t-393 -162t-394 162t-164 393t163 394t394 162t394 -163t163 -393z" />
    <glyph glyph-name="arrowupright.ss08" horiz-adv-x="1431" 
d="M840 530h75v357h-356v-74l227 -2l-282 -281l53 -55l283 285v-230zM1274 690q0 -231 -164 -393t-394 -162t-394 162q-162 162 -162 392t162 394q164 162 395 163t394 -162t163 -394z" />
    <glyph glyph-name="arrowdown.ss09" horiz-adv-x="1400" 
d="M1206 831l-506 -507l-507 510l88 88l419 -424l420 422z" />
    <glyph glyph-name="arrowup.ss09" horiz-adv-x="1400" 
d="M1120 369l-420 422l-419 -422l-88 86l507 510l506 -508z" />
    <glyph glyph-name="arrowleft.ss09" horiz-adv-x="1126" 
d="M416 707l422 -420l-88 -86l-506 506l508 507l88 -88z" />
    <glyph glyph-name="arrowright.ss09" horiz-adv-x="1126" 
d="M883 707l-506 -506l-88 86l422 420l-424 419l88 88z" />
    <glyph glyph-name="registered.ss07" horiz-adv-x="1196" 
d="M520 973h94q41 1 66 23t25 57q0 88 -101 82l-84 -2v-160zM607 1206q77 0 127 -40t50 -109q0 -102 -96 -135l113 -166h-94l-103 147h-84v-147h-76v444q86 6 163 6zM599 1358q-169 0 -282 -112t-113 -280t114 -279q112 -112 282 -112t282 112t112 280q0 167 -114 279
q-112 112 -281 112zM598 1423q199 0 331 -130q132 -129 132 -325t-132 -326t-331 -130t-331 130t-132 326t132 326t331 129z" />
    <glyph glyph-name="at.case" horiz-adv-x="2082" 
d="M998 1028q-169 0 -261 -99t-92 -261t93 -266t252 -105q159 0 343 121q-12 53 -12 117v466q-154 27 -323 27zM1050 1575q404 0 657 -246t253 -649q0 -250 -98 -372t-274 -122t-232 131q-202 -137 -396 -137t-322 138t-127 352t128 345q127 130 344 130t471 -49v-582
q0 -117 37 -173t127 -56q258 0 258 395q0 367 -229 591t-595 224t-606 -234q-240 -233 -240 -581t232 -582q231 -234 584 -235q203 0 508 69l14 -75q-299 -74 -522 -74q-393 0 -646 255t-253 640t262 641q261 256 665 256z" />
    <glyph glyph-name="bar.case" horiz-adv-x="636" 
d="M385 1626v-1880h-133v1880h133z" />
    <glyph glyph-name="brokenbar.case" horiz-adv-x="636" 
d="M385 -256h-133v836h133v-836zM385 788h-133v836h133v-836z" />
    <glyph glyph-name="caron.alt" 
d="M686 1393l-57 -402h-109l21 402h145z" />
    <glyph glyph-name="acute.case" 
d="M913 1835l-223 -311h-147l182 311h188z" />
    <glyph glyph-name="breve.case" 
d="M791 1827h120q0 -135 -81 -214t-216 -79t-216 79t-81 214h119q0 -84 48 -132t130 -48t130 47t47 133z" />
    <glyph glyph-name="caron.case" 
d="M680 1513h-131l-258 318h143l180 -217l181 217h143z" />
    <glyph glyph-name="circumflex.case" 
d="M614 1737l-182 -213h-141l258 311h131l258 -311h-141z" />
    <glyph glyph-name="dieresis.case" 
d="M829 1581q-41 0 -69 28q-28 27 -29 67q0 40 29 68q30 28 70 28t69 -28t29 -68t-29 -68t-70 -27zM399 1581q-41 0 -69 28q-28 27 -29 67q0 40 29 68q30 28 70 28t69 -28t29 -68t-29 -68t-70 -27z" />
    <glyph glyph-name="dotaccent.case" 
d="M614 1581q-42 0 -70 28q-28 27 -28 67t29 68t69 28t70 -28q29 -28 29 -68t-29 -68t-70 -27z" />
    <glyph glyph-name="grave.case" 
d="M692 1524h-137l-223 311h188z" />
    <glyph glyph-name="hungarumlaut.case" 
d="M1010 1835l-162 -311h-129l143 311h148zM729 1835l-164 -311h-127l144 311h147z" />
    <glyph glyph-name="macron.case" 
d="M907 1712v-113h-590v113h590z" />
    <glyph glyph-name="ring.case" 
d="M612 1575q49 0 81 31t32 81q0 49 -33 81t-80 32t-80 -32q-32 -32 -32 -82t32 -80q32 -31 80 -31zM611 1878q87 0 143 -53t57 -138q0 -85 -56 -139q-57 -54 -143 -53q-86 0 -142 53q-56 52 -56 138t55 139t142 53z" />
    <glyph glyph-name="tilde.case" 
d="M823 1735h113q0 -70 -30 -118q-54 -87 -166 -80q-48 3 -87 26l-112 75q-49 33 -93 13t-45 -80h-110q0 92 51 145q89 92 231 25l113 -74q49 -33 92 -12t43 80z" />
    </font>
</defs>
</svg>
