<?xml version="1.0" standalone="no"?>
<!DOCTYPE svg PUBLIC "-//W3C//DTD SVG 1.1//EN" "http://www.w3.org/Graphics/SVG/1.1/DTD/svg11.dtd" >
<svg xmlns="http://www.w3.org/2000/svg">
<metadata>
Created by FontPrep 20130207 at Mon Nov 21 12:25:15 2016
 By Rene Bieder
Copyright (c) 2013 by Rene' Bieder. All rights reserved.
</metadata>
<defs>
<font id="78c6a97628d000a396833bc4329290ab" horiz-adv-x='1024' >
  <font-face 
    font-family="Canaro-Black"
    font-weight="900"
    font-stretch="normal"
    units-per-em="2048"
    panose-1="0 0 10 0 0 0 0 0 0 0"
    ascent="1638"
    descent="-410"
    x-height="1024"
    cap-height="1393"
    bbox="-227 -631 3148 2040"
    underline-thickness="102"
    underline-position="-102"
    unicode-range="U+0020-FB02"
  />
<missing-glyph horiz-adv-x="1781" 
d="M348 143h977l-977 977v-977zM1434 1249h-985l985 -985v985zM1577 1393v-1393h-1372v1393h1372z" />
    <glyph glyph-name="fi" unicode="fi" horiz-adv-x="1550" 
d="M1479 1024v-1024h-461v616h-381v-616h-459v616h-178v408h178v47q0 245 170 397t424 152q336 0 541 -223l-236 -267q-125 98 -252 99q-188 0 -188 -176v-29h842z" />
    <glyph glyph-name="fl" unicode="fl" horiz-adv-x="1550" 
d="M1489 0h-461v1190q-123 39 -215 39q-176 0 -176 -156v-49h285v-408h-285v-616h-459v616h-178v408h178v109q0 233 153 360t359 127q94 0 152 -10t202 -56l445 -20v-1534z" />
    <glyph glyph-name="f_f" unicode="ff" horiz-adv-x="1789" 
d="M1042 1024v133q-104 72 -217 72q-188 0 -188 -176v-29h405zM1501 1024h285v-408h-285v-616h-459v616h-405v-616h-459v616h-178v408h178v47q0 245 170 397t412 152t414 -107q113 106 299 107q137 0 313 -27l-33 -352q-69 8 -131 8q-62 1 -92 -31t-29 -104v-90z" />
    <glyph glyph-name="f_f_i" unicode="ffi" horiz-adv-x="2414" 
d="M1042 1024v47q0 43 7 82q-109 76 -224 76q-188 0 -188 -176v-29h405zM2343 1024v-1024h-461v616h-381v-616h-459v616h-405v-616h-459v616h-178v408h178v47q0 245 170 397t429 152t448 -141q168 141 411 141q336 0 541 -223l-235 -267q-125 98 -252 99q-188 0 -189 -176
v-29h842z" />
    <glyph glyph-name="f_f_l" unicode="ffl" horiz-adv-x="2414" 
d="M1042 1024v131q-102 74 -217 74q-188 0 -188 -176v-29h405zM2343 0h-461v1192q-117 37 -205 37q-176 0 -176 -156v-49h285v-408h-285v-616h-459v616h-405v-616h-459v616h-178v408h178v47q0 245 170 397t420 152t432 -125q143 125 354 125q94 0 152 -11t205 -57l432 -18
v-1534z" />
    <glyph glyph-name=".notdef" horiz-adv-x="1781" 
d="M348 143h977l-977 977v-977zM1434 1249h-985l985 -985v985zM1577 1393v-1393h-1372v1393h1372z" />
    <glyph glyph-name=".null" horiz-adv-x="0" 
 />
    <glyph glyph-name="nonmarkingreturn" horiz-adv-x="681" 
 />
    <glyph glyph-name="space" unicode=" " horiz-adv-x="450" 
 />
    <glyph glyph-name="exclam" unicode="!" horiz-adv-x="663" 
d="M335 -31q-97 -1 -165 63t-68 160t69 158q69 64 165 64t165 -65t69 -159t-70 -157q-68 -64 -165 -64zM592 1393l-41 -893h-438l-41 893h520z" />
    <glyph glyph-name="quotedbl" unicode="&#x22;" horiz-adv-x="1001" 
d="M543 973v600h407l-94 -600h-313zM113 973v600h407l-94 -600h-313z" />
    <glyph glyph-name="numbersign" unicode="#" horiz-adv-x="1720" 
d="M754 797l-70 -219h264l70 219h-264zM1567 578v-347h-326l-72 -231h-401l72 231h-265l-71 -231h-402l72 231h-133v347h242l69 219h-198v346h307l78 252h401l-78 -252h264l78 252h402l-78 -252h151v-346h-260l-69 -219h217z" />
    <glyph glyph-name="dollar" unicode="$" horiz-adv-x="1394" 
d="M1337 428q-1 -182 -117 -299t-331 -149v-179h-322v179q-229 25 -530 118l104 391q649 -206 647 -67q0 37 -72 56q-28 7 -61 16t-82 18q-259 58 -369 150t-110 286t122 315q122 120 351 148v227h322v-227q246 -25 436 -82l-80 -403q-338 98 -508 98q-111 0 -110 -55
q0 -39 73 -59q23 -5 41 -9q19 -4 53 -11q415 -84 505 -277q38 -79 38 -185z" />
    <glyph glyph-name="percent" unicode="%" horiz-adv-x="2252" 
d="M1729 236q67 0 115 46t48 116t-49 115q-49 46 -115 46t-114 -46q-49 -46 -49 -116q0 -69 49 -115t115 -46zM1729 825q193 -1 317 -119t125 -308q0 -190 -125 -310q-126 -119 -318 -119t-317 119t-125 309t125 309t318 119zM524 834q66 0 115 46t49 116t-49 115
q-49 46 -115 46t-114 -46t-50 -116q0 -69 49 -115t115 -46zM752 0h-213l966 1393h213zM524 1423q193 -1 318 -119t125 -308t-125 -310q-125 -119 -318 -119q-194 0 -318 119t-124 309t124 309t318 119z" />
    <glyph glyph-name="ampersand" unicode="&#x26;" horiz-adv-x="1282" 
d="M764 551h-78q-111 0 -168 -22q-57 -21 -57 -75t42 -85q41 -31 109 -31t110 33t42 86v94zM688 1055q-150 0 -150 -106q0 -50 32 -68q30 -18 116 -19h576v-311h-78v-94q0 -219 -158 -353t-414 -135q-256 0 -414 117t-157 307q0 246 217 330q-137 93 -137 283t142 304
q143 114 373 114t419 -56l-84 -344q-201 31 -283 31z" />
    <glyph glyph-name="quotesingle" unicode="'" horiz-adv-x="571" 
d="M113 973v600h407l-94 -600h-313z" />
    <glyph glyph-name="parenleft" unicode="(" horiz-adv-x="851" 
d="M543 532q0 -264 62 -468t196 -457l-383 -211q-367 510 -367 1143t367 1110l383 -211q-131 -234 -195 -438t-63 -468z" />
    <glyph glyph-name="parenright" unicode=")" horiz-adv-x="831" 
d="M31 1438l383 211q366 -477 366 -1111t-366 -1142l-383 211q133 254 195 458q62 203 62 467t-62 468q-64 204 -195 438z" />
    <glyph glyph-name="asterisk" unicode="*" horiz-adv-x="856" 
d="M535 698h-213v197l-172 -100l-109 184l174 100l-174 103l109 184l172 -100v182h213v-182l172 100l108 -184l-174 -103l174 -100l-108 -184l-172 100v-197z" />
    <glyph glyph-name="plus" unicode="+" horiz-adv-x="1314" 
d="M809 510v-328h-303v328h-322v291h322v327h303v-327h321v-291h-321z" />
    <glyph glyph-name="comma" unicode="," horiz-adv-x="716" 
d="M102 215q0 104 75 174t181 70t182 -71t74 -173q0 -72 -49 -166t-203 -325h-258l136 292q-68 29 -103 83t-35 116z" />
    <glyph glyph-name="hyphen" unicode="-" horiz-adv-x="1095" 
d="M911 315h-727v414h727v-414z" />
    <glyph glyph-name="period" unicode="." horiz-adv-x="716" 
d="M358 -31q-106 0 -181 71t-75 175t75 174t181 70t182 -71t74 -174q0 -103 -75 -174t-181 -71z" />
    <glyph glyph-name="slash" unicode="/" horiz-adv-x="1116" 
d="M367 -557h-357l729 2130h357z" />
    <glyph glyph-name="zero" unicode="0" horiz-adv-x="1466" 
d="M733 367q117 0 188 90q71 89 71 239t-71 240t-188 90t-187 -90t-71 -240q1 -150 71 -240t187 -89zM733 1423q307 0 495 -199q187 -200 187 -528t-187 -528q-186 -200 -494 -199q-308 0 -495 200q-187 199 -187 527t186 528q188 200 495 199z" />
    <glyph glyph-name="one" unicode="1" horiz-adv-x="927" 
d="M805 0h-440v868l-263 -57l-82 406l611 176h174v-1393z" />
    <glyph glyph-name="two" unicode="2" horiz-adv-x="1198" 
d="M1147 0h-1081v309l407 328q92 74 139 126t57 75q9 23 9 49q0 131 -148 131t-413 -78l-90 371q335 113 585 113t383 -128q133 -127 133 -338q0 -152 -68 -262t-212 -225l-100 -82h399v-389z" />
    <glyph glyph-name="three" unicode="3" horiz-adv-x="1292" 
d="M1221 455q1 -231 -147 -359t-419 -127q-166 0 -293 25t-321 90l104 348q301 -94 500 -94q156 0 156 119q0 43 -49 69t-131 25h-250v172l250 283h-506v387h1054v-228l-268 -331l29 -7q135 -27 213 -128t78 -244z" />
    <glyph glyph-name="four" unicode="4" horiz-adv-x="1374" 
d="M791 551v375l-297 -375h297zM1182 551h151v-348h-151v-203h-391v203h-760v307l760 883h391v-842z" />
    <glyph glyph-name="five" unicode="5" horiz-adv-x="1269" 
d="M1229 451q0 -221 -154 -351t-479 -131q-248 0 -547 117l109 338q262 -88 448 -88t187 110q0 115 -195 125l-434 23l82 799h909v-410h-537l-12 -76l88 -4q535 -27 535 -452z" />
    <glyph glyph-name="six" unicode="6" horiz-adv-x="1302" 
d="M651 328q90 0 146 52q55 52 55 135t-55 133t-145 50t-146 -50q-55 -50 -55 -133t55 -135t145 -52zM1262 518q0 -248 -168 -398t-442 -151q-274 0 -443 151q-168 151 -168 398q0 166 109 309l434 566h503l-299 -377q218 -35 346 -168t128 -330z" />
    <glyph glyph-name="seven" unicode="7" horiz-adv-x="1214" 
d="M41 983v410h1143v-246l-471 -1147h-486l404 983h-590z" />
    <glyph glyph-name="eight" unicode="8" horiz-adv-x="1282" 
d="M641 322q63 0 100 36t37 96q0 58 -38 94t-99 36t-99 -36t-38 -94t37 -95t100 -37zM514 987q0 -53 35 -85t92 -32t92 32t35 85t-35 86t-92 33t-92 -33t-35 -86zM1241 383q0 -201 -156 -307q-157 -106 -445 -106t-444 106t-155 307q0 244 264 344q-203 88 -203 305
q0 170 153 281t386 111t386 -112q153 -110 153 -280q0 -217 -203 -305q264 -100 264 -344z" />
    <glyph glyph-name="nine" unicode="9" horiz-adv-x="1323" 
d="M451 878q0 -84 55 -134t145 -50t146 50q55 50 55 134t-55 135q-55 52 -145 52t-146 -52q-55 -52 -55 -135zM651 1423q274 0 443 -150q168 -151 168 -399q0 -135 -86 -282l-355 -592h-504l228 373q-231 27 -368 162q-136 135 -136 339q0 248 168 398t442 151z" />
    <glyph glyph-name="colon" unicode=":" horiz-adv-x="716" 
d="M358 -31q-106 0 -181 71t-75 175t75 174t181 70t182 -71t74 -174q0 -103 -75 -174t-181 -71zM358 569q-106 0 -181 71t-75 175t75 174t181 70t182 -71t74 -174q0 -103 -75 -174t-181 -71z" />
    <glyph glyph-name="semicolon" unicode=";" horiz-adv-x="716" 
d="M102 215q0 104 75 174t181 70t182 -71t74 -173q0 -72 -49 -166t-203 -325h-258l136 292q-68 29 -103 83t-35 116zM358 569q-106 0 -181 71t-75 175t75 174t181 70t182 -71t74 -174q0 -103 -75 -174t-181 -71z" />
    <glyph glyph-name="less" unicode="&#x3c;" horiz-adv-x="1028" 
d="M926 1206v-370l-453 -203l453 -205v-371l-865 389v371z" />
    <glyph glyph-name="equal" unicode="=" horiz-adv-x="1355" 
d="M1171 285h-987v290h987v-290zM1171 735h-987v291h987v-291z" />
    <glyph glyph-name="greater" unicode="&#x3e;" horiz-adv-x="1028" 
d="M967 446l-865 -389v371l453 205l-453 203v370l865 -389v-371z" />
    <glyph glyph-name="question" unicode="?" horiz-adv-x="1046" 
d="M420 414q96 0 165 -65t69 -159t-69 -157t-166 -63t-165 62q-68 64 -68 160t69 158q69 64 165 64zM442 1423q250 -1 403 -119t153 -302t-106 -311q-105 -126 -284 -126h-4l2 -86h-401l-37 363h229q180 0 181 104q0 109 -168 109q-84 0 -334 -41l-56 358q232 51 422 51z
" />
    <glyph glyph-name="at" unicode="@" horiz-adv-x="1994" 
d="M985 655q-66 0 -112 -46t-46 -120q0 -75 47 -119q48 -44 106 -44t120 55v266q-90 8 -115 8zM1040 1413q414 0 673 -251t259 -664q0 -252 -137 -379t-375 -127t-313 121q-191 -191 -419 -94q-182 80 -264 262q-48 106 -48 237q20 199 151 328t319 129t632 -47v-584
q0 -78 16 -110t63 -32q92 1 156 46q84 58 82 250q0 352 -222 568q-221 216 -573 216t-583 -225t-231 -561t209 -559q210 -223 548 -226q207 0 555 78l25 -123q-344 -86 -580 -86q-399 0 -647 260t-248 656t269 656q269 261 683 261z" />
    <glyph glyph-name="A" unicode="A" horiz-adv-x="1624" 
d="M813 891l-125 -356h248zM551 154l-53 -154h-498l590 1401h444l590 -1401h-498l-53 154h-522z" />
    <glyph glyph-name="B" unicode="B" horiz-adv-x="1323" 
d="M694 346q64 0 98 35t34 86t-34 79t-92 27h-139v-225q69 -2 133 -2zM684 1055h-123v-228h121q57 0 91 34t34 86t-34 80t-89 28zM768 -14q-236 0 -686 14v1393q440 14 665 14t365 -101t141 -270q-1 -119 -59 -214t-158 -128q117 -31 187 -121t69 -196q0 -179 -144 -285
t-380 -106z" />
    <glyph glyph-name="C" unicode="C" horiz-adv-x="1431" 
d="M886 985q-138 0 -226 -79t-89 -209q0 -130 87 -209t231 -78q92 0 442 49l68 -412q-307 -76 -553 -76q-358 0 -577 200q-218 199 -218 525t218 526t575 199q246 1 557 -75l-70 -414q-307 53 -445 53z" />
    <glyph glyph-name="D" unicode="D" horiz-adv-x="1486" 
d="M561 397h123q121 0 193 80t71 219q0 139 -71 219q-72 80 -191 80q-84 0 -125 -2v-596zM643 1407q373 0 583 -185q210 -184 210 -524t-207 -526t-565 -186q-209 0 -582 14v1393q373 14 561 14z" />
    <glyph glyph-name="E" unicode="E" horiz-adv-x="1263" 
d="M561 883h531v-369h-531v-125h631v-389h-1110v1393h1110v-389h-631v-121z" />
    <glyph glyph-name="F" unicode="F" horiz-adv-x="1171" 
d="M561 825h500v-419h-500v-406h-479v1393h1079v-400h-600v-168z" />
    <glyph glyph-name="G" unicode="G" horiz-adv-x="1568" 
d="M1477 842v-733q-418 -139 -639 -140q-354 0 -571 200q-216 199 -216 527t205 528t541 199q287 0 606 -77l-68 -396q-297 45 -481 45q-133 0 -214 -82t-81 -217t81 -217t213 -82t271 33v76h-362v336h715z" />
    <glyph glyph-name="H" unicode="H" horiz-adv-x="1517" 
d="M1436 0h-480v467h-395v-467h-479v1393h479v-512h395v512h480v-1393z" />
    <glyph glyph-name="I" unicode="I" horiz-adv-x="622" 
d="M551 1393v-1393h-479v1393h479z" />
    <glyph glyph-name="J" unicode="J" horiz-adv-x="1136" 
d="M1075 1393v-758q0 -666 -583 -666q-250 0 -486 105l92 403q229 -59 351 -59q79 0 109 50t30 146v779h487z" />
    <glyph glyph-name="K" unicode="K" horiz-adv-x="1538" 
d="M561 406v-406h-479v1393h479v-523h4l350 523h560l-455 -652l518 -741h-582l-258 406h-137z" />
    <glyph glyph-name="L" unicode="L" horiz-adv-x="1202" 
d="M1171 0h-1089v1393h479v-983h610v-410z" />
    <glyph glyph-name="M" unicode="M" horiz-adv-x="1916" 
d="M1366 483l-272 -483h-271l-272 483l-27 -483h-463l60 1393h399l438 -715l439 715h399l59 -1393h-462z" />
    <glyph glyph-name="N" unicode="N" horiz-adv-x="1552" 
d="M1470 1393v-1393h-417l-492 596v-596h-479v1393h440l469 -594v594h479z" />
    <glyph glyph-name="O" unicode="O" horiz-adv-x="1609" 
d="M805 397q121 0 193 82t73 217q0 135 -73 217q-74 82 -194 82t-193 -82t-73 -217t74 -217q72 -82 193 -82zM805 1423q340 1 547 -199t207 -528t-207 -528t-547 -199q-340 0 -547 200q-207 199 -207 527t207 528t547 199z" />
    <glyph glyph-name="P" unicode="P" horiz-adv-x="1353" 
d="M561 684h121q78 0 121 40t43 116q0 176 -164 176h-121v-332zM684 1407q315 0 482 -144q167 -145 167 -417t-168 -416t-481 -143h-123v-287h-479v1393q426 14 602 14z" />
    <glyph glyph-name="Q" unicode="Q" horiz-adv-x="1609" 
d="M539 696q1 -135 73 -217t193 -82t193 82t73 217q0 135 -73 217q-74 82 -194 82t-192 -82t-73 -217zM1559 696q0 -206 -86 -366t-244 -254l307 -414h-537l-229 307q-326 10 -522 209q-196 198 -197 522q0 324 207 524t547 200t547 -200t207 -528z" />
    <glyph glyph-name="R" unicode="R" horiz-adv-x="1411" 
d="M561 705h101q184 0 184 161q0 150 -184 150h-101v-311zM561 328v-328h-479v1393q410 14 623 14q305 0 467 -134q162 -133 161 -403q0 -270 -184 -413l283 -457h-553l-177 328h-141z" />
    <glyph glyph-name="S" unicode="S" horiz-adv-x="1394" 
d="M737 1024q-111 0 -110 -55q0 -39 73 -59q23 -5 41 -9q19 -4 53 -11q415 -84 505 -277q38 -79 38 -185q-1 -215 -159 -337t-440 -122t-701 129l104 391q649 -206 647 -67q0 37 -72 56q-28 7 -61 16t-82 18q-259 58 -369 150t-110 278q0 233 161 356t466 123t604 -90
l-80 -403q-338 98 -508 98z" />
    <glyph glyph-name="T" unicode="T" horiz-adv-x="1372" 
d="M926 983v-983h-480v983h-415v410h1310v-410h-415z" />
    <glyph glyph-name="U" unicode="U" horiz-adv-x="1495" 
d="M1434 1393v-717q0 -340 -178 -523t-508 -183t-508 182q-178 184 -179 524v717h488v-717q0 -125 51 -192q52 -66 148 -66t147 66t51 192v717h488z" />
    <glyph glyph-name="V" unicode="V" horiz-adv-x="1675" 
d="M1087 0h-499l-584 1393h531l303 -772l303 772h530z" />
    <glyph glyph-name="W" unicode="W" horiz-adv-x="2197" 
d="M1788 0h-475l-213 627l-215 -627h-475l-406 1393h510l166 -631l225 631h387l226 -633l165 633h510z" />
    <glyph glyph-name="X" unicode="X" horiz-adv-x="1548" 
d="M1092 682l450 -682h-543l-225 330l-227 -330h-543l451 682l-451 711h569l201 -330l199 330h569z" />
    <glyph glyph-name="Y" unicode="Y" horiz-adv-x="1552" 
d="M1016 0h-477l-2 401l-533 992h531l239 -480l244 480h530l-532 -992v-401z" />
    <glyph glyph-name="Z" unicode="Z" horiz-adv-x="1349" 
d="M1309 410v-410h-1268v309l569 674h-528v410h1208v-310l-551 -673h570z" />
    <glyph glyph-name="bracketleft" unicode="[" horiz-adv-x="874" 
d="M543 -139h291v-414h-752v2171h752v-414h-291v-1343z" />
    <glyph glyph-name="backslash" unicode="\" horiz-adv-x="1116" 
d="M459 1573l647 -2130h-438l-648 2130h439z" />
    <glyph glyph-name="bracketright" unicode="]" horiz-adv-x="874" 
d="M41 1204v414h752v-2171h-752v414h291v1343h-291z" />
    <glyph glyph-name="asciicircum" unicode="^" horiz-adv-x="894" 
d="M446 1145l-108 -207h-328l283 457h309l283 -457h-330z" />
    <glyph glyph-name="underscore" unicode="_" horiz-adv-x="1245" 
d="M41 -190h1163v-369h-1163v369z" />
    <glyph glyph-name="grave" unicode="`" 
d="M838 1147h-426l-308 328h523z" />
    <glyph glyph-name="a" unicode="a" horiz-adv-x="1320" 
d="M653 705q-72 1 -123 -51t-51 -134t51 -131q50 -49 114 -49t134 61v295q-98 9 -125 9zM542 1055q208 0 697 -51v-1004h-461v61q-111 -92 -245 -92t-254 77q-146 93 -204 259q-34 96 -34 213q9 242 151 390t350 147z" />
    <glyph glyph-name="b" unicode="b" horiz-adv-x="1320" 
d="M668 705q-27 0 -125 -9v-346q102 -10 123 -10q74 0 125 49t51 131t-51 134t-123 51zM543 1454v-407q100 8 223 8q221 1 362 -147t152 -390q0 -145 -51 -257t-132 -172q-162 -120 -321 -120t-235 8q-77 8 -459 43v1434h461z" />
    <glyph glyph-name="c" unicode="c" horiz-adv-x="1044" 
d="M471 509q0 -81 54 -128q55 -47 155 -47t291 24l33 -327q-195 -61 -367 -62q-268 -1 -432 147t-164 393t164 395t432 151q172 -1 367 -62l-54 -327q-206 24 -288 24t-136 -50t-55 -131z" />
    <glyph glyph-name="d" unicode="d" horiz-adv-x="1320" 
d="M653 705q-72 1 -123 -51t-51 -134t51 -131t125 -49q20 0 123 10v346q-98 9 -125 9zM1239 1454v-1434q-445 -42 -529 -46q-84 -5 -160 -5t-160 30q-85 30 -166 90t-132 172t-51 257q9 242 151 389t363 148q123 0 223 -8v407h461z" />
    <glyph glyph-name="e" unicode="e" horiz-adv-x="1134" 
d="M589 721q-120 0 -145 -123h269q-4 123 -124 123zM31 516q0 244 146 392t386 147q240 0 385 -137t146 -361q0 -70 -23 -164h-612q45 -90 168 -90q172 0 379 41l51 -287q-211 -88 -430 -88q-266 0 -431 151q-165 152 -165 396z" />
    <glyph glyph-name="f" unicode="f" horiz-adv-x="925" 
d="M637 1024h285v-408h-285v-616h-459v616h-178v408h178v129q0 227 118 347t312 120q137 0 314 -27l-33 -352q-69 8 -131 8q-62 1 -92 -31t-29 -104v-90z" />
    <glyph glyph-name="g" unicode="g" horiz-adv-x="1316" 
d="M653 705q-72 1 -123 -51t-51 -134t51 -131t125 -49q20 0 123 10v346q-98 9 -125 9zM542 1055q208 0 697 -51v-1004q0 -268 -162 -403t-475 -136q-195 0 -389 62l53 319q190 -37 305 -37t159 40t48 132q-104 -8 -204 -8t-184 30q-85 30 -166 90t-132 172t-51 257
q9 242 151 390t350 147z" />
    <glyph glyph-name="h" unicode="h" horiz-adv-x="1282" 
d="M828 1055q165 0 274 -109t108 -287v-659h-460v516q0 57 -17 88t-33 35t-48 4t-120 -6v-637h-460v1454h460v-410q131 11 296 11z" />
    <glyph glyph-name="i" unicode="i" horiz-adv-x="604" 
d="M532 1024v-1024h-460v1024h460zM300 1112q-105 0 -179 71t-74 175t74 175t179 71t180 -71t75 -175t-75 -175t-180 -71z" />
    <glyph glyph-name="j" unicode="j" horiz-adv-x="643" 
d="M563 1024v-963q0 -294 -94 -400t-265 -139q-97 -19 -227 -22l-18 363q61 9 80 19q19 8 29 14t22 28t12 43v1057h461zM331 1604q105 0 180 -71t75 -175t-75 -175t-180 -71t-179 71t-74 175t74 175t179 71z" />
    <glyph glyph-name="k" unicode="k" horiz-adv-x="1343" 
d="M543 717h2l229 307h506l-319 -428l372 -596h-520l-176 299h-94v-299h-461v1454h461v-737z" />
    <glyph glyph-name="l" unicode="l" horiz-adv-x="624" 
d="M543 1454v-1454h-461v1454h461z" />
    <glyph glyph-name="m" unicode="m" horiz-adv-x="1908" 
d="M1428 1055q186 -1 298 -105t111 -291v-659h-461v516q0 92 -31 110q-31 17 -63 17q-33 0 -94 -4q2 -43 2 -111v-528h-461v516q0 92 -31 110q-31 17 -63 17q-33 0 -92 -4v-639h-461v1001q465 53 709 54q94 0 172 -31q279 31 465 31z" />
    <glyph glyph-name="n" unicode="n" horiz-adv-x="1292" 
d="M827 1055q176 0 285 -109t109 -287v-659h-461v516q0 57 -17 88q-16 31 -32 35t-48 4t-120 -6v-637h-461v1004q493 51 745 51z" />
    <glyph glyph-name="o" unicode="o" horiz-adv-x="1257" 
d="M629 338q74 0 126 49t52 126t-52 125t-126 48t-126 -48t-52 -125t52 -126t126 -49zM629 1055q258 0 423 -150q165 -149 165 -391t-165 -394t-423 -151q-258 0 -423 152q-165 151 -165 393t165 392t423 149z" />
    <glyph glyph-name="p" unicode="p" horiz-adv-x="1320" 
d="M666 340q74 0 125 49t51 131t-51 133t-123 52q-27 0 -125 -9v-346q103 -10 123 -10zM766 1055q221 1 362 -147t152 -390q0 -145 -51 -257t-132 -172q-162 -120 -333 -120q-117 0 -221 8v-407h-461v1434q418 51 684 51z" />
    <glyph glyph-name="q" unicode="q" horiz-adv-x="1320" 
d="M655 340q20 0 123 10v346q-98 8 -125 9q-72 1 -123 -51t-51 -134t51 -131t125 -49zM555 1055q266 0 684 -51v-1434h-461v407q-104 -8 -204 -8t-184 30q-85 30 -166 90t-132 172t-51 257q9 242 151 390t363 147z" />
    <glyph glyph-name="r" unicode="r" horiz-adv-x="890" 
d="M860 1040v-438q-96 0 -317 -12v-590h-461v975q364 65 778 65z" />
    <glyph glyph-name="s" unicode="s" horiz-adv-x="1075" 
d="M498 287q72 0 73 17q0 17 -16 24q-15 6 -27 9t-38 8t-46 11q-194 47 -278 116t-84 216q0 182 123 276t357 95q234 0 468 -68l-63 -325q-256 78 -373 77q-63 0 -64 -28q0 -18 18 -23q18 -6 105 -23q160 -31 272 -110q111 -79 110 -240t-122 -255t-333 -94t-539 96l82 313
q303 -92 375 -92z" />
    <glyph glyph-name="t" unicode="t" horiz-adv-x="1007" 
d="M166 457v159h-156v408h156v307h461v-307h286v-408h-286v-120q0 -115 104 -115q11 0 197 18l39 -368q-193 -61 -394 -61t-304 124q-103 125 -103 363z" />
    <glyph glyph-name="u" unicode="u" horiz-adv-x="1292" 
d="M1210 1024v-1010q-395 -31 -745 -30q-174 0 -284 104t-109 291v645h460v-553q0 -90 29 -109q29 -18 65 -18t124 6v674h460z" />
    <glyph glyph-name="v" unicode="v" horiz-adv-x="1329" 
d="M885 0h-441l-436 1024h484l174 -475l172 475h483z" />
    <glyph glyph-name="w" unicode="w" horiz-adv-x="1730" 
d="M1417 0h-436l-115 414l-116 -414h-437l-305 1024h461l106 -453l121 453h338l123 -449l105 449h460z" />
    <glyph glyph-name="x" unicode="x" horiz-adv-x="1255" 
d="M932 502l315 -502h-473l-147 236l-146 -236h-473l316 502l-316 522h500l121 -193l119 193h499z" />
    <glyph glyph-name="y" unicode="y" horiz-adv-x="1427" 
d="M1419 1024l-624 -1452h-492l182 438l-477 1014h508l205 -453l188 453h510z" />
    <glyph glyph-name="z" unicode="z" horiz-adv-x="1105" 
d="M1055 379v-379h-1004v238l371 407h-371v379h983v-238l-358 -407h379z" />
    <glyph glyph-name="braceleft" unicode="{" horiz-adv-x="815" 
d="M657 1112v-274q0 -229 -247 -314q248 -88 247 -315v-275q0 -51 25 -66t92 -15v-445q-575 0 -575 467v377q0 51 -46 83t-112 32v313q66 0 112 32t46 83v376q0 467 575 467v-444q-68 0 -92 -16t-25 -66z" />
    <glyph glyph-name="bar" unicode="|" horiz-adv-x="710" 
d="M547 1573v-1880h-383v1880h383z" />
    <glyph glyph-name="braceright" unicode="}" horiz-adv-x="815" 
d="M158 838v274q0 50 -25 66t-92 16v444q575 0 575 -467v-376q0 -51 46 -83t112 -32v-313q-66 0 -112 -32t-46 -83v-377q0 -467 -575 -467v445q69 0 93 15t24 66v275q0 227 248 315q-248 85 -248 314z" />
    <glyph glyph-name="asciitilde" unicode="~" horiz-adv-x="1105" 
d="M711 901h374q0 -159 -59 -267q-105 -192 -328 -178q-94 5 -172 50l-45 26q-86 53 -86 -59h-375q0 129 39 223t101 142q125 99 284 73q74 -12 136 -47l45 -24q86 -45 86 61z" />
    <glyph glyph-name="exclamdown" unicode="&#xa1;" horiz-adv-x="622" 
d="M113 524h438l41 -893h-520zM335 1055q97 1 166 -63t69 -158t-70 -160q-68 -64 -164 -64t-165 64t-69 158q0 95 68 159t165 64z" />
    <glyph glyph-name="cent" unicode="&#xa2;" horiz-adv-x="1034" 
d="M786 -199h-321v207q-197 43 -311 181t-113 340q0 202 114 342t310 186v211h321v-205q100 -14 218 -49l-54 -328q-207 25 -292 25q-85 -1 -136 -51t-51 -130t51 -128t155 -48t294 25l33 -328q-117 -35 -218 -49v-201z" />
    <glyph glyph-name="sterling" unicode="&#xa3;" horiz-adv-x="1284" 
d="M1214 0h-1163v389h101v141h-101v308h101v137q0 195 152 313t403 119q190 0 421 -51l-55 -359q-250 41 -297 41q-174 0 -174 -149v-51h326v-308h-326v-141h612v-389z" />
    <glyph glyph-name="yen" unicode="&#xa5;" horiz-adv-x="1552" 
d="M1386 588v-207h-370v-80h370v-207h-370v-94h-477v94h-373v207h371v80h-371v207h270l-432 805h531l239 -480l244 480h530l-432 -805h270z" />
    <glyph glyph-name="brokenbar" unicode="&#xa6;" horiz-adv-x="710" 
d="M547 -309h-383v835h383v-835zM547 735h-383v836h383v-836z" />
    <glyph glyph-name="section" unicode="&#xa7;" horiz-adv-x="1277" 
d="M596 627l-66 22q-70 -83 23 -143q53 -35 129 -57l66 -23q70 83 -23 143q-53 35 -129 58zM164 1030q0 182 141 288t390 105q249 0 435 -110l-124 -326q-203 109 -342 109q-82 0 -82 -41q0 -49 204 -113q122 -37 187 -66q65 -30 132 -74q132 -88 132 -272q0 -185 -180 -297
q57 -78 57 -188q0 -181 -141 -287t-390 -106t-436 110l125 326q203 -109 342 -108q82 0 82 40q0 51 -204 114t-328 145q-123 82 -123 267t180 296q-57 78 -57 188z" />
    <glyph glyph-name="dieresis" unicode="&#xa8;" 
d="M1108 1350q0 -94 -68 -156t-164 -64q-96 0 -162 62q-67 62 -67 158q0 94 67 158t163 63q95 1 163 -63t68 -158zM580 1350q0 -94 -68 -156t-164 -64q-96 0 -163 62t-67 158q0 94 68 158q66 64 162 63q96 1 164 -63t68 -158z" />
    <glyph glyph-name="copyright" unicode="&#xa9;" horiz-adv-x="1593" 
d="M836 813q-62 0 -93 -32t-31 -83t32 -81q30 -29 96 -29t188 14l21 -207q-125 -37 -232 -37q-176 0 -275 89q-100 89 -100 250t100 253t275 92q109 1 232 -38l-33 -207q-118 16 -180 16zM797 1202q-219 0 -367 -145t-149 -361q0 -216 148 -360q147 -146 367 -146t370 146
t149 360q1 214 -149 360t-369 146zM797 1423q319 0 532 -208t213 -519t-213 -519t-532 -208t-533 208q-213 208 -213 519t213 519q214 208 533 208z" />
    <glyph glyph-name="ordfeminine" unicode="&#xaa;" horiz-adv-x="940" 
d="M391 909q0 -41 52 -41t83 2v86l-84 -4q-51 -2 -51 -43zM858 1143v-451q-272 -37 -502 -37q-139 0 -217 68t-78 168t70 145t211 54l184 10v8q0 45 -67 45q-133 0 -301 -20l-37 258q227 30 384 33q157 2 255 -74t98 -207z" />
    <glyph glyph-name="guillemotleft" unicode="&#xab;" horiz-adv-x="1433" 
d="M1352 258l-273 -240l-424 496l424 496l273 -240l-209 -256zM737 258l-272 -240l-424 496l424 496l272 -240l-209 -256z" />
    <glyph glyph-name="registered" unicode="&#xae;" horiz-adv-x="1593" 
d="M868 784q0 24 -17 40t-51 16t-55 -2v-111h60q29 0 46 17t17 40zM809 1024q305 0 305 -242q0 -117 -92 -180l139 -213h-274l-90 160h-52v-160h-239v629q176 6 303 6zM797 1202q-219 0 -367 -145t-149 -361q0 -216 148 -360q147 -146 367 -146t370 146t149 360
q1 214 -149 360t-369 146zM797 1423q319 0 532 -208t213 -519t-213 -519t-532 -208t-533 208q-213 208 -213 519t213 519q214 208 533 208z" />
    <glyph glyph-name="macron" unicode="&#xaf;" 
d="M922 1460v-321h-615v321h615z" />
    <glyph glyph-name="degree" unicode="&#xb0;" horiz-adv-x="929" 
d="M465 924q59 0 95 36t36 92q0 58 -36 94t-95 36t-95 -36t-36 -93t36 -93t95 -36zM465 1423q167 0 275 -105t108 -265q0 -159 -109 -265t-275 -106t-274 105t-108 265t108 266q109 105 275 105z" />
    <glyph glyph-name="plusminus" unicode="&#xb1;" horiz-adv-x="1314" 
d="M1130 371v-291h-946v291h946zM1130 674h-321v-225h-303v225h-322v291h322v225h303v-225h321v-291z" />
    <glyph glyph-name="twosuperior" unicode="&#xb2;" horiz-adv-x="759" 
d="M739 551h-694v199l320 237q63 45 63 94q0 70 -90 70t-270 -55l-48 243q205 72 371 72t251 -77t85 -185t-40 -174t-136 -137l-49 -37h237v-250z" />
    <glyph glyph-name="threesuperior" unicode="&#xb3;" horiz-adv-x="778" 
d="M768 831q0 -143 -93 -220t-267 -77t-398 70l70 225q203 -59 306 -59t103 64q0 49 -83 49h-189v108l160 154h-320v250h705v-144l-182 -192l8 -2q180 -57 180 -226z" />
    <glyph glyph-name="acute" unicode="&#xb4;" 
d="M1124 1475l-307 -328h-426l211 328h522z" />
    <glyph glyph-name="paragraph" unicode="&#xb6;" horiz-adv-x="1544" 
d="M694 698v412l-143 2q-82 0 -139 -54q-58 -54 -58 -148t58 -153q58 -58 139 -59h143zM588 1411q156 0 488 -6t397 -12v-1622h-343v1329q-16 2 -47 2t-47 2v-1333h-342v632h-106q-238 1 -392 143t-155 368t153 362t394 135z" />
    <glyph glyph-name="periodcentered" unicode="&#xb7;" horiz-adv-x="716" 
d="M358 305q-106 0 -181 71t-75 175t75 174t181 70t182 -71t74 -174q0 -103 -75 -174t-181 -71z" />
    <glyph glyph-name="cedilla" unicode="&#xb8;" 
d="M694 -438h-303l88 348h379z" />
    <glyph glyph-name="onesuperior" unicode="&#xb9;" horiz-adv-x="684" 
d="M664 809v-258h-607v258h160v272l-143 -30l-54 235l377 107h111v-584h156z" />
    <glyph glyph-name="ordmasculine" unicode="&#xba;" horiz-adv-x="917" 
d="M458 944q40 0 66 28t27 70q0 42 -28 68q-29 27 -67 27t-64 -27t-26 -70q0 -44 26 -70t66 -26zM459 1423q184 0 296 -104q111 -105 111 -277t-112 -278t-295 -106q-184 0 -296 106t-112 278t112 276t296 105z" />
    <glyph glyph-name="guillemotright" unicode="&#xbb;" horiz-adv-x="1433" 
d="M696 770l273 240l424 -496l-424 -496l-273 240l209 256zM82 770l272 240l424 -496l-424 -496l-272 240l209 256z" />
    <glyph glyph-name="onequarter" unicode="&#xbc;" horiz-adv-x="1921" 
d="M1499 362v193l-166 -193h166zM1860 362v-221h-99v-141h-262v141h-487v199l458 502h291v-480h99zM1583 1393l-967 -1393h-213l967 1393h213zM119 551v258h160v272l-144 -30l-53 235l377 107h110v-584h156v-258h-606z" />
    <glyph glyph-name="onehalf" unicode="&#xbd;" horiz-adv-x="1978" 
d="M1917 250v-250h-694v199l319 237q63 45 64 94q0 70 -90 70t-271 -55l-47 243q205 72 371 72t251 -77t85 -185t-40 -174t-136 -137l-50 -37h238zM1573 1393l-967 -1393h-213l967 1393h213zM109 551v258h159v272l-143 -30l-53 235l377 107h110v-584h156v-258h-606z" />
    <glyph glyph-name="threequarters" unicode="&#xbe;" horiz-adv-x="1939" 
d="M1516 362v193l-166 -193h166zM1778 362h98v-221h-98v-141h-262v141h-488v199l459 502h291v-480zM631 0h-213l966 1393h213zM819 831q0 -143 -93 -220t-267 -77t-398 70l70 225q203 -59 306 -59t104 64q0 49 -84 49h-189v108l160 154h-319v250h704v-144l-182 -192l8 -2
q180 -57 180 -226z" />
    <glyph glyph-name="questiondown" unicode="&#xbf;" horiz-adv-x="1017" 
d="M575 -399q-251 1 -403 119t-152 302t106 311q106 126 284 126h4l-2 86h401l37 -363h-229q-180 0 -181 -104q0 -109 168 -109q84 0 334 41l55 -358q-232 -51 -422 -51zM598 610q-96 0 -165 65t-69 159t69 157t166 63t165 -62q68 -64 68 -160t-70 -158q-68 -64 -164 -64z
" />
    <glyph glyph-name="Agrave" unicode="&#xc0;" horiz-adv-x="1624" 
d="M813 891l-125 -356h248zM551 154l-53 -154h-498l590 1401h444l590 -1401h-498l-53 154h-522zM1034 1495h-426l-307 328h522z" />
    <glyph glyph-name="Aacute" unicode="&#xc1;" horiz-adv-x="1624" 
d="M813 891l-125 -356h248zM551 154l-53 -154h-498l590 1401h444l590 -1401h-498l-53 154h-522zM1321 1823l-307 -328h-426l211 328h522z" />
    <glyph glyph-name="Acircumflex" unicode="&#xc2;" horiz-adv-x="1624" 
d="M813 891l-125 -356h248zM551 154l-53 -154h-498l590 1401h444l590 -1401h-498l-53 154h-522zM811 1606l-86 -111h-385l272 328h396l272 -328h-385z" />
    <glyph glyph-name="Atilde" unicode="&#xc3;" horiz-adv-x="1624" 
d="M813 891l-125 -356h248zM551 154l-53 -154h-498l590 1401h444l590 -1401h-498l-53 154h-522zM977 1872h317q0 -135 -50 -227q-88 -162 -278 -152q-81 4 -147 43l-37 23q-74 43 -73 -52h-318q0 135 49 225t124 122q75 30 155 27t147 -40l37 -22q74 -39 74 53z" />
    <glyph glyph-name="Adieresis" unicode="&#xc4;" horiz-adv-x="1624" 
d="M813 891l-125 -356h248zM551 154l-53 -154h-498l590 1401h444l590 -1401h-498l-53 154h-522zM1305 1698q0 -94 -68 -156t-164 -63q-96 0 -163 62q-66 63 -66 157t66 157q67 63 163 63t164 -62q68 -64 68 -158zM545 1479q-96 0 -163 62q-67 63 -67 157t67 157t163 63
t164 -62q67 -64 67 -158t-67 -157q-68 -62 -164 -62z" />
    <glyph glyph-name="Aring" unicode="&#xc5;" horiz-adv-x="1624" 
d="M813 891l-125 -356h248zM551 154l-53 -154h-498l590 1401h444l590 -1401h-498l-53 154h-522zM809 1649q47 -1 76 27t28 73q0 45 -28 73q-29 28 -76 28t-76 -28t-29 -73t29 -73q29 -27 76 -27zM809 2040q137 0 226 -81t89 -210t-89 -210t-226 -81t-225 81t-88 210t88 210
t225 81z" />
    <glyph glyph-name="AE" unicode="&#xc6;" horiz-adv-x="2295" 
d="M1135 532v441l-275 -441h275zM1614 883h530v-369h-530v-125h631v-389h-1110v160h-506l-101 -160h-528l903 1393h1342v-389h-631v-121z" />
    <glyph glyph-name="Ccedilla" unicode="&#xc7;" horiz-adv-x="1431" 
d="M776 -438h-303l88 348h379zM886 985q-138 0 -226 -79t-89 -209q0 -130 87 -209t231 -78q92 0 442 49l68 -412q-307 -76 -553 -76q-358 0 -577 200q-218 199 -218 525t218 526t575 199q246 1 557 -75l-70 -414q-307 53 -445 53z" />
    <glyph glyph-name="Egrave" unicode="&#xc8;" horiz-adv-x="1263" 
d="M561 883h531v-369h-531v-125h631v-389h-1110v1393h1110v-389h-631v-121zM846 1495h-426l-307 328h522z" />
    <glyph glyph-name="Eacute" unicode="&#xc9;" horiz-adv-x="1263" 
d="M561 883h531v-369h-531v-125h631v-389h-1110v1393h1110v-389h-631v-121zM1133 1823l-308 -328h-426l211 328h523z" />
    <glyph glyph-name="Ecircumflex" unicode="&#xca;" horiz-adv-x="1263" 
d="M561 883h531v-369h-531v-125h631v-389h-1110v1393h1110v-389h-631v-121zM623 1606l-86 -111h-385l272 328h395l273 -328h-385z" />
    <glyph glyph-name="Edieresis" unicode="&#xcb;" horiz-adv-x="1263" 
d="M561 883h531v-369h-531v-125h631v-389h-1110v1393h1110v-389h-631v-121zM885 1479q-96 0 -163 62q-67 63 -67 157t67 157t163 63t164 -62q67 -64 67 -158t-67 -157q-68 -62 -164 -62zM588 1698q0 -94 -68 -156t-164 -63q-96 0 -162 62q-66 63 -67 157q0 94 67 157
q66 63 162 63t164 -62q68 -64 68 -158z" />
    <glyph glyph-name="Igrave" unicode="&#xcc;" horiz-adv-x="622" 
d="M551 1393v-1393h-479v1393h479zM535 1495h-426l-308 328h523z" />
    <glyph glyph-name="Iacute" unicode="&#xcd;" horiz-adv-x="622" 
d="M551 1393v-1393h-479v1393h479zM821 1823l-307 -328h-426l211 328h522z" />
    <glyph glyph-name="Icircumflex" unicode="&#xce;" horiz-adv-x="622" 
d="M551 1393v-1393h-479v1393h479zM311 1606l-86 -111h-385l273 328h395l272 -328h-385z" />
    <glyph glyph-name="Idieresis" unicode="&#xcf;" horiz-adv-x="622" 
d="M551 1393v-1393h-479v1393h479zM805 1698q0 -94 -68 -156t-164 -63q-97 0 -163 62q-66 63 -66 157t67 157t163 63t163 -62q68 -64 68 -158zM45 1479q-96 0 -163 62q-66 63 -66 157t66 157q67 63 163 63t164 -62q67 -64 67 -158t-67 -157q-68 -62 -164 -62z" />
    <glyph glyph-name="Eth" unicode="&#xd0;" horiz-adv-x="1486" 
d="M561 397h123q121 0 193 80t71 219q0 139 -71 219q-72 80 -191 80q-84 0 -125 -2v-123h193v-381h-193v-92zM643 1407q373 0 583 -185q210 -184 210 -524t-207 -526t-565 -186q-209 0 -582 14v489h-68v381h68v523q373 14 561 14z" />
    <glyph glyph-name="Ntilde" unicode="&#xd1;" horiz-adv-x="1552" 
d="M1470 1393v-1393h-417l-492 596v-596h-479v1393h440l469 -594v594h479zM942 1872h318q0 -135 -50 -227q-89 -161 -279 -152q-81 4 -147 43l-36 23q-74 43 -74 -52h-318q0 135 50 225t124 122q74 30 154 27t147 -40l37 -22q74 -39 74 53z" />
    <glyph glyph-name="Ograve" unicode="&#xd2;" horiz-adv-x="1609" 
d="M805 397q121 0 193 82t73 217q0 135 -73 217q-74 82 -194 82t-193 -82t-73 -217t74 -217q72 -82 193 -82zM805 1423q340 1 547 -199t207 -528t-207 -528t-547 -199q-340 0 -547 200q-207 199 -207 527t207 528t547 199zM1028 1495h-426l-307 328h522z" />
    <glyph glyph-name="Oacute" unicode="&#xd3;" horiz-adv-x="1609" 
d="M805 397q121 0 193 82t73 217q0 135 -73 217q-74 82 -194 82t-193 -82t-73 -217t74 -217q72 -82 193 -82zM805 1423q340 1 547 -199t207 -528t-207 -528t-547 -199q-340 0 -547 200q-207 199 -207 527t207 528t547 199zM1315 1823l-307 -328h-426l211 328h522z" />
    <glyph glyph-name="Ocircumflex" unicode="&#xd4;" horiz-adv-x="1609" 
d="M805 397q121 0 193 82t73 217q0 135 -73 217q-74 82 -194 82t-193 -82t-73 -217t74 -217q72 -82 193 -82zM805 1423q340 1 547 -199t207 -528t-207 -528t-547 -199q-340 0 -547 200q-207 199 -207 527t207 528t547 199zM805 1606l-86 -111h-385l272 328h395l273 -328
h-385z" />
    <glyph glyph-name="Otilde" unicode="&#xd5;" horiz-adv-x="1609" 
d="M805 397q121 0 193 82t73 217q0 135 -73 217q-74 82 -194 82t-193 -82t-73 -217t74 -217q72 -82 193 -82zM805 1423q340 1 547 -199t207 -528t-207 -528t-547 -199q-340 0 -547 200q-207 199 -207 527t207 528t547 199zM971 1872h317q0 -135 -50 -227t-124 -124t-155 -28
t-146 43l-37 23q-74 43 -74 -52h-317q0 135 49 225t124 122q75 30 155 27t147 -40l37 -22q74 -39 74 53z" />
    <glyph glyph-name="Odieresis" unicode="&#xd6;" horiz-adv-x="1609" 
d="M805 397q121 0 193 82t73 217q0 135 -73 217q-74 82 -194 82t-193 -82t-73 -217t74 -217q72 -82 193 -82zM805 1423q340 1 547 -199t207 -528t-207 -528t-547 -199q-340 0 -547 200q-207 199 -207 527t207 528t547 199zM1067 1479q-96 0 -163 62q-66 63 -66 157t66 157
q67 63 163 63t164 -62q67 -64 67 -158t-67 -157q-68 -62 -164 -62zM770 1698q0 -94 -68 -156t-163 -63q-96 0 -163 62q-67 63 -67 157t67 157t163 63q95 0 163 -62q68 -64 68 -158z" />
    <glyph glyph-name="multiply" unicode="&#xd7;" 
d="M1096 381l-207 -207l-275 275l-274 -275l-207 207l275 274l-275 275l207 207l274 -275l275 275l207 -207l-275 -275z" />
    <glyph glyph-name="Oslash" unicode="&#xd8;" horiz-adv-x="1609" 
d="M805 397q121 0 193 82t73 217q0 84 -27 140l-348 -416q50 -23 109 -23zM539 696q0 -78 24 -139l350 418q-55 20 -108 20q-121 0 -193 -82t-73 -217zM1559 692q0 -324 -207 -524t-547 -199q-229 0 -406 97l-77 -93l-146 123l72 84q-197 200 -197 522t207 522t547 199
q227 0 403 -96l88 105l146 -123l-80 -97q197 -196 197 -520z" />
    <glyph glyph-name="Ugrave" unicode="&#xd9;" horiz-adv-x="1495" 
d="M1434 1393v-717q0 -340 -178 -523t-508 -183t-508 182q-178 184 -179 524v717h488v-717q0 -125 51 -192q52 -66 148 -66t147 66t51 192v717h488zM971 1495h-426l-307 328h522z" />
    <glyph glyph-name="Uacute" unicode="&#xda;" horiz-adv-x="1495" 
d="M1434 1393v-717q0 -340 -178 -523t-508 -183t-508 182q-178 184 -179 524v717h488v-717q0 -125 51 -192q52 -66 148 -66t147 66t51 192v717h488zM1257 1823l-307 -328h-426l211 328h522z" />
    <glyph glyph-name="Ucircumflex" unicode="&#xdb;" horiz-adv-x="1495" 
d="M1434 1393v-717q0 -340 -178 -523t-508 -183t-508 182q-178 184 -179 524v717h488v-717q0 -125 51 -192q52 -66 148 -66t147 66t51 192v717h488zM748 1606l-86 -111h-386l273 328h395l273 -328h-386z" />
    <glyph glyph-name="Udieresis" unicode="&#xdc;" horiz-adv-x="1495" 
d="M1434 1393v-717q0 -340 -178 -523t-508 -183t-508 182q-178 184 -179 524v717h488v-717q0 -125 51 -192q52 -66 148 -66t147 66t51 192v717h488zM1010 1479q-96 0 -163 62q-67 63 -67 157t67 157t163 63t164 -62q68 -64 68 -158t-68 -157q-68 -62 -164 -62zM713 1698
q0 -94 -68 -156t-164 -63q-96 0 -163 62q-66 63 -66 157t66 157q67 63 163 63t164 -62q68 -64 68 -158z" />
    <glyph glyph-name="Yacute" unicode="&#xdd;" horiz-adv-x="1552" 
d="M1016 0h-477l-2 401l-533 992h531l239 -480l244 480h530l-532 -992v-401zM1286 1823l-307 -328h-426l211 328h522z" />
    <glyph glyph-name="Thorn" unicode="&#xde;" horiz-adv-x="1363" 
d="M561 541h121q78 0 121 40t43 115q0 176 -164 176h-121v-331zM561 1264h123q315 0 482 -144t167 -418q0 -272 -168 -415t-481 -144h-123v-143h-479v1393h479v-129z" />
    <glyph glyph-name="germandbls" unicode="&#xdf;" horiz-adv-x="1443" 
d="M657 1620v-371q-117 0 -116 -114v-111h835v-227l-246 -342q137 -21 216 -137q78 -116 77 -273q0 -231 -144 -358t-411 -127q-145 0 -311 51l51 344q164 -27 241 -27t116 39t39 93t-48 88t-127 34h-159v172l176 283h-305v-637h-459v1153q0 467 575 467z" />
    <glyph glyph-name="agrave" unicode="&#xe0;" horiz-adv-x="1320" 
d="M653 705q-72 1 -123 -51t-51 -134t51 -131q50 -49 114 -49t134 61v295q-98 9 -125 9zM542 1055q208 0 697 -51v-1004h-461v61q-111 -92 -245 -92t-254 77q-146 93 -204 259q-34 96 -34 213q9 242 151 390t350 147zM905 1163h-426l-307 328h522z" />
    <glyph glyph-name="aacute" unicode="&#xe1;" horiz-adv-x="1320" 
d="M653 705q-72 1 -123 -51t-51 -134t51 -131q50 -49 114 -49t134 61v295q-98 9 -125 9zM542 1055q208 0 697 -51v-1004h-461v61q-111 -92 -245 -92t-254 77q-146 93 -204 259q-34 96 -34 213q9 242 151 390t350 147zM1212 1491l-307 -328h-426l211 328h522z" />
    <glyph glyph-name="acircumflex" unicode="&#xe2;" horiz-adv-x="1320" 
d="M653 705q-72 1 -123 -51t-51 -134t51 -131q50 -49 114 -49t134 61v295q-98 9 -125 9zM542 1055q208 0 697 -51v-1004h-461v61q-111 -92 -245 -92t-254 77q-146 93 -204 259q-34 96 -34 213q9 242 151 390t350 147zM702 1274l-86 -111h-385l273 328h395l272 -328h-385z
" />
    <glyph glyph-name="atilde" unicode="&#xe3;" horiz-adv-x="1320" 
d="M653 705q-72 1 -123 -51t-51 -134t51 -131q50 -49 114 -49t134 61v295q-98 9 -125 9zM542 1055q208 0 697 -51v-1004h-461v61q-111 -92 -245 -92t-254 77q-146 93 -204 259q-34 96 -34 213q9 242 151 390t350 147zM846 1516h299q0 -127 -47 -213q-84 -154 -264 -144
q-76 4 -138 41l-34 21q-70 41 -70 -50h-299q0 127 47 213q81 148 262 141q76 -3 139 -38l35 -21q70 -36 70 50z" />
    <glyph glyph-name="adieresis" unicode="&#xe4;" horiz-adv-x="1320" 
d="M653 705q-72 1 -123 -51t-51 -134t51 -131q50 -49 114 -49t134 61v295q-98 9 -125 9zM542 1055q208 0 697 -51v-1004h-461v61q-111 -92 -245 -92t-254 77q-146 93 -204 259q-34 96 -34 213q9 242 151 390t350 147zM735 1366q0 94 67 158t163 63q95 0 163 -63
q68 -64 68 -158t-68 -156t-164 -63q-96 0 -162 62q-67 63 -67 157zM436 1587q96 0 164 -63q68 -64 68 -158t-68 -156t-164 -63q-96 0 -163 62q-67 63 -67 157t67 158q67 63 163 63z" />
    <glyph glyph-name="aring" unicode="&#xe5;" horiz-adv-x="1320" 
d="M653 705q-72 1 -123 -51t-51 -134t51 -131q50 -49 114 -49t134 61v295q-98 9 -125 9zM542 1055q208 0 697 -51v-1004h-461v61q-111 -92 -245 -92t-254 77q-146 93 -204 259q-34 96 -34 213q9 242 151 390t350 147zM700 1358q47 0 76 28t29 72q0 45 -29 73t-76 28
q-48 0 -76 -28t-28 -73q0 -44 28 -72t76 -28zM700 1749q136 0 226 -81t90 -210t-89 -210t-227 -81t-225 81q-88 81 -88 210t88 210t225 81z" />
    <glyph glyph-name="ae" unicode="&#xe6;" horiz-adv-x="1779" 
d="M465 313q0 -63 98 -63q66 0 168 14q-31 63 -41 121h-139q-86 0 -86 -72zM1234 721q-120 0 -144 -123h268q-4 123 -124 123zM1739 557q0 -70 -23 -164h-612q44 -90 192 -90t355 41l51 -287q-210 -88 -406 -88t-331 66q-285 -66 -496 -66t-319 93t-109 245q0 151 94 225
t314 72l206 -2q-10 61 -30 82q-20 20 -74 21q-133 0 -375 -31l-47 334q313 43 489 45t297 -74q127 76 295 76q238 1 384 -137t145 -361z" />
    <glyph glyph-name="ccedilla" unicode="&#xe7;" horiz-adv-x="1044" 
d="M578 -438h-304l88 348h379zM471 509q0 -81 54 -128q55 -47 155 -47t291 24l33 -327q-195 -61 -367 -62q-268 -1 -432 147t-164 393t164 395t432 151q172 -1 367 -62l-54 -327q-206 24 -288 24t-136 -50t-55 -131z" />
    <glyph glyph-name="egrave" unicode="&#xe8;" horiz-adv-x="1134" 
d="M589 721q-120 0 -145 -123h269q-4 123 -124 123zM31 516q0 244 146 392t386 147q240 0 385 -137t146 -361q0 -70 -23 -164h-612q45 -90 168 -90q172 0 379 41l51 -287q-211 -88 -430 -88q-266 0 -431 151q-165 152 -165 396zM770 1147h-426l-307 328h522z" />
    <glyph glyph-name="eacute" unicode="&#xe9;" horiz-adv-x="1134" 
d="M589 721q-120 0 -145 -123h269q-4 123 -124 123zM31 516q0 244 146 392t386 147q240 0 385 -137t146 -361q0 -70 -23 -164h-612q45 -90 168 -90q172 0 379 41l51 -287q-211 -88 -430 -88q-266 0 -431 151q-165 152 -165 396zM1077 1475l-307 -328h-426l211 328h522z" />
    <glyph glyph-name="ecircumflex" unicode="&#xea;" horiz-adv-x="1134" 
d="M589 721q-120 0 -145 -123h269q-4 123 -124 123zM31 516q0 244 146 392t386 147q240 0 385 -137t146 -361q0 -70 -23 -164h-612q45 -90 168 -90q172 0 379 41l51 -287q-211 -88 -430 -88q-266 0 -431 151q-165 152 -165 396zM567 1257l-86 -110h-385l273 328h395
l272 -328h-385z" />
    <glyph glyph-name="edieresis" unicode="&#xeb;" horiz-adv-x="1134" 
d="M589 721q-120 0 -145 -123h269q-4 123 -124 123zM31 516q0 244 146 392t386 147q240 0 385 -137t146 -361q0 -70 -23 -164h-612q45 -90 168 -90q172 0 379 41l51 -287q-211 -88 -430 -88q-266 0 -431 151q-165 152 -165 396zM1061 1350q0 -94 -68 -156t-164 -64
q-97 0 -163 62t-66 158q0 94 66 158t163 63q96 1 164 -63t68 -158zM301 1571q96 1 164 -63q67 -64 67 -158t-67 -157q-68 -63 -164 -63t-163 62q-66 62 -66 158q0 94 66 158t163 63z" />
    <glyph glyph-name="igrave" unicode="&#xec;" horiz-adv-x="604" 
d="M532 1024v-1024h-460v1024h460zM506 1147h-426l-307 328h522z" />
    <glyph glyph-name="iacute" unicode="&#xed;" horiz-adv-x="604" 
d="M532 1024v-1024h-460v1024h460zM813 1475l-307 -328h-426l211 328h522z" />
    <glyph glyph-name="icircumflex" unicode="&#xee;" horiz-adv-x="604" 
d="M532 1024v-1024h-460v1024h460zM303 1257l-86 -110h-385l272 328h396l272 -328h-385z" />
    <glyph glyph-name="idieresis" unicode="&#xef;" horiz-adv-x="604" 
d="M532 1024v-1024h-460v1024h460zM797 1350q0 -94 -68 -156t-164 -64q-96 0 -163 62q-66 62 -66 158q0 94 66 158t163 63q96 1 164 -63t68 -158zM-193 1350q0 94 67 158t163 63q96 1 164 -63q67 -64 67 -158t-67 -157q-68 -63 -164 -63t-163 62q-67 64 -67 158z" />
    <glyph glyph-name="eth" unicode="&#xf0;" horiz-adv-x="1216" 
d="M607 686q-71 0 -113 -47t-43 -126q0 -79 43 -127q42 -48 114 -48t115 48t43 127t-44 126t-115 47zM1176 578q0 -287 -154 -448t-411 -161t-413 151q-156 150 -157 394q0 244 149 392q150 148 381 149q61 0 107 -21q-47 78 -88 129l-346 -125l-74 193l258 92
q-51 41 -133 113l256 86q76 -37 162 -95l213 76l73 -192l-102 -37q279 -283 279 -696z" />
    <glyph glyph-name="ntilde" unicode="&#xf1;" horiz-adv-x="1292" 
d="M827 1055q176 0 285 -109t109 -287v-659h-461v516q0 57 -17 88q-16 31 -32 35t-48 4t-120 -6v-637h-461v1004q493 51 745 51zM791 1499h299q0 -127 -48 -213q-85 -155 -264 -143q-76 4 -137 41l-35 20q-70 41 -69 -49h-299q0 127 47 213q82 149 262 140q76 -3 139 -38
l35 -20q70 -37 70 49z" />
    <glyph glyph-name="ograve" unicode="&#xf2;" horiz-adv-x="1257" 
d="M629 338q74 0 126 49t52 126t-52 125t-126 48t-126 -48t-52 -125t52 -126t126 -49zM629 1055q258 0 423 -150q165 -149 165 -391t-165 -394t-423 -151q-258 0 -423 152q-165 151 -165 393t165 392t423 149zM831 1147h-425l-308 328h523z" />
    <glyph glyph-name="oacute" unicode="&#xf3;" horiz-adv-x="1257" 
d="M629 338q74 0 126 49t52 126t-52 125t-126 48t-126 -48t-52 -125t52 -126t126 -49zM629 1055q258 0 423 -150q165 -149 165 -391t-165 -394t-423 -151q-258 0 -423 152q-165 151 -165 393t165 392t423 149zM1139 1475l-308 -328h-425l210 328h523z" />
    <glyph glyph-name="ocircumflex" unicode="&#xf4;" horiz-adv-x="1257" 
d="M629 338q74 0 126 49t52 126t-52 125t-126 48t-126 -48t-52 -125t52 -126t126 -49zM629 1055q258 0 423 -150q165 -149 165 -391t-165 -394t-423 -151q-258 0 -423 152q-165 151 -165 393t165 392t423 149zM629 1257l-86 -110h-385l272 328h395l273 -328h-385z" />
    <glyph glyph-name="otilde" unicode="&#xf5;" horiz-adv-x="1257" 
d="M629 338q74 0 126 49t52 126t-52 125t-126 48t-126 -48t-52 -125t52 -126t126 -49zM629 1055q258 0 423 -150q165 -149 165 -391t-165 -394t-423 -151q-258 0 -423 152q-165 151 -165 393t165 392t423 149zM772 1499h299q0 -127 -47 -213q-85 -155 -264 -143
q-76 4 -137 41l-35 20q-70 41 -70 -49h-299q0 127 47 213q82 150 262 140q76 -3 140 -38l34 -20q70 -37 70 49z" />
    <glyph glyph-name="odieresis" unicode="&#xf6;" horiz-adv-x="1257" 
d="M629 338q74 0 126 49t52 126t-52 125t-126 48t-126 -48t-52 -125t52 -126t126 -49zM629 1055q258 0 423 -150q165 -149 165 -391t-165 -394t-423 -151q-258 0 -423 152q-165 151 -165 393t165 392t423 149zM891 1571q96 1 164 -63q67 -64 67 -158t-67 -157
q-68 -63 -164 -63t-163 62q-66 62 -66 158q0 94 66 158t163 63zM594 1350q0 -94 -68 -156t-164 -64q-96 0 -162 62q-67 62 -67 158q0 94 67 158t163 63q95 1 163 -63t68 -158z" />
    <glyph glyph-name="divide" unicode="&#xf7;" horiz-adv-x="1396" 
d="M698 29q-86 0 -145 56t-59 139q0 84 59 140t145 56t146 -56t59 -140q1 -84 -59 -139q-60 -56 -146 -56zM184 801h1028v-291h-1028v291zM698 893q-86 0 -145 56q-59 55 -59 139t59 140t145 56t146 -56t59 -139q0 -83 -59 -140q-60 -56 -146 -56z" />
    <glyph glyph-name="oslash" unicode="&#xf8;" horiz-adv-x="1257" 
d="M629 338q74 0 126 49t52 127q0 39 -16 76l-209 -246q24 -6 47 -6zM451 514q0 -35 14 -74l203 242q-25 4 -39 4q-74 0 -126 -48t-52 -124zM1217 514q0 -242 -165 -394t-423 -151q-164 0 -303 68l-111 -131l-117 98l103 123q-160 149 -160 389t165 390t423 149
q166 0 297 -66l104 125l117 -98l-94 -113q164 -147 164 -389z" />
    <glyph glyph-name="ugrave" unicode="&#xf9;" horiz-adv-x="1292" 
d="M1210 1024v-1010q-395 -31 -745 -30q-174 0 -284 104t-109 291v645h460v-553q0 -90 29 -109q29 -18 65 -18t124 6v674h460zM850 1147h-426l-307 328h522z" />
    <glyph glyph-name="uacute" unicode="&#xfa;" horiz-adv-x="1292" 
d="M1210 1024v-1010q-395 -31 -745 -30q-174 0 -284 104t-109 291v645h460v-553q0 -90 29 -109q29 -18 65 -18t124 6v674h460zM1157 1475l-307 -328h-426l211 328h522z" />
    <glyph glyph-name="ucircumflex" unicode="&#xfb;" horiz-adv-x="1292" 
d="M1210 1024v-1010q-395 -31 -745 -30q-174 0 -284 104t-109 291v645h460v-553q0 -90 29 -109q29 -18 65 -18t124 6v674h460zM647 1257l-86 -110h-385l273 328h395l272 -328h-385z" />
    <glyph glyph-name="udieresis" unicode="&#xfc;" horiz-adv-x="1292" 
d="M1210 1024v-1010q-395 -31 -745 -30q-174 0 -284 104t-109 291v645h460v-553q0 -90 29 -109q29 -18 65 -18t124 6v674h460zM1141 1350q0 -94 -68 -156t-164 -64q-96 0 -163 62q-66 62 -66 158q0 94 66 158t163 63q96 1 164 -63t68 -158zM381 1571q96 1 164 -63
q67 -64 67 -158t-67 -157q-68 -63 -164 -63t-163 62q-66 62 -66 158q0 94 66 158t163 63z" />
    <glyph glyph-name="yacute" unicode="&#xfd;" horiz-adv-x="1427" 
d="M1419 1024l-624 -1452h-492l182 438l-477 1014h508l205 -453l188 453h510zM971 1151h-426l211 328h522z" />
    <glyph glyph-name="thorn" unicode="&#xfe;" horiz-adv-x="1320" 
d="M666 340q74 0 125 49t51 131t-51 133t-123 52q-27 0 -125 -9v-346q103 -10 123 -10zM766 1055q221 1 362 -147t152 -390q0 -145 -51 -257t-132 -172q-162 -120 -333 -120q-117 0 -221 8v-407h-461v1884h461v-407q100 8 223 8z" />
    <glyph glyph-name="ydieresis" unicode="&#xff;" horiz-adv-x="1427" 
d="M1419 1024l-624 -1452h-492l182 438l-477 1014h508l205 -453l188 453h510zM1262 1354q0 -94 -68 -156t-164 -63q-96 0 -163 62q-67 63 -67 157t67 157t163 63t164 -62q68 -64 68 -158zM502 1135q-96 0 -163 62q-67 63 -67 157t67 157t163 63t164 -62q68 -64 68 -158
t-68 -157q-68 -62 -164 -62z" />
    <glyph glyph-name="Amacron" unicode="&#x100;" horiz-adv-x="1624" 
d="M813 891l-125 -356h248zM551 154l-53 -154h-498l590 1401h444l590 -1401h-498l-53 154h-522zM1180 1829v-322h-738v322h738z" />
    <glyph glyph-name="amacron" unicode="&#x101;" horiz-adv-x="1320" 
d="M653 705q-72 1 -123 -51t-51 -134t51 -131q50 -49 114 -49t134 61v295q-98 9 -125 9zM542 1055q208 0 697 -51v-1004h-461v61q-111 -92 -245 -92t-254 77q-146 93 -204 259q-34 96 -34 213q9 242 151 390t350 147zM1010 1477v-322h-615v322h615z" />
    <glyph glyph-name="Abreve" unicode="&#x102;" horiz-adv-x="1624" 
d="M813 891l-125 -356h248zM551 154l-53 -154h-498l590 1401h444l590 -1401h-498l-53 154h-522zM918 1868h315q0 -180 -117 -284t-305 -105q-188 0 -305 104t-117 285h316q1 -41 31 -73t75 -32t76 32t31 73z" />
    <glyph glyph-name="abreve" unicode="&#x103;" horiz-adv-x="1320" 
d="M653 705q-72 1 -123 -51t-51 -134t51 -131q50 -49 114 -49t134 61v295q-98 9 -125 9zM542 1055q208 0 697 -51v-1004h-461v61q-111 -92 -245 -92t-254 77q-146 93 -204 259q-34 96 -34 213q9 242 151 390t350 147zM809 1536h315q0 -180 -117 -285q-119 -104 -305 -104
t-304 104t-117 285h315q0 -41 31 -74q31 -32 75 -32t76 32q31 32 31 74z" />
    <glyph glyph-name="Aogonek" unicode="&#x104;" horiz-adv-x="1624" 
d="M936 535l-123 356l-125 -356h248zM1389 -104q44 0 106 18l41 -344q-70 -39 -216 -39t-248 80q-103 80 -103 209t149 203l-45 131h-522l-53 -154h-498l590 1401h444l590 -1401h-287q-35 -20 -35 -47t22 -42q21 -15 65 -15z" />
    <glyph glyph-name="aogonek" unicode="&#x105;" horiz-adv-x="1320" 
d="M479 520q0 -82 51 -131q50 -49 114 -49t134 61v295q-98 8 -125 9q-72 1 -123 -51t-51 -134zM1239 0h-197q-36 -24 -36 -50t22 -41t64 -15q44 0 106 18l41 -344q-69 -39 -215 -39t-249 80t-103 200t112 191h-6v61q-111 -92 -245 -92t-254 77q-146 93 -204 259
q-34 96 -34 213q9 242 151 389t350 147t697 -50v-1004z" />
    <glyph glyph-name="Cacute" unicode="&#x106;" horiz-adv-x="1431" 
d="M886 985q-138 0 -226 -79t-89 -209q0 -130 87 -209t231 -78q92 0 442 49l68 -412q-307 -76 -553 -76q-358 0 -577 200q-218 199 -218 525t218 526t575 199q246 1 557 -75l-70 -414q-307 53 -445 53zM1350 1823l-308 -328h-426l211 328h523z" />
    <glyph glyph-name="cacute" unicode="&#x107;" horiz-adv-x="1044" 
d="M471 509q0 -81 54 -128q55 -47 155 -47t291 24l33 -327q-195 -61 -367 -62q-268 -1 -432 147t-164 393t164 395t432 151q172 -1 367 -62l-54 -327q-206 24 -288 24t-136 -50t-55 -131zM1110 1475l-307 -328h-426l211 328h522z" />
    <glyph glyph-name="Cdotaccent" unicode="&#x10a;" horiz-adv-x="1431" 
d="M886 985q-138 0 -226 -79t-89 -209q0 -130 87 -209t231 -78q92 0 442 49l68 -412q-307 -76 -553 -76q-358 0 -577 200q-218 199 -218 525t218 526t575 199q246 1 557 -75l-70 -414q-307 53 -445 53zM834 1479q-90 0 -154 60q-64 61 -64 149t62 147t154 59t155 -59
t63 -147t-62 -148q-64 -60 -154 -61z" />
    <glyph glyph-name="cdotaccent" unicode="&#x10b;" horiz-adv-x="1044" 
d="M471 509q0 -81 54 -128q55 -47 155 -47t291 24l33 -327q-195 -61 -367 -62q-268 -1 -432 147t-164 393t164 395t432 151q172 -1 367 -62l-54 -327q-206 24 -288 24t-136 -50t-55 -131zM598 1130q-96 0 -163 62t-67 158q0 94 67 157t163 63t164 -62q68 -64 68 -158
t-68 -157t-164 -63z" />
    <glyph glyph-name="Ccaron" unicode="&#x10c;" horiz-adv-x="1431" 
d="M886 985q-138 0 -226 -79t-89 -209q0 -130 87 -209t231 -78q92 0 442 49l68 -412q-307 -76 -553 -76q-358 0 -577 200q-218 199 -218 525t218 526t575 199q246 1 557 -75l-70 -414q-307 53 -445 53zM1036 1495h-395l-272 328h385l86 -111l84 111h385z" />
    <glyph glyph-name="ccaron" unicode="&#x10d;" horiz-adv-x="1044" 
d="M471 509q0 -81 54 -128q55 -47 155 -47t291 24l33 -327q-195 -61 -367 -62q-268 -1 -432 147t-164 393t164 395t432 151q172 -1 367 -62l-54 -327q-206 24 -288 24t-136 -50t-55 -131zM797 1147h-396l-272 328h385l86 -111l84 111h385z" />
    <glyph glyph-name="Dcaron" unicode="&#x10e;" horiz-adv-x="1486" 
d="M561 397h123q121 0 193 80t71 219q0 139 -71 219q-72 80 -191 80q-84 0 -125 -2v-596zM643 1407q373 0 583 -185q210 -184 210 -524t-207 -526t-565 -186q-209 0 -582 14v1393q373 14 561 14zM879 1495h-396l-272 328h385l86 -111l84 111h385z" />
    <glyph glyph-name="dcaron" unicode="&#x10f;" horiz-adv-x="1320" 
d="M653 705q-72 1 -123 -51t-51 -134t51 -131t125 -49q20 0 123 10v346q-98 9 -125 9zM1688 1454l-80 -416h-299l12 416h367zM1239 1454v-1434q-445 -42 -529 -46q-84 -5 -160 -5t-160 30q-85 30 -166 90t-132 172t-51 257q9 242 151 389t363 148q123 0 223 -8v407h461z" />
    <glyph glyph-name="Dcroat" unicode="&#x110;" horiz-adv-x="1486" 
d="M561 397h123q121 0 193 80t71 219q0 139 -71 219q-72 80 -191 80q-84 0 -125 -2v-123h193v-381h-193v-92zM643 1407q373 0 583 -185q210 -184 210 -524t-207 -526t-565 -186q-209 0 -582 14v489h-68v381h68v523q373 14 561 14z" />
    <glyph glyph-name="dcroat" unicode="&#x111;" horiz-adv-x="1320" 
d="M479 520q0 -82 51 -131t125 -49q21 0 123 10v346q-98 8 -125 9q-72 1 -123 -51t-51 -134zM1309 1118h-70v-1098q-445 -42 -529 -46q-84 -5 -160 -5t-160 30q-85 30 -166 90t-132 172t-51 257q9 242 151 389t363 148q123 0 223 -8v71h-241v260h241v76h461v-76h70v-260z
" />
    <glyph glyph-name="Emacron" unicode="&#x112;" horiz-adv-x="1263" 
d="M561 883h531v-369h-531v-125h631v-389h-1110v1393h1110v-389h-631v-121zM991 1829v-322h-737v322h737z" />
    <glyph glyph-name="emacron" unicode="&#x113;" horiz-adv-x="1134" 
d="M589 721q-120 0 -145 -123h269q-4 123 -124 123zM31 516q0 244 146 392t386 147q240 0 385 -137t146 -361q0 -70 -23 -164h-612q45 -90 168 -90q172 0 379 41l51 -287q-211 -88 -430 -88q-266 0 -431 151q-165 152 -165 396zM874 1460v-321h-614v321h614z" />
    <glyph glyph-name="Edotaccent" unicode="&#x116;" horiz-adv-x="1263" 
d="M561 883h531v-369h-531v-125h631v-389h-1110v1393h1110v-389h-631v-121zM616 1479q-90 0 -153 60q-63 61 -63 149t62 147t153 59t155 -59t64 -147t-64 -148t-154 -61z" />
    <glyph glyph-name="edotaccent" unicode="&#x117;" horiz-adv-x="1134" 
d="M589 721q-120 0 -145 -123h269q-4 123 -124 123zM31 516q0 244 146 392t386 147q240 0 385 -137t146 -361q0 -70 -23 -164h-612q45 -90 168 -90q172 0 379 41l51 -287q-211 -88 -430 -88q-266 0 -431 151q-165 152 -165 396zM565 1130q-96 0 -163 62q-66 62 -66 158
q0 94 66 157q67 63 163 63t164 -62q68 -64 68 -158t-68 -157t-164 -63z" />
    <glyph glyph-name="Eogonek" unicode="&#x118;" horiz-adv-x="1263" 
d="M942 -80q0 -55 88 -55q44 0 105 18l41 -344q-70 -39 -216 -39t-248 80q-104 80 -104 212t166 208h-692v1393h1110v-389h-631v-121h531v-369h-531v-125h631v-389h-143q-59 -20 -83 -38t-24 -42z" />
    <glyph glyph-name="eogonek" unicode="&#x119;" horiz-adv-x="1134" 
d="M589 721q-120 0 -145 -123h269q-4 123 -124 123zM1094 557q0 -70 -23 -164h-612q45 -90 168 -90q172 0 379 41l51 -287q-68 -29 -156 -51q-94 -33 -94 -78q-1 -23 21 -38t66 -15t105 19l41 -345q-70 -39 -215 -39t-248 80t-103 194t95 187q-242 17 -390 165t-148 386
t146 385t386 147q239 0 385 -136q146 -138 146 -361z" />
    <glyph glyph-name="Ecaron" unicode="&#x11a;" horiz-adv-x="1263" 
d="M561 883h531v-369h-531v-125h631v-389h-1110v1393h1110v-389h-631v-121zM819 1495h-395l-272 328h385l86 -111l84 111h385z" />
    <glyph glyph-name="ecaron" unicode="&#x11b;" horiz-adv-x="1134" 
d="M589 721q-120 0 -145 -123h269q-4 123 -124 123zM31 516q0 244 146 392t386 147q240 0 385 -137t146 -361q0 -70 -23 -164h-612q45 -90 168 -90q172 0 379 41l51 -287q-211 -88 -430 -88q-266 0 -431 151q-165 152 -165 396zM764 1147h-395l-273 328h385l86 -111l84 111
h385z" />
    <glyph glyph-name="Gbreve" unicode="&#x11e;" horiz-adv-x="1568" 
d="M1477 842v-733q-418 -139 -639 -140q-354 0 -571 200q-216 199 -216 527t205 528t541 199q287 0 606 -77l-68 -396q-297 45 -481 45q-133 0 -214 -82t-81 -217t81 -217t213 -82t271 33v76h-362v336h715zM915 1868h316q0 -180 -117 -284t-305 -105q-188 0 -305 104
t-117 285h315q0 -41 31 -73t76 -32t76 32q30 32 30 73z" />
    <glyph glyph-name="gbreve" unicode="&#x11f;" horiz-adv-x="1316" 
d="M653 705q-72 1 -123 -51t-51 -134t51 -131t125 -49q20 0 123 10v346q-98 9 -125 9zM542 1055q208 0 697 -51v-1004q0 -268 -162 -403t-475 -136q-195 0 -389 62l53 319q190 -37 305 -37t159 40t48 132q-104 -8 -204 -8t-184 30q-85 30 -166 90t-132 172t-51 257
q9 242 151 390t350 147zM766 1520h315q0 -180 -117 -285q-118 -105 -304 -105t-305 104q-118 104 -117 286h315q0 -41 31 -74q32 -33 76 -33t75 33t31 74z" />
    <glyph glyph-name="Gdotaccent" unicode="&#x120;" horiz-adv-x="1568" 
d="M1477 842v-733q-418 -139 -639 -140q-354 0 -571 200q-216 199 -216 527t205 528t541 199q287 0 606 -77l-68 -396q-297 45 -481 45q-133 0 -214 -82t-81 -217t81 -217t213 -82t271 33v76h-362v336h715zM803 1479q-90 0 -154 60q-63 61 -63 149t62 147t154 59t154 -59
q64 -59 64 -147t-64 -148t-153 -61z" />
    <glyph glyph-name="gdotaccent" unicode="&#x121;" horiz-adv-x="1316" 
d="M653 705q-72 1 -123 -51t-51 -134t51 -131t125 -49q20 0 123 10v346q-98 9 -125 9zM542 1055q208 0 697 -51v-1004q0 -268 -162 -403t-475 -136q-195 0 -389 62l53 319q190 -37 305 -37t159 40t48 132q-104 -8 -204 -8t-184 30q-85 30 -166 90t-132 172t-51 257
q9 242 151 390t350 147zM657 1130q-97 0 -163 62t-66 158q0 94 67 157t163 63t163 -62q68 -64 68 -158t-68 -157t-164 -63z" />
    <glyph glyph-name="Gcommaaccent" unicode="&#x122;" horiz-adv-x="1568" 
d="M637 -297q0 80 57 134q58 54 140 54t140 -54q58 -53 58 -121t-38 -137t-146 -210h-199l94 182q-106 47 -106 152zM1477 842v-733q-418 -139 -639 -140q-354 0 -571 200q-216 199 -216 527t205 528t541 199q287 0 606 -77l-68 -396q-297 45 -481 45q-133 0 -214 -82
t-81 -217t81 -217t213 -82t271 33v76h-362v336h715z" />
    <glyph glyph-name="gcommaaccent" unicode="&#x123;" horiz-adv-x="1316" 
d="M653 705q-72 1 -123 -51t-51 -134t51 -131t125 -49q20 0 123 10v346q-98 9 -125 9zM542 1055q208 0 697 -51v-1004q0 -268 -162 -403t-475 -136q-195 0 -389 62l53 319q190 -37 305 -37t159 40t48 132q-104 -8 -204 -8t-184 30q-85 30 -166 90t-132 172t-51 257
q9 242 151 390t350 147zM874 1366q0 -80 -57 -134t-139 -54t-140 54t-58 122t37 136q38 69 147 210h198l-94 -182q106 -47 106 -152z" />
    <glyph glyph-name="Hbar" unicode="&#x126;" horiz-adv-x="1517" 
d="M956 1020h-395v-139h395v139zM1499 1020h-63v-1020h-480v467h-395v-467h-479v1020h-64v250h64v123h479v-123h395v123h480v-123h63v-250z" />
    <glyph glyph-name="hbar" unicode="&#x127;" horiz-adv-x="1292" 
d="M828 1055q165 0 274 -109t108 -287v-659h-460v516q0 57 -17 88t-33 35t-48 4t-120 -6v-637h-460v1163h-54v209h54v82h460v-82h138v-209h-138v-119q131 11 296 11z" />
    <glyph glyph-name="Imacron" unicode="&#x12a;" horiz-adv-x="622" 
d="M551 1393v-1393h-479v1393h479zM680 1829v-322h-737v322h737z" />
    <glyph glyph-name="imacron" unicode="&#x12b;" horiz-adv-x="604" 
d="M532 1024v-1024h-460v1024h460zM610 1460v-321h-614v321h614z" />
    <glyph glyph-name="Iogonek" unicode="&#x12e;" horiz-adv-x="622" 
d="M250 -75q0 -54 87 -54q44 0 105 18l41 -344q-70 -39 -215 -39t-249 80q-103 80 -103 210t156 206v1391h479v-1393h-213q-48 -18 -68 -34t-20 -41z" />
    <glyph glyph-name="iogonek" unicode="&#x12f;" horiz-adv-x="604" 
d="M72 1024h460v-1024h-217q-37 -24 -37 -50t22 -41t66 -15t105 18l41 -344q-70 -39 -216 -39t-248 80q-103 80 -103 203t127 196v1016zM301 1130q-96 0 -163 62q-66 62 -66 158q0 94 66 157q67 63 163 63t164 -62q67 -64 67 -158t-68 -157t-163 -63z" />
    <glyph glyph-name="Idotaccent" unicode="&#x130;" horiz-adv-x="622" 
d="M551 1393v-1393h-479v1393h479zM303 1495q-109 0 -185 73t-75 178q0 105 76 177q77 72 185 72t184 -72t77 -177q-1 -105 -77 -178t-185 -73z" />
    <glyph glyph-name="dotlessi" unicode="&#x131;" horiz-adv-x="604" 
d="M532 1024v-1024h-460v1024h460z" />
    <glyph glyph-name="IJ" unicode="&#x132;" horiz-adv-x="1759" 
d="M1698 1393v-758q0 -666 -584 -666q-250 0 -485 105l92 403q229 -59 350 -59q78 0 109 50t30 146v779h488zM551 1393v-1393h-479v1393h479z" />
    <glyph glyph-name="ij" unicode="&#x133;" horiz-adv-x="1288" 
d="M1208 1024v-963q0 -297 -94 -401q-94 -105 -265 -138q-97 -19 -226 -22l-19 363q61 9 80 19q18 8 28 14t21 24q15 28 15 88v1016h460zM532 1024v-1024h-460v1024h460zM976 1604q105 0 180 -71t75 -175t-75 -175t-180 -71t-179 71t-74 175t74 175t179 71zM300 1112
q-105 0 -179 71t-74 175t74 175t179 71t180 -71t75 -175t-75 -175t-180 -71z" />
    <glyph glyph-name="Kcommaaccent" unicode="&#x136;" horiz-adv-x="1538" 
d="M710 -109q82 0 141 -54q58 -53 58 -121t-38 -137t-146 -210h-199l95 182q-106 47 -107 152q0 80 57 134t139 54zM561 406v-406h-479v1393h479v-523h4l350 523h560l-455 -652l518 -741h-582l-258 406h-137z" />
    <glyph glyph-name="kcommaaccent" unicode="&#x137;" horiz-adv-x="1343" 
d="M628 -109q82 0 141 -54q58 -53 58 -121q1 -68 -37 -137t-147 -210h-199l95 182q-106 47 -107 152q0 80 57 134t139 54zM543 717h2l229 307h506l-319 -428l372 -596h-520l-176 299h-94v-299h-461v1454h461v-737z" />
    <glyph glyph-name="Lacute" unicode="&#x139;" horiz-adv-x="1202" 
d="M1171 0h-1089v1393h479v-983h610v-410zM846 1823l-307 -328h-426l211 328h522z" />
    <glyph glyph-name="lacute" unicode="&#x13a;" horiz-adv-x="604" 
d="M543 1454v-1454h-461v1454h461zM813 1849l-307 -327h-426l211 327h522z" />
    <glyph glyph-name="Lcommaaccent" unicode="&#x13b;" horiz-adv-x="1202" 
d="M628 -109q82 0 141 -54q58 -53 58 -121q1 -68 -37 -137t-147 -210h-199l95 182q-106 47 -107 152q0 80 57 134t139 54zM1171 0h-1089v1393h479v-983h610v-410z" />
    <glyph glyph-name="lcommaaccent" unicode="&#x13c;" horiz-adv-x="624" 
d="M301 -109q82 0 140 -54q59 -53 59 -121t-38 -137t-147 -210h-198l94 182q-106 47 -107 152q0 80 58 134t139 54zM543 1454v-1454h-461v1454h461z" />
    <glyph glyph-name="Lcaron" unicode="&#x13d;" horiz-adv-x="1202" 
d="M1094 1393l-80 -416h-299l12 416h367zM1171 0h-1089v1393h479v-983h610v-410z" />
    <glyph glyph-name="lcaron" unicode="&#x13e;" horiz-adv-x="624" 
d="M971 1454l-80 -416h-299l12 416h367zM543 1454v-1454h-461v1454h461z" />
    <glyph glyph-name="Ldot" unicode="&#x13f;" horiz-adv-x="1202" 
d="M889 516q-96 0 -163 62t-67 157q0 93 67 157t163 64t164 -63q67 -63 67 -157t-68 -158q-68 -62 -163 -62zM1171 0h-1089v1393h479v-983h610v-410z" />
    <glyph glyph-name="ldot" unicode="&#x140;" horiz-adv-x="1048" 
d="M1059 726q0 -94 -68 -158q-68 -62 -164 -62q-97 0 -163 62t-66 156t67 158t163 64t163 -63q68 -63 68 -157zM543 1454v-1454h-461v1454h461z" />
    <glyph glyph-name="Lslash" unicode="&#x141;" horiz-adv-x="1202" 
d="M1171 410v-410h-1089v383l-82 -25v355l82 24v656h479v-512l273 82v-355l-273 -82v-116h610z" />
    <glyph glyph-name="lslash" unicode="&#x142;" horiz-adv-x="624" 
d="M543 0h-461v440l-72 -20v354l72 21v659h461v-520l71 20v-354l-71 -20v-580z" />
    <glyph glyph-name="Nacute" unicode="&#x143;" horiz-adv-x="1552" 
d="M1470 1393v-1393h-417l-492 596v-596h-479v1393h440l469 -594v594h479zM1286 1823l-307 -328h-426l211 328h522z" />
    <glyph glyph-name="nacute" unicode="&#x144;" horiz-adv-x="1292" 
d="M827 1055q176 0 285 -109t109 -287v-659h-461v516q0 57 -17 88q-16 31 -32 35t-48 4t-120 -6v-637h-461v1004q493 51 745 51zM1157 1475l-307 -328h-426l211 328h522z" />
    <glyph glyph-name="Ncommaaccent" unicode="&#x145;" horiz-adv-x="1552" 
d="M772 -109q82 0 140 -54q58 -53 58 -121t-37 -137q-38 -69 -147 -210h-198l94 182q-106 47 -107 152q-1 80 57 134t140 54zM1470 1393v-1393h-417l-492 596v-596h-479v1393h440l469 -594v594h479z" />
    <glyph glyph-name="ncommaaccent" unicode="&#x146;" horiz-adv-x="1292" 
d="M453 -297q0 80 57 134t139 54q83 0 141 -54q58 -53 58 -121t-38 -137t-146 -210h-199l94 182q-106 47 -106 152zM827 1055q176 0 285 -109t109 -287v-659h-461v516q0 57 -17 88q-16 31 -32 35t-48 4t-120 -6v-637h-461v1004q493 51 745 51z" />
    <glyph glyph-name="Ncaron" unicode="&#x147;" horiz-adv-x="1552" 
d="M1470 1393v-1393h-417l-492 596v-596h-479v1393h440l469 -594v594h479zM973 1495h-395l-273 328h385l86 -111l84 111h385z" />
    <glyph glyph-name="ncaron" unicode="&#x148;" horiz-adv-x="1292" 
d="M827 1055q176 0 285 -109t109 -287v-659h-461v516q0 57 -17 88q-16 31 -32 35t-48 4t-120 -6v-637h-461v1004q493 51 745 51zM844 1147h-395l-273 328h385l86 -111l84 111h385z" />
    <glyph glyph-name="Omacron" unicode="&#x14c;" horiz-adv-x="1609" 
d="M805 397q121 0 193 82t73 217q0 135 -73 217q-74 82 -194 82t-193 -82t-73 -217t74 -217q72 -82 193 -82zM805 1423q340 1 547 -199t207 -528t-207 -528t-547 -199q-340 0 -547 200q-207 199 -207 527t207 528t547 199zM1174 1829v-322h-738v322h738z" />
    <glyph glyph-name="omacron" unicode="&#x14d;" horiz-adv-x="1257" 
d="M629 338q74 0 126 49t52 126t-52 125t-126 48t-126 -48t-52 -125t52 -126t126 -49zM629 1055q258 0 423 -150q165 -149 165 -391t-165 -394t-423 -151q-258 0 -423 152q-165 151 -165 393t165 392t423 149zM936 1460v-321h-614v321h614z" />
    <glyph glyph-name="Ohungarumlaut" unicode="&#x150;" horiz-adv-x="1609" 
d="M805 397q121 0 193 82t73 217q0 135 -73 217q-74 82 -194 82t-193 -82t-73 -217t74 -217q72 -82 193 -82zM805 1423q340 1 547 -199t207 -528t-207 -528t-547 -199q-340 0 -547 200q-207 199 -207 527t207 528t547 199zM1270 1843l-131 -327h-283l66 327h348zM860 1843
l-131 -327h-283l66 327h348z" />
    <glyph glyph-name="ohungarumlaut" unicode="&#x151;" horiz-adv-x="1257" 
d="M629 338q74 0 126 49t52 126t-52 125t-126 48t-126 -48t-52 -125t52 -126t126 -49zM629 1055q258 0 423 -150q165 -149 165 -391t-165 -394t-423 -151q-258 0 -423 152q-165 151 -165 393t165 392t423 149zM1165 1532l-151 -379h-326l76 379h401zM733 1532l-151 -379
h-326l76 379h401z" />
    <glyph glyph-name="OE" unicode="&#x152;" horiz-adv-x="2062" 
d="M539 696q0 -264 362 -268v537q-362 -5 -362 -269zM1380 883h531v-369h-531v-125h631v-389h-1110q-387 2 -618 188t-232 508t231 508t619 189h1110v-389h-631v-121z" />
    <glyph glyph-name="oe" unicode="&#x153;" horiz-adv-x="1914" 
d="M629 338q74 0 126 49t52 126t-52 125t-126 48t-126 -48t-52 -125t52 -126t126 -49zM1370 721q-120 0 -145 -123h268q-3 123 -123 123zM1874 557q0 -70 -23 -164h-612q45 -90 168 -90q172 0 379 41l51 -287q-211 -88 -439 -88t-384 119q-160 -119 -402 -119t-406 152
q-165 151 -165 393t165 392t423 149q217 0 372 -109q141 109 362 109q221 1 366 -137t145 -361z" />
    <glyph glyph-name="Racute" unicode="&#x154;" horiz-adv-x="1411" 
d="M561 705h101q184 0 184 161q0 150 -184 150h-101v-311zM561 328v-328h-479v1393q410 14 623 14q305 0 467 -134q162 -133 161 -403q0 -270 -184 -413l283 -457h-553l-177 328h-141zM1155 1823l-307 -328h-426l211 328h522z" />
    <glyph glyph-name="racute" unicode="&#x155;" horiz-adv-x="890" 
d="M860 1040v-438q-96 0 -317 -12v-590h-461v975q364 65 778 65zM981 1475l-307 -328h-426l211 328h522z" />
    <glyph glyph-name="Rcommaaccent" unicode="&#x156;" horiz-adv-x="1411" 
d="M710 -109q82 0 141 -54q58 -53 58 -121t-38 -137t-146 -210h-199l95 182q-106 47 -107 152q0 80 57 134t139 54zM561 705h101q184 0 184 161q0 150 -184 150h-101v-311zM561 328v-328h-479v1393q410 14 623 14q305 0 467 -134q162 -133 161 -403q0 -270 -184 -413
l283 -457h-553l-177 328h-141z" />
    <glyph glyph-name="rcommaaccent" unicode="&#x157;" horiz-adv-x="890" 
d="M125 -297q0 80 57 134q58 54 140 54t140 -54q58 -53 58 -121t-38 -137t-146 -210h-199l94 182q-106 47 -106 152zM860 1040v-438q-96 0 -317 -12v-590h-461v975q364 65 778 65z" />
    <glyph glyph-name="Rcaron" unicode="&#x158;" horiz-adv-x="1411" 
d="M561 705h101q184 0 184 161q0 150 -184 150h-101v-311zM561 328v-328h-479v1393q410 14 623 14q305 0 467 -134q162 -133 161 -403q0 -270 -184 -413l283 -457h-553l-177 328h-141zM842 1495h-396l-272 328h385l86 -111l84 111h385z" />
    <glyph glyph-name="rcaron" unicode="&#x159;" horiz-adv-x="890" 
d="M860 1040v-438q-96 0 -317 -12v-590h-461v975q364 65 778 65zM668 1147h-396l-272 328h385l86 -111l84 111h385z" />
    <glyph glyph-name="Sacute" unicode="&#x15a;" horiz-adv-x="1394" 
d="M737 1024q-111 0 -110 -55q0 -39 73 -59q23 -5 41 -9q19 -4 53 -11q415 -84 505 -277q38 -79 38 -185q-1 -215 -159 -337t-440 -122t-701 129l104 391q649 -206 647 -67q0 37 -72 56q-28 7 -61 16t-82 18q-259 58 -369 150t-110 278q0 233 161 356t466 123t604 -90
l-80 -403q-338 98 -508 98zM1395 1823l-308 -328h-425l210 328h523z" />
    <glyph glyph-name="sacute" unicode="&#x15b;" horiz-adv-x="1075" 
d="M498 287q72 0 73 17q0 17 -16 24q-15 6 -27 9t-38 8t-46 11q-194 47 -278 116t-84 216q0 182 123 276t357 95q234 0 468 -68l-63 -325q-256 78 -373 77q-63 0 -64 -28q0 -18 18 -23q18 -6 105 -23q160 -31 272 -110q111 -79 110 -240t-122 -255t-333 -94t-539 96l82 313
q303 -92 375 -92zM1081 1491l-307 -328h-426l211 328h522z" />
    <glyph glyph-name="Scedilla" unicode="&#x15e;" horiz-adv-x="1394" 
d="M651 -438h-303l88 348h379zM737 1024q-111 0 -110 -55q0 -39 73 -59q23 -5 41 -9q19 -4 53 -11q415 -84 505 -277q38 -79 38 -185q-1 -215 -159 -337t-440 -122t-701 129l104 391q649 -206 647 -67q0 37 -72 56q-28 7 -61 16t-82 18q-259 58 -369 150t-110 278
q0 233 161 356t466 123t604 -90l-80 -403q-338 98 -508 98z" />
    <glyph glyph-name="scedilla" unicode="&#x15f;" horiz-adv-x="1075" 
d="M594 -438h-303l88 348h379zM498 287q72 0 73 17q0 17 -16 24q-15 6 -27 9t-38 8t-46 11q-194 47 -278 116t-84 216q0 182 123 276t357 95q234 0 468 -68l-63 -325q-256 78 -373 77q-63 0 -64 -28q0 -18 18 -23q18 -6 105 -23q160 -31 272 -110q111 -79 110 -240
t-122 -255t-333 -94t-539 96l82 313q303 -92 375 -92z" />
    <glyph glyph-name="Scaron" unicode="&#x160;" horiz-adv-x="1394" 
d="M737 1024q-111 0 -110 -55q0 -39 73 -59q23 -5 41 -9q19 -4 53 -11q415 -84 505 -277q38 -79 38 -185q-1 -215 -159 -337t-440 -122t-701 129l104 391q649 -206 647 -67q0 37 -72 56q-28 7 -61 16t-82 18q-259 58 -369 150t-110 278q0 233 161 356t466 123t604 -90
l-80 -403q-338 98 -508 98zM1081 1495h-395l-272 328h385l86 -111l84 111h385z" />
    <glyph glyph-name="scaron" unicode="&#x161;" horiz-adv-x="1075" 
d="M498 287q72 0 73 17q0 17 -16 24q-15 6 -27 9t-38 8t-46 11q-194 47 -278 116t-84 216q0 182 123 276t357 95q234 0 468 -68l-63 -325q-256 78 -373 77q-63 0 -64 -28q0 -18 18 -23q18 -6 105 -23q160 -31 272 -110q111 -79 110 -240t-122 -255t-333 -94t-539 96l82 313
q303 -92 375 -92zM768 1163h-395l-273 328h385l86 -111l84 111h385z" />
    <glyph glyph-name="Tcaron" unicode="&#x164;" horiz-adv-x="1372" 
d="M926 983v-983h-480v983h-415v410h1310v-410h-415zM883 1495h-396l-272 328h385l86 -111l84 111h385z" />
    <glyph glyph-name="tcaron" unicode="&#x165;" horiz-adv-x="1007" 
d="M166 457v159h-156v408h156v307h461v-307h286v-408h-286v-120q0 -115 104 -115q11 0 197 18l39 -368q-193 -61 -394 -61t-304 124q-103 125 -103 363zM1073 1516l-80 -416h-299l13 416h366z" />
    <glyph glyph-name="Umacron" unicode="&#x16a;" horiz-adv-x="1495" 
d="M1434 1393v-717q0 -340 -178 -523t-508 -183t-508 182q-178 184 -179 524v717h488v-717q0 -125 51 -192q52 -66 148 -66t147 66t51 192v717h488zM1116 1829v-322h-737v322h737z" />
    <glyph glyph-name="umacron" unicode="&#x16b;" horiz-adv-x="1292" 
d="M1210 1024v-1010q-395 -31 -745 -30q-174 0 -284 104t-109 291v645h460v-553q0 -90 29 -109q29 -18 65 -18t124 6v674h460zM954 1460v-321h-614v321h614z" />
    <glyph glyph-name="Uring" unicode="&#x16e;" horiz-adv-x="1495" 
d="M1434 1393v-717q0 -340 -178 -523t-508 -183t-508 182q-178 184 -179 524v717h488v-717q0 -125 51 -192q52 -66 148 -66t147 66t51 192v717h488zM745 1649q47 -1 76 27t29 73t-29 73t-76 28t-75 -28t-29 -73q1 -45 29 -73t75 -27zM745 2040q137 0 227 -81t89 -210
q0 -129 -89 -210q-88 -81 -226 -81t-226 81t-88 210t88 210t225 81z" />
    <glyph glyph-name="uring" unicode="&#x16f;" horiz-adv-x="1292" 
d="M1210 1024v-1010q-395 -31 -745 -30q-174 0 -284 104t-109 291v645h460v-553q0 -90 29 -109q29 -18 65 -18t124 6v674h460zM645 1341q47 0 76 28t29 73q0 44 -29 72t-76 28t-76 -28t-29 -72t30 -73q28 -28 75 -28zM645 1733q137 0 226 -81t89 -210t-88 -210
q-90 -81 -227 -81t-225 81t-88 210t88 210t225 81z" />
    <glyph glyph-name="Uhungarumlaut" unicode="&#x170;" horiz-adv-x="1495" 
d="M1434 1393v-717q0 -340 -178 -523t-508 -183t-508 182q-178 184 -179 524v717h488v-717q0 -125 51 -192q52 -66 148 -66t147 66t51 192v717h488zM1212 1843l-131 -327h-282l65 327h348zM803 1843l-131 -327h-283l66 327h348z" />
    <glyph glyph-name="uhungarumlaut" unicode="&#x171;" horiz-adv-x="1292" 
d="M1210 1024v-1010q-395 -31 -745 -30q-174 0 -284 104t-109 291v645h460v-553q0 -90 29 -109q29 -18 65 -18t124 6v674h460zM1184 1532l-152 -379h-325l75 379h402zM752 1532l-152 -379h-326l76 379h402z" />
    <glyph glyph-name="Uogonek" unicode="&#x172;" horiz-adv-x="1495" 
d="M911 -72q-1 -55 87 -55q44 0 106 18l41 -344q-69 -39 -215 -39t-249 80t-103 196t100 187q-299 19 -458 201t-159 504v717h488v-717q0 -125 51 -192q52 -66 148 -66t147 66t51 192v717h488v-717q0 -262 -106 -432t-310 -236q-59 -20 -83 -38t-24 -42z" />
    <glyph glyph-name="uogonek" unicode="&#x173;" horiz-adv-x="1292" 
d="M1122 -485q-145 0 -249 79q-103 80 -103 203t123 197q-162 -10 -428 -10q-174 0 -284 104t-109 291v645h460v-553q0 -90 29 -109q29 -18 65 -18t124 6v674h460v-1010q-59 -20 -83 -38q-23 -18 -23 -42q1 -53 66 -53q65 -1 126 17l41 -344q-70 -39 -215 -39z" />
    <glyph glyph-name="Wcircumflex" unicode="&#x174;" horiz-adv-x="2197" 
d="M1788 0h-475l-213 627l-215 -627h-475l-406 1393h510l166 -631l225 631h387l226 -633l165 633h510zM1100 1606l-86 -111h-385l272 328h395l273 -328h-385z" />
    <glyph glyph-name="wcircumflex" unicode="&#x175;" horiz-adv-x="1730" 
d="M1417 0h-436l-115 414l-116 -414h-437l-305 1024h461l106 -453l121 453h338l123 -449l105 449h460zM866 1257l-86 -110h-385l273 328h395l272 -328h-385z" />
    <glyph glyph-name="Ycircumflex" unicode="&#x176;" horiz-adv-x="1552" 
d="M1016 0h-477l-2 401l-533 992h531l239 -480l244 480h530l-532 -992v-401zM776 1606l-86 -111h-385l273 328h395l272 -328h-385z" />
    <glyph glyph-name="ycircumflex" unicode="&#x177;" horiz-adv-x="1427" 
d="M1419 1024l-624 -1452h-492l182 438l-477 1014h508l205 -453l188 453h510zM682 1151h-385l272 328h396l272 -328h-385l-84 111z" />
    <glyph glyph-name="Ydieresis" unicode="&#x178;" horiz-adv-x="1552" 
d="M1016 0h-477l-2 401l-533 992h531l239 -480l244 480h530l-532 -992v-401zM1270 1698q0 -94 -68 -156t-164 -63q-96 0 -162 62q-66 63 -67 157q0 94 67 157q66 63 162 63t164 -62q68 -64 68 -158zM510 1479q-96 0 -163 62q-67 63 -67 157t67 157t163 63t164 -62
q68 -64 68 -158t-68 -157q-68 -62 -164 -62z" />
    <glyph glyph-name="Zacute" unicode="&#x179;" horiz-adv-x="1349" 
d="M1309 410v-410h-1268v309l569 674h-528v410h1208v-310l-551 -673h570zM1186 1823l-307 -328h-426l211 328h522z" />
    <glyph glyph-name="zacute" unicode="&#x17a;" horiz-adv-x="1105" 
d="M1055 379v-379h-1004v238l371 407h-371v379h983v-238l-358 -407h379zM1053 1475l-308 -328h-426l211 328h523z" />
    <glyph glyph-name="Zdotaccent" unicode="&#x17b;" horiz-adv-x="1349" 
d="M1309 410v-410h-1268v309l569 674h-528v410h1208v-310l-551 -673h570zM670 1479q-90 0 -154 60q-63 61 -63 149t62 147q61 59 153 59t155 -59t63 -147t-62 -148q-64 -60 -154 -61z" />
    <glyph glyph-name="zdotaccent" unicode="&#x17c;" horiz-adv-x="1105" 
d="M1055 379v-379h-1004v238l371 407h-371v379h983v-238l-358 -407h379zM541 1130q-96 0 -163 62t-67 158q0 94 67 157t163 63t164 -62q67 -64 67 -158t-68 -157t-163 -63z" />
    <glyph glyph-name="Zcaron" unicode="&#x17d;" horiz-adv-x="1349" 
d="M1309 410v-410h-1268v309l569 674h-528v410h1208v-310l-551 -673h570zM872 1495h-395l-272 328h385l86 -111l84 111h385z" />
    <glyph glyph-name="zcaron" unicode="&#x17e;" horiz-adv-x="1105" 
d="M1055 379v-379h-1004v238l371 407h-371v379h983v-238l-358 -407h379zM739 1147h-395l-272 328h385l86 -111l84 111h385z" />
    <glyph glyph-name="florin" unicode="&#x192;" horiz-adv-x="1282" 
d="M852 1423q184 0 389 -41l-35 -344q-158 14 -211 14t-79 -29q-26 -30 -35 -105l-2 -9h286v-407h-338l-8 -66q-57 -467 -430 -467q-184 0 -389 41l35 344q158 -14 211 -14t79 30t35 105l5 27h-224v407h275l6 47q57 467 430 467z" />
    <glyph glyph-name="Acaron" unicode="&#x1cd;" horiz-adv-x="1624" 
d="M813 891l-125 -356h248zM551 154l-53 -154h-498l590 1401h444l590 -1401h-498l-53 154h-522zM1008 1495h-396l-272 328h385l86 -111l84 111h385z" />
    <glyph glyph-name="acaron" unicode="&#x1ce;" horiz-adv-x="1320" 
d="M653 705q-72 1 -123 -51t-51 -134t51 -131q50 -49 114 -49t134 61v295q-98 9 -125 9zM542 1055q208 0 697 -51v-1004h-461v61q-111 -92 -245 -92t-254 77q-146 93 -204 259q-34 96 -34 213q9 242 151 390t350 147zM899 1163h-395l-273 328h385l86 -111l84 111h385z" />
    <glyph glyph-name="Scommaaccent" unicode="&#x218;" horiz-adv-x="1394" 
d="M453 -297q0 80 57 134t139 54q83 0 141 -54q58 -53 58 -121t-38 -137t-146 -210h-199l94 182q-106 47 -106 152zM737 1024q-111 0 -110 -55q0 -39 73 -59q23 -5 41 -9q19 -4 53 -11q415 -84 505 -277q38 -79 38 -185q-1 -215 -159 -337t-440 -122t-701 129l104 391
q649 -206 647 -67q0 37 -72 56q-28 7 -61 16t-82 18q-259 58 -369 150t-110 278q0 233 161 356t466 123t604 -90l-80 -403q-338 98 -508 98z" />
    <glyph glyph-name="scommaaccent" unicode="&#x219;" horiz-adv-x="1075" 
d="M557 -109q82 0 140 -54q59 -53 59 -121t-38 -137t-147 -210h-198l94 182q-106 47 -107 152q0 80 58 134t139 54zM498 287q72 0 73 17q0 17 -16 24q-15 6 -27 9t-38 8t-46 11q-194 47 -278 116t-84 216q0 182 123 276t357 95q234 0 468 -68l-63 -325q-256 78 -373 77
q-63 0 -64 -28q0 -18 18 -23q18 -6 105 -23q160 -31 272 -110q111 -79 110 -240t-122 -255t-333 -94t-539 96l82 313q303 -92 375 -92z" />
    <glyph glyph-name="uni021A" unicode="&#x21a;" horiz-adv-x="1372" 
d="M494 -297q0 80 57 134t139 54t140 -54q58 -53 58 -121t-37 -137q-38 -69 -146 -210h-199l94 182q-106 47 -106 152zM926 983v-983h-480v983h-415v410h1310v-410h-415z" />
    <glyph glyph-name="uni021B" unicode="&#x21b;" horiz-adv-x="1007" 
d="M330 -297q0 80 57 134t139 54t140 -54q58 -53 59 -121q0 -68 -38 -137t-146 -210h-199l94 182q-106 47 -106 152zM166 457v159h-156v408h156v307h461v-307h286v-408h-286v-120q0 -115 104 -115q11 0 197 18l39 -368q-193 -61 -394 -61t-304 124q-103 125 -103 363z" />
    <glyph glyph-name="circumflex" unicode="&#x2c6;" 
d="M614 1257l-86 -110h-385l273 328h395l272 -328h-385z" />
    <glyph glyph-name="caron" unicode="&#x2c7;" 
d="M811 1147h-395l-273 328h385l86 -111l84 111h385z" />
    <glyph glyph-name="breve" unicode="&#x2d8;" 
d="M721 1520h315q0 -180 -117 -285q-119 -105 -305 -105t-304 104t-117 286h315q0 -41 31 -74t75 -33t76 33q31 33 31 74z" />
    <glyph glyph-name="dotaccent" unicode="&#x2d9;" 
d="M612 1130q-96 0 -162 62t-67 158q0 94 67 157q66 63 162 63t164 -62q68 -64 68 -158t-68 -157t-164 -63z" />
    <glyph glyph-name="ring" unicode="&#x2da;" 
d="M614 1341q47 0 76 28t29 73q0 44 -29 72t-76 28q-48 0 -76 -28t-28 -72t28 -73q28 -28 76 -28zM614 1733q136 0 226 -81t90 -210t-89 -210t-227 -81t-225 81q-88 81 -88 210t88 210t225 81z" />
    <glyph glyph-name="ogonek" unicode="&#x2db;" 
d="M655 -53q0 -25 22 -40q50 -34 171 3l41 -344q-69 -39 -215 -39t-249 80t-103 203q0 219 387 278l53 -61q-59 -19 -83 -37t-24 -43z" />
    <glyph glyph-name="tilde" unicode="&#x2dc;" 
d="M758 1499h299q0 -127 -47 -213q-85 -155 -265 -143q-76 4 -137 41l-35 20q-70 41 -69 -49h-299q0 127 47 213q82 150 262 140q76 -3 139 -38l35 -20q70 -37 70 49z" />
    <glyph glyph-name="hungarumlaut" unicode="&#x2dd;" 
d="M1163 1532l-151 -379h-326l76 379h401zM731 1532l-151 -379h-326l76 379h401z" />
    <glyph glyph-name="commaaccentcomb" unicode="&#x326;" horiz-adv-x="0" 
d="M588 -109q82 0 140 -54q58 -53 58 -121t-38 -137t-146 -210h-199l95 182q-106 47 -107 152q-1 80 57 134t140 54z" />
    <glyph glyph-name="Wgrave" unicode="&#x1e80;" horiz-adv-x="2197" 
d="M1788 0h-475l-213 627l-215 -627h-475l-406 1393h510l166 -631l225 631h387l226 -633l165 633h510zM1323 1495h-426l-307 328h522z" />
    <glyph glyph-name="wgrave" unicode="&#x1e81;" horiz-adv-x="1730" 
d="M1417 0h-436l-115 414l-116 -414h-437l-305 1024h461l106 -453l121 453h338l123 -449l105 449h460zM1028 1147h-426l-307 328h522z" />
    <glyph glyph-name="Wacute" unicode="&#x1e82;" horiz-adv-x="2197" 
d="M1788 0h-475l-213 627l-215 -627h-475l-406 1393h510l166 -631l225 631h387l226 -633l165 633h510zM1610 1823l-307 -328h-426l210 328h523z" />
    <glyph glyph-name="wacute" unicode="&#x1e83;" horiz-adv-x="1730" 
d="M1417 0h-436l-115 414l-116 -414h-437l-305 1024h461l106 -453l121 453h338l123 -449l105 449h460zM1417 1475l-307 -328h-426l211 328h522z" />
    <glyph glyph-name="Wdieresis" unicode="&#x1e84;" horiz-adv-x="2197" 
d="M1788 0h-475l-213 627l-215 -627h-475l-406 1393h510l166 -631l225 631h387l226 -633l165 633h510zM1362 1479q-96 0 -163 62q-67 63 -67 157t67 157t163 63t164 -62q68 -64 68 -158t-68 -157q-68 -62 -164 -62zM1065 1698q1 -94 -67 -156t-164 -63q-96 0 -163 62
q-67 63 -67 157t67 157t163 63t164 -62q68 -64 67 -158z" />
    <glyph glyph-name="wdieresis" unicode="&#x1e85;" horiz-adv-x="1730" 
d="M1417 0h-436l-115 414l-116 -414h-437l-305 1024h461l106 -453l121 453h338l123 -449l105 449h460zM1360 1350q0 -94 -68 -156t-164 -64q-96 0 -162 62t-67 158q1 94 67 158t162 63q96 1 164 -63t68 -158zM600 1571q96 1 164 -63t68 -158t-68 -157t-164 -63t-163 62
t-67 158q0 94 68 158q66 64 162 63z" />
    <glyph glyph-name="Ygrave" unicode="&#x1ef2;" horiz-adv-x="1552" 
d="M1016 0h-477l-2 401l-533 992h531l239 -480l244 480h530l-532 -992v-401zM999 1495h-426l-307 328h522z" />
    <glyph glyph-name="ygrave" unicode="&#x1ef3;" horiz-adv-x="1427" 
d="M1419 1024l-624 -1452h-492l182 438l-477 1014h508l205 -453l188 453h510zM545 1151l-307 328h522l211 -328h-426z" />
    <glyph glyph-name="uni2009" unicode="&#x2009;" horiz-adv-x="245" 
 />
    <glyph glyph-name="endash" unicode="&#x2013;" horiz-adv-x="1181" 
d="M1100 319h-1018v414h1018v-414z" />
    <glyph glyph-name="emdash" unicode="&#x2014;" horiz-adv-x="2177" 
d="M2034 319h-1891v414h1891v-414z" />
    <glyph glyph-name="quoteleft" unicode="&#x2018;" horiz-adv-x="716" 
d="M358 821q-106 0 -181 71t-75 158t50 181q49 94 202 325h258l-135 -292q68 -29 103 -83t34 -116q0 -104 -74 -174q-76 -70 -182 -70z" />
    <glyph glyph-name="quoteright" unicode="&#x2019;" horiz-adv-x="716" 
d="M102 1339q0 104 75 174t181 70t182 -71t74 -173q0 -71 -49 -165t-203 -326h-258l136 293q-68 29 -103 83t-35 115z" />
    <glyph glyph-name="quotesinglbase" unicode="&#x201a;" horiz-adv-x="716" 
d="M102 215q0 104 75 174t181 70t182 -71t74 -173q0 -72 -49 -166t-203 -325h-258l136 292q-68 29 -103 83t-35 116z" />
    <glyph glyph-name="quotedblleft" unicode="&#x201c;" horiz-adv-x="1259" 
d="M1157 1061q0 -104 -75 -174t-181 -70t-181 71t-75 158t49 181t203 325h258l-135 -292q68 -29 102 -83t35 -116zM358 817q-106 0 -181 71t-75 158t50 181q49 94 202 325h258l-135 -292q68 -29 103 -83t34 -116q0 -104 -74 -174q-76 -70 -182 -70z" />
    <glyph glyph-name="quotedblright" unicode="&#x201d;" horiz-adv-x="1280" 
d="M922 1583q106 0 181 -71t75 -158q0 -86 -50 -180t-202 -326h-258l135 293q-68 29 -103 83t-34 115q0 104 74 174q76 70 182 70zM358 1583q106 0 182 -71t74 -173q0 -71 -49 -165t-203 -326h-258l136 293q-68 29 -103 83t-35 115q0 104 75 174t181 70z" />
    <glyph glyph-name="quotedblbase" unicode="&#x201e;" horiz-adv-x="1259" 
d="M645 215q0 104 75 174t181 70t181 -71t75 -158t-49 -181t-203 -325h-258l135 292q-68 29 -102 83t-35 116zM102 215q0 104 75 174t181 70t182 -71t74 -173q0 -72 -49 -166t-203 -325h-258l136 292q-68 29 -103 83t-35 116z" />
    <glyph glyph-name="dagger" unicode="&#x2020;" horiz-adv-x="802" 
d="M528 1008v-418h-254v418h-213v254h213v213h254v-213h213v-254h-213z" />
    <glyph glyph-name="daggerdbl" unicode="&#x2021;" horiz-adv-x="802" 
d="M528 983h213v-254h-213v-139h-254v139h-213v254h213v94h-213v254h213v144h254v-144h213v-254h-213v-94z" />
    <glyph glyph-name="bullet" unicode="&#x2022;" horiz-adv-x="886" 
d="M441 254q-159 0 -269 104t-111 260q0 156 111 260q112 104 270 105q158 0 271 -104q113 -105 113 -261t-114 -260q-112 -104 -271 -104z" />
    <glyph glyph-name="ellipsis" unicode="&#x2026;" horiz-adv-x="1959" 
d="M1602 -31q-106 0 -182 71q-75 71 -74 175q0 104 74 174q76 70 182 70t181 -71t75 -174t-75 -174t-181 -71zM975 -31q-106 0 -181 71t-75 175t75 174t181 70t181 -71t75 -174t-75 -174t-181 -71zM358 -31q-106 0 -181 71t-75 175t75 174t181 70t182 -71t74 -174
q0 -103 -75 -174t-181 -71z" />
    <glyph glyph-name="perthousand" unicode="&#x2030;" horiz-adv-x="3229" 
d="M2705 559q-67 0 -115 -46t-48 -116q0 -69 49 -115t115 -46t114 46q49 46 49 116t-49 115q-49 46 -115 46zM1729 559q-66 0 -115 -46t-49 -116q0 -69 49 -115t115 -46q67 0 115 46t48 116t-48 115q-48 46 -115 46zM2705 825q193 -1 318 -119t125 -308t-125 -310
q-125 -119 -318 -119t-317 119t-125 309q1 190 125 309t317 119zM1729 825q193 -1 317 -119t125 -308q0 -190 -125 -310q-126 -119 -318 -119t-317 119t-125 309t125 309t318 119zM524 1157q-66 0 -114 -46t-50 -116q0 -69 50 -115t114 -46q66 0 115 46t49 116t-49 115
q-49 46 -115 46zM752 0h-213l966 1393h213zM524 1423q193 -1 318 -119t125 -308t-125 -310q-125 -119 -318 -119q-194 0 -318 119t-124 309t124 309t318 119z" />
    <glyph glyph-name="guilsinglleft" unicode="&#x2039;" horiz-adv-x="819" 
d="M737 258l-272 -240l-424 496l424 496l272 -240l-209 -256z" />
    <glyph glyph-name="guilsinglright" unicode="&#x203a;" horiz-adv-x="819" 
d="M82 770l272 240l424 -496l-424 -496l-272 240l209 256z" />
    <glyph glyph-name="fraction" unicode="&#x2044;" horiz-adv-x="1241" 
d="M244 0h-213l966 1393h213z" />
    <glyph glyph-name="zerosuperior" unicode="&#x2070;" horiz-adv-x="972" 
d="M486 1159q-74 0 -118 -51t-44 -134q0 -82 44 -134t118 -52q73 0 118 52t45 134q0 83 -45 134t-118 51zM485 1413q201 0 324 -121q123 -120 123 -318t-123 -319t-324 -121t-323 122q-122 120 -121 318q-1 198 121 318t323 121z" />
    <glyph glyph-name="foursuperior" unicode="&#x2074;" horiz-adv-x="868" 
d="M498 913v193l-166 -193h166zM760 913h98v-221h-98v-141h-262v141h-488v199l459 502h291v-480z" />
    <glyph glyph-name="fivesuperior" unicode="&#x2075;" horiz-adv-x="780" 
d="M770 822q0 -130 -99 -209t-289 -79t-372 70l72 217q162 -53 280 -53t117 55q0 37 -27 51q-28 14 -87 19l-279 14l51 488h584v-250h-332l-8 -60l43 -2q176 -8 261 -69q85 -62 85 -192z" />
    <glyph glyph-name="sixsuperior" unicode="&#x2076;" horiz-adv-x="786" 
d="M393 764q49 0 79 28t30 74t-30 75q-30 28 -79 28t-79 -28t-30 -75q0 -46 30 -74t79 -28zM766 854q0 -138 -103 -228t-269 -91q-166 0 -270 91q-103 91 -104 242q0 82 56 172l213 355h319l-137 -224q135 -18 215 -99q80 -80 80 -218z" />
    <glyph glyph-name="sevensuperior" unicode="&#x2077;" horiz-adv-x="753" 
d="M10 1130v263h733v-160l-297 -682h-321l252 579h-367z" />
    <glyph glyph-name="eightsuperior" unicode="&#x2078;" horiz-adv-x="794" 
d="M396 901q-36 0 -58 -18q-22 -17 -21 -51q-1 -34 21 -53t58 -19t59 19t22 52q0 33 -22 52q-23 18 -59 18zM324 1150q0 -28 19 -45t52 -18q72 1 72 63t-72 62q-33 0 -52 -17t-19 -45zM784 788q0 -118 -102 -186t-286 -68t-284 68q-101 68 -102 186q0 162 168 220
q-121 56 -121 164q1 108 95 175t244 67t243 -68q92 -66 92 -176t-117 -160q170 -61 170 -222z" />
    <glyph glyph-name="ninesuperior" unicode="&#x2079;" horiz-adv-x="786" 
d="M393 1182q-49 0 -79 -29t-29 -75q-1 -46 29 -74t79 -27q49 0 79 28q30 27 30 73t-30 75t-79 29zM766 1075q0 -78 -55 -172l-213 -352h-320l139 223q-135 18 -216 99t-81 217t104 229q104 92 269 92t269 -92t104 -244z" />
    <glyph glyph-name="zeroinferior" unicode="&#x2080;" horiz-adv-x="972" 
d="M324 54q0 -83 44 -134t118 -51q73 0 118 51t45 134t-45 134q-45 52 -118 52q-74 0 -118 -52t-44 -134zM485 494q201 0 324 -121t123 -319t-123 -318t-324 -121q-201 0 -323 121q-122 120 -121 318q-1 198 121 319t323 121z" />
    <glyph glyph-name="oneinferior" unicode="&#x2081;" horiz-adv-x="684" 
d="M664 -111v-258h-607v258h160v273l-143 -31l-54 236l377 106h111v-584h156z" />
    <glyph glyph-name="twoinferior" unicode="&#x2082;" horiz-adv-x="759" 
d="M739 -369h-694v199l320 238q63 45 63 94q0 70 -90 70t-270 -56l-48 244q205 72 371 72t251 -77t85 -185t-40 -175q-40 -66 -136 -137l-49 -37h237v-250z" />
    <glyph glyph-name="threeinferior" unicode="&#x2083;" horiz-adv-x="778" 
d="M768 -88q0 -143 -93 -220t-267 -77t-398 70l70 225q409 -119 409 4q0 49 -83 49h-189v109l160 153h-320v250h705v-143l-182 -193l8 -2q180 -57 180 -225z" />
    <glyph glyph-name="fourinferior" unicode="&#x2084;" horiz-adv-x="868" 
d="M498 -6v192l-166 -192h166zM760 -6h98v-221h-98v-142h-262v142h-488v198l459 502h291v-479z" />
    <glyph glyph-name="fiveinferior" unicode="&#x2085;" horiz-adv-x="780" 
d="M770 -97q0 -130 -99 -209t-289 -79t-372 70l72 217q162 -54 280 -54t117 56q0 37 -27 51q-28 14 -87 18l-279 15l51 487h584v-250h-332l-8 -59l43 -2q176 -8 261 -70t85 -191z" />
    <glyph glyph-name="sixinferior" unicode="&#x2086;" horiz-adv-x="786" 
d="M393 -156q49 0 79 28t30 75t-30 75t-79 28t-79 -28t-30 -75t30 -75t79 -28zM766 -66q0 -138 -103 -228q-103 -91 -269 -91t-270 91q-103 91 -104 243q0 82 56 172l213 354h319l-137 -223q135 -18 215 -99t80 -219z" />
    <glyph glyph-name="seveninferior" unicode="&#x2087;" horiz-adv-x="753" 
d="M10 211v262h733v-160l-297 -682h-321l252 580h-367z" />
    <glyph glyph-name="eightinferior" unicode="&#x2088;" horiz-adv-x="794" 
d="M317 -88q-1 -32 21 -52t58 -20t59 20t22 52q0 68 -82 70q-35 0 -57 -18t-21 -52zM324 229q0 -61 72 -61t71 62q0 62 -72 63q-33 1 -52 -17t-19 -47zM784 -131q0 -119 -102 -187t-286 -67q-184 0 -284 68q-101 68 -102 186q0 162 168 219q-121 56 -121 164q1 108 95 175
t244 67t243 -67q92 -67 92 -177t-117 -160q170 -61 170 -221z" />
    <glyph glyph-name="nineinferior" unicode="&#x2089;" horiz-adv-x="786" 
d="M393 262q-49 0 -79 -28t-29 -75q-1 -46 29 -74t79 -28t79 28t30 74q0 47 -30 75t-79 28zM766 156q0 -78 -55 -172l-213 -353h-320l139 224q-135 18 -216 99q-81 82 -81 218t104 228t269 92t269 -92t104 -244z" />
    <glyph glyph-name="Euro" unicode="&#x20ac;" horiz-adv-x="1484" 
d="M876 1423q272 0 578 -77l-72 -396q-282 45 -432 45t-219 -86h383l-43 -166h-401q-2 -14 -2 -47v-32h383l-43 -166h-285q68 -90 207 -90q100 0 473 36l51 -397q-307 -78 -594 -78t-462 136t-222 393h-125v166h109v32q0 31 2 47h-111v166h133q60 238 240 376t452 138z" />
    <glyph glyph-name="uni2116" unicode="&#x2116;" horiz-adv-x="2850" 
d="M1686 264h989v-258h-989v258zM2181 707q74 0 126 49t52 126t-52 125t-126 48t-126 -48t-52 -125t52 -126t126 -49zM1470 1393v-1393h-417l-492 596v-596h-479v1393h440l469 -594v594h479zM2181 1423q258 1 423 -149t165 -392t-165 -393t-423 -151t-423 152t-165 393
q0 242 165 391t423 149z" />
    <glyph glyph-name="uni2117" unicode="&#x2117;" horiz-adv-x="1593" 
d="M820 840q-34 0 -54 -2v-111h59q29 0 46 17t18 40q1 24 -17 40t-52 16zM829 1024q305 0 306 -242q0 -233 -336 -233h-33v-160h-240v629q174 6 303 6zM797 1202q-219 0 -367 -145t-149 -361q0 -216 148 -360q147 -146 367 -146t370 146t149 360q1 214 -149 360t-369 146z
M797 1423q319 0 532 -208t213 -519t-213 -519t-532 -208t-533 208q-213 208 -213 519t213 519q214 208 533 208z" />
    <glyph glyph-name="trademark" unicode="&#x2122;" horiz-adv-x="1607" 
d="M1278 928l-111 -201h-137l-110 201l-9 -201h-235l24 666h203l197 -318l194 318h205l27 -666h-238zM635 1184h-174v-457h-246v457h-174v209h594v-209z" />
    <glyph glyph-name="oneeighth" unicode="&#x215b;" horiz-adv-x="1933" 
d="M1484 209q36 0 58 19q22 18 23 52q0 34 -23 52q-22 18 -58 18t-58 -18t-22 -51t22 -53q22 -19 58 -19zM1483 662q-33 0 -52 -18t-19 -46q0 -29 18 -45q20 -16 53 -16q72 0 71 61q1 64 -71 64zM1872 238q0 -119 -102 -187q-102 -67 -286 -67q-183 0 -285 67
q-101 68 -101 187q0 162 168 219q-121 55 -121 163t94 176q94 66 245 66q150 0 242 -66t92 -176t-116 -161q170 -61 170 -221zM1563 1393l-967 -1393h-213l967 1393h213zM98 551v258h160v272l-143 -30l-54 235l377 107h111v-584h156v-258h-607z" />
    <glyph glyph-name="threeeighths" unicode="&#x215c;" horiz-adv-x="1968" 
d="M1519 209q37 0 59 19q22 18 22 52t-23 52t-59 18t-57 -18t-21 -51t21 -53q22 -19 58 -19zM1446 598q0 -61 72 -61t71 61q0 63 -71 64q-32 0 -52 -18t-20 -46zM1907 238q-1 -119 -103 -187q-102 -67 -285 -67t-285 67q-101 68 -101 187q0 162 167 219q-120 55 -120 163
t94 176q94 66 245 66t243 -66t92 -176t-117 -161q170 -61 170 -221zM631 0h-213l966 1393h213zM819 831q0 -143 -93 -220t-267 -77t-398 70l70 225q203 -59 306 -59t104 64q0 49 -84 49h-189v108l160 154h-319v250h704v-144l-182 -192l8 -2q180 -57 180 -226z" />
    <glyph glyph-name="fiveeighths" unicode="&#x215d;" horiz-adv-x="1961" 
d="M1512 350q-36 0 -58 -18t-20 -51q0 -33 21 -53t57 -19q36 0 59 19q23 18 23 52t-23 52t-59 18zM1440 598q0 -61 72 -61t71 62q0 62 -72 63q-33 0 -52 -18t-19 -46zM1901 238q-1 -119 -103 -187q-102 -67 -286 -67t-284 68q-101 68 -102 186q0 162 168 219
q-120 55 -120 163t94 176q94 66 244 66t243 -66t93 -176t-117 -161q170 -61 170 -221zM602 0h-213l967 1393h213zM801 822q1 -130 -99 -209t-290 -79t-371 70l72 217q161 -53 279 -53t118 55q0 37 -28 51t-87 19l-278 14l51 488h584v-250h-332l-8 -60l43 -2q176 -8 261 -69
q85 -62 85 -192z" />
    <glyph glyph-name="seveneighths" unicode="&#x215e;" horiz-adv-x="1898" 
d="M1370 281q0 -33 22 -53t57 -19q37 0 59 19q22 18 22 52t-23 52t-59 18t-56 -18q-22 -18 -22 -51zM1376 598q0 -29 20 -45t52 -16q72 0 72 62t-72 63q-32 0 -52 -18t-20 -46zM1837 238q0 -119 -102 -187q-101 -67 -285 -67t-286 67q-101 68 -101 187q0 162 168 219
q-121 55 -121 163t94 176q94 66 245 66t243 -66t92 -176t-117 -161q170 -61 170 -221zM514 0h-213l967 1393h213zM72 1130v263h733v-160l-297 -682h-322l252 579h-366z" />
    <glyph glyph-name="arrowleft" unicode="&#x2190;" horiz-adv-x="1542" 
d="M1516 887v-377h-752l274 -297l-288 -270l-734 755l734 756l288 -270l-274 -297h752z" />
    <glyph glyph-name="arrowup" unicode="&#x2191;" horiz-adv-x="1560" 
d="M590 0v717l-273 -262l-256 276l719 699l719 -699l-256 -276l-272 262v-717h-381z" />
    <glyph glyph-name="arrowright" unicode="&#x2192;" horiz-adv-x="1542" 
d="M29 887h749l-274 295l289 268l731 -752l-731 -751l-289 268l274 295h-749v377z" />
    <glyph glyph-name="arrowdown" unicode="&#x2193;" horiz-adv-x="1560" 
d="M590 1393h381v-717l272 262l256 -276l-719 -699l-719 699l256 276l273 -262v717z" />
    <glyph glyph-name="arrowupleft" unicode="&#x2196;" horiz-adv-x="1603" 
d="M520 344h-377v1049h1074v-377h-441l785 -783l-254 -253l-787 784v-420z" />
    <glyph glyph-name="arrowupright" unicode="&#x2197;" horiz-adv-x="1622" 
d="M406 1016v377h1073v-1049h-377v420l-787 -784l-254 253l785 783h-440z" />
    <glyph glyph-name="arrowdownright" unicode="&#x2198;" horiz-adv-x="1603" 
d="M1083 1049h377v-1049h-1073v377h440l-784 782l254 254l786 -784v420z" />
    <glyph glyph-name="arrowdownleft" unicode="&#x2199;" horiz-adv-x="1603" 
d="M1217 377v-377h-1074v1049h377v-420l787 784l254 -254l-785 -782h441z" />
    <glyph glyph-name="minus" unicode="&#x2212;" horiz-adv-x="1314" 
d="M184 801h946v-291h-946v291z" />
    <glyph glyph-name="triagup" unicode="&#x25b2;" horiz-adv-x="1992" 
d="M993 1415l856 -1415h-1706z" />
    <glyph glyph-name="blackuppointingsmalltriangle" unicode="&#x25b4;" horiz-adv-x="1157" 
d="M578 1075l456 -756h-911z" />
    <glyph glyph-name="uni25B8" unicode="&#x25b8;" horiz-adv-x="1042" 
d="M940 711l-756 -457v911z" />
    <glyph glyph-name="triagdn" unicode="&#x25bc;" horiz-adv-x="1992" 
d="M1849 1393l-856 -1416l-850 1416h1706z" />
    <glyph glyph-name="uni25BE" unicode="&#x25be;" horiz-adv-x="1157" 
d="M1034 1034l-456 -755l-455 755h911z" />
    <glyph glyph-name="uni25C2" unicode="&#x25c2;" horiz-adv-x="1042" 
d="M858 254l-756 457l756 454v-911z" />
    <glyph glyph-name="R.ss02" horiz-adv-x="1411" 
d="M702 1016h-141v-271h141q63 0 104 41q40 42 40 102t-39 94t-105 34zM705 1407q305 0 467 -134t161 -390q0 -307 -266 -441h-2l367 -442h-574l-293 356h-4v-356h-479v1393q410 14 623 14z" />
    <glyph glyph-name="Racute.ss02" horiz-adv-x="1411" 
d="M702 1016h-141v-271h141q63 0 104 41q40 42 40 102t-39 94t-105 34zM705 1407q305 0 467 -134t161 -390q0 -307 -266 -441h-2l367 -442h-574l-293 356h-4v-356h-479v1393q410 14 623 14zM1176 1823l-308 -328h-426l211 328h523z" />
    <glyph glyph-name="Rcaron.ss02" horiz-adv-x="1411" 
d="M702 1016h-141v-271h141q63 0 104 41q40 42 40 102t-39 94t-105 34zM705 1407q305 0 467 -134t161 -390q0 -307 -266 -441h-2l367 -442h-574l-293 356h-4v-356h-479v1393q410 14 623 14zM862 1495h-395l-272 328h385l86 -111l84 111h385z" />
    <glyph glyph-name="Rcommaaccent.ss02" horiz-adv-x="1411" 
d="M494 -297q0 80 57 134t139 54t140 -54q58 -53 58 -121t-37 -137q-38 -69 -146 -210h-199l94 182q-106 47 -106 152zM702 1016h-141v-271h141q63 0 104 41q40 42 40 102t-39 94t-105 34zM705 1407q305 0 467 -134t161 -390q0 -307 -266 -441h-2l367 -442h-574l-293 356h-4
v-356h-479v1393q410 14 623 14z" />
    <glyph glyph-name="Q.ss04" horiz-adv-x="1609" 
d="M1479 -80v-352q-362 0 -707 61v291h707zM805 397q121 0 193 82t73 217q0 135 -73 217q-74 82 -194 82t-193 -82t-73 -217t74 -217q72 -82 193 -82zM805 1423q340 1 547 -199t207 -528t-207 -528t-547 -199q-340 0 -547 200q-207 199 -207 527t207 528t547 199z" />
    <glyph glyph-name="i.loclTRK" horiz-adv-x="604" 
d="M532 1024v-1024h-460v1024h460zM301 1130q-96 0 -163 62q-66 62 -66 158q0 94 66 157q67 63 163 63t164 -62q67 -64 67 -158t-68 -157t-163 -63z" />
    <glyph glyph-name="germandbls.case" horiz-adv-x="2727" 
d="M2071 1024q-111 0 -111 -55q0 -40 74 -59q23 -5 41 -9t52 -11q250 -52 397 -150q147 -99 147 -313t-159 -336q-158 -122 -440 -122t-702 129l105 391q647 -206 647 -67q0 21 -16 31t-27 15q-10 5 -34 11q-23 6 -55 14t-83 19q-258 58 -369 150t-111 278q0 233 161 356
t466 123t604 -90l-80 -403q-338 98 -507 98zM737 1024q-111 0 -110 -55q0 -39 73 -59q23 -5 41 -9q19 -4 53 -11q415 -84 505 -277q38 -79 38 -185q-1 -215 -159 -337t-440 -122t-701 129l104 391q649 -206 647 -67q0 37 -72 56q-28 7 -61 16t-82 18q-259 58 -369 150
t-110 278q0 233 161 356t466 123t604 -90l-80 -403q-338 98 -508 98z" />
    <glyph glyph-name="y.ss01" horiz-adv-x="1267" 
d="M1210 1024v-1024q0 -270 -162 -415q-163 -144 -475 -144q-195 0 -389 61l54 340q190 -37 306 -37t158 42q43 42 48 139q-66 -2 -285 -2q-174 0 -284 104t-109 291v645h460v-553q0 -90 29 -109q29 -18 65 -18t124 6v674h460z" />
    <glyph glyph-name="yacute.ss01" horiz-adv-x="1267" 
d="M1210 1024v-1024q0 -270 -162 -415q-163 -144 -475 -144q-195 0 -389 61l54 340q190 -37 306 -37t158 42q43 42 48 139q-66 -2 -285 -2q-174 0 -284 104t-109 291v645h460v-553q0 -90 29 -109q29 -18 65 -18t124 6v674h460zM1145 1475l-307 -328h-426l211 328h522z" />
    <glyph glyph-name="ycircumflex.ss01" horiz-adv-x="1267" 
d="M1210 1024v-1024q0 -270 -162 -415q-163 -144 -475 -144q-195 0 -389 61l54 340q190 -37 306 -37t158 42q43 42 48 139q-66 -2 -285 -2q-174 0 -284 104t-109 291v645h460v-553q0 -90 29 -109q29 -18 65 -18t124 6v674h460zM635 1257l-86 -110h-385l272 328h395l273 -328
h-385z" />
    <glyph glyph-name="ydieresis.ss01" horiz-adv-x="1267" 
d="M1210 1024v-1024q0 -270 -162 -415q-163 -144 -475 -144q-195 0 -389 61l54 340q190 -37 306 -37t158 42q43 42 48 139q-66 -2 -285 -2q-174 0 -284 104t-109 291v645h460v-553q0 -90 29 -109q29 -18 65 -18t124 6v674h460zM897 1571q96 1 164 -63q67 -64 67 -158
t-67 -157q-68 -63 -164 -63t-163 62q-66 62 -66 158q0 94 66 158t163 63zM600 1350q0 -94 -68 -156t-164 -64q-96 0 -162 62q-67 62 -67 158q0 94 67 158t163 63q95 1 163 -63t68 -158z" />
    <glyph glyph-name="ygrave.ss01" horiz-adv-x="1267" 
d="M1210 1024v-1024q0 -270 -162 -415q-163 -144 -475 -144q-195 0 -389 61l54 340q190 -37 306 -37t158 42q43 42 48 139q-66 -2 -285 -2q-174 0 -284 104t-109 291v645h460v-553q0 -90 29 -109q29 -18 65 -18t124 6v674h460zM838 1147h-426l-308 328h523z" />
    <glyph glyph-name="a.ss03" horiz-adv-x="1206" 
d="M563 250q29 0 111 4v127l-123 -6q-86 -6 -86 -62q0 -63 98 -63zM455 -31q-197 0 -305 93t-109 239q0 293 408 315l225 13v6q0 31 -28 50t-75 20q-154 0 -395 -31l-47 334q315 43 528 46q213 2 345 -102t133 -293v-639q-360 -51 -680 -51z" />
    <glyph glyph-name="aacute.ss03" horiz-adv-x="1206" 
d="M563 250q29 0 111 4v127l-123 -6q-86 -6 -86 -62q0 -63 98 -63zM455 -31q-197 0 -305 93t-109 239q0 293 408 315l225 13v6q0 31 -28 50t-75 20q-154 0 -395 -31l-47 334q315 43 528 46q213 2 345 -102t133 -293v-639q-360 -51 -680 -51zM1102 1475l-307 -328h-426
l211 328h522z" />
    <glyph glyph-name="abreve.ss03" horiz-adv-x="1206" 
d="M563 250q29 0 111 4v127l-123 -6q-86 -6 -86 -62q0 -63 98 -63zM455 -31q-197 0 -305 93t-109 239q0 293 408 315l225 13v6q0 31 -28 50t-75 20q-154 0 -395 -31l-47 334q315 43 528 46q213 2 345 -102t133 -293v-639q-360 -51 -680 -51zM698 1520h316q0 -180 -118 -284
t-304 -106q-186 0 -304 104t-118 286h315q0 -41 31 -74t76 -33t76 33q30 33 30 74z" />
    <glyph glyph-name="acaron.ss03" horiz-adv-x="1206" 
d="M563 250q29 0 111 4v127l-123 -6q-86 -6 -86 -62q0 -63 98 -63zM455 -31q-197 0 -305 93t-109 239q0 293 408 315l225 13v6q0 31 -28 50t-75 20q-154 0 -395 -31l-47 334q315 43 528 46q213 2 345 -102t133 -293v-639q-360 -51 -680 -51zM788 1147h-395l-272 328h385
l86 -111l84 111h385z" />
    <glyph glyph-name="acircumflex.ss03" horiz-adv-x="1206" 
d="M563 250q29 0 111 4v127l-123 -6q-86 -6 -86 -62q0 -63 98 -63zM455 -31q-197 0 -305 93t-109 239q0 293 408 315l225 13v6q0 31 -28 50t-75 20q-154 0 -395 -31l-47 334q315 43 528 46q213 2 345 -102t133 -293v-639q-360 -51 -680 -51zM592 1257l-86 -110h-385l272 328
h395l273 -328h-385z" />
    <glyph glyph-name="adieresis.ss03" horiz-adv-x="1206" 
d="M563 250q29 0 111 4v127l-123 -6q-86 -6 -86 -62q0 -63 98 -63zM455 -31q-197 0 -305 93t-109 239q0 293 408 315l225 13v6q0 31 -28 50t-75 20q-154 0 -395 -31l-47 334q315 43 528 46q213 2 345 -102t133 -293v-639q-360 -51 -680 -51zM854 1571q96 1 164 -63t68 -158
t-68 -157t-164 -63t-163 62t-67 158q0 94 68 158q66 64 162 63zM557 1350q0 -94 -68 -156q-67 -62 -163 -64q-96 0 -163 62t-67 158q0 94 67 158t163 63q96 1 164 -63t67 -158z" />
    <glyph glyph-name="agrave.ss03" horiz-adv-x="1206" 
d="M563 250q29 0 111 4v127l-123 -6q-86 -6 -86 -62q0 -63 98 -63zM455 -31q-197 0 -305 93t-109 239q0 293 408 315l225 13v6q0 31 -28 50t-75 20q-154 0 -395 -31l-47 334q315 43 528 46q213 2 345 -102t133 -293v-639q-360 -51 -680 -51zM795 1147h-426l-308 328h523z
" />
    <glyph glyph-name="amacron.ss03" horiz-adv-x="1206" 
d="M563 250q29 0 111 4v127l-123 -6q-86 -6 -86 -62q0 -63 98 -63zM455 -31q-197 0 -305 93t-109 239q0 293 408 315l225 13v6q0 31 -28 50t-75 20q-154 0 -395 -31l-47 334q315 43 528 46q213 2 345 -102t133 -293v-639q-360 -51 -680 -51zM899 1460v-321h-614v321h614z
" />
    <glyph glyph-name="aogonek.ss03" horiz-adv-x="1206" 
d="M465 313q0 -63 98 -63q29 0 111 4v127l-123 -6q-86 -6 -86 -62zM1028 -59q0 -55 88 -55q44 0 105 18l41 -344q-70 -39 -216 -39t-248 80q-104 80 -104 194t97 185q-147 -10 -340 -10t-301 92q-108 93 -109 239q0 293 408 315l225 13v6q0 31 -28 50t-75 20
q-154 0 -395 -31l-47 334q315 43 528 46q213 2 345 -102t133 -293v-639q-59 -20 -83 -37t-24 -42z" />
    <glyph glyph-name="aring.ss03" horiz-adv-x="1206" 
d="M563 250q29 0 111 4v127l-123 -6q-86 -6 -86 -62q0 -63 98 -63zM455 -31q-197 0 -305 93t-109 239q0 293 408 315l225 13v6q0 31 -28 50t-75 20q-154 0 -395 -31l-47 334q315 43 528 46q213 2 345 -102t133 -293v-639q-360 -51 -680 -51zM590 1341q47 0 76 28t28 73
q0 44 -28 72t-76 28q-47 0 -76 -28t-29 -72t29 -73q29 -28 76 -28zM590 1733q137 0 226 -81t89 -210t-89 -210t-226 -81t-225 81t-89 210q0 129 88 210t226 81z" />
    <glyph glyph-name="atilde.ss03" horiz-adv-x="1206" 
d="M563 250q29 0 111 4v127l-123 -6q-86 -6 -86 -62q0 -63 98 -63zM455 -31q-197 0 -305 93t-109 239q0 293 408 315l225 13v6q0 31 -28 50t-75 20q-154 0 -395 -31l-47 334q315 43 528 46q213 2 345 -102t133 -293v-639q-360 -51 -680 -51zM735 1499h299q0 -127 -47 -213
q-85 -155 -264 -143q-76 4 -137 41l-35 20q-70 41 -70 -49h-299q0 127 47 213q82 150 263 140q76 -3 139 -38l35 -20q69 -37 69 49z" />
    <glyph glyph-name="f_b" horiz-adv-x="2267" 
d="M1612 340q74 0 125 49t51 131t-51 133t-123 52q-27 0 -125 -9v-346q103 -10 123 -10zM1712 1055q220 1 362 -147t152 -390q0 -145 -51 -257t-132 -172q-162 -120 -321 -120t-235 8q-77 8 -459 43v1170q-123 39 -215 39q-176 0 -176 -156v-49h285v-408h-285v-616h-459v616
h-178v408h178v109q0 233 153 360t359 127q94 0 152 -10t202 -56l445 -20v-487q100 8 223 8z" />
    <glyph glyph-name="f_f_b" horiz-adv-x="3131" 
d="M2476 340q74 0 125 49t51 131t-51 133t-123 52q-27 0 -125 -9v-346q103 -10 123 -10zM1042 1024v131q-102 74 -217 74q-188 0 -188 -176v-29h405zM2576 1055q220 1 362 -147t152 -390q0 -145 -51 -257t-132 -172q-162 -120 -321 -120t-235 8q-77 8 -459 43v1170
q-123 39 -215 39q-176 0 -176 -156v-49h285v-408h-285v-616h-459v616h-405v-616h-459v616h-178v408h178v47q0 245 170 397t420 152t432 -125q143 125 354 125q94 0 152 -10t203 -56l444 -20v-487q100 8 223 8z" />
    <glyph glyph-name="f_f_f" horiz-adv-x="2654" 
d="M1907 1024v133q-104 72 -217 72q-188 0 -189 -176v-29h406zM1042 1024v47q0 43 7 82q-109 76 -224 76q-188 0 -188 -176v-29h405zM2365 1024h285v-408h-285v-616h-458v616h-406v-616h-459v616h-405v-616h-459v616h-178v408h178v47q0 245 170 397t429 152t448 -141
q168 141 404 141t409 -107q113 106 299 107q137 0 313 -27l-33 -352q-68 8 -130 8q-62 1 -92 -31t-30 -104v-90z" />
    <glyph glyph-name="f_f_h" horiz-adv-x="3102" 
d="M1042 1024v131q-102 74 -217 74q-188 0 -188 -176v-29h405zM2649 1055q165 0 273 -109t109 -287v-659h-461v516q0 57 -16 88t-32 35t-49 4q-32 0 -120 -6v-637h-461v1190q-123 39 -215 39q-176 0 -176 -156v-49h285v-408h-285v-616h-459v616h-405v-616h-459v616h-178v408
h178v47q0 245 170 397t420 152t432 -125q143 125 354 125q94 0 152 -10t203 -56l444 -20v-490q131 11 296 11z" />
    <glyph glyph-name="f_f_j" horiz-adv-x="2433" 
d="M1042 1024v47q0 43 7 82q-109 76 -224 76q-188 0 -188 -176v-29h405zM2353 1024v-942q0 -296 -94 -400t-265 -140q-97 -19 -227 -21l-18 362q62 9 80 19t29 15q34 17 34 85v614h-391v-616h-459v616h-405v-616h-459v616h-178v408h178v47q0 245 170 397t429 152t448 -141
q168 141 411 141q336 0 541 -223l-235 -267q-125 98 -252 99q-188 0 -189 -176v-29h852z" />
    <glyph glyph-name="f_f_k" horiz-adv-x="3153" 
d="M1042 1024v131q-102 74 -217 74q-188 0 -188 -176v-29h405zM2353 299v-299h-461v1190q-123 39 -215 39q-176 0 -176 -156v-49h285v-408h-285v-616h-459v616h-405v-616h-459v616h-178v408h178v47q0 245 170 397t420 152t432 -125q143 125 354 125q94 0 152 -10t203 -56
l444 -20v-817h2l230 307h505l-319 -428l373 -596h-521l-176 299h-94z" />
    <glyph glyph-name="f_f_t" horiz-adv-x="2715" 
d="M1042 1024v133q-104 72 -217 72q-188 0 -188 -176v-29h405zM1874 457v159h-373v-616h-459v616h-405v-616h-459v616h-178v408h178v47q0 245 170 397t412 152t414 -107q114 107 280 107t297 -21l-31 -354q-70 4 -84 4q-76 1 -106 -31t-29 -104v-90h373v307h461v-307h286
v-408h-286v-120q0 -115 104 -115q11 0 197 18l39 -368q-193 -61 -394 -61t-304 124q-103 125 -103 363z" />
    <glyph glyph-name="f_h" horiz-adv-x="2238" 
d="M1785 1055q165 0 273 -109t109 -287v-659h-461v516q0 57 -16 88t-32 35t-49 4q-32 0 -120 -6v-637h-461v1190q-123 39 -215 39q-176 0 -176 -156v-49h285v-408h-285v-616h-459v616h-178v408h178v109q0 233 153 360t359 127q94 0 152 -10t202 -56l445 -20v-490
q131 11 296 11z" />
    <glyph glyph-name="f_j" horiz-adv-x="1568" 
d="M1489 1024v-942q0 -296 -94 -400q-94 -105 -266 -140q-97 -19 -226 -21l-18 362q62 9 80 19t28 15q35 18 35 85v614h-391v-616h-459v616h-178v408h178v47q0 245 170 397t424 152q336 0 541 -223l-236 -267q-125 98 -252 99q-188 0 -188 -176v-29h852z" />
    <glyph glyph-name="f_k" horiz-adv-x="2289" 
d="M1489 299v-299h-461v1190q-123 39 -215 39q-176 0 -176 -156v-49h285v-408h-285v-616h-459v616h-178v408h178v109q0 233 153 360t359 127q94 0 152 -10t202 -56l445 -20v-817h2l229 307h506l-319 -428l372 -596h-520l-176 299h-94z" />
    <glyph glyph-name="f_t" horiz-adv-x="1851" 
d="M1010 457v159h-373v-616h-459v616h-178v408h178v129q0 227 118 347t312 120q147 0 279 -21l-31 -354q-70 4 -84 4q-76 1 -106 -31t-29 -104v-90h373v307h460v-307h287v-408h-287v-120q0 -115 105 -115q11 0 197 18l38 -368q-194 -61 -394 -61t-303 124q-103 125 -103 363
z" />
    <glyph glyph-name="r_f" horiz-adv-x="1740" 
d="M1452 1024h285v-408h-285v-616h-459v602q-240 -6 -452 -22v-580h-461v958q344 63 913 66v129q0 227 118 347t312 120q137 0 314 -27l-33 -352q-68 8 -130 8q-62 1 -92 -31t-30 -104v-90z" />
    <glyph glyph-name="r_t" horiz-adv-x="1802" 
d="M1421 1044h287v-407h-287v-141q0 -115 105 -115q10 0 196 18l39 -368q-193 -61 -393 -61t-304 124q-103 125 -103 363v164q-141 -2 -420 -21v-600h-461v979q449 63 881 65v287h460v-287z" />
    <glyph glyph-name="zero.osf" horiz-adv-x="1286" 
d="M643 342q88 0 150 59q61 59 61 155t-61 156t-149 60t-150 -59t-62 -155t62 -156t149 -60zM643 1139q264 0 433 -161t169 -421t-169 -421t-433 -161t-433 161t-169 421t169 421t433 161z" />
    <glyph glyph-name="one.osf" horiz-adv-x="1077" 
d="M1067 389v-389h-1030v389h328v221l-263 -57l-82 385l611 176h174v-725h262z" />
    <glyph glyph-name="two.osf" horiz-adv-x="1136" 
d="M578 1149q236 0 364 -108q127 -108 127 -279q0 -119 -61 -202t-168 -159l-21 -14h266v-387h-1019v309l231 107q199 96 262 149t64 107q0 92 -115 92t-410 -66l-71 361q315 90 551 90z" />
    <glyph glyph-name="three.osf" horiz-adv-x="1302" 
d="M1231 168q0 -227 -151 -353t-421 -126q-168 -1 -298 25t-320 89l98 326q303 -96 510 -96q88 0 138 36q51 36 51 94t-58 88t-155 30h-246v161l287 308h-551v362h1065v-215l-303 -350l32 -6q150 -27 236 -126t86 -247z" />
    <glyph glyph-name="four.osf" horiz-adv-x="1374" 
d="M791 307v340l-297 -340h297zM1182 307h151v-307h-151v-279h-391v279h-760v266l760 848h391v-807z" />
    <glyph glyph-name="five.osf" horiz-adv-x="1267" 
d="M580 -309q-248 0 -525 116l88 338q264 -90 459 -90t195 119q1 68 -61 98t-195 35l-391 19l81 788h908v-393h-537l-10 -92l86 -6q535 -37 534 -451q0 -221 -154 -351t-478 -130z" />
    <glyph glyph-name="six.osf" horiz-adv-x="1302" 
d="M651 328q90 0 146 52q55 52 55 135t-55 133t-145 50t-146 -50q-55 -50 -55 -133t55 -135t145 -52zM1262 518q0 -248 -168 -398t-442 -151q-274 0 -443 151q-168 151 -168 398q0 166 109 309l434 566h503l-299 -377q218 -35 346 -168t128 -330z" />
    <glyph glyph-name="seven.osf" horiz-adv-x="1222" 
d="M41 721v391h1151v-235l-494 -1158h-465l431 1002h-623z" />
    <glyph glyph-name="eight.osf" horiz-adv-x="1282" 
d="M641 322q63 0 100 36t37 96q0 58 -38 94t-99 36t-99 -36t-38 -94t37 -95t100 -37zM514 987q0 -53 35 -85t92 -32t92 32t35 85t-35 86t-92 33t-92 -33t-35 -86zM1241 383q0 -201 -156 -307q-157 -106 -445 -106t-444 106t-155 307q0 244 264 344q-203 88 -203 305
q0 170 153 281t386 111t386 -112q153 -110 153 -280q0 -217 -203 -305q264 -100 264 -344z" />
    <glyph glyph-name="nine.osf" horiz-adv-x="1323" 
d="M451 599q0 -83 55 -133t145 -50t146 50q55 50 55 133t-55 135t-145 52t-146 -52q-55 -52 -55 -135zM651 1145q275 0 443 -151t168 -398q0 -135 -86 -283l-355 -592h-504l228 373q-231 27 -368 162q-136 135 -136 340q0 248 168 398t442 151z" />
    <glyph glyph-name="zero.osf.zero" horiz-adv-x="1286" 
d="M643 342q88 0 150 59q61 59 61 156q0 47 -16 86l-281 -285q43 -16 86 -16zM643 772q-88 0 -149 -59t-62 -156q0 -47 14 -82l277 283q-35 14 -80 14zM643 1139q264 0 433 -161t169 -421t-169 -421t-433 -161t-433 161t-169 421t169 421t433 161z" />
    <glyph glyph-name="three.ss05" horiz-adv-x="1251" 
d="M646 -31q-267 0 -605 115l104 348q121 -38 261 -66t215 -28q139 0 139 96t-139 96h-250v332h250q139 0 139 99q0 94 -144 94q-178 0 -471 -94l-104 348q337 115 605 115t422 -116t153 -311q1 -125 -59 -193t-175 -114q117 -42 175 -108t59 -185q0 -195 -154 -311
t-421 -117z" />
    <glyph glyph-name="zero.tf" horiz-adv-x="1372" 
d="M686 367q102 0 170 91t68 238q0 146 -68 238t-170 92t-170 -91t-68 -239t68 -238q68 -91 170 -91zM686 1423q293 -1 477 -201q185 -200 185 -526t-184 -526t-478 -201q-293 0 -477 201q-184 200 -184 526t184 526t477 201z" />
    <glyph glyph-name="one.tf" horiz-adv-x="1372" 
d="M1292 0h-1198v389h395v500l-262 -58l-82 386l611 176h174v-1004h362v-389z" />
    <glyph glyph-name="two.tf" horiz-adv-x="1372" 
d="M1272 0h-1143v309l408 328q92 74 139 126t56 75t9 49q0 131 -148 131t-413 -78l-90 371q336 113 586 113t382 -128q134 -127 134 -338q0 -152 -69 -262t-212 -225l-100 -82h461v-389z" />
    <glyph glyph-name="three.tf" horiz-adv-x="1372" 
d="M1270 455q0 -231 -148 -359t-417 -127q-166 0 -293 25t-322 90l105 348q301 -94 499 -94q156 0 156 119q0 43 -49 69t-131 25h-250v172l250 283h-506v387h1055v-228l-269 -331l29 -7q135 -27 213 -128t78 -244z" />
    <glyph glyph-name="four.tf" horiz-adv-x="1372" 
d="M772 551v375l-256 -375h256zM1163 551h152v-348h-152v-203h-391v203h-719v307l719 883h391v-842z" />
    <glyph glyph-name="five.tf" horiz-adv-x="1372" 
d="M1280 451q0 -221 -154 -351t-479 -131q-248 0 -547 117l109 338q262 -88 448 -88t187 110q0 115 -195 125l-434 23l82 799h909v-410h-536l-13 -76l88 -4q535 -27 535 -452z" />
    <glyph glyph-name="six.tf" horiz-adv-x="1372" 
d="M680 328q90 0 145 52t55 135t-54 133q-56 50 -146 50t-145 -50t-55 -133t54 -135q56 -52 146 -52zM1290 518q0 -248 -168 -398t-442 -151q-274 0 -442 151t-168 398q0 166 108 309l434 566h504l-299 -377q217 -35 345 -168t128 -330z" />
    <glyph glyph-name="seven.tf" horiz-adv-x="1372" 
d="M88 983v410h1204v-246l-594 -1147h-505l526 983h-631z" />
    <glyph glyph-name="eight.tf" horiz-adv-x="1372" 
d="M686 322q63 0 100 36t37 96q0 58 -38 94t-99 36t-99 -36t-38 -94t37 -95t100 -37zM559 987q0 -53 35 -85t92 -32t92 32t35 85t-35 86t-92 33t-92 -33t-35 -86zM1286 383q0 -201 -156 -307t-444 -106t-444 106t-156 307q0 244 264 344q-203 88 -203 305q0 170 153 281
t386 111t386 -112q153 -110 153 -280q0 -217 -203 -305q264 -100 264 -344z" />
    <glyph glyph-name="nine.tf" horiz-adv-x="1372" 
d="M684 1065q-90 0 -146 -52t-55 -135q-1 -84 55 -134t146 -50t145 50t55 134t-54 135q-56 52 -146 52zM684 1423q274 -1 442 -151t168 -398q0 -135 -86 -282l-354 -592h-504l228 373q-231 27 -368 162q-136 135 -136 339q0 248 168 398t442 151z" />
    <glyph glyph-name="zero.zero" horiz-adv-x="1466" 
d="M733 367q117 0 188 90t70 239q0 74 -18 133l-314 -452q37 -10 74 -10zM733 1026q-117 0 -187 -90t-71 -240q0 -61 12 -112l304 436q-27 6 -58 6zM733 1423q307 0 495 -199q187 -200 187 -528t-187 -528q-186 -200 -494 -199q-308 0 -495 200q-187 199 -187 527t186 528
q188 200 495 199z" />
    <glyph glyph-name="zero.dnom" horiz-adv-x="972" 
d="M486 608q-74 0 -118 -51t-44 -134t44 -134t118 -51q73 0 118 51t45 134t-45 134t-118 51zM485 862q201 0 324 -121t123 -319t-123 -318t-324 -120t-323 120t-121 319q-1 199 121 319t323 120z" />
    <glyph glyph-name="one.dnom" horiz-adv-x="684" 
d="M664 258v-258h-607v258h160v272l-143 -30l-54 235l377 107h111v-584h156z" />
    <glyph glyph-name="two.dnom" horiz-adv-x="759" 
d="M739 0h-694v199l320 237q63 45 63 94q0 70 -90 70t-270 -55l-48 243q205 72 371 72t251 -77t85 -185t-40 -174t-136 -137l-49 -37h237v-250z" />
    <glyph glyph-name="three.dnom" horiz-adv-x="778" 
d="M768 281q0 -143 -93 -221t-267 -76q-174 0 -398 69l70 226q409 -119 409 4q0 49 -83 49h-189v108l160 154h-320v250h705v-144l-182 -192l8 -2q180 -57 180 -225z" />
    <glyph glyph-name="four.dnom" horiz-adv-x="868" 
d="M498 362v193l-166 -193h166zM760 362h98v-221h-98v-141h-262v141h-488v199l459 502h291v-480z" />
    <glyph glyph-name="five.dnom" horiz-adv-x="780" 
d="M770 272q0 -130 -99 -210q-99 -78 -289 -78t-372 69l72 217q162 -53 280 -53t117 55q0 37 -27 52q-28 14 -87 18l-279 14l51 488h584v-250h-332l-8 -59l43 -3q176 -8 261 -69t85 -191z" />
    <glyph glyph-name="six.dnom" horiz-adv-x="786" 
d="M393 213q49 0 79 28q30 29 30 75t-30 74t-79 28t-79 -28t-30 -75t30 -75t79 -27zM766 302q0 -138 -103 -228t-269 -90t-270 91q-103 91 -104 242q0 82 56 172l213 355h319l-137 -223q135 -17 215 -99t80 -220z" />
    <glyph glyph-name="seven.dnom" horiz-adv-x="753" 
d="M10 580v262h733v-160l-297 -682h-321l252 580h-367z" />
    <glyph glyph-name="eight.dnom" horiz-adv-x="794" 
d="M317 281q-1 -33 21 -53t58 -19q36 0 59 19q23 18 23 52q-1 70 -83 70q-35 0 -57 -18t-21 -51zM324 598q0 -61 72 -61t71 62q0 62 -72 63q-33 0 -52 -18t-19 -46zM784 238q0 -119 -102 -187q-102 -67 -286 -67t-284 68q-101 68 -102 186q0 162 168 219q-121 55 -121 163
q1 108 95 176q94 66 244 66t243 -66q92 -66 92 -176t-117 -161q170 -61 170 -221z" />
    <glyph glyph-name="nine.dnom" horiz-adv-x="786" 
d="M393 631q-49 0 -79 -29t-29 -75q-1 -45 29 -73t79 -28t79 28t30 74t-30 74q-30 29 -79 29zM766 524q0 -78 -55 -172l-213 -352h-320l139 223q-135 17 -216 99t-81 218t104 228t269 92t269 -92t104 -244z" />
    <glyph glyph-name="zero.numr" horiz-adv-x="972" 
d="M486 1159q-74 0 -118 -51t-44 -134q0 -82 44 -134t118 -52q73 0 118 52t45 134q0 83 -45 134t-118 51zM485 1413q201 0 324 -121q123 -120 123 -318t-123 -319t-324 -121t-323 122q-122 120 -121 318q-1 198 121 318t323 121z" />
    <glyph glyph-name="one.numr" horiz-adv-x="684" 
d="M664 809v-258h-607v258h160v272l-143 -30l-54 235l377 107h111v-584h156z" />
    <glyph glyph-name="two.numr" horiz-adv-x="759" 
d="M739 553h-694v199l320 237q63 45 63 94q0 70 -90 70t-270 -55l-48 243q205 72 371 72t251 -77t85 -185t-40 -174t-136 -137l-49 -37h237v-250z" />
    <glyph glyph-name="three.numr" horiz-adv-x="778" 
d="M768 831q0 -143 -93 -220t-267 -77t-398 70l70 225q203 -59 306 -59t103 64q0 49 -83 49h-189v108l160 154h-320v250h705v-144l-182 -192l8 -2q180 -57 180 -226z" />
    <glyph glyph-name="four.numr" horiz-adv-x="868" 
d="M498 913v193l-166 -193h166zM760 913h98v-221h-98v-141h-262v141h-488v199l459 502h291v-480z" />
    <glyph glyph-name="five.numr" horiz-adv-x="780" 
d="M770 822q0 -130 -99 -209t-289 -79t-372 70l72 217q162 -53 280 -53t117 55q0 37 -27 51q-28 14 -87 19l-279 14l51 488h584v-250h-332l-8 -60l43 -2q176 -8 261 -69q85 -62 85 -192z" />
    <glyph glyph-name="six.numr" horiz-adv-x="786" 
d="M393 764q49 0 79 28t30 74t-30 75q-30 28 -79 28t-79 -28t-30 -75q0 -46 30 -74t79 -28zM766 854q0 -138 -103 -228t-269 -91q-166 0 -270 91q-103 91 -104 242q0 82 56 172l213 355h319l-137 -224q135 -18 215 -99q80 -80 80 -218z" />
    <glyph glyph-name="seven.numr" horiz-adv-x="753" 
d="M10 1130v263h733v-160l-297 -682h-321l252 579h-367z" />
    <glyph glyph-name="eight.numr" horiz-adv-x="794" 
d="M396 901q-36 0 -58 -18q-22 -17 -21 -51q-1 -34 21 -53t58 -19t59 19t22 52q0 33 -22 52q-23 18 -59 18zM324 1150q0 -28 19 -45t52 -18q72 1 72 63t-72 62q-33 0 -52 -17t-19 -45zM784 788q0 -118 -102 -186t-286 -68t-284 68q-101 68 -102 186q0 162 168 220
q-121 56 -121 164q1 108 95 175t244 67t243 -68q92 -66 92 -176t-117 -160q170 -61 170 -222z" />
    <glyph glyph-name="nine.numr" horiz-adv-x="786" 
d="M393 1182q-49 0 -79 -29t-29 -75q-1 -46 29 -74t79 -27q49 0 79 28q30 27 30 73t-30 75t-79 29zM766 1075q0 -78 -55 -172l-213 -352h-320l139 223q-135 18 -216 99t-81 217t104 229q104 92 269 92t269 -92t104 -244z" />
    <glyph glyph-name="braceleft.case" horiz-adv-x="815" 
d="M657 1112v-111q0 -229 -247 -313q248 -88 247 -315v-111q0 -51 25 -66t92 -16v-444q-575 0 -575 467v213q0 51 -46 83t-112 31v314q66 0 112 32t46 82v213q0 467 575 467v-444q-68 0 -92 -16t-25 -66z" />
    <glyph glyph-name="braceright.case" horiz-adv-x="815" 
d="M158 1001v111q0 50 -25 66t-92 16v444q575 0 575 -467v-213q0 -50 46 -82t112 -32v-314q-66 0 -112 -32t-46 -82v-213q0 -467 -575 -467v444q69 0 93 16t24 66v111q0 227 248 315q-248 84 -248 313z" />
    <glyph glyph-name="bracketleft.case" horiz-adv-x="874" 
d="M543 188h291v-413h-752v1843h752v-414h-291v-1016z" />
    <glyph glyph-name="bracketright.case" horiz-adv-x="874" 
d="M31 1204v414h751v-1843h-751v413h291v1016h-291z" />
    <glyph glyph-name="parenleft.case" horiz-adv-x="829" 
d="M543 688q0 -205 50 -348t187 -406l-383 -210q-180 252 -263 471t-83 493t84 502t262 459l383 -211q-131 -233 -184 -389t-53 -361z" />
    <glyph glyph-name="parenright.case" horiz-adv-x="811" 
d="M760 688q0 -274 -83 -493t-263 -471l-383 210q137 262 187 406t50 348q0 205 -53 361t-184 389l383 211q178 -231 262 -459t84 -502z" />
    <glyph glyph-name="emdash.case" horiz-adv-x="2177" 
d="M2034 483h-1891v414h1891v-414z" />
    <glyph glyph-name="endash.case" horiz-adv-x="1181" 
d="M1100 483h-1018v414h1018v-414z" />
    <glyph glyph-name="hyphen.case" horiz-adv-x="1013" 
d="M868 479h-727v414h727v-414z" />
    <glyph glyph-name="guillemotleft.case" horiz-adv-x="1433" 
d="M1352 422l-273 -240l-424 496l424 496l273 -240l-209 -256zM737 422l-272 -240l-424 496l424 496l272 -240l-209 -256z" />
    <glyph glyph-name="guillemotright.case" horiz-adv-x="1433" 
d="M696 934l273 240l424 -496l-424 -496l-273 240l209 256zM82 934l272 240l424 -496l-424 -496l-272 240l209 256z" />
    <glyph glyph-name="guilsinglleft.case" horiz-adv-x="819" 
d="M737 422l-272 -240l-424 496l424 496l272 -240l-209 -256z" />
    <glyph glyph-name="guilsinglright.case" horiz-adv-x="819" 
d="M82 934l272 240l424 -496l-424 -496l-272 240l209 256z" />
    <glyph glyph-name="backslash.case" horiz-adv-x="1026" 
d="M459 1573l547 -1798h-439l-547 1798h439z" />
    <glyph glyph-name="bullet.case" horiz-adv-x="870" 
d="M441 305q-159 1 -269 105t-111 260q0 156 111 260q112 104 270 104t271 -104t113 -260t-114 -260q-112 -104 -271 -105z" />
    <glyph glyph-name="exclamdown.case" horiz-adv-x="622" 
d="M113 893h438l41 -893h-520zM102 1200q0 96 68 160t165 63q97 0 166 -63q69 -64 69 -158t-70 -159q-68 -65 -164 -65t-165 64q-69 62 -69 158z" />
    <glyph glyph-name="periodcentered.case" horiz-adv-x="716" 
d="M358 449q-106 1 -181 71t-75 174t75 174t181 70t182 -71t74 -174q0 -103 -74 -174q-76 -70 -182 -70z" />
    <glyph glyph-name="questiondown.case" horiz-adv-x="1017" 
d="M575 -31q-251 0 -403 119t-152 303t106 310t284 126h4l-2 86h401l37 -362h-229q-180 0 -181 -105q0 -109 168 -108q84 0 334 41l55 -359q-232 -51 -422 -51zM598 979q-96 1 -165 65t-69 158t69 158q69 63 166 63t165 -63q68 -62 68 -158t-69 -160q-69 -63 -165 -63z" />
    <glyph glyph-name="slash.case" horiz-adv-x="1015" 
d="M459 -190h-439l537 1763h438z" />
    <glyph glyph-name="florin.tf" horiz-adv-x="1372" 
d="M1070 1053q-54 0 -80 -30t-36 -105l-2 -9h287v-407h-338l-8 -66q-57 -467 -430 -467q-184 0 -389 41l35 344q158 -14 211 -14q52 0 78 30t36 105l4 27h-223v407h274l7 47q57 467 430 467q184 0 389 -41l-35 -344q-156 15 -210 15z" />
    <glyph glyph-name="cent.tf" horiz-adv-x="1372" 
d="M934 -199h-322v207q-196 43 -310 181t-114 340t114 342t310 186v211h322v-205q100 -14 217 -49l-53 -328q-207 25 -292 25q-85 -1 -136 -51q-52 -50 -52 -130t52 -128t154 -48q104 0 294 25l33 -328q-117 -35 -217 -49v-201z" />
    <glyph glyph-name="dollar.tf" horiz-adv-x="1372" 
d="M1329 428q0 -182 -117 -299t-331 -149v-179h-322v179q-229 25 -530 118l104 391q647 -206 647 -67q0 37 -78 57q-23 6 -51 14t-86 19q-259 58 -369 150t-110 286t122 315q122 120 351 148v227h322v-227q246 -25 436 -82l-80 -403q-338 98 -508 98q-111 0 -111 -55
q0 -40 74 -59q23 -5 41 -9t52 -11q416 -86 506 -277q38 -79 38 -185z" />
    <glyph glyph-name="Euro.tf" horiz-adv-x="1372" 
d="M851 408q89 0 437 36l51 -397q-281 -78 -541 -78q-260 1 -428 139t-216 390h-115v166h96v32q0 31 2 47h-98v166h123q59 233 232 373t390 141q270 0 559 -77l-71 -396q-270 45 -385 45t-178 -86h309l-41 -166h-332q-2 -14 -2 -47l2 -32h316l-41 -166h-222q64 -90 153 -90z
" />
    <glyph glyph-name="sterling.tf" horiz-adv-x="1372" 
d="M1282 0h-1163v389h100v141h-100v308h100v137q0 195 153 313t402 119q190 0 422 -51l-55 -359q-250 41 -297 41q-174 0 -174 -149v-51h325v-308h-325v-141h612v-389z" />
    <glyph glyph-name="yen.tf" horiz-adv-x="1372" 
d="M1296 588v-207h-370v-80h370v-207h-368v-94h-479v94h-373v207h370v80h-370v207h286l-360 805h524l158 -396l162 396h524l-360 -805h286z" />
    <glyph glyph-name="arrowdown.ss06" horiz-adv-x="1431" 
d="M637 956h160v-280l88 88l112 -111l-280 -280l-281 280l113 111l88 -88v280zM716 256q177 0 305 128t128 305t-128 305t-305 128t-305 -128t-128 -305t128 -305t305 -128zM717 72q-256 0 -437 181t-182 437q0 256 182 436t436 180q255 0 436 -180t181 -436t-180 -437
t-436 -181z" />
    <glyph glyph-name="arrowdownleft.ss06" horiz-adv-x="1433" 
d="M494 465v397l157 -2v-125l199 199l113 -113l-199 -198h125l2 -158h-397zM1149 690q0 180 -125 305t-306 126t-306 -124t-125 -307t125 -307t306 -124t306 126t125 305zM1335 690q0 -256 -181 -436t-437 -181t-437 180t-182 437q0 256 182 436t438 180q255 0 436 -180
t181 -436z" />
    <glyph glyph-name="arrowdownright.ss06" horiz-adv-x="1431" 
d="M940 465h-397l2 158h125l-199 198l113 113l198 -199v125l158 2v-397zM1147 690q0 182 -125 307t-306 124t-306 -126t-125 -305t125 -305t306 -126t306 124t125 307zM1335 690q0 -256 -181 -437t-437 -180t-438 181q-180 180 -181 436q0 256 181 436q182 180 437 180
t437 -180t182 -436z" />
    <glyph glyph-name="arrowleft.ss06" horiz-adv-x="1431" 
d="M983 768v-160h-281l89 -88l-111 -112l-281 280l281 281l111 -113l-89 -88h281zM283 689q0 -177 128 -305t305 -128t305 128t128 305t-128 305t-305 128t-305 -128t-128 -305zM98 688q0 256 182 437t437 181q256 0 436 -180q180 -182 180 -437t-181 -436t-436 -181
q-254 0 -436 180t-182 436z" />
    <glyph glyph-name="arrowright.ss06" horiz-adv-x="1431" 
d="M449 608v160h280l-88 88l111 113l280 -281l-280 -280l-111 112l88 88h-280zM1149 689q0 177 -128 305t-305 128t-305 -128t-128 -305t128 -305t305 -128t305 128t128 305zM1333 688q0 -256 -181 -436t-437 -180t-436 181q-181 181 -181 436t180 436t437 181
q256 0 437 -180q181 -182 181 -438z" />
    <glyph glyph-name="arrowup.ss06" horiz-adv-x="1431" 
d="M797 422h-160v280l-88 -88l-113 111l281 281l280 -281l-112 -111l-88 88v-280zM716 1122q-177 0 -305 -128t-128 -305t128 -305t305 -128t305 128t128 305t-128 305t-305 128zM717 1307q256 1 436 -181t180 -437t-181 -436t-436 -181t-436 180t-182 436q0 256 182 438
t437 181z" />
    <glyph glyph-name="arrowupleft.ss06" horiz-adv-x="1433" 
d="M494 915h397l-2 -157h-125l199 -199l-113 -113l-199 199v-125l-157 -2v397zM287 690q0 -182 125 -307t306 -124t306 126t125 305t-125 305t-306 126t-306 -124t-125 -307zM1335 690q0 -256 -181 -436t-436 -180t-437 180t-183 436q1 256 182 437t437 181t437 -182
q181 -180 181 -436z" />
    <glyph glyph-name="arrowupright.ss06" horiz-adv-x="1431" 
d="M940 915v-397l-158 2v125l-198 -199l-113 113l199 199h-125l-2 157h397zM285 690q0 -180 125 -305t306 -126t306 124t125 307t-125 307t-306 124t-306 -126t-125 -305zM1335 690q0 -256 -182 -436t-437 -180t-437 180q-180 180 -181 436q0 256 181 436q182 180 438 181
t437 -180t181 -437z" />
    <glyph glyph-name="arrowdown.ss08" horiz-adv-x="1431" 
d="M797 956h-160v-280l-88 88l-113 -111l281 -280l280 280l-112 111l-88 -88v280zM717 72q-256 0 -437 181t-182 437q0 256 182 436t436 180q255 0 436 -180t181 -436t-180 -437t-436 -181z" />
    <glyph glyph-name="arrowdownleft.ss08" horiz-adv-x="1433" 
d="M494 465h397l-2 158h-125l199 198l-113 113l-199 -199v125l-157 2v-397zM1335 690q0 -256 -181 -436t-437 -181t-437 180t-182 437q0 256 182 436t438 180q255 0 436 -180t181 -436z" />
    <glyph glyph-name="arrowdownright.ss08" horiz-adv-x="1431" 
d="M940 465v397l-158 -2v-125l-198 199l-113 -113l199 -198h-125l-2 -158h397zM1335 690q0 -256 -181 -437t-437 -180t-438 181q-180 180 -181 436q0 256 181 436q182 180 437 180t437 -180t182 -436z" />
    <glyph glyph-name="arrowleft.ss08" horiz-adv-x="1431" 
d="M983 608v160h-281l89 88l-111 113l-281 -281l281 -280l111 112l-89 88h281zM98 688q0 256 182 437t437 181q256 0 436 -180q180 -182 180 -437t-181 -436t-436 -181q-254 0 -436 180t-182 436z" />
    <glyph glyph-name="arrowright.ss08" horiz-adv-x="1431" 
d="M449 768v-160h280l-88 -88l111 -112l280 280l-280 281l-111 -113l88 -88h-280zM1333 688q0 -256 -181 -436t-437 -180t-436 181q-181 181 -181 436t180 436t437 181q256 0 437 -180q181 -182 181 -438z" />
    <glyph glyph-name="arrowup.ss08" horiz-adv-x="1431" 
d="M637 422h160v280l88 -88l112 111l-280 281l-281 -281l113 -111l88 88v-280zM717 1307q256 1 436 -181t180 -437t-181 -436t-436 -181t-436 180t-182 436q0 256 182 438t437 181z" />
    <glyph glyph-name="arrowupleft.ss08" horiz-adv-x="1433" 
d="M494 915v-397l157 2v125l199 -199l113 113l-199 199h125l2 157h-397zM1335 690q0 -256 -181 -436t-436 -180t-437 180t-183 436q1 256 182 437t437 181t437 -182q181 -180 181 -436z" />
    <glyph glyph-name="arrowupright.ss08" horiz-adv-x="1431" 
d="M940 915h-397l2 -157h125l-199 -199l113 -113l198 199v-125l158 -2v397zM1335 690q0 -256 -182 -436t-437 -180t-437 180q-180 180 -181 436q0 256 181 436q182 180 438 181t437 -180t181 -437z" />
    <glyph glyph-name="arrowdown.ss09" horiz-adv-x="1433" 
d="M1333 805l-616 -617l-617 617l256 256l361 -361l360 361z" />
    <glyph glyph-name="arrowup.ss09" horiz-adv-x="1433" 
d="M1077 240l-360 360l-361 -360l-256 256l617 616l616 -616z" />
    <glyph glyph-name="arrowleft.ss09" horiz-adv-x="1126" 
d="M629 690l360 -360l-256 -256l-616 616l616 617l256 -256z" />
    <glyph glyph-name="arrowright.ss09" horiz-adv-x="1126" 
d="M1010 690l-617 -616l-256 256l361 360l-361 361l256 256z" />
    <glyph glyph-name="registered.ss07" horiz-adv-x="1249" 
d="M588 1018v-94h47q20 0 36 14q15 14 15 35q0 45 -51 45h-47zM639 1151q101 0 155 -46t54 -132t-66 -139l99 -162h-185l-69 125h-39v-125h-162v473q113 6 213 6zM626 510q168 0 278 111t110 275t-110 274t-278 110q-167 0 -277 -111q-109 -111 -109 -275t110 -274t276 -110
zM625 1423q231 -1 387 -151t156 -377t-156 -378t-387 -151t-387 152q-156 150 -156 377t156 377t387 151z" />
    <glyph glyph-name="at.case" horiz-adv-x="1994" 
d="M985 840q-66 0 -112 -46t-46 -120t47 -119q48 -45 106 -45t120 55v266q-90 9 -115 9zM1147 297q-125 -125 -271 -125t-292 125q-72 61 -120 167t-48 238q20 199 151 328t319 129t632 -47v-584q0 -78 16 -110t63 -31q91 0 156 45q84 58 82 250q0 352 -222 568
q-221 216 -573 216t-583 -225t-231 -561t209 -559q210 -223 548 -225q207 0 555 77l25 -123q-344 -86 -580 -86q-399 0 -647 260t-248 656q0 395 269 656t683 261q414 -1 673 -251t259 -664q0 -252 -137 -379t-375 -127t-313 121z" />
    <glyph glyph-name="bar.case" horiz-adv-x="710" 
d="M547 1634v-1880h-383v1880h383z" />
    <glyph glyph-name="brokenbar.case" horiz-adv-x="710" 
d="M547 -248h-383v836h383v-836zM547 797h-383v835h383v-835z" />
    <glyph glyph-name="caron.alt" 
d="M827 1393l-79 -416h-299l12 416h366z" />
    <glyph glyph-name="acute.case" 
d="M1165 1823l-307 -328h-426l211 328h522z" />
    <glyph glyph-name="breve.case" 
d="M721 1868h315q0 -180 -116 -285q-118 -104 -306 -104t-305 104t-116 285h315q0 -41 31 -73t75 -32t76 32q31 32 31 73z" />
    <glyph glyph-name="caron.case" 
d="M811 1495h-395l-273 328h385l86 -111l84 111h385z" />
    <glyph glyph-name="circumflex.case" 
d="M614 1606l-86 -111h-385l273 328h395l272 -328h-385z" />
    <glyph glyph-name="dieresis.case" 
d="M1108 1698q0 -94 -68 -156t-163 -63q-96 0 -163 62q-67 63 -67 157t67 157t163 63q95 0 163 -62q68 -64 68 -158zM580 1698q0 -94 -68 -156t-164 -63q-96 0 -163 62q-67 63 -67 157t67 157t163 63t164 -62q68 -64 68 -158z" />
    <glyph glyph-name="dotaccent.case" 
d="M608 1479q-90 0 -153 60q-63 61 -63 149t62 147t153 59t155 -59t63 -147q0 -88 -63 -149q-64 -60 -154 -60z" />
    <glyph glyph-name="grave.case" 
d="M838 1495h-426l-308 328h523z" />
    <glyph glyph-name="hungarumlaut.case" 
d="M1079 1843l-131 -327h-282l65 327h348zM670 1843l-131 -327h-283l66 327h348z" />
    <glyph glyph-name="macron.case" 
d="M983 1829v-322h-737v322h737z" />
    <glyph glyph-name="ring.case" 
d="M614 1649q47 -1 76 27t29 73t-29 73t-76 28q-48 0 -76 -28t-28 -73t28 -73t76 -27zM614 2040q136 0 226 -81t90 -210t-89 -210t-227 -81t-225 81q-88 81 -88 210t88 210t225 81z" />
    <glyph glyph-name="tilde.case" 
d="M780 1872h318q0 -135 -50 -227t-124 -124t-155 -28t-146 43l-37 23q-74 43 -74 -52h-317q0 135 49 225q84 156 278 149q80 -3 148 -40l37 -22q73 -39 73 53z" />
    </font>
</defs>
</svg>
