<?xml version="1.0" standalone="no"?>
<!DOCTYPE svg PUBLIC "-//W3C//DTD SVG 1.1//EN" "http://www.w3.org/Graphics/SVG/1.1/DTD/svg11.dtd" >
<svg xmlns="http://www.w3.org/2000/svg">
<metadata>
Created by FontPrep 20130207 at Mon Nov 21 12:25:29 2016
 By Rene Bieder
Copyright (c) 2013 by Rene' Bieder. All rights reserved.
</metadata>
<defs>
<font id="57fa4631ed74aad9071e8e906b75c5fb" horiz-adv-x='1024' >
  <font-face 
    font-family="Canaro-ExtraLightItalic"
    font-weight="250"
    font-style="italic"
    font-stretch="normal"
    units-per-em="2048"
    panose-1="0 0 3 0 0 0 0 0 0 0"
    ascent="1638"
    descent="-410"
    x-height="934"
    cap-height="1393"
    bbox="-213 -557 2886 1858"
    underline-thickness="102"
    underline-position="-102"
    slope="-10"
    unicode-range="U+0020-FB02"
  />
<missing-glyph horiz-adv-x="1781" 
d="M348 143h977l-977 977v-977zM1434 1249h-985l985 -985v985zM1577 1393v-1393h-1372v1393h1372z" />
    <glyph glyph-name="fi" unicode="fi" horiz-adv-x="1189" 
d="M840 1544q145 0 293 -80l-52 -67q-121 63 -254 63q-305 0 -366 -334l-33 -192h668l-166 -934h-90l149 850h-577l-150 -850h-92l152 850h-250l16 84h248l35 194q74 416 469 416z" />
    <glyph glyph-name="fl" unicode="fl" 
d="M852 1544q125 0 262 -71l80 -7l-258 -1466h-90l244 1391q-119 70 -250 69q-317 0 -375 -317l-37 -209h389l-12 -84h-391l-150 -850h-92l152 850h-250l14 84h248l37 211q35 193 156 296q122 103 323 103z" />
    <glyph glyph-name="f_f" unicode="ff" horiz-adv-x="1427" 
d="M841 1460q-163 0 -256 -82t-124 -252l-33 -192h604l49 283q16 88 54 141q-131 102 -294 102zM1450 1544q74 0 160 -24l-33 -78q-67 18 -153 18t-158 -66t-92 -180l-50 -280h369l-16 -84h-369l-147 -850h-93l148 850h-604l-148 -850h-92l150 850h-250l16 84h248l35 194
q74 416 483 416q166 0 330 -112q106 112 266 112z" />
    <glyph glyph-name="f_f_i" unicode="ffi" horiz-adv-x="1886" 
d="M1032 934l33 194q25 135 82 220q-139 112 -304 112t-258 -82t-124 -252l-33 -192h604zM854 1544q170 0 346 -125q123 125 334 125q147 0 295 -80l-51 -67q-121 63 -256 63q-307 0 -365 -334l-33 -192h668l-166 -934h-92l152 850h-578l-150 -850h-92l150 850h-604
l-150 -850h-92l152 850h-250l16 84h248l35 194q74 416 483 416z" />
    <glyph glyph-name="f_f_l" unicode="ffl" horiz-adv-x="1902" 
d="M1032 934l37 211q23 119 78 203q-139 112 -304 112t-258 -82t-124 -252l-33 -192h604zM1534 1460q-317 0 -373 -317l-37 -209h389l-14 -84h-391l-147 -850h-93l150 850h-606l-148 -850h-92l150 850h-250l16 84h248l35 194q74 416 485 416q176 0 344 -125q121 125 348 125
q123 0 250 -65l72 -4l-258 -1475h-92l247 1401q-104 59 -233 59z" />
    <glyph glyph-name=".notdef" horiz-adv-x="1781" 
d="M348 143h977l-977 977v-977zM1434 1249h-985l985 -985v985zM1577 1393v-1393h-1372v1393h1372z" />
    <glyph glyph-name=".null" horiz-adv-x="0" 
 />
    <glyph glyph-name="nonmarkingreturn" horiz-adv-x="681" 
 />
    <glyph glyph-name="space" unicode=" " horiz-adv-x="493" 
 />
    <glyph glyph-name="exclam" unicode="!" horiz-adv-x="475" 
d="M169 -20q-31 0 -53 20t-22 52t22 54t54 21q32 0 52 -22q22 -21 22 -53t-22 -52t-53 -20zM451 1393l-189 -1049h-92l180 1049h101z" />
    <glyph glyph-name="quotedbl" unicode="&#x22;" horiz-adv-x="677" 
d="M721 1556l-109 -464h-82l88 464h103zM455 1556l-109 -464h-82l86 464h105z" />
    <glyph glyph-name="numbersign" unicode="#" horiz-adv-x="1480" 
d="M627 879l-178 -365h469l176 365h-467zM1012 514h270l-14 -80h-293l-215 -434h-94l213 434h-467l-215 -434h-95l213 434h-227l14 80h252l178 365h-253l14 77h276l215 439h95l-215 -439h469l215 439h94l-215 -439h246l-15 -77h-268z" />
    <glyph glyph-name="dollar" unicode="$" horiz-adv-x="1392" 
d="M858 1333q-206 0 -326 -90t-118 -242q0 -90 70 -137t207 -78q135 -31 193 -46q170 -44 238 -106q92 -84 90 -208q0 -207 -158 -330t-407 -127l-53 -280h-86l53 282q-250 14 -479 115l43 86q262 -115 532 -115q199 -1 328 95t129 254q0 96 -61 147q-35 29 -60 46t-92 37
t-140 36t-87 20q-199 43 -281 108t-82 181q1 190 141 309t363 129l47 267h84l-45 -265q236 -10 432 -80l-39 -84q-230 76 -436 76z" />
    <glyph glyph-name="percent" unicode="%" horiz-adv-x="2215" 
d="M1590 45q126 0 232 102q105 102 105 256q0 115 -68 186q-69 71 -178 70q-143 0 -247 -102t-105 -258q-1 -113 67 -183t194 -71zM1694 733q139 0 224 -87t85 -228q0 -195 -130 -322t-314 -127q-139 0 -225 87q-85 87 -85 231q0 190 131 318q132 128 314 128zM373 989
q0 -113 68 -183t193 -71q124 1 230 103t107 256q0 116 -68 186t-176 70q-145 0 -249 -102t-105 -259zM584 0h-72l1165 1393h72zM739 1423q139 0 225 -87t85 -228q0 -195 -131 -322t-314 -127q-139 0 -224 86t-85 230q0 193 131 321t313 127z" />
    <glyph glyph-name="ampersand" unicode="&#x26;" horiz-adv-x="1300" 
d="M635 670q-219 0 -345 -92t-126 -232t91 -217q91 -76 266 -76t298 91t150 243l49 283h-383zM510 -29q-212 -1 -326 93q-112 94 -112 248t95 257q95 102 265 144q-96 31 -146 99t-50 159q0 188 144 308t380 120q135 0 264 -35l-35 -82q-127 35 -246 35q-188 0 -302 -93
t-113 -243q0 -105 83 -167t238 -62h627l-14 -82h-154l-49 -283q-33 -188 -185 -302t-364 -114z" />
    <glyph glyph-name="quotesingle" unicode="'" horiz-adv-x="409" 
d="M455 1556l-111 -464h-80l86 464h105z" />
    <glyph glyph-name="parenleft" unicode="(" horiz-adv-x="636" 
d="M647 1532l62 -41q-193 -217 -311 -440t-167 -506q-96 -530 140 -951l-76 -36q-252 424 -153 988t505 986z" />
    <glyph glyph-name="parenright" unicode=")" horiz-adv-x="628" 
d="M14 -446l-61 40q193 218 311 442t168 505q94 532 -141 950l76 37q255 -422 155 -986t-508 -988z" />
    <glyph glyph-name="asterisk" unicode="*" horiz-adv-x="813" 
d="M774 911l-39 -45l-205 176l-45 -245l-59 10l43 246l-252 -95l-20 56l254 96l-205 178l37 47l204 -176l43 240l62 -10l-43 -242l252 96l20 -57l-254 -96z" />
    <glyph glyph-name="plus" unicode="+" horiz-adv-x="1429" 
d="M786 610l-73 -417h-92l73 417h-415l16 86h416l73 420h93l-74 -420h414l-17 -86h-414z" />
    <glyph glyph-name="comma" unicode="," horiz-adv-x="520" 
d="M49 -313l107 303q-56 16 -56 58t23 64t57 22t56 -22q38 -35 11 -114q-11 -33 -61 -150t-67 -161h-70z" />
    <glyph glyph-name="hyphen" unicode="-" horiz-adv-x="1103" 
d="M860 520h-598l17 90h598z" />
    <glyph glyph-name="period" unicode="." horiz-adv-x="534" 
d="M194 -20q-34 0 -57 22t-23 54t23 55t57 23t56 -24q22 -22 22 -55t-22 -54t-56 -21z" />
    <glyph glyph-name="slash" unicode="/" horiz-adv-x="962" 
d="M-29 -557h-96l1090 2130h96z" />
    <glyph glyph-name="zero" unicode="0" horiz-adv-x="1546" 
d="M694 55q281 0 471 220t191 554q0 231 -117 369t-317 139q-281 0 -471 -220t-191 -554q0 -231 116 -369t318 -139zM936 1423q240 1 378 -157t138 -424q0 -377 -221 -625t-553 -248q-240 0 -378 159t-138 423q0 377 222 625t552 247z" />
    <glyph glyph-name="one" unicode="1" horiz-adv-x="821" 
d="M475 0h-94l229 1286l-417 -123l-7 80l502 150h33z" />
    <glyph glyph-name="two" unicode="2" horiz-adv-x="1185" 
d="M739 1423q188 0 296 -96t108 -236t-67 -247q-36 -58 -68 -100q-67 -88 -328 -295l-461 -367h785l-17 -82h-946l10 61l578 459q283 226 338 310q77 119 76 238q-1 118 -87 193t-237 74q-209 0 -438 -118l-19 77q236 129 477 129z" />
    <glyph glyph-name="three" unicode="3" horiz-adv-x="1202" 
d="M647 766q207 0 320 -83t112 -234q0 -203 -173 -341t-420 -138t-463 116l47 72q225 -104 427 -104t346 108q144 109 144 270q0 125 -99 190t-286 64h-166l8 45l605 574h-746l14 88h887l-10 -62l-594 -565h47z" />
    <glyph glyph-name="four" unicode="4" horiz-adv-x="1380" 
d="M209 362h733l160 900zM1032 362h205l-14 -81h-205l-49 -281h-92l49 281h-860l12 65l1044 1047h92z" />
    <glyph glyph-name="five" unicode="5" horiz-adv-x="1251" 
d="M1110 467q0 -221 -166 -359t-418 -138t-475 116l45 76q232 -109 442 -109t345 110t135 290q0 123 -94 195t-273 79l-413 21l176 645h815l-17 -88h-727l-133 -478l324 -16q210 -10 322 -100t112 -244z" />
    <glyph glyph-name="six" unicode="6" horiz-adv-x="1255" 
d="M556 51q181 0 321 116q138 116 165 294t-70 283q-98 106 -282 106t-319 -114t-162 -292t69 -286t278 -107zM709 930q217 0 337 -127t91 -341t-197 -353t-391 -139t-343 129q-120 130 -91 339q23 176 153 318l559 637h119l-430 -492q97 29 193 29z" />
    <glyph glyph-name="seven" unicode="7" horiz-adv-x="1118" 
d="M1202 1333l-883 -1333h-110l870 1305h-864l14 88h983z" />
    <glyph glyph-name="eight" unicode="8" horiz-adv-x="1310" 
d="M582 51q199 0 339 94t162 246q23 135 -83 218t-306 83q-199 0 -337 -88q-139 -88 -161 -230t82 -232t304 -91zM708 770q166 0 280 84t134 213t-64 204q-85 75 -249 75t-279 -81t-135 -210t64 -207t249 -78zM574 -31q-242 0 -372 111t-106 289q20 135 129 231t285 135
q-115 35 -170 120t-39 202q21 166 165 266t351 100t317 -95t87 -251q-39 -258 -326 -344q155 -35 231 -126t56 -220q-25 -186 -195 -302t-413 -116z" />
    <glyph glyph-name="nine" unicode="9" horiz-adv-x="1218" 
d="M626 543q184 -1 320 113q135 114 162 291q28 177 -70 286t-278 109t-320 -116q-139 -116 -166 -294q-28 -178 70 -284t282 -105zM769 1423q224 0 343 -130t90 -339q-20 -158 -153 -317l-551 -637h-115l416 483q-84 -20 -189 -20q-219 0 -339 126t-90 341t197 354t391 139
z" />
    <glyph glyph-name="colon" unicode=":" horiz-adv-x="544" 
d="M194 -20q-34 0 -57 22t-23 54t23 55t57 23t56 -24q22 -22 22 -55t-22 -54t-56 -21zM349 803q-35 -1 -57 21t-22 55t23 55t57 22t56 -22t22 -56q0 -32 -22 -54q-23 -21 -57 -21z" />
    <glyph glyph-name="semicolon" unicode=";" horiz-adv-x="563" 
d="M49 -313l107 303q-56 16 -56 58t23 64t57 22t56 -22q38 -35 13 -109q-25 -73 -128 -316h-72zM368 803q-34 -1 -57 21t-22 55t23 55t56 22t56 -22t22 -56q0 -32 -22 -54t-56 -21z" />
    <glyph glyph-name="less" unicode="&#x3c;" horiz-adv-x="1140" 
d="M137 569l17 95l938 421l-17 -102l-825 -369l692 -372l-16 -95z" />
    <glyph glyph-name="equal" unicode="=" horiz-adv-x="1492" 
d="M1235 430h-987l14 86h987zM1303 823h-988l17 88h987z" />
    <glyph glyph-name="greater" unicode="&#x3e;" horiz-adv-x="1142" 
d="M1057 664l-17 -95l-936 -422l15 103l825 368l-692 371l16 96z" />
    <glyph glyph-name="question" unicode="?" horiz-adv-x="1003" 
d="M300 -20q-32 0 -54 20t-21 52q-1 32 21 54t54 21q32 0 54 -22q22 -21 21 -53q0 -32 -22 -52q-21 -20 -53 -20zM616 1423q182 0 296 -97t114 -263q0 -207 -157 -350t-388 -144h-61l-37 -225h-86l43 309h141q193 0 322 116t129 284q0 133 -91 210t-249 77t-324 -40l-6 80
q172 43 354 43z" />
    <glyph glyph-name="at" unicode="@" horiz-adv-x="2066" 
d="M1042 905q-190 0 -319 -132t-129 -327q0 -154 85 -246t245 -91q160 0 391 131q-4 66 8 137l88 495q-179 33 -369 33zM1188 1413q356 0 564 -201t208 -520t-116 -487t-301 -168t-222 135q-238 -141 -428 -141t-295 116q-104 117 -94 310q10 227 167 377t385 150t455 -50
l-100 -567q-23 -131 9 -195t136 -63q156 0 247 144t91 415q0 315 -190 500t-524 186q-262 0 -494 -128t-372 -349t-140 -482q0 -301 195 -499t508 -197q203 0 503 65v-57q-295 -70 -514 -69q-342 0 -551 210t-209 539q0 281 148 519t398 372q249 135 536 135z" />
    <glyph glyph-name="A" unicode="A" horiz-adv-x="1527" 
d="M911 1284l-520 -829h742zM338 369l-229 -369h-111l881 1403h96l385 -1403h-105l-98 369h-819z" />
    <glyph glyph-name="B" unicode="B" horiz-adv-x="1370" 
d="M639 70q225 0 359 93t135 263q-1 117 -99 180t-278 64h-406l-104 -588q291 -12 393 -12zM1174 1090q0 231 -334 231q-166 0 -375 -10l-100 -557h364q207 0 326 89t119 247zM1227 430q0 -209 -163 -327t-431 -117q-109 0 -496 14l246 1393q333 14 505 14t276 -77t106 -221
q0 -143 -88 -245t-252 -143q145 -27 221 -101t76 -190z" />
    <glyph glyph-name="C" unicode="C" horiz-adv-x="1544" 
d="M817 -31q-303 0 -474 163t-171 452q0 371 252 605t659 234q228 1 455 -75l-35 -82q-227 68 -424 67q-358 0 -581 -208t-224 -531q0 -248 148 -389t414 -142q217 0 507 80l7 -84q-295 -90 -533 -90z" />
    <glyph glyph-name="D" unicode="D" horiz-adv-x="1546" 
d="M618 76q319 0 531 206q211 206 211 537q0 233 -143 367t-390 135q-127 0 -364 -12l-217 -1225q241 -8 372 -8zM842 1407q286 0 452 -154t166 -422q0 -375 -245 -609t-613 -234q-78 0 -465 12l246 1393q305 14 459 14z" />
    <glyph glyph-name="E" unicode="E" horiz-adv-x="1300" 
d="M362 739h771l-15 -86h-770l-100 -565h852l-17 -88h-946l246 1393h946l-14 -88h-852z" />
    <glyph glyph-name="F" unicode="F" horiz-adv-x="1236" 
d="M356 694h746l-15 -86h-747l-107 -608h-96l246 1393h926l-17 -88h-829z" />
    <glyph glyph-name="G" unicode="G" horiz-adv-x="1669" 
d="M819 -31q-299 0 -473 167t-174 435q0 383 244 617t641 235q254 0 481 -73l-37 -84q-236 68 -454 67q-347 0 -561 -205t-214 -540q0 -238 151 -383t407 -145t540 102l86 489h-584l15 86h676l-111 -635q-334 -133 -633 -133z" />
    <glyph glyph-name="H" unicode="H" horiz-adv-x="1540" 
d="M1237 0h-96l116 649h-909l-115 -649h-96l246 1393h96l-117 -656h910l114 656h97z" />
    <glyph glyph-name="I" unicode="I" horiz-adv-x="534" 
d="M479 1393l-246 -1393h-96l246 1393h96z" />
    <glyph glyph-name="J" unicode="J" horiz-adv-x="1177" 
d="M434 -31q-216 0 -442 92l37 84q213 -84 399 -84t305 114t154 321l157 897h97l-158 -897q-45 -254 -189 -390t-360 -137z" />
    <glyph glyph-name="K" unicode="K" horiz-adv-x="1386" 
d="M340 606l-107 -606h-96l246 1393h96l-123 -697h158l778 697h125l-776 -699l596 -694h-123l-526 606h-248z" />
    <glyph glyph-name="L" unicode="L" horiz-adv-x="1189" 
d="M1030 0h-893l246 1393h96l-231 -1307h799z" />
    <glyph glyph-name="M" unicode="M" horiz-adv-x="1935" 
d="M1700 1192l-766 -1192h-94l-348 1192l-283 -1192h-94l325 1393h97l366 -1278l815 1278h101l-164 -1393h-96z" />
    <glyph glyph-name="N" unicode="N" horiz-adv-x="1597" 
d="M1542 1393l-246 -1393h-92l-753 1245l-220 -1245h-96l246 1393h92l754 -1248l219 1248h96z" />
    <glyph glyph-name="O" unicode="O" horiz-adv-x="1742" 
d="M803 57q321 0 537 214t216 540q0 238 -143 381t-385 143q-336 0 -545 -209t-209 -546q0 -236 146 -380t383 -143zM1044 1423q283 1 448 -163t165 -437q0 -371 -249 -613t-622 -241q-276 0 -445 165t-169 435q0 381 242 617t630 237z" />
    <glyph glyph-name="P" unicode="P" horiz-adv-x="1306" 
d="M705 580q217 0 360 120t143 312q0 147 -99 228t-265 81t-381 -12l-129 -729h371zM840 1407q219 0 342 -100t123 -283q-1 -234 -177 -382t-444 -148h-365l-86 -494h-96l246 1393q238 14 457 14z" />
    <glyph glyph-name="Q" unicode="Q" horiz-adv-x="1742" 
d="M803 57q325 0 539 213t214 541q0 238 -142 381t-386 143q-336 0 -545 -209t-209 -546q0 -236 146 -380t383 -143zM1657 816q0 -280 -156 -496t-414 -302l244 -356h-121l-223 328q-94 -20 -203 -21q-276 0 -444 165t-168 435q0 381 242 618t628 236q283 0 449 -164
q166 -163 166 -443z" />
    <glyph glyph-name="R" unicode="R" horiz-adv-x="1333" 
d="M684 612q219 0 358 115t140 309q0 139 -100 212t-252 73t-367 -10l-123 -699h344zM840 1407q192 0 315 -92t123 -272q0 -179 -113 -309t-305 -179l320 -555h-117l-303 535q-37 -6 -115 -7h-319l-93 -528h-96l246 1393q265 14 457 14z" />
    <glyph glyph-name="S" unicode="S" horiz-adv-x="1392" 
d="M858 1333q-206 0 -326 -90t-118 -242q0 -90 70 -137t207 -78q135 -31 193 -46q170 -44 238 -106q92 -84 90 -208q0 -209 -160 -333t-434 -124q-272 0 -536 117l43 86q262 -115 532 -115q199 -1 328 95t129 254q0 96 -61 147q-35 29 -60 46t-92 37t-140 36t-87 20
q-199 43 -281 108t-82 181q0 199 154 319q155 120 401 121q246 0 467 -80l-39 -84q-230 76 -436 76z" />
    <glyph glyph-name="T" unicode="T" horiz-adv-x="1368" 
d="M883 1305l-232 -1305h-96l231 1305h-573l14 88h1241l-16 -88h-569z" />
    <glyph glyph-name="U" unicode="U" horiz-adv-x="1566" 
d="M698 -31q-264 0 -397 157t-88 417l149 850h97l-150 -850q-39 -219 71 -351t329 -133t377 133t196 351l152 850h96l-152 -850q-47 -258 -232 -416q-184 -158 -448 -158z" />
    <glyph glyph-name="V" unicode="V" horiz-adv-x="1576" 
d="M758 0h-99l-407 1393h108l365 -1268l813 1268h113z" />
    <glyph glyph-name="W" unicode="W" horiz-adv-x="2162" 
d="M1507 0h-92l-194 1239l-639 -1239h-93l-237 1393h102l207 -1246l637 1246h92l195 -1243l649 1243h102z" />
    <glyph glyph-name="X" unicode="X" horiz-adv-x="1394" 
d="M799 688l446 -688h-112l-404 618l-620 -618h-125l692 698l-426 695h119l379 -623l595 623h130z" />
    <glyph glyph-name="Y" unicode="Y" horiz-adv-x="1386" 
d="M651 512l-432 881h109l387 -783l665 783h111l-739 -881l-93 -512h-100z" />
    <glyph glyph-name="Z" unicode="Z" horiz-adv-x="1349" 
d="M1348 1329l-1129 -1241h911l-16 -88h-1055l13 63l1134 1242h-893l17 88h1028z" />
    <glyph glyph-name="bracketleft" unicode="[" horiz-adv-x="659" 
d="M131 -356h275l-17 -86h-366l348 1966h366l-16 -86h-275z" />
    <glyph glyph-name="backslash" unicode="\" horiz-adv-x="962" 
d="M326 1573l460 -2130h-94l-461 2130h95z" />
    <glyph glyph-name="bracketright" unicode="]" horiz-adv-x="663" 
d="M553 1438h-274l16 86h367l-349 -1966h-366l16 86h275z" />
    <glyph glyph-name="asciicircum" unicode="^" horiz-adv-x="817" 
d="M557 1307l-330 -404h-96l401 490h78l228 -490h-95z" />
    <glyph glyph-name="underscore" unicode="_" horiz-adv-x="1349" 
d="M-41 -293h1163l-14 -82h-1163z" />
    <glyph glyph-name="grave" unicode="`" 
d="M858 1180h-86l-160 317h125z" />
    <glyph glyph-name="a" unicode="a" horiz-adv-x="1243" 
d="M672 883q-198 -1 -332 -139q-133 -138 -133 -355q0 -154 86 -247q85 -93 245 -93t380 123l118 678q-166 33 -364 33zM678 965q232 0 461 -52l-160 -913h-92l16 88q-213 -119 -399 -119t-293 118q-106 118 -96 312q7 248 169 407t394 159z" />
    <glyph glyph-name="b" unicode="b" horiz-adv-x="1253" 
d="M1049 547q-1 158 -91 247t-263 89t-347 -49l-133 -750q162 -33 287 -33q244 0 396 138t151 358zM1141 557q0 -260 -174 -424t-475 -164q-154 0 -379 51l254 1434h90l-95 -541q170 51 367 51t305 -108q108 -109 107 -299z" />
    <glyph glyph-name="c" unicode="c" horiz-adv-x="1085" 
d="M713 883q-215 1 -359 -137t-145 -351q0 -156 93 -248q92 -92 242 -92t361 56l2 -82q-203 -59 -383 -59t-295 112q-115 113 -114 299q0 256 175 420t439 164q166 -1 309 -52l-28 -73q-168 43 -297 43z" />
    <glyph glyph-name="d" unicode="d" horiz-adv-x="1249" 
d="M672 883q-205 -1 -335 -141t-130 -353q0 -154 86 -247t237 -93q197 0 373 35l131 750q-157 49 -362 49zM508 -31q-184 0 -289 112q-104 112 -104 298q0 256 160 421q161 165 413 165q209 0 361 -52l96 541h90l-252 -1434q-184 -39 -283 -45q-100 -6 -192 -6z" />
    <glyph glyph-name="e" unicode="e" horiz-adv-x="1163" 
d="M676 887q-168 1 -292 -103t-163 -276h742q51 379 -287 379zM678 965q211 0 308 -120t65 -337q-4 -33 -17 -76h-825q-16 -180 70 -278t266 -99q109 0 352 54l4 -76q-219 -63 -364 -64q-231 0 -341 132q-110 131 -78 357t190 366t370 141z" />
    <glyph glyph-name="f" unicode="f" horiz-adv-x="757" 
d="M748 1460q-84 0 -157 -66t-93 -180l-49 -280h389l-15 -84h-389l-149 -850h-92l149 850h-270l16 84h270l50 283q25 151 126 239t240 88q74 0 160 -24l-31 -78q-71 18 -155 18z" />
    <glyph glyph-name="g" unicode="g" horiz-adv-x="1232" 
d="M672 883q-198 -1 -332 -139q-133 -138 -133 -355q0 -154 86 -247t235 -93q197 0 373 35l135 766q-166 33 -364 33zM680 965q234 0 459 -52l-160 -913q-41 -226 -199 -364t-364 -138t-363 76l35 76q156 -68 330 -68t304 115t165 307q-177 -35 -373 -35t-303 118
q-106 118 -96 312q7 248 169 407t396 159z" />
    <glyph glyph-name="h" unicode="h" horiz-adv-x="1253" 
d="M791 965q178 -1 259 -103t48 -289l-101 -573h-92l99 557q26 154 -36 239t-204 85q-211 0 -404 -52l-145 -829h-92l256 1454h92l-96 -541q183 52 416 52z" />
    <glyph glyph-name="i" unicode="i" horiz-adv-x="499" 
d="M379 934l-166 -934h-90l166 934h90zM467 1289q1 -31 -21 -53t-54 -22t-54 22t-21 54q0 32 22 51q21 21 53 21t54 -20t21 -53z" />
    <glyph glyph-name="j" unicode="j" horiz-adv-x="466" 
d="M358 934l-184 -1045q-35 -199 -121 -285t-266 -87l10 82q131 4 194 67q62 63 91 217l186 1051h90zM371 1214q-31 0 -53 22t-22 54t22 51q22 21 53 21t53 -22t22 -52t-22 -52t-53 -22z" />
    <glyph glyph-name="k" unicode="k" horiz-adv-x="1165" 
d="M309 514h156l502 420h120l-509 -434l428 -500h-109l-375 428h-227l-76 -428h-92l258 1454h90z" />
    <glyph glyph-name="l" unicode="l" horiz-adv-x="512" 
d="M475 1454l-256 -1454h-92l258 1454h90z" />
    <glyph glyph-name="m" unicode="m" horiz-adv-x="1855" 
d="M1417 965q170 -1 241 -101t38 -293l-103 -571h-90l99 559q57 322 -207 322q-176 0 -389 -74q23 -78 -2 -219l-105 -588h-90l100 573q31 172 -21 240t-204 68q-170 -10 -328 -35l-149 -846h-92l159 913q213 41 435 52q195 0 258 -88q229 88 450 88z" />
    <glyph glyph-name="n" unicode="n" horiz-adv-x="1249" 
d="M782 965q176 1 258 -103t50 -291l-101 -571h-92l98 559q27 154 -35 238t-202 84q-203 0 -402 -35l-149 -846h-92l159 913q225 52 508 52z" />
    <glyph glyph-name="o" unicode="o" horiz-adv-x="1255" 
d="M557 53q205 -1 347 139t143 345q1 160 -93 253t-256 93q-205 1 -347 -137t-142 -345q0 -160 94 -254t254 -94zM713 967q199 0 315 -112t115 -304q0 -248 -175 -416t-425 -168q-197 0 -313 115t-115 307q0 250 174 414t424 164z" />
    <glyph glyph-name="p" unicode="p" horiz-adv-x="1257" 
d="M585 49q202 0 335 142t133 360q0 152 -86 242t-260 90t-351 -33l-135 -766q162 -35 364 -35zM735 965q205 0 311 -116t97 -308q-8 -250 -169 -411q-162 -161 -384 -161t-383 35l-82 -461h-90l241 1370q254 52 459 52z" />
    <glyph glyph-name="q" unicode="q" horiz-adv-x="1249" 
d="M530 49q195 0 371 35l135 766q-166 33 -364 33q-198 -1 -332 -139q-133 -138 -133 -355q-1 -154 85 -247t238 -93zM688 965q242 0 451 -52l-242 -1370h-90l82 461q-175 -35 -373 -35t-305 118q-106 118 -96 312q11 252 171 409t402 157z" />
    <glyph glyph-name="r" unicode="r" horiz-adv-x="770" 
d="M776 963l-12 -89q-203 0 -406 -24l-149 -850h-92l159 920q264 43 500 43z" />
    <glyph glyph-name="s" unicode="s" horiz-adv-x="1050" 
d="M460 49q156 0 242 57t86 154q0 60 -32 84t-49 36q-15 12 -61 26t-63 18t-50 12t-38 9q-129 26 -202 79q-72 53 -72 144q0 135 109 216q110 81 292 81t339 -64l-39 -78q-156 61 -304 61t-225 -54q-78 -56 -78 -148q-1 -63 53 -95t198 -67t230 -85q85 -50 85 -152
q0 -147 -115 -231t-306 -82q-191 0 -392 96l36 79q200 -96 356 -96z" />
    <glyph glyph-name="t" unicode="t" horiz-adv-x="868" 
d="M494 -31q-158 0 -215 84t-25 269l92 528h-225l14 84h227l72 414h92l-73 -414h348l-17 -84h-346l-92 -526q-27 -146 12 -208q40 -62 138 -62t186 18l4 -76q-106 -27 -192 -27z" />
    <glyph glyph-name="u" unicode="u" horiz-adv-x="1241" 
d="M467 -31q-178 -1 -260 101t-47 292l100 572h90l-98 -561q-26 -156 34 -239t203 -83q199 0 402 33l151 850h91l-160 -914q-225 -51 -506 -51z" />
    <glyph glyph-name="v" unicode="v" horiz-adv-x="1216" 
d="M575 0h-100l-301 934h100l267 -830l563 830h104z" />
    <glyph glyph-name="w" unicode="w" horiz-adv-x="1691" 
d="M1141 0h-92l-144 797l-430 -797h-92l-193 934h95l168 -803l434 803h82l143 -805l457 805h96z" />
    <glyph glyph-name="x" unicode="x" horiz-adv-x="1089" 
d="M604 465l320 -465h-111l-278 401l-418 -401h-117l485 465l-309 469h111l268 -402l408 402h118z" />
    <glyph glyph-name="y" unicode="y" horiz-adv-x="1236" 
d="M1239 934l-973 -1391h-100l362 520l-362 871h102l326 -776l539 776h106z" />
    <glyph glyph-name="z" unicode="z" horiz-adv-x="1007" 
d="M961 874l-781 -792h649l-14 -82h-782l8 55l786 797h-620l14 82h752z" />
    <glyph glyph-name="braceleft" unicode="{" horiz-adv-x="737" 
d="M532 1184l-63 -353q-23 -129 -67 -199t-132 -100q144 -52 95 -299l-62 -352q-27 -145 14 -203t168 -57l-18 -84q-166 0 -226 85t-28 269l61 349q25 145 -15 200t-167 56l17 82q123 0 184 59t88 205l61 346q33 184 120 265t259 81l-16 -84q-121 0 -183 -62t-90 -204z" />
    <glyph glyph-name="bar" unicode="|" horiz-adv-x="626" 
d="M553 1569l-332 -1880h-88l332 1880h88z" />
    <glyph glyph-name="braceright" unicode="}" horiz-adv-x="737" 
d="M231 -111l62 353q23 130 67 198t132 99q-137 51 -93 301l62 350q25 144 -17 202t-168 58l19 84q168 0 228 -84t26 -270l-62 -346q-25 -144 17 -200t168 -56l-19 -82q-121 0 -183 -60t-89 -205l-62 -346q-33 -186 -119 -267t-259 -81l16 84q121 1 184 63t90 205z" />
    <glyph glyph-name="asciitilde" unicode="~" horiz-adv-x="954" 
d="M799 801h82q-13 -72 -53 -120q-40 -49 -88 -65q-107 -37 -181 21l-123 96q-47 41 -119 15t-86 -105h-81q12 72 53 119q74 84 190 75q49 -5 84 -30l121 -96q49 -41 118 -15t83 105z" />
    <glyph glyph-name="exclamdown" unicode="&#xa1;" horiz-adv-x="534" 
d="M51 -446l189 1046h92l-180 -1046h-101zM333 967q31 0 53 -22q22 -23 22 -53t-22 -52t-54 -21q-32 0 -54 22q-22 23 -22 53t22 52t55 21z" />
    <glyph glyph-name="cent" unicode="&#xa2;" horiz-adv-x="1046" 
d="M694 903q-213 0 -357 -137t-144 -350q0 -156 94 -249q93 -93 243 -93t357 55l4 -80q-174 -51 -322 -57l-45 -254h-86l45 254q-178 10 -282 121t-105 288q0 244 159 405t404 177l43 252h86l-43 -250q145 -6 277 -51l-29 -76q-164 45 -299 45z" />
    <glyph glyph-name="sterling" unicode="&#xa3;" horiz-adv-x="1277" 
d="M908 1339q-168 0 -292 -93t-151 -245l-59 -331h522l-15 -82h-522l-88 -506h823l-14 -82h-1083l14 82h166l88 506h-166l16 82h166l58 336q33 188 187 303q155 115 374 114q170 0 325 -43l-30 -80q-151 39 -319 39z" />
    <glyph glyph-name="yen" unicode="&#xa5;" horiz-adv-x="1345" 
d="M1188 567l-12 -73h-449l-39 -215h449l-13 -76h-448l-37 -203h-96l37 203h-447l12 76h447l39 215h-447l11 73h411l-407 826h110l387 -785l666 785h108l-694 -826h412z" />
    <glyph glyph-name="brokenbar" unicode="&#xa6;" horiz-adv-x="626" 
d="M221 -313h-88l146 835h90zM406 731h-91l148 836h90z" />
    <glyph glyph-name="section" unicode="&#xa7;" horiz-adv-x="1077" 
d="M203 638q0 -96 68 -154q69 -58 198 -126t197 -106q129 66 187 129t58 159t-67 152q-68 58 -220 140t-173 94q-131 -70 -189 -131t-59 -157zM716 1423q187 0 341 -65l-41 -74q-162 62 -310 62t-230 -56q-81 -56 -81 -155q-1 -61 53 -101t224 -127q170 -86 249 -159
q79 -74 79 -191t-70 -195q-68 -78 -207 -151q86 -68 86 -158q0 -135 -111 -218t-295 -83t-344 68l41 74q158 -64 308 -64t230 56q81 56 81 155q0 61 -53 101t-222 126t-248 160t-79 190t68 195q69 78 206 152q-86 68 -86 157q0 135 112 218t299 83z" />
    <glyph glyph-name="dieresis" unicode="&#xa8;" 
d="M974 1217q-30 0 -52 20t-21 50q-1 31 21 51t52 20t52 -20t21 -51q0 -30 -22 -50q-21 -20 -51 -20zM548 1217q-30 0 -52 20t-21 50q-1 31 21 51t52 20t52 -20t21 -51q0 -30 -22 -50q-21 -20 -51 -20z" />
    <glyph glyph-name="copyright" unicode="&#xa9;" horiz-adv-x="1740" 
d="M977 1047q-180 0 -292 -113t-112 -285q0 -272 308 -272q88 0 280 41l4 -64q-170 -49 -297 -49q-178 0 -277 86t-99 252q0 207 137 341t356 134q123 0 270 -49l-28 -65q-150 43 -250 43zM904 1366q-292 0 -488 -192t-197 -478q0 -286 197 -478q196 -192 488 -192t490 194
q198 192 198 476t-198 478q-198 192 -490 192zM903 1423q319 0 533 -208t215 -519q0 -311 -214 -519q-213 -208 -533 -208t-533 208t-213 519t213 519t532 208z" />
    <glyph glyph-name="ordfeminine" unicode="&#xaa;" horiz-adv-x="946" 
d="M293 911q0 -125 213 -125q109 0 272 25l49 272l-278 -12q-256 -10 -256 -160zM682 1423q138 0 198 -60t38 -192l-72 -413q-211 -37 -365 -37q-266 0 -266 176q0 221 350 238l273 12l6 22q14 97 -28 141t-162 44t-277 -23l4 68q162 24 301 24z" />
    <glyph glyph-name="guillemotleft" unicode="&#xab;" horiz-adv-x="1079" 
d="M868 162l-61 -51l-311 393l446 393l49 -55l-387 -342zM494 162l-62 -51l-311 393l446 393l49 -55l-387 -342z" />
    <glyph glyph-name="registered" unicode="&#xae;" horiz-adv-x="1751" 
d="M996 1047q-98 0 -208 -7l-65 -374h195q102 0 180 52t93 143t-41 139t-154 47zM1016 1112q122 0 195 -64t53 -186q-37 -188 -240 -241l184 -312h-90l-170 295q-37 -4 -49 -4h-186l-54 -291h-73l141 795q167 8 289 8zM920 1366q-291 0 -489 -192t-198 -478t198 -478
t489 -192q290 0 488 194q198 192 198 476t-198 478q-198 192 -488 192zM920 1423q319 0 532 -208t213 -519t-213 -519t-532 -208t-534 208q-214 208 -214 519t214 519q215 208 534 208z" />
    <glyph glyph-name="macron" unicode="&#xaf;" 
d="M1047 1372l-13 -74h-549l15 74h547z" />
    <glyph glyph-name="degree" unicode="&#xb0;" horiz-adv-x="1011" 
d="M576 844q116 0 204 83t88 195t-58 170t-174 58t-204 -84t-88 -196q0 -226 232 -226zM664 1423q132 1 208 -73t76 -197q0 -167 -114 -277t-287 -110q-131 0 -207 74t-76 198q0 168 114 276t286 109z" />
    <glyph glyph-name="plusminus" unicode="&#xb1;" horiz-adv-x="1429" 
d="M1126 190l-14 -88h-924l15 88h923zM1210 664h-424l-59 -347h-92l61 347h-409l16 88h408l61 348h92l-61 -348h422z" />
    <glyph glyph-name="twosuperior" unicode="&#xb2;" horiz-adv-x="714" 
d="M662 1210q0 58 -46 93t-139 35q-94 0 -227 -58l-10 63q131 66 254 66t185 -54t62 -141t-63 -160t-197 -173l-223 -168h416l-10 -68h-543l8 51l324 244q72 51 109 83q100 85 100 187z" />
    <glyph glyph-name="threesuperior" unicode="&#xb3;" horiz-adv-x="720" 
d="M633 877q0 121 -195 120h-116l8 37l319 289h-399l12 70h508l-8 -50l-316 -280h19q117 -2 180 -48t64 -126q1 -113 -95 -187t-246 -74t-266 64l37 60q123 -56 233 -56t186 52q75 52 75 129z" />
    <glyph glyph-name="acute" unicode="&#xb4;" 
d="M956 1497l-266 -317h-92l233 317h125z" />
    <glyph glyph-name="paragraph" unicode="&#xb6;" horiz-adv-x="1490" 
d="M260 877q0 -137 85 -217t249 -80h207l131 739l-207 2q-225 0 -345 -118t-120 -326zM745 1407q481 0 713 -14l-282 -1602h-95l269 1518q-86 4 -322 8l-270 -1526h-94l122 703h-202q-203 0 -312 99t-108 271q0 252 152 398q153 145 429 145z" />
    <glyph glyph-name="periodcentered" unicode="&#xb7;" horiz-adv-x="534" 
d="M275 440q-35 0 -57 23t-22 55t24 54q22 22 56 22t56 -22t22 -54t-22 -56q-22 -22 -57 -22z" />
    <glyph glyph-name="cedilla" unicode="&#xb8;" 
d="M389 -414h-82l164 312h92z" />
    <glyph glyph-name="onesuperior" unicode="&#xb9;" horiz-adv-x="565" 
d="M596 713l-14 -68h-494l14 68h199l105 587l-203 -59l-4 68l274 84h23l-119 -680h219z" />
    <glyph glyph-name="ordmasculine" unicode="&#xba;" horiz-adv-x="917" 
d="M534 793q124 0 222 93t98 236q0 104 -66 168t-188 64t-221 -92q-98 -92 -98 -236q0 -106 64 -170q65 -63 189 -63zM631 1423q137 0 220 -81t83 -212q0 -176 -125 -294t-303 -117q-137 0 -221 82t-84 217q0 176 125 290t305 115z" />
    <glyph glyph-name="guillemotright" unicode="&#xbb;" horiz-adv-x="1079" 
d="M584 846l59 51l313 -395l-448 -391l-49 53l387 344zM209 846l59 51l314 -395l-449 -391l-49 53l387 344z" />
    <glyph glyph-name="onequarter" unicode="&#xbc;" horiz-adv-x="1714" 
d="M1454 655l-453 -417h379zM1575 238l-12 -66h-119l-31 -172h-76l31 172h-479l8 53l569 523h78l-90 -510h121zM1552 1393l-1167 -1393h-72l1168 1393h71zM195 645l14 68h199l104 587l-203 -59l-4 68l275 84h22l-119 -680h219l-14 -68h-493z" />
    <glyph glyph-name="onehalf" unicode="&#xbd;" horiz-adv-x="1779" 
d="M1567 557q0 135 -172 135q-106 0 -240 -57l-10 63q131 66 255 66t185 -54t61 -128t-38 -136q-39 -62 -85 -102q-46 -41 -134 -108l-226 -168h418l-12 -68h-543l8 51l324 244q72 51 110 83t68 80q31 48 31 99zM1489 1393l-1167 -1393h-72l1167 1393h72zM133 645l14 68h199
l105 587l-203 -59l-4 68l274 84h23l-119 -680h219l-14 -68h-494z" />
    <glyph glyph-name="threequarters" unicode="&#xbe;" horiz-adv-x="1875" 
d="M1085 238h379l76 417zM1540 238h121l-12 -66h-121l-31 -172h-74l29 172h-479l10 53l569 523h78zM473 0h-72l1166 1393h71zM733 877q0 121 -194 120h-117l8 37l320 289h-400l12 70h508l-8 -50l-315 -280h18q117 -2 180 -48t64 -126q0 -113 -95 -187t-246 -74t-265 64
l37 60q123 -56 233 -56t185 52t75 129z" />
    <glyph glyph-name="questiondown" unicode="&#xbf;" horiz-adv-x="1011" 
d="M420 -389q-180 0 -296 97q-114 97 -114 263q0 207 157 351t388 143h59l37 225h86l-43 -309h-141q-193 0 -322 -116t-129 -283q0 -133 92 -210t252 -77q158 0 322 41l4 -82q-172 -43 -352 -43zM809 982q1 -32 -21 -52t-54 -21q-32 1 -54 21t-21 52q0 32 22 52q21 20 53 20
t54 -20t21 -52z" />
    <glyph glyph-name="Agrave" unicode="&#xc0;" horiz-adv-x="1527" 
d="M909 1284l-518 -829h742zM340 369l-229 -369h-111l881 1403h96l385 -1403h-105l-98 369h-819zM995 1520h-88l-162 319h123z" />
    <glyph glyph-name="Aacute" unicode="&#xc1;" horiz-adv-x="1527" 
d="M909 1284l-518 -829h742zM340 369l-229 -369h-111l881 1403h96l385 -1403h-105l-98 369h-819zM1282 1839l-270 -319h-97l242 319h125z" />
    <glyph glyph-name="Acircumflex" unicode="&#xc2;" horiz-adv-x="1527" 
d="M909 1284l-518 -829h742zM340 369l-229 -369h-111l881 1403h96l385 -1403h-105l-98 369h-819zM1001 1765l-260 -245h-98l324 319h90l209 -319h-95z" />
    <glyph glyph-name="Atilde" unicode="&#xc3;" horiz-adv-x="1527" 
d="M909 1284l-518 -829h742zM340 369l-229 -369h-111l881 1403h96l385 -1403h-105l-98 369h-819zM1204 1708h82q-10 -61 -45 -103q-35 -41 -78 -55q-98 -31 -157 17l-105 80q-37 33 -92 13t-68 -89h-79q10 61 45 103t77 56q93 30 156 -16l104 -82q40 -32 94 -12t66 88z" />
    <glyph glyph-name="Adieresis" unicode="&#xc4;" horiz-adv-x="1527" 
d="M909 1284l-518 -829h742zM340 369l-229 -369h-111l881 1403h96l385 -1403h-105l-98 369h-819zM1186 1608q-30 0 -52 20t-22 50t22 50t52 21q30 0 51 -20q20 -21 20 -51t-20 -50t-51 -20zM760 1608q-30 0 -52 20t-22 50t22 50t52 21q30 0 51 -20q20 -21 20 -51t-20 -50
t-51 -20z" />
    <glyph glyph-name="Aring" unicode="&#xc5;" horiz-adv-x="1527" 
d="M909 1284l-518 -829h742zM340 369l-229 -369h-111l881 1403h96l385 -1403h-105l-98 369h-819zM1079 1682q1 54 -31 84t-84 30t-90 -38t-38 -90t32 -83t83 -31q52 0 90 37t38 91zM968 1855q79 0 127 -47q48 -48 48 -126q-1 -78 -59 -134t-137 -55q-79 0 -127 48t-48 127
t58 133q59 54 138 54z" />
    <glyph glyph-name="AE" unicode="&#xc6;" horiz-adv-x="2254" 
d="M1319 1280l-774 -825h629zM1319 739h768l-14 -86h-768l-101 -565h850l-14 -88h-948l65 367h-692l-344 -367h-121l1307 1393h979l-15 -88h-852z" />
    <glyph glyph-name="Ccedilla" unicode="&#xc7;" horiz-adv-x="1544" 
d="M641 -414h-82l164 312h92zM817 -31q-303 0 -474 163t-171 452q0 371 251 605t658 234q230 1 457 -75l-35 -82q-227 68 -424 67q-358 0 -581 -208t-224 -531q0 -248 148 -389t414 -142q217 0 507 80l7 -84q-295 -90 -533 -90z" />
    <glyph glyph-name="Egrave" unicode="&#xc8;" horiz-adv-x="1300" 
d="M362 739h771l-15 -86h-770l-100 -565h852l-17 -88h-946l246 1393h946l-14 -88h-852zM915 1520h-88l-161 319h122z" />
    <glyph glyph-name="Eacute" unicode="&#xc9;" horiz-adv-x="1300" 
d="M362 739h771l-15 -86h-770l-100 -565h852l-17 -88h-946l246 1393h946l-14 -88h-852zM1200 1839l-270 -319h-96l241 319h125z" />
    <glyph glyph-name="Ecircumflex" unicode="&#xca;" horiz-adv-x="1300" 
d="M362 739h771l-15 -86h-770l-100 -565h852l-17 -88h-946l246 1393h946l-14 -88h-852zM920 1765l-261 -245h-98l324 319h90l209 -319h-94z" />
    <glyph glyph-name="Edieresis" unicode="&#xcb;" horiz-adv-x="1300" 
d="M362 739h771l-15 -86h-770l-100 -565h852l-17 -88h-946l246 1393h946l-14 -88h-852zM1106 1608q-30 0 -52 20t-22 50t22 50t52 21q30 0 51 -20q21 -21 21 -51t-20 -50t-52 -20zM680 1608q-30 0 -52 20t-22 50t22 50t52 21q30 0 51 -20q21 -21 21 -51t-20 -50t-52 -20z
" />
    <glyph glyph-name="Igrave" unicode="&#xcc;" horiz-adv-x="534" 
d="M477 1393l-246 -1393h-94l246 1393h94zM494 1520h-88l-162 319h123z" />
    <glyph glyph-name="Iacute" unicode="&#xcd;" horiz-adv-x="534" 
d="M477 1393l-246 -1393h-94l246 1393h94zM780 1839l-270 -319h-96l241 319h125z" />
    <glyph glyph-name="Icircumflex" unicode="&#xce;" horiz-adv-x="534" 
d="M477 1393l-246 -1393h-94l246 1393h94zM500 1765l-260 -245h-99l324 319h90l209 -319h-94z" />
    <glyph glyph-name="Idieresis" unicode="&#xcf;" horiz-adv-x="534" 
d="M477 1393l-246 -1393h-94l246 1393h94zM684 1608q-30 0 -52 20t-22 50t22 50t52 21q30 0 51 -20q21 -21 21 -51t-20 -50t-52 -20zM258 1608q-30 0 -52 20t-22 50t22 50t52 21q30 0 51 -20q21 -21 21 -51t-20 -50t-52 -20z" />
    <glyph glyph-name="Eth" unicode="&#xd0;" horiz-adv-x="1546" 
d="M616 76q319 0 531 206q211 206 211 537q0 233 -142 367t-389 135q-131 0 -364 -12l-101 -572h390l-17 -88h-389l-100 -565q237 -8 370 -8zM842 1407q286 0 452 -154t166 -422q0 -375 -245 -609t-613 -234q-78 0 -465 12l115 649h-168l16 88h168l115 656q305 14 459 14z
" />
    <glyph glyph-name="Ntilde" unicode="&#xd1;" horiz-adv-x="1597" 
d="M1540 1393l-246 -1393h-92l-751 1245l-222 -1245h-94l246 1393h90l754 -1248l221 1248h94zM1229 1708h82q-10 -61 -45 -103q-35 -41 -78 -55q-97 -31 -158 17l-104 80q-37 33 -92 13t-68 -89h-80q10 61 45 103t77 56q94 30 157 -16l104 -82q39 -32 93 -12t67 88z" />
    <glyph glyph-name="Ograve" unicode="&#xd2;" horiz-adv-x="1742" 
d="M803 57q325 0 539 213t214 541q0 238 -142 381t-386 143q-336 0 -545 -209t-209 -546q0 -236 146 -380t383 -143zM1042 1423q283 1 449 -163t166 -437q0 -371 -249 -613t-624 -241q-276 0 -444 165t-168 435q0 381 242 617t628 237zM1098 1520h-88l-162 319h123z" />
    <glyph glyph-name="Oacute" unicode="&#xd3;" horiz-adv-x="1742" 
d="M803 57q325 0 539 213t214 541q0 238 -142 381t-386 143q-336 0 -545 -209t-209 -546q0 -236 146 -380t383 -143zM1042 1423q283 1 449 -163t166 -437q0 -371 -249 -613t-624 -241q-276 0 -444 165t-168 435q0 381 242 617t628 237zM1384 1839l-270 -319h-96l242 319h124
z" />
    <glyph glyph-name="Ocircumflex" unicode="&#xd4;" horiz-adv-x="1742" 
d="M803 57q325 0 539 213t214 541q0 238 -142 381t-386 143q-336 0 -545 -209t-209 -546q0 -236 146 -380t383 -143zM1042 1423q283 1 449 -163t166 -437q0 -371 -249 -613t-624 -241q-276 0 -444 165t-168 435q0 381 242 617t628 237zM1104 1765l-260 -245h-99l324 319h90
l209 -319h-94z" />
    <glyph glyph-name="Otilde" unicode="&#xd5;" horiz-adv-x="1742" 
d="M803 57q325 0 539 213t214 541q0 238 -142 381t-386 143q-336 0 -545 -209t-209 -546q0 -236 146 -380t383 -143zM1042 1423q283 1 449 -163t166 -437q0 -371 -249 -613t-624 -241q-276 0 -444 165t-168 435q0 381 242 617t628 237zM1307 1708h82q-9 -61 -45 -103
q-36 -41 -78 -55q-97 -31 -158 17l-104 80q-36 33 -92 13t-68 -89h-80q10 61 45 103t77 56q95 30 156 -16l105 -82q39 -32 93 -12t67 88z" />
    <glyph glyph-name="Odieresis" unicode="&#xd6;" horiz-adv-x="1742" 
d="M803 57q325 0 539 213t214 541q0 238 -142 381t-386 143q-336 0 -545 -209t-209 -546q0 -236 146 -380t383 -143zM1042 1423q283 1 449 -163t166 -437q0 -371 -249 -613t-624 -241q-276 0 -444 165t-168 435q0 381 242 617t628 237zM1288 1608q-30 0 -52 20t-22 50t22 50
t52 21q30 0 51 -20q21 -21 21 -51t-20 -50t-52 -20zM862 1608q-30 0 -52 20t-22 50t22 50t52 21q30 0 51 -20q21 -21 21 -51t-20 -50t-52 -20z" />
    <glyph glyph-name="multiply" unicode="&#xd7;" horiz-adv-x="1345" 
d="M1042 313l-71 -61l-277 336l-395 -336l-53 63l395 336l-274 334l69 62l277 -332l393 334l55 -64l-395 -336z" />
    <glyph glyph-name="Oslash" unicode="&#xd8;" horiz-adv-x="1742" 
d="M803 57q325 0 539 213t214 541q0 211 -112 348l-1002 -979q142 -123 361 -123zM274 580q0 -203 111 -342l1001 979q-141 119 -358 118q-336 -1 -545 -209t-209 -546zM1657 823q0 -371 -249 -613t-624 -241q-250 0 -415 140l-140 -136l-57 56l139 135q-139 162 -139 405
q0 381 242 618t628 236q254 0 418 -135l133 131l60 -57l-135 -131q139 -158 139 -408z" />
    <glyph glyph-name="Ugrave" unicode="&#xd9;" horiz-adv-x="1566" 
d="M696 -31q-262 0 -396 157t-89 417l151 850h97l-152 -850q-39 -219 72 -351t330 -133t377 133t196 351l150 850h96l-150 -850q-47 -258 -233 -416q-187 -158 -449 -158zM1010 1520h-88l-162 319h123z" />
    <glyph glyph-name="Uacute" unicode="&#xda;" horiz-adv-x="1566" 
d="M696 -31q-262 0 -396 157t-89 417l151 850h97l-152 -850q-39 -219 72 -351t330 -133t377 133t196 351l150 850h96l-150 -850q-47 -258 -233 -416q-187 -158 -449 -158zM1296 1839l-270 -319h-96l241 319h125z" />
    <glyph glyph-name="Ucircumflex" unicode="&#xdb;" horiz-adv-x="1566" 
d="M696 -31q-262 0 -396 157t-89 417l151 850h97l-152 -850q-39 -219 72 -351t330 -133t377 133t196 351l150 850h96l-150 -850q-47 -258 -233 -416q-187 -158 -449 -158zM1014 1765l-260 -245h-99l324 319h90l209 -319h-94z" />
    <glyph glyph-name="Udieresis" unicode="&#xdc;" horiz-adv-x="1566" 
d="M696 -31q-262 0 -396 157t-89 417l151 850h97l-152 -850q-39 -219 72 -351t330 -133t377 133t196 351l150 850h96l-150 -850q-47 -258 -233 -416q-187 -158 -449 -158zM1200 1608q-30 0 -52 20t-22 50t22 50t52 21q30 0 51 -20q21 -21 21 -51t-20 -50t-52 -20zM774 1608
q-30 0 -52 20t-22 50t22 50t52 21q30 0 51 -20q21 -21 21 -51t-20 -50t-52 -20z" />
    <glyph glyph-name="Yacute" unicode="&#xdd;" horiz-adv-x="1386" 
d="M651 512l-432 881h109l387 -783l665 783h111l-741 -881l-91 -512h-100zM1206 1839l-270 -319h-96l241 319h125z" />
    <glyph glyph-name="Thorn" unicode="&#xde;" horiz-adv-x="1306" 
d="M666 346q217 0 359 121t142 311q0 146 -99 228q-98 82 -282 82t-364 -11l-127 -731h371zM805 1176q213 0 336 -102t123 -281q0 -236 -176 -384t-445 -149h-364l-46 -260h-96l246 1393h96l-41 -228q236 11 367 11z" />
    <glyph glyph-name="germandbls" unicode="&#xdf;" horiz-adv-x="1318" 
d="M573 -432q-139 0 -280 41l26 78q152 -37 271 -37q186 0 317 96t153 242t-64 225q-85 80 -248 80h-189l10 45l547 510h-747l-150 -848h-92l211 1196q35 184 121 266t252 82l-11 -84q-119 0 -182 -64t-90 -210l-43 -252h879l-11 -62l-544 -497l77 -2q188 -5 288 -105
t76 -280t-184 -300t-393 -120z" />
    <glyph glyph-name="agrave" unicode="&#xe0;" horiz-adv-x="1243" 
d="M672 883q-198 -1 -332 -139q-133 -138 -133 -355q0 -154 86 -247q85 -93 245 -93t380 123l118 678q-166 33 -364 33zM678 965q232 0 461 -52l-162 -913h-90l14 88q-211 -119 -398 -119t-293 118q-105 118 -95 312q7 248 169 407t394 159zM852 1180h-86l-160 317h125z" />
    <glyph glyph-name="aacute" unicode="&#xe1;" horiz-adv-x="1243" 
d="M672 883q-198 -1 -332 -139q-133 -138 -133 -355q0 -154 86 -247q85 -93 245 -93t380 123l118 678q-166 33 -364 33zM678 965q232 0 461 -52l-162 -913h-90l14 88q-211 -119 -398 -119t-293 118q-105 118 -95 312q7 248 169 407t394 159zM1055 1497l-267 -317h-92
l234 317h125z" />
    <glyph glyph-name="acircumflex" unicode="&#xe2;" horiz-adv-x="1243" 
d="M672 883q-198 -1 -332 -139q-133 -138 -133 -355q0 -154 86 -247q85 -93 245 -93t380 123l118 678q-166 33 -364 33zM678 965q232 0 461 -52l-162 -913h-90l14 88q-211 -119 -398 -119t-293 118q-105 118 -95 312q7 248 169 407t394 159zM817 1407l-260 -242h-96l321 318
h90l211 -318h-96z" />
    <glyph glyph-name="atilde" unicode="&#xe3;" horiz-adv-x="1243" 
d="M672 883q-198 -1 -332 -139q-133 -138 -133 -355q0 -154 86 -247q85 -93 245 -93t380 123l118 678q-166 33 -364 33zM678 965q232 0 461 -52l-162 -913h-90l14 88q-211 -119 -398 -119t-293 118q-105 118 -95 312q7 248 169 407t394 159zM1022 1366h80q-14 -82 -68 -127
q-96 -79 -211 -14l-104 82q-37 33 -93 11t-69 -87h-80q15 82 69 127q95 78 212 14l104 -80q36 -34 92 -14t68 88z" />
    <glyph glyph-name="adieresis" unicode="&#xe4;" horiz-adv-x="1243" 
d="M672 883q-198 -1 -332 -139q-133 -138 -133 -355q0 -154 86 -247q85 -93 245 -93t380 123l118 678q-166 33 -364 33zM678 965q232 0 461 -52l-162 -913h-90l14 88q-211 -119 -398 -119t-293 118q-105 118 -95 312q7 248 169 407t394 159zM998 1358q30 0 52 -20t22 -51
q0 -30 -22 -50t-52 -20t-52 20t-20 50q0 31 21 51t51 20zM572 1358q30 0 52 -20t22 -51q0 -30 -22 -50t-52 -20t-52 20t-20 50q0 31 21 51t51 20z" />
    <glyph glyph-name="aring" unicode="&#xe5;" horiz-adv-x="1243" 
d="M672 883q-198 -1 -332 -139q-133 -138 -133 -355q0 -154 86 -247q85 -93 245 -93t380 123l118 678q-166 33 -364 33zM678 965q232 0 461 -52l-162 -913h-90l14 88q-211 -119 -398 -119t-293 118q-105 118 -95 312q7 248 169 407t394 159zM757 1196q52 0 90 37t38 90
t-32 85t-84 32t-90 -38t-38 -90t32 -84t84 -32zM773 1497q79 0 127 -46t48 -125t-59 -134t-139 -55t-126 47t-46 127t58 133t137 53z" />
    <glyph glyph-name="ae" unicode="&#xe6;" horiz-adv-x="1855" 
d="M154 229q0 -182 297 -182q174 0 415 92q-63 102 -63 242l2 45l-299 2q-352 4 -352 -199zM1363 887q-169 -1 -294 -105t-160 -274h750q33 174 -47 276t-249 103zM1382 965q201 0 301 -124t62 -335q-12 -57 -16 -74h-828l-2 -39q0 -154 89 -247t245 -93q117 0 358 53l2 -73
q-209 -63 -387 -63t-291 108q-272 -109 -495 -109q-358 0 -359 244q0 301 465 297l289 -4l21 96q23 133 -43 207t-185 74q-182 0 -377 -31l5 78q208 37 360 37q290 0 330 -215q167 213 456 213z" />
    <glyph glyph-name="ccedilla" unicode="&#xe7;" horiz-adv-x="1085" 
d="M362 -414h-81l163 312h93zM713 883q-215 1 -359 -137t-145 -351q0 -156 94 -248q95 -92 243 -92t359 56l4 -82q-207 -59 -385 -59t-294 112q-116 113 -115 299q0 256 175 420t439 164q166 -1 309 -52l-28 -73q-168 43 -297 43z" />
    <glyph glyph-name="egrave" unicode="&#xe8;" horiz-adv-x="1163" 
d="M675 887q-167 1 -290 -103t-164 -276h742q27 188 -47 284t-241 95zM679 965q210 0 307 -120t65 -337q-6 -45 -17 -76h-825q-16 -180 70 -278t266 -99q109 0 352 54l4 -76q-219 -63 -364 -64q-229 0 -340 132q-111 131 -79 357t192 366t369 141zM805 1180h-86l-160 317
h125z" />
    <glyph glyph-name="eacute" unicode="&#xe9;" horiz-adv-x="1163" 
d="M675 887q-167 1 -290 -103t-164 -276h742q27 188 -47 284t-241 95zM679 965q210 0 307 -120t65 -337q-6 -45 -17 -76h-825q-16 -180 70 -278t266 -99q109 0 352 54l4 -76q-219 -63 -364 -64q-229 0 -340 132q-111 131 -79 357t192 366t369 141zM1008 1497l-267 -317h-92
l234 317h125z" />
    <glyph glyph-name="ecircumflex" unicode="&#xea;" horiz-adv-x="1163" 
d="M675 887q-167 1 -290 -103t-164 -276h742q27 188 -47 284t-241 95zM679 965q210 0 307 -120t65 -337q-6 -45 -17 -76h-825q-16 -180 70 -278t266 -99q109 0 352 54l4 -76q-219 -63 -364 -64q-229 0 -340 132q-111 131 -79 357t192 366t369 141zM770 1407l-260 -242h-96
l321 318h90l211 -318h-96z" />
    <glyph glyph-name="edieresis" unicode="&#xeb;" horiz-adv-x="1163" 
d="M675 887q-167 1 -290 -103t-164 -276h742q27 188 -47 284t-241 95zM679 965q210 0 307 -120t65 -337q-6 -45 -17 -76h-825q-16 -180 70 -278t266 -99q109 0 352 54l4 -76q-219 -63 -364 -64q-229 0 -340 132q-111 131 -79 357t192 366t369 141zM950 1217q-30 0 -50 20
q-22 20 -22 50q0 31 22 51q21 20 51 20q29 0 51 -20t22 -51q0 -30 -22 -50t-52 -20zM525 1358q30 0 52 -20q21 -20 21 -51q0 -30 -22 -50t-51 -20t-51 20t-22 50q0 31 22 51q21 20 51 20z" />
    <glyph glyph-name="igrave" unicode="&#xec;" horiz-adv-x="501" 
d="M379 934l-164 -934h-92l166 934h90zM381 1180h-86l-160 317h125z" />
    <glyph glyph-name="iacute" unicode="&#xed;" horiz-adv-x="501" 
d="M379 934l-164 -934h-92l166 934h90zM684 1497l-266 -317h-92l233 317h125z" />
    <glyph glyph-name="icircumflex" unicode="&#xee;" horiz-adv-x="501" 
d="M379 934l-164 -934h-92l166 934h90zM424 1407l-260 -242h-96l321 318h90l211 -318h-96z" />
    <glyph glyph-name="idieresis" unicode="&#xef;" horiz-adv-x="501" 
d="M379 934l-164 -934h-92l166 934h90zM604 1217q-30 0 -50 20q-22 20 -22 50q0 31 22 51t51 20t51 -20t22 -51q0 -30 -22 -50t-52 -20zM178 1217q-30 0 -50 20q-22 20 -22 50q0 31 22 51t51 20t51 -20t22 -51q0 -30 -22 -50t-52 -20z" />
    <glyph glyph-name="eth" unicode="&#xf0;" horiz-adv-x="1247" 
d="M695 883q-181 0 -319 -118t-165 -303t67 -297t280 -112q188 0 318 118q130 119 160 313t-66 296q-94 102 -275 103zM549 -33q-229 1 -349 143t-80 364t202 357t376 136q132 1 226 -55t129 -152q-12 307 -197 481l-364 -127l-13 64l320 112q-101 84 -242 125l105 37
q131 -43 229 -131l178 63l12 -63l-135 -49q127 -133 178 -335q50 -203 8 -449t-198 -384t-385 -137z" />
    <glyph glyph-name="ntilde" unicode="&#xf1;" horiz-adv-x="1249" 
d="M782 965q176 1 258 -103t50 -291l-101 -571h-92l98 559q27 154 -35 238t-202 84q-203 0 -402 -35l-149 -846h-92l159 913q227 52 508 52zM1001 1366h80q-14 -82 -68 -127q-55 -45 -111 -42t-99 28l-105 82q-37 33 -93 11t-68 -87h-80q14 82 68 127q95 79 212 14l105 -80
q37 -34 92 -14t67 88z" />
    <glyph glyph-name="ograve" unicode="&#xf2;" horiz-adv-x="1255" 
d="M557 53q205 -1 347 139t143 345q1 160 -93 253t-256 93q-205 1 -347 -137t-142 -345q0 -160 93 -254t255 -94zM713 967q199 0 315 -112t115 -304q0 -248 -175 -416t-425 -168q-197 0 -313 115t-115 307q0 250 174 414t424 164zM834 1180h-86l-160 317h125z" />
    <glyph glyph-name="oacute" unicode="&#xf3;" horiz-adv-x="1255" 
d="M557 53q205 -1 347 139t143 345q1 160 -93 253t-256 93q-205 1 -347 -137t-142 -345q0 -160 93 -254t255 -94zM713 967q199 0 315 -112t115 -304q0 -248 -175 -416t-425 -168q-197 0 -313 115t-115 307q0 250 174 414t424 164zM1036 1497l-266 -317h-92l233 317h125z" />
    <glyph glyph-name="ocircumflex" unicode="&#xf4;" horiz-adv-x="1255" 
d="M557 53q205 -1 347 139t143 345q1 160 -93 253t-256 93q-205 1 -347 -137t-142 -345q0 -160 93 -254t255 -94zM713 967q199 0 315 -112t115 -304q0 -248 -175 -416t-425 -168q-197 0 -313 115t-115 307q0 250 174 414t424 164zM801 1407l-260 -242h-97l322 318h90
l211 -318h-96z" />
    <glyph glyph-name="otilde" unicode="&#xf5;" horiz-adv-x="1255" 
d="M557 53q205 -1 347 139t143 345q1 160 -93 253t-256 93q-205 1 -347 -137t-142 -345q0 -160 93 -254t255 -94zM713 967q199 0 315 -112t115 -304q0 -248 -175 -416t-425 -168q-197 0 -313 115t-115 307q0 250 174 414t424 164zM1006 1366h79q-14 -82 -68 -127
q-55 -45 -111 -42t-99 28l-105 82q-37 33 -93 11t-68 -87h-80q14 82 68 127q95 79 212 14l105 -80q36 -34 92 -14t68 88z" />
    <glyph glyph-name="odieresis" unicode="&#xf6;" horiz-adv-x="1255" 
d="M557 53q205 -1 347 139t143 345q1 160 -93 253t-256 93q-205 1 -347 -137t-142 -345q0 -160 93 -254t255 -94zM713 967q199 0 315 -112t115 -304q0 -248 -175 -416t-425 -168q-197 0 -313 115t-115 307q0 250 174 414t424 164zM982 1217q-30 0 -52 20t-21 50q-1 31 21 51
t52 20t52 -20t21 -51q0 -30 -22 -50q-21 -20 -51 -20zM556 1217q-30 0 -52 20t-21 50q-1 31 21 51t52 20t52 -20t21 -51q0 -30 -22 -50q-21 -20 -51 -20z" />
    <glyph glyph-name="divide" unicode="&#xf7;" horiz-adv-x="1429" 
d="M616 209q-29 0 -49 20q-20 19 -20 49t20 50t49 20t51 -20q21 -20 21 -49t-21 -50q-22 -20 -51 -20zM295 696h922l-17 -86h-921zM821 961q-29 0 -49 19t-20 49t20 49q20 20 50 20t50 -20t20 -49q0 -30 -20 -49q-22 -19 -51 -19z" />
    <glyph glyph-name="oslash" unicode="&#xf8;" horiz-adv-x="1255" 
d="M1047 537q0 145 -76 233l-649 -641q92 -76 235 -76q205 -1 347 139t143 345zM209 401q0 -131 65 -221l646 639q-88 63 -222 64q-205 1 -347 -137t-142 -345zM543 -33q-174 0 -291 94l-143 -141l-52 47l146 146q-88 106 -88 276q0 250 174 414t424 164q166 0 274 -80
l141 139l52 -49l-140 -137q102 -109 103 -289q0 -248 -175 -416t-425 -168z" />
    <glyph glyph-name="ugrave" unicode="&#xf9;" horiz-adv-x="1241" 
d="M467 -31q-180 1 -261 101t-48 292l102 572h90l-98 -561q-26 -156 34 -239t203 -83q199 0 402 33l151 850h91l-160 -914q-225 -51 -506 -51zM825 1180h-86l-159 317h125z" />
    <glyph glyph-name="uacute" unicode="&#xfa;" horiz-adv-x="1241" 
d="M467 -31q-180 1 -261 101t-48 292l102 572h90l-98 -561q-26 -156 34 -239t203 -83q199 0 402 33l151 850h91l-160 -914q-225 -51 -506 -51zM1030 1497l-266 -317h-92l233 317h125z" />
    <glyph glyph-name="ucircumflex" unicode="&#xfb;" horiz-adv-x="1241" 
d="M467 -31q-180 1 -261 101t-48 292l102 572h90l-98 -561q-26 -156 34 -239t203 -83q199 0 402 33l151 850h91l-160 -914q-225 -51 -506 -51zM793 1407l-261 -242h-96l322 318h90l211 -318h-96z" />
    <glyph glyph-name="udieresis" unicode="&#xfc;" horiz-adv-x="1241" 
d="M467 -31q-180 1 -261 101t-48 292l102 572h90l-98 -561q-26 -156 34 -239t203 -83q199 0 402 33l151 850h91l-160 -914q-225 -51 -506 -51zM974 1217q-30 0 -52 20t-21 50q-1 31 21 51t52 20t52 -20t21 -51q0 -30 -22 -50q-21 -20 -51 -20zM548 1217q-30 0 -52 20t-21 50
q-1 31 21 51t52 20t52 -20t21 -51q0 -30 -22 -50q-21 -20 -51 -20z" />
    <glyph glyph-name="yacute" unicode="&#xfd;" horiz-adv-x="1236" 
d="M1239 934l-971 -1391h-102l362 520l-362 871h102l326 -776l541 776h104zM741 1180h-92l234 317h125z" />
    <glyph glyph-name="thorn" unicode="&#xfe;" horiz-adv-x="1265" 
d="M590 49q199 0 335 142t136 360q0 152 -86 242t-260 90t-350 -33l-136 -766q162 -35 361 -35zM754 965q195 0 300 -116t97 -308q-8 -250 -169 -411t-383 -161t-384 35l-82 -461h-90l336 1911h92l-94 -524q182 35 377 35z" />
    <glyph glyph-name="ydieresis" unicode="&#xff;" horiz-adv-x="1236" 
d="M1239 934l-971 -1391h-102l362 520l-362 871h102l326 -776l541 776h104zM1024 1287q0 -30 -22 -50t-51 -20t-51 20t-22 50t22 50q22 21 52 21t50 -20q22 -20 22 -51zM525 1217q-29 0 -51 20t-22 50t22 50q22 21 52 21t51 -20t21 -51q0 -30 -22 -50t-51 -20z" />
    <glyph glyph-name="Amacron" unicode="&#x100;" horiz-adv-x="1527" 
d="M909 1284l-518 -829h742zM340 369l-229 -369h-111l881 1403h96l385 -1403h-105l-98 369h-819zM1266 1683l-13 -73h-565l12 73h566z" />
    <glyph glyph-name="amacron" unicode="&#x101;" horiz-adv-x="1243" 
d="M672 883q-198 -1 -332 -139q-133 -138 -133 -355q0 -154 86 -247q85 -93 245 -93t380 123l118 678q-166 33 -364 33zM678 965q232 0 461 -52l-162 -913h-90l14 88q-211 -119 -398 -119t-293 118q-105 118 -95 312q7 248 169 407t394 159zM1077 1372l-12 -74h-549l14 74
h547z" />
    <glyph glyph-name="Abreve" unicode="&#x102;" horiz-adv-x="1527" 
d="M909 1284l-518 -829h742zM340 369l-229 -369h-111l881 1403h96l385 -1403h-105l-98 369h-819zM958 1536q-126 0 -192 76q-64 76 -41 200h76q-14 -94 32 -149t138 -55q93 0 159 55t82 149h76q-24 -124 -114 -200t-216 -76z" />
    <glyph glyph-name="abreve" unicode="&#x103;" horiz-adv-x="1243" 
d="M672 883q-198 -1 -332 -139q-133 -138 -133 -355q0 -154 86 -247q85 -93 245 -93t380 123l118 678q-166 33 -364 33zM678 965q232 0 461 -52l-162 -913h-90l14 88q-211 -119 -398 -119t-293 118q-105 118 -95 312q7 248 169 407t394 159zM768 1161q-127 0 -190 77
t-41 202h75q-16 -94 31 -150t139 -57q92 1 159 57t81 150h76q-20 -125 -112 -202t-218 -77z" />
    <glyph glyph-name="Aogonek" unicode="&#x104;" horiz-adv-x="1527" 
d="M1133 455l-224 829l-518 -829h742zM1266 -334q4 0 65 6l4 -75q-37 -10 -94 -11q-105 0 -163 54t-46 141q20 141 221 235l-94 353h-819l-229 -369h-111l881 1403h96l385 -1403h-35q-190 -82 -211 -201q-10 -61 30 -97t120 -36z" />
    <glyph glyph-name="aogonek" unicode="&#x105;" horiz-adv-x="1243" 
d="M207 389q-1 -154 85 -247t246 -93t380 123l118 678q-166 33 -364 33q-198 -1 -332 -139q-133 -138 -133 -355zM883 -338q4 0 65 6l4 -76q-37 -10 -94 -10q-104 0 -163 54q-58 54 -46 141q23 150 242 243l10 68q-211 -119 -398 -119t-293 118q-105 118 -95 312
q8 248 170 407t393 159t461 -52l-162 -913h-25q-96 -41 -152 -88q-56 -46 -66 -112t29 -102q40 -36 120 -36z" />
    <glyph glyph-name="Cacute" unicode="&#x106;" horiz-adv-x="1544" 
d="M817 -31q-303 0 -474 163t-171 452q0 371 251 605t658 234q230 1 457 -75l-35 -82q-227 68 -424 67q-358 0 -581 -208t-224 -531q0 -248 148 -389t414 -142q217 0 507 80l7 -84q-295 -90 -533 -90zM1413 1839l-270 -319h-96l241 319h125z" />
    <glyph glyph-name="cacute" unicode="&#x107;" horiz-adv-x="1085" 
d="M713 883q-215 1 -359 -137t-145 -351q0 -156 94 -248q95 -92 243 -92t359 56l4 -82q-207 -59 -385 -59t-294 112q-116 113 -115 299q0 256 175 420t439 164q166 -1 309 -52l-28 -73q-168 43 -297 43zM1016 1497l-266 -317h-93l234 317h125z" />
    <glyph glyph-name="Cdotaccent" unicode="&#x10a;" horiz-adv-x="1544" 
d="M817 -31q-303 0 -474 163t-171 452q0 371 251 605t658 234q230 1 457 -75l-35 -82q-227 68 -424 67q-358 0 -581 -208t-224 -531q0 -248 148 -389t414 -142q217 0 507 80l7 -84q-295 -90 -533 -90zM1184 1682q0 -30 -22 -50t-51 -20t-51 20t-22 50t22 52t52 22t50 -22
q22 -22 22 -52z" />
    <glyph glyph-name="cdotaccent" unicode="&#x10b;" horiz-adv-x="1085" 
d="M713 883q-215 1 -359 -137t-145 -351q0 -156 94 -248q95 -92 243 -92t359 56l4 -82q-207 -59 -385 -59t-294 112q-116 113 -115 299q0 256 175 420t439 164q166 -1 309 -52l-28 -73q-168 43 -297 43zM752 1217q-31 0 -52 20q-20 20 -20 50t20 50q20 21 52 21t51 -20
q20 -20 20 -51q0 -30 -20 -50t-51 -20z" />
    <glyph glyph-name="Ccaron" unicode="&#x10c;" horiz-adv-x="1544" 
d="M817 -31q-303 0 -474 163t-171 452q0 371 251 605t658 234q230 1 457 -75l-35 -82q-227 68 -424 67q-358 0 -581 -208t-224 -531q0 -248 148 -389t414 -142q217 0 507 80l7 -84q-295 -90 -533 -90zM1130 1513h-90l-209 324h99l166 -254l258 254h100z" />
    <glyph glyph-name="ccaron" unicode="&#x10d;" horiz-adv-x="1085" 
d="M713 883q-215 1 -359 -137t-145 -351q0 -156 94 -248q95 -92 243 -92t359 56l4 -82q-207 -59 -385 -59t-294 112q-116 113 -115 299q0 256 175 420t439 164q166 -1 309 -52l-28 -73q-168 43 -297 43zM776 1163h-92l-209 324h98l166 -254l258 254h101z" />
    <glyph glyph-name="Dcaron" unicode="&#x10e;" horiz-adv-x="1546" 
d="M616 76q319 0 531 206q211 206 211 537q0 233 -142 367t-389 135q-131 0 -364 -12l-217 -1225q237 -8 370 -8zM842 1407q286 0 452 -154t166 -422q0 -375 -245 -609t-613 -234q-78 0 -465 12l246 1393q305 14 459 14zM940 1513h-90l-209 324h98l166 -254l258 254h101z
" />
    <glyph glyph-name="dcaron" unicode="&#x10f;" horiz-adv-x="1249" 
d="M671 883q-204 -1 -334 -141t-130 -353q0 -154 86 -247t237 -93q197 0 371 35l131 750q-157 49 -361 49zM1483 1454l-117 -395h-74l92 395h99zM508 -31q-182 0 -288 112q-105 112 -105 298q0 256 160 421q161 165 413 165q209 0 363 -52l94 541h90l-252 -1434
q-184 -39 -283 -45q-100 -6 -192 -6z" />
    <glyph glyph-name="Dcroat" unicode="&#x110;" horiz-adv-x="1546" 
d="M616 76q319 0 531 206q211 206 211 537q0 233 -142 367t-389 135q-131 0 -364 -12l-101 -572h390l-17 -88h-389l-100 -565q237 -8 370 -8zM842 1407q286 0 452 -154t166 -422q0 -375 -245 -609t-613 -234q-78 0 -465 12l115 649h-168l16 88h168l115 656q305 14 459 14z
" />
    <glyph glyph-name="dcroat" unicode="&#x111;" horiz-adv-x="1251" 
d="M670 883q-204 -1 -333 -141q-130 -140 -130 -353q0 -154 86 -247t237 -93q197 0 371 35l131 750q-158 49 -362 49zM508 -31q-182 0 -288 112q-105 112 -105 298q0 256 160 421q161 165 413 165q209 0 363 -52l49 287h-406l13 78h407l31 176h90l-31 -176h107l-15 -78h-106
l-207 -1180q-184 -39 -283 -45q-100 -6 -192 -6z" />
    <glyph glyph-name="Emacron" unicode="&#x112;" horiz-adv-x="1300" 
d="M362 739h771l-15 -86h-770l-100 -565h852l-17 -88h-946l246 1393h946l-14 -88h-852zM1186 1683l-12 -73h-566l13 73h565z" />
    <glyph glyph-name="emacron" unicode="&#x113;" horiz-adv-x="1163" 
d="M675 887q-167 1 -290 -103t-164 -276h742q27 188 -47 284t-241 95zM679 965q210 0 307 -120t65 -337q-6 -45 -17 -76h-825q-16 -180 70 -278t266 -99q109 0 352 54l4 -76q-219 -63 -364 -64q-229 0 -340 132q-111 131 -79 357t192 366t369 141zM1030 1372l-12 -74h-549
l14 74h547z" />
    <glyph glyph-name="Edotaccent" unicode="&#x116;" horiz-adv-x="1300" 
d="M362 739h771l-15 -86h-770l-100 -565h852l-17 -88h-946l246 1393h946l-14 -88h-852zM971 1682q1 -30 -21 -50t-52 -20t-52 20t-21 50q0 30 22 52q21 22 51 22t52 -22t21 -52z" />
    <glyph glyph-name="edotaccent" unicode="&#x117;" horiz-adv-x="1163" 
d="M675 887q-167 1 -290 -103t-164 -276h742q27 188 -47 284t-241 95zM679 965q210 0 307 -120t65 -337q-6 -45 -17 -76h-825q-16 -180 70 -278t266 -99q109 0 352 54l4 -76q-219 -63 -364 -64q-229 0 -340 132q-111 131 -79 357t192 366t369 141zM743 1217q-31 0 -51 20
t-20 50t20 50q20 21 51 21t51 -20t21 -51q-1 -30 -21 -50t-51 -20z" />
    <glyph glyph-name="Eogonek" unicode="&#x118;" horiz-adv-x="1300" 
d="M909 -342q4 0 66 6l4 -76q-37 -10 -94 -10q-104 0 -163 54q-58 54 -46 141q20 135 205 227h-744l246 1393h946l-14 -88h-852l-101 -566h771l-15 -86h-770l-100 -565h852l-17 -88h-94q-99 -41 -159 -89q-60 -49 -70 -115t30 -102t119 -36z" />
    <glyph glyph-name="eogonek" unicode="&#x119;" horiz-adv-x="1163" 
d="M674 887q-166 1 -289 -103t-164 -276h742q27 188 -47 284q-76 96 -242 95zM679 965q210 0 307 -120t65 -337q-6 -45 -17 -76h-825q-16 -180 70 -278t266 -99q109 0 352 54l4 -76q-45 -14 -115 -31q-203 -84 -221 -205q-10 -61 30 -97t120 -36q4 0 65 6l4 -76
q-37 -10 -94 -10q-104 0 -162 54t-47 141q16 113 148 196q-47 -6 -92 -6q-229 0 -340 132q-111 131 -79 357t192 366t369 141z" />
    <glyph glyph-name="Ecaron" unicode="&#x11a;" horiz-adv-x="1300" 
d="M362 739h771l-15 -86h-770l-100 -565h852l-17 -88h-946l246 1393h946l-14 -88h-852zM918 1513h-91l-209 324h99l166 -254l258 254h100z" />
    <glyph glyph-name="ecaron" unicode="&#x11b;" horiz-adv-x="1163" 
d="M675 887q-167 1 -290 -103t-164 -276h742q27 188 -47 284t-241 95zM679 965q210 0 307 -120t65 -337q-6 -45 -17 -76h-825q-16 -180 70 -278t266 -99q109 0 352 54l4 -76q-219 -63 -364 -64q-229 0 -340 132q-111 131 -79 357t192 366t369 141zM768 1163h-92l-209 324h98
l166 -254l258 254h101z" />
    <glyph glyph-name="Gbreve" unicode="&#x11e;" horiz-adv-x="1669" 
d="M817 -31q-299 0 -472 167t-173 435q0 383 244 617t641 235q254 0 479 -73l-35 -84q-236 68 -454 67q-347 0 -561 -205t-214 -540q0 -238 150 -383t406 -145t542 102l86 489h-584l15 86h674l-111 -635q-334 -133 -633 -133zM1072 1536q-126 0 -190 76t-42 200h75
q-14 -94 32 -149t138 -55t159 55t83 149h76q-23 -124 -114 -200t-217 -76z" />
    <glyph glyph-name="gbreve" unicode="&#x11f;" horiz-adv-x="1232" 
d="M672 883q-198 -1 -332 -139q-133 -138 -133 -355q0 -154 86 -247t235 -93q197 0 373 35l135 766q-166 33 -364 33zM678 965q232 0 461 -52l-162 -913q-39 -226 -197 -364t-364 -138t-363 76l33 76q160 -68 333 -68t303 115t165 307q-177 -35 -373 -35t-303 118
q-106 118 -96 312q7 248 169 407t394 159zM756 1161q-127 0 -191 77q-63 77 -41 202h76q-16 -94 31 -150t139 -57q92 1 159 57t81 150h75q-20 -125 -111 -202t-218 -77z" />
    <glyph glyph-name="Gdotaccent" unicode="&#x120;" horiz-adv-x="1669" 
d="M817 -31q-299 0 -472 167t-173 435q0 383 244 617t641 235q254 0 479 -73l-35 -84q-236 68 -454 67q-347 0 -561 -205t-214 -540q0 -238 150 -383t406 -145t542 102l86 489h-584l15 86h674l-111 -635q-334 -133 -633 -133zM1095 1612q-30 0 -52 20q-21 20 -21 50t21 52
q22 22 52 22q29 0 51 -22t22 -52t-22 -50q-21 -20 -51 -20z" />
    <glyph glyph-name="gdotaccent" unicode="&#x121;" horiz-adv-x="1232" 
d="M672 883q-198 -1 -332 -139q-133 -138 -133 -355q0 -154 86 -247t235 -93q197 0 373 35l135 766q-166 33 -364 33zM678 965q232 0 461 -52l-162 -913q-39 -226 -197 -364t-364 -138t-363 76l33 76q160 -68 333 -68t303 115t165 307q-177 -35 -373 -35t-303 118
q-106 118 -96 312q7 248 169 407t394 159zM776 1217q-31 0 -51 20t-20 50t20 50q20 21 51 21t51 -20q21 -20 21 -51q0 -30 -20 -50t-52 -20z" />
    <glyph glyph-name="Gcommaaccent" unicode="&#x122;" horiz-adv-x="1669" 
d="M678 -236q0 30 20 50t52 20t52 -20q22 -20 21 -50q0 -52 -100 -260h-66l72 197q-51 12 -51 63zM817 -31q-299 0 -472 167t-173 435q0 383 244 617t641 235q254 0 479 -73l-35 -84q-236 68 -454 67q-347 0 -561 -205t-214 -540q0 -238 150 -383t406 -145t542 102l86 489
h-584l15 86h674l-111 -635q-334 -133 -633 -133z" />
    <glyph glyph-name="gcommaaccent" unicode="&#x123;" horiz-adv-x="1232" 
d="M672 883q-198 -1 -332 -139q-133 -138 -133 -355q0 -154 86 -247t235 -93q197 0 373 35l135 766q-166 33 -364 33zM678 965q232 0 461 -52l-162 -913q-39 -226 -197 -364t-364 -138t-363 76l33 76q160 -68 333 -68t303 115t165 307q-177 -35 -373 -35t-303 118
q-106 118 -96 312q7 248 169 407t394 159zM819 1280q0 -29 -20 -49q-19 -21 -51 -21t-54 20t-20 50q0 52 100 260h66l-72 -197q51 -12 51 -63z" />
    <glyph glyph-name="Hbar" unicode="&#x126;" horiz-adv-x="1540" 
d="M1325 1047h-909l-54 -310h910zM1526 1047h-105l-184 -1047h-96l116 649h-909l-117 -649h-94l185 1047h-105l14 81h105l47 265h94l-47 -265h909l47 265h97l-47 -265h104z" />
    <glyph glyph-name="hbar" unicode="&#x127;" horiz-adv-x="1253" 
d="M793 965q176 -1 257 -103t48 -289l-101 -573h-92l99 557q26 154 -36 239t-204 85q-211 0 -404 -52l-145 -829h-92l211 1200h-146l15 72h143l33 182h92l-33 -182h375l-14 -72h-373l-51 -287q182 52 418 52z" />
    <glyph glyph-name="Imacron" unicode="&#x12a;" horiz-adv-x="534" 
d="M477 1393l-246 -1393h-94l246 1393h94zM764 1683l-12 -73h-566l13 73h565z" />
    <glyph glyph-name="imacron" unicode="&#x12b;" horiz-adv-x="501" 
d="M379 934l-164 -934h-92l166 934h90zM684 1372l-12 -74h-549l14 74h547z" />
    <glyph glyph-name="Iogonek" unicode="&#x12e;" horiz-adv-x="534" 
d="M141 -340q4 0 66 6l4 -76q-37 -10 -94 -10q-106 0 -164 54q-57 54 -45 141q20 145 231 241l244 1377h94l-246 -1393h-14q-207 -88 -225 -207q-10 -61 30 -97t119 -36z" />
    <glyph glyph-name="iogonek" unicode="&#x12f;" horiz-adv-x="501" 
d="M125 -338q4 0 65 6l5 -76q-37 -10 -95 -10q-106 0 -163 54t-46 141q20 145 236 241l162 916h90l-164 -934h-20q-97 -41 -153 -88q-56 -46 -66 -112t29 -102q40 -36 120 -36zM395 1358q31 0 51 -20t20 -51q0 -30 -20 -50t-51 -20t-51 20t-20 50q0 31 20 51t51 20z" />
    <glyph glyph-name="Idotaccent" unicode="&#x130;" horiz-adv-x="534" 
d="M477 1393l-246 -1393h-94l246 1393h94zM481 1634q-35 0 -57 23t-23 55q0 32 24 56q25 22 57 22t56 -23t24 -55t-24 -56q-22 -22 -57 -22z" />
    <glyph glyph-name="dotlessi" unicode="&#x131;" horiz-adv-x="501" 
d="M379 934l-166 -934h-90l166 934h90z" />
    <glyph glyph-name="IJ" unicode="&#x132;" horiz-adv-x="1714" 
d="M968 -31q-216 0 -442 92l37 84q213 -84 399 -84t306 114q119 114 153 321l158 897h96l-157 -897q-46 -254 -190 -390t-360 -137zM477 1393l-246 -1393h-94l246 1393h94z" />
    <glyph glyph-name="ij" unicode="&#x133;" horiz-adv-x="978" 
d="M870 934l-184 -1045q-35 -199 -121 -285t-266 -87l10 82q131 4 194 67q62 63 91 217l186 1051h90zM379 934l-164 -934h-92l166 934h90zM883 1214q-31 0 -53 22t-22 54t22 51q22 21 53 21t53 -22t22 -52t-22 -52t-53 -22zM467 1289q1 -31 -21 -53t-54 -22t-54 22t-21 54
q0 32 22 51q21 21 53 21t54 -20t21 -53z" />
    <glyph glyph-name="Kcommaaccent" unicode="&#x136;" horiz-adv-x="1386" 
d="M633 -220q0 -59 -101 -261h-65l72 196q-51 12 -52 64q1 29 21 49t51 20t53 -20t21 -48zM340 606l-109 -606h-94l246 1393h94l-121 -697h158l778 697h125l-776 -699l596 -694h-123l-526 606h-248z" />
    <glyph glyph-name="kcommaaccent" unicode="&#x137;" horiz-adv-x="1165" 
d="M537 -220q0 -59 -101 -261h-65l71 196q-51 12 -51 64q1 29 21 49t51 20t53 -20t21 -48zM309 514h156l502 420h120l-509 -434l428 -500h-111l-373 428h-227l-76 -428h-92l258 1454h90z" />
    <glyph glyph-name="Lacute" unicode="&#x139;" horiz-adv-x="1189" 
d="M1030 0h-893l246 1393h94l-229 -1307h799zM786 1839l-270 -319h-96l242 319h124z" />
    <glyph glyph-name="lacute" unicode="&#x13a;" horiz-adv-x="512" 
d="M475 1454l-256 -1454h-92l258 1454h90zM762 1858l-266 -320h-93l234 320h125z" />
    <glyph glyph-name="Lcommaaccent" unicode="&#x13b;" horiz-adv-x="1189" 
d="M465 -221q0 29 20 49q19 20 51 20t54 -20q36 -34 6 -115t-86 -194h-66l72 196q-51 12 -51 64zM1030 0h-893l246 1393h94l-229 -1307h799z" />
    <glyph glyph-name="lcommaaccent" unicode="&#x13c;" horiz-adv-x="512" 
d="M201 -220q0 -59 -101 -261h-65l71 196q-51 12 -51 64q1 29 21 49t51 20t53 -20t21 -48zM475 1454l-256 -1454h-92l258 1454h90z" />
    <glyph glyph-name="Lcaron" unicode="&#x13d;" horiz-adv-x="1189" 
d="M846 1393l-117 -396h-74l93 396h98zM1030 0h-893l246 1393h94l-229 -1307h799z" />
    <glyph glyph-name="lcaron" unicode="&#x13e;" horiz-adv-x="512" 
d="M723 1454l-117 -395h-74l93 395h98zM475 1454l-256 -1454h-92l258 1454h90z" />
    <glyph glyph-name="Ldot" unicode="&#x13f;" horiz-adv-x="1159" 
d="M750 526q-31 0 -53 22q-21 22 -21 52t21 49q22 21 53 21t51 -20t20 -51q0 -29 -20 -51t-51 -22zM1030 0h-893l246 1393h94l-229 -1307h799z" />
    <glyph glyph-name="ldot" unicode="&#x140;" horiz-adv-x="559" 
d="M529 596q-29 0 -51 20t-22 50t22 51q22 20 52 20t51 -20t21 -50t-21 -51q-22 -20 -52 -20zM475 1454l-256 -1454h-92l258 1454h90z" />
    <glyph glyph-name="Lslash" unicode="&#x141;" horiz-adv-x="1189" 
d="M1047 86l-17 -86h-893l90 510l-182 -90l14 90l185 90l139 793h94l-129 -742l354 176l-16 -88l-354 -176l-84 -477h799z" />
    <glyph glyph-name="lslash" unicode="&#x142;" horiz-adv-x="512" 
d="M510 752l-174 -88l-117 -664h-92l109 612l-173 -86l15 86l174 86l133 756h90l-125 -704l176 88z" />
    <glyph glyph-name="Nacute" unicode="&#x143;" horiz-adv-x="1597" 
d="M1540 1393l-246 -1393h-92l-751 1245l-222 -1245h-94l246 1393h90l754 -1248l221 1248h94zM1307 1839l-271 -319h-96l242 319h125z" />
    <glyph glyph-name="nacute" unicode="&#x144;" horiz-adv-x="1249" 
d="M782 965q176 1 258 -103t50 -291l-101 -571h-92l98 559q27 154 -35 238t-202 84q-203 0 -402 -35l-149 -846h-92l159 913q227 52 508 52zM1034 1497l-266 -317h-92l233 317h125z" />
    <glyph glyph-name="Ncommaaccent" unicode="&#x145;" horiz-adv-x="1597" 
d="M756 -220q0 -59 -101 -261h-65l72 196q-51 12 -52 64q0 29 20 49t52 20q30 0 52 -20t22 -48zM1540 1393l-246 -1393h-92l-751 1245l-222 -1245h-94l246 1393h90l754 -1248l221 1248h94z" />
    <glyph glyph-name="ncommaaccent" unicode="&#x146;" horiz-adv-x="1249" 
d="M578 -220q0 -59 -101 -261h-65l71 196q-51 12 -51 64q0 29 20 49t52 20q30 0 52 -20t22 -48zM782 965q176 1 258 -103t50 -291l-101 -571h-92l98 559q27 154 -35 238t-202 84q-203 0 -402 -35l-149 -846h-92l159 913q227 52 508 52z" />
    <glyph glyph-name="Ncaron" unicode="&#x147;" horiz-adv-x="1597" 
d="M1540 1393l-246 -1393h-92l-751 1245l-222 -1245h-94l246 1393h90l754 -1248l221 1248h94zM1024 1513h-90l-209 324h98l166 -254l258 254h101z" />
    <glyph glyph-name="ncaron" unicode="&#x148;" horiz-adv-x="1249" 
d="M782 965q176 1 258 -103t50 -291l-101 -571h-92l98 559q27 154 -35 238t-202 84q-203 0 -402 -35l-149 -846h-92l159 913q227 52 508 52zM795 1163h-93l-208 324h98l166 -254l258 254h100z" />
    <glyph glyph-name="Omacron" unicode="&#x14c;" horiz-adv-x="1742" 
d="M803 57q325 0 539 213t214 541q0 238 -142 381t-386 143q-336 0 -545 -209t-209 -546q0 -236 146 -380t383 -143zM1042 1423q283 1 449 -163t166 -437q0 -371 -249 -613t-624 -241q-276 0 -444 165t-168 435q0 381 242 617t628 237zM1368 1683l-12 -73h-565l12 73h565z
" />
    <glyph glyph-name="omacron" unicode="&#x14d;" horiz-adv-x="1255" 
d="M557 53q205 -1 347 139t143 345q1 160 -93 253t-256 93q-205 1 -347 -137t-142 -345q0 -160 93 -254t255 -94zM713 967q199 0 315 -112t115 -304q0 -248 -175 -416t-425 -168q-197 0 -313 115t-115 307q0 250 174 414t424 164zM1061 1372l-12 -74h-549l14 74h547z" />
    <glyph glyph-name="Ohungarumlaut" unicode="&#x150;" horiz-adv-x="1742" 
d="M803 57q325 0 539 213t214 541q0 238 -142 381t-386 143q-336 0 -545 -209t-209 -546q0 -236 146 -380t383 -143zM1042 1423q283 1 449 -163t166 -437q0 -371 -249 -613t-624 -241q-276 0 -444 165t-168 435q0 381 242 617t628 237zM1503 1841l-246 -323h-92l228 323h110
zM1233 1841l-246 -323h-92l227 323h111z" />
    <glyph glyph-name="ohungarumlaut" unicode="&#x151;" horiz-adv-x="1255" 
d="M557 53q205 -1 347 139t143 345q1 160 -93 253t-256 93q-205 1 -347 -137t-142 -345q0 -160 93 -254t255 -94zM713 967q199 0 315 -112t115 -304q0 -248 -175 -416t-425 -168q-197 0 -313 115t-115 307q0 250 174 414t424 164zM915 1163h-88l224 320h104zM651 1163h-86
l221 320h107z" />
    <glyph glyph-name="OE" unicode="&#x152;" horiz-adv-x="2043" 
d="M274 588q0 -236 160 -367t463 -133l213 1217q-396 -3 -616 -195t-220 -522zM174 578q0 372 256 592t696 223h947l-15 -88h-852l-100 -566h768l-14 -86h-768l-101 -565h852l-16 -88h-946q-338 2 -523 155q-184 153 -184 423z" />
    <glyph glyph-name="oe" unicode="&#x153;" horiz-adv-x="2078" 
d="M560 53q165 1 296 99t172 254l6 45q2 33 13 63v23q1 160 -93 253t-256 93q-205 1 -347 -137t-142 -345q0 -160 93 -254t258 -94zM1594 887q-162 0 -284 -97t-167 -260l-2 -22h739q27 188 -48 284t-238 95zM1606 965q201 0 298 -120t64 -337q-10 -51 -18 -76h-820l-6 -31
q-10 -166 77 -256t261 -90q106 0 350 54l7 -76q-435 -125 -633 4q-104 68 -142 190q-80 -121 -213 -191t-288 -69q-197 0 -313 115t-115 307q0 250 174 414t424 164q156 0 262 -70t145 -197q78 125 205 195t281 70z" />
    <glyph glyph-name="Racute" unicode="&#x154;" horiz-adv-x="1333" 
d="M684 612q219 0 358 115t140 309q0 139 -100 212t-252 73t-367 -10l-123 -699h344zM840 1407q192 0 314 -92t122 -272q0 -179 -112 -309t-306 -179l322 -555h-117l-303 535q-37 -6 -117 -7h-319l-93 -528h-94l246 1393q265 14 457 14zM1118 1839l-270 -319h-96l241 319
h125z" />
    <glyph glyph-name="racute" unicode="&#x155;" horiz-adv-x="770" 
d="M776 963l-12 -89q-203 0 -406 -24l-149 -850h-92l159 920q264 43 500 43zM856 1497l-266 -317h-92l233 317h125z" />
    <glyph glyph-name="Rcommaaccent" unicode="&#x156;" horiz-adv-x="1333" 
d="M629 -220q0 -59 -101 -261h-65l72 196q-51 12 -52 64q1 29 21 49t51 20t53 -20t21 -48zM684 612q219 0 358 115t140 309q0 139 -100 212t-252 73t-367 -10l-123 -699h344zM840 1407q192 0 314 -92t122 -272q0 -179 -112 -309t-306 -179l322 -555h-117l-303 535
q-37 -6 -117 -7h-319l-93 -528h-94l246 1393q265 14 457 14z" />
    <glyph glyph-name="rcommaaccent" unicode="&#x157;" horiz-adv-x="770" 
d="M49 -221q1 29 21 49t51 20t53 -20t21 -48q1 -28 -9 -52t-38 -88t-34 -78q-5 -14 -20 -43h-65l71 196q-51 12 -51 64zM776 963l-12 -89q-203 0 -406 -24l-149 -850h-92l159 920q264 43 500 43z" />
    <glyph glyph-name="Rcaron" unicode="&#x158;" horiz-adv-x="1333" 
d="M684 612q219 0 358 115t140 309q0 139 -100 212t-252 73t-367 -10l-123 -699h344zM840 1407q192 0 314 -92t122 -272q0 -179 -112 -309t-306 -179l322 -555h-117l-303 535q-37 -6 -117 -7h-319l-93 -528h-94l246 1393q265 14 457 14zM836 1513h-91l-208 324h98l166 -254
l258 254h100z" />
    <glyph glyph-name="rcaron" unicode="&#x159;" horiz-adv-x="770" 
d="M776 963l-12 -89q-203 0 -406 -24l-149 -850h-92l159 920q264 43 500 43zM616 1163h-92l-209 324h99l166 -254l258 254h100z" />
    <glyph glyph-name="Sacute" unicode="&#x15a;" horiz-adv-x="1392" 
d="M858 1333q-206 0 -326 -90t-118 -242q0 -90 70 -137t207 -78q135 -31 193 -46q170 -44 238 -106q92 -84 90 -208q0 -209 -160 -333t-434 -124q-272 0 -536 117l43 86q262 -115 532 -115q199 -1 328 95t129 254q0 96 -61 147q-35 29 -60 46t-92 37t-140 36t-87 20
q-199 43 -281 108t-82 181q0 199 154 319q155 120 401 121q246 0 467 -80l-39 -84q-230 76 -436 76zM1231 1839l-270 -319h-97l242 319h125z" />
    <glyph glyph-name="sacute" unicode="&#x15b;" horiz-adv-x="1050" 
d="M460 49q156 0 243 57t88 154q1 53 -47 92t-90 52q-42 14 -102 28t-69 17q-127 29 -193 79t-67 140q0 137 108 217t291 80t339 -64l-37 -78q-158 61 -306 61t-224 -54q-77 -56 -77 -148q1 -63 53 -95t196 -67t230 -85q85 -50 85 -152q0 -147 -115 -231t-305 -82
q-190 0 -393 96l38 79q198 -96 354 -96zM936 1497l-266 -317h-92l233 317h125z" />
    <glyph glyph-name="Scedilla" unicode="&#x15e;" horiz-adv-x="1392" 
d="M483 -414h-82l164 312h92zM858 1333q-206 0 -326 -90t-118 -242q0 -90 70 -137t207 -78q135 -31 193 -46q170 -44 238 -106q92 -84 90 -208q0 -209 -160 -333t-434 -124q-272 0 -536 117l43 86q262 -115 532 -115q199 -1 328 95t129 254q0 96 -61 147q-35 29 -60 46
t-92 37t-140 36t-87 20q-199 43 -281 108t-82 181q0 199 154 319q155 120 401 121q246 0 467 -80l-39 -84q-230 76 -436 76z" />
    <glyph glyph-name="scedilla" unicode="&#x15f;" horiz-adv-x="1050" 
d="M295 -414h-82l164 312h92zM460 49q156 0 243 57t88 154q1 53 -47 92t-90 52q-42 14 -102 28t-69 17q-127 29 -193 79t-67 140q0 137 108 217t291 80t339 -64l-37 -78q-158 61 -306 61t-224 -54q-77 -56 -77 -148q1 -63 53 -95t196 -67t230 -85q85 -50 85 -152
q0 -147 -115 -231t-305 -82q-190 0 -393 96l38 79q198 -96 354 -96z" />
    <glyph glyph-name="Scaron" unicode="&#x160;" horiz-adv-x="1392" 
d="M858 1333q-206 0 -326 -90t-118 -242q0 -90 70 -137t207 -78q135 -31 193 -46q170 -44 238 -106q92 -84 90 -208q0 -209 -160 -333t-434 -124q-272 0 -536 117l43 86q262 -115 532 -115q199 -1 328 95t129 254q0 96 -61 147q-35 29 -60 46t-92 37t-140 36t-87 20
q-199 43 -281 108t-82 181q0 199 154 319q155 120 401 121q246 0 467 -80l-39 -84q-230 76 -436 76zM948 1513h-90l-209 324h99l165 -254l258 254h101z" />
    <glyph glyph-name="scaron" unicode="&#x161;" horiz-adv-x="1050" 
d="M460 49q156 0 243 57t88 154q1 53 -47 92t-90 52q-42 14 -102 28t-69 17q-127 29 -193 79t-67 140q0 137 108 217t291 80t339 -64l-37 -78q-158 61 -306 61t-224 -54q-77 -56 -77 -148q1 -63 53 -95t196 -67t230 -85q85 -50 85 -152q0 -147 -115 -231t-305 -82
q-190 0 -393 96l38 79q198 -96 354 -96zM696 1163h-92l-209 324h99l165 -254l259 254h100z" />
    <glyph glyph-name="Tcaron" unicode="&#x164;" horiz-adv-x="1368" 
d="M883 1305l-232 -1305h-96l231 1305h-573l14 88h1241l-16 -88h-569zM913 1513h-90l-209 324h99l166 -254l258 254h100z" />
    <glyph glyph-name="tcaron" unicode="&#x165;" horiz-adv-x="868" 
d="M494 -31q-158 0 -215 84t-25 269l92 528h-225l16 84h225l72 414h92l-73 -414h348l-17 -84h-346l-92 -526q-27 -146 12 -208q40 -62 138 -62t188 18l4 -76q-106 -27 -194 -27zM797 1511l-117 -395h-74l92 395h99z" />
    <glyph glyph-name="Umacron" unicode="&#x16a;" horiz-adv-x="1566" 
d="M696 -31q-262 0 -396 157t-89 417l151 850h97l-152 -850q-39 -219 72 -351t330 -133t377 133t196 351l150 850h96l-150 -850q-47 -258 -233 -416q-187 -158 -449 -158zM1280 1683l-12 -73h-566l13 73h565z" />
    <glyph glyph-name="umacron" unicode="&#x16b;" horiz-adv-x="1241" 
d="M467 -31q-180 1 -261 101t-48 292l102 572h90l-98 -561q-26 -156 34 -239t203 -83q199 0 402 33l151 850h91l-160 -914q-225 -51 -506 -51zM1053 1372l-13 -74h-548l14 74h547z" />
    <glyph glyph-name="Uring" unicode="&#x16e;" horiz-adv-x="1566" 
d="M696 -31q-262 0 -396 157t-89 417l151 850h97l-152 -850q-39 -219 72 -351t330 -133t377 133t196 351l150 850h96l-150 -850q-47 -258 -233 -416q-187 -158 -449 -158zM964 1554q52 0 90 37t38 91t-32 84t-84 30t-90 -38t-38 -90t32 -83t84 -31zM1155 1682
q0 -78 -58 -134q-57 -56 -137 -55q-80 0 -128 48t-48 127t58 133t138 54q79 0 127 -47q48 -48 48 -126z" />
    <glyph glyph-name="uring" unicode="&#x16f;" horiz-adv-x="1241" 
d="M467 -31q-180 1 -261 101t-48 292l102 572h90l-98 -561q-26 -156 34 -239t203 -83q199 0 402 33l151 850h91l-160 -914q-225 -51 -506 -51zM732 1196q52 0 90 37t38 90t-32 85t-84 32t-90 -38t-38 -90t32 -84t84 -32zM749 1497q79 0 127 -46t48 -125t-60 -134t-138 -55
q-79 0 -126 47t-47 127t58 133q59 53 138 53z" />
    <glyph glyph-name="Uhungarumlaut" unicode="&#x170;" horiz-adv-x="1566" 
d="M696 -31q-262 0 -396 157t-89 417l151 850h97l-152 -850q-39 -219 72 -351t330 -133t377 133t196 351l150 850h96l-150 -850q-47 -258 -233 -416q-187 -158 -449 -158zM1415 1841l-246 -323h-92l228 323h110zM1145 1841l-246 -323h-92l227 323h111z" />
    <glyph glyph-name="uhungarumlaut" unicode="&#x171;" horiz-adv-x="1241" 
d="M467 -31q-180 1 -261 101t-48 292l102 572h90l-98 -561q-26 -156 34 -239t203 -83q199 0 402 33l151 850h91l-160 -914q-225 -51 -506 -51zM909 1163h-88l223 320h105zM645 1163h-86l221 320h107z" />
    <glyph glyph-name="Uogonek" unicode="&#x172;" horiz-adv-x="1566" 
d="M772 -352q4 0 66 6l4 -76q-37 -10 -94 -10q-104 0 -163 54q-58 54 -46 140q18 123 166 207h-9q-262 0 -396 157t-89 417l151 850h97l-152 -850q-39 -219 72 -351t330 -133t377 133t196 351l150 850h96l-150 -850q-39 -223 -186 -373t-361 -188q-188 -82 -208 -201
q-11 -61 29 -97t120 -36z" />
    <glyph glyph-name="uogonek" unicode="&#x173;" horiz-adv-x="1241" 
d="M895 -322q4 0 66 7l4 -76q-37 -10 -95 -10q-104 0 -162 54t-46 140q16 115 151 199q-160 -23 -343 -23q-183 1 -264 101t-48 292l102 572h90l-98 -561q-26 -156 34 -239t203 -83q199 0 402 33l151 850h91l-160 -911l2 -3q-99 -41 -159 -89t-70 -114q-10 -67 29 -103
q40 -36 120 -36z" />
    <glyph glyph-name="Wcircumflex" unicode="&#x174;" horiz-adv-x="2162" 
d="M1507 0h-92l-194 1239l-639 -1239h-93l-237 1393h100l207 -1246l637 1246h92l195 -1243l649 1243h102zM1313 1765l-260 -245h-99l324 319h90l209 -319h-94z" />
    <glyph glyph-name="wcircumflex" unicode="&#x175;" horiz-adv-x="1691" 
d="M1141 0h-92l-144 797l-430 -797h-92l-193 934h95l168 -803l434 803h80l145 -805l457 805h96zM1018 1407l-260 -242h-96l321 318h90l211 -318h-96z" />
    <glyph glyph-name="Ycircumflex" unicode="&#x176;" horiz-adv-x="1386" 
d="M651 512l-432 881h109l387 -783l665 783h111l-741 -881l-91 -512h-100zM926 1765l-260 -245h-99l324 319h90l209 -319h-94z" />
    <glyph glyph-name="ycircumflex" unicode="&#x177;" horiz-adv-x="1236" 
d="M1239 934l-971 -1391h-102l362 520l-362 871h102l326 -776l541 776h104zM510 1165h-96l321 318h90l211 -318h-96l-170 242z" />
    <glyph glyph-name="Ydieresis" unicode="&#x178;" horiz-adv-x="1386" 
d="M651 512l-432 881h109l387 -783l665 783h111l-741 -881l-91 -512h-100zM1110 1608q-30 0 -52 20t-22 50t22 50t52 21q30 0 51 -20q21 -21 21 -51t-20 -50t-52 -20zM684 1608q-30 0 -52 20t-22 50t22 50t52 21q30 0 51 -20q21 -21 21 -51t-20 -50t-52 -20z" />
    <glyph glyph-name="Zacute" unicode="&#x179;" horiz-adv-x="1349" 
d="M1346 1329l-1129 -1241h913l-16 -88h-1055l11 63l1134 1242h-891l15 88h1030zM1188 1839l-270 -319h-97l242 319h125z" />
    <glyph glyph-name="zacute" unicode="&#x17a;" horiz-adv-x="1007" 
d="M961 874l-783 -792h651l-16 -82h-782l10 55l784 797h-620l16 82h750zM911 1497l-266 -317h-92l233 317h125z" />
    <glyph glyph-name="Zdotaccent" unicode="&#x17b;" horiz-adv-x="1349" 
d="M1346 1329l-1129 -1241h913l-16 -88h-1055l11 63l1134 1242h-891l15 88h1030zM886 1612q-30 0 -52 20t-21 50q0 30 22 52q21 22 51 22t52 -22t20 -52q0 -30 -21 -50t-51 -20z" />
    <glyph glyph-name="zdotaccent" unicode="&#x17c;" horiz-adv-x="1007" 
d="M961 874l-783 -792h651l-16 -82h-782l10 55l784 797h-620l16 82h750zM647 1217q-31 0 -51 20t-20 50t20 50q20 21 51 21t51 -20t20 -51q0 -30 -20 -50t-51 -20z" />
    <glyph glyph-name="Zcaron" unicode="&#x17d;" horiz-adv-x="1349" 
d="M1346 1329l-1129 -1241h913l-16 -88h-1055l11 63l1134 1242h-891l15 88h1030zM905 1513h-90l-209 324h99l165 -254l258 254h101z" />
    <glyph glyph-name="zcaron" unicode="&#x17e;" horiz-adv-x="1007" 
d="M961 874l-783 -792h651l-16 -82h-782l10 55l784 797h-620l16 82h750zM672 1163h-92l-209 324h98l166 -254l258 254h100z" />
    <glyph glyph-name="florin" unicode="&#x192;" horiz-adv-x="1101" 
d="M1030 1423q74 0 170 -26l-31 -76q-96 18 -151 18q-113 0 -167 -60t-103 -216l-78 -250h403l-14 -84h-414l-123 -401q-61 -199 -141 -279t-234 -80q-72 0 -167 27l28 76q96 -18 152 -19q113 1 167 61t103 216l123 399h-270l16 84h281l77 252q61 197 140 277t233 81z" />
    <glyph glyph-name="Acaron" unicode="&#x1cd;" horiz-adv-x="1527" 
d="M909 1284l-518 -829h742zM340 369l-229 -369h-111l881 1403h96l385 -1403h-105l-98 369h-819zM999 1513h-90l-209 324h99l166 -254l258 254h100z" />
    <glyph glyph-name="acaron" unicode="&#x1ce;" horiz-adv-x="1243" 
d="M672 883q-198 -1 -332 -139q-133 -138 -133 -355q0 -154 86 -247q85 -93 245 -93t380 123l118 678q-166 33 -364 33zM678 965q232 0 461 -52l-162 -913h-90l14 88q-211 -119 -398 -119t-293 118q-105 118 -95 312q7 248 169 407t394 159zM815 1163h-92l-209 324h98
l166 -254l258 254h101z" />
    <glyph glyph-name="Scommaaccent" unicode="&#x218;" horiz-adv-x="1392" 
d="M498 -221q0 29 20 49t51 20t53 -20q37 -34 15 -94t-94 -215h-66l72 196q-51 12 -51 64zM858 1333q-206 0 -326 -90t-118 -242q0 -90 70 -137t207 -78q135 -31 193 -46q170 -44 238 -106q92 -84 90 -208q0 -209 -160 -333t-434 -124q-272 0 -536 117l43 86
q262 -115 532 -115q199 -1 328 95t129 254q0 96 -61 147q-35 29 -60 46t-92 37t-140 36t-87 20q-199 43 -281 108t-82 181q0 199 154 319q155 120 401 121q246 0 467 -80l-39 -84q-230 76 -436 76z" />
    <glyph glyph-name="scommaaccent" unicode="&#x219;" horiz-adv-x="1050" 
d="M453 -220q0 -59 -101 -261h-65l71 196q-51 12 -51 64q1 29 21 49t51 20t53 -20t21 -48zM460 49q156 0 243 57t88 154q1 53 -47 92t-90 52q-42 14 -102 28t-69 17q-127 29 -193 79t-67 140q0 137 108 217t291 80t339 -64l-37 -78q-158 61 -306 61t-224 -54
q-77 -56 -77 -148q1 -63 53 -95t196 -67t230 -85q85 -50 85 -152q0 -147 -115 -231t-305 -82q-190 0 -393 96l38 79q198 -96 354 -96z" />
    <glyph glyph-name="uni021A" unicode="&#x21a;" horiz-adv-x="1368" 
d="M633 -214q0 -59 -101 -261h-65l72 196q-51 12 -52 64q1 29 21 49t51 20t53 -20t21 -48zM883 1305l-232 -1305h-96l231 1305h-573l14 88h1241l-16 -88h-569z" />
    <glyph glyph-name="uni021B" unicode="&#x21b;" horiz-adv-x="868" 
d="M281 -221q0 29 20 49t51 20q30 0 52 -20t22 -48t-15 -68t-85 -193h-66l72 196q-51 12 -51 64zM494 -31q-158 0 -215 84t-25 269l92 528h-225l16 84h225l72 414h92l-73 -414h348l-17 -84h-346l-92 -526q-27 -146 12 -208q40 -62 138 -62t188 18l4 -76q-106 -27 -194 -27z
" />
    <glyph glyph-name="circumflex" unicode="&#x2c6;" 
d="M782 1407l-260 -242h-96l322 318h90l211 -318h-97z" />
    <glyph glyph-name="caron" unicode="&#x2c7;" 
d="M752 1163h-93l-208 324h98l166 -254l258 254h100z" />
    <glyph glyph-name="breve" unicode="&#x2d8;" 
d="M715 1161q-127 0 -191 77q-63 77 -41 202h76q-16 -94 31 -150t139 -57q92 1 159 57t81 150h75q-20 -125 -111 -202t-218 -77z" />
    <glyph glyph-name="dotaccent" unicode="&#x2d9;" 
d="M737 1217q-31 0 -51 20t-20 50t20 50q20 21 51 21t51 -20t20 -51q0 -30 -20 -50t-51 -20z" />
    <glyph glyph-name="ring" unicode="&#x2da;" 
d="M755 1196q52 0 90 37t38 90t-32 85t-84 32t-90 -38t-38 -90t32 -84t84 -32zM748 1137q-80 0 -126 47t-46 127t58 133t137 53t127 -46t48 -125t-59 -134t-139 -55z" />
    <glyph glyph-name="ogonek" unicode="&#x2db;" 
d="M582 -342q4 0 65 6l4 -76q-37 -10 -94 -10q-104 0 -163 54q-58 54 -46 141q23 158 283 262l31 -35q-100 -41 -160 -89q-60 -49 -70 -115t30 -102t120 -36z" />
    <glyph glyph-name="tilde" unicode="&#x2dc;" 
d="M967 1366h80q-15 -82 -69 -127t-110 -42t-100 28l-104 82q-38 33 -94 11t-68 -87h-80q14 82 68 127q95 79 212 14l105 -80q37 -34 93 -14t67 88z" />
    <glyph glyph-name="hungarumlaut" unicode="&#x2dd;" 
d="M918 1163h-89l224 320h104zM653 1163h-86l221 320h107z" />
    <glyph glyph-name="commaaccentcomb" unicode="&#x326;" horiz-adv-x="0" 
d="M430 -264q0 29 20 49t52 20q30 0 52 -20q36 -34 7 -115q-30 -81 -86 -194h-65l71 196q-51 12 -51 64z" />
    <glyph glyph-name="Wgrave" unicode="&#x1e80;" horiz-adv-x="2162" 
d="M1507 0h-92l-194 1239l-639 -1239h-93l-237 1393h100l207 -1246l637 1246h92l195 -1243l649 1243h102zM1307 1520h-88l-162 319h123z" />
    <glyph glyph-name="wgrave" unicode="&#x1e81;" horiz-adv-x="1691" 
d="M1141 0h-92l-144 797l-430 -797h-92l-193 934h95l168 -803l434 803h80l145 -805l457 805h96zM950 1180h-86l-159 317h122z" />
    <glyph glyph-name="Wacute" unicode="&#x1e82;" horiz-adv-x="2162" 
d="M1507 0h-92l-194 1239l-639 -1239h-93l-237 1393h100l207 -1246l637 1246h92l195 -1243l649 1243h102zM1593 1839l-270 -319h-96l241 319h125z" />
    <glyph glyph-name="wacute" unicode="&#x1e83;" horiz-adv-x="1691" 
d="M1141 0h-92l-144 797l-430 -797h-92l-193 934h95l168 -803l434 803h80l145 -805l457 805h96zM1270 1497l-266 -317h-93l234 317h125z" />
    <glyph glyph-name="Wdieresis" unicode="&#x1e84;" horiz-adv-x="2162" 
d="M1507 0h-92l-194 1239l-639 -1239h-93l-237 1393h100l207 -1246l637 1246h92l195 -1243l649 1243h102zM1499 1608q-31 0 -53 20t-21 50q0 30 22 50q23 20 53 21q30 0 50 -20q20 -21 20 -51t-20 -50t-51 -20zM1073 1608q-31 0 -53 20t-21 50q0 30 22 50q23 20 53 21
q30 0 50 -20q20 -21 20 -51t-20 -50t-51 -20z" />
    <glyph glyph-name="wdieresis" unicode="&#x1e85;" horiz-adv-x="1691" 
d="M1141 0h-92l-144 797l-430 -797h-92l-193 934h95l168 -803l434 803h80l145 -805l457 805h96zM1198 1217q-30 0 -50 20q-22 20 -22 50q0 31 22 51t51 20t51 -20t22 -51q0 -30 -22 -50t-52 -20zM772 1217q-30 0 -50 20q-22 20 -22 50q0 31 22 51t51 20t51 -20t22 -51
q0 -30 -22 -50t-52 -20z" />
    <glyph glyph-name="Ygrave" unicode="&#x1ef2;" horiz-adv-x="1386" 
d="M651 512l-432 881h109l387 -783l665 783h111l-741 -881l-91 -512h-100zM920 1520h-89l-161 319h123z" />
    <glyph glyph-name="ygrave" unicode="&#x1ef3;" horiz-adv-x="1236" 
d="M1239 934l-971 -1391h-102l362 520l-362 871h102l326 -776l541 776h104zM719 1180l-160 317h125l121 -317h-86z" />
    <glyph glyph-name="uni2009" unicode="&#x2009;" horiz-adv-x="356" 
 />
    <glyph glyph-name="endash" unicode="&#x2013;" horiz-adv-x="1345" 
d="M1192 520h-1018l16 92h1018z" />
    <glyph glyph-name="emdash" unicode="&#x2014;" horiz-adv-x="1843" 
d="M1690 520h-1516l16 92h1516z" />
    <glyph glyph-name="quoteleft" unicode="&#x2018;" horiz-adv-x="520" 
d="M380 1114q-34 0 -56 22t-23 54l2 24q-1 18 13 47t27 65t45 108q31 71 52 127h70l-107 -304q55 -16 55 -58q0 -41 -22 -63t-56 -22z" />
    <glyph glyph-name="quoteright" unicode="&#x2019;" horiz-adv-x="520" 
d="M510 1479l-2 -24q0 -5 -3 -14t-6 -19t-11 -25q-8 -16 -20 -50t-28 -72t-33 -81t-36 -86h-72l107 305q-56 15 -56 57t24 64t56 22t56 -22t24 -55z" />
    <glyph glyph-name="quotesinglbase" unicode="&#x201a;" horiz-adv-x="520" 
d="M49 -313l107 303q-56 16 -56 58t23 64t57 22t56 -22q38 -35 13 -109q-25 -73 -128 -316h-72z" />
    <glyph glyph-name="quotedblleft" unicode="&#x201c;" horiz-adv-x="833" 
d="M770 1198q0 -42 -22 -64t-57 -22t-57 23t-22 55l2 23q0 11 14 43t21 54q8 22 29 71q20 49 38 92l36 86h69l-104 -304q53 -16 53 -57zM380 1112q-34 0 -56 23t-23 55l2 23q-1 16 13 46q14 29 27 65t29 71q15 35 32 78t36 86h70l-107 -304q55 -16 55 -57q0 -42 -22 -64
t-56 -22z" />
    <glyph glyph-name="quotedblright" unicode="&#x201d;" horiz-adv-x="831" 
d="M666 1487q0 41 23 63t56 23q33 0 56 -23t22 -55l-2 -24q0 -12 -13 -43q-14 -32 -52 -130t-72 -174h-70l107 306q-55 16 -55 57zM432 1573q32 0 56 -23t24 -55l-2 -24q0 -16 -14 -45t-26 -63t-28 -72t-33 -81t-36 -86h-70l105 306q-54 16 -54 57t22 63t56 23z" />
    <glyph glyph-name="quotedblbase" unicode="&#x201e;" horiz-adv-x="839" 
d="M578 57q0 -61 -138 -370h-71l106 303q-55 16 -55 67q0 33 22 55q23 22 57 22q35 0 57 -22t22 -55zM49 -313l107 303q-56 16 -56 58t23 64t57 22t56 -22q38 -35 13 -109q-25 -73 -128 -316h-72z" />
    <glyph glyph-name="dagger" unicode="&#x2020;" horiz-adv-x="829" 
d="M571 1153l-79 -451h-72l80 451h-262l12 72h262l47 262h72l-47 -262h264l-14 -72h-263z" />
    <glyph glyph-name="daggerdbl" unicode="&#x2021;" horiz-adv-x="829" 
d="M545 1012h264l-12 -70h-265l-40 -240h-72l41 240h-262l14 70h262l31 184h-262l14 72h260l41 219h72l-41 -219h264l-12 -72h-264z" />
    <glyph glyph-name="bullet" unicode="&#x2022;" horiz-adv-x="636" 
d="M127 608q0 90 62 152q61 62 153 63q92 0 154 -62q62 -63 63 -153q-1 -90 -63 -152t-153 -63q-91 1 -153 63t-63 152z" />
    <glyph glyph-name="ellipsis" unicode="&#x2026;" horiz-adv-x="1402" 
d="M1143 55q-1 -33 -23 -54t-56 -21t-58 22t-23 54q0 32 24 55q23 23 57 23t56 -24q22 -22 23 -55zM624 -20q-34 0 -57 22t-23 54t23 55t57 23t56 -24q22 -22 22 -55t-22 -54t-56 -21zM194 -20q-34 0 -57 22t-23 54t23 55t57 23t56 -24q22 -22 22 -55t-22 -54t-56 -21z" />
    <glyph glyph-name="perthousand" unicode="&#x2030;" horiz-adv-x="3098" 
d="M2564 659q-146 0 -250 -102t-104 -258q0 -113 68 -183t176 -71q143 0 248 102t106 256q0 115 -68 185t-176 71zM1677 659q-143 0 -247 -102t-105 -258q0 -113 68 -183q69 -70 193 -71q124 0 231 102q106 102 106 256q-1 115 -69 185t-177 71zM2576 733q138 0 224 -87
t86 -228q0 -195 -131 -322t-314 -127q-139 0 -225 87t-86 231q0 193 131 319t315 127zM1692 733q139 0 224 -87t85 -228q0 -195 -130 -322t-315 -127q-137 0 -223 87t-86 231q0 190 131 318q132 128 314 128zM707 1350q-127 0 -231 -102t-105 -259q1 -113 69 -183t176 -71
q144 1 248 103t105 256q1 116 -67 186t-195 70zM592 0h-72l1168 1393h71zM737 1423q139 0 225 -87t87 -228q0 -195 -131 -322t-316 -127q-139 0 -224 86t-85 230q0 193 131 321t313 127z" />
    <glyph glyph-name="guilsinglleft" unicode="&#x2039;" horiz-adv-x="706" 
d="M494 162l-62 -51l-311 393l448 393l47 -55l-387 -342z" />
    <glyph glyph-name="guilsinglright" unicode="&#x203a;" horiz-adv-x="704" 
d="M211 846l61 51l312 -395l-449 -391l-47 53l387 344z" />
    <glyph glyph-name="fraction" unicode="&#x2044;" horiz-adv-x="878" 
d="M-113 0h-71l1165 1393h72z" />
    <glyph glyph-name="zerosuperior" unicode="&#x2070;" horiz-adv-x="923" 
d="M504 698q152 0 254 109t102 272q0 117 -65 189q-66 72 -177 71q-150 -1 -252 -109t-102 -272q0 -120 64 -190t176 -70zM631 1409q143 0 225 -87t82 -230q0 -201 -127 -332t-317 -131q-143 0 -227 88q-83 88 -83 231q0 199 128 330q129 131 319 131z" />
    <glyph glyph-name="foursuperior" unicode="&#x2074;" horiz-adv-x="811" 
d="M248 883h377l75 417zM700 883h121l-12 -66h-119l-31 -172h-75l30 172h-481l10 53l570 523h78z" />
    <glyph glyph-name="fivesuperior" unicode="&#x2075;" horiz-adv-x="768" 
d="M664 885q0 123 -191 133l-240 12l99 363h465l-13 -70h-399l-63 -225l170 -8q244 -12 243 -193q0 -119 -90 -194q-91 -75 -243 -75t-275 64l37 62q132 -58 246 -58t184 52t70 137z" />
    <glyph glyph-name="sixsuperior" unicode="&#x2076;" horiz-adv-x="784" 
d="M492 1124q-102 0 -172 -58q-68 -58 -82 -156t36 -157t146 -59q98 0 173 64t89 159t-37 151t-153 56zM508 1194q127 0 197 -76q69 -76 53 -202t-114 -207q-98 -82 -230 -82q-131 1 -201 77q-69 76 -55 184t92 202l268 303h92l-180 -207q49 8 78 8z" />
    <glyph glyph-name="sevensuperior" unicode="&#x2077;" horiz-adv-x="641" 
d="M758 1343l-477 -698h-86l462 674h-464l12 74h561z" />
    <glyph glyph-name="eightsuperior" unicode="&#x2078;" horiz-adv-x="755" 
d="M423 692q95 0 165 51t70 119t-52 106q-51 38 -146 38t-165 -48t-70 -118q0 -69 51 -109q52 -39 147 -39zM326 1194q0 -130 160 -129q80 0 139 46q57 47 57 109t-42 95t-121 33t-136 -45t-57 -109zM735 884q0 -112 -94 -184q-95 -72 -227 -72t-202 53q-70 52 -69 134
q0 162 207 223q-102 36 -102 140t83 168t195 63q112 0 174 -46q61 -46 62 -124q0 -146 -164 -201q137 -41 137 -154z" />
    <glyph glyph-name="ninesuperior" unicode="&#x2079;" horiz-adv-x="784" 
d="M478 926q99 0 172 62t85 157q14 94 -36 152q-50 59 -147 59t-172 -64t-89 -158q-14 -96 37 -152t150 -56zM559 1423q131 -1 201 -77t56 -184t-87 -195l-260 -310h-90l174 209q-55 -10 -90 -10q-127 0 -197 76t-54 202t116 207q100 82 231 82z" />
    <glyph glyph-name="zeroinferior" unicode="&#x2080;" horiz-adv-x="923" 
d="M324 -315q152 1 254 109t102 272q0 116 -66 188t-176 72q-150 0 -252 -109t-102 -272q0 -119 64 -190q65 -70 176 -70zM451 395q143 0 225 -87t82 -230q0 -201 -127 -332t-318 -131q-143 0 -226 87t-83 232q0 199 128 330q129 131 319 131z" />
    <glyph glyph-name="oneinferior" unicode="&#x2081;" horiz-adv-x="565" 
d="M420 -301l-14 -68h-494l14 68h199l104 588l-202 -60l-4 68l274 84h22l-118 -680h219z" />
    <glyph glyph-name="twoinferior" unicode="&#x2082;" horiz-adv-x="714" 
d="M299 324q-94 0 -227 -58l-11 64q131 66 255 66t185 -55q62 -54 62 -141q-1 -87 -65 -162t-195 -171l-223 -168h416l-11 -68h-542l8 52l323 243q72 51 110 83t69 80t30 99q0 136 -184 136z" />
    <glyph glyph-name="threeinferior" unicode="&#x2083;" horiz-adv-x="720" 
d="M528 -125q0 -113 -95 -187t-245 -73q-150 0 -266 63l37 60q123 -55 233 -55t186 51q75 51 75 129q0 121 -195 121h-117l6 36l322 289h-399l12 70h508l-8 -49l-316 -281h19q117 -2 180 -48t63 -126z" />
    <glyph glyph-name="fourinferior" unicode="&#x2084;" horiz-adv-x="811" 
d="M70 -131h376l76 418zM522 -131h121l-12 -66h-119l-31 -172h-75l30 172h-481l10 54l570 522h77z" />
    <glyph glyph-name="fiveinferior" unicode="&#x2085;" horiz-adv-x="768" 
d="M236 -385q-152 0 -275 63l37 62q132 -57 246 -57t184 52t70 136q0 123 -191 133l-239 12l98 363h465l-13 -70h-399l-63 -225l170 -8q244 -12 243 -193q0 -119 -90 -193q-91 -74 -243 -75z" />
    <glyph glyph-name="sixinferior" unicode="&#x2086;" horiz-adv-x="784" 
d="M257 -319q97 -1 172 63t89 159t-37 151t-152 56t-171 -58t-84 -156t36 -157q50 -58 147 -58zM344 180q127 0 197 -76q69 -76 53 -202t-114 -207q-98 -82 -230 -82q-131 0 -201 77q-69 77 -55 185t92 201l268 303h92l-180 -207q49 8 78 8z" />
    <glyph glyph-name="seveninferior" unicode="&#x2087;" horiz-adv-x="641" 
d="M578 330l-478 -699h-86l463 674h-465l13 74h561z" />
    <glyph glyph-name="eightinferior" unicode="&#x2088;" horiz-adv-x="755" 
d="M251 -322q95 0 165 52t70 120t-52 105q-51 37 -146 37t-165 -48t-70 -118t51 -109q52 -39 147 -39zM154 180q0 -130 160 -129q80 0 139 46q57 47 57 109t-42 95t-121 33t-136 -45t-57 -109zM563 -130q0 -114 -94 -184q-95 -71 -227 -71t-202 52t-69 134q0 163 207 224
q-102 35 -102 139t83 168t195 63q112 0 174 -46q61 -46 62 -124q0 -145 -164 -200q137 -41 137 -155z" />
    <glyph glyph-name="nineinferior" unicode="&#x2089;" horiz-adv-x="784" 
d="M298 -100q100 0 172 62q73 62 85 157q14 94 -36 152q-50 59 -147 59t-172 -64t-89 -158q-13 -96 37 -152t150 -56zM379 397q131 -1 201 -77t54 -186t-85 -193l-260 -310h-90l174 209q-55 -10 -90 -10q-127 0 -197 76t-54 202t116 207q100 82 231 82z" />
    <glyph glyph-name="Euro" unicode="&#x20ac;" horiz-adv-x="1615" 
d="M1194 1423q227 0 440 -77l-32 -82q-215 68 -414 67q-246 0 -427 -124t-267 -339h706l-31 -73h-704q-35 -144 -35 -234h639l-31 -74h-602q18 -201 152 -315t352 -113q219 0 500 80l6 -80q-286 -90 -538 -90q-252 1 -408 139t-172 379h-187l15 74h170q7 137 39 234h-168
l12 73h178q94 256 307 406t500 149z" />
    <glyph glyph-name="uni2116" unicode="&#x2116;" horiz-adv-x="2830" 
d="M1589 86h942l-14 -86h-942zM2130 365q205 0 347 139t142 346q0 160 -93 252t-255 92q-205 0 -347 -136t-142 -343q0 -160 93 -255t255 -95zM2286 1280q198 0 314 -113t116 -305q0 -248 -175 -415t-425 -166q-199 -1 -315 113t-115 306q0 250 175 415t425 165zM1540 1393
l-246 -1393h-92l-751 1245l-222 -1245h-94l246 1393h90l754 -1248l221 1248h94z" />
    <glyph glyph-name="uni2117" unicode="&#x2117;" horiz-adv-x="1789" 
d="M1034 1047q-100 0 -205 -7l-67 -374h194q109 0 184 51t90 143t-41 140q-55 48 -155 47zM1054 1112q120 0 195 -66q74 -66 56 -172q-19 -106 -81 -167q-110 -107 -286 -107h-186l-52 -291h-73l139 795q168 8 288 8zM938 1366q-290 0 -488 -192t-198 -478t198 -478
t488 -192t488 194q198 192 198 476t-198 478q-198 192 -488 192zM938 1423q319 0 532 -208t213 -519t-213 -519t-532 -208t-532 208t-213 519t213 519t532 208z" />
    <glyph glyph-name="trademark" unicode="&#x2122;" horiz-adv-x="1466" 
d="M1405 1247l-307 -483h-64l-139 483l-113 -483h-69l145 629h70l153 -541l342 541h68l-74 -629h-69zM745 1327h-247l-99 -563h-71l100 563h-246l11 66h563z" />
    <glyph glyph-name="oneeighth" unicode="&#x215b;" horiz-adv-x="1759" 
d="M1083 193q-1 -71 51 -109t147 -37q95 0 165 51q70 52 70 120t-52 106t-145 36q-94 0 -165 -48t-71 -119zM1184 550q0 -130 160 -130q80 0 139 46q57 46 57 108t-42 96q-42 32 -121 32t-136 -44t-57 -108zM1593 238q0 -114 -94 -184t-226 -70t-202 52t-70 134
q0 162 207 223q-102 35 -102 139t83 168t195 64t174 -46t62 -124q0 -146 -164 -201q137 -41 137 -155zM1522 1393l-1168 -1393h-71l1167 1393h72zM182 645l15 68h198l105 587l-203 -59l-4 68l274 84h23l-119 -680h219l-14 -68h-494z" />
    <glyph glyph-name="threeeighths" unicode="&#x215c;" horiz-adv-x="1886" 
d="M1377 47q95 0 165 51q70 52 70 120t-51 106t-145 36q-94 0 -166 -48q-70 -48 -70 -119t51 -109t146 -37zM1282 550q0 -130 160 -130q80 0 137 46t57 108t-42 96q-42 32 -120 32t-136 -44q-56 -44 -56 -108zM1716 594q0 -146 -164 -201q140 -41 140 -156t-96 -185
t-227 -68q-132 0 -202 52q-69 52 -69 134q1 163 207 223q-103 35 -103 139t83 168t195 64t174 -46t62 -124zM449 0h-72l1165 1393h72zM815 889q0 -113 -95 -187t-246 -74t-265 64l37 60q123 -56 233 -56q109 0 185 52t75 129q0 121 -194 120h-117l8 37l320 289h-400l13 70
h508l-9 -50l-315 -280h18q117 -2 181 -48t63 -126z" />
    <glyph glyph-name="fiveeighths" unicode="&#x215d;" horiz-adv-x="1914" 
d="M1192 193q0 -71 51 -109t146 -37q95 0 164 51q69 52 69 120t-50 106t-145 36q-95 0 -165 -48t-70 -119zM1292 550q0 -130 161 -130q81 0 137 46t56 108t-40 96q-41 32 -120 32q-78 0 -136 -44t-58 -108zM1702 238q0 -114 -94 -184t-226 -70t-202 52t-70 138
q0 162 207 219q-103 35 -103 141t82 167q82 63 196 63t174 -46q62 -46 63 -124q0 -146 -164 -201q137 -41 137 -155zM440 0h-71l1167 1393h72zM717 885q0 123 -191 133l-239 12l98 363h465l-12 -70h-400l-63 -225l170 -8q244 -12 243 -193q0 -119 -90 -194t-242 -75t-276 64
l37 62q131 -58 245 -58t185 52q70 52 70 137z" />
    <glyph glyph-name="seveneighths" unicode="&#x215e;" horiz-adv-x="1820" 
d="M1128 194q0 -70 52 -108q52 -39 147 -39q94 0 164 51q70 52 70 120q-1 68 -51 106t-145 36q-95 0 -166 -48t-71 -118zM1231 550q-1 -130 159 -130q80 0 138 46q57 46 57 108t-42 96q-43 32 -121 32t-134 -44t-57 -108zM1640 237q0 -115 -95 -185t-227 -68q-132 0 -202 52
t-70 134q1 162 207 223q-102 35 -102 141t83 167q82 63 196 63t174 -46t61 -124q0 -146 -164 -201q139 -41 139 -156zM895 1343l-477 -698h-86l463 674h-465l12 74h561zM311 0h-71l1165 1393h72z" />
    <glyph glyph-name="arrowleft" unicode="&#x2190;" horiz-adv-x="1562" 
d="M1503 743v-86h-1241l608 -614l-63 -57l-703 714l699 711l63 -57l-604 -611h1241z" />
    <glyph glyph-name="arrowup" unicode="&#x2191;" horiz-adv-x="1615" 
d="M764 -4v1241l-610 -604l-58 63l711 699l715 -703l-60 -63l-612 608v-1241h-86z" />
    <glyph glyph-name="arrowright" unicode="&#x2192;" horiz-adv-x="1562" 
d="M96 743h1239l-604 611l66 57l696 -711l-700 -714l-64 57l606 614h-1239v86z" />
    <glyph glyph-name="arrowdown" unicode="&#x2193;" horiz-adv-x="1615" 
d="M764 1393h86v-1239l612 606l60 -64l-715 -702l-711 698l58 64l610 -602v1239z" />
    <glyph glyph-name="arrowupleft" unicode="&#x2196;" horiz-adv-x="1660" 
d="M166 1393h1003v-84h-858l1252 -1256l-58 -57l-1253 1249v-850l-86 2v996z" />
    <glyph glyph-name="arrowupright" unicode="&#x2197;" horiz-adv-x="1660" 
d="M1495 1393v-996l-86 -2v850l-1253 -1249l-58 57l1250 1256h-859l3 84h1003z" />
    <glyph glyph-name="arrowdownright" unicode="&#x2198;" horiz-adv-x="1660" 
d="M1495 0h-1003l-3 84h859l-1250 1255l58 58l1253 -1250v850l86 -2v-995z" />
    <glyph glyph-name="arrowdownleft" unicode="&#x2199;" horiz-adv-x="1660" 
d="M1169 84v-84h-1003v995l86 2v-850l1253 1250l58 -58l-1252 -1255h858z" />
    <glyph glyph-name="minus" unicode="&#x2212;" horiz-adv-x="1429" 
d="M295 696h922l-17 -86h-921z" />
    <glyph glyph-name="triagup" unicode="&#x25b2;" horiz-adv-x="2156" 
d="M1034 1415l856 -1415h-1706z" />
    <glyph glyph-name="blackuppointingsmalltriangle" unicode="&#x25b4;" horiz-adv-x="1011" 
d="M492 987l315 -516h-629z" />
    <glyph glyph-name="uni25B8" unicode="&#x25b8;" horiz-adv-x="987" 
d="M823 711l-516 -318v629z" />
    <glyph glyph-name="triagdn" unicode="&#x25bc;" horiz-adv-x="2154" 
d="M2052 1393l-856 -1416l-850 1416h1706z" />
    <glyph glyph-name="uni25BE" unicode="&#x25be;" horiz-adv-x="1011" 
d="M905 901l-317 -518l-314 518h631z" />
    <glyph glyph-name="uni25C2" unicode="&#x25c2;" horiz-adv-x="987" 
d="M756 393l-516 318l516 311v-629z" />
    <glyph glyph-name="R.ss02" horiz-adv-x="1296" 
d="M830 1321q-152 0 -367 -10l-123 -699h344q219 0 358 115t140 309q0 139 -100 212t-252 73zM840 1407q192 0 315 -92t123 -264q0 -231 -162 -371t-424 -150h-176l627 -530h-142l-620 528h-55l-93 -528h-96l246 1393q265 14 457 14z" />
    <glyph glyph-name="Racute.ss02" horiz-adv-x="1296" 
d="M830 1321q-152 0 -367 -10l-123 -699h344q219 0 358 115t140 309q0 139 -100 212t-252 73zM840 1407q192 0 314 -92t122 -264q0 -231 -162 -371t-422 -150h-176l627 -530h-144l-620 528h-55l-93 -528h-94l246 1393q265 14 457 14zM1120 1839l-270 -319h-96l241 319h125z
" />
    <glyph glyph-name="Rcaron.ss02" horiz-adv-x="1296" 
d="M830 1321q-152 0 -367 -10l-123 -699h344q219 0 358 115t140 309q0 139 -100 212t-252 73zM840 1407q192 0 314 -92t122 -264q0 -231 -162 -371t-422 -150h-176l627 -530h-144l-620 528h-55l-93 -528h-94l246 1393q265 14 457 14zM838 1513h-90l-209 324h98l166 -254
l258 254h100z" />
    <glyph glyph-name="Rcommaaccent.ss02" horiz-adv-x="1296" 
d="M453 -221q0 29 20 49t51 20t53 -20q37 -34 15 -94t-94 -215h-66l72 196q-51 12 -51 64zM830 1321q-152 0 -367 -10l-123 -699h344q219 0 358 115t140 309q0 139 -100 212t-252 73zM840 1407q192 0 314 -92t122 -264q0 -231 -162 -371t-422 -150h-176l627 -530h-144
l-620 528h-55l-93 -528h-94l246 1393q265 14 457 14z" />
    <glyph glyph-name="Q.ss04" horiz-adv-x="1742" 
d="M1329 -266l-12 -92q-307 14 -676 57l8 68zM803 57q325 0 539 213t214 541q0 238 -142 381t-386 143q-336 0 -545 -209t-209 -546q0 -236 146 -380t383 -143zM1042 1423q283 1 449 -163t166 -437q0 -371 -249 -613t-624 -241q-276 0 -444 165t-168 435q0 381 242 617
t628 237z" />
    <glyph glyph-name="i.loclTRK" horiz-adv-x="501" 
d="M379 934l-164 -934h-92l166 934h90zM395 1217q-31 0 -51 20t-20 50t20 50q20 21 51 21t51 -20t20 -51q0 -30 -20 -50t-51 -20z" />
    <glyph glyph-name="germandbls.case" horiz-adv-x="2715" 
d="M2182 1333q-206 0 -324 -90q-119 -90 -119 -242q1 -90 71 -137t206 -78t194 -46q170 -44 237 -106q92 -84 90 -208q-1 -209 -161 -333t-432 -124t-537 117l43 86q262 -115 532 -115q199 -1 328 95t129 254q0 96 -61 147q-35 29 -60 46t-92 37t-140 36t-87 20
q-199 43 -281 108t-82 181q0 199 154 319t400 121q246 0 468 -80l-39 -84q-231 76 -437 76zM858 1333q-206 0 -326 -90t-118 -242q0 -90 70 -137t207 -78q135 -31 193 -46q170 -44 238 -106q92 -84 90 -208q0 -209 -160 -333t-434 -124q-272 0 -536 117l43 86
q262 -115 532 -115q199 -1 328 95t129 254q0 96 -61 147q-35 29 -60 46t-92 37t-140 36t-87 20q-199 43 -281 108t-82 181q0 199 154 319q155 120 401 121q246 0 467 -80l-39 -84q-230 76 -436 76z" />
    <glyph glyph-name="y.ss01" horiz-adv-x="1222" 
d="M410 -502q-206 0 -365 74l33 78q156 -68 330 -68t305 116t166 308q-193 -37 -391 -37q-198 -1 -281 101q-82 102 -47 292l100 572h90l-98 -561q-26 -156 34 -239t203 -83q199 0 402 33l151 850h91l-164 -936q-39 -224 -196 -362t-363 -138z" />
    <glyph glyph-name="yacute.ss01" horiz-adv-x="1222" 
d="M408 -502q-206 0 -363 74l31 78q160 -68 332 -68t305 116q131 116 166 308q-195 -37 -393 -37q-198 -1 -280 101q-81 102 -48 292l102 572h90l-98 -561q-26 -156 34 -239t203 -83q199 0 402 33l149 850h93l-166 -936q-39 -224 -196 -362t-363 -138zM1036 1497l-266 -317
h-92l233 317h125z" />
    <glyph glyph-name="ycircumflex.ss01" horiz-adv-x="1222" 
d="M408 -502q-206 0 -363 74l31 78q160 -68 332 -68t305 116q131 116 166 308q-195 -37 -393 -37q-198 -1 -280 101q-81 102 -48 292l102 572h90l-98 -561q-26 -156 34 -239t203 -83q199 0 402 33l149 850h93l-166 -936q-39 -224 -196 -362t-363 -138zM801 1407l-260 -242
h-97l322 318h90l211 -318h-96z" />
    <glyph glyph-name="ydieresis.ss01" horiz-adv-x="1222" 
d="M408 -502q-206 0 -363 74l31 78q160 -68 332 -68t305 116q131 116 166 308q-195 -37 -393 -37q-198 -1 -280 101q-81 102 -48 292l102 572h90l-98 -561q-26 -156 34 -239t203 -83q199 0 402 33l149 850h93l-166 -936q-39 -224 -196 -362t-363 -138zM982 1217
q-30 0 -52 20t-21 50q-1 31 21 51t52 20t52 -20t21 -51q0 -30 -22 -50q-21 -20 -51 -20zM556 1217q-30 0 -52 20t-21 50q-1 31 21 51t52 20t52 -20t21 -51q0 -30 -22 -50q-21 -20 -51 -20z" />
    <glyph glyph-name="ygrave.ss01" horiz-adv-x="1222" 
d="M408 -502q-206 0 -363 74l31 78q160 -68 332 -68t305 116q131 116 166 308q-195 -37 -393 -37q-198 -1 -280 101q-81 102 -48 292l102 572h90l-98 -561q-26 -156 34 -239t203 -83q199 0 402 33l149 850h93l-166 -936q-39 -224 -196 -362t-363 -138zM834 1180h-86
l-160 317h125z" />
    <glyph glyph-name="a.ss03" horiz-adv-x="1144" 
d="M439 49q159 0 374 35l72 408l-371 -17q-326 -12 -358 -219t283 -207zM676 967q383 0 319 -361l-102 -586q-266 -51 -467 -51q-402 0 -360 287q35 279 462 297l371 16l6 39q27 146 -29 210q-98 111 -589 32l2 80q209 37 387 37z" />
    <glyph glyph-name="aacute.ss03" horiz-adv-x="1144" 
d="M439 49q159 0 374 35l72 408l-371 -17q-326 -12 -358 -219t283 -207zM678 967q381 0 317 -361l-102 -586q-264 -51 -466 -51q-403 0 -361 287q35 279 462 297l371 16l8 39q27 146 -29 210q-98 111 -589 32v80q211 37 389 37zM987 1497l-266 -317h-92l233 317h125z" />
    <glyph glyph-name="abreve.ss03" horiz-adv-x="1144" 
d="M439 49q159 0 374 35l72 408l-371 -17q-326 -12 -358 -219t283 -207zM678 967q381 0 317 -361l-102 -586q-264 -51 -466 -51q-403 0 -361 287q35 279 462 297l371 16l8 39q27 146 -29 210q-98 111 -589 32v80q211 37 389 37zM700 1161q-128 0 -190 77q-63 77 -41 202h76
q-16 -94 30 -151q47 -56 139 -56q92 1 160 57q66 56 80 150h76q-20 -125 -111 -202t-219 -77z" />
    <glyph glyph-name="acaron.ss03" horiz-adv-x="1144" 
d="M439 49q159 0 374 35l72 408l-371 -17q-326 -12 -358 -219t283 -207zM678 967q381 0 317 -361l-102 -586q-264 -51 -466 -51q-403 0 -361 287q35 279 462 297l371 16l8 39q27 146 -29 210q-98 111 -589 32v80q211 37 389 37zM748 1163h-93l-209 324h99l166 -254l258 254
h100z" />
    <glyph glyph-name="acircumflex.ss03" horiz-adv-x="1144" 
d="M439 49q159 0 374 35l72 408l-371 -17q-326 -12 -358 -219t283 -207zM678 967q381 0 317 -361l-102 -586q-264 -51 -466 -51q-403 0 -361 287q35 279 462 297l371 16l8 39q27 146 -29 210q-98 111 -589 32v80q211 37 389 37zM750 1407l-261 -242h-96l322 318h90l211 -318
h-96z" />
    <glyph glyph-name="adieresis.ss03" horiz-adv-x="1144" 
d="M439 49q159 0 374 35l72 408l-371 -17q-326 -12 -358 -219t283 -207zM678 967q381 0 317 -361l-102 -586q-264 -51 -466 -51q-403 0 -361 287q35 279 462 297l371 16l8 39q27 146 -29 210q-98 111 -589 32v80q211 37 389 37zM930 1217q-30 0 -50 20q-22 20 -22 50
q0 31 22 51t51 20t51 -20t22 -51q0 -30 -22 -50t-52 -20zM504 1217q-30 0 -50 20q-22 20 -22 50q0 31 22 51t51 20t51 -20t22 -51q0 -30 -22 -50t-52 -20z" />
    <glyph glyph-name="agrave.ss03" horiz-adv-x="1144" 
d="M439 49q159 0 374 35l72 408l-371 -17q-326 -12 -358 -219t283 -207zM678 967q381 0 317 -361l-102 -586q-264 -51 -466 -51q-403 0 -361 287q35 279 462 297l371 16l8 39q27 146 -29 210q-98 111 -589 32v80q211 37 389 37zM784 1180h-86l-159 317h125z" />
    <glyph glyph-name="amacron.ss03" horiz-adv-x="1144" 
d="M439 49q159 0 374 35l72 408l-371 -17q-326 -12 -358 -219t283 -207zM678 967q381 0 317 -361l-102 -586q-264 -51 -466 -51q-403 0 -361 287q35 279 462 297l371 16l8 39q27 146 -29 210q-98 111 -589 32v80q211 37 389 37zM1010 1372l-13 -74h-548l14 74h547z" />
    <glyph glyph-name="aogonek.ss03" horiz-adv-x="1144" 
d="M440 49q158 0 373 35l72 408l-371 -17q-326 -12 -358 -219t284 -207zM678 967q381 0 317 -361l-102 -586q-99 -41 -159 -89t-70 -114t29 -103q40 -36 120 -36q4 0 66 7l4 -76q-37 -10 -95 -10q-104 0 -162 54t-46 140q16 119 153 199q-158 -23 -333 -23t-265 72t-69 215
q35 279 462 297l371 16l8 39q27 146 -29 210q-98 111 -589 32v80q211 37 389 37z" />
    <glyph glyph-name="aring.ss03" horiz-adv-x="1144" 
d="M439 49q159 0 374 35l72 408l-371 -17q-326 -12 -358 -219t283 -207zM678 967q381 0 317 -361l-102 -586q-264 -51 -466 -51q-403 0 -361 287q35 279 462 297l371 16l8 39q27 146 -29 210q-98 111 -589 32v80q211 37 389 37zM689 1196q52 0 90 37t38 90t-32 85
q-31 32 -83 32t-90 -38t-39 -90q0 -52 32 -84t84 -32zM706 1497q79 0 127 -46t48 -125q1 -79 -59 -134t-139 -55t-126 47t-47 127t58 133q59 53 138 53z" />
    <glyph glyph-name="atilde.ss03" horiz-adv-x="1144" 
d="M439 49q159 0 374 35l72 408l-371 -17q-326 -12 -358 -219t283 -207zM678 967q381 0 317 -361l-102 -586q-264 -51 -466 -51q-403 0 -361 287q35 279 462 297l371 16l8 39q27 146 -29 210q-98 111 -589 32v80q211 37 389 37zM954 1366h80q-14 -82 -68 -127t-110 -42
t-100 28l-105 82q-37 33 -93 11t-69 -87h-79q14 82 68 127q95 79 212 14l105 -80q37 -34 92 -14t67 88z" />
    <glyph glyph-name="f_b" horiz-adv-x="1976" 
d="M1301 49q202 0 335 142t133 360q0 152 -86 242t-262 90t-350 -49l-133 -750q161 -35 363 -35zM1452 965q198 0 304 -110t108 -292q0 -258 -163 -426t-409 -168q-160 -1 -254 13t-202 38l243 1379q-111 61 -235 61q-322 0 -379 -317l-37 -209h393l-14 -84h-395l-148 -850
h-92l150 850h-250l16 84h248l37 211q35 195 156 297q122 102 327 102q123 0 250 -65l78 -4l-99 -562q169 52 367 52z" />
    <glyph glyph-name="f_f_b" horiz-adv-x="2668" 
d="M2114 883q-174 0 -355 -49l-131 -750q162 -35 363 -35t336 142t135 354q0 154 -87 246t-261 92zM844 1460q-324 0 -381 -334l-35 -192h604l37 211q23 119 78 203q-137 112 -303 112zM1548 1544q123 0 250 -65l74 -4l-98 -562q168 51 367 51t307 -111q108 -112 108 -296
q0 -250 -165 -419t-409 -169q-162 -1 -256 13t-202 38l245 1381q-113 59 -233 59q-319 0 -375 -317l-37 -209h389l-14 -84h-389l-152 -850h-90l150 850h-604l-150 -850h-92l150 850h-248l14 84h248l35 194q74 416 483 416q176 0 348 -125q119 125 346 125z" />
    <glyph glyph-name="f_f_f" horiz-adv-x="2123" 
d="M1538 1460q-324 0 -381 -334l-33 -192h605l49 283q16 86 51 141q-129 102 -291 102zM843 1460q-165 0 -258 -82t-124 -252l-33 -192h604l33 194q25 135 82 220q-139 112 -304 112zM854 1544q170 0 346 -125q123 125 350 125q166 0 330 -112q102 113 266 112q74 0 160 -24
l-33 -78q-73 18 -157 18t-156 -66t-90 -180l-51 -280h370l-16 -84h-369l-149 -850h-90l147 850h-604l-147 -850h-93l148 850h-604l-148 -850h-92l150 850h-250l16 84h248l35 194q73 416 483 416z" />
    <glyph glyph-name="f_f_h" horiz-adv-x="2652" 
d="M1032 934l37 211q23 119 78 203q-139 112 -304 112t-258 -82t-124 -252l-33 -192h604zM2191 965q178 1 258 -103t48 -289l-101 -573h-92l98 557q29 154 -33 239t-202 85q-213 0 -406 -52l-147 -829h-92l247 1399q-111 61 -235 61q-317 0 -373 -317l-37 -209h389l-14 -84
h-391l-150 -850h-92l152 850h-606l-150 -850h-92l152 850h-250l16 84h248l35 194q70 416 483 416q174 0 346 -125q121 125 346 125q125 0 252 -65l76 -4l-98 -562q179 52 415 52z" />
    <glyph glyph-name="f_f_j" horiz-adv-x="1869" 
d="M1032 934l33 194q25 135 82 220q-139 113 -303 112q-324 0 -381 -334l-35 -192h604zM854 1544q174 0 346 -125q123 125 334 125q147 0 295 -80l-51 -67q-121 63 -254 63q-307 0 -365 -334l-35 -192h664l-182 -1024q-35 -199 -121 -286t-264 -89l10 82q129 -2 192 65
t93 220l165 948h-571l-149 -850h-93l150 850h-604l-150 -850h-92l150 850h-248l14 84h248l35 194q74 416 483 416z" />
    <glyph glyph-name="f_f_k" horiz-adv-x="2562" 
d="M1032 934l37 211q23 119 78 203q-137 112 -302 112t-259 -82t-125 -252l-33 -192h604zM1536 1460q-319 0 -375 -317l-37 -209h389l-14 -84h-389l-149 -850h-93l150 850h-604l-150 -850h-92l152 850h-250l14 84h248l35 194q74 416 483 416q178 0 346 -125q121 125 348 125
q125 0 250 -65l78 -4l-170 -961h158l501 420h119l-510 -428l428 -506h-118l-371 428h-223l-74 -428h-92l248 1399q-111 61 -236 61z" />
    <glyph glyph-name="f_f_t" horiz-adv-x="2222" 
d="M842 1460q-164 0 -257 -82t-124 -252l-33 -192h604l49 283q14 80 54 139q-129 104 -293 104zM1450 1544q76 0 162 -24l-29 -78q-73 18 -159 18t-158 -66t-92 -180l-50 -280h594l74 414h90l-72 -414h349l-15 -84h-348l-92 -524q-27 -144 13 -208t159 -65q78 0 168 19
l-2 -76q-106 -27 -193 -27q-158 0 -215 83t-24 267l94 531h-596l-150 -850h-92l150 850h-604l-150 -850h-92l152 850h-250l16 84h248l35 194q70 416 483 416q172 0 330 -112q106 112 266 112z" />
    <glyph glyph-name="f_h" horiz-adv-x="1972" 
d="M1511 965q176 -1 258 -103t50 -289l-103 -573h-92l98 557q29 154 -33 239t-204 85q-211 0 -404 -52l-147 -829h-92l245 1393q-117 68 -247 67q-319 0 -375 -317l-37 -209h389l-14 -84h-391l-150 -850h-92l152 850h-250l16 84h248l37 211q35 193 155 296q121 103 322 103
q123 0 250 -65l94 -4l-98 -562q179 52 415 52z" />
    <glyph glyph-name="f_j" horiz-adv-x="1157" 
d="M840 1544q145 0 293 -80l-52 -67q-119 63 -254 63q-307 0 -364 -334l-35 -192h647l-180 -1024q-37 -199 -123 -286t-264 -89l10 82q129 -2 193 64q63 66 90 221l170 948h-557l-150 -850h-92l150 850h-248l14 84h248l35 194q74 416 469 416z" />
    <glyph glyph-name="f_k" horiz-adv-x="1867" 
d="M840 1460q-317 0 -375 -317l-37 -209h389l-12 -84h-391l-150 -850h-92l152 850h-250l14 84h248l37 211q35 193 156 296q122 103 323 103q123 0 250 -65l78 -4l-168 -961h155l502 420h119l-510 -434l428 -500h-117l-372 428h-222l-75 -428h-93l248 1399q-111 61 -235 61z
" />
    <glyph glyph-name="f_t" horiz-adv-x="1531" 
d="M1157 -31q-158 0 -214 83t-23 267l94 531h-600l-150 -850h-92l150 850h-248l14 84h248l45 252q33 188 123 273t250 85q74 0 164 -24l-29 -78q-74 18 -148 18q-117 0 -180 -66t-88 -210l-45 -250h600l72 414h92l-74 -414h348l-14 -84h-348l-92 -524q-50 -272 154 -272
q98 0 186 18v-76q-106 -27 -195 -27z" />
    <glyph glyph-name="r_f" horiz-adv-x="1421" 
d="M1460 1544q72 0 160 -24l-33 -78q-73 18 -157 18t-156 -66t-92 -180l-49 -280h368l-14 -84h-369l-151 -850h-90l149 850q-487 0 -700 -25l-148 -825h-90l158 891q248 41 796 43l50 283q27 151 127 239t241 88z" />
    <glyph glyph-name="r_t" horiz-adv-x="1521" 
d="M1167 -31q-158 0 -215 83t-24 267l96 545q-389 0 -698 -30l-148 -834h-90l160 905q383 41 790 41l72 402h90l-70 -400h347l-15 -84h-346l-96 -538q-27 -144 14 -208t160 -65q76 0 166 19v-76q-106 -27 -193 -27z" />
    <glyph glyph-name="zero.osf" horiz-adv-x="1355" 
d="M606 59q229 0 391 161t162 401q0 172 -107 278q-108 106 -280 107q-231 0 -393 -160t-162 -402q1 -172 109 -278t280 -107zM786 1090q211 0 340 -125t129 -330q-1 -285 -193 -472t-470 -188q-211 0 -340 126t-129 331q0 286 192 472t471 186z" />
    <glyph glyph-name="one.osf" horiz-adv-x="886" 
d="M799 82l-15 -82h-764l15 82h340l157 887l-413 -117l-8 80l501 149h33l-174 -999h328z" />
    <glyph glyph-name="two.osf" horiz-adv-x="1103" 
d="M624 1092q206 0 306 -81t100 -206q0 -164 -159 -304t-541 -356l-115 -63h725l-14 -82h-906l9 61l217 123q373 213 485 299q199 154 199 301q0 100 -77 160t-245 62q-168 0 -413 -88l-5 81q228 93 434 93z" />
    <glyph glyph-name="three.osf" horiz-adv-x="1161" 
d="M1004 133q0 -205 -172 -340t-422 -135q-248 0 -463 117l43 69q229 -104 431 -104t346 110t144 271q0 254 -381 254h-168l9 45l604 557h-750l15 88h884l-8 -59l-598 -551h47q215 -4 327 -85t112 -237z" />
    <glyph glyph-name="four.osf" horiz-adv-x="1339" 
d="M143 82h729l148 848zM963 82h204l-14 -82h-205l-57 -328h-92l57 328h-860l10 61l1038 1004h93z" />
    <glyph glyph-name="five.osf" horiz-adv-x="1210" 
d="M448 -342q-240 0 -473 117l45 75q227 -109 455 -108q176 0 307 96t155 250q23 154 -69 236q-92 84 -288 92l-420 20l176 645h817l-16 -88h-729l-134 -475l324 -16q231 -12 344 -116t88 -280q-26 -204 -184 -326t-398 -122z" />
    <glyph glyph-name="six.osf" horiz-adv-x="1222" 
d="M540 51q182 0 320 116q139 116 166 294q26 178 -72 283q-98 106 -282 106t-319 -113q-134 -113 -162 -292q-29 -179 69 -287t280 -107zM690 930q219 0 339 -127t89 -332q-26 -221 -194 -361t-392 -140t-344 129q-121 130 -90 339q23 174 152 318l561 637h113l-432 -494
q96 31 198 31z" />
    <glyph glyph-name="seven.osf" horiz-adv-x="1077" 
d="M1126 1024l-880 -1335h-115l866 1304h-858l15 88h983z" />
    <glyph glyph-name="eight.osf" horiz-adv-x="1310" 
d="M582 51q199 0 339 94t162 246q23 135 -83 218t-306 83q-199 0 -338 -88q-138 -88 -160 -230t82 -232t304 -91zM708 770q166 0 280 84t134 213t-64 204q-85 75 -249 75t-279 -81t-135 -210t64 -207t249 -78zM574 -31q-242 0 -372 111t-104 289q18 135 127 231t285 135
q-115 35 -170 120t-39 202q21 166 165 266t351 100t317 -95t87 -251q-39 -258 -326 -344q155 -35 231 -126t56 -220q-25 -186 -195 -302t-413 -116z" />
    <glyph glyph-name="nine.osf" horiz-adv-x="1218" 
d="M889 345q135 114 162 291t-71 286q-98 108 -277 108t-319 -116t-167 -294t71 -283t281 -105q184 0 320 113zM712 1112q224 0 343 -130t90 -339q-20 -158 -154 -317l-551 -637h-114l415 483q-84 -20 -188 -20q-219 0 -339 126t-90 340t197 354t391 140z" />
    <glyph glyph-name="zero.osf.zero" horiz-adv-x="1355" 
d="M614 59q221 0 383 161t162 401q0 115 -49 200l-823 -610q106 -152 327 -152zM772 1006q-231 0 -393 -160t-162 -402q0 -94 35 -174l821 607q-111 129 -301 129zM786 1090q211 0 340 -125t129 -330q-1 -285 -193 -472t-470 -188q-211 0 -340 126t-129 331q0 286 192 472
t471 186z" />
    <glyph glyph-name="three.ss05" horiz-adv-x="1185" 
d="M474 -31q-240 0 -464 111l39 78q227 -100 427 -100t330 88q130 90 154 240t-72 218t-304 68h-168l16 84h164q204 0 312 66t128 210q20 143 -67 223q-89 80 -275 80t-452 -100l-17 78q263 111 487 111t336 -103q112 -102 87 -274q-39 -271 -324 -332q137 -25 199 -109
t43 -219q-25 -195 -182 -307t-397 -111z" />
    <glyph glyph-name="zero.tf" horiz-adv-x="1214" 
d="M526 55q246 1 416 227t170 564q0 223 -96 357t-264 134q-246 0 -416 -226t-170 -564q0 -223 96 -357t264 -135zM768 1423q205 1 324 -153t118 -412q0 -383 -202 -636t-498 -253q-205 0 -324 154t-118 412q0 383 202 635t498 253z" />
    <glyph glyph-name="one.tf" horiz-adv-x="1214" 
d="M1014 0h-940l16 82h438l213 1206l-415 -123l-9 78l504 150h33l-231 -1311h407z" />
    <glyph glyph-name="two.tf" horiz-adv-x="1214" 
d="M743 1423q188 0 296 -96t108 -238t-67 -245q-36 -58 -68 -100q-67 -88 -328 -295l-461 -367h826l-17 -82h-987l12 61l578 459q82 66 113 90q137 109 182 168q88 117 102 171t15 108q0 129 -85 204t-237 74q-211 0 -440 -118l-17 77q231 129 475 129z" />
    <glyph glyph-name="three.tf" horiz-adv-x="1214" 
d="M692 766q209 0 321 -83t111 -234q0 -203 -173 -341t-421 -138t-460 116l45 72q225 -104 427 -104t346 108q144 109 144 270q0 125 -99 190t-286 64h-164l9 45l602 574h-744l15 88h884l-10 -62l-592 -565h45z" />
    <glyph glyph-name="four.tf" horiz-adv-x="1214" 
d="M166 362h733l160 900zM989 362h205l-14 -81h-205l-49 -281h-92l49 281h-860l12 65l1044 1047h92z" />
    <glyph glyph-name="five.tf" horiz-adv-x="1214" 
d="M554 53q210 0 345 110t135 290q0 123 -94 195t-272 79l-414 21l176 645h813l-16 -88h-727l-131 -478l321 -16q209 -10 323 -100t113 -244q0 -221 -166 -359t-417 -138q-252 0 -475 116l45 76q231 -109 441 -109z" />
    <glyph glyph-name="six.tf" horiz-adv-x="1214" 
d="M546 51q182 0 320 116q139 116 166 294t-71 283q-97 106 -281 106t-320 -114t-162 -292t70 -286t278 -107zM698 930q217 0 337 -127t91 -341q-28 -214 -196 -353t-392 -139t-342 129q-120 130 -92 339q23 174 152 318l561 637h119l-432 -492q96 29 194 29z" />
    <glyph glyph-name="seven.tf" horiz-adv-x="1214" 
d="M1253 1333l-882 -1333h-113l870 1305h-864l15 88h983z" />
    <glyph glyph-name="eight.tf" horiz-adv-x="1214" 
d="M553 51q199 0 340 95t162 245q23 135 -83 218t-306 83q-199 0 -337 -88t-161 -230q-22 -142 82 -232t303 -91zM781 1346q-163 0 -279 -81t-134 -210t64 -207t247 -78t281 84t134 213q20 129 -65 204t-248 75zM546 -31q-242 0 -373 111q-130 111 -103 289q18 135 127 231
t284 135q-115 35 -170 120t-39 202q20 166 164 266t352 100t318 -95t86 -251q-16 -125 -100 -214t-226 -130q154 -35 231 -126t56 -220q-25 -186 -195 -302t-412 -116z" />
    <glyph glyph-name="nine.tf" horiz-adv-x="1214" 
d="M652 543q184 1 318 113t162 290t-70 287t-278 109q-182 0 -320 -116t-165 -294t71 -284t282 -105zM793 1423q223 0 343 -130t91 -339q-20 -158 -154 -317l-551 -637h-116l417 483q-84 -20 -190 -20q-217 0 -337 127t-91 341t196 353q169 139 392 139z" />
    <glyph glyph-name="zero.zero" horiz-adv-x="1513" 
d="M682 55q244 1 425 185t222 479q53 303 -90 475l-858 -1028q115 -111 301 -111zM909 1337q-246 0 -425 -184t-224 -479t80 -459l856 1022q-107 100 -287 100zM914 1423q282 -1 421 -193t92 -505q-45 -338 -255 -547t-493 -209t-422 193q-138 192 -93 518t256 534
q212 208 494 209z" />
    <glyph glyph-name="zero.dnom" horiz-adv-x="923" 
d="M385 53q152 0 254 109t102 272q0 117 -65 189q-66 72 -176 71q-150 0 -252 -108t-103 -273q1 -119 65 -189t175 -71zM512 764q143 0 225 -87t82 -231q0 -202 -127 -332t-317 -130q-143 0 -227 87q-83 87 -82 232q0 199 128 330t318 131z" />
    <glyph glyph-name="one.dnom" horiz-adv-x="565" 
d="M481 68l-14 -68h-494l15 68h198l105 587l-203 -59l-4 68l274 84h23l-119 -680h219z" />
    <glyph glyph-name="two.dnom" horiz-adv-x="714" 
d="M545 564q0 58 -45 94q-45 34 -139 34t-228 -57l-10 63q131 66 254 66t185 -54t62 -142t-62 -160q-64 -72 -197 -172l-224 -168h416l-10 -68h-543l8 51l324 244q72 51 109 83q100 84 100 186z" />
    <glyph glyph-name="three.dnom" horiz-adv-x="720" 
d="M254 51q110 0 185 51t75 129q0 121 -195 121h-116l6 37l321 289h-399l12 70h508l-8 -50l-315 -280h18q117 -2 180 -48t64 -126q0 -113 -95 -187q-95 -73 -246 -73t-265 63l36 59q124 -55 234 -55z" />
    <glyph glyph-name="four.dnom" horiz-adv-x="811" 
d="M98 238h377l76 417zM551 238h121l-13 -66h-118l-31 -172h-76l31 172h-481l10 53l569 523h78z" />
    <glyph glyph-name="five.dnom" horiz-adv-x="768" 
d="M547 240q0 123 -191 133l-239 12l98 363h465l-12 -70h-400l-63 -225l170 -9q244 -12 243 -192q0 -119 -90 -194q-90 -74 -242 -74t-276 63l37 62q131 -57 245 -57t185 51q70 52 70 137z" />
    <glyph glyph-name="six.dnom" horiz-adv-x="784" 
d="M390 479q-102 0 -171 -58q-70 -59 -84 -157t36 -156t147 -58q96 0 172 62q76 64 90 159t-37 151t-153 57zM406 549q126 0 196 -76t54 -202t-115 -208q-97 -81 -229 -81t-202 76t-55 186q14 108 92 200l269 304h92l-180 -207q49 8 78 8z" />
    <glyph glyph-name="seven.dnom" horiz-adv-x="641" 
d="M639 698l-477 -698h-86l463 674h-465l12 74h561z" />
    <glyph glyph-name="eight.dnom" horiz-adv-x="755" 
d="M312 47q95 0 165 51q70 52 70 120t-51 106q-50 38 -146 36q-96 0 -166 -48t-70 -119t52 -109q51 -38 146 -37zM215 550q0 -130 161 -130q81 0 138 46t57 108t-42 96q-43 32 -121 32t-136 -44t-57 -108zM651 594q0 -146 -164 -201q137 -41 137 -155t-94 -184t-226 -70
t-202 52t-70 134q1 163 208 223q-102 35 -102 139t82 168q84 64 196 64t174 -46t61 -124z" />
    <glyph glyph-name="nine.dnom" horiz-adv-x="784" 
d="M434 698q-98 0 -173 -63t-89 -159t37 -151q51 -57 150 -57t172 62t85 157q14 94 -35 153q-49 58 -147 58zM344 199q-127 -1 -197 75q-69 76 -53 202t116 208t230 82q131 0 201 -77q69 -77 55 -185t-86 -195l-260 -309h-90l174 209q-55 -10 -90 -10z" />
    <glyph glyph-name="zero.numr" horiz-adv-x="923" 
d="M504 698q152 0 254 109t102 272q0 117 -65 189q-66 72 -177 71q-150 -1 -252 -109t-102 -272q0 -120 64 -190t176 -70zM631 1409q143 0 225 -87t82 -230q0 -201 -127 -332t-317 -131q-143 0 -227 88q-83 88 -83 231q0 199 128 330q129 131 319 131z" />
    <glyph glyph-name="one.numr" horiz-adv-x="565" 
d="M596 713l-14 -68h-494l14 68h199l105 587l-203 -59l-4 68l274 84h23l-119 -680h219z" />
    <glyph glyph-name="two.numr" horiz-adv-x="714" 
d="M662 1210q0 58 -46 93t-139 35q-94 0 -227 -58l-10 63q131 66 254 66t185 -54t62 -141t-63 -160t-197 -173l-223 -168h416l-10 -68h-543l8 51l324 244q72 51 109 83q100 85 100 187z" />
    <glyph glyph-name="three.numr" horiz-adv-x="720" 
d="M633 877q0 121 -195 120h-116l8 37l319 289h-399l12 70h508l-8 -50l-316 -280h19q117 -2 180 -48t64 -126q1 -113 -95 -187t-246 -74t-266 64l37 60q123 -56 233 -56t186 52q75 52 75 129z" />
    <glyph glyph-name="four.numr" horiz-adv-x="811" 
d="M215 883h377l76 417zM668 883h120l-12 -66h-119l-30 -172h-76l31 172h-482l11 53l569 523h78z" />
    <glyph glyph-name="five.numr" horiz-adv-x="768" 
d="M664 885q0 123 -191 133l-240 12l99 363h465l-13 -70h-399l-63 -225l170 -8q244 -12 243 -193q0 -119 -90 -194q-91 -75 -243 -75t-275 64l37 62q132 -58 246 -58t184 52t70 137z" />
    <glyph glyph-name="six.numr" horiz-adv-x="784" 
d="M508 1124q-104 0 -172 -58t-82 -156t36 -157t147 -59t172 64t89 159t-36 151q-51 56 -154 56zM524 1194q127 0 197 -76q69 -76 53 -202t-114 -207q-98 -82 -230 -82q-131 1 -201 77q-69 76 -55 184t92 202l269 303h92l-181 -207q49 8 78 8z" />
    <glyph glyph-name="seven.numr" horiz-adv-x="641" 
d="M758 1343l-477 -698h-86l462 674h-464l12 74h561z" />
    <glyph glyph-name="eight.numr" horiz-adv-x="755" 
d="M666 862q0 68 -52 106t-146 38q-95 0 -165 -48t-70 -118q-1 -68 51 -108t147 -40t165 51t70 119zM334 1194q0 -130 160 -129q80 0 139 46q57 47 57 109t-42 95t-120 33t-136 -45t-58 -109zM743 884q0 -112 -94 -184t-226 -72t-202 53q-69 52 -69 134q1 162 206 223
q-102 36 -102 140t83 168t195 63q112 0 174 -46t62 -124q0 -146 -164 -201q137 -41 137 -154z" />
    <glyph glyph-name="nine.numr" horiz-adv-x="784" 
d="M536 1343q-97 0 -172 -63q-76 -62 -90 -158t37 -152t151 -56t172 62q73 63 85 157q14 94 -36 152t-147 58zM543 1411q131 0 201 -77t55 -184q-14 -107 -86 -196l-260 -309h-91l175 209q-55 -10 -91 -10q-126 0 -196 76t-54 202t116 207q100 82 231 82z" />
    <glyph glyph-name="braceleft.case" horiz-adv-x="745" 
d="M532 1184l-34 -201q-25 -133 -69 -202t-132 -99q73 -26 95 -100t-1 -205l-37 -199q-26 -144 14 -202t164 -58l-12 -84q-168 0 -228 84t-28 270l37 199q25 143 -16 199t-168 57l18 82q121 0 183 60t90 204l34 199q33 184 120 265t255 81l-12 -84q-121 0 -183 -62t-90 -204
z" />
    <glyph glyph-name="braceright.case" horiz-adv-x="743" 
d="M291 184l33 201q25 135 69 203q45 68 133 98q-74 26 -96 100t2 205l35 199q27 144 -13 202t-163 58l10 84q168 0 228 -84t28 -270l-35 -199q-28 -143 14 -199t169 -57l-17 -82q-121 0 -183 -60t-89 -204l-37 -199q-33 -184 -119 -265t-256 -81l14 84q122 0 184 62t89 204
z" />
    <glyph glyph-name="bracketleft.case" horiz-adv-x="659" 
d="M182 -59h275l-15 -88h-366l293 1671h366l-14 -86h-275z" />
    <glyph glyph-name="bracketright.case" horiz-adv-x="663" 
d="M555 1438h-274l14 86h367l-293 -1671h-369l16 88h275z" />
    <glyph glyph-name="parenleft.case" horiz-adv-x="616" 
d="M618 1532l64 -41q-356 -387 -431 -808t144 -794l-78 -36q-121 207 -157 407t4 434q79 455 454 838z" />
    <glyph glyph-name="parenright.case" horiz-adv-x="608" 
d="M70 -147l-64 41q356 388 431 808t-144 793l78 37q121 -207 157 -407t-4 -435q-79 -454 -454 -837z" />
    <glyph glyph-name="emdash.case" horiz-adv-x="1843" 
d="M1690 668h-1516l16 92h1516z" />
    <glyph glyph-name="endash.case" horiz-adv-x="1345" 
d="M1192 668h-1018l16 92h1018z" />
    <glyph glyph-name="hyphen.case" horiz-adv-x="925" 
d="M768 668h-596l16 90h596z" />
    <glyph glyph-name="guillemotleft.case" horiz-adv-x="1079" 
d="M868 342l-61 -51l-311 393l446 393l49 -55l-387 -342zM494 342l-62 -51l-311 393l448 393l47 -55l-387 -342z" />
    <glyph glyph-name="guillemotright.case" horiz-adv-x="1079" 
d="M584 1026l59 51l313 -395l-448 -391l-49 53l387 344zM209 1026l59 51l314 -395l-449 -391l-49 53l387 344z" />
    <glyph glyph-name="guilsinglleft.case" horiz-adv-x="704" 
d="M494 342l-62 -51l-311 393l448 393l47 -55l-387 -342z" />
    <glyph glyph-name="guilsinglright.case" horiz-adv-x="704" 
d="M211 1026l61 51l312 -395l-449 -391l-47 53l387 344z" />
    <glyph glyph-name="backslash.case" horiz-adv-x="878" 
d="M326 1573l401 -1755h-94l-402 1755h95z" />
    <glyph glyph-name="bullet.case" horiz-adv-x="634" 
d="M359 492q-91 0 -153 61t-62 151t62 153t153 63t153 -62t63 -153q0 -90 -62 -152q-63 -61 -154 -61z" />
    <glyph glyph-name="exclamdown.case" horiz-adv-x="534" 
d="M121 0l186 1049h92l-180 -1049h-98zM400 1413q32 0 54 -20q22 -21 22 -53t-22 -54t-54 -20q-32 0 -54 22t-20 52q0 32 21 52t53 21z" />
    <glyph glyph-name="periodcentered.case" horiz-adv-x="534" 
d="M307 621q-33 1 -57 23t-23 54q0 32 24 55q25 21 57 21t56 -22t24 -54q0 -33 -24 -55t-57 -22z" />
    <glyph glyph-name="questiondown.case" horiz-adv-x="1011" 
d="M500 -31q-182 -1 -298 97q-114 98 -114 264q0 207 157 350t388 143h61l35 226h86l-43 -310h-139q-193 1 -322 -115t-129 -284q0 -133 91 -210t249 -77t324 39l4 -80q-168 -43 -350 -43zM813 1266q-31 0 -53 22t-23 52q0 30 23 52q24 22 54 22t52 -22t23 -53
q-1 -31 -23 -52t-53 -21z" />
    <glyph glyph-name="slash.case" horiz-adv-x="886" 
d="M76 -203h-96l909 1776h96z" />
    <glyph glyph-name="florin.tf" horiz-adv-x="1214" 
d="M1073 1339q-113 0 -167 -60t-103 -216l-76 -250h401l-14 -84h-414l-122 -401q-62 -199 -142 -279t-233 -80q-72 0 -168 27l28 76q96 -18 154 -19q111 1 165 61t103 216l123 399h-270l16 84h281l78 252q61 197 141 277t233 81q72 0 168 -26l-30 -76q-93 18 -152 18z" />
    <glyph glyph-name="cent.tf" horiz-adv-x="1214" 
d="M154 401q0 244 158 405q159 161 405 177l45 252h86l-45 -250q150 -6 276 -51l-28 -76q-164 45 -299 45q-214 0 -358 -137t-144 -350q0 -156 94 -249t242 -93t360 55l2 -80q-170 -51 -321 -57l-43 -254h-86l45 254q-180 10 -285 122q-104 112 -104 287z" />
    <glyph glyph-name="dollar.tf" horiz-adv-x="1214" 
d="M770 1333q-206 0 -326 -90t-118 -242q0 -90 70 -137t207 -78q135 -31 193 -46q170 -44 238 -106q92 -84 90 -208q0 -207 -156 -330t-407 -127l-53 -280h-86l53 282q-260 16 -481 115l43 86q262 -115 532 -115q199 -1 328 95t129 254q0 96 -61 147q-35 29 -60 46t-92 37
t-140 36t-87 20q-199 43 -281 108t-82 181q1 188 141 308t365 130l45 267h86l-45 -265q233 -10 430 -80l-39 -84q-230 76 -436 76z" />
    <glyph glyph-name="Euro.tf" horiz-adv-x="1214" 
d="M905 1284q-211 0 -367 -121t-223 -325h682l-28 -70h-674q-27 -100 -27 -225h613l-31 -74h-578q16 -188 122 -297t284 -109q180 0 405 72l2 -84q-219 -80 -431 -80t-340 134t-144 364h-123l12 74h109q4 123 27 225h-95l11 70h102q78 246 265 391t444 145q201 0 358 -67
l-29 -84q-186 61 -346 61z" />
    <glyph glyph-name="sterling.tf" horiz-adv-x="1214" 
d="M870 1339q-168 0 -291 -93q-124 -93 -151 -245l-59 -331h522l-14 -82h-523l-88 -506h824l-15 -82h-1083l14 82h166l88 506h-166l17 82h165l58 336q33 188 187 303q155 115 374 114q170 0 326 -43l-31 -80q-152 39 -320 39z" />
    <glyph glyph-name="yen.tf" horiz-adv-x="1214" 
d="M1126 557l-14 -76h-453l-34 -202h452l-14 -76h-453l-37 -203h-96l37 203h-436l14 76h436l35 202h-436l14 76h410l-346 836h108l322 -777l594 777h108l-641 -836h430z" />
    <glyph glyph-name="arrowdown.ss06" horiz-adv-x="1431" 
d="M688 944h55v-407l175 174l40 -41l-241 -242l-244 242l41 41l174 -174v407zM717 219q195 0 332 138t137 333t-138 332t-332 137t-332 -137t-138 -332t138 -333t333 -138zM716 156q-220 0 -377 156t-157 377q0 220 157 377t377 157t377 -157t157 -377t-157 -377
q-157 -156 -377 -156z" />
    <glyph glyph-name="arrowdownleft.ss06" horiz-adv-x="1433" 
d="M532 506v342h58v-246l287 287l41 -39l-289 -289h245v-55h-342zM1188 690q0 195 -137 332t-333 138t-334 -137t-138 -333t138 -333t334 -137t333 138t137 332zM184 688q0 221 156 379t377 158t378 -157t157 -378t-156 -377t-378 -157t-378 155t-156 377z" />
    <glyph glyph-name="arrowdownright.ss06" horiz-adv-x="1431" 
d="M559 561h246l-289 289l41 39l287 -287v246h57v-342h-342v55zM1188 690q0 195 -138 333t-334 137t-333 -138t-137 -332t137 -332t333 -138t334 137t138 333zM182 689q0 220 156 378q158 158 379 158t377 -158t156 -379t-156 -377q-156 -157 -378 -155t-378 158t-156 375z
" />
    <glyph glyph-name="arrowleft.ss06" horiz-adv-x="1431" 
d="M971 717v-55h-408l174 -175l-41 -38l-241 239l241 244l41 -41l-174 -174h408zM246 688q0 -195 138 -332t332 -137t332 138t138 332t-137 332t-332 138t-333 -138t-138 -333zM182 689q0 220 157 377t377 157t377 -157t157 -377t-158 -377q-156 -156 -376 -156t-377 156
t-157 377z" />
    <glyph glyph-name="arrowright.ss06" horiz-adv-x="1431" 
d="M461 662v55h407l-174 174l41 41l242 -244l-242 -239l-41 38l174 175h-407zM1186 688q0 195 -138 333t-333 138t-332 -138t-137 -332t137 -332t332 -138t333 137t138 332zM716 1223q220 0 376 -157t157 -377q-1 -220 -157 -377q-156 -156 -376 -156t-377 156t-157 377
q0 220 157 377t377 157z" />
    <glyph glyph-name="arrowup.ss06" horiz-adv-x="1431" 
d="M743 434h-55v408l-174 -174l-41 41l244 241l241 -241l-40 -41l-175 174v-408zM717 1159q-195 0 -333 -138t-138 -333t138 -332t332 -137t332 138t138 332t-137 332t-332 138zM716 1223q220 0 377 -157t157 -377t-158 -377q-156 -156 -376 -156t-377 156t-157 377
q0 220 157 377t377 157z" />
    <glyph glyph-name="arrowupleft.ss06" horiz-adv-x="1433" 
d="M874 819h-245l289 -289l-41 -38l-287 286v-246h-58v342h342v-55zM246 690q0 -195 138 -333t334 -137t333 138t137 332t-137 332t-333 138t-334 -137t-138 -333zM184 692q0 221 156 377t378 155t378 -157t156 -376t-158 -378q-156 -157 -377 -157t-377 158t-156 378z" />
    <glyph glyph-name="arrowupright.ss06" horiz-adv-x="1431" 
d="M901 874v-342h-57v246l-287 -286l-41 38l289 289h-246v55h342zM246 690q0 -195 137 -332t333 -138t334 137t138 333t-138 333t-334 137t-333 -138t-137 -332zM182 691q0 220 156 376t378 157t378 -155t156 -377t-156 -379q-156 -157 -377 -157t-379 157
q-156 158 -156 378z" />
    <glyph glyph-name="arrowdown.ss08" horiz-adv-x="1431" 
d="M743 944h-55v-407l-174 174l-41 -41l244 -242l241 242l-40 41l-175 -174v407zM716 156q-220 0 -377 156t-157 377q0 220 157 377t377 157t377 -157t157 -377t-157 -377q-157 -156 -377 -156z" />
    <glyph glyph-name="arrowdownleft.ss08" horiz-adv-x="1433" 
d="M874 561h-245l289 289l-41 39l-287 -287v246h-58v-342h342v55zM184 688q0 221 156 379t377 158t378 -157t157 -378t-156 -377t-378 -157t-378 155t-156 377z" />
    <glyph glyph-name="arrowdownright.ss08" horiz-adv-x="1431" 
d="M901 506v342h-57v-246l-287 287l-41 -39l289 -289h-246v-55h342zM182 689q0 220 156 378q158 158 379 158t377 -158t156 -379t-156 -377q-156 -157 -378 -155t-378 158t-156 375z" />
    <glyph glyph-name="arrowleft.ss08" horiz-adv-x="1431" 
d="M971 662v55h-408l174 174l-41 41l-241 -244l241 -239l41 38l-174 175h408zM182 689q0 220 157 377t377 157t377 -157t157 -377t-158 -377q-156 -156 -376 -156t-377 156t-157 377z" />
    <glyph glyph-name="arrowright.ss08" horiz-adv-x="1431" 
d="M461 717v-55h407l-174 -175l41 -38l242 239l-242 244l-41 -41l174 -174h-407zM716 1223q220 0 376 -157t157 -377q-1 -220 -157 -377q-156 -156 -376 -156t-377 156t-157 377q0 220 157 377t377 157z" />
    <glyph glyph-name="arrowup.ss08" horiz-adv-x="1431" 
d="M688 434h55v408l175 -174l40 41l-241 241l-244 -241l41 -41l174 174v-408zM716 1223q220 0 377 -157t157 -377t-158 -377q-156 -156 -376 -156t-377 156t-157 377q0 220 157 377t377 157z" />
    <glyph glyph-name="arrowupleft.ss08" horiz-adv-x="1433" 
d="M532 874v-342h58v246l287 -286l41 38l-289 289h245v55h-342zM184 692q0 221 156 377t378 155t378 -157t156 -376t-158 -378q-156 -157 -377 -157t-377 158t-156 378z" />
    <glyph glyph-name="arrowupright.ss08" horiz-adv-x="1431" 
d="M559 819h246l-289 -289l41 -38l287 286v-246h57v342h-342v-55zM182 691q0 220 156 376t378 157t378 -155t156 -377t-156 -379q-156 -157 -377 -157t-379 157q-156 158 -156 378z" />
    <glyph glyph-name="arrowdown.ss09" horiz-adv-x="1267" 
d="M1194 838l-494 -496l-495 496l57 59l438 -436l437 436z" />
    <glyph glyph-name="arrowup.ss09" horiz-adv-x="1267" 
d="M1071 403l-436 439l-438 -439l-58 60l494 495l495 -495z" />
    <glyph glyph-name="arrowleft.ss09" 
d="M414 707l436 -437l-57 -57l-496 494l496 495l59 -57z" />
    <glyph glyph-name="arrowright.ss09" 
d="M928 707l-494 -494l-59 57l436 437l-438 438l59 57z" />
    <glyph glyph-name="registered.ss07" horiz-adv-x="1200" 
d="M707 979q53 0 88 30q35 29 35 69q-1 80 -105 81l-90 -2l-33 -178h105zM732 1217q64 0 112 -35q47 -35 47 -90q0 -56 -36 -98t-91 -56l86 -172h-64l-79 158h-113l-29 -158h-55l78 444q80 7 144 7zM1092 977q0 171 -114 283t-285 112t-285 -115t-115 -283q0 -168 115 -282
q114 -112 286 -112t285 114t113 283zM691 526q-195 0 -325 128t-130 321t130 321t325 127q196 0 326 -127q130 -128 130 -320t-130 -321t-326 -129z" />
    <glyph glyph-name="at.case" horiz-adv-x="2066" 
d="M1070 1057q-198 0 -327 -132t-129 -327q0 -154 85 -246t244 -92t392 133q-4 66 8 137l89 494q-164 33 -362 33zM1208 1565q356 0 564 -201q208 -200 208 -520t-116 -488t-300 -168q-186 0 -223 136q-238 -142 -428 -142t-295 117q-104 117 -94 309q10 227 167 377
t393 150t448 -50l-100 -565q-23 -132 9 -196t136 -64q156 0 247 144t91 417q-1 313 -191 499t-524 185q-197 1 -381 -75t-321 -203t-220 -306t-83 -374q1 -301 195 -499t507 -198q203 0 504 66v-55q-283 -70 -514 -70q-342 0 -551 210t-209 538q0 211 88 402
q176 381 580 544q198 80 413 80z" />
    <glyph glyph-name="bar.case" horiz-adv-x="626" 
d="M563 1630l-332 -1880h-88l332 1880h88z" />
    <glyph glyph-name="brokenbar.case" horiz-adv-x="626" 
d="M231 -252h-88l148 836h88zM416 793h-88l147 835h88z" />
    <glyph glyph-name="caron.alt" 
d="M819 1393l-117 -396h-73l92 396h98z" />
    <glyph glyph-name="acute.case" 
d="M1122 1839l-270 -319h-96l241 319h125z" />
    <glyph glyph-name="breve.case" 
d="M749 1536q-126 0 -191 76t-42 200h76q-14 -94 32 -149t138 -55t159 55t83 149h75q-23 -124 -113 -200t-217 -76z" />
    <glyph glyph-name="caron.case" 
d="M844 1513h-90l-209 324h98l166 -254l258 254h100z" />
    <glyph glyph-name="circumflex.case" 
d="M846 1765l-260 -245h-99l324 319h90l209 -319h-94z" />
    <glyph glyph-name="dieresis.case" 
d="M1028 1608q-30 0 -52 20t-22 50t22 50t52 21q30 0 51 -20q21 -21 21 -51t-20 -50t-52 -20zM602 1608q-30 0 -52 20t-22 50t22 50t52 21q30 0 51 -20q21 -21 21 -51t-20 -50t-52 -20z" />
    <glyph glyph-name="dotaccent.case" 
d="M783 1612q-29 0 -51 20t-22 50t22 52t52 22t51 -22t21 -52t-22 -50t-51 -20z" />
    <glyph glyph-name="grave.case" 
d="M860 1520h-88l-162 319h123z" />
    <glyph glyph-name="hungarumlaut.case" 
d="M1262 1841l-246 -323h-92l227 323h111zM991 1841l-246 -323h-92l228 323h110z" />
    <glyph glyph-name="macron.case" 
d="M1110 1683l-12 -73h-566l13 73h565z" />
    <glyph glyph-name="ring.case" 
d="M771 1554q52 0 90 37t38 91t-32 84t-84 30t-90 -38t-38 -90t32 -83t84 -31zM788 1855q78 0 126 -47q48 -48 48 -126t-58 -134t-137 -55q-79 0 -127 48t-48 127t58 133q59 54 138 54z" />
    <glyph glyph-name="tilde.case" 
d="M1016 1708h82q-10 -61 -45 -103q-35 -41 -78 -55q-97 -31 -158 17l-104 80q-37 33 -92 13t-68 -89h-80q10 61 45 103t77 56q94 30 157 -16l104 -82q40 -32 94 -12t66 88z" />
    </font>
</defs>
</svg>
